%TF.GenerationSoftware,KiCad,Pcbnew,8.0.0*%
%TF.CreationDate,2024-10-10T22:06:13+02:00*%
%TF.ProjectId,Profiler energetyczny urz_dze_ IoT,50726f66-696c-4657-9220-656e65726765,rev?*%
%TF.SameCoordinates,Original*%
%TF.FileFunction,Drillmap*%
%TF.FilePolarity,Positive*%
%FSLAX45Y45*%
G04 Gerber Fmt 4.5, Leading zero omitted, Abs format (unit mm)*
G04 Created by KiCad (PCBNEW 8.0.0) date 2024-10-10 22:06:13*
%MOMM*%
%LPD*%
G01*
G04 APERTURE LIST*
%ADD10C,0.050000*%
%ADD11C,0.200000*%
%ADD12C,0.440000*%
G04 APERTURE END LIST*
D10*
X15375000Y-6525000D02*
X15375000Y-7525000D01*
X15500000Y-15325000D02*
X15375000Y-15325000D01*
X9500000Y-16325000D02*
X9500000Y-13425000D01*
X9500000Y-9425000D02*
X9500000Y-6525000D01*
X15375000Y-15325000D02*
X15375000Y-16325000D01*
X9500000Y-9925000D02*
X10700000Y-9925000D01*
X10700000Y-13425000D02*
X10700000Y-12925000D01*
X10700000Y-12925000D02*
X9500000Y-12925000D01*
X10700000Y-9425000D02*
X9500000Y-9425000D01*
X9500000Y-12925000D02*
X9500000Y-9925000D01*
X9500000Y-13425000D02*
X10700000Y-13425000D01*
X9500000Y-6525000D02*
X15375000Y-6525000D01*
X10700000Y-9925000D02*
X10700000Y-9425000D01*
X15375000Y-16325000D02*
X9500000Y-16325000D01*
X15500000Y-7525000D02*
X15500000Y-15325000D01*
X15375000Y-7525000D02*
X15500000Y-7525000D01*
D11*
D12*
X10292500Y-10815000D02*
X10732500Y-11255000D01*
X10732500Y-10815000D02*
X10292500Y-11255000D01*
X10292500Y-11595000D02*
X10732500Y-12035000D01*
X10732500Y-11595000D02*
X10292500Y-12035000D01*
D11*
X9758277Y-16638984D02*
X9758277Y-16438984D01*
X9758277Y-16438984D02*
X9805896Y-16438984D01*
X9805896Y-16438984D02*
X9834467Y-16448508D01*
X9834467Y-16448508D02*
X9853515Y-16467555D01*
X9853515Y-16467555D02*
X9863039Y-16486603D01*
X9863039Y-16486603D02*
X9872563Y-16524698D01*
X9872563Y-16524698D02*
X9872563Y-16553269D01*
X9872563Y-16553269D02*
X9863039Y-16591365D01*
X9863039Y-16591365D02*
X9853515Y-16610412D01*
X9853515Y-16610412D02*
X9834467Y-16629460D01*
X9834467Y-16629460D02*
X9805896Y-16638984D01*
X9805896Y-16638984D02*
X9758277Y-16638984D01*
X9958277Y-16638984D02*
X9958277Y-16505650D01*
X9958277Y-16543746D02*
X9967801Y-16524698D01*
X9967801Y-16524698D02*
X9977324Y-16515174D01*
X9977324Y-16515174D02*
X9996372Y-16505650D01*
X9996372Y-16505650D02*
X10015420Y-16505650D01*
X10082086Y-16638984D02*
X10082086Y-16505650D01*
X10082086Y-16438984D02*
X10072563Y-16448508D01*
X10072563Y-16448508D02*
X10082086Y-16458031D01*
X10082086Y-16458031D02*
X10091610Y-16448508D01*
X10091610Y-16448508D02*
X10082086Y-16438984D01*
X10082086Y-16438984D02*
X10082086Y-16458031D01*
X10205896Y-16638984D02*
X10186848Y-16629460D01*
X10186848Y-16629460D02*
X10177324Y-16610412D01*
X10177324Y-16610412D02*
X10177324Y-16438984D01*
X10310658Y-16638984D02*
X10291610Y-16629460D01*
X10291610Y-16629460D02*
X10282086Y-16610412D01*
X10282086Y-16610412D02*
X10282086Y-16438984D01*
X10539229Y-16638984D02*
X10539229Y-16438984D01*
X10539229Y-16438984D02*
X10605896Y-16581841D01*
X10605896Y-16581841D02*
X10672563Y-16438984D01*
X10672563Y-16438984D02*
X10672563Y-16638984D01*
X10853515Y-16638984D02*
X10853515Y-16534222D01*
X10853515Y-16534222D02*
X10843991Y-16515174D01*
X10843991Y-16515174D02*
X10824944Y-16505650D01*
X10824944Y-16505650D02*
X10786848Y-16505650D01*
X10786848Y-16505650D02*
X10767801Y-16515174D01*
X10853515Y-16629460D02*
X10834467Y-16638984D01*
X10834467Y-16638984D02*
X10786848Y-16638984D01*
X10786848Y-16638984D02*
X10767801Y-16629460D01*
X10767801Y-16629460D02*
X10758277Y-16610412D01*
X10758277Y-16610412D02*
X10758277Y-16591365D01*
X10758277Y-16591365D02*
X10767801Y-16572317D01*
X10767801Y-16572317D02*
X10786848Y-16562793D01*
X10786848Y-16562793D02*
X10834467Y-16562793D01*
X10834467Y-16562793D02*
X10853515Y-16553269D01*
X10948753Y-16505650D02*
X10948753Y-16705650D01*
X10948753Y-16515174D02*
X10967801Y-16505650D01*
X10967801Y-16505650D02*
X11005896Y-16505650D01*
X11005896Y-16505650D02*
X11024944Y-16515174D01*
X11024944Y-16515174D02*
X11034467Y-16524698D01*
X11034467Y-16524698D02*
X11043991Y-16543746D01*
X11043991Y-16543746D02*
X11043991Y-16600888D01*
X11043991Y-16600888D02*
X11034467Y-16619936D01*
X11034467Y-16619936D02*
X11024944Y-16629460D01*
X11024944Y-16629460D02*
X11005896Y-16638984D01*
X11005896Y-16638984D02*
X10967801Y-16638984D01*
X10967801Y-16638984D02*
X10948753Y-16629460D01*
X11129705Y-16619936D02*
X11139229Y-16629460D01*
X11139229Y-16629460D02*
X11129705Y-16638984D01*
X11129705Y-16638984D02*
X11120182Y-16629460D01*
X11120182Y-16629460D02*
X11129705Y-16619936D01*
X11129705Y-16619936D02*
X11129705Y-16638984D01*
X11129705Y-16515174D02*
X11139229Y-16524698D01*
X11139229Y-16524698D02*
X11129705Y-16534222D01*
X11129705Y-16534222D02*
X11120182Y-16524698D01*
X11120182Y-16524698D02*
X11129705Y-16515174D01*
X11129705Y-16515174D02*
X11129705Y-16534222D01*
X9297500Y-16867500D02*
X9497500Y-17067500D01*
X9497500Y-16867500D02*
X9297500Y-17067500D01*
X9843991Y-16925650D02*
X9843991Y-17058984D01*
X9796372Y-16849460D02*
X9748753Y-16992317D01*
X9748753Y-16992317D02*
X9872563Y-16992317D01*
X9948753Y-17039936D02*
X9958277Y-17049460D01*
X9958277Y-17049460D02*
X9948753Y-17058984D01*
X9948753Y-17058984D02*
X9939229Y-17049460D01*
X9939229Y-17049460D02*
X9948753Y-17039936D01*
X9948753Y-17039936D02*
X9948753Y-17058984D01*
X10129705Y-16925650D02*
X10129705Y-17058984D01*
X10082086Y-16849460D02*
X10034467Y-16992317D01*
X10034467Y-16992317D02*
X10158277Y-16992317D01*
X10272563Y-16858984D02*
X10291610Y-16858984D01*
X10291610Y-16858984D02*
X10310658Y-16868508D01*
X10310658Y-16868508D02*
X10320182Y-16878031D01*
X10320182Y-16878031D02*
X10329705Y-16897079D01*
X10329705Y-16897079D02*
X10339229Y-16935174D01*
X10339229Y-16935174D02*
X10339229Y-16982793D01*
X10339229Y-16982793D02*
X10329705Y-17020889D01*
X10329705Y-17020889D02*
X10320182Y-17039936D01*
X10320182Y-17039936D02*
X10310658Y-17049460D01*
X10310658Y-17049460D02*
X10291610Y-17058984D01*
X10291610Y-17058984D02*
X10272563Y-17058984D01*
X10272563Y-17058984D02*
X10253515Y-17049460D01*
X10253515Y-17049460D02*
X10243991Y-17039936D01*
X10243991Y-17039936D02*
X10234467Y-17020889D01*
X10234467Y-17020889D02*
X10224944Y-16982793D01*
X10224944Y-16982793D02*
X10224944Y-16935174D01*
X10224944Y-16935174D02*
X10234467Y-16897079D01*
X10234467Y-16897079D02*
X10243991Y-16878031D01*
X10243991Y-16878031D02*
X10253515Y-16868508D01*
X10253515Y-16868508D02*
X10272563Y-16858984D01*
X10463039Y-16858984D02*
X10482086Y-16858984D01*
X10482086Y-16858984D02*
X10501134Y-16868508D01*
X10501134Y-16868508D02*
X10510658Y-16878031D01*
X10510658Y-16878031D02*
X10520182Y-16897079D01*
X10520182Y-16897079D02*
X10529705Y-16935174D01*
X10529705Y-16935174D02*
X10529705Y-16982793D01*
X10529705Y-16982793D02*
X10520182Y-17020889D01*
X10520182Y-17020889D02*
X10510658Y-17039936D01*
X10510658Y-17039936D02*
X10501134Y-17049460D01*
X10501134Y-17049460D02*
X10482086Y-17058984D01*
X10482086Y-17058984D02*
X10463039Y-17058984D01*
X10463039Y-17058984D02*
X10443991Y-17049460D01*
X10443991Y-17049460D02*
X10434467Y-17039936D01*
X10434467Y-17039936D02*
X10424944Y-17020889D01*
X10424944Y-17020889D02*
X10415420Y-16982793D01*
X10415420Y-16982793D02*
X10415420Y-16935174D01*
X10415420Y-16935174D02*
X10424944Y-16897079D01*
X10424944Y-16897079D02*
X10434467Y-16878031D01*
X10434467Y-16878031D02*
X10443991Y-16868508D01*
X10443991Y-16868508D02*
X10463039Y-16858984D01*
X10615420Y-17058984D02*
X10615420Y-16925650D01*
X10615420Y-16944698D02*
X10624944Y-16935174D01*
X10624944Y-16935174D02*
X10643991Y-16925650D01*
X10643991Y-16925650D02*
X10672563Y-16925650D01*
X10672563Y-16925650D02*
X10691610Y-16935174D01*
X10691610Y-16935174D02*
X10701134Y-16954222D01*
X10701134Y-16954222D02*
X10701134Y-17058984D01*
X10701134Y-16954222D02*
X10710658Y-16935174D01*
X10710658Y-16935174D02*
X10729705Y-16925650D01*
X10729705Y-16925650D02*
X10758277Y-16925650D01*
X10758277Y-16925650D02*
X10777325Y-16935174D01*
X10777325Y-16935174D02*
X10786848Y-16954222D01*
X10786848Y-16954222D02*
X10786848Y-17058984D01*
X10882086Y-17058984D02*
X10882086Y-16925650D01*
X10882086Y-16944698D02*
X10891610Y-16935174D01*
X10891610Y-16935174D02*
X10910658Y-16925650D01*
X10910658Y-16925650D02*
X10939229Y-16925650D01*
X10939229Y-16925650D02*
X10958277Y-16935174D01*
X10958277Y-16935174D02*
X10967801Y-16954222D01*
X10967801Y-16954222D02*
X10967801Y-17058984D01*
X10967801Y-16954222D02*
X10977325Y-16935174D01*
X10977325Y-16935174D02*
X10996372Y-16925650D01*
X10996372Y-16925650D02*
X11024944Y-16925650D01*
X11024944Y-16925650D02*
X11043991Y-16935174D01*
X11043991Y-16935174D02*
X11053515Y-16954222D01*
X11053515Y-16954222D02*
X11053515Y-17058984D01*
X11443991Y-16849460D02*
X11272563Y-17106603D01*
X11701134Y-16858984D02*
X11720182Y-16858984D01*
X11720182Y-16858984D02*
X11739229Y-16868508D01*
X11739229Y-16868508D02*
X11748753Y-16878031D01*
X11748753Y-16878031D02*
X11758277Y-16897079D01*
X11758277Y-16897079D02*
X11767801Y-16935174D01*
X11767801Y-16935174D02*
X11767801Y-16982793D01*
X11767801Y-16982793D02*
X11758277Y-17020889D01*
X11758277Y-17020889D02*
X11748753Y-17039936D01*
X11748753Y-17039936D02*
X11739229Y-17049460D01*
X11739229Y-17049460D02*
X11720182Y-17058984D01*
X11720182Y-17058984D02*
X11701134Y-17058984D01*
X11701134Y-17058984D02*
X11682086Y-17049460D01*
X11682086Y-17049460D02*
X11672563Y-17039936D01*
X11672563Y-17039936D02*
X11663039Y-17020889D01*
X11663039Y-17020889D02*
X11653515Y-16982793D01*
X11653515Y-16982793D02*
X11653515Y-16935174D01*
X11653515Y-16935174D02*
X11663039Y-16897079D01*
X11663039Y-16897079D02*
X11672563Y-16878031D01*
X11672563Y-16878031D02*
X11682086Y-16868508D01*
X11682086Y-16868508D02*
X11701134Y-16858984D01*
X11853515Y-17039936D02*
X11863039Y-17049460D01*
X11863039Y-17049460D02*
X11853515Y-17058984D01*
X11853515Y-17058984D02*
X11843991Y-17049460D01*
X11843991Y-17049460D02*
X11853515Y-17039936D01*
X11853515Y-17039936D02*
X11853515Y-17058984D01*
X12053515Y-17058984D02*
X11939229Y-17058984D01*
X11996372Y-17058984D02*
X11996372Y-16858984D01*
X11996372Y-16858984D02*
X11977325Y-16887555D01*
X11977325Y-16887555D02*
X11958277Y-16906603D01*
X11958277Y-16906603D02*
X11939229Y-16916127D01*
X12120182Y-16858984D02*
X12253515Y-16858984D01*
X12253515Y-16858984D02*
X12167801Y-17058984D01*
X12310658Y-16858984D02*
X12434467Y-16858984D01*
X12434467Y-16858984D02*
X12367801Y-16935174D01*
X12367801Y-16935174D02*
X12396372Y-16935174D01*
X12396372Y-16935174D02*
X12415420Y-16944698D01*
X12415420Y-16944698D02*
X12424944Y-16954222D01*
X12424944Y-16954222D02*
X12434467Y-16973270D01*
X12434467Y-16973270D02*
X12434467Y-17020889D01*
X12434467Y-17020889D02*
X12424944Y-17039936D01*
X12424944Y-17039936D02*
X12415420Y-17049460D01*
X12415420Y-17049460D02*
X12396372Y-17058984D01*
X12396372Y-17058984D02*
X12339229Y-17058984D01*
X12339229Y-17058984D02*
X12320182Y-17049460D01*
X12320182Y-17049460D02*
X12310658Y-17039936D01*
X12510658Y-16878031D02*
X12520182Y-16868508D01*
X12520182Y-16868508D02*
X12539229Y-16858984D01*
X12539229Y-16858984D02*
X12586848Y-16858984D01*
X12586848Y-16858984D02*
X12605896Y-16868508D01*
X12605896Y-16868508D02*
X12615420Y-16878031D01*
X12615420Y-16878031D02*
X12624944Y-16897079D01*
X12624944Y-16897079D02*
X12624944Y-16916127D01*
X12624944Y-16916127D02*
X12615420Y-16944698D01*
X12615420Y-16944698D02*
X12501134Y-17058984D01*
X12501134Y-17058984D02*
X12624944Y-17058984D01*
X12701134Y-16858984D02*
X12701134Y-16897079D01*
X12777325Y-16858984D02*
X12777325Y-16897079D01*
X13072563Y-17135174D02*
X13063039Y-17125650D01*
X13063039Y-17125650D02*
X13043991Y-17097079D01*
X13043991Y-17097079D02*
X13034468Y-17078031D01*
X13034468Y-17078031D02*
X13024944Y-17049460D01*
X13024944Y-17049460D02*
X13015420Y-17001841D01*
X13015420Y-17001841D02*
X13015420Y-16963746D01*
X13015420Y-16963746D02*
X13024944Y-16916127D01*
X13024944Y-16916127D02*
X13034468Y-16887555D01*
X13034468Y-16887555D02*
X13043991Y-16868508D01*
X13043991Y-16868508D02*
X13063039Y-16839936D01*
X13063039Y-16839936D02*
X13072563Y-16830412D01*
X13139229Y-16878031D02*
X13148753Y-16868508D01*
X13148753Y-16868508D02*
X13167801Y-16858984D01*
X13167801Y-16858984D02*
X13215420Y-16858984D01*
X13215420Y-16858984D02*
X13234468Y-16868508D01*
X13234468Y-16868508D02*
X13243991Y-16878031D01*
X13243991Y-16878031D02*
X13253515Y-16897079D01*
X13253515Y-16897079D02*
X13253515Y-16916127D01*
X13253515Y-16916127D02*
X13243991Y-16944698D01*
X13243991Y-16944698D02*
X13129706Y-17058984D01*
X13129706Y-17058984D02*
X13253515Y-17058984D01*
X13491610Y-17058984D02*
X13491610Y-16858984D01*
X13577325Y-17058984D02*
X13577325Y-16954222D01*
X13577325Y-16954222D02*
X13567801Y-16935174D01*
X13567801Y-16935174D02*
X13548753Y-16925650D01*
X13548753Y-16925650D02*
X13520182Y-16925650D01*
X13520182Y-16925650D02*
X13501134Y-16935174D01*
X13501134Y-16935174D02*
X13491610Y-16944698D01*
X13701134Y-17058984D02*
X13682087Y-17049460D01*
X13682087Y-17049460D02*
X13672563Y-17039936D01*
X13672563Y-17039936D02*
X13663039Y-17020889D01*
X13663039Y-17020889D02*
X13663039Y-16963746D01*
X13663039Y-16963746D02*
X13672563Y-16944698D01*
X13672563Y-16944698D02*
X13682087Y-16935174D01*
X13682087Y-16935174D02*
X13701134Y-16925650D01*
X13701134Y-16925650D02*
X13729706Y-16925650D01*
X13729706Y-16925650D02*
X13748753Y-16935174D01*
X13748753Y-16935174D02*
X13758277Y-16944698D01*
X13758277Y-16944698D02*
X13767801Y-16963746D01*
X13767801Y-16963746D02*
X13767801Y-17020889D01*
X13767801Y-17020889D02*
X13758277Y-17039936D01*
X13758277Y-17039936D02*
X13748753Y-17049460D01*
X13748753Y-17049460D02*
X13729706Y-17058984D01*
X13729706Y-17058984D02*
X13701134Y-17058984D01*
X13882087Y-17058984D02*
X13863039Y-17049460D01*
X13863039Y-17049460D02*
X13853515Y-17030412D01*
X13853515Y-17030412D02*
X13853515Y-16858984D01*
X14034468Y-17049460D02*
X14015420Y-17058984D01*
X14015420Y-17058984D02*
X13977325Y-17058984D01*
X13977325Y-17058984D02*
X13958277Y-17049460D01*
X13958277Y-17049460D02*
X13948753Y-17030412D01*
X13948753Y-17030412D02*
X13948753Y-16954222D01*
X13948753Y-16954222D02*
X13958277Y-16935174D01*
X13958277Y-16935174D02*
X13977325Y-16925650D01*
X13977325Y-16925650D02*
X14015420Y-16925650D01*
X14015420Y-16925650D02*
X14034468Y-16935174D01*
X14034468Y-16935174D02*
X14043991Y-16954222D01*
X14043991Y-16954222D02*
X14043991Y-16973270D01*
X14043991Y-16973270D02*
X13948753Y-16992317D01*
X14120182Y-17049460D02*
X14139230Y-17058984D01*
X14139230Y-17058984D02*
X14177325Y-17058984D01*
X14177325Y-17058984D02*
X14196372Y-17049460D01*
X14196372Y-17049460D02*
X14205896Y-17030412D01*
X14205896Y-17030412D02*
X14205896Y-17020889D01*
X14205896Y-17020889D02*
X14196372Y-17001841D01*
X14196372Y-17001841D02*
X14177325Y-16992317D01*
X14177325Y-16992317D02*
X14148753Y-16992317D01*
X14148753Y-16992317D02*
X14129706Y-16982793D01*
X14129706Y-16982793D02*
X14120182Y-16963746D01*
X14120182Y-16963746D02*
X14120182Y-16954222D01*
X14120182Y-16954222D02*
X14129706Y-16935174D01*
X14129706Y-16935174D02*
X14148753Y-16925650D01*
X14148753Y-16925650D02*
X14177325Y-16925650D01*
X14177325Y-16925650D02*
X14196372Y-16935174D01*
X14272563Y-17135174D02*
X14282087Y-17125650D01*
X14282087Y-17125650D02*
X14301134Y-17097079D01*
X14301134Y-17097079D02*
X14310658Y-17078031D01*
X14310658Y-17078031D02*
X14320182Y-17049460D01*
X14320182Y-17049460D02*
X14329706Y-17001841D01*
X14329706Y-17001841D02*
X14329706Y-16963746D01*
X14329706Y-16963746D02*
X14320182Y-16916127D01*
X14320182Y-16916127D02*
X14310658Y-16887555D01*
X14310658Y-16887555D02*
X14301134Y-16868508D01*
X14301134Y-16868508D02*
X14282087Y-16839936D01*
X14282087Y-16839936D02*
X14272563Y-16830412D01*
X14634468Y-17135174D02*
X14624944Y-17125650D01*
X14624944Y-17125650D02*
X14605896Y-17097079D01*
X14605896Y-17097079D02*
X14596372Y-17078031D01*
X14596372Y-17078031D02*
X14586849Y-17049460D01*
X14586849Y-17049460D02*
X14577325Y-17001841D01*
X14577325Y-17001841D02*
X14577325Y-16963746D01*
X14577325Y-16963746D02*
X14586849Y-16916127D01*
X14586849Y-16916127D02*
X14596372Y-16887555D01*
X14596372Y-16887555D02*
X14605896Y-16868508D01*
X14605896Y-16868508D02*
X14624944Y-16839936D01*
X14624944Y-16839936D02*
X14634468Y-16830412D01*
X14710658Y-16925650D02*
X14710658Y-17058984D01*
X14710658Y-16944698D02*
X14720182Y-16935174D01*
X14720182Y-16935174D02*
X14739230Y-16925650D01*
X14739230Y-16925650D02*
X14767801Y-16925650D01*
X14767801Y-16925650D02*
X14786849Y-16935174D01*
X14786849Y-16935174D02*
X14796372Y-16954222D01*
X14796372Y-16954222D02*
X14796372Y-17058984D01*
X14920182Y-17058984D02*
X14901134Y-17049460D01*
X14901134Y-17049460D02*
X14891611Y-17039936D01*
X14891611Y-17039936D02*
X14882087Y-17020889D01*
X14882087Y-17020889D02*
X14882087Y-16963746D01*
X14882087Y-16963746D02*
X14891611Y-16944698D01*
X14891611Y-16944698D02*
X14901134Y-16935174D01*
X14901134Y-16935174D02*
X14920182Y-16925650D01*
X14920182Y-16925650D02*
X14948753Y-16925650D01*
X14948753Y-16925650D02*
X14967801Y-16935174D01*
X14967801Y-16935174D02*
X14977325Y-16944698D01*
X14977325Y-16944698D02*
X14986849Y-16963746D01*
X14986849Y-16963746D02*
X14986849Y-17020889D01*
X14986849Y-17020889D02*
X14977325Y-17039936D01*
X14977325Y-17039936D02*
X14967801Y-17049460D01*
X14967801Y-17049460D02*
X14948753Y-17058984D01*
X14948753Y-17058984D02*
X14920182Y-17058984D01*
X15043992Y-16925650D02*
X15120182Y-16925650D01*
X15072563Y-16858984D02*
X15072563Y-17030412D01*
X15072563Y-17030412D02*
X15082087Y-17049460D01*
X15082087Y-17049460D02*
X15101134Y-17058984D01*
X15101134Y-17058984D02*
X15120182Y-17058984D01*
X15339230Y-16925650D02*
X15339230Y-17125650D01*
X15339230Y-16935174D02*
X15358277Y-16925650D01*
X15358277Y-16925650D02*
X15396373Y-16925650D01*
X15396373Y-16925650D02*
X15415420Y-16935174D01*
X15415420Y-16935174D02*
X15424944Y-16944698D01*
X15424944Y-16944698D02*
X15434468Y-16963746D01*
X15434468Y-16963746D02*
X15434468Y-17020889D01*
X15434468Y-17020889D02*
X15424944Y-17039936D01*
X15424944Y-17039936D02*
X15415420Y-17049460D01*
X15415420Y-17049460D02*
X15396373Y-17058984D01*
X15396373Y-17058984D02*
X15358277Y-17058984D01*
X15358277Y-17058984D02*
X15339230Y-17049460D01*
X15548753Y-17058984D02*
X15529706Y-17049460D01*
X15529706Y-17049460D02*
X15520182Y-17030412D01*
X15520182Y-17030412D02*
X15520182Y-16858984D01*
X15710658Y-17058984D02*
X15710658Y-16954222D01*
X15710658Y-16954222D02*
X15701134Y-16935174D01*
X15701134Y-16935174D02*
X15682087Y-16925650D01*
X15682087Y-16925650D02*
X15643992Y-16925650D01*
X15643992Y-16925650D02*
X15624944Y-16935174D01*
X15710658Y-17049460D02*
X15691611Y-17058984D01*
X15691611Y-17058984D02*
X15643992Y-17058984D01*
X15643992Y-17058984D02*
X15624944Y-17049460D01*
X15624944Y-17049460D02*
X15615420Y-17030412D01*
X15615420Y-17030412D02*
X15615420Y-17011365D01*
X15615420Y-17011365D02*
X15624944Y-16992317D01*
X15624944Y-16992317D02*
X15643992Y-16982793D01*
X15643992Y-16982793D02*
X15691611Y-16982793D01*
X15691611Y-16982793D02*
X15710658Y-16973270D01*
X15777325Y-16925650D02*
X15853515Y-16925650D01*
X15805896Y-16858984D02*
X15805896Y-17030412D01*
X15805896Y-17030412D02*
X15815420Y-17049460D01*
X15815420Y-17049460D02*
X15834468Y-17058984D01*
X15834468Y-17058984D02*
X15853515Y-17058984D01*
X15996373Y-17049460D02*
X15977325Y-17058984D01*
X15977325Y-17058984D02*
X15939230Y-17058984D01*
X15939230Y-17058984D02*
X15920182Y-17049460D01*
X15920182Y-17049460D02*
X15910658Y-17030412D01*
X15910658Y-17030412D02*
X15910658Y-16954222D01*
X15910658Y-16954222D02*
X15920182Y-16935174D01*
X15920182Y-16935174D02*
X15939230Y-16925650D01*
X15939230Y-16925650D02*
X15977325Y-16925650D01*
X15977325Y-16925650D02*
X15996373Y-16935174D01*
X15996373Y-16935174D02*
X16005896Y-16954222D01*
X16005896Y-16954222D02*
X16005896Y-16973270D01*
X16005896Y-16973270D02*
X15910658Y-16992317D01*
X16177325Y-17058984D02*
X16177325Y-16858984D01*
X16177325Y-17049460D02*
X16158277Y-17058984D01*
X16158277Y-17058984D02*
X16120182Y-17058984D01*
X16120182Y-17058984D02*
X16101134Y-17049460D01*
X16101134Y-17049460D02*
X16091611Y-17039936D01*
X16091611Y-17039936D02*
X16082087Y-17020889D01*
X16082087Y-17020889D02*
X16082087Y-16963746D01*
X16082087Y-16963746D02*
X16091611Y-16944698D01*
X16091611Y-16944698D02*
X16101134Y-16935174D01*
X16101134Y-16935174D02*
X16120182Y-16925650D01*
X16120182Y-16925650D02*
X16158277Y-16925650D01*
X16158277Y-16925650D02*
X16177325Y-16935174D01*
X16253515Y-17135174D02*
X16263039Y-17125650D01*
X16263039Y-17125650D02*
X16282087Y-17097079D01*
X16282087Y-17097079D02*
X16291611Y-17078031D01*
X16291611Y-17078031D02*
X16301134Y-17049460D01*
X16301134Y-17049460D02*
X16310658Y-17001841D01*
X16310658Y-17001841D02*
X16310658Y-16963746D01*
X16310658Y-16963746D02*
X16301134Y-16916127D01*
X16301134Y-16916127D02*
X16291611Y-16887555D01*
X16291611Y-16887555D02*
X16282087Y-16868508D01*
X16282087Y-16868508D02*
X16263039Y-16839936D01*
X16263039Y-16839936D02*
X16253515Y-16830412D01*
M02*
