%TF.GenerationSoftware,KiCad,Pcbnew,8.0.0*%
%TF.CreationDate,2024-10-10T22:06:05+02:00*%
%TF.ProjectId,Profiler energetyczny urz_dze_ IoT,50726f66-696c-4657-9220-656e65726765,rev?*%
%TF.SameCoordinates,Original*%
%TF.FileFunction,Legend,Bot*%
%TF.FilePolarity,Positive*%
%FSLAX46Y46*%
G04 Gerber Fmt 4.6, Leading zero omitted, Abs format (unit mm)*
G04 Created by KiCad (PCBNEW 8.0.0) date 2024-10-10 22:06:05*
%MOMM*%
%LPD*%
G01*
G04 APERTURE LIST*
%ADD10C,0.150000*%
%ADD11C,0.120000*%
G04 APERTURE END LIST*
D10*
X127831547Y-121954819D02*
X127831547Y-122669104D01*
X127831547Y-122669104D02*
X127879166Y-122811961D01*
X127879166Y-122811961D02*
X127974404Y-122907200D01*
X127974404Y-122907200D02*
X128117261Y-122954819D01*
X128117261Y-122954819D02*
X128212499Y-122954819D01*
X127355356Y-122954819D02*
X127355356Y-121954819D01*
X127355356Y-121954819D02*
X126974404Y-121954819D01*
X126974404Y-121954819D02*
X126879166Y-122002438D01*
X126879166Y-122002438D02*
X126831547Y-122050057D01*
X126831547Y-122050057D02*
X126783928Y-122145295D01*
X126783928Y-122145295D02*
X126783928Y-122288152D01*
X126783928Y-122288152D02*
X126831547Y-122383390D01*
X126831547Y-122383390D02*
X126879166Y-122431009D01*
X126879166Y-122431009D02*
X126974404Y-122478628D01*
X126974404Y-122478628D02*
X127355356Y-122478628D01*
X126402975Y-122050057D02*
X126355356Y-122002438D01*
X126355356Y-122002438D02*
X126260118Y-121954819D01*
X126260118Y-121954819D02*
X126022023Y-121954819D01*
X126022023Y-121954819D02*
X125926785Y-122002438D01*
X125926785Y-122002438D02*
X125879166Y-122050057D01*
X125879166Y-122050057D02*
X125831547Y-122145295D01*
X125831547Y-122145295D02*
X125831547Y-122240533D01*
X125831547Y-122240533D02*
X125879166Y-122383390D01*
X125879166Y-122383390D02*
X126450594Y-122954819D01*
X126450594Y-122954819D02*
X125831547Y-122954819D01*
D11*
%TO.C,JP2*%
X125598214Y-115275000D02*
X128398214Y-115275000D01*
X125598214Y-121700000D02*
X125598214Y-115275000D01*
X128398214Y-115275000D02*
X128398214Y-121725000D01*
X128398214Y-121700000D02*
X125598214Y-121700000D01*
%TD*%
M02*
