%TF.GenerationSoftware,KiCad,Pcbnew,8.0.0*%
%TF.CreationDate,2024-10-10T22:06:13+02:00*%
%TF.ProjectId,Profiler energetyczny urz_dze_ IoT,50726f66-696c-4657-9220-656e65726765,rev?*%
%TF.SameCoordinates,Original*%
%TF.FileFunction,Drillmap*%
%TF.FilePolarity,Positive*%
%FSLAX45Y45*%
G04 Gerber Fmt 4.5, Leading zero omitted, Abs format (unit mm)*
G04 Created by KiCad (PCBNEW 8.0.0) date 2024-10-10 22:06:13*
%MOMM*%
%LPD*%
G01*
G04 APERTURE LIST*
%ADD10C,0.050000*%
%ADD11C,0.200000*%
%ADD12C,0.100000*%
%ADD13C,0.201000*%
%ADD14C,0.233000*%
%ADD15C,0.250000*%
G04 APERTURE END LIST*
D10*
X15375000Y-6525000D02*
X15375000Y-7525000D01*
X15500000Y-15325000D02*
X15375000Y-15325000D01*
X9500000Y-16325000D02*
X9500000Y-13425000D01*
X9500000Y-9425000D02*
X9500000Y-6525000D01*
X15375000Y-15325000D02*
X15375000Y-16325000D01*
X9500000Y-9925000D02*
X10700000Y-9925000D01*
X10700000Y-13425000D02*
X10700000Y-12925000D01*
X10700000Y-12925000D02*
X9500000Y-12925000D01*
X10700000Y-9425000D02*
X9500000Y-9425000D01*
X9500000Y-12925000D02*
X9500000Y-9925000D01*
X9500000Y-13425000D02*
X10700000Y-13425000D01*
X9500000Y-6525000D02*
X15375000Y-6525000D01*
X10700000Y-9925000D02*
X10700000Y-9425000D01*
X15375000Y-16325000D02*
X9500000Y-16325000D01*
X15500000Y-7525000D02*
X15500000Y-15325000D01*
X15375000Y-7525000D02*
X15500000Y-7525000D01*
D11*
D12*
X14533750Y-9915000D02*
X14553750Y-9935000D01*
X14553750Y-9915000D02*
X14533750Y-9935000D01*
X14533750Y-10015000D02*
X14553750Y-10035000D01*
X14553750Y-10015000D02*
X14533750Y-10035000D01*
X14533750Y-10115000D02*
X14553750Y-10135000D01*
X14553750Y-10115000D02*
X14533750Y-10135000D01*
X14673750Y-9915000D02*
X14693750Y-9935000D01*
X14693750Y-9915000D02*
X14673750Y-9935000D01*
X14673750Y-10015000D02*
X14693750Y-10035000D01*
X14693750Y-10015000D02*
X14673750Y-10035000D01*
X14673750Y-10115000D02*
X14693750Y-10135000D01*
X14693750Y-10115000D02*
X14673750Y-10135000D01*
X9645000Y-8855000D02*
G75*
G02*
X9615000Y-8855000I-15000J0D01*
G01*
X9615000Y-8855000D02*
G75*
G02*
X9645000Y-8855000I15000J0D01*
G01*
X9645000Y-8955000D02*
G75*
G02*
X9615000Y-8955000I-15000J0D01*
G01*
X9615000Y-8955000D02*
G75*
G02*
X9645000Y-8955000I15000J0D01*
G01*
X9645000Y-16195000D02*
G75*
G02*
X9615000Y-16195000I-15000J0D01*
G01*
X9615000Y-16195000D02*
G75*
G02*
X9645000Y-16195000I15000J0D01*
G01*
X9660000Y-6675000D02*
G75*
G02*
X9630000Y-6675000I-15000J0D01*
G01*
X9630000Y-6675000D02*
G75*
G02*
X9660000Y-6675000I15000J0D01*
G01*
X9705000Y-15770000D02*
G75*
G02*
X9675000Y-15770000I-15000J0D01*
G01*
X9675000Y-15770000D02*
G75*
G02*
X9705000Y-15770000I15000J0D01*
G01*
X9705000Y-15855000D02*
G75*
G02*
X9675000Y-15855000I-15000J0D01*
G01*
X9675000Y-15855000D02*
G75*
G02*
X9705000Y-15855000I15000J0D01*
G01*
X9740000Y-16195000D02*
G75*
G02*
X9710000Y-16195000I-15000J0D01*
G01*
X9710000Y-16195000D02*
G75*
G02*
X9740000Y-16195000I15000J0D01*
G01*
X9755000Y-6675000D02*
G75*
G02*
X9725000Y-6675000I-15000J0D01*
G01*
X9725000Y-6675000D02*
G75*
G02*
X9755000Y-6675000I15000J0D01*
G01*
X9815000Y-9215000D02*
G75*
G02*
X9785000Y-9215000I-15000J0D01*
G01*
X9785000Y-9215000D02*
G75*
G02*
X9815000Y-9215000I15000J0D01*
G01*
X9815000Y-9300000D02*
G75*
G02*
X9785000Y-9300000I-15000J0D01*
G01*
X9785000Y-9300000D02*
G75*
G02*
X9815000Y-9300000I15000J0D01*
G01*
X9835000Y-16195000D02*
G75*
G02*
X9805000Y-16195000I-15000J0D01*
G01*
X9805000Y-16195000D02*
G75*
G02*
X9835000Y-16195000I15000J0D01*
G01*
X9850000Y-6675000D02*
G75*
G02*
X9820000Y-6675000I-15000J0D01*
G01*
X9820000Y-6675000D02*
G75*
G02*
X9850000Y-6675000I15000J0D01*
G01*
X9930000Y-16195000D02*
G75*
G02*
X9900000Y-16195000I-15000J0D01*
G01*
X9900000Y-16195000D02*
G75*
G02*
X9930000Y-16195000I15000J0D01*
G01*
X9945000Y-6675000D02*
G75*
G02*
X9915000Y-6675000I-15000J0D01*
G01*
X9915000Y-6675000D02*
G75*
G02*
X9945000Y-6675000I15000J0D01*
G01*
X10025000Y-16195000D02*
G75*
G02*
X9995000Y-16195000I-15000J0D01*
G01*
X9995000Y-16195000D02*
G75*
G02*
X10025000Y-16195000I15000J0D01*
G01*
X10040000Y-6675000D02*
G75*
G02*
X10010000Y-6675000I-15000J0D01*
G01*
X10010000Y-6675000D02*
G75*
G02*
X10040000Y-6675000I15000J0D01*
G01*
X10120000Y-16195000D02*
G75*
G02*
X10090000Y-16195000I-15000J0D01*
G01*
X10090000Y-16195000D02*
G75*
G02*
X10120000Y-16195000I15000J0D01*
G01*
X10135000Y-6675000D02*
G75*
G02*
X10105000Y-6675000I-15000J0D01*
G01*
X10105000Y-6675000D02*
G75*
G02*
X10135000Y-6675000I15000J0D01*
G01*
X10145000Y-8575000D02*
G75*
G02*
X10115000Y-8575000I-15000J0D01*
G01*
X10115000Y-8575000D02*
G75*
G02*
X10145000Y-8575000I15000J0D01*
G01*
X10160000Y-15575000D02*
G75*
G02*
X10130000Y-15575000I-15000J0D01*
G01*
X10130000Y-15575000D02*
G75*
G02*
X10160000Y-15575000I15000J0D01*
G01*
X10215000Y-16195000D02*
G75*
G02*
X10185000Y-16195000I-15000J0D01*
G01*
X10185000Y-16195000D02*
G75*
G02*
X10215000Y-16195000I15000J0D01*
G01*
X10220000Y-15635000D02*
G75*
G02*
X10190000Y-15635000I-15000J0D01*
G01*
X10190000Y-15635000D02*
G75*
G02*
X10220000Y-15635000I15000J0D01*
G01*
X10230000Y-6675000D02*
G75*
G02*
X10200000Y-6675000I-15000J0D01*
G01*
X10200000Y-6675000D02*
G75*
G02*
X10230000Y-6675000I15000J0D01*
G01*
X10250000Y-8575000D02*
G75*
G02*
X10220000Y-8575000I-15000J0D01*
G01*
X10220000Y-8575000D02*
G75*
G02*
X10250000Y-8575000I15000J0D01*
G01*
X10310000Y-16195000D02*
G75*
G02*
X10280000Y-16195000I-15000J0D01*
G01*
X10280000Y-16195000D02*
G75*
G02*
X10310000Y-16195000I15000J0D01*
G01*
X10325000Y-6675000D02*
G75*
G02*
X10295000Y-6675000I-15000J0D01*
G01*
X10295000Y-6675000D02*
G75*
G02*
X10325000Y-6675000I15000J0D01*
G01*
X10405000Y-16195000D02*
G75*
G02*
X10375000Y-16195000I-15000J0D01*
G01*
X10375000Y-16195000D02*
G75*
G02*
X10405000Y-16195000I15000J0D01*
G01*
X10420000Y-6675000D02*
G75*
G02*
X10390000Y-6675000I-15000J0D01*
G01*
X10390000Y-6675000D02*
G75*
G02*
X10420000Y-6675000I15000J0D01*
G01*
X10455000Y-14460000D02*
G75*
G02*
X10425000Y-14460000I-15000J0D01*
G01*
X10425000Y-14460000D02*
G75*
G02*
X10455000Y-14460000I15000J0D01*
G01*
X10455000Y-14540000D02*
G75*
G02*
X10425000Y-14540000I-15000J0D01*
G01*
X10425000Y-14540000D02*
G75*
G02*
X10455000Y-14540000I15000J0D01*
G01*
X10500000Y-16195000D02*
G75*
G02*
X10470000Y-16195000I-15000J0D01*
G01*
X10470000Y-16195000D02*
G75*
G02*
X10500000Y-16195000I15000J0D01*
G01*
X10515000Y-6675000D02*
G75*
G02*
X10485000Y-6675000I-15000J0D01*
G01*
X10485000Y-6675000D02*
G75*
G02*
X10515000Y-6675000I15000J0D01*
G01*
X10525000Y-10130000D02*
G75*
G02*
X10495000Y-10130000I-15000J0D01*
G01*
X10495000Y-10130000D02*
G75*
G02*
X10525000Y-10130000I15000J0D01*
G01*
X10575000Y-14460000D02*
G75*
G02*
X10545000Y-14460000I-15000J0D01*
G01*
X10545000Y-14460000D02*
G75*
G02*
X10575000Y-14460000I15000J0D01*
G01*
X10575000Y-14540000D02*
G75*
G02*
X10545000Y-14540000I-15000J0D01*
G01*
X10545000Y-14540000D02*
G75*
G02*
X10575000Y-14540000I15000J0D01*
G01*
X10595000Y-16195000D02*
G75*
G02*
X10565000Y-16195000I-15000J0D01*
G01*
X10565000Y-16195000D02*
G75*
G02*
X10595000Y-16195000I15000J0D01*
G01*
X10610000Y-6675000D02*
G75*
G02*
X10580000Y-6675000I-15000J0D01*
G01*
X10580000Y-6675000D02*
G75*
G02*
X10610000Y-6675000I15000J0D01*
G01*
X10610000Y-10130000D02*
G75*
G02*
X10580000Y-10130000I-15000J0D01*
G01*
X10580000Y-10130000D02*
G75*
G02*
X10610000Y-10130000I15000J0D01*
G01*
X10655000Y-12320000D02*
G75*
G02*
X10625000Y-12320000I-15000J0D01*
G01*
X10625000Y-12320000D02*
G75*
G02*
X10655000Y-12320000I15000J0D01*
G01*
X10655000Y-12420000D02*
G75*
G02*
X10625000Y-12420000I-15000J0D01*
G01*
X10625000Y-12420000D02*
G75*
G02*
X10655000Y-12420000I15000J0D01*
G01*
X10690000Y-16195000D02*
G75*
G02*
X10660000Y-16195000I-15000J0D01*
G01*
X10660000Y-16195000D02*
G75*
G02*
X10690000Y-16195000I15000J0D01*
G01*
X10695000Y-8940000D02*
G75*
G02*
X10665000Y-8940000I-15000J0D01*
G01*
X10665000Y-8940000D02*
G75*
G02*
X10695000Y-8940000I15000J0D01*
G01*
X10705000Y-6675000D02*
G75*
G02*
X10675000Y-6675000I-15000J0D01*
G01*
X10675000Y-6675000D02*
G75*
G02*
X10705000Y-6675000I15000J0D01*
G01*
X10705000Y-12370000D02*
G75*
G02*
X10675000Y-12370000I-15000J0D01*
G01*
X10675000Y-12370000D02*
G75*
G02*
X10705000Y-12370000I15000J0D01*
G01*
X10710000Y-8575000D02*
G75*
G02*
X10680000Y-8575000I-15000J0D01*
G01*
X10680000Y-8575000D02*
G75*
G02*
X10710000Y-8575000I15000J0D01*
G01*
X10755000Y-12320000D02*
G75*
G02*
X10725000Y-12320000I-15000J0D01*
G01*
X10725000Y-12320000D02*
G75*
G02*
X10755000Y-12320000I15000J0D01*
G01*
X10755000Y-12420000D02*
G75*
G02*
X10725000Y-12420000I-15000J0D01*
G01*
X10725000Y-12420000D02*
G75*
G02*
X10755000Y-12420000I15000J0D01*
G01*
X10785000Y-16195000D02*
G75*
G02*
X10755000Y-16195000I-15000J0D01*
G01*
X10755000Y-16195000D02*
G75*
G02*
X10785000Y-16195000I15000J0D01*
G01*
X10800000Y-6675000D02*
G75*
G02*
X10770000Y-6675000I-15000J0D01*
G01*
X10770000Y-6675000D02*
G75*
G02*
X10800000Y-6675000I15000J0D01*
G01*
X10805000Y-8575000D02*
G75*
G02*
X10775000Y-8575000I-15000J0D01*
G01*
X10775000Y-8575000D02*
G75*
G02*
X10805000Y-8575000I15000J0D01*
G01*
X10835000Y-7440000D02*
G75*
G02*
X10805000Y-7440000I-15000J0D01*
G01*
X10805000Y-7440000D02*
G75*
G02*
X10835000Y-7440000I15000J0D01*
G01*
X10840000Y-14070000D02*
G75*
G02*
X10810000Y-14070000I-15000J0D01*
G01*
X10810000Y-14070000D02*
G75*
G02*
X10840000Y-14070000I15000J0D01*
G01*
X10867500Y-15355000D02*
G75*
G02*
X10837500Y-15355000I-15000J0D01*
G01*
X10837500Y-15355000D02*
G75*
G02*
X10867500Y-15355000I15000J0D01*
G01*
X10867500Y-15427500D02*
G75*
G02*
X10837500Y-15427500I-15000J0D01*
G01*
X10837500Y-15427500D02*
G75*
G02*
X10867500Y-15427500I15000J0D01*
G01*
X10880000Y-16195000D02*
G75*
G02*
X10850000Y-16195000I-15000J0D01*
G01*
X10850000Y-16195000D02*
G75*
G02*
X10880000Y-16195000I15000J0D01*
G01*
X10890000Y-14120000D02*
G75*
G02*
X10860000Y-14120000I-15000J0D01*
G01*
X10860000Y-14120000D02*
G75*
G02*
X10890000Y-14120000I15000J0D01*
G01*
X10895000Y-6675000D02*
G75*
G02*
X10865000Y-6675000I-15000J0D01*
G01*
X10865000Y-6675000D02*
G75*
G02*
X10895000Y-6675000I15000J0D01*
G01*
X10928750Y-10745000D02*
G75*
G02*
X10898750Y-10745000I-15000J0D01*
G01*
X10898750Y-10745000D02*
G75*
G02*
X10928750Y-10745000I15000J0D01*
G01*
X10960000Y-10090000D02*
G75*
G02*
X10930000Y-10090000I-15000J0D01*
G01*
X10930000Y-10090000D02*
G75*
G02*
X10960000Y-10090000I15000J0D01*
G01*
X10960000Y-10165000D02*
G75*
G02*
X10930000Y-10165000I-15000J0D01*
G01*
X10930000Y-10165000D02*
G75*
G02*
X10960000Y-10165000I15000J0D01*
G01*
X10975000Y-16195000D02*
G75*
G02*
X10945000Y-16195000I-15000J0D01*
G01*
X10945000Y-16195000D02*
G75*
G02*
X10975000Y-16195000I15000J0D01*
G01*
X10990000Y-6675000D02*
G75*
G02*
X10960000Y-6675000I-15000J0D01*
G01*
X10960000Y-6675000D02*
G75*
G02*
X10990000Y-6675000I15000J0D01*
G01*
X11010000Y-10745000D02*
G75*
G02*
X10980000Y-10745000I-15000J0D01*
G01*
X10980000Y-10745000D02*
G75*
G02*
X11010000Y-10745000I15000J0D01*
G01*
X11070000Y-16195000D02*
G75*
G02*
X11040000Y-16195000I-15000J0D01*
G01*
X11040000Y-16195000D02*
G75*
G02*
X11070000Y-16195000I15000J0D01*
G01*
X11085000Y-6675000D02*
G75*
G02*
X11055000Y-6675000I-15000J0D01*
G01*
X11055000Y-6675000D02*
G75*
G02*
X11085000Y-6675000I15000J0D01*
G01*
X11125000Y-9300000D02*
G75*
G02*
X11095000Y-9300000I-15000J0D01*
G01*
X11095000Y-9300000D02*
G75*
G02*
X11125000Y-9300000I15000J0D01*
G01*
X11125000Y-9400000D02*
G75*
G02*
X11095000Y-9400000I-15000J0D01*
G01*
X11095000Y-9400000D02*
G75*
G02*
X11125000Y-9400000I15000J0D01*
G01*
X11165000Y-16195000D02*
G75*
G02*
X11135000Y-16195000I-15000J0D01*
G01*
X11135000Y-16195000D02*
G75*
G02*
X11165000Y-16195000I15000J0D01*
G01*
X11175000Y-9350000D02*
G75*
G02*
X11145000Y-9350000I-15000J0D01*
G01*
X11145000Y-9350000D02*
G75*
G02*
X11175000Y-9350000I15000J0D01*
G01*
X11180000Y-6675000D02*
G75*
G02*
X11150000Y-6675000I-15000J0D01*
G01*
X11150000Y-6675000D02*
G75*
G02*
X11180000Y-6675000I15000J0D01*
G01*
X11221562Y-15323437D02*
G75*
G02*
X11191562Y-15323437I-15000J0D01*
G01*
X11191562Y-15323437D02*
G75*
G02*
X11221562Y-15323437I15000J0D01*
G01*
X11225000Y-9300000D02*
G75*
G02*
X11195000Y-9300000I-15000J0D01*
G01*
X11195000Y-9300000D02*
G75*
G02*
X11225000Y-9300000I15000J0D01*
G01*
X11225000Y-9400000D02*
G75*
G02*
X11195000Y-9400000I-15000J0D01*
G01*
X11195000Y-9400000D02*
G75*
G02*
X11225000Y-9400000I15000J0D01*
G01*
X11235000Y-8945000D02*
G75*
G02*
X11205000Y-8945000I-15000J0D01*
G01*
X11205000Y-8945000D02*
G75*
G02*
X11235000Y-8945000I15000J0D01*
G01*
X11235000Y-13700000D02*
G75*
G02*
X11205000Y-13700000I-15000J0D01*
G01*
X11205000Y-13700000D02*
G75*
G02*
X11235000Y-13700000I15000J0D01*
G01*
X11245000Y-8575000D02*
G75*
G02*
X11215000Y-8575000I-15000J0D01*
G01*
X11215000Y-8575000D02*
G75*
G02*
X11245000Y-8575000I15000J0D01*
G01*
X11260000Y-16195000D02*
G75*
G02*
X11230000Y-16195000I-15000J0D01*
G01*
X11230000Y-16195000D02*
G75*
G02*
X11260000Y-16195000I15000J0D01*
G01*
X11274062Y-15375937D02*
G75*
G02*
X11244062Y-15375937I-15000J0D01*
G01*
X11244062Y-15375937D02*
G75*
G02*
X11274062Y-15375937I15000J0D01*
G01*
X11275000Y-6675000D02*
G75*
G02*
X11245000Y-6675000I-15000J0D01*
G01*
X11245000Y-6675000D02*
G75*
G02*
X11275000Y-6675000I15000J0D01*
G01*
X11315000Y-8575000D02*
G75*
G02*
X11285000Y-8575000I-15000J0D01*
G01*
X11285000Y-8575000D02*
G75*
G02*
X11315000Y-8575000I15000J0D01*
G01*
X11315000Y-14420000D02*
G75*
G02*
X11285000Y-14420000I-15000J0D01*
G01*
X11285000Y-14420000D02*
G75*
G02*
X11315000Y-14420000I15000J0D01*
G01*
X11335000Y-8140000D02*
G75*
G02*
X11305000Y-8140000I-15000J0D01*
G01*
X11305000Y-8140000D02*
G75*
G02*
X11335000Y-8140000I15000J0D01*
G01*
X11345000Y-7816240D02*
G75*
G02*
X11315000Y-7816240I-15000J0D01*
G01*
X11315000Y-7816240D02*
G75*
G02*
X11345000Y-7816240I15000J0D01*
G01*
X11355000Y-16195000D02*
G75*
G02*
X11325000Y-16195000I-15000J0D01*
G01*
X11325000Y-16195000D02*
G75*
G02*
X11355000Y-16195000I15000J0D01*
G01*
X11370000Y-6675000D02*
G75*
G02*
X11340000Y-6675000I-15000J0D01*
G01*
X11340000Y-6675000D02*
G75*
G02*
X11370000Y-6675000I15000J0D01*
G01*
X11415000Y-8020000D02*
G75*
G02*
X11385000Y-8020000I-15000J0D01*
G01*
X11385000Y-8020000D02*
G75*
G02*
X11415000Y-8020000I15000J0D01*
G01*
X11440000Y-7815000D02*
G75*
G02*
X11410000Y-7815000I-15000J0D01*
G01*
X11410000Y-7815000D02*
G75*
G02*
X11440000Y-7815000I15000J0D01*
G01*
X11440000Y-12320000D02*
G75*
G02*
X11410000Y-12320000I-15000J0D01*
G01*
X11410000Y-12320000D02*
G75*
G02*
X11440000Y-12320000I15000J0D01*
G01*
X11440000Y-12420000D02*
G75*
G02*
X11410000Y-12420000I-15000J0D01*
G01*
X11410000Y-12420000D02*
G75*
G02*
X11440000Y-12420000I15000J0D01*
G01*
X11450000Y-16195000D02*
G75*
G02*
X11420000Y-16195000I-15000J0D01*
G01*
X11420000Y-16195000D02*
G75*
G02*
X11450000Y-16195000I15000J0D01*
G01*
X11465000Y-6675000D02*
G75*
G02*
X11435000Y-6675000I-15000J0D01*
G01*
X11435000Y-6675000D02*
G75*
G02*
X11465000Y-6675000I15000J0D01*
G01*
X11490000Y-12370000D02*
G75*
G02*
X11460000Y-12370000I-15000J0D01*
G01*
X11460000Y-12370000D02*
G75*
G02*
X11490000Y-12370000I15000J0D01*
G01*
X11500000Y-14120000D02*
G75*
G02*
X11470000Y-14120000I-15000J0D01*
G01*
X11470000Y-14120000D02*
G75*
G02*
X11500000Y-14120000I15000J0D01*
G01*
X11514380Y-8020620D02*
G75*
G02*
X11484380Y-8020620I-15000J0D01*
G01*
X11484380Y-8020620D02*
G75*
G02*
X11514380Y-8020620I15000J0D01*
G01*
X11515000Y-10535000D02*
G75*
G02*
X11485000Y-10535000I-15000J0D01*
G01*
X11485000Y-10535000D02*
G75*
G02*
X11515000Y-10535000I15000J0D01*
G01*
X11515000Y-10610000D02*
G75*
G02*
X11485000Y-10610000I-15000J0D01*
G01*
X11485000Y-10610000D02*
G75*
G02*
X11515000Y-10610000I15000J0D01*
G01*
X11520000Y-7730000D02*
G75*
G02*
X11490000Y-7730000I-15000J0D01*
G01*
X11490000Y-7730000D02*
G75*
G02*
X11520000Y-7730000I15000J0D01*
G01*
X11535000Y-7881240D02*
G75*
G02*
X11505000Y-7881240I-15000J0D01*
G01*
X11505000Y-7881240D02*
G75*
G02*
X11535000Y-7881240I15000J0D01*
G01*
X11540000Y-12320000D02*
G75*
G02*
X11510000Y-12320000I-15000J0D01*
G01*
X11510000Y-12320000D02*
G75*
G02*
X11540000Y-12320000I15000J0D01*
G01*
X11540000Y-12420000D02*
G75*
G02*
X11510000Y-12420000I-15000J0D01*
G01*
X11510000Y-12420000D02*
G75*
G02*
X11540000Y-12420000I15000J0D01*
G01*
X11545000Y-16195000D02*
G75*
G02*
X11515000Y-16195000I-15000J0D01*
G01*
X11515000Y-16195000D02*
G75*
G02*
X11545000Y-16195000I15000J0D01*
G01*
X11560000Y-6675000D02*
G75*
G02*
X11530000Y-6675000I-15000J0D01*
G01*
X11530000Y-6675000D02*
G75*
G02*
X11560000Y-6675000I15000J0D01*
G01*
X11575000Y-7660000D02*
G75*
G02*
X11545000Y-7660000I-15000J0D01*
G01*
X11545000Y-7660000D02*
G75*
G02*
X11575000Y-7660000I15000J0D01*
G01*
X11600000Y-10535000D02*
G75*
G02*
X11570000Y-10535000I-15000J0D01*
G01*
X11570000Y-10535000D02*
G75*
G02*
X11600000Y-10535000I15000J0D01*
G01*
X11600000Y-10610000D02*
G75*
G02*
X11570000Y-10610000I-15000J0D01*
G01*
X11570000Y-10610000D02*
G75*
G02*
X11600000Y-10610000I15000J0D01*
G01*
X11605000Y-14120000D02*
G75*
G02*
X11575000Y-14120000I-15000J0D01*
G01*
X11575000Y-14120000D02*
G75*
G02*
X11605000Y-14120000I15000J0D01*
G01*
X11605000Y-15320000D02*
G75*
G02*
X11575000Y-15320000I-15000J0D01*
G01*
X11575000Y-15320000D02*
G75*
G02*
X11605000Y-15320000I15000J0D01*
G01*
X11640000Y-16195000D02*
G75*
G02*
X11610000Y-16195000I-15000J0D01*
G01*
X11610000Y-16195000D02*
G75*
G02*
X11640000Y-16195000I15000J0D01*
G01*
X11655000Y-6675000D02*
G75*
G02*
X11625000Y-6675000I-15000J0D01*
G01*
X11625000Y-6675000D02*
G75*
G02*
X11655000Y-6675000I15000J0D01*
G01*
X11670000Y-6994750D02*
G75*
G02*
X11640000Y-6994750I-15000J0D01*
G01*
X11640000Y-6994750D02*
G75*
G02*
X11670000Y-6994750I15000J0D01*
G01*
X11680000Y-15320000D02*
G75*
G02*
X11650000Y-15320000I-15000J0D01*
G01*
X11650000Y-15320000D02*
G75*
G02*
X11680000Y-15320000I15000J0D01*
G01*
X11690000Y-9490000D02*
G75*
G02*
X11660000Y-9490000I-15000J0D01*
G01*
X11660000Y-9490000D02*
G75*
G02*
X11690000Y-9490000I15000J0D01*
G01*
X11690000Y-9560000D02*
G75*
G02*
X11660000Y-9560000I-15000J0D01*
G01*
X11660000Y-9560000D02*
G75*
G02*
X11690000Y-9560000I15000J0D01*
G01*
X11695000Y-7420000D02*
G75*
G02*
X11665000Y-7420000I-15000J0D01*
G01*
X11665000Y-7420000D02*
G75*
G02*
X11695000Y-7420000I15000J0D01*
G01*
X11735000Y-16195000D02*
G75*
G02*
X11705000Y-16195000I-15000J0D01*
G01*
X11705000Y-16195000D02*
G75*
G02*
X11735000Y-16195000I15000J0D01*
G01*
X11750000Y-6675000D02*
G75*
G02*
X11720000Y-6675000I-15000J0D01*
G01*
X11720000Y-6675000D02*
G75*
G02*
X11750000Y-6675000I15000J0D01*
G01*
X11765000Y-6994750D02*
G75*
G02*
X11735000Y-6994750I-15000J0D01*
G01*
X11735000Y-6994750D02*
G75*
G02*
X11765000Y-6994750I15000J0D01*
G01*
X11770000Y-8575000D02*
G75*
G02*
X11740000Y-8575000I-15000J0D01*
G01*
X11740000Y-8575000D02*
G75*
G02*
X11770000Y-8575000I15000J0D01*
G01*
X11830000Y-16195000D02*
G75*
G02*
X11800000Y-16195000I-15000J0D01*
G01*
X11800000Y-16195000D02*
G75*
G02*
X11830000Y-16195000I15000J0D01*
G01*
X11835000Y-8575000D02*
G75*
G02*
X11805000Y-8575000I-15000J0D01*
G01*
X11805000Y-8575000D02*
G75*
G02*
X11835000Y-8575000I15000J0D01*
G01*
X11845000Y-6675000D02*
G75*
G02*
X11815000Y-6675000I-15000J0D01*
G01*
X11815000Y-6675000D02*
G75*
G02*
X11845000Y-6675000I15000J0D01*
G01*
X11895000Y-14815000D02*
G75*
G02*
X11865000Y-14815000I-15000J0D01*
G01*
X11865000Y-14815000D02*
G75*
G02*
X11895000Y-14815000I15000J0D01*
G01*
X11895000Y-14885000D02*
G75*
G02*
X11865000Y-14885000I-15000J0D01*
G01*
X11865000Y-14885000D02*
G75*
G02*
X11895000Y-14885000I15000J0D01*
G01*
X11925000Y-16195000D02*
G75*
G02*
X11895000Y-16195000I-15000J0D01*
G01*
X11895000Y-16195000D02*
G75*
G02*
X11925000Y-16195000I15000J0D01*
G01*
X11940000Y-6675000D02*
G75*
G02*
X11910000Y-6675000I-15000J0D01*
G01*
X11910000Y-6675000D02*
G75*
G02*
X11940000Y-6675000I15000J0D01*
G01*
X11955000Y-10440000D02*
G75*
G02*
X11925000Y-10440000I-15000J0D01*
G01*
X11925000Y-10440000D02*
G75*
G02*
X11955000Y-10440000I15000J0D01*
G01*
X12005000Y-13015000D02*
G75*
G02*
X11975000Y-13015000I-15000J0D01*
G01*
X11975000Y-13015000D02*
G75*
G02*
X12005000Y-13015000I15000J0D01*
G01*
X12005000Y-13115000D02*
G75*
G02*
X11975000Y-13115000I-15000J0D01*
G01*
X11975000Y-13115000D02*
G75*
G02*
X12005000Y-13115000I15000J0D01*
G01*
X12020000Y-16195000D02*
G75*
G02*
X11990000Y-16195000I-15000J0D01*
G01*
X11990000Y-16195000D02*
G75*
G02*
X12020000Y-16195000I15000J0D01*
G01*
X12035000Y-6675000D02*
G75*
G02*
X12005000Y-6675000I-15000J0D01*
G01*
X12005000Y-6675000D02*
G75*
G02*
X12035000Y-6675000I15000J0D01*
G01*
X12055000Y-13065000D02*
G75*
G02*
X12025000Y-13065000I-15000J0D01*
G01*
X12025000Y-13065000D02*
G75*
G02*
X12055000Y-13065000I15000J0D01*
G01*
X12065000Y-10745000D02*
G75*
G02*
X12035000Y-10745000I-15000J0D01*
G01*
X12035000Y-10745000D02*
G75*
G02*
X12065000Y-10745000I15000J0D01*
G01*
X12105000Y-13015000D02*
G75*
G02*
X12075000Y-13015000I-15000J0D01*
G01*
X12075000Y-13015000D02*
G75*
G02*
X12105000Y-13015000I15000J0D01*
G01*
X12105000Y-13115000D02*
G75*
G02*
X12075000Y-13115000I-15000J0D01*
G01*
X12075000Y-13115000D02*
G75*
G02*
X12105000Y-13115000I15000J0D01*
G01*
X12115000Y-16195000D02*
G75*
G02*
X12085000Y-16195000I-15000J0D01*
G01*
X12085000Y-16195000D02*
G75*
G02*
X12115000Y-16195000I15000J0D01*
G01*
X12130000Y-6675000D02*
G75*
G02*
X12100000Y-6675000I-15000J0D01*
G01*
X12100000Y-6675000D02*
G75*
G02*
X12130000Y-6675000I15000J0D01*
G01*
X12135000Y-9780000D02*
G75*
G02*
X12105000Y-9780000I-15000J0D01*
G01*
X12105000Y-9780000D02*
G75*
G02*
X12135000Y-9780000I15000J0D01*
G01*
X12135000Y-9860000D02*
G75*
G02*
X12105000Y-9860000I-15000J0D01*
G01*
X12105000Y-9860000D02*
G75*
G02*
X12135000Y-9860000I15000J0D01*
G01*
X12140043Y-10745000D02*
G75*
G02*
X12110043Y-10745000I-15000J0D01*
G01*
X12110043Y-10745000D02*
G75*
G02*
X12140043Y-10745000I15000J0D01*
G01*
X12180000Y-9525000D02*
G75*
G02*
X12150000Y-9525000I-15000J0D01*
G01*
X12150000Y-9525000D02*
G75*
G02*
X12180000Y-9525000I15000J0D01*
G01*
X12210000Y-16195000D02*
G75*
G02*
X12180000Y-16195000I-15000J0D01*
G01*
X12180000Y-16195000D02*
G75*
G02*
X12210000Y-16195000I15000J0D01*
G01*
X12215000Y-15525000D02*
G75*
G02*
X12185000Y-15525000I-15000J0D01*
G01*
X12185000Y-15525000D02*
G75*
G02*
X12215000Y-15525000I15000J0D01*
G01*
X12215000Y-15600000D02*
G75*
G02*
X12185000Y-15600000I-15000J0D01*
G01*
X12185000Y-15600000D02*
G75*
G02*
X12215000Y-15600000I15000J0D01*
G01*
X12225000Y-6675000D02*
G75*
G02*
X12195000Y-6675000I-15000J0D01*
G01*
X12195000Y-6675000D02*
G75*
G02*
X12225000Y-6675000I15000J0D01*
G01*
X12235000Y-8680000D02*
G75*
G02*
X12205000Y-8680000I-15000J0D01*
G01*
X12205000Y-8680000D02*
G75*
G02*
X12235000Y-8680000I15000J0D01*
G01*
X12255000Y-9525000D02*
G75*
G02*
X12225000Y-9525000I-15000J0D01*
G01*
X12225000Y-9525000D02*
G75*
G02*
X12255000Y-9525000I15000J0D01*
G01*
X12270000Y-14065000D02*
G75*
G02*
X12240000Y-14065000I-15000J0D01*
G01*
X12240000Y-14065000D02*
G75*
G02*
X12270000Y-14065000I15000J0D01*
G01*
X12270000Y-14165000D02*
G75*
G02*
X12240000Y-14165000I-15000J0D01*
G01*
X12240000Y-14165000D02*
G75*
G02*
X12270000Y-14165000I15000J0D01*
G01*
X12300000Y-15525000D02*
G75*
G02*
X12270000Y-15525000I-15000J0D01*
G01*
X12270000Y-15525000D02*
G75*
G02*
X12300000Y-15525000I15000J0D01*
G01*
X12300000Y-15600000D02*
G75*
G02*
X12270000Y-15600000I-15000J0D01*
G01*
X12270000Y-15600000D02*
G75*
G02*
X12300000Y-15600000I15000J0D01*
G01*
X12305000Y-16195000D02*
G75*
G02*
X12275000Y-16195000I-15000J0D01*
G01*
X12275000Y-16195000D02*
G75*
G02*
X12305000Y-16195000I15000J0D01*
G01*
X12320000Y-6675000D02*
G75*
G02*
X12290000Y-6675000I-15000J0D01*
G01*
X12290000Y-6675000D02*
G75*
G02*
X12320000Y-6675000I15000J0D01*
G01*
X12320000Y-14115000D02*
G75*
G02*
X12290000Y-14115000I-15000J0D01*
G01*
X12290000Y-14115000D02*
G75*
G02*
X12320000Y-14115000I15000J0D01*
G01*
X12335000Y-12960000D02*
G75*
G02*
X12305000Y-12960000I-15000J0D01*
G01*
X12305000Y-12960000D02*
G75*
G02*
X12335000Y-12960000I15000J0D01*
G01*
X12335000Y-13040000D02*
G75*
G02*
X12305000Y-13040000I-15000J0D01*
G01*
X12305000Y-13040000D02*
G75*
G02*
X12335000Y-13040000I15000J0D01*
G01*
X12370000Y-14065000D02*
G75*
G02*
X12340000Y-14065000I-15000J0D01*
G01*
X12340000Y-14065000D02*
G75*
G02*
X12370000Y-14065000I15000J0D01*
G01*
X12370000Y-14165000D02*
G75*
G02*
X12340000Y-14165000I-15000J0D01*
G01*
X12340000Y-14165000D02*
G75*
G02*
X12370000Y-14165000I15000J0D01*
G01*
X12400000Y-16195000D02*
G75*
G02*
X12370000Y-16195000I-15000J0D01*
G01*
X12370000Y-16195000D02*
G75*
G02*
X12400000Y-16195000I15000J0D01*
G01*
X12415000Y-6675000D02*
G75*
G02*
X12385000Y-6675000I-15000J0D01*
G01*
X12385000Y-6675000D02*
G75*
G02*
X12415000Y-6675000I15000J0D01*
G01*
X12415000Y-12960000D02*
G75*
G02*
X12385000Y-12960000I-15000J0D01*
G01*
X12385000Y-12960000D02*
G75*
G02*
X12415000Y-12960000I15000J0D01*
G01*
X12415000Y-13040000D02*
G75*
G02*
X12385000Y-13040000I-15000J0D01*
G01*
X12385000Y-13040000D02*
G75*
G02*
X12415000Y-13040000I15000J0D01*
G01*
X12495000Y-16195000D02*
G75*
G02*
X12465000Y-16195000I-15000J0D01*
G01*
X12465000Y-16195000D02*
G75*
G02*
X12495000Y-16195000I15000J0D01*
G01*
X12510000Y-6675000D02*
G75*
G02*
X12480000Y-6675000I-15000J0D01*
G01*
X12480000Y-6675000D02*
G75*
G02*
X12510000Y-6675000I15000J0D01*
G01*
X12510000Y-13975000D02*
G75*
G02*
X12480000Y-13975000I-15000J0D01*
G01*
X12480000Y-13975000D02*
G75*
G02*
X12510000Y-13975000I15000J0D01*
G01*
X12510000Y-14060000D02*
G75*
G02*
X12480000Y-14060000I-15000J0D01*
G01*
X12480000Y-14060000D02*
G75*
G02*
X12510000Y-14060000I15000J0D01*
G01*
X12590000Y-16195000D02*
G75*
G02*
X12560000Y-16195000I-15000J0D01*
G01*
X12560000Y-16195000D02*
G75*
G02*
X12590000Y-16195000I15000J0D01*
G01*
X12605000Y-6675000D02*
G75*
G02*
X12575000Y-6675000I-15000J0D01*
G01*
X12575000Y-6675000D02*
G75*
G02*
X12605000Y-6675000I15000J0D01*
G01*
X12655000Y-12560000D02*
G75*
G02*
X12625000Y-12560000I-15000J0D01*
G01*
X12625000Y-12560000D02*
G75*
G02*
X12655000Y-12560000I15000J0D01*
G01*
X12655000Y-12645000D02*
G75*
G02*
X12625000Y-12645000I-15000J0D01*
G01*
X12625000Y-12645000D02*
G75*
G02*
X12655000Y-12645000I15000J0D01*
G01*
X12685000Y-16195000D02*
G75*
G02*
X12655000Y-16195000I-15000J0D01*
G01*
X12655000Y-16195000D02*
G75*
G02*
X12685000Y-16195000I15000J0D01*
G01*
X12690000Y-15710000D02*
G75*
G02*
X12660000Y-15710000I-15000J0D01*
G01*
X12660000Y-15710000D02*
G75*
G02*
X12690000Y-15710000I15000J0D01*
G01*
X12690000Y-15785000D02*
G75*
G02*
X12660000Y-15785000I-15000J0D01*
G01*
X12660000Y-15785000D02*
G75*
G02*
X12690000Y-15785000I15000J0D01*
G01*
X12700000Y-6675000D02*
G75*
G02*
X12670000Y-6675000I-15000J0D01*
G01*
X12670000Y-6675000D02*
G75*
G02*
X12700000Y-6675000I15000J0D01*
G01*
X12700000Y-15080000D02*
G75*
G02*
X12670000Y-15080000I-15000J0D01*
G01*
X12670000Y-15080000D02*
G75*
G02*
X12700000Y-15080000I15000J0D01*
G01*
X12700000Y-15155000D02*
G75*
G02*
X12670000Y-15155000I-15000J0D01*
G01*
X12670000Y-15155000D02*
G75*
G02*
X12700000Y-15155000I15000J0D01*
G01*
X12715000Y-8615000D02*
G75*
G02*
X12685000Y-8615000I-15000J0D01*
G01*
X12685000Y-8615000D02*
G75*
G02*
X12715000Y-8615000I15000J0D01*
G01*
X12715000Y-8715000D02*
G75*
G02*
X12685000Y-8715000I-15000J0D01*
G01*
X12685000Y-8715000D02*
G75*
G02*
X12715000Y-8715000I15000J0D01*
G01*
X12765000Y-8665000D02*
G75*
G02*
X12735000Y-8665000I-15000J0D01*
G01*
X12735000Y-8665000D02*
G75*
G02*
X12765000Y-8665000I15000J0D01*
G01*
X12775000Y-15710000D02*
G75*
G02*
X12745000Y-15710000I-15000J0D01*
G01*
X12745000Y-15710000D02*
G75*
G02*
X12775000Y-15710000I15000J0D01*
G01*
X12775000Y-15785000D02*
G75*
G02*
X12745000Y-15785000I-15000J0D01*
G01*
X12745000Y-15785000D02*
G75*
G02*
X12775000Y-15785000I15000J0D01*
G01*
X12780000Y-16195000D02*
G75*
G02*
X12750000Y-16195000I-15000J0D01*
G01*
X12750000Y-16195000D02*
G75*
G02*
X12780000Y-16195000I15000J0D01*
G01*
X12785000Y-15080000D02*
G75*
G02*
X12755000Y-15080000I-15000J0D01*
G01*
X12755000Y-15080000D02*
G75*
G02*
X12785000Y-15080000I15000J0D01*
G01*
X12785000Y-15155000D02*
G75*
G02*
X12755000Y-15155000I-15000J0D01*
G01*
X12755000Y-15155000D02*
G75*
G02*
X12785000Y-15155000I15000J0D01*
G01*
X12795000Y-6675000D02*
G75*
G02*
X12765000Y-6675000I-15000J0D01*
G01*
X12765000Y-6675000D02*
G75*
G02*
X12795000Y-6675000I15000J0D01*
G01*
X12795000Y-9340000D02*
G75*
G02*
X12765000Y-9340000I-15000J0D01*
G01*
X12765000Y-9340000D02*
G75*
G02*
X12795000Y-9340000I15000J0D01*
G01*
X12815000Y-8615000D02*
G75*
G02*
X12785000Y-8615000I-15000J0D01*
G01*
X12785000Y-8615000D02*
G75*
G02*
X12815000Y-8615000I15000J0D01*
G01*
X12815000Y-8715000D02*
G75*
G02*
X12785000Y-8715000I-15000J0D01*
G01*
X12785000Y-8715000D02*
G75*
G02*
X12815000Y-8715000I15000J0D01*
G01*
X12875000Y-16195000D02*
G75*
G02*
X12845000Y-16195000I-15000J0D01*
G01*
X12845000Y-16195000D02*
G75*
G02*
X12875000Y-16195000I15000J0D01*
G01*
X12890000Y-6675000D02*
G75*
G02*
X12860000Y-6675000I-15000J0D01*
G01*
X12860000Y-6675000D02*
G75*
G02*
X12890000Y-6675000I15000J0D01*
G01*
X12910000Y-12755000D02*
G75*
G02*
X12880000Y-12755000I-15000J0D01*
G01*
X12880000Y-12755000D02*
G75*
G02*
X12910000Y-12755000I15000J0D01*
G01*
X12910000Y-12840000D02*
G75*
G02*
X12880000Y-12840000I-15000J0D01*
G01*
X12880000Y-12840000D02*
G75*
G02*
X12910000Y-12840000I15000J0D01*
G01*
X12920000Y-13720000D02*
G75*
G02*
X12890000Y-13720000I-15000J0D01*
G01*
X12890000Y-13720000D02*
G75*
G02*
X12920000Y-13720000I15000J0D01*
G01*
X12920000Y-13800000D02*
G75*
G02*
X12890000Y-13800000I-15000J0D01*
G01*
X12890000Y-13800000D02*
G75*
G02*
X12920000Y-13800000I15000J0D01*
G01*
X12970000Y-16195000D02*
G75*
G02*
X12940000Y-16195000I-15000J0D01*
G01*
X12940000Y-16195000D02*
G75*
G02*
X12970000Y-16195000I15000J0D01*
G01*
X12985000Y-6675000D02*
G75*
G02*
X12955000Y-6675000I-15000J0D01*
G01*
X12955000Y-6675000D02*
G75*
G02*
X12985000Y-6675000I15000J0D01*
G01*
X13020000Y-10295000D02*
G75*
G02*
X12990000Y-10295000I-15000J0D01*
G01*
X12990000Y-10295000D02*
G75*
G02*
X13020000Y-10295000I15000J0D01*
G01*
X13065000Y-16195000D02*
G75*
G02*
X13035000Y-16195000I-15000J0D01*
G01*
X13035000Y-16195000D02*
G75*
G02*
X13065000Y-16195000I15000J0D01*
G01*
X13080000Y-6675000D02*
G75*
G02*
X13050000Y-6675000I-15000J0D01*
G01*
X13050000Y-6675000D02*
G75*
G02*
X13080000Y-6675000I15000J0D01*
G01*
X13100000Y-10920000D02*
G75*
G02*
X13070000Y-10920000I-15000J0D01*
G01*
X13070000Y-10920000D02*
G75*
G02*
X13100000Y-10920000I15000J0D01*
G01*
X13100000Y-11020000D02*
G75*
G02*
X13070000Y-11020000I-15000J0D01*
G01*
X13070000Y-11020000D02*
G75*
G02*
X13100000Y-11020000I15000J0D01*
G01*
X13125000Y-10295000D02*
G75*
G02*
X13095000Y-10295000I-15000J0D01*
G01*
X13095000Y-10295000D02*
G75*
G02*
X13125000Y-10295000I15000J0D01*
G01*
X13150000Y-10970000D02*
G75*
G02*
X13120000Y-10970000I-15000J0D01*
G01*
X13120000Y-10970000D02*
G75*
G02*
X13150000Y-10970000I15000J0D01*
G01*
X13160000Y-15575000D02*
G75*
G02*
X13130000Y-15575000I-15000J0D01*
G01*
X13130000Y-15575000D02*
G75*
G02*
X13160000Y-15575000I15000J0D01*
G01*
X13160000Y-15670000D02*
G75*
G02*
X13130000Y-15670000I-15000J0D01*
G01*
X13130000Y-15670000D02*
G75*
G02*
X13160000Y-15670000I15000J0D01*
G01*
X13160000Y-15940000D02*
G75*
G02*
X13130000Y-15940000I-15000J0D01*
G01*
X13130000Y-15940000D02*
G75*
G02*
X13160000Y-15940000I15000J0D01*
G01*
X13160000Y-16195000D02*
G75*
G02*
X13130000Y-16195000I-15000J0D01*
G01*
X13130000Y-16195000D02*
G75*
G02*
X13160000Y-16195000I15000J0D01*
G01*
X13165000Y-13530000D02*
G75*
G02*
X13135000Y-13530000I-15000J0D01*
G01*
X13135000Y-13530000D02*
G75*
G02*
X13165000Y-13530000I15000J0D01*
G01*
X13165000Y-13605000D02*
G75*
G02*
X13135000Y-13605000I-15000J0D01*
G01*
X13135000Y-13605000D02*
G75*
G02*
X13165000Y-13605000I15000J0D01*
G01*
X13175000Y-6675000D02*
G75*
G02*
X13145000Y-6675000I-15000J0D01*
G01*
X13145000Y-6675000D02*
G75*
G02*
X13175000Y-6675000I15000J0D01*
G01*
X13200000Y-10920000D02*
G75*
G02*
X13170000Y-10920000I-15000J0D01*
G01*
X13170000Y-10920000D02*
G75*
G02*
X13200000Y-10920000I15000J0D01*
G01*
X13200000Y-11020000D02*
G75*
G02*
X13170000Y-11020000I-15000J0D01*
G01*
X13170000Y-11020000D02*
G75*
G02*
X13200000Y-11020000I15000J0D01*
G01*
X13200000Y-12280000D02*
G75*
G02*
X13170000Y-12280000I-15000J0D01*
G01*
X13170000Y-12280000D02*
G75*
G02*
X13200000Y-12280000I15000J0D01*
G01*
X13200000Y-12365000D02*
G75*
G02*
X13170000Y-12365000I-15000J0D01*
G01*
X13170000Y-12365000D02*
G75*
G02*
X13200000Y-12365000I15000J0D01*
G01*
X13255000Y-16195000D02*
G75*
G02*
X13225000Y-16195000I-15000J0D01*
G01*
X13225000Y-16195000D02*
G75*
G02*
X13255000Y-16195000I15000J0D01*
G01*
X13270000Y-6675000D02*
G75*
G02*
X13240000Y-6675000I-15000J0D01*
G01*
X13240000Y-6675000D02*
G75*
G02*
X13270000Y-6675000I15000J0D01*
G01*
X13285000Y-13385000D02*
G75*
G02*
X13255000Y-13385000I-15000J0D01*
G01*
X13255000Y-13385000D02*
G75*
G02*
X13285000Y-13385000I15000J0D01*
G01*
X13350000Y-16195000D02*
G75*
G02*
X13320000Y-16195000I-15000J0D01*
G01*
X13320000Y-16195000D02*
G75*
G02*
X13350000Y-16195000I15000J0D01*
G01*
X13355000Y-12840000D02*
G75*
G02*
X13325000Y-12840000I-15000J0D01*
G01*
X13325000Y-12840000D02*
G75*
G02*
X13355000Y-12840000I15000J0D01*
G01*
X13360000Y-13310000D02*
G75*
G02*
X13330000Y-13310000I-15000J0D01*
G01*
X13330000Y-13310000D02*
G75*
G02*
X13360000Y-13310000I15000J0D01*
G01*
X13365000Y-6675000D02*
G75*
G02*
X13335000Y-6675000I-15000J0D01*
G01*
X13335000Y-6675000D02*
G75*
G02*
X13365000Y-6675000I15000J0D01*
G01*
X13445000Y-16195000D02*
G75*
G02*
X13415000Y-16195000I-15000J0D01*
G01*
X13415000Y-16195000D02*
G75*
G02*
X13445000Y-16195000I15000J0D01*
G01*
X13460000Y-6675000D02*
G75*
G02*
X13430000Y-6675000I-15000J0D01*
G01*
X13430000Y-6675000D02*
G75*
G02*
X13460000Y-6675000I15000J0D01*
G01*
X13465000Y-14825000D02*
G75*
G02*
X13435000Y-14825000I-15000J0D01*
G01*
X13435000Y-14825000D02*
G75*
G02*
X13465000Y-14825000I15000J0D01*
G01*
X13465000Y-14910000D02*
G75*
G02*
X13435000Y-14910000I-15000J0D01*
G01*
X13435000Y-14910000D02*
G75*
G02*
X13465000Y-14910000I15000J0D01*
G01*
X13475000Y-13940000D02*
G75*
G02*
X13445000Y-13940000I-15000J0D01*
G01*
X13445000Y-13940000D02*
G75*
G02*
X13475000Y-13940000I15000J0D01*
G01*
X13495000Y-10440000D02*
G75*
G02*
X13465000Y-10440000I-15000J0D01*
G01*
X13465000Y-10440000D02*
G75*
G02*
X13495000Y-10440000I15000J0D01*
G01*
X13540000Y-16195000D02*
G75*
G02*
X13510000Y-16195000I-15000J0D01*
G01*
X13510000Y-16195000D02*
G75*
G02*
X13540000Y-16195000I15000J0D01*
G01*
X13555000Y-6675000D02*
G75*
G02*
X13525000Y-6675000I-15000J0D01*
G01*
X13525000Y-6675000D02*
G75*
G02*
X13555000Y-6675000I15000J0D01*
G01*
X13575000Y-13940000D02*
G75*
G02*
X13545000Y-13940000I-15000J0D01*
G01*
X13545000Y-13940000D02*
G75*
G02*
X13575000Y-13940000I15000J0D01*
G01*
X13635000Y-9375000D02*
G75*
G02*
X13605000Y-9375000I-15000J0D01*
G01*
X13605000Y-9375000D02*
G75*
G02*
X13635000Y-9375000I15000J0D01*
G01*
X13635000Y-16195000D02*
G75*
G02*
X13605000Y-16195000I-15000J0D01*
G01*
X13605000Y-16195000D02*
G75*
G02*
X13635000Y-16195000I15000J0D01*
G01*
X13640000Y-9095000D02*
G75*
G02*
X13610000Y-9095000I-15000J0D01*
G01*
X13610000Y-9095000D02*
G75*
G02*
X13640000Y-9095000I15000J0D01*
G01*
X13645000Y-15665000D02*
G75*
G02*
X13615000Y-15665000I-15000J0D01*
G01*
X13615000Y-15665000D02*
G75*
G02*
X13645000Y-15665000I15000J0D01*
G01*
X13645000Y-15750000D02*
G75*
G02*
X13615000Y-15750000I-15000J0D01*
G01*
X13615000Y-15750000D02*
G75*
G02*
X13645000Y-15750000I15000J0D01*
G01*
X13650000Y-6675000D02*
G75*
G02*
X13620000Y-6675000I-15000J0D01*
G01*
X13620000Y-6675000D02*
G75*
G02*
X13650000Y-6675000I15000J0D01*
G01*
X13675000Y-13500000D02*
G75*
G02*
X13645000Y-13500000I-15000J0D01*
G01*
X13645000Y-13500000D02*
G75*
G02*
X13675000Y-13500000I15000J0D01*
G01*
X13675000Y-13940000D02*
G75*
G02*
X13645000Y-13940000I-15000J0D01*
G01*
X13645000Y-13940000D02*
G75*
G02*
X13675000Y-13940000I15000J0D01*
G01*
X13710000Y-9375000D02*
G75*
G02*
X13680000Y-9375000I-15000J0D01*
G01*
X13680000Y-9375000D02*
G75*
G02*
X13710000Y-9375000I15000J0D01*
G01*
X13730000Y-16195000D02*
G75*
G02*
X13700000Y-16195000I-15000J0D01*
G01*
X13700000Y-16195000D02*
G75*
G02*
X13730000Y-16195000I15000J0D01*
G01*
X13745000Y-6675000D02*
G75*
G02*
X13715000Y-6675000I-15000J0D01*
G01*
X13715000Y-6675000D02*
G75*
G02*
X13745000Y-6675000I15000J0D01*
G01*
X13745000Y-9095000D02*
G75*
G02*
X13715000Y-9095000I-15000J0D01*
G01*
X13715000Y-9095000D02*
G75*
G02*
X13745000Y-9095000I15000J0D01*
G01*
X13825000Y-16195000D02*
G75*
G02*
X13795000Y-16195000I-15000J0D01*
G01*
X13795000Y-16195000D02*
G75*
G02*
X13825000Y-16195000I15000J0D01*
G01*
X13835000Y-13370000D02*
G75*
G02*
X13805000Y-13370000I-15000J0D01*
G01*
X13805000Y-13370000D02*
G75*
G02*
X13835000Y-13370000I15000J0D01*
G01*
X13835000Y-13750000D02*
G75*
G02*
X13805000Y-13750000I-15000J0D01*
G01*
X13805000Y-13750000D02*
G75*
G02*
X13835000Y-13750000I15000J0D01*
G01*
X13835000Y-13850000D02*
G75*
G02*
X13805000Y-13850000I-15000J0D01*
G01*
X13805000Y-13850000D02*
G75*
G02*
X13835000Y-13850000I15000J0D01*
G01*
X13840000Y-6675000D02*
G75*
G02*
X13810000Y-6675000I-15000J0D01*
G01*
X13810000Y-6675000D02*
G75*
G02*
X13840000Y-6675000I15000J0D01*
G01*
X13885000Y-13800000D02*
G75*
G02*
X13855000Y-13800000I-15000J0D01*
G01*
X13855000Y-13800000D02*
G75*
G02*
X13885000Y-13800000I15000J0D01*
G01*
X13920000Y-16195000D02*
G75*
G02*
X13890000Y-16195000I-15000J0D01*
G01*
X13890000Y-16195000D02*
G75*
G02*
X13920000Y-16195000I15000J0D01*
G01*
X13935000Y-6675000D02*
G75*
G02*
X13905000Y-6675000I-15000J0D01*
G01*
X13905000Y-6675000D02*
G75*
G02*
X13935000Y-6675000I15000J0D01*
G01*
X13935000Y-13750000D02*
G75*
G02*
X13905000Y-13750000I-15000J0D01*
G01*
X13905000Y-13750000D02*
G75*
G02*
X13935000Y-13750000I15000J0D01*
G01*
X13935000Y-13850000D02*
G75*
G02*
X13905000Y-13850000I-15000J0D01*
G01*
X13905000Y-13850000D02*
G75*
G02*
X13935000Y-13850000I15000J0D01*
G01*
X13985000Y-8020000D02*
G75*
G02*
X13955000Y-8020000I-15000J0D01*
G01*
X13955000Y-8020000D02*
G75*
G02*
X13985000Y-8020000I15000J0D01*
G01*
X14015000Y-16195000D02*
G75*
G02*
X13985000Y-16195000I-15000J0D01*
G01*
X13985000Y-16195000D02*
G75*
G02*
X14015000Y-16195000I15000J0D01*
G01*
X14030000Y-6675000D02*
G75*
G02*
X14000000Y-6675000I-15000J0D01*
G01*
X14000000Y-6675000D02*
G75*
G02*
X14030000Y-6675000I15000J0D01*
G01*
X14070000Y-14505000D02*
G75*
G02*
X14040000Y-14505000I-15000J0D01*
G01*
X14040000Y-14505000D02*
G75*
G02*
X14070000Y-14505000I15000J0D01*
G01*
X14070000Y-14605000D02*
G75*
G02*
X14040000Y-14605000I-15000J0D01*
G01*
X14040000Y-14605000D02*
G75*
G02*
X14070000Y-14605000I15000J0D01*
G01*
X14070000Y-15430000D02*
G75*
G02*
X14040000Y-15430000I-15000J0D01*
G01*
X14040000Y-15430000D02*
G75*
G02*
X14070000Y-15430000I15000J0D01*
G01*
X14070000Y-15530000D02*
G75*
G02*
X14040000Y-15530000I-15000J0D01*
G01*
X14040000Y-15530000D02*
G75*
G02*
X14070000Y-15530000I15000J0D01*
G01*
X14075000Y-9475000D02*
G75*
G02*
X14045000Y-9475000I-15000J0D01*
G01*
X14045000Y-9475000D02*
G75*
G02*
X14075000Y-9475000I15000J0D01*
G01*
X14075000Y-9580000D02*
G75*
G02*
X14045000Y-9580000I-15000J0D01*
G01*
X14045000Y-9580000D02*
G75*
G02*
X14075000Y-9580000I15000J0D01*
G01*
X14075000Y-9675000D02*
G75*
G02*
X14045000Y-9675000I-15000J0D01*
G01*
X14045000Y-9675000D02*
G75*
G02*
X14075000Y-9675000I15000J0D01*
G01*
X14110000Y-16195000D02*
G75*
G02*
X14080000Y-16195000I-15000J0D01*
G01*
X14080000Y-16195000D02*
G75*
G02*
X14110000Y-16195000I15000J0D01*
G01*
X14115000Y-7660000D02*
G75*
G02*
X14085000Y-7660000I-15000J0D01*
G01*
X14085000Y-7660000D02*
G75*
G02*
X14115000Y-7660000I15000J0D01*
G01*
X14120000Y-14555000D02*
G75*
G02*
X14090000Y-14555000I-15000J0D01*
G01*
X14090000Y-14555000D02*
G75*
G02*
X14120000Y-14555000I15000J0D01*
G01*
X14120000Y-15480000D02*
G75*
G02*
X14090000Y-15480000I-15000J0D01*
G01*
X14090000Y-15480000D02*
G75*
G02*
X14120000Y-15480000I15000J0D01*
G01*
X14125000Y-6675000D02*
G75*
G02*
X14095000Y-6675000I-15000J0D01*
G01*
X14095000Y-6675000D02*
G75*
G02*
X14125000Y-6675000I15000J0D01*
G01*
X14170000Y-14505000D02*
G75*
G02*
X14140000Y-14505000I-15000J0D01*
G01*
X14140000Y-14505000D02*
G75*
G02*
X14170000Y-14505000I15000J0D01*
G01*
X14170000Y-14605000D02*
G75*
G02*
X14140000Y-14605000I-15000J0D01*
G01*
X14140000Y-14605000D02*
G75*
G02*
X14170000Y-14605000I15000J0D01*
G01*
X14170000Y-15430000D02*
G75*
G02*
X14140000Y-15430000I-15000J0D01*
G01*
X14140000Y-15430000D02*
G75*
G02*
X14170000Y-15430000I15000J0D01*
G01*
X14170000Y-15530000D02*
G75*
G02*
X14140000Y-15530000I-15000J0D01*
G01*
X14140000Y-15530000D02*
G75*
G02*
X14170000Y-15530000I15000J0D01*
G01*
X14205000Y-16195000D02*
G75*
G02*
X14175000Y-16195000I-15000J0D01*
G01*
X14175000Y-16195000D02*
G75*
G02*
X14205000Y-16195000I15000J0D01*
G01*
X14220000Y-6675000D02*
G75*
G02*
X14190000Y-6675000I-15000J0D01*
G01*
X14190000Y-6675000D02*
G75*
G02*
X14220000Y-6675000I15000J0D01*
G01*
X14235000Y-12675000D02*
G75*
G02*
X14205000Y-12675000I-15000J0D01*
G01*
X14205000Y-12675000D02*
G75*
G02*
X14235000Y-12675000I15000J0D01*
G01*
X14235000Y-12750000D02*
G75*
G02*
X14205000Y-12750000I-15000J0D01*
G01*
X14205000Y-12750000D02*
G75*
G02*
X14235000Y-12750000I15000J0D01*
G01*
X14275000Y-10335000D02*
G75*
G02*
X14245000Y-10335000I-15000J0D01*
G01*
X14245000Y-10335000D02*
G75*
G02*
X14275000Y-10335000I15000J0D01*
G01*
X14300000Y-16195000D02*
G75*
G02*
X14270000Y-16195000I-15000J0D01*
G01*
X14270000Y-16195000D02*
G75*
G02*
X14300000Y-16195000I15000J0D01*
G01*
X14315000Y-6675000D02*
G75*
G02*
X14285000Y-6675000I-15000J0D01*
G01*
X14285000Y-6675000D02*
G75*
G02*
X14315000Y-6675000I15000J0D01*
G01*
X14315000Y-7520000D02*
G75*
G02*
X14285000Y-7520000I-15000J0D01*
G01*
X14285000Y-7520000D02*
G75*
G02*
X14315000Y-7520000I15000J0D01*
G01*
X14320000Y-12675000D02*
G75*
G02*
X14290000Y-12675000I-15000J0D01*
G01*
X14290000Y-12675000D02*
G75*
G02*
X14320000Y-12675000I15000J0D01*
G01*
X14320000Y-12750000D02*
G75*
G02*
X14290000Y-12750000I-15000J0D01*
G01*
X14290000Y-12750000D02*
G75*
G02*
X14320000Y-12750000I15000J0D01*
G01*
X14395000Y-16195000D02*
G75*
G02*
X14365000Y-16195000I-15000J0D01*
G01*
X14365000Y-16195000D02*
G75*
G02*
X14395000Y-16195000I15000J0D01*
G01*
X14410000Y-6675000D02*
G75*
G02*
X14380000Y-6675000I-15000J0D01*
G01*
X14380000Y-6675000D02*
G75*
G02*
X14410000Y-6675000I15000J0D01*
G01*
X14490000Y-16195000D02*
G75*
G02*
X14460000Y-16195000I-15000J0D01*
G01*
X14460000Y-16195000D02*
G75*
G02*
X14490000Y-16195000I15000J0D01*
G01*
X14505000Y-6675000D02*
G75*
G02*
X14475000Y-6675000I-15000J0D01*
G01*
X14475000Y-6675000D02*
G75*
G02*
X14505000Y-6675000I15000J0D01*
G01*
X14585000Y-16195000D02*
G75*
G02*
X14555000Y-16195000I-15000J0D01*
G01*
X14555000Y-16195000D02*
G75*
G02*
X14585000Y-16195000I15000J0D01*
G01*
X14600000Y-6675000D02*
G75*
G02*
X14570000Y-6675000I-15000J0D01*
G01*
X14570000Y-6675000D02*
G75*
G02*
X14600000Y-6675000I15000J0D01*
G01*
X14680000Y-16195000D02*
G75*
G02*
X14650000Y-16195000I-15000J0D01*
G01*
X14650000Y-16195000D02*
G75*
G02*
X14680000Y-16195000I15000J0D01*
G01*
X14695000Y-6675000D02*
G75*
G02*
X14665000Y-6675000I-15000J0D01*
G01*
X14665000Y-6675000D02*
G75*
G02*
X14695000Y-6675000I15000J0D01*
G01*
X14740000Y-14880000D02*
G75*
G02*
X14710000Y-14880000I-15000J0D01*
G01*
X14710000Y-14880000D02*
G75*
G02*
X14740000Y-14880000I15000J0D01*
G01*
X14740000Y-14955000D02*
G75*
G02*
X14710000Y-14955000I-15000J0D01*
G01*
X14710000Y-14955000D02*
G75*
G02*
X14740000Y-14955000I15000J0D01*
G01*
X14775000Y-16195000D02*
G75*
G02*
X14745000Y-16195000I-15000J0D01*
G01*
X14745000Y-16195000D02*
G75*
G02*
X14775000Y-16195000I15000J0D01*
G01*
X14790000Y-6675000D02*
G75*
G02*
X14760000Y-6675000I-15000J0D01*
G01*
X14760000Y-6675000D02*
G75*
G02*
X14790000Y-6675000I15000J0D01*
G01*
X14825000Y-14880000D02*
G75*
G02*
X14795000Y-14880000I-15000J0D01*
G01*
X14795000Y-14880000D02*
G75*
G02*
X14825000Y-14880000I15000J0D01*
G01*
X14825000Y-14955000D02*
G75*
G02*
X14795000Y-14955000I-15000J0D01*
G01*
X14795000Y-14955000D02*
G75*
G02*
X14825000Y-14955000I15000J0D01*
G01*
X14870000Y-16195000D02*
G75*
G02*
X14840000Y-16195000I-15000J0D01*
G01*
X14840000Y-16195000D02*
G75*
G02*
X14870000Y-16195000I15000J0D01*
G01*
X14885000Y-6675000D02*
G75*
G02*
X14855000Y-6675000I-15000J0D01*
G01*
X14855000Y-6675000D02*
G75*
G02*
X14885000Y-6675000I15000J0D01*
G01*
X14965000Y-16195000D02*
G75*
G02*
X14935000Y-16195000I-15000J0D01*
G01*
X14935000Y-16195000D02*
G75*
G02*
X14965000Y-16195000I15000J0D01*
G01*
X14980000Y-6675000D02*
G75*
G02*
X14950000Y-6675000I-15000J0D01*
G01*
X14950000Y-6675000D02*
G75*
G02*
X14980000Y-6675000I15000J0D01*
G01*
X15060000Y-16195000D02*
G75*
G02*
X15030000Y-16195000I-15000J0D01*
G01*
X15030000Y-16195000D02*
G75*
G02*
X15060000Y-16195000I15000J0D01*
G01*
X15075000Y-6675000D02*
G75*
G02*
X15045000Y-6675000I-15000J0D01*
G01*
X15045000Y-6675000D02*
G75*
G02*
X15075000Y-6675000I15000J0D01*
G01*
X15150000Y-9755000D02*
G75*
G02*
X15120000Y-9755000I-15000J0D01*
G01*
X15120000Y-9755000D02*
G75*
G02*
X15150000Y-9755000I15000J0D01*
G01*
X15150000Y-9830000D02*
G75*
G02*
X15120000Y-9830000I-15000J0D01*
G01*
X15120000Y-9830000D02*
G75*
G02*
X15150000Y-9830000I15000J0D01*
G01*
X15155000Y-16195000D02*
G75*
G02*
X15125000Y-16195000I-15000J0D01*
G01*
X15125000Y-16195000D02*
G75*
G02*
X15155000Y-16195000I15000J0D01*
G01*
X15170000Y-6675000D02*
G75*
G02*
X15140000Y-6675000I-15000J0D01*
G01*
X15140000Y-6675000D02*
G75*
G02*
X15170000Y-6675000I15000J0D01*
G01*
X15250000Y-16195000D02*
G75*
G02*
X15220000Y-16195000I-15000J0D01*
G01*
X15220000Y-16195000D02*
G75*
G02*
X15250000Y-16195000I15000J0D01*
G01*
X15265000Y-6675000D02*
G75*
G02*
X15235000Y-6675000I-15000J0D01*
G01*
X15235000Y-6675000D02*
G75*
G02*
X15265000Y-6675000I15000J0D01*
G01*
X14594500Y-7662500D02*
X14594500Y-7742500D01*
X14554500Y-7702500D02*
X14634500Y-7702500D01*
X14597000Y-6960000D02*
X14597000Y-7040000D01*
X14557000Y-7000000D02*
X14637000Y-7000000D01*
X14848500Y-7916500D02*
X14848500Y-7996500D01*
X14808500Y-7956500D02*
X14888500Y-7956500D01*
X14851000Y-7214000D02*
X14851000Y-7294000D01*
X14811000Y-7254000D02*
X14891000Y-7254000D01*
X15102500Y-7662500D02*
X15102500Y-7742500D01*
X15062500Y-7702500D02*
X15142500Y-7702500D01*
X15105000Y-6960000D02*
X15105000Y-7040000D01*
X15065000Y-7000000D02*
X15145000Y-7000000D01*
X14248467Y-8702467D02*
X14248467Y-8639533D01*
X14185533Y-8639533D01*
X14185533Y-8702467D01*
X14248467Y-8702467D01*
X14248467Y-8956467D02*
X14248467Y-8893533D01*
X14185533Y-8893533D01*
X14185533Y-8956467D01*
X14248467Y-8956467D01*
X14248467Y-13702467D02*
X14248467Y-13639533D01*
X14185533Y-13639533D01*
X14185533Y-13702467D01*
X14248467Y-13702467D01*
X14248467Y-13956467D02*
X14248467Y-13893533D01*
X14185533Y-13893533D01*
X14185533Y-13956467D01*
X14248467Y-13956467D01*
X14222250Y-11346000D02*
X14268250Y-11300000D01*
X14222250Y-11254000D01*
X14176250Y-11300000D01*
X14222250Y-11346000D01*
X14222250Y-11596000D02*
X14268250Y-11550000D01*
X14222250Y-11504000D01*
X14176250Y-11550000D01*
X14222250Y-11596000D01*
X14422250Y-11346000D02*
X14468250Y-11300000D01*
X14422250Y-11254000D01*
X14376250Y-11300000D01*
X14422250Y-11346000D01*
X14422250Y-11596000D02*
X14468250Y-11550000D01*
X14422250Y-11504000D01*
X14376250Y-11550000D01*
X14422250Y-11596000D01*
X9820250Y-7645000D02*
X9920250Y-7745000D01*
X9920250Y-7645000D02*
X9820250Y-7745000D01*
X9920250Y-7695000D02*
G75*
G02*
X9820250Y-7695000I-50000J0D01*
G01*
X9820250Y-7695000D02*
G75*
G02*
X9920250Y-7695000I50000J0D01*
G01*
X9820250Y-7899000D02*
X9920250Y-7999000D01*
X9920250Y-7899000D02*
X9820250Y-7999000D01*
X9920250Y-7949000D02*
G75*
G02*
X9820250Y-7949000I-50000J0D01*
G01*
X9820250Y-7949000D02*
G75*
G02*
X9920250Y-7949000I50000J0D01*
G01*
X9820250Y-8153000D02*
X9920250Y-8253000D01*
X9920250Y-8153000D02*
X9820250Y-8253000D01*
X9920250Y-8203000D02*
G75*
G02*
X9820250Y-8203000I-50000J0D01*
G01*
X9820250Y-8203000D02*
G75*
G02*
X9920250Y-8203000I50000J0D01*
G01*
X9820250Y-8407000D02*
X9920250Y-8507000D01*
X9920250Y-8407000D02*
X9820250Y-8507000D01*
X9920250Y-8457000D02*
G75*
G02*
X9820250Y-8457000I-50000J0D01*
G01*
X9820250Y-8457000D02*
G75*
G02*
X9920250Y-8457000I50000J0D01*
G01*
X12614750Y-7302000D02*
X12714750Y-7402000D01*
X12714750Y-7302000D02*
X12614750Y-7402000D01*
X12714750Y-7352000D02*
G75*
G02*
X12614750Y-7352000I-50000J0D01*
G01*
X12614750Y-7352000D02*
G75*
G02*
X12714750Y-7352000I50000J0D01*
G01*
X12614750Y-7556000D02*
X12714750Y-7656000D01*
X12714750Y-7556000D02*
X12614750Y-7656000D01*
X12714750Y-7606000D02*
G75*
G02*
X12614750Y-7606000I-50000J0D01*
G01*
X12614750Y-7606000D02*
G75*
G02*
X12714750Y-7606000I50000J0D01*
G01*
X12614750Y-7810000D02*
X12714750Y-7910000D01*
X12714750Y-7810000D02*
X12614750Y-7910000D01*
X12714750Y-7860000D02*
G75*
G02*
X12614750Y-7860000I-50000J0D01*
G01*
X12614750Y-7860000D02*
G75*
G02*
X12714750Y-7860000I50000J0D01*
G01*
X12614750Y-8064000D02*
X12714750Y-8164000D01*
X12714750Y-8064000D02*
X12614750Y-8164000D01*
X12714750Y-8114000D02*
G75*
G02*
X12614750Y-8114000I-50000J0D01*
G01*
X12614750Y-8114000D02*
G75*
G02*
X12714750Y-8114000I50000J0D01*
G01*
X12614750Y-8318000D02*
X12714750Y-8418000D01*
X12714750Y-8318000D02*
X12614750Y-8418000D01*
X12714750Y-8368000D02*
G75*
G02*
X12614750Y-8368000I-50000J0D01*
G01*
X12614750Y-8368000D02*
G75*
G02*
X12714750Y-8368000I50000J0D01*
G01*
X12868750Y-7302000D02*
X12968750Y-7402000D01*
X12968750Y-7302000D02*
X12868750Y-7402000D01*
X12968750Y-7352000D02*
G75*
G02*
X12868750Y-7352000I-50000J0D01*
G01*
X12868750Y-7352000D02*
G75*
G02*
X12968750Y-7352000I50000J0D01*
G01*
X12868750Y-7556000D02*
X12968750Y-7656000D01*
X12968750Y-7556000D02*
X12868750Y-7656000D01*
X12968750Y-7606000D02*
G75*
G02*
X12868750Y-7606000I-50000J0D01*
G01*
X12868750Y-7606000D02*
G75*
G02*
X12968750Y-7606000I50000J0D01*
G01*
X12868750Y-7810000D02*
X12968750Y-7910000D01*
X12968750Y-7810000D02*
X12868750Y-7910000D01*
X12968750Y-7860000D02*
G75*
G02*
X12868750Y-7860000I-50000J0D01*
G01*
X12868750Y-7860000D02*
G75*
G02*
X12968750Y-7860000I50000J0D01*
G01*
X12868750Y-8064000D02*
X12968750Y-8164000D01*
X12968750Y-8064000D02*
X12868750Y-8164000D01*
X12968750Y-8114000D02*
G75*
G02*
X12868750Y-8114000I-50000J0D01*
G01*
X12868750Y-8114000D02*
G75*
G02*
X12968750Y-8114000I50000J0D01*
G01*
X12868750Y-8318000D02*
X12968750Y-8418000D01*
X12968750Y-8318000D02*
X12868750Y-8418000D01*
X12968750Y-8368000D02*
G75*
G02*
X12868750Y-8368000I-50000J0D01*
G01*
X12868750Y-8368000D02*
G75*
G02*
X12968750Y-8368000I50000J0D01*
G01*
X13450000Y-7057000D02*
X13550000Y-7157000D01*
X13550000Y-7057000D02*
X13450000Y-7157000D01*
X13550000Y-7107000D02*
G75*
G02*
X13450000Y-7107000I-50000J0D01*
G01*
X13450000Y-7107000D02*
G75*
G02*
X13550000Y-7107000I50000J0D01*
G01*
X13450000Y-7311000D02*
X13550000Y-7411000D01*
X13550000Y-7311000D02*
X13450000Y-7411000D01*
X13550000Y-7361000D02*
G75*
G02*
X13450000Y-7361000I-50000J0D01*
G01*
X13450000Y-7361000D02*
G75*
G02*
X13550000Y-7361000I50000J0D01*
G01*
X13450000Y-7742500D02*
X13550000Y-7842500D01*
X13550000Y-7742500D02*
X13450000Y-7842500D01*
X13550000Y-7792500D02*
G75*
G02*
X13450000Y-7792500I-50000J0D01*
G01*
X13450000Y-7792500D02*
G75*
G02*
X13550000Y-7792500I50000J0D01*
G01*
X13450000Y-7996500D02*
X13550000Y-8096500D01*
X13550000Y-7996500D02*
X13450000Y-8096500D01*
X13550000Y-8046500D02*
G75*
G02*
X13450000Y-8046500I-50000J0D01*
G01*
X13450000Y-8046500D02*
G75*
G02*
X13550000Y-8046500I50000J0D01*
G01*
D13*
X14624500Y-8316500D02*
X14825500Y-8517500D01*
X14825500Y-8316500D02*
X14624500Y-8517500D01*
X14725000Y-8316500D02*
X14725000Y-8517500D01*
X14624500Y-8417000D02*
X14825500Y-8417000D01*
X14624500Y-9332500D02*
X14825500Y-9533500D01*
X14825500Y-9332500D02*
X14624500Y-9533500D01*
X14725000Y-9332500D02*
X14725000Y-9533500D01*
X14624500Y-9433000D02*
X14825500Y-9433000D01*
X14624500Y-13316500D02*
X14825500Y-13517500D01*
X14825500Y-13316500D02*
X14624500Y-13517500D01*
X14725000Y-13316500D02*
X14725000Y-13517500D01*
X14624500Y-13417000D02*
X14825500Y-13417000D01*
X14624500Y-14332500D02*
X14825500Y-14533500D01*
X14825500Y-14332500D02*
X14624500Y-14533500D01*
X14725000Y-14332500D02*
X14725000Y-14533500D01*
X14624500Y-14433000D02*
X14825500Y-14433000D01*
D14*
X14576750Y-10706500D02*
X14809750Y-10939500D01*
X14809750Y-10706500D02*
X14576750Y-10939500D01*
X14775629Y-10905379D02*
X14775629Y-10740621D01*
X14610871Y-10740621D01*
X14610871Y-10905379D01*
X14775629Y-10905379D01*
X14576750Y-11910500D02*
X14809750Y-12143500D01*
X14809750Y-11910500D02*
X14576750Y-12143500D01*
X14775629Y-12109379D02*
X14775629Y-11944621D01*
X14610871Y-11944621D01*
X14610871Y-12109379D01*
X14775629Y-12109379D01*
D15*
X11815000Y-10910000D02*
X12065000Y-11160000D01*
X12065000Y-10910000D02*
X11815000Y-11160000D01*
X11940000Y-11160000D02*
X12065000Y-11035000D01*
X11940000Y-10910000D01*
X11815000Y-11035000D01*
X11940000Y-11160000D01*
X11815000Y-11690000D02*
X12065000Y-11940000D01*
X12065000Y-11690000D02*
X11815000Y-11940000D01*
X11940000Y-11940000D02*
X12065000Y-11815000D01*
X11940000Y-11690000D01*
X11815000Y-11815000D01*
X11940000Y-11940000D01*
D11*
X9758277Y-16638984D02*
X9758277Y-16438984D01*
X9758277Y-16438984D02*
X9805896Y-16438984D01*
X9805896Y-16438984D02*
X9834467Y-16448508D01*
X9834467Y-16448508D02*
X9853515Y-16467555D01*
X9853515Y-16467555D02*
X9863039Y-16486603D01*
X9863039Y-16486603D02*
X9872563Y-16524698D01*
X9872563Y-16524698D02*
X9872563Y-16553269D01*
X9872563Y-16553269D02*
X9863039Y-16591365D01*
X9863039Y-16591365D02*
X9853515Y-16610412D01*
X9853515Y-16610412D02*
X9834467Y-16629460D01*
X9834467Y-16629460D02*
X9805896Y-16638984D01*
X9805896Y-16638984D02*
X9758277Y-16638984D01*
X9958277Y-16638984D02*
X9958277Y-16505650D01*
X9958277Y-16543746D02*
X9967801Y-16524698D01*
X9967801Y-16524698D02*
X9977324Y-16515174D01*
X9977324Y-16515174D02*
X9996372Y-16505650D01*
X9996372Y-16505650D02*
X10015420Y-16505650D01*
X10082086Y-16638984D02*
X10082086Y-16505650D01*
X10082086Y-16438984D02*
X10072563Y-16448508D01*
X10072563Y-16448508D02*
X10082086Y-16458031D01*
X10082086Y-16458031D02*
X10091610Y-16448508D01*
X10091610Y-16448508D02*
X10082086Y-16438984D01*
X10082086Y-16438984D02*
X10082086Y-16458031D01*
X10205896Y-16638984D02*
X10186848Y-16629460D01*
X10186848Y-16629460D02*
X10177324Y-16610412D01*
X10177324Y-16610412D02*
X10177324Y-16438984D01*
X10310658Y-16638984D02*
X10291610Y-16629460D01*
X10291610Y-16629460D02*
X10282086Y-16610412D01*
X10282086Y-16610412D02*
X10282086Y-16438984D01*
X10539229Y-16638984D02*
X10539229Y-16438984D01*
X10539229Y-16438984D02*
X10605896Y-16581841D01*
X10605896Y-16581841D02*
X10672563Y-16438984D01*
X10672563Y-16438984D02*
X10672563Y-16638984D01*
X10853515Y-16638984D02*
X10853515Y-16534222D01*
X10853515Y-16534222D02*
X10843991Y-16515174D01*
X10843991Y-16515174D02*
X10824944Y-16505650D01*
X10824944Y-16505650D02*
X10786848Y-16505650D01*
X10786848Y-16505650D02*
X10767801Y-16515174D01*
X10853515Y-16629460D02*
X10834467Y-16638984D01*
X10834467Y-16638984D02*
X10786848Y-16638984D01*
X10786848Y-16638984D02*
X10767801Y-16629460D01*
X10767801Y-16629460D02*
X10758277Y-16610412D01*
X10758277Y-16610412D02*
X10758277Y-16591365D01*
X10758277Y-16591365D02*
X10767801Y-16572317D01*
X10767801Y-16572317D02*
X10786848Y-16562793D01*
X10786848Y-16562793D02*
X10834467Y-16562793D01*
X10834467Y-16562793D02*
X10853515Y-16553269D01*
X10948753Y-16505650D02*
X10948753Y-16705650D01*
X10948753Y-16515174D02*
X10967801Y-16505650D01*
X10967801Y-16505650D02*
X11005896Y-16505650D01*
X11005896Y-16505650D02*
X11024944Y-16515174D01*
X11024944Y-16515174D02*
X11034467Y-16524698D01*
X11034467Y-16524698D02*
X11043991Y-16543746D01*
X11043991Y-16543746D02*
X11043991Y-16600888D01*
X11043991Y-16600888D02*
X11034467Y-16619936D01*
X11034467Y-16619936D02*
X11024944Y-16629460D01*
X11024944Y-16629460D02*
X11005896Y-16638984D01*
X11005896Y-16638984D02*
X10967801Y-16638984D01*
X10967801Y-16638984D02*
X10948753Y-16629460D01*
X11129705Y-16619936D02*
X11139229Y-16629460D01*
X11139229Y-16629460D02*
X11129705Y-16638984D01*
X11129705Y-16638984D02*
X11120182Y-16629460D01*
X11120182Y-16629460D02*
X11129705Y-16619936D01*
X11129705Y-16619936D02*
X11129705Y-16638984D01*
X11129705Y-16515174D02*
X11139229Y-16524698D01*
X11139229Y-16524698D02*
X11129705Y-16534222D01*
X11129705Y-16534222D02*
X11120182Y-16524698D01*
X11120182Y-16524698D02*
X11129705Y-16515174D01*
X11129705Y-16515174D02*
X11129705Y-16534222D01*
D12*
X9477500Y-16957500D02*
X9497500Y-16977500D01*
X9497500Y-16957500D02*
X9477500Y-16977500D01*
D11*
X9796372Y-16858984D02*
X9815420Y-16858984D01*
X9815420Y-16858984D02*
X9834467Y-16868508D01*
X9834467Y-16868508D02*
X9843991Y-16878031D01*
X9843991Y-16878031D02*
X9853515Y-16897079D01*
X9853515Y-16897079D02*
X9863039Y-16935174D01*
X9863039Y-16935174D02*
X9863039Y-16982793D01*
X9863039Y-16982793D02*
X9853515Y-17020889D01*
X9853515Y-17020889D02*
X9843991Y-17039936D01*
X9843991Y-17039936D02*
X9834467Y-17049460D01*
X9834467Y-17049460D02*
X9815420Y-17058984D01*
X9815420Y-17058984D02*
X9796372Y-17058984D01*
X9796372Y-17058984D02*
X9777324Y-17049460D01*
X9777324Y-17049460D02*
X9767801Y-17039936D01*
X9767801Y-17039936D02*
X9758277Y-17020889D01*
X9758277Y-17020889D02*
X9748753Y-16982793D01*
X9748753Y-16982793D02*
X9748753Y-16935174D01*
X9748753Y-16935174D02*
X9758277Y-16897079D01*
X9758277Y-16897079D02*
X9767801Y-16878031D01*
X9767801Y-16878031D02*
X9777324Y-16868508D01*
X9777324Y-16868508D02*
X9796372Y-16858984D01*
X9948753Y-17039936D02*
X9958277Y-17049460D01*
X9958277Y-17049460D02*
X9948753Y-17058984D01*
X9948753Y-17058984D02*
X9939229Y-17049460D01*
X9939229Y-17049460D02*
X9948753Y-17039936D01*
X9948753Y-17039936D02*
X9948753Y-17058984D01*
X10034467Y-16878031D02*
X10043991Y-16868508D01*
X10043991Y-16868508D02*
X10063039Y-16858984D01*
X10063039Y-16858984D02*
X10110658Y-16858984D01*
X10110658Y-16858984D02*
X10129705Y-16868508D01*
X10129705Y-16868508D02*
X10139229Y-16878031D01*
X10139229Y-16878031D02*
X10148753Y-16897079D01*
X10148753Y-16897079D02*
X10148753Y-16916127D01*
X10148753Y-16916127D02*
X10139229Y-16944698D01*
X10139229Y-16944698D02*
X10024944Y-17058984D01*
X10024944Y-17058984D02*
X10148753Y-17058984D01*
X10272563Y-16858984D02*
X10291610Y-16858984D01*
X10291610Y-16858984D02*
X10310658Y-16868508D01*
X10310658Y-16868508D02*
X10320182Y-16878031D01*
X10320182Y-16878031D02*
X10329705Y-16897079D01*
X10329705Y-16897079D02*
X10339229Y-16935174D01*
X10339229Y-16935174D02*
X10339229Y-16982793D01*
X10339229Y-16982793D02*
X10329705Y-17020889D01*
X10329705Y-17020889D02*
X10320182Y-17039936D01*
X10320182Y-17039936D02*
X10310658Y-17049460D01*
X10310658Y-17049460D02*
X10291610Y-17058984D01*
X10291610Y-17058984D02*
X10272563Y-17058984D01*
X10272563Y-17058984D02*
X10253515Y-17049460D01*
X10253515Y-17049460D02*
X10243991Y-17039936D01*
X10243991Y-17039936D02*
X10234467Y-17020889D01*
X10234467Y-17020889D02*
X10224944Y-16982793D01*
X10224944Y-16982793D02*
X10224944Y-16935174D01*
X10224944Y-16935174D02*
X10234467Y-16897079D01*
X10234467Y-16897079D02*
X10243991Y-16878031D01*
X10243991Y-16878031D02*
X10253515Y-16868508D01*
X10253515Y-16868508D02*
X10272563Y-16858984D01*
X10463039Y-16858984D02*
X10482086Y-16858984D01*
X10482086Y-16858984D02*
X10501134Y-16868508D01*
X10501134Y-16868508D02*
X10510658Y-16878031D01*
X10510658Y-16878031D02*
X10520182Y-16897079D01*
X10520182Y-16897079D02*
X10529705Y-16935174D01*
X10529705Y-16935174D02*
X10529705Y-16982793D01*
X10529705Y-16982793D02*
X10520182Y-17020889D01*
X10520182Y-17020889D02*
X10510658Y-17039936D01*
X10510658Y-17039936D02*
X10501134Y-17049460D01*
X10501134Y-17049460D02*
X10482086Y-17058984D01*
X10482086Y-17058984D02*
X10463039Y-17058984D01*
X10463039Y-17058984D02*
X10443991Y-17049460D01*
X10443991Y-17049460D02*
X10434467Y-17039936D01*
X10434467Y-17039936D02*
X10424944Y-17020889D01*
X10424944Y-17020889D02*
X10415420Y-16982793D01*
X10415420Y-16982793D02*
X10415420Y-16935174D01*
X10415420Y-16935174D02*
X10424944Y-16897079D01*
X10424944Y-16897079D02*
X10434467Y-16878031D01*
X10434467Y-16878031D02*
X10443991Y-16868508D01*
X10443991Y-16868508D02*
X10463039Y-16858984D01*
X10615420Y-17058984D02*
X10615420Y-16925650D01*
X10615420Y-16944698D02*
X10624944Y-16935174D01*
X10624944Y-16935174D02*
X10643991Y-16925650D01*
X10643991Y-16925650D02*
X10672563Y-16925650D01*
X10672563Y-16925650D02*
X10691610Y-16935174D01*
X10691610Y-16935174D02*
X10701134Y-16954222D01*
X10701134Y-16954222D02*
X10701134Y-17058984D01*
X10701134Y-16954222D02*
X10710658Y-16935174D01*
X10710658Y-16935174D02*
X10729705Y-16925650D01*
X10729705Y-16925650D02*
X10758277Y-16925650D01*
X10758277Y-16925650D02*
X10777325Y-16935174D01*
X10777325Y-16935174D02*
X10786848Y-16954222D01*
X10786848Y-16954222D02*
X10786848Y-17058984D01*
X10882086Y-17058984D02*
X10882086Y-16925650D01*
X10882086Y-16944698D02*
X10891610Y-16935174D01*
X10891610Y-16935174D02*
X10910658Y-16925650D01*
X10910658Y-16925650D02*
X10939229Y-16925650D01*
X10939229Y-16925650D02*
X10958277Y-16935174D01*
X10958277Y-16935174D02*
X10967801Y-16954222D01*
X10967801Y-16954222D02*
X10967801Y-17058984D01*
X10967801Y-16954222D02*
X10977325Y-16935174D01*
X10977325Y-16935174D02*
X10996372Y-16925650D01*
X10996372Y-16925650D02*
X11024944Y-16925650D01*
X11024944Y-16925650D02*
X11043991Y-16935174D01*
X11043991Y-16935174D02*
X11053515Y-16954222D01*
X11053515Y-16954222D02*
X11053515Y-17058984D01*
X11443991Y-16849460D02*
X11272563Y-17106603D01*
X11701134Y-16858984D02*
X11720182Y-16858984D01*
X11720182Y-16858984D02*
X11739229Y-16868508D01*
X11739229Y-16868508D02*
X11748753Y-16878031D01*
X11748753Y-16878031D02*
X11758277Y-16897079D01*
X11758277Y-16897079D02*
X11767801Y-16935174D01*
X11767801Y-16935174D02*
X11767801Y-16982793D01*
X11767801Y-16982793D02*
X11758277Y-17020889D01*
X11758277Y-17020889D02*
X11748753Y-17039936D01*
X11748753Y-17039936D02*
X11739229Y-17049460D01*
X11739229Y-17049460D02*
X11720182Y-17058984D01*
X11720182Y-17058984D02*
X11701134Y-17058984D01*
X11701134Y-17058984D02*
X11682086Y-17049460D01*
X11682086Y-17049460D02*
X11672563Y-17039936D01*
X11672563Y-17039936D02*
X11663039Y-17020889D01*
X11663039Y-17020889D02*
X11653515Y-16982793D01*
X11653515Y-16982793D02*
X11653515Y-16935174D01*
X11653515Y-16935174D02*
X11663039Y-16897079D01*
X11663039Y-16897079D02*
X11672563Y-16878031D01*
X11672563Y-16878031D02*
X11682086Y-16868508D01*
X11682086Y-16868508D02*
X11701134Y-16858984D01*
X11853515Y-17039936D02*
X11863039Y-17049460D01*
X11863039Y-17049460D02*
X11853515Y-17058984D01*
X11853515Y-17058984D02*
X11843991Y-17049460D01*
X11843991Y-17049460D02*
X11853515Y-17039936D01*
X11853515Y-17039936D02*
X11853515Y-17058984D01*
X11986848Y-16858984D02*
X12005896Y-16858984D01*
X12005896Y-16858984D02*
X12024944Y-16868508D01*
X12024944Y-16868508D02*
X12034467Y-16878031D01*
X12034467Y-16878031D02*
X12043991Y-16897079D01*
X12043991Y-16897079D02*
X12053515Y-16935174D01*
X12053515Y-16935174D02*
X12053515Y-16982793D01*
X12053515Y-16982793D02*
X12043991Y-17020889D01*
X12043991Y-17020889D02*
X12034467Y-17039936D01*
X12034467Y-17039936D02*
X12024944Y-17049460D01*
X12024944Y-17049460D02*
X12005896Y-17058984D01*
X12005896Y-17058984D02*
X11986848Y-17058984D01*
X11986848Y-17058984D02*
X11967801Y-17049460D01*
X11967801Y-17049460D02*
X11958277Y-17039936D01*
X11958277Y-17039936D02*
X11948753Y-17020889D01*
X11948753Y-17020889D02*
X11939229Y-16982793D01*
X11939229Y-16982793D02*
X11939229Y-16935174D01*
X11939229Y-16935174D02*
X11948753Y-16897079D01*
X11948753Y-16897079D02*
X11958277Y-16878031D01*
X11958277Y-16878031D02*
X11967801Y-16868508D01*
X11967801Y-16868508D02*
X11986848Y-16858984D01*
X12177325Y-16858984D02*
X12196372Y-16858984D01*
X12196372Y-16858984D02*
X12215420Y-16868508D01*
X12215420Y-16868508D02*
X12224944Y-16878031D01*
X12224944Y-16878031D02*
X12234467Y-16897079D01*
X12234467Y-16897079D02*
X12243991Y-16935174D01*
X12243991Y-16935174D02*
X12243991Y-16982793D01*
X12243991Y-16982793D02*
X12234467Y-17020889D01*
X12234467Y-17020889D02*
X12224944Y-17039936D01*
X12224944Y-17039936D02*
X12215420Y-17049460D01*
X12215420Y-17049460D02*
X12196372Y-17058984D01*
X12196372Y-17058984D02*
X12177325Y-17058984D01*
X12177325Y-17058984D02*
X12158277Y-17049460D01*
X12158277Y-17049460D02*
X12148753Y-17039936D01*
X12148753Y-17039936D02*
X12139229Y-17020889D01*
X12139229Y-17020889D02*
X12129706Y-16982793D01*
X12129706Y-16982793D02*
X12129706Y-16935174D01*
X12129706Y-16935174D02*
X12139229Y-16897079D01*
X12139229Y-16897079D02*
X12148753Y-16878031D01*
X12148753Y-16878031D02*
X12158277Y-16868508D01*
X12158277Y-16868508D02*
X12177325Y-16858984D01*
X12310658Y-16858984D02*
X12443991Y-16858984D01*
X12443991Y-16858984D02*
X12358277Y-17058984D01*
X12529706Y-17058984D02*
X12567801Y-17058984D01*
X12567801Y-17058984D02*
X12586848Y-17049460D01*
X12586848Y-17049460D02*
X12596372Y-17039936D01*
X12596372Y-17039936D02*
X12615420Y-17011365D01*
X12615420Y-17011365D02*
X12624944Y-16973270D01*
X12624944Y-16973270D02*
X12624944Y-16897079D01*
X12624944Y-16897079D02*
X12615420Y-16878031D01*
X12615420Y-16878031D02*
X12605896Y-16868508D01*
X12605896Y-16868508D02*
X12586848Y-16858984D01*
X12586848Y-16858984D02*
X12548753Y-16858984D01*
X12548753Y-16858984D02*
X12529706Y-16868508D01*
X12529706Y-16868508D02*
X12520182Y-16878031D01*
X12520182Y-16878031D02*
X12510658Y-16897079D01*
X12510658Y-16897079D02*
X12510658Y-16944698D01*
X12510658Y-16944698D02*
X12520182Y-16963746D01*
X12520182Y-16963746D02*
X12529706Y-16973270D01*
X12529706Y-16973270D02*
X12548753Y-16982793D01*
X12548753Y-16982793D02*
X12586848Y-16982793D01*
X12586848Y-16982793D02*
X12605896Y-16973270D01*
X12605896Y-16973270D02*
X12615420Y-16963746D01*
X12615420Y-16963746D02*
X12624944Y-16944698D01*
X12701134Y-16858984D02*
X12701134Y-16897079D01*
X12777325Y-16858984D02*
X12777325Y-16897079D01*
X13072563Y-17135174D02*
X13063039Y-17125650D01*
X13063039Y-17125650D02*
X13043991Y-17097079D01*
X13043991Y-17097079D02*
X13034468Y-17078031D01*
X13034468Y-17078031D02*
X13024944Y-17049460D01*
X13024944Y-17049460D02*
X13015420Y-17001841D01*
X13015420Y-17001841D02*
X13015420Y-16963746D01*
X13015420Y-16963746D02*
X13024944Y-16916127D01*
X13024944Y-16916127D02*
X13034468Y-16887555D01*
X13034468Y-16887555D02*
X13043991Y-16868508D01*
X13043991Y-16868508D02*
X13063039Y-16839936D01*
X13063039Y-16839936D02*
X13072563Y-16830412D01*
X13234468Y-16858984D02*
X13196372Y-16858984D01*
X13196372Y-16858984D02*
X13177325Y-16868508D01*
X13177325Y-16868508D02*
X13167801Y-16878031D01*
X13167801Y-16878031D02*
X13148753Y-16906603D01*
X13148753Y-16906603D02*
X13139229Y-16944698D01*
X13139229Y-16944698D02*
X13139229Y-17020889D01*
X13139229Y-17020889D02*
X13148753Y-17039936D01*
X13148753Y-17039936D02*
X13158277Y-17049460D01*
X13158277Y-17049460D02*
X13177325Y-17058984D01*
X13177325Y-17058984D02*
X13215420Y-17058984D01*
X13215420Y-17058984D02*
X13234468Y-17049460D01*
X13234468Y-17049460D02*
X13243991Y-17039936D01*
X13243991Y-17039936D02*
X13253515Y-17020889D01*
X13253515Y-17020889D02*
X13253515Y-16973270D01*
X13253515Y-16973270D02*
X13243991Y-16954222D01*
X13243991Y-16954222D02*
X13234468Y-16944698D01*
X13234468Y-16944698D02*
X13215420Y-16935174D01*
X13215420Y-16935174D02*
X13177325Y-16935174D01*
X13177325Y-16935174D02*
X13158277Y-16944698D01*
X13158277Y-16944698D02*
X13148753Y-16954222D01*
X13148753Y-16954222D02*
X13139229Y-16973270D01*
X13491610Y-17058984D02*
X13491610Y-16858984D01*
X13577325Y-17058984D02*
X13577325Y-16954222D01*
X13577325Y-16954222D02*
X13567801Y-16935174D01*
X13567801Y-16935174D02*
X13548753Y-16925650D01*
X13548753Y-16925650D02*
X13520182Y-16925650D01*
X13520182Y-16925650D02*
X13501134Y-16935174D01*
X13501134Y-16935174D02*
X13491610Y-16944698D01*
X13701134Y-17058984D02*
X13682087Y-17049460D01*
X13682087Y-17049460D02*
X13672563Y-17039936D01*
X13672563Y-17039936D02*
X13663039Y-17020889D01*
X13663039Y-17020889D02*
X13663039Y-16963746D01*
X13663039Y-16963746D02*
X13672563Y-16944698D01*
X13672563Y-16944698D02*
X13682087Y-16935174D01*
X13682087Y-16935174D02*
X13701134Y-16925650D01*
X13701134Y-16925650D02*
X13729706Y-16925650D01*
X13729706Y-16925650D02*
X13748753Y-16935174D01*
X13748753Y-16935174D02*
X13758277Y-16944698D01*
X13758277Y-16944698D02*
X13767801Y-16963746D01*
X13767801Y-16963746D02*
X13767801Y-17020889D01*
X13767801Y-17020889D02*
X13758277Y-17039936D01*
X13758277Y-17039936D02*
X13748753Y-17049460D01*
X13748753Y-17049460D02*
X13729706Y-17058984D01*
X13729706Y-17058984D02*
X13701134Y-17058984D01*
X13882087Y-17058984D02*
X13863039Y-17049460D01*
X13863039Y-17049460D02*
X13853515Y-17030412D01*
X13853515Y-17030412D02*
X13853515Y-16858984D01*
X14034468Y-17049460D02*
X14015420Y-17058984D01*
X14015420Y-17058984D02*
X13977325Y-17058984D01*
X13977325Y-17058984D02*
X13958277Y-17049460D01*
X13958277Y-17049460D02*
X13948753Y-17030412D01*
X13948753Y-17030412D02*
X13948753Y-16954222D01*
X13948753Y-16954222D02*
X13958277Y-16935174D01*
X13958277Y-16935174D02*
X13977325Y-16925650D01*
X13977325Y-16925650D02*
X14015420Y-16925650D01*
X14015420Y-16925650D02*
X14034468Y-16935174D01*
X14034468Y-16935174D02*
X14043991Y-16954222D01*
X14043991Y-16954222D02*
X14043991Y-16973270D01*
X14043991Y-16973270D02*
X13948753Y-16992317D01*
X14120182Y-17049460D02*
X14139230Y-17058984D01*
X14139230Y-17058984D02*
X14177325Y-17058984D01*
X14177325Y-17058984D02*
X14196372Y-17049460D01*
X14196372Y-17049460D02*
X14205896Y-17030412D01*
X14205896Y-17030412D02*
X14205896Y-17020889D01*
X14205896Y-17020889D02*
X14196372Y-17001841D01*
X14196372Y-17001841D02*
X14177325Y-16992317D01*
X14177325Y-16992317D02*
X14148753Y-16992317D01*
X14148753Y-16992317D02*
X14129706Y-16982793D01*
X14129706Y-16982793D02*
X14120182Y-16963746D01*
X14120182Y-16963746D02*
X14120182Y-16954222D01*
X14120182Y-16954222D02*
X14129706Y-16935174D01*
X14129706Y-16935174D02*
X14148753Y-16925650D01*
X14148753Y-16925650D02*
X14177325Y-16925650D01*
X14177325Y-16925650D02*
X14196372Y-16935174D01*
X14272563Y-17135174D02*
X14282087Y-17125650D01*
X14282087Y-17125650D02*
X14301134Y-17097079D01*
X14301134Y-17097079D02*
X14310658Y-17078031D01*
X14310658Y-17078031D02*
X14320182Y-17049460D01*
X14320182Y-17049460D02*
X14329706Y-17001841D01*
X14329706Y-17001841D02*
X14329706Y-16963746D01*
X14329706Y-16963746D02*
X14320182Y-16916127D01*
X14320182Y-16916127D02*
X14310658Y-16887555D01*
X14310658Y-16887555D02*
X14301134Y-16868508D01*
X14301134Y-16868508D02*
X14282087Y-16839936D01*
X14282087Y-16839936D02*
X14272563Y-16830412D01*
D12*
X9497500Y-17231500D02*
G75*
G02*
X9467500Y-17231500I-15000J0D01*
G01*
X9467500Y-17231500D02*
G75*
G02*
X9497500Y-17231500I15000J0D01*
G01*
D11*
X9796372Y-17122984D02*
X9815420Y-17122984D01*
X9815420Y-17122984D02*
X9834467Y-17132508D01*
X9834467Y-17132508D02*
X9843991Y-17142031D01*
X9843991Y-17142031D02*
X9853515Y-17161079D01*
X9853515Y-17161079D02*
X9863039Y-17199174D01*
X9863039Y-17199174D02*
X9863039Y-17246793D01*
X9863039Y-17246793D02*
X9853515Y-17284889D01*
X9853515Y-17284889D02*
X9843991Y-17303936D01*
X9843991Y-17303936D02*
X9834467Y-17313460D01*
X9834467Y-17313460D02*
X9815420Y-17322984D01*
X9815420Y-17322984D02*
X9796372Y-17322984D01*
X9796372Y-17322984D02*
X9777324Y-17313460D01*
X9777324Y-17313460D02*
X9767801Y-17303936D01*
X9767801Y-17303936D02*
X9758277Y-17284889D01*
X9758277Y-17284889D02*
X9748753Y-17246793D01*
X9748753Y-17246793D02*
X9748753Y-17199174D01*
X9748753Y-17199174D02*
X9758277Y-17161079D01*
X9758277Y-17161079D02*
X9767801Y-17142031D01*
X9767801Y-17142031D02*
X9777324Y-17132508D01*
X9777324Y-17132508D02*
X9796372Y-17122984D01*
X9948753Y-17303936D02*
X9958277Y-17313460D01*
X9958277Y-17313460D02*
X9948753Y-17322984D01*
X9948753Y-17322984D02*
X9939229Y-17313460D01*
X9939229Y-17313460D02*
X9948753Y-17303936D01*
X9948753Y-17303936D02*
X9948753Y-17322984D01*
X10024944Y-17122984D02*
X10148753Y-17122984D01*
X10148753Y-17122984D02*
X10082086Y-17199174D01*
X10082086Y-17199174D02*
X10110658Y-17199174D01*
X10110658Y-17199174D02*
X10129705Y-17208698D01*
X10129705Y-17208698D02*
X10139229Y-17218222D01*
X10139229Y-17218222D02*
X10148753Y-17237270D01*
X10148753Y-17237270D02*
X10148753Y-17284889D01*
X10148753Y-17284889D02*
X10139229Y-17303936D01*
X10139229Y-17303936D02*
X10129705Y-17313460D01*
X10129705Y-17313460D02*
X10110658Y-17322984D01*
X10110658Y-17322984D02*
X10053515Y-17322984D01*
X10053515Y-17322984D02*
X10034467Y-17313460D01*
X10034467Y-17313460D02*
X10024944Y-17303936D01*
X10272563Y-17122984D02*
X10291610Y-17122984D01*
X10291610Y-17122984D02*
X10310658Y-17132508D01*
X10310658Y-17132508D02*
X10320182Y-17142031D01*
X10320182Y-17142031D02*
X10329705Y-17161079D01*
X10329705Y-17161079D02*
X10339229Y-17199174D01*
X10339229Y-17199174D02*
X10339229Y-17246793D01*
X10339229Y-17246793D02*
X10329705Y-17284889D01*
X10329705Y-17284889D02*
X10320182Y-17303936D01*
X10320182Y-17303936D02*
X10310658Y-17313460D01*
X10310658Y-17313460D02*
X10291610Y-17322984D01*
X10291610Y-17322984D02*
X10272563Y-17322984D01*
X10272563Y-17322984D02*
X10253515Y-17313460D01*
X10253515Y-17313460D02*
X10243991Y-17303936D01*
X10243991Y-17303936D02*
X10234467Y-17284889D01*
X10234467Y-17284889D02*
X10224944Y-17246793D01*
X10224944Y-17246793D02*
X10224944Y-17199174D01*
X10224944Y-17199174D02*
X10234467Y-17161079D01*
X10234467Y-17161079D02*
X10243991Y-17142031D01*
X10243991Y-17142031D02*
X10253515Y-17132508D01*
X10253515Y-17132508D02*
X10272563Y-17122984D01*
X10463039Y-17122984D02*
X10482086Y-17122984D01*
X10482086Y-17122984D02*
X10501134Y-17132508D01*
X10501134Y-17132508D02*
X10510658Y-17142031D01*
X10510658Y-17142031D02*
X10520182Y-17161079D01*
X10520182Y-17161079D02*
X10529705Y-17199174D01*
X10529705Y-17199174D02*
X10529705Y-17246793D01*
X10529705Y-17246793D02*
X10520182Y-17284889D01*
X10520182Y-17284889D02*
X10510658Y-17303936D01*
X10510658Y-17303936D02*
X10501134Y-17313460D01*
X10501134Y-17313460D02*
X10482086Y-17322984D01*
X10482086Y-17322984D02*
X10463039Y-17322984D01*
X10463039Y-17322984D02*
X10443991Y-17313460D01*
X10443991Y-17313460D02*
X10434467Y-17303936D01*
X10434467Y-17303936D02*
X10424944Y-17284889D01*
X10424944Y-17284889D02*
X10415420Y-17246793D01*
X10415420Y-17246793D02*
X10415420Y-17199174D01*
X10415420Y-17199174D02*
X10424944Y-17161079D01*
X10424944Y-17161079D02*
X10434467Y-17142031D01*
X10434467Y-17142031D02*
X10443991Y-17132508D01*
X10443991Y-17132508D02*
X10463039Y-17122984D01*
X10615420Y-17322984D02*
X10615420Y-17189650D01*
X10615420Y-17208698D02*
X10624944Y-17199174D01*
X10624944Y-17199174D02*
X10643991Y-17189650D01*
X10643991Y-17189650D02*
X10672563Y-17189650D01*
X10672563Y-17189650D02*
X10691610Y-17199174D01*
X10691610Y-17199174D02*
X10701134Y-17218222D01*
X10701134Y-17218222D02*
X10701134Y-17322984D01*
X10701134Y-17218222D02*
X10710658Y-17199174D01*
X10710658Y-17199174D02*
X10729705Y-17189650D01*
X10729705Y-17189650D02*
X10758277Y-17189650D01*
X10758277Y-17189650D02*
X10777325Y-17199174D01*
X10777325Y-17199174D02*
X10786848Y-17218222D01*
X10786848Y-17218222D02*
X10786848Y-17322984D01*
X10882086Y-17322984D02*
X10882086Y-17189650D01*
X10882086Y-17208698D02*
X10891610Y-17199174D01*
X10891610Y-17199174D02*
X10910658Y-17189650D01*
X10910658Y-17189650D02*
X10939229Y-17189650D01*
X10939229Y-17189650D02*
X10958277Y-17199174D01*
X10958277Y-17199174D02*
X10967801Y-17218222D01*
X10967801Y-17218222D02*
X10967801Y-17322984D01*
X10967801Y-17218222D02*
X10977325Y-17199174D01*
X10977325Y-17199174D02*
X10996372Y-17189650D01*
X10996372Y-17189650D02*
X11024944Y-17189650D01*
X11024944Y-17189650D02*
X11043991Y-17199174D01*
X11043991Y-17199174D02*
X11053515Y-17218222D01*
X11053515Y-17218222D02*
X11053515Y-17322984D01*
X11443991Y-17113460D02*
X11272563Y-17370603D01*
X11701134Y-17122984D02*
X11720182Y-17122984D01*
X11720182Y-17122984D02*
X11739229Y-17132508D01*
X11739229Y-17132508D02*
X11748753Y-17142031D01*
X11748753Y-17142031D02*
X11758277Y-17161079D01*
X11758277Y-17161079D02*
X11767801Y-17199174D01*
X11767801Y-17199174D02*
X11767801Y-17246793D01*
X11767801Y-17246793D02*
X11758277Y-17284889D01*
X11758277Y-17284889D02*
X11748753Y-17303936D01*
X11748753Y-17303936D02*
X11739229Y-17313460D01*
X11739229Y-17313460D02*
X11720182Y-17322984D01*
X11720182Y-17322984D02*
X11701134Y-17322984D01*
X11701134Y-17322984D02*
X11682086Y-17313460D01*
X11682086Y-17313460D02*
X11672563Y-17303936D01*
X11672563Y-17303936D02*
X11663039Y-17284889D01*
X11663039Y-17284889D02*
X11653515Y-17246793D01*
X11653515Y-17246793D02*
X11653515Y-17199174D01*
X11653515Y-17199174D02*
X11663039Y-17161079D01*
X11663039Y-17161079D02*
X11672563Y-17142031D01*
X11672563Y-17142031D02*
X11682086Y-17132508D01*
X11682086Y-17132508D02*
X11701134Y-17122984D01*
X11853515Y-17303936D02*
X11863039Y-17313460D01*
X11863039Y-17313460D02*
X11853515Y-17322984D01*
X11853515Y-17322984D02*
X11843991Y-17313460D01*
X11843991Y-17313460D02*
X11853515Y-17303936D01*
X11853515Y-17303936D02*
X11853515Y-17322984D01*
X11986848Y-17122984D02*
X12005896Y-17122984D01*
X12005896Y-17122984D02*
X12024944Y-17132508D01*
X12024944Y-17132508D02*
X12034467Y-17142031D01*
X12034467Y-17142031D02*
X12043991Y-17161079D01*
X12043991Y-17161079D02*
X12053515Y-17199174D01*
X12053515Y-17199174D02*
X12053515Y-17246793D01*
X12053515Y-17246793D02*
X12043991Y-17284889D01*
X12043991Y-17284889D02*
X12034467Y-17303936D01*
X12034467Y-17303936D02*
X12024944Y-17313460D01*
X12024944Y-17313460D02*
X12005896Y-17322984D01*
X12005896Y-17322984D02*
X11986848Y-17322984D01*
X11986848Y-17322984D02*
X11967801Y-17313460D01*
X11967801Y-17313460D02*
X11958277Y-17303936D01*
X11958277Y-17303936D02*
X11948753Y-17284889D01*
X11948753Y-17284889D02*
X11939229Y-17246793D01*
X11939229Y-17246793D02*
X11939229Y-17199174D01*
X11939229Y-17199174D02*
X11948753Y-17161079D01*
X11948753Y-17161079D02*
X11958277Y-17142031D01*
X11958277Y-17142031D02*
X11967801Y-17132508D01*
X11967801Y-17132508D02*
X11986848Y-17122984D01*
X12243991Y-17322984D02*
X12129706Y-17322984D01*
X12186848Y-17322984D02*
X12186848Y-17122984D01*
X12186848Y-17122984D02*
X12167801Y-17151555D01*
X12167801Y-17151555D02*
X12148753Y-17170603D01*
X12148753Y-17170603D02*
X12129706Y-17180127D01*
X12434467Y-17322984D02*
X12320182Y-17322984D01*
X12377325Y-17322984D02*
X12377325Y-17122984D01*
X12377325Y-17122984D02*
X12358277Y-17151555D01*
X12358277Y-17151555D02*
X12339229Y-17170603D01*
X12339229Y-17170603D02*
X12320182Y-17180127D01*
X12548753Y-17208698D02*
X12529706Y-17199174D01*
X12529706Y-17199174D02*
X12520182Y-17189650D01*
X12520182Y-17189650D02*
X12510658Y-17170603D01*
X12510658Y-17170603D02*
X12510658Y-17161079D01*
X12510658Y-17161079D02*
X12520182Y-17142031D01*
X12520182Y-17142031D02*
X12529706Y-17132508D01*
X12529706Y-17132508D02*
X12548753Y-17122984D01*
X12548753Y-17122984D02*
X12586848Y-17122984D01*
X12586848Y-17122984D02*
X12605896Y-17132508D01*
X12605896Y-17132508D02*
X12615420Y-17142031D01*
X12615420Y-17142031D02*
X12624944Y-17161079D01*
X12624944Y-17161079D02*
X12624944Y-17170603D01*
X12624944Y-17170603D02*
X12615420Y-17189650D01*
X12615420Y-17189650D02*
X12605896Y-17199174D01*
X12605896Y-17199174D02*
X12586848Y-17208698D01*
X12586848Y-17208698D02*
X12548753Y-17208698D01*
X12548753Y-17208698D02*
X12529706Y-17218222D01*
X12529706Y-17218222D02*
X12520182Y-17227746D01*
X12520182Y-17227746D02*
X12510658Y-17246793D01*
X12510658Y-17246793D02*
X12510658Y-17284889D01*
X12510658Y-17284889D02*
X12520182Y-17303936D01*
X12520182Y-17303936D02*
X12529706Y-17313460D01*
X12529706Y-17313460D02*
X12548753Y-17322984D01*
X12548753Y-17322984D02*
X12586848Y-17322984D01*
X12586848Y-17322984D02*
X12605896Y-17313460D01*
X12605896Y-17313460D02*
X12615420Y-17303936D01*
X12615420Y-17303936D02*
X12624944Y-17284889D01*
X12624944Y-17284889D02*
X12624944Y-17246793D01*
X12624944Y-17246793D02*
X12615420Y-17227746D01*
X12615420Y-17227746D02*
X12605896Y-17218222D01*
X12605896Y-17218222D02*
X12586848Y-17208698D01*
X12701134Y-17122984D02*
X12701134Y-17161079D01*
X12777325Y-17122984D02*
X12777325Y-17161079D01*
X13072563Y-17399174D02*
X13063039Y-17389650D01*
X13063039Y-17389650D02*
X13043991Y-17361079D01*
X13043991Y-17361079D02*
X13034468Y-17342031D01*
X13034468Y-17342031D02*
X13024944Y-17313460D01*
X13024944Y-17313460D02*
X13015420Y-17265841D01*
X13015420Y-17265841D02*
X13015420Y-17227746D01*
X13015420Y-17227746D02*
X13024944Y-17180127D01*
X13024944Y-17180127D02*
X13034468Y-17151555D01*
X13034468Y-17151555D02*
X13043991Y-17132508D01*
X13043991Y-17132508D02*
X13063039Y-17103936D01*
X13063039Y-17103936D02*
X13072563Y-17094412D01*
X13129706Y-17122984D02*
X13253515Y-17122984D01*
X13253515Y-17122984D02*
X13186848Y-17199174D01*
X13186848Y-17199174D02*
X13215420Y-17199174D01*
X13215420Y-17199174D02*
X13234468Y-17208698D01*
X13234468Y-17208698D02*
X13243991Y-17218222D01*
X13243991Y-17218222D02*
X13253515Y-17237270D01*
X13253515Y-17237270D02*
X13253515Y-17284889D01*
X13253515Y-17284889D02*
X13243991Y-17303936D01*
X13243991Y-17303936D02*
X13234468Y-17313460D01*
X13234468Y-17313460D02*
X13215420Y-17322984D01*
X13215420Y-17322984D02*
X13158277Y-17322984D01*
X13158277Y-17322984D02*
X13139229Y-17313460D01*
X13139229Y-17313460D02*
X13129706Y-17303936D01*
X13377325Y-17122984D02*
X13396372Y-17122984D01*
X13396372Y-17122984D02*
X13415420Y-17132508D01*
X13415420Y-17132508D02*
X13424944Y-17142031D01*
X13424944Y-17142031D02*
X13434468Y-17161079D01*
X13434468Y-17161079D02*
X13443991Y-17199174D01*
X13443991Y-17199174D02*
X13443991Y-17246793D01*
X13443991Y-17246793D02*
X13434468Y-17284889D01*
X13434468Y-17284889D02*
X13424944Y-17303936D01*
X13424944Y-17303936D02*
X13415420Y-17313460D01*
X13415420Y-17313460D02*
X13396372Y-17322984D01*
X13396372Y-17322984D02*
X13377325Y-17322984D01*
X13377325Y-17322984D02*
X13358277Y-17313460D01*
X13358277Y-17313460D02*
X13348753Y-17303936D01*
X13348753Y-17303936D02*
X13339229Y-17284889D01*
X13339229Y-17284889D02*
X13329706Y-17246793D01*
X13329706Y-17246793D02*
X13329706Y-17199174D01*
X13329706Y-17199174D02*
X13339229Y-17161079D01*
X13339229Y-17161079D02*
X13348753Y-17142031D01*
X13348753Y-17142031D02*
X13358277Y-17132508D01*
X13358277Y-17132508D02*
X13377325Y-17122984D01*
X13615420Y-17122984D02*
X13577325Y-17122984D01*
X13577325Y-17122984D02*
X13558277Y-17132508D01*
X13558277Y-17132508D02*
X13548753Y-17142031D01*
X13548753Y-17142031D02*
X13529706Y-17170603D01*
X13529706Y-17170603D02*
X13520182Y-17208698D01*
X13520182Y-17208698D02*
X13520182Y-17284889D01*
X13520182Y-17284889D02*
X13529706Y-17303936D01*
X13529706Y-17303936D02*
X13539229Y-17313460D01*
X13539229Y-17313460D02*
X13558277Y-17322984D01*
X13558277Y-17322984D02*
X13596372Y-17322984D01*
X13596372Y-17322984D02*
X13615420Y-17313460D01*
X13615420Y-17313460D02*
X13624944Y-17303936D01*
X13624944Y-17303936D02*
X13634468Y-17284889D01*
X13634468Y-17284889D02*
X13634468Y-17237270D01*
X13634468Y-17237270D02*
X13624944Y-17218222D01*
X13624944Y-17218222D02*
X13615420Y-17208698D01*
X13615420Y-17208698D02*
X13596372Y-17199174D01*
X13596372Y-17199174D02*
X13558277Y-17199174D01*
X13558277Y-17199174D02*
X13539229Y-17208698D01*
X13539229Y-17208698D02*
X13529706Y-17218222D01*
X13529706Y-17218222D02*
X13520182Y-17237270D01*
X13872563Y-17322984D02*
X13872563Y-17122984D01*
X13958277Y-17322984D02*
X13958277Y-17218222D01*
X13958277Y-17218222D02*
X13948753Y-17199174D01*
X13948753Y-17199174D02*
X13929706Y-17189650D01*
X13929706Y-17189650D02*
X13901134Y-17189650D01*
X13901134Y-17189650D02*
X13882087Y-17199174D01*
X13882087Y-17199174D02*
X13872563Y-17208698D01*
X14082087Y-17322984D02*
X14063039Y-17313460D01*
X14063039Y-17313460D02*
X14053515Y-17303936D01*
X14053515Y-17303936D02*
X14043991Y-17284889D01*
X14043991Y-17284889D02*
X14043991Y-17227746D01*
X14043991Y-17227746D02*
X14053515Y-17208698D01*
X14053515Y-17208698D02*
X14063039Y-17199174D01*
X14063039Y-17199174D02*
X14082087Y-17189650D01*
X14082087Y-17189650D02*
X14110658Y-17189650D01*
X14110658Y-17189650D02*
X14129706Y-17199174D01*
X14129706Y-17199174D02*
X14139230Y-17208698D01*
X14139230Y-17208698D02*
X14148753Y-17227746D01*
X14148753Y-17227746D02*
X14148753Y-17284889D01*
X14148753Y-17284889D02*
X14139230Y-17303936D01*
X14139230Y-17303936D02*
X14129706Y-17313460D01*
X14129706Y-17313460D02*
X14110658Y-17322984D01*
X14110658Y-17322984D02*
X14082087Y-17322984D01*
X14263039Y-17322984D02*
X14243991Y-17313460D01*
X14243991Y-17313460D02*
X14234468Y-17294412D01*
X14234468Y-17294412D02*
X14234468Y-17122984D01*
X14415420Y-17313460D02*
X14396372Y-17322984D01*
X14396372Y-17322984D02*
X14358277Y-17322984D01*
X14358277Y-17322984D02*
X14339230Y-17313460D01*
X14339230Y-17313460D02*
X14329706Y-17294412D01*
X14329706Y-17294412D02*
X14329706Y-17218222D01*
X14329706Y-17218222D02*
X14339230Y-17199174D01*
X14339230Y-17199174D02*
X14358277Y-17189650D01*
X14358277Y-17189650D02*
X14396372Y-17189650D01*
X14396372Y-17189650D02*
X14415420Y-17199174D01*
X14415420Y-17199174D02*
X14424944Y-17218222D01*
X14424944Y-17218222D02*
X14424944Y-17237270D01*
X14424944Y-17237270D02*
X14329706Y-17256317D01*
X14501134Y-17313460D02*
X14520182Y-17322984D01*
X14520182Y-17322984D02*
X14558277Y-17322984D01*
X14558277Y-17322984D02*
X14577325Y-17313460D01*
X14577325Y-17313460D02*
X14586849Y-17294412D01*
X14586849Y-17294412D02*
X14586849Y-17284889D01*
X14586849Y-17284889D02*
X14577325Y-17265841D01*
X14577325Y-17265841D02*
X14558277Y-17256317D01*
X14558277Y-17256317D02*
X14529706Y-17256317D01*
X14529706Y-17256317D02*
X14510658Y-17246793D01*
X14510658Y-17246793D02*
X14501134Y-17227746D01*
X14501134Y-17227746D02*
X14501134Y-17218222D01*
X14501134Y-17218222D02*
X14510658Y-17199174D01*
X14510658Y-17199174D02*
X14529706Y-17189650D01*
X14529706Y-17189650D02*
X14558277Y-17189650D01*
X14558277Y-17189650D02*
X14577325Y-17199174D01*
X14653515Y-17399174D02*
X14663039Y-17389650D01*
X14663039Y-17389650D02*
X14682087Y-17361079D01*
X14682087Y-17361079D02*
X14691611Y-17342031D01*
X14691611Y-17342031D02*
X14701134Y-17313460D01*
X14701134Y-17313460D02*
X14710658Y-17265841D01*
X14710658Y-17265841D02*
X14710658Y-17227746D01*
X14710658Y-17227746D02*
X14701134Y-17180127D01*
X14701134Y-17180127D02*
X14691611Y-17151555D01*
X14691611Y-17151555D02*
X14682087Y-17132508D01*
X14682087Y-17132508D02*
X14663039Y-17103936D01*
X14663039Y-17103936D02*
X14653515Y-17094412D01*
D12*
X9457500Y-17455500D02*
X9457500Y-17535500D01*
X9417500Y-17495500D02*
X9497500Y-17495500D01*
D11*
X9796372Y-17386984D02*
X9815420Y-17386984D01*
X9815420Y-17386984D02*
X9834467Y-17396508D01*
X9834467Y-17396508D02*
X9843991Y-17406031D01*
X9843991Y-17406031D02*
X9853515Y-17425079D01*
X9853515Y-17425079D02*
X9863039Y-17463174D01*
X9863039Y-17463174D02*
X9863039Y-17510793D01*
X9863039Y-17510793D02*
X9853515Y-17548889D01*
X9853515Y-17548889D02*
X9843991Y-17567936D01*
X9843991Y-17567936D02*
X9834467Y-17577460D01*
X9834467Y-17577460D02*
X9815420Y-17586984D01*
X9815420Y-17586984D02*
X9796372Y-17586984D01*
X9796372Y-17586984D02*
X9777324Y-17577460D01*
X9777324Y-17577460D02*
X9767801Y-17567936D01*
X9767801Y-17567936D02*
X9758277Y-17548889D01*
X9758277Y-17548889D02*
X9748753Y-17510793D01*
X9748753Y-17510793D02*
X9748753Y-17463174D01*
X9748753Y-17463174D02*
X9758277Y-17425079D01*
X9758277Y-17425079D02*
X9767801Y-17406031D01*
X9767801Y-17406031D02*
X9777324Y-17396508D01*
X9777324Y-17396508D02*
X9796372Y-17386984D01*
X9948753Y-17567936D02*
X9958277Y-17577460D01*
X9958277Y-17577460D02*
X9948753Y-17586984D01*
X9948753Y-17586984D02*
X9939229Y-17577460D01*
X9939229Y-17577460D02*
X9948753Y-17567936D01*
X9948753Y-17567936D02*
X9948753Y-17586984D01*
X10072563Y-17472698D02*
X10053515Y-17463174D01*
X10053515Y-17463174D02*
X10043991Y-17453650D01*
X10043991Y-17453650D02*
X10034467Y-17434603D01*
X10034467Y-17434603D02*
X10034467Y-17425079D01*
X10034467Y-17425079D02*
X10043991Y-17406031D01*
X10043991Y-17406031D02*
X10053515Y-17396508D01*
X10053515Y-17396508D02*
X10072563Y-17386984D01*
X10072563Y-17386984D02*
X10110658Y-17386984D01*
X10110658Y-17386984D02*
X10129705Y-17396508D01*
X10129705Y-17396508D02*
X10139229Y-17406031D01*
X10139229Y-17406031D02*
X10148753Y-17425079D01*
X10148753Y-17425079D02*
X10148753Y-17434603D01*
X10148753Y-17434603D02*
X10139229Y-17453650D01*
X10139229Y-17453650D02*
X10129705Y-17463174D01*
X10129705Y-17463174D02*
X10110658Y-17472698D01*
X10110658Y-17472698D02*
X10072563Y-17472698D01*
X10072563Y-17472698D02*
X10053515Y-17482222D01*
X10053515Y-17482222D02*
X10043991Y-17491746D01*
X10043991Y-17491746D02*
X10034467Y-17510793D01*
X10034467Y-17510793D02*
X10034467Y-17548889D01*
X10034467Y-17548889D02*
X10043991Y-17567936D01*
X10043991Y-17567936D02*
X10053515Y-17577460D01*
X10053515Y-17577460D02*
X10072563Y-17586984D01*
X10072563Y-17586984D02*
X10110658Y-17586984D01*
X10110658Y-17586984D02*
X10129705Y-17577460D01*
X10129705Y-17577460D02*
X10139229Y-17567936D01*
X10139229Y-17567936D02*
X10148753Y-17548889D01*
X10148753Y-17548889D02*
X10148753Y-17510793D01*
X10148753Y-17510793D02*
X10139229Y-17491746D01*
X10139229Y-17491746D02*
X10129705Y-17482222D01*
X10129705Y-17482222D02*
X10110658Y-17472698D01*
X10272563Y-17386984D02*
X10291610Y-17386984D01*
X10291610Y-17386984D02*
X10310658Y-17396508D01*
X10310658Y-17396508D02*
X10320182Y-17406031D01*
X10320182Y-17406031D02*
X10329705Y-17425079D01*
X10329705Y-17425079D02*
X10339229Y-17463174D01*
X10339229Y-17463174D02*
X10339229Y-17510793D01*
X10339229Y-17510793D02*
X10329705Y-17548889D01*
X10329705Y-17548889D02*
X10320182Y-17567936D01*
X10320182Y-17567936D02*
X10310658Y-17577460D01*
X10310658Y-17577460D02*
X10291610Y-17586984D01*
X10291610Y-17586984D02*
X10272563Y-17586984D01*
X10272563Y-17586984D02*
X10253515Y-17577460D01*
X10253515Y-17577460D02*
X10243991Y-17567936D01*
X10243991Y-17567936D02*
X10234467Y-17548889D01*
X10234467Y-17548889D02*
X10224944Y-17510793D01*
X10224944Y-17510793D02*
X10224944Y-17463174D01*
X10224944Y-17463174D02*
X10234467Y-17425079D01*
X10234467Y-17425079D02*
X10243991Y-17406031D01*
X10243991Y-17406031D02*
X10253515Y-17396508D01*
X10253515Y-17396508D02*
X10272563Y-17386984D01*
X10463039Y-17386984D02*
X10482086Y-17386984D01*
X10482086Y-17386984D02*
X10501134Y-17396508D01*
X10501134Y-17396508D02*
X10510658Y-17406031D01*
X10510658Y-17406031D02*
X10520182Y-17425079D01*
X10520182Y-17425079D02*
X10529705Y-17463174D01*
X10529705Y-17463174D02*
X10529705Y-17510793D01*
X10529705Y-17510793D02*
X10520182Y-17548889D01*
X10520182Y-17548889D02*
X10510658Y-17567936D01*
X10510658Y-17567936D02*
X10501134Y-17577460D01*
X10501134Y-17577460D02*
X10482086Y-17586984D01*
X10482086Y-17586984D02*
X10463039Y-17586984D01*
X10463039Y-17586984D02*
X10443991Y-17577460D01*
X10443991Y-17577460D02*
X10434467Y-17567936D01*
X10434467Y-17567936D02*
X10424944Y-17548889D01*
X10424944Y-17548889D02*
X10415420Y-17510793D01*
X10415420Y-17510793D02*
X10415420Y-17463174D01*
X10415420Y-17463174D02*
X10424944Y-17425079D01*
X10424944Y-17425079D02*
X10434467Y-17406031D01*
X10434467Y-17406031D02*
X10443991Y-17396508D01*
X10443991Y-17396508D02*
X10463039Y-17386984D01*
X10615420Y-17586984D02*
X10615420Y-17453650D01*
X10615420Y-17472698D02*
X10624944Y-17463174D01*
X10624944Y-17463174D02*
X10643991Y-17453650D01*
X10643991Y-17453650D02*
X10672563Y-17453650D01*
X10672563Y-17453650D02*
X10691610Y-17463174D01*
X10691610Y-17463174D02*
X10701134Y-17482222D01*
X10701134Y-17482222D02*
X10701134Y-17586984D01*
X10701134Y-17482222D02*
X10710658Y-17463174D01*
X10710658Y-17463174D02*
X10729705Y-17453650D01*
X10729705Y-17453650D02*
X10758277Y-17453650D01*
X10758277Y-17453650D02*
X10777325Y-17463174D01*
X10777325Y-17463174D02*
X10786848Y-17482222D01*
X10786848Y-17482222D02*
X10786848Y-17586984D01*
X10882086Y-17586984D02*
X10882086Y-17453650D01*
X10882086Y-17472698D02*
X10891610Y-17463174D01*
X10891610Y-17463174D02*
X10910658Y-17453650D01*
X10910658Y-17453650D02*
X10939229Y-17453650D01*
X10939229Y-17453650D02*
X10958277Y-17463174D01*
X10958277Y-17463174D02*
X10967801Y-17482222D01*
X10967801Y-17482222D02*
X10967801Y-17586984D01*
X10967801Y-17482222D02*
X10977325Y-17463174D01*
X10977325Y-17463174D02*
X10996372Y-17453650D01*
X10996372Y-17453650D02*
X11024944Y-17453650D01*
X11024944Y-17453650D02*
X11043991Y-17463174D01*
X11043991Y-17463174D02*
X11053515Y-17482222D01*
X11053515Y-17482222D02*
X11053515Y-17586984D01*
X11443991Y-17377460D02*
X11272563Y-17634603D01*
X11701134Y-17386984D02*
X11720182Y-17386984D01*
X11720182Y-17386984D02*
X11739229Y-17396508D01*
X11739229Y-17396508D02*
X11748753Y-17406031D01*
X11748753Y-17406031D02*
X11758277Y-17425079D01*
X11758277Y-17425079D02*
X11767801Y-17463174D01*
X11767801Y-17463174D02*
X11767801Y-17510793D01*
X11767801Y-17510793D02*
X11758277Y-17548889D01*
X11758277Y-17548889D02*
X11748753Y-17567936D01*
X11748753Y-17567936D02*
X11739229Y-17577460D01*
X11739229Y-17577460D02*
X11720182Y-17586984D01*
X11720182Y-17586984D02*
X11701134Y-17586984D01*
X11701134Y-17586984D02*
X11682086Y-17577460D01*
X11682086Y-17577460D02*
X11672563Y-17567936D01*
X11672563Y-17567936D02*
X11663039Y-17548889D01*
X11663039Y-17548889D02*
X11653515Y-17510793D01*
X11653515Y-17510793D02*
X11653515Y-17463174D01*
X11653515Y-17463174D02*
X11663039Y-17425079D01*
X11663039Y-17425079D02*
X11672563Y-17406031D01*
X11672563Y-17406031D02*
X11682086Y-17396508D01*
X11682086Y-17396508D02*
X11701134Y-17386984D01*
X11853515Y-17567936D02*
X11863039Y-17577460D01*
X11863039Y-17577460D02*
X11853515Y-17586984D01*
X11853515Y-17586984D02*
X11843991Y-17577460D01*
X11843991Y-17577460D02*
X11853515Y-17567936D01*
X11853515Y-17567936D02*
X11853515Y-17586984D01*
X11986848Y-17386984D02*
X12005896Y-17386984D01*
X12005896Y-17386984D02*
X12024944Y-17396508D01*
X12024944Y-17396508D02*
X12034467Y-17406031D01*
X12034467Y-17406031D02*
X12043991Y-17425079D01*
X12043991Y-17425079D02*
X12053515Y-17463174D01*
X12053515Y-17463174D02*
X12053515Y-17510793D01*
X12053515Y-17510793D02*
X12043991Y-17548889D01*
X12043991Y-17548889D02*
X12034467Y-17567936D01*
X12034467Y-17567936D02*
X12024944Y-17577460D01*
X12024944Y-17577460D02*
X12005896Y-17586984D01*
X12005896Y-17586984D02*
X11986848Y-17586984D01*
X11986848Y-17586984D02*
X11967801Y-17577460D01*
X11967801Y-17577460D02*
X11958277Y-17567936D01*
X11958277Y-17567936D02*
X11948753Y-17548889D01*
X11948753Y-17548889D02*
X11939229Y-17510793D01*
X11939229Y-17510793D02*
X11939229Y-17463174D01*
X11939229Y-17463174D02*
X11948753Y-17425079D01*
X11948753Y-17425079D02*
X11958277Y-17406031D01*
X11958277Y-17406031D02*
X11967801Y-17396508D01*
X11967801Y-17396508D02*
X11986848Y-17386984D01*
X12120182Y-17386984D02*
X12243991Y-17386984D01*
X12243991Y-17386984D02*
X12177325Y-17463174D01*
X12177325Y-17463174D02*
X12205896Y-17463174D01*
X12205896Y-17463174D02*
X12224944Y-17472698D01*
X12224944Y-17472698D02*
X12234467Y-17482222D01*
X12234467Y-17482222D02*
X12243991Y-17501270D01*
X12243991Y-17501270D02*
X12243991Y-17548889D01*
X12243991Y-17548889D02*
X12234467Y-17567936D01*
X12234467Y-17567936D02*
X12224944Y-17577460D01*
X12224944Y-17577460D02*
X12205896Y-17586984D01*
X12205896Y-17586984D02*
X12148753Y-17586984D01*
X12148753Y-17586984D02*
X12129706Y-17577460D01*
X12129706Y-17577460D02*
X12120182Y-17567936D01*
X12434467Y-17586984D02*
X12320182Y-17586984D01*
X12377325Y-17586984D02*
X12377325Y-17386984D01*
X12377325Y-17386984D02*
X12358277Y-17415555D01*
X12358277Y-17415555D02*
X12339229Y-17434603D01*
X12339229Y-17434603D02*
X12320182Y-17444127D01*
X12615420Y-17386984D02*
X12520182Y-17386984D01*
X12520182Y-17386984D02*
X12510658Y-17482222D01*
X12510658Y-17482222D02*
X12520182Y-17472698D01*
X12520182Y-17472698D02*
X12539229Y-17463174D01*
X12539229Y-17463174D02*
X12586848Y-17463174D01*
X12586848Y-17463174D02*
X12605896Y-17472698D01*
X12605896Y-17472698D02*
X12615420Y-17482222D01*
X12615420Y-17482222D02*
X12624944Y-17501270D01*
X12624944Y-17501270D02*
X12624944Y-17548889D01*
X12624944Y-17548889D02*
X12615420Y-17567936D01*
X12615420Y-17567936D02*
X12605896Y-17577460D01*
X12605896Y-17577460D02*
X12586848Y-17586984D01*
X12586848Y-17586984D02*
X12539229Y-17586984D01*
X12539229Y-17586984D02*
X12520182Y-17577460D01*
X12520182Y-17577460D02*
X12510658Y-17567936D01*
X12701134Y-17386984D02*
X12701134Y-17425079D01*
X12777325Y-17386984D02*
X12777325Y-17425079D01*
X13072563Y-17663174D02*
X13063039Y-17653650D01*
X13063039Y-17653650D02*
X13043991Y-17625079D01*
X13043991Y-17625079D02*
X13034468Y-17606031D01*
X13034468Y-17606031D02*
X13024944Y-17577460D01*
X13024944Y-17577460D02*
X13015420Y-17529841D01*
X13015420Y-17529841D02*
X13015420Y-17491746D01*
X13015420Y-17491746D02*
X13024944Y-17444127D01*
X13024944Y-17444127D02*
X13034468Y-17415555D01*
X13034468Y-17415555D02*
X13043991Y-17396508D01*
X13043991Y-17396508D02*
X13063039Y-17367936D01*
X13063039Y-17367936D02*
X13072563Y-17358412D01*
X13234468Y-17386984D02*
X13196372Y-17386984D01*
X13196372Y-17386984D02*
X13177325Y-17396508D01*
X13177325Y-17396508D02*
X13167801Y-17406031D01*
X13167801Y-17406031D02*
X13148753Y-17434603D01*
X13148753Y-17434603D02*
X13139229Y-17472698D01*
X13139229Y-17472698D02*
X13139229Y-17548889D01*
X13139229Y-17548889D02*
X13148753Y-17567936D01*
X13148753Y-17567936D02*
X13158277Y-17577460D01*
X13158277Y-17577460D02*
X13177325Y-17586984D01*
X13177325Y-17586984D02*
X13215420Y-17586984D01*
X13215420Y-17586984D02*
X13234468Y-17577460D01*
X13234468Y-17577460D02*
X13243991Y-17567936D01*
X13243991Y-17567936D02*
X13253515Y-17548889D01*
X13253515Y-17548889D02*
X13253515Y-17501270D01*
X13253515Y-17501270D02*
X13243991Y-17482222D01*
X13243991Y-17482222D02*
X13234468Y-17472698D01*
X13234468Y-17472698D02*
X13215420Y-17463174D01*
X13215420Y-17463174D02*
X13177325Y-17463174D01*
X13177325Y-17463174D02*
X13158277Y-17472698D01*
X13158277Y-17472698D02*
X13148753Y-17482222D01*
X13148753Y-17482222D02*
X13139229Y-17501270D01*
X13491610Y-17586984D02*
X13491610Y-17386984D01*
X13577325Y-17586984D02*
X13577325Y-17482222D01*
X13577325Y-17482222D02*
X13567801Y-17463174D01*
X13567801Y-17463174D02*
X13548753Y-17453650D01*
X13548753Y-17453650D02*
X13520182Y-17453650D01*
X13520182Y-17453650D02*
X13501134Y-17463174D01*
X13501134Y-17463174D02*
X13491610Y-17472698D01*
X13701134Y-17586984D02*
X13682087Y-17577460D01*
X13682087Y-17577460D02*
X13672563Y-17567936D01*
X13672563Y-17567936D02*
X13663039Y-17548889D01*
X13663039Y-17548889D02*
X13663039Y-17491746D01*
X13663039Y-17491746D02*
X13672563Y-17472698D01*
X13672563Y-17472698D02*
X13682087Y-17463174D01*
X13682087Y-17463174D02*
X13701134Y-17453650D01*
X13701134Y-17453650D02*
X13729706Y-17453650D01*
X13729706Y-17453650D02*
X13748753Y-17463174D01*
X13748753Y-17463174D02*
X13758277Y-17472698D01*
X13758277Y-17472698D02*
X13767801Y-17491746D01*
X13767801Y-17491746D02*
X13767801Y-17548889D01*
X13767801Y-17548889D02*
X13758277Y-17567936D01*
X13758277Y-17567936D02*
X13748753Y-17577460D01*
X13748753Y-17577460D02*
X13729706Y-17586984D01*
X13729706Y-17586984D02*
X13701134Y-17586984D01*
X13882087Y-17586984D02*
X13863039Y-17577460D01*
X13863039Y-17577460D02*
X13853515Y-17558412D01*
X13853515Y-17558412D02*
X13853515Y-17386984D01*
X14034468Y-17577460D02*
X14015420Y-17586984D01*
X14015420Y-17586984D02*
X13977325Y-17586984D01*
X13977325Y-17586984D02*
X13958277Y-17577460D01*
X13958277Y-17577460D02*
X13948753Y-17558412D01*
X13948753Y-17558412D02*
X13948753Y-17482222D01*
X13948753Y-17482222D02*
X13958277Y-17463174D01*
X13958277Y-17463174D02*
X13977325Y-17453650D01*
X13977325Y-17453650D02*
X14015420Y-17453650D01*
X14015420Y-17453650D02*
X14034468Y-17463174D01*
X14034468Y-17463174D02*
X14043991Y-17482222D01*
X14043991Y-17482222D02*
X14043991Y-17501270D01*
X14043991Y-17501270D02*
X13948753Y-17520317D01*
X14120182Y-17577460D02*
X14139230Y-17586984D01*
X14139230Y-17586984D02*
X14177325Y-17586984D01*
X14177325Y-17586984D02*
X14196372Y-17577460D01*
X14196372Y-17577460D02*
X14205896Y-17558412D01*
X14205896Y-17558412D02*
X14205896Y-17548889D01*
X14205896Y-17548889D02*
X14196372Y-17529841D01*
X14196372Y-17529841D02*
X14177325Y-17520317D01*
X14177325Y-17520317D02*
X14148753Y-17520317D01*
X14148753Y-17520317D02*
X14129706Y-17510793D01*
X14129706Y-17510793D02*
X14120182Y-17491746D01*
X14120182Y-17491746D02*
X14120182Y-17482222D01*
X14120182Y-17482222D02*
X14129706Y-17463174D01*
X14129706Y-17463174D02*
X14148753Y-17453650D01*
X14148753Y-17453650D02*
X14177325Y-17453650D01*
X14177325Y-17453650D02*
X14196372Y-17463174D01*
X14272563Y-17663174D02*
X14282087Y-17653650D01*
X14282087Y-17653650D02*
X14301134Y-17625079D01*
X14301134Y-17625079D02*
X14310658Y-17606031D01*
X14310658Y-17606031D02*
X14320182Y-17577460D01*
X14320182Y-17577460D02*
X14329706Y-17529841D01*
X14329706Y-17529841D02*
X14329706Y-17491746D01*
X14329706Y-17491746D02*
X14320182Y-17444127D01*
X14320182Y-17444127D02*
X14310658Y-17415555D01*
X14310658Y-17415555D02*
X14301134Y-17396508D01*
X14301134Y-17396508D02*
X14282087Y-17367936D01*
X14282087Y-17367936D02*
X14272563Y-17358412D01*
D12*
X9484467Y-17790967D02*
X9484467Y-17728033D01*
X9421533Y-17728033D01*
X9421533Y-17790967D01*
X9484467Y-17790967D01*
D11*
X9796372Y-17650984D02*
X9815420Y-17650984D01*
X9815420Y-17650984D02*
X9834467Y-17660508D01*
X9834467Y-17660508D02*
X9843991Y-17670031D01*
X9843991Y-17670031D02*
X9853515Y-17689079D01*
X9853515Y-17689079D02*
X9863039Y-17727174D01*
X9863039Y-17727174D02*
X9863039Y-17774793D01*
X9863039Y-17774793D02*
X9853515Y-17812889D01*
X9853515Y-17812889D02*
X9843991Y-17831936D01*
X9843991Y-17831936D02*
X9834467Y-17841460D01*
X9834467Y-17841460D02*
X9815420Y-17850984D01*
X9815420Y-17850984D02*
X9796372Y-17850984D01*
X9796372Y-17850984D02*
X9777324Y-17841460D01*
X9777324Y-17841460D02*
X9767801Y-17831936D01*
X9767801Y-17831936D02*
X9758277Y-17812889D01*
X9758277Y-17812889D02*
X9748753Y-17774793D01*
X9748753Y-17774793D02*
X9748753Y-17727174D01*
X9748753Y-17727174D02*
X9758277Y-17689079D01*
X9758277Y-17689079D02*
X9767801Y-17670031D01*
X9767801Y-17670031D02*
X9777324Y-17660508D01*
X9777324Y-17660508D02*
X9796372Y-17650984D01*
X9948753Y-17831936D02*
X9958277Y-17841460D01*
X9958277Y-17841460D02*
X9948753Y-17850984D01*
X9948753Y-17850984D02*
X9939229Y-17841460D01*
X9939229Y-17841460D02*
X9948753Y-17831936D01*
X9948753Y-17831936D02*
X9948753Y-17850984D01*
X10072563Y-17736698D02*
X10053515Y-17727174D01*
X10053515Y-17727174D02*
X10043991Y-17717650D01*
X10043991Y-17717650D02*
X10034467Y-17698603D01*
X10034467Y-17698603D02*
X10034467Y-17689079D01*
X10034467Y-17689079D02*
X10043991Y-17670031D01*
X10043991Y-17670031D02*
X10053515Y-17660508D01*
X10053515Y-17660508D02*
X10072563Y-17650984D01*
X10072563Y-17650984D02*
X10110658Y-17650984D01*
X10110658Y-17650984D02*
X10129705Y-17660508D01*
X10129705Y-17660508D02*
X10139229Y-17670031D01*
X10139229Y-17670031D02*
X10148753Y-17689079D01*
X10148753Y-17689079D02*
X10148753Y-17698603D01*
X10148753Y-17698603D02*
X10139229Y-17717650D01*
X10139229Y-17717650D02*
X10129705Y-17727174D01*
X10129705Y-17727174D02*
X10110658Y-17736698D01*
X10110658Y-17736698D02*
X10072563Y-17736698D01*
X10072563Y-17736698D02*
X10053515Y-17746222D01*
X10053515Y-17746222D02*
X10043991Y-17755746D01*
X10043991Y-17755746D02*
X10034467Y-17774793D01*
X10034467Y-17774793D02*
X10034467Y-17812889D01*
X10034467Y-17812889D02*
X10043991Y-17831936D01*
X10043991Y-17831936D02*
X10053515Y-17841460D01*
X10053515Y-17841460D02*
X10072563Y-17850984D01*
X10072563Y-17850984D02*
X10110658Y-17850984D01*
X10110658Y-17850984D02*
X10129705Y-17841460D01*
X10129705Y-17841460D02*
X10139229Y-17831936D01*
X10139229Y-17831936D02*
X10148753Y-17812889D01*
X10148753Y-17812889D02*
X10148753Y-17774793D01*
X10148753Y-17774793D02*
X10139229Y-17755746D01*
X10139229Y-17755746D02*
X10129705Y-17746222D01*
X10129705Y-17746222D02*
X10110658Y-17736698D01*
X10243991Y-17850984D02*
X10282086Y-17850984D01*
X10282086Y-17850984D02*
X10301134Y-17841460D01*
X10301134Y-17841460D02*
X10310658Y-17831936D01*
X10310658Y-17831936D02*
X10329705Y-17803365D01*
X10329705Y-17803365D02*
X10339229Y-17765270D01*
X10339229Y-17765270D02*
X10339229Y-17689079D01*
X10339229Y-17689079D02*
X10329705Y-17670031D01*
X10329705Y-17670031D02*
X10320182Y-17660508D01*
X10320182Y-17660508D02*
X10301134Y-17650984D01*
X10301134Y-17650984D02*
X10263039Y-17650984D01*
X10263039Y-17650984D02*
X10243991Y-17660508D01*
X10243991Y-17660508D02*
X10234467Y-17670031D01*
X10234467Y-17670031D02*
X10224944Y-17689079D01*
X10224944Y-17689079D02*
X10224944Y-17736698D01*
X10224944Y-17736698D02*
X10234467Y-17755746D01*
X10234467Y-17755746D02*
X10243991Y-17765270D01*
X10243991Y-17765270D02*
X10263039Y-17774793D01*
X10263039Y-17774793D02*
X10301134Y-17774793D01*
X10301134Y-17774793D02*
X10320182Y-17765270D01*
X10320182Y-17765270D02*
X10329705Y-17755746D01*
X10329705Y-17755746D02*
X10339229Y-17736698D01*
X10463039Y-17650984D02*
X10482086Y-17650984D01*
X10482086Y-17650984D02*
X10501134Y-17660508D01*
X10501134Y-17660508D02*
X10510658Y-17670031D01*
X10510658Y-17670031D02*
X10520182Y-17689079D01*
X10520182Y-17689079D02*
X10529705Y-17727174D01*
X10529705Y-17727174D02*
X10529705Y-17774793D01*
X10529705Y-17774793D02*
X10520182Y-17812889D01*
X10520182Y-17812889D02*
X10510658Y-17831936D01*
X10510658Y-17831936D02*
X10501134Y-17841460D01*
X10501134Y-17841460D02*
X10482086Y-17850984D01*
X10482086Y-17850984D02*
X10463039Y-17850984D01*
X10463039Y-17850984D02*
X10443991Y-17841460D01*
X10443991Y-17841460D02*
X10434467Y-17831936D01*
X10434467Y-17831936D02*
X10424944Y-17812889D01*
X10424944Y-17812889D02*
X10415420Y-17774793D01*
X10415420Y-17774793D02*
X10415420Y-17727174D01*
X10415420Y-17727174D02*
X10424944Y-17689079D01*
X10424944Y-17689079D02*
X10434467Y-17670031D01*
X10434467Y-17670031D02*
X10443991Y-17660508D01*
X10443991Y-17660508D02*
X10463039Y-17650984D01*
X10615420Y-17850984D02*
X10615420Y-17717650D01*
X10615420Y-17736698D02*
X10624944Y-17727174D01*
X10624944Y-17727174D02*
X10643991Y-17717650D01*
X10643991Y-17717650D02*
X10672563Y-17717650D01*
X10672563Y-17717650D02*
X10691610Y-17727174D01*
X10691610Y-17727174D02*
X10701134Y-17746222D01*
X10701134Y-17746222D02*
X10701134Y-17850984D01*
X10701134Y-17746222D02*
X10710658Y-17727174D01*
X10710658Y-17727174D02*
X10729705Y-17717650D01*
X10729705Y-17717650D02*
X10758277Y-17717650D01*
X10758277Y-17717650D02*
X10777325Y-17727174D01*
X10777325Y-17727174D02*
X10786848Y-17746222D01*
X10786848Y-17746222D02*
X10786848Y-17850984D01*
X10882086Y-17850984D02*
X10882086Y-17717650D01*
X10882086Y-17736698D02*
X10891610Y-17727174D01*
X10891610Y-17727174D02*
X10910658Y-17717650D01*
X10910658Y-17717650D02*
X10939229Y-17717650D01*
X10939229Y-17717650D02*
X10958277Y-17727174D01*
X10958277Y-17727174D02*
X10967801Y-17746222D01*
X10967801Y-17746222D02*
X10967801Y-17850984D01*
X10967801Y-17746222D02*
X10977325Y-17727174D01*
X10977325Y-17727174D02*
X10996372Y-17717650D01*
X10996372Y-17717650D02*
X11024944Y-17717650D01*
X11024944Y-17717650D02*
X11043991Y-17727174D01*
X11043991Y-17727174D02*
X11053515Y-17746222D01*
X11053515Y-17746222D02*
X11053515Y-17850984D01*
X11443991Y-17641460D02*
X11272563Y-17898603D01*
X11701134Y-17650984D02*
X11720182Y-17650984D01*
X11720182Y-17650984D02*
X11739229Y-17660508D01*
X11739229Y-17660508D02*
X11748753Y-17670031D01*
X11748753Y-17670031D02*
X11758277Y-17689079D01*
X11758277Y-17689079D02*
X11767801Y-17727174D01*
X11767801Y-17727174D02*
X11767801Y-17774793D01*
X11767801Y-17774793D02*
X11758277Y-17812889D01*
X11758277Y-17812889D02*
X11748753Y-17831936D01*
X11748753Y-17831936D02*
X11739229Y-17841460D01*
X11739229Y-17841460D02*
X11720182Y-17850984D01*
X11720182Y-17850984D02*
X11701134Y-17850984D01*
X11701134Y-17850984D02*
X11682086Y-17841460D01*
X11682086Y-17841460D02*
X11672563Y-17831936D01*
X11672563Y-17831936D02*
X11663039Y-17812889D01*
X11663039Y-17812889D02*
X11653515Y-17774793D01*
X11653515Y-17774793D02*
X11653515Y-17727174D01*
X11653515Y-17727174D02*
X11663039Y-17689079D01*
X11663039Y-17689079D02*
X11672563Y-17670031D01*
X11672563Y-17670031D02*
X11682086Y-17660508D01*
X11682086Y-17660508D02*
X11701134Y-17650984D01*
X11853515Y-17831936D02*
X11863039Y-17841460D01*
X11863039Y-17841460D02*
X11853515Y-17850984D01*
X11853515Y-17850984D02*
X11843991Y-17841460D01*
X11843991Y-17841460D02*
X11853515Y-17831936D01*
X11853515Y-17831936D02*
X11853515Y-17850984D01*
X11986848Y-17650984D02*
X12005896Y-17650984D01*
X12005896Y-17650984D02*
X12024944Y-17660508D01*
X12024944Y-17660508D02*
X12034467Y-17670031D01*
X12034467Y-17670031D02*
X12043991Y-17689079D01*
X12043991Y-17689079D02*
X12053515Y-17727174D01*
X12053515Y-17727174D02*
X12053515Y-17774793D01*
X12053515Y-17774793D02*
X12043991Y-17812889D01*
X12043991Y-17812889D02*
X12034467Y-17831936D01*
X12034467Y-17831936D02*
X12024944Y-17841460D01*
X12024944Y-17841460D02*
X12005896Y-17850984D01*
X12005896Y-17850984D02*
X11986848Y-17850984D01*
X11986848Y-17850984D02*
X11967801Y-17841460D01*
X11967801Y-17841460D02*
X11958277Y-17831936D01*
X11958277Y-17831936D02*
X11948753Y-17812889D01*
X11948753Y-17812889D02*
X11939229Y-17774793D01*
X11939229Y-17774793D02*
X11939229Y-17727174D01*
X11939229Y-17727174D02*
X11948753Y-17689079D01*
X11948753Y-17689079D02*
X11958277Y-17670031D01*
X11958277Y-17670031D02*
X11967801Y-17660508D01*
X11967801Y-17660508D02*
X11986848Y-17650984D01*
X12120182Y-17650984D02*
X12243991Y-17650984D01*
X12243991Y-17650984D02*
X12177325Y-17727174D01*
X12177325Y-17727174D02*
X12205896Y-17727174D01*
X12205896Y-17727174D02*
X12224944Y-17736698D01*
X12224944Y-17736698D02*
X12234467Y-17746222D01*
X12234467Y-17746222D02*
X12243991Y-17765270D01*
X12243991Y-17765270D02*
X12243991Y-17812889D01*
X12243991Y-17812889D02*
X12234467Y-17831936D01*
X12234467Y-17831936D02*
X12224944Y-17841460D01*
X12224944Y-17841460D02*
X12205896Y-17850984D01*
X12205896Y-17850984D02*
X12148753Y-17850984D01*
X12148753Y-17850984D02*
X12129706Y-17841460D01*
X12129706Y-17841460D02*
X12120182Y-17831936D01*
X12424944Y-17650984D02*
X12329706Y-17650984D01*
X12329706Y-17650984D02*
X12320182Y-17746222D01*
X12320182Y-17746222D02*
X12329706Y-17736698D01*
X12329706Y-17736698D02*
X12348753Y-17727174D01*
X12348753Y-17727174D02*
X12396372Y-17727174D01*
X12396372Y-17727174D02*
X12415420Y-17736698D01*
X12415420Y-17736698D02*
X12424944Y-17746222D01*
X12424944Y-17746222D02*
X12434467Y-17765270D01*
X12434467Y-17765270D02*
X12434467Y-17812889D01*
X12434467Y-17812889D02*
X12424944Y-17831936D01*
X12424944Y-17831936D02*
X12415420Y-17841460D01*
X12415420Y-17841460D02*
X12396372Y-17850984D01*
X12396372Y-17850984D02*
X12348753Y-17850984D01*
X12348753Y-17850984D02*
X12329706Y-17841460D01*
X12329706Y-17841460D02*
X12320182Y-17831936D01*
X12558277Y-17650984D02*
X12577325Y-17650984D01*
X12577325Y-17650984D02*
X12596372Y-17660508D01*
X12596372Y-17660508D02*
X12605896Y-17670031D01*
X12605896Y-17670031D02*
X12615420Y-17689079D01*
X12615420Y-17689079D02*
X12624944Y-17727174D01*
X12624944Y-17727174D02*
X12624944Y-17774793D01*
X12624944Y-17774793D02*
X12615420Y-17812889D01*
X12615420Y-17812889D02*
X12605896Y-17831936D01*
X12605896Y-17831936D02*
X12596372Y-17841460D01*
X12596372Y-17841460D02*
X12577325Y-17850984D01*
X12577325Y-17850984D02*
X12558277Y-17850984D01*
X12558277Y-17850984D02*
X12539229Y-17841460D01*
X12539229Y-17841460D02*
X12529706Y-17831936D01*
X12529706Y-17831936D02*
X12520182Y-17812889D01*
X12520182Y-17812889D02*
X12510658Y-17774793D01*
X12510658Y-17774793D02*
X12510658Y-17727174D01*
X12510658Y-17727174D02*
X12520182Y-17689079D01*
X12520182Y-17689079D02*
X12529706Y-17670031D01*
X12529706Y-17670031D02*
X12539229Y-17660508D01*
X12539229Y-17660508D02*
X12558277Y-17650984D01*
X12701134Y-17650984D02*
X12701134Y-17689079D01*
X12777325Y-17650984D02*
X12777325Y-17689079D01*
X13072563Y-17927174D02*
X13063039Y-17917650D01*
X13063039Y-17917650D02*
X13043991Y-17889079D01*
X13043991Y-17889079D02*
X13034468Y-17870031D01*
X13034468Y-17870031D02*
X13024944Y-17841460D01*
X13024944Y-17841460D02*
X13015420Y-17793841D01*
X13015420Y-17793841D02*
X13015420Y-17755746D01*
X13015420Y-17755746D02*
X13024944Y-17708127D01*
X13024944Y-17708127D02*
X13034468Y-17679555D01*
X13034468Y-17679555D02*
X13043991Y-17660508D01*
X13043991Y-17660508D02*
X13063039Y-17631936D01*
X13063039Y-17631936D02*
X13072563Y-17622412D01*
X13234468Y-17717650D02*
X13234468Y-17850984D01*
X13186848Y-17641460D02*
X13139229Y-17784317D01*
X13139229Y-17784317D02*
X13263039Y-17784317D01*
X13491610Y-17850984D02*
X13491610Y-17650984D01*
X13577325Y-17850984D02*
X13577325Y-17746222D01*
X13577325Y-17746222D02*
X13567801Y-17727174D01*
X13567801Y-17727174D02*
X13548753Y-17717650D01*
X13548753Y-17717650D02*
X13520182Y-17717650D01*
X13520182Y-17717650D02*
X13501134Y-17727174D01*
X13501134Y-17727174D02*
X13491610Y-17736698D01*
X13701134Y-17850984D02*
X13682087Y-17841460D01*
X13682087Y-17841460D02*
X13672563Y-17831936D01*
X13672563Y-17831936D02*
X13663039Y-17812889D01*
X13663039Y-17812889D02*
X13663039Y-17755746D01*
X13663039Y-17755746D02*
X13672563Y-17736698D01*
X13672563Y-17736698D02*
X13682087Y-17727174D01*
X13682087Y-17727174D02*
X13701134Y-17717650D01*
X13701134Y-17717650D02*
X13729706Y-17717650D01*
X13729706Y-17717650D02*
X13748753Y-17727174D01*
X13748753Y-17727174D02*
X13758277Y-17736698D01*
X13758277Y-17736698D02*
X13767801Y-17755746D01*
X13767801Y-17755746D02*
X13767801Y-17812889D01*
X13767801Y-17812889D02*
X13758277Y-17831936D01*
X13758277Y-17831936D02*
X13748753Y-17841460D01*
X13748753Y-17841460D02*
X13729706Y-17850984D01*
X13729706Y-17850984D02*
X13701134Y-17850984D01*
X13882087Y-17850984D02*
X13863039Y-17841460D01*
X13863039Y-17841460D02*
X13853515Y-17822412D01*
X13853515Y-17822412D02*
X13853515Y-17650984D01*
X14034468Y-17841460D02*
X14015420Y-17850984D01*
X14015420Y-17850984D02*
X13977325Y-17850984D01*
X13977325Y-17850984D02*
X13958277Y-17841460D01*
X13958277Y-17841460D02*
X13948753Y-17822412D01*
X13948753Y-17822412D02*
X13948753Y-17746222D01*
X13948753Y-17746222D02*
X13958277Y-17727174D01*
X13958277Y-17727174D02*
X13977325Y-17717650D01*
X13977325Y-17717650D02*
X14015420Y-17717650D01*
X14015420Y-17717650D02*
X14034468Y-17727174D01*
X14034468Y-17727174D02*
X14043991Y-17746222D01*
X14043991Y-17746222D02*
X14043991Y-17765270D01*
X14043991Y-17765270D02*
X13948753Y-17784317D01*
X14120182Y-17841460D02*
X14139230Y-17850984D01*
X14139230Y-17850984D02*
X14177325Y-17850984D01*
X14177325Y-17850984D02*
X14196372Y-17841460D01*
X14196372Y-17841460D02*
X14205896Y-17822412D01*
X14205896Y-17822412D02*
X14205896Y-17812889D01*
X14205896Y-17812889D02*
X14196372Y-17793841D01*
X14196372Y-17793841D02*
X14177325Y-17784317D01*
X14177325Y-17784317D02*
X14148753Y-17784317D01*
X14148753Y-17784317D02*
X14129706Y-17774793D01*
X14129706Y-17774793D02*
X14120182Y-17755746D01*
X14120182Y-17755746D02*
X14120182Y-17746222D01*
X14120182Y-17746222D02*
X14129706Y-17727174D01*
X14129706Y-17727174D02*
X14148753Y-17717650D01*
X14148753Y-17717650D02*
X14177325Y-17717650D01*
X14177325Y-17717650D02*
X14196372Y-17727174D01*
X14272563Y-17927174D02*
X14282087Y-17917650D01*
X14282087Y-17917650D02*
X14301134Y-17889079D01*
X14301134Y-17889079D02*
X14310658Y-17870031D01*
X14310658Y-17870031D02*
X14320182Y-17841460D01*
X14320182Y-17841460D02*
X14329706Y-17793841D01*
X14329706Y-17793841D02*
X14329706Y-17755746D01*
X14329706Y-17755746D02*
X14320182Y-17708127D01*
X14320182Y-17708127D02*
X14310658Y-17679555D01*
X14310658Y-17679555D02*
X14301134Y-17660508D01*
X14301134Y-17660508D02*
X14282087Y-17631936D01*
X14282087Y-17631936D02*
X14272563Y-17622412D01*
D12*
X9451500Y-18069500D02*
X9497500Y-18023500D01*
X9451500Y-17977500D01*
X9405500Y-18023500D01*
X9451500Y-18069500D01*
D11*
X9796372Y-17914984D02*
X9815420Y-17914984D01*
X9815420Y-17914984D02*
X9834467Y-17924508D01*
X9834467Y-17924508D02*
X9843991Y-17934031D01*
X9843991Y-17934031D02*
X9853515Y-17953079D01*
X9853515Y-17953079D02*
X9863039Y-17991174D01*
X9863039Y-17991174D02*
X9863039Y-18038793D01*
X9863039Y-18038793D02*
X9853515Y-18076889D01*
X9853515Y-18076889D02*
X9843991Y-18095936D01*
X9843991Y-18095936D02*
X9834467Y-18105460D01*
X9834467Y-18105460D02*
X9815420Y-18114984D01*
X9815420Y-18114984D02*
X9796372Y-18114984D01*
X9796372Y-18114984D02*
X9777324Y-18105460D01*
X9777324Y-18105460D02*
X9767801Y-18095936D01*
X9767801Y-18095936D02*
X9758277Y-18076889D01*
X9758277Y-18076889D02*
X9748753Y-18038793D01*
X9748753Y-18038793D02*
X9748753Y-17991174D01*
X9748753Y-17991174D02*
X9758277Y-17953079D01*
X9758277Y-17953079D02*
X9767801Y-17934031D01*
X9767801Y-17934031D02*
X9777324Y-17924508D01*
X9777324Y-17924508D02*
X9796372Y-17914984D01*
X9948753Y-18095936D02*
X9958277Y-18105460D01*
X9958277Y-18105460D02*
X9948753Y-18114984D01*
X9948753Y-18114984D02*
X9939229Y-18105460D01*
X9939229Y-18105460D02*
X9948753Y-18095936D01*
X9948753Y-18095936D02*
X9948753Y-18114984D01*
X10053515Y-18114984D02*
X10091610Y-18114984D01*
X10091610Y-18114984D02*
X10110658Y-18105460D01*
X10110658Y-18105460D02*
X10120182Y-18095936D01*
X10120182Y-18095936D02*
X10139229Y-18067365D01*
X10139229Y-18067365D02*
X10148753Y-18029270D01*
X10148753Y-18029270D02*
X10148753Y-17953079D01*
X10148753Y-17953079D02*
X10139229Y-17934031D01*
X10139229Y-17934031D02*
X10129705Y-17924508D01*
X10129705Y-17924508D02*
X10110658Y-17914984D01*
X10110658Y-17914984D02*
X10072563Y-17914984D01*
X10072563Y-17914984D02*
X10053515Y-17924508D01*
X10053515Y-17924508D02*
X10043991Y-17934031D01*
X10043991Y-17934031D02*
X10034467Y-17953079D01*
X10034467Y-17953079D02*
X10034467Y-18000698D01*
X10034467Y-18000698D02*
X10043991Y-18019746D01*
X10043991Y-18019746D02*
X10053515Y-18029270D01*
X10053515Y-18029270D02*
X10072563Y-18038793D01*
X10072563Y-18038793D02*
X10110658Y-18038793D01*
X10110658Y-18038793D02*
X10129705Y-18029270D01*
X10129705Y-18029270D02*
X10139229Y-18019746D01*
X10139229Y-18019746D02*
X10148753Y-18000698D01*
X10224944Y-17934031D02*
X10234467Y-17924508D01*
X10234467Y-17924508D02*
X10253515Y-17914984D01*
X10253515Y-17914984D02*
X10301134Y-17914984D01*
X10301134Y-17914984D02*
X10320182Y-17924508D01*
X10320182Y-17924508D02*
X10329705Y-17934031D01*
X10329705Y-17934031D02*
X10339229Y-17953079D01*
X10339229Y-17953079D02*
X10339229Y-17972127D01*
X10339229Y-17972127D02*
X10329705Y-18000698D01*
X10329705Y-18000698D02*
X10215420Y-18114984D01*
X10215420Y-18114984D02*
X10339229Y-18114984D01*
X10463039Y-17914984D02*
X10482086Y-17914984D01*
X10482086Y-17914984D02*
X10501134Y-17924508D01*
X10501134Y-17924508D02*
X10510658Y-17934031D01*
X10510658Y-17934031D02*
X10520182Y-17953079D01*
X10520182Y-17953079D02*
X10529705Y-17991174D01*
X10529705Y-17991174D02*
X10529705Y-18038793D01*
X10529705Y-18038793D02*
X10520182Y-18076889D01*
X10520182Y-18076889D02*
X10510658Y-18095936D01*
X10510658Y-18095936D02*
X10501134Y-18105460D01*
X10501134Y-18105460D02*
X10482086Y-18114984D01*
X10482086Y-18114984D02*
X10463039Y-18114984D01*
X10463039Y-18114984D02*
X10443991Y-18105460D01*
X10443991Y-18105460D02*
X10434467Y-18095936D01*
X10434467Y-18095936D02*
X10424944Y-18076889D01*
X10424944Y-18076889D02*
X10415420Y-18038793D01*
X10415420Y-18038793D02*
X10415420Y-17991174D01*
X10415420Y-17991174D02*
X10424944Y-17953079D01*
X10424944Y-17953079D02*
X10434467Y-17934031D01*
X10434467Y-17934031D02*
X10443991Y-17924508D01*
X10443991Y-17924508D02*
X10463039Y-17914984D01*
X10615420Y-18114984D02*
X10615420Y-17981650D01*
X10615420Y-18000698D02*
X10624944Y-17991174D01*
X10624944Y-17991174D02*
X10643991Y-17981650D01*
X10643991Y-17981650D02*
X10672563Y-17981650D01*
X10672563Y-17981650D02*
X10691610Y-17991174D01*
X10691610Y-17991174D02*
X10701134Y-18010222D01*
X10701134Y-18010222D02*
X10701134Y-18114984D01*
X10701134Y-18010222D02*
X10710658Y-17991174D01*
X10710658Y-17991174D02*
X10729705Y-17981650D01*
X10729705Y-17981650D02*
X10758277Y-17981650D01*
X10758277Y-17981650D02*
X10777325Y-17991174D01*
X10777325Y-17991174D02*
X10786848Y-18010222D01*
X10786848Y-18010222D02*
X10786848Y-18114984D01*
X10882086Y-18114984D02*
X10882086Y-17981650D01*
X10882086Y-18000698D02*
X10891610Y-17991174D01*
X10891610Y-17991174D02*
X10910658Y-17981650D01*
X10910658Y-17981650D02*
X10939229Y-17981650D01*
X10939229Y-17981650D02*
X10958277Y-17991174D01*
X10958277Y-17991174D02*
X10967801Y-18010222D01*
X10967801Y-18010222D02*
X10967801Y-18114984D01*
X10967801Y-18010222D02*
X10977325Y-17991174D01*
X10977325Y-17991174D02*
X10996372Y-17981650D01*
X10996372Y-17981650D02*
X11024944Y-17981650D01*
X11024944Y-17981650D02*
X11043991Y-17991174D01*
X11043991Y-17991174D02*
X11053515Y-18010222D01*
X11053515Y-18010222D02*
X11053515Y-18114984D01*
X11443991Y-17905460D02*
X11272563Y-18162603D01*
X11701134Y-17914984D02*
X11720182Y-17914984D01*
X11720182Y-17914984D02*
X11739229Y-17924508D01*
X11739229Y-17924508D02*
X11748753Y-17934031D01*
X11748753Y-17934031D02*
X11758277Y-17953079D01*
X11758277Y-17953079D02*
X11767801Y-17991174D01*
X11767801Y-17991174D02*
X11767801Y-18038793D01*
X11767801Y-18038793D02*
X11758277Y-18076889D01*
X11758277Y-18076889D02*
X11748753Y-18095936D01*
X11748753Y-18095936D02*
X11739229Y-18105460D01*
X11739229Y-18105460D02*
X11720182Y-18114984D01*
X11720182Y-18114984D02*
X11701134Y-18114984D01*
X11701134Y-18114984D02*
X11682086Y-18105460D01*
X11682086Y-18105460D02*
X11672563Y-18095936D01*
X11672563Y-18095936D02*
X11663039Y-18076889D01*
X11663039Y-18076889D02*
X11653515Y-18038793D01*
X11653515Y-18038793D02*
X11653515Y-17991174D01*
X11653515Y-17991174D02*
X11663039Y-17953079D01*
X11663039Y-17953079D02*
X11672563Y-17934031D01*
X11672563Y-17934031D02*
X11682086Y-17924508D01*
X11682086Y-17924508D02*
X11701134Y-17914984D01*
X11853515Y-18095936D02*
X11863039Y-18105460D01*
X11863039Y-18105460D02*
X11853515Y-18114984D01*
X11853515Y-18114984D02*
X11843991Y-18105460D01*
X11843991Y-18105460D02*
X11853515Y-18095936D01*
X11853515Y-18095936D02*
X11853515Y-18114984D01*
X11986848Y-17914984D02*
X12005896Y-17914984D01*
X12005896Y-17914984D02*
X12024944Y-17924508D01*
X12024944Y-17924508D02*
X12034467Y-17934031D01*
X12034467Y-17934031D02*
X12043991Y-17953079D01*
X12043991Y-17953079D02*
X12053515Y-17991174D01*
X12053515Y-17991174D02*
X12053515Y-18038793D01*
X12053515Y-18038793D02*
X12043991Y-18076889D01*
X12043991Y-18076889D02*
X12034467Y-18095936D01*
X12034467Y-18095936D02*
X12024944Y-18105460D01*
X12024944Y-18105460D02*
X12005896Y-18114984D01*
X12005896Y-18114984D02*
X11986848Y-18114984D01*
X11986848Y-18114984D02*
X11967801Y-18105460D01*
X11967801Y-18105460D02*
X11958277Y-18095936D01*
X11958277Y-18095936D02*
X11948753Y-18076889D01*
X11948753Y-18076889D02*
X11939229Y-18038793D01*
X11939229Y-18038793D02*
X11939229Y-17991174D01*
X11939229Y-17991174D02*
X11948753Y-17953079D01*
X11948753Y-17953079D02*
X11958277Y-17934031D01*
X11958277Y-17934031D02*
X11967801Y-17924508D01*
X11967801Y-17924508D02*
X11986848Y-17914984D01*
X12120182Y-17914984D02*
X12243991Y-17914984D01*
X12243991Y-17914984D02*
X12177325Y-17991174D01*
X12177325Y-17991174D02*
X12205896Y-17991174D01*
X12205896Y-17991174D02*
X12224944Y-18000698D01*
X12224944Y-18000698D02*
X12234467Y-18010222D01*
X12234467Y-18010222D02*
X12243991Y-18029270D01*
X12243991Y-18029270D02*
X12243991Y-18076889D01*
X12243991Y-18076889D02*
X12234467Y-18095936D01*
X12234467Y-18095936D02*
X12224944Y-18105460D01*
X12224944Y-18105460D02*
X12205896Y-18114984D01*
X12205896Y-18114984D02*
X12148753Y-18114984D01*
X12148753Y-18114984D02*
X12129706Y-18105460D01*
X12129706Y-18105460D02*
X12120182Y-18095936D01*
X12415420Y-17914984D02*
X12377325Y-17914984D01*
X12377325Y-17914984D02*
X12358277Y-17924508D01*
X12358277Y-17924508D02*
X12348753Y-17934031D01*
X12348753Y-17934031D02*
X12329706Y-17962603D01*
X12329706Y-17962603D02*
X12320182Y-18000698D01*
X12320182Y-18000698D02*
X12320182Y-18076889D01*
X12320182Y-18076889D02*
X12329706Y-18095936D01*
X12329706Y-18095936D02*
X12339229Y-18105460D01*
X12339229Y-18105460D02*
X12358277Y-18114984D01*
X12358277Y-18114984D02*
X12396372Y-18114984D01*
X12396372Y-18114984D02*
X12415420Y-18105460D01*
X12415420Y-18105460D02*
X12424944Y-18095936D01*
X12424944Y-18095936D02*
X12434467Y-18076889D01*
X12434467Y-18076889D02*
X12434467Y-18029270D01*
X12434467Y-18029270D02*
X12424944Y-18010222D01*
X12424944Y-18010222D02*
X12415420Y-18000698D01*
X12415420Y-18000698D02*
X12396372Y-17991174D01*
X12396372Y-17991174D02*
X12358277Y-17991174D01*
X12358277Y-17991174D02*
X12339229Y-18000698D01*
X12339229Y-18000698D02*
X12329706Y-18010222D01*
X12329706Y-18010222D02*
X12320182Y-18029270D01*
X12510658Y-17934031D02*
X12520182Y-17924508D01*
X12520182Y-17924508D02*
X12539229Y-17914984D01*
X12539229Y-17914984D02*
X12586848Y-17914984D01*
X12586848Y-17914984D02*
X12605896Y-17924508D01*
X12605896Y-17924508D02*
X12615420Y-17934031D01*
X12615420Y-17934031D02*
X12624944Y-17953079D01*
X12624944Y-17953079D02*
X12624944Y-17972127D01*
X12624944Y-17972127D02*
X12615420Y-18000698D01*
X12615420Y-18000698D02*
X12501134Y-18114984D01*
X12501134Y-18114984D02*
X12624944Y-18114984D01*
X12701134Y-17914984D02*
X12701134Y-17953079D01*
X12777325Y-17914984D02*
X12777325Y-17953079D01*
X13072563Y-18191174D02*
X13063039Y-18181650D01*
X13063039Y-18181650D02*
X13043991Y-18153079D01*
X13043991Y-18153079D02*
X13034468Y-18134031D01*
X13034468Y-18134031D02*
X13024944Y-18105460D01*
X13024944Y-18105460D02*
X13015420Y-18057841D01*
X13015420Y-18057841D02*
X13015420Y-18019746D01*
X13015420Y-18019746D02*
X13024944Y-17972127D01*
X13024944Y-17972127D02*
X13034468Y-17943555D01*
X13034468Y-17943555D02*
X13043991Y-17924508D01*
X13043991Y-17924508D02*
X13063039Y-17895936D01*
X13063039Y-17895936D02*
X13072563Y-17886412D01*
X13234468Y-17981650D02*
X13234468Y-18114984D01*
X13186848Y-17905460D02*
X13139229Y-18048317D01*
X13139229Y-18048317D02*
X13263039Y-18048317D01*
X13491610Y-18114984D02*
X13491610Y-17914984D01*
X13577325Y-18114984D02*
X13577325Y-18010222D01*
X13577325Y-18010222D02*
X13567801Y-17991174D01*
X13567801Y-17991174D02*
X13548753Y-17981650D01*
X13548753Y-17981650D02*
X13520182Y-17981650D01*
X13520182Y-17981650D02*
X13501134Y-17991174D01*
X13501134Y-17991174D02*
X13491610Y-18000698D01*
X13701134Y-18114984D02*
X13682087Y-18105460D01*
X13682087Y-18105460D02*
X13672563Y-18095936D01*
X13672563Y-18095936D02*
X13663039Y-18076889D01*
X13663039Y-18076889D02*
X13663039Y-18019746D01*
X13663039Y-18019746D02*
X13672563Y-18000698D01*
X13672563Y-18000698D02*
X13682087Y-17991174D01*
X13682087Y-17991174D02*
X13701134Y-17981650D01*
X13701134Y-17981650D02*
X13729706Y-17981650D01*
X13729706Y-17981650D02*
X13748753Y-17991174D01*
X13748753Y-17991174D02*
X13758277Y-18000698D01*
X13758277Y-18000698D02*
X13767801Y-18019746D01*
X13767801Y-18019746D02*
X13767801Y-18076889D01*
X13767801Y-18076889D02*
X13758277Y-18095936D01*
X13758277Y-18095936D02*
X13748753Y-18105460D01*
X13748753Y-18105460D02*
X13729706Y-18114984D01*
X13729706Y-18114984D02*
X13701134Y-18114984D01*
X13882087Y-18114984D02*
X13863039Y-18105460D01*
X13863039Y-18105460D02*
X13853515Y-18086412D01*
X13853515Y-18086412D02*
X13853515Y-17914984D01*
X14034468Y-18105460D02*
X14015420Y-18114984D01*
X14015420Y-18114984D02*
X13977325Y-18114984D01*
X13977325Y-18114984D02*
X13958277Y-18105460D01*
X13958277Y-18105460D02*
X13948753Y-18086412D01*
X13948753Y-18086412D02*
X13948753Y-18010222D01*
X13948753Y-18010222D02*
X13958277Y-17991174D01*
X13958277Y-17991174D02*
X13977325Y-17981650D01*
X13977325Y-17981650D02*
X14015420Y-17981650D01*
X14015420Y-17981650D02*
X14034468Y-17991174D01*
X14034468Y-17991174D02*
X14043991Y-18010222D01*
X14043991Y-18010222D02*
X14043991Y-18029270D01*
X14043991Y-18029270D02*
X13948753Y-18048317D01*
X14120182Y-18105460D02*
X14139230Y-18114984D01*
X14139230Y-18114984D02*
X14177325Y-18114984D01*
X14177325Y-18114984D02*
X14196372Y-18105460D01*
X14196372Y-18105460D02*
X14205896Y-18086412D01*
X14205896Y-18086412D02*
X14205896Y-18076889D01*
X14205896Y-18076889D02*
X14196372Y-18057841D01*
X14196372Y-18057841D02*
X14177325Y-18048317D01*
X14177325Y-18048317D02*
X14148753Y-18048317D01*
X14148753Y-18048317D02*
X14129706Y-18038793D01*
X14129706Y-18038793D02*
X14120182Y-18019746D01*
X14120182Y-18019746D02*
X14120182Y-18010222D01*
X14120182Y-18010222D02*
X14129706Y-17991174D01*
X14129706Y-17991174D02*
X14148753Y-17981650D01*
X14148753Y-17981650D02*
X14177325Y-17981650D01*
X14177325Y-17981650D02*
X14196372Y-17991174D01*
X14272563Y-18191174D02*
X14282087Y-18181650D01*
X14282087Y-18181650D02*
X14301134Y-18153079D01*
X14301134Y-18153079D02*
X14310658Y-18134031D01*
X14310658Y-18134031D02*
X14320182Y-18105460D01*
X14320182Y-18105460D02*
X14329706Y-18057841D01*
X14329706Y-18057841D02*
X14329706Y-18019746D01*
X14329706Y-18019746D02*
X14320182Y-17972127D01*
X14320182Y-17972127D02*
X14310658Y-17943555D01*
X14310658Y-17943555D02*
X14301134Y-17924508D01*
X14301134Y-17924508D02*
X14282087Y-17895936D01*
X14282087Y-17895936D02*
X14272563Y-17886412D01*
D12*
X9397500Y-18237500D02*
X9497500Y-18337500D01*
X9497500Y-18237500D02*
X9397500Y-18337500D01*
X9497500Y-18287500D02*
G75*
G02*
X9397500Y-18287500I-50000J0D01*
G01*
X9397500Y-18287500D02*
G75*
G02*
X9497500Y-18287500I50000J0D01*
G01*
D11*
X9863039Y-18378984D02*
X9748753Y-18378984D01*
X9805896Y-18378984D02*
X9805896Y-18178984D01*
X9805896Y-18178984D02*
X9786848Y-18207555D01*
X9786848Y-18207555D02*
X9767801Y-18226603D01*
X9767801Y-18226603D02*
X9748753Y-18236127D01*
X9948753Y-18359936D02*
X9958277Y-18369460D01*
X9958277Y-18369460D02*
X9948753Y-18378984D01*
X9948753Y-18378984D02*
X9939229Y-18369460D01*
X9939229Y-18369460D02*
X9948753Y-18359936D01*
X9948753Y-18359936D02*
X9948753Y-18378984D01*
X10082086Y-18178984D02*
X10101134Y-18178984D01*
X10101134Y-18178984D02*
X10120182Y-18188508D01*
X10120182Y-18188508D02*
X10129705Y-18198031D01*
X10129705Y-18198031D02*
X10139229Y-18217079D01*
X10139229Y-18217079D02*
X10148753Y-18255174D01*
X10148753Y-18255174D02*
X10148753Y-18302793D01*
X10148753Y-18302793D02*
X10139229Y-18340889D01*
X10139229Y-18340889D02*
X10129705Y-18359936D01*
X10129705Y-18359936D02*
X10120182Y-18369460D01*
X10120182Y-18369460D02*
X10101134Y-18378984D01*
X10101134Y-18378984D02*
X10082086Y-18378984D01*
X10082086Y-18378984D02*
X10063039Y-18369460D01*
X10063039Y-18369460D02*
X10053515Y-18359936D01*
X10053515Y-18359936D02*
X10043991Y-18340889D01*
X10043991Y-18340889D02*
X10034467Y-18302793D01*
X10034467Y-18302793D02*
X10034467Y-18255174D01*
X10034467Y-18255174D02*
X10043991Y-18217079D01*
X10043991Y-18217079D02*
X10053515Y-18198031D01*
X10053515Y-18198031D02*
X10063039Y-18188508D01*
X10063039Y-18188508D02*
X10082086Y-18178984D01*
X10272563Y-18178984D02*
X10291610Y-18178984D01*
X10291610Y-18178984D02*
X10310658Y-18188508D01*
X10310658Y-18188508D02*
X10320182Y-18198031D01*
X10320182Y-18198031D02*
X10329705Y-18217079D01*
X10329705Y-18217079D02*
X10339229Y-18255174D01*
X10339229Y-18255174D02*
X10339229Y-18302793D01*
X10339229Y-18302793D02*
X10329705Y-18340889D01*
X10329705Y-18340889D02*
X10320182Y-18359936D01*
X10320182Y-18359936D02*
X10310658Y-18369460D01*
X10310658Y-18369460D02*
X10291610Y-18378984D01*
X10291610Y-18378984D02*
X10272563Y-18378984D01*
X10272563Y-18378984D02*
X10253515Y-18369460D01*
X10253515Y-18369460D02*
X10243991Y-18359936D01*
X10243991Y-18359936D02*
X10234467Y-18340889D01*
X10234467Y-18340889D02*
X10224944Y-18302793D01*
X10224944Y-18302793D02*
X10224944Y-18255174D01*
X10224944Y-18255174D02*
X10234467Y-18217079D01*
X10234467Y-18217079D02*
X10243991Y-18198031D01*
X10243991Y-18198031D02*
X10253515Y-18188508D01*
X10253515Y-18188508D02*
X10272563Y-18178984D01*
X10463039Y-18178984D02*
X10482086Y-18178984D01*
X10482086Y-18178984D02*
X10501134Y-18188508D01*
X10501134Y-18188508D02*
X10510658Y-18198031D01*
X10510658Y-18198031D02*
X10520182Y-18217079D01*
X10520182Y-18217079D02*
X10529705Y-18255174D01*
X10529705Y-18255174D02*
X10529705Y-18302793D01*
X10529705Y-18302793D02*
X10520182Y-18340889D01*
X10520182Y-18340889D02*
X10510658Y-18359936D01*
X10510658Y-18359936D02*
X10501134Y-18369460D01*
X10501134Y-18369460D02*
X10482086Y-18378984D01*
X10482086Y-18378984D02*
X10463039Y-18378984D01*
X10463039Y-18378984D02*
X10443991Y-18369460D01*
X10443991Y-18369460D02*
X10434467Y-18359936D01*
X10434467Y-18359936D02*
X10424944Y-18340889D01*
X10424944Y-18340889D02*
X10415420Y-18302793D01*
X10415420Y-18302793D02*
X10415420Y-18255174D01*
X10415420Y-18255174D02*
X10424944Y-18217079D01*
X10424944Y-18217079D02*
X10434467Y-18198031D01*
X10434467Y-18198031D02*
X10443991Y-18188508D01*
X10443991Y-18188508D02*
X10463039Y-18178984D01*
X10615420Y-18378984D02*
X10615420Y-18245650D01*
X10615420Y-18264698D02*
X10624944Y-18255174D01*
X10624944Y-18255174D02*
X10643991Y-18245650D01*
X10643991Y-18245650D02*
X10672563Y-18245650D01*
X10672563Y-18245650D02*
X10691610Y-18255174D01*
X10691610Y-18255174D02*
X10701134Y-18274222D01*
X10701134Y-18274222D02*
X10701134Y-18378984D01*
X10701134Y-18274222D02*
X10710658Y-18255174D01*
X10710658Y-18255174D02*
X10729705Y-18245650D01*
X10729705Y-18245650D02*
X10758277Y-18245650D01*
X10758277Y-18245650D02*
X10777325Y-18255174D01*
X10777325Y-18255174D02*
X10786848Y-18274222D01*
X10786848Y-18274222D02*
X10786848Y-18378984D01*
X10882086Y-18378984D02*
X10882086Y-18245650D01*
X10882086Y-18264698D02*
X10891610Y-18255174D01*
X10891610Y-18255174D02*
X10910658Y-18245650D01*
X10910658Y-18245650D02*
X10939229Y-18245650D01*
X10939229Y-18245650D02*
X10958277Y-18255174D01*
X10958277Y-18255174D02*
X10967801Y-18274222D01*
X10967801Y-18274222D02*
X10967801Y-18378984D01*
X10967801Y-18274222D02*
X10977325Y-18255174D01*
X10977325Y-18255174D02*
X10996372Y-18245650D01*
X10996372Y-18245650D02*
X11024944Y-18245650D01*
X11024944Y-18245650D02*
X11043991Y-18255174D01*
X11043991Y-18255174D02*
X11053515Y-18274222D01*
X11053515Y-18274222D02*
X11053515Y-18378984D01*
X11443991Y-18169460D02*
X11272563Y-18426603D01*
X11701134Y-18178984D02*
X11720182Y-18178984D01*
X11720182Y-18178984D02*
X11739229Y-18188508D01*
X11739229Y-18188508D02*
X11748753Y-18198031D01*
X11748753Y-18198031D02*
X11758277Y-18217079D01*
X11758277Y-18217079D02*
X11767801Y-18255174D01*
X11767801Y-18255174D02*
X11767801Y-18302793D01*
X11767801Y-18302793D02*
X11758277Y-18340889D01*
X11758277Y-18340889D02*
X11748753Y-18359936D01*
X11748753Y-18359936D02*
X11739229Y-18369460D01*
X11739229Y-18369460D02*
X11720182Y-18378984D01*
X11720182Y-18378984D02*
X11701134Y-18378984D01*
X11701134Y-18378984D02*
X11682086Y-18369460D01*
X11682086Y-18369460D02*
X11672563Y-18359936D01*
X11672563Y-18359936D02*
X11663039Y-18340889D01*
X11663039Y-18340889D02*
X11653515Y-18302793D01*
X11653515Y-18302793D02*
X11653515Y-18255174D01*
X11653515Y-18255174D02*
X11663039Y-18217079D01*
X11663039Y-18217079D02*
X11672563Y-18198031D01*
X11672563Y-18198031D02*
X11682086Y-18188508D01*
X11682086Y-18188508D02*
X11701134Y-18178984D01*
X11853515Y-18359936D02*
X11863039Y-18369460D01*
X11863039Y-18369460D02*
X11853515Y-18378984D01*
X11853515Y-18378984D02*
X11843991Y-18369460D01*
X11843991Y-18369460D02*
X11853515Y-18359936D01*
X11853515Y-18359936D02*
X11853515Y-18378984D01*
X11986848Y-18178984D02*
X12005896Y-18178984D01*
X12005896Y-18178984D02*
X12024944Y-18188508D01*
X12024944Y-18188508D02*
X12034467Y-18198031D01*
X12034467Y-18198031D02*
X12043991Y-18217079D01*
X12043991Y-18217079D02*
X12053515Y-18255174D01*
X12053515Y-18255174D02*
X12053515Y-18302793D01*
X12053515Y-18302793D02*
X12043991Y-18340889D01*
X12043991Y-18340889D02*
X12034467Y-18359936D01*
X12034467Y-18359936D02*
X12024944Y-18369460D01*
X12024944Y-18369460D02*
X12005896Y-18378984D01*
X12005896Y-18378984D02*
X11986848Y-18378984D01*
X11986848Y-18378984D02*
X11967801Y-18369460D01*
X11967801Y-18369460D02*
X11958277Y-18359936D01*
X11958277Y-18359936D02*
X11948753Y-18340889D01*
X11948753Y-18340889D02*
X11939229Y-18302793D01*
X11939229Y-18302793D02*
X11939229Y-18255174D01*
X11939229Y-18255174D02*
X11948753Y-18217079D01*
X11948753Y-18217079D02*
X11958277Y-18198031D01*
X11958277Y-18198031D02*
X11967801Y-18188508D01*
X11967801Y-18188508D02*
X11986848Y-18178984D01*
X12120182Y-18178984D02*
X12243991Y-18178984D01*
X12243991Y-18178984D02*
X12177325Y-18255174D01*
X12177325Y-18255174D02*
X12205896Y-18255174D01*
X12205896Y-18255174D02*
X12224944Y-18264698D01*
X12224944Y-18264698D02*
X12234467Y-18274222D01*
X12234467Y-18274222D02*
X12243991Y-18293270D01*
X12243991Y-18293270D02*
X12243991Y-18340889D01*
X12243991Y-18340889D02*
X12234467Y-18359936D01*
X12234467Y-18359936D02*
X12224944Y-18369460D01*
X12224944Y-18369460D02*
X12205896Y-18378984D01*
X12205896Y-18378984D02*
X12148753Y-18378984D01*
X12148753Y-18378984D02*
X12129706Y-18369460D01*
X12129706Y-18369460D02*
X12120182Y-18359936D01*
X12339229Y-18378984D02*
X12377325Y-18378984D01*
X12377325Y-18378984D02*
X12396372Y-18369460D01*
X12396372Y-18369460D02*
X12405896Y-18359936D01*
X12405896Y-18359936D02*
X12424944Y-18331365D01*
X12424944Y-18331365D02*
X12434467Y-18293270D01*
X12434467Y-18293270D02*
X12434467Y-18217079D01*
X12434467Y-18217079D02*
X12424944Y-18198031D01*
X12424944Y-18198031D02*
X12415420Y-18188508D01*
X12415420Y-18188508D02*
X12396372Y-18178984D01*
X12396372Y-18178984D02*
X12358277Y-18178984D01*
X12358277Y-18178984D02*
X12339229Y-18188508D01*
X12339229Y-18188508D02*
X12329706Y-18198031D01*
X12329706Y-18198031D02*
X12320182Y-18217079D01*
X12320182Y-18217079D02*
X12320182Y-18264698D01*
X12320182Y-18264698D02*
X12329706Y-18283746D01*
X12329706Y-18283746D02*
X12339229Y-18293270D01*
X12339229Y-18293270D02*
X12358277Y-18302793D01*
X12358277Y-18302793D02*
X12396372Y-18302793D01*
X12396372Y-18302793D02*
X12415420Y-18293270D01*
X12415420Y-18293270D02*
X12424944Y-18283746D01*
X12424944Y-18283746D02*
X12434467Y-18264698D01*
X12605896Y-18245650D02*
X12605896Y-18378984D01*
X12558277Y-18169460D02*
X12510658Y-18312317D01*
X12510658Y-18312317D02*
X12634467Y-18312317D01*
X12701134Y-18178984D02*
X12701134Y-18217079D01*
X12777325Y-18178984D02*
X12777325Y-18217079D01*
X13072563Y-18455174D02*
X13063039Y-18445650D01*
X13063039Y-18445650D02*
X13043991Y-18417079D01*
X13043991Y-18417079D02*
X13034468Y-18398031D01*
X13034468Y-18398031D02*
X13024944Y-18369460D01*
X13024944Y-18369460D02*
X13015420Y-18321841D01*
X13015420Y-18321841D02*
X13015420Y-18283746D01*
X13015420Y-18283746D02*
X13024944Y-18236127D01*
X13024944Y-18236127D02*
X13034468Y-18207555D01*
X13034468Y-18207555D02*
X13043991Y-18188508D01*
X13043991Y-18188508D02*
X13063039Y-18159936D01*
X13063039Y-18159936D02*
X13072563Y-18150412D01*
X13253515Y-18378984D02*
X13139229Y-18378984D01*
X13196372Y-18378984D02*
X13196372Y-18178984D01*
X13196372Y-18178984D02*
X13177325Y-18207555D01*
X13177325Y-18207555D02*
X13158277Y-18226603D01*
X13158277Y-18226603D02*
X13139229Y-18236127D01*
X13367801Y-18264698D02*
X13348753Y-18255174D01*
X13348753Y-18255174D02*
X13339229Y-18245650D01*
X13339229Y-18245650D02*
X13329706Y-18226603D01*
X13329706Y-18226603D02*
X13329706Y-18217079D01*
X13329706Y-18217079D02*
X13339229Y-18198031D01*
X13339229Y-18198031D02*
X13348753Y-18188508D01*
X13348753Y-18188508D02*
X13367801Y-18178984D01*
X13367801Y-18178984D02*
X13405896Y-18178984D01*
X13405896Y-18178984D02*
X13424944Y-18188508D01*
X13424944Y-18188508D02*
X13434468Y-18198031D01*
X13434468Y-18198031D02*
X13443991Y-18217079D01*
X13443991Y-18217079D02*
X13443991Y-18226603D01*
X13443991Y-18226603D02*
X13434468Y-18245650D01*
X13434468Y-18245650D02*
X13424944Y-18255174D01*
X13424944Y-18255174D02*
X13405896Y-18264698D01*
X13405896Y-18264698D02*
X13367801Y-18264698D01*
X13367801Y-18264698D02*
X13348753Y-18274222D01*
X13348753Y-18274222D02*
X13339229Y-18283746D01*
X13339229Y-18283746D02*
X13329706Y-18302793D01*
X13329706Y-18302793D02*
X13329706Y-18340889D01*
X13329706Y-18340889D02*
X13339229Y-18359936D01*
X13339229Y-18359936D02*
X13348753Y-18369460D01*
X13348753Y-18369460D02*
X13367801Y-18378984D01*
X13367801Y-18378984D02*
X13405896Y-18378984D01*
X13405896Y-18378984D02*
X13424944Y-18369460D01*
X13424944Y-18369460D02*
X13434468Y-18359936D01*
X13434468Y-18359936D02*
X13443991Y-18340889D01*
X13443991Y-18340889D02*
X13443991Y-18302793D01*
X13443991Y-18302793D02*
X13434468Y-18283746D01*
X13434468Y-18283746D02*
X13424944Y-18274222D01*
X13424944Y-18274222D02*
X13405896Y-18264698D01*
X13682087Y-18378984D02*
X13682087Y-18178984D01*
X13767801Y-18378984D02*
X13767801Y-18274222D01*
X13767801Y-18274222D02*
X13758277Y-18255174D01*
X13758277Y-18255174D02*
X13739230Y-18245650D01*
X13739230Y-18245650D02*
X13710658Y-18245650D01*
X13710658Y-18245650D02*
X13691610Y-18255174D01*
X13691610Y-18255174D02*
X13682087Y-18264698D01*
X13891610Y-18378984D02*
X13872563Y-18369460D01*
X13872563Y-18369460D02*
X13863039Y-18359936D01*
X13863039Y-18359936D02*
X13853515Y-18340889D01*
X13853515Y-18340889D02*
X13853515Y-18283746D01*
X13853515Y-18283746D02*
X13863039Y-18264698D01*
X13863039Y-18264698D02*
X13872563Y-18255174D01*
X13872563Y-18255174D02*
X13891610Y-18245650D01*
X13891610Y-18245650D02*
X13920182Y-18245650D01*
X13920182Y-18245650D02*
X13939230Y-18255174D01*
X13939230Y-18255174D02*
X13948753Y-18264698D01*
X13948753Y-18264698D02*
X13958277Y-18283746D01*
X13958277Y-18283746D02*
X13958277Y-18340889D01*
X13958277Y-18340889D02*
X13948753Y-18359936D01*
X13948753Y-18359936D02*
X13939230Y-18369460D01*
X13939230Y-18369460D02*
X13920182Y-18378984D01*
X13920182Y-18378984D02*
X13891610Y-18378984D01*
X14072563Y-18378984D02*
X14053515Y-18369460D01*
X14053515Y-18369460D02*
X14043991Y-18350412D01*
X14043991Y-18350412D02*
X14043991Y-18178984D01*
X14224944Y-18369460D02*
X14205896Y-18378984D01*
X14205896Y-18378984D02*
X14167801Y-18378984D01*
X14167801Y-18378984D02*
X14148753Y-18369460D01*
X14148753Y-18369460D02*
X14139230Y-18350412D01*
X14139230Y-18350412D02*
X14139230Y-18274222D01*
X14139230Y-18274222D02*
X14148753Y-18255174D01*
X14148753Y-18255174D02*
X14167801Y-18245650D01*
X14167801Y-18245650D02*
X14205896Y-18245650D01*
X14205896Y-18245650D02*
X14224944Y-18255174D01*
X14224944Y-18255174D02*
X14234468Y-18274222D01*
X14234468Y-18274222D02*
X14234468Y-18293270D01*
X14234468Y-18293270D02*
X14139230Y-18312317D01*
X14310658Y-18369460D02*
X14329706Y-18378984D01*
X14329706Y-18378984D02*
X14367801Y-18378984D01*
X14367801Y-18378984D02*
X14386849Y-18369460D01*
X14386849Y-18369460D02*
X14396372Y-18350412D01*
X14396372Y-18350412D02*
X14396372Y-18340889D01*
X14396372Y-18340889D02*
X14386849Y-18321841D01*
X14386849Y-18321841D02*
X14367801Y-18312317D01*
X14367801Y-18312317D02*
X14339230Y-18312317D01*
X14339230Y-18312317D02*
X14320182Y-18302793D01*
X14320182Y-18302793D02*
X14310658Y-18283746D01*
X14310658Y-18283746D02*
X14310658Y-18274222D01*
X14310658Y-18274222D02*
X14320182Y-18255174D01*
X14320182Y-18255174D02*
X14339230Y-18245650D01*
X14339230Y-18245650D02*
X14367801Y-18245650D01*
X14367801Y-18245650D02*
X14386849Y-18255174D01*
X14463039Y-18455174D02*
X14472563Y-18445650D01*
X14472563Y-18445650D02*
X14491611Y-18417079D01*
X14491611Y-18417079D02*
X14501134Y-18398031D01*
X14501134Y-18398031D02*
X14510658Y-18369460D01*
X14510658Y-18369460D02*
X14520182Y-18321841D01*
X14520182Y-18321841D02*
X14520182Y-18283746D01*
X14520182Y-18283746D02*
X14510658Y-18236127D01*
X14510658Y-18236127D02*
X14501134Y-18207555D01*
X14501134Y-18207555D02*
X14491611Y-18188508D01*
X14491611Y-18188508D02*
X14472563Y-18159936D01*
X14472563Y-18159936D02*
X14463039Y-18150412D01*
X9297500Y-18451500D02*
X9497500Y-18651500D01*
X9497500Y-18451500D02*
X9297500Y-18651500D01*
X9397500Y-18451500D02*
X9397500Y-18651500D01*
X9297500Y-18551500D02*
X9497500Y-18551500D01*
X9748753Y-18462031D02*
X9758277Y-18452508D01*
X9758277Y-18452508D02*
X9777324Y-18442984D01*
X9777324Y-18442984D02*
X9824944Y-18442984D01*
X9824944Y-18442984D02*
X9843991Y-18452508D01*
X9843991Y-18452508D02*
X9853515Y-18462031D01*
X9853515Y-18462031D02*
X9863039Y-18481079D01*
X9863039Y-18481079D02*
X9863039Y-18500127D01*
X9863039Y-18500127D02*
X9853515Y-18528698D01*
X9853515Y-18528698D02*
X9739229Y-18642984D01*
X9739229Y-18642984D02*
X9863039Y-18642984D01*
X9948753Y-18623936D02*
X9958277Y-18633460D01*
X9958277Y-18633460D02*
X9948753Y-18642984D01*
X9948753Y-18642984D02*
X9939229Y-18633460D01*
X9939229Y-18633460D02*
X9948753Y-18623936D01*
X9948753Y-18623936D02*
X9948753Y-18642984D01*
X10082086Y-18442984D02*
X10101134Y-18442984D01*
X10101134Y-18442984D02*
X10120182Y-18452508D01*
X10120182Y-18452508D02*
X10129705Y-18462031D01*
X10129705Y-18462031D02*
X10139229Y-18481079D01*
X10139229Y-18481079D02*
X10148753Y-18519174D01*
X10148753Y-18519174D02*
X10148753Y-18566793D01*
X10148753Y-18566793D02*
X10139229Y-18604889D01*
X10139229Y-18604889D02*
X10129705Y-18623936D01*
X10129705Y-18623936D02*
X10120182Y-18633460D01*
X10120182Y-18633460D02*
X10101134Y-18642984D01*
X10101134Y-18642984D02*
X10082086Y-18642984D01*
X10082086Y-18642984D02*
X10063039Y-18633460D01*
X10063039Y-18633460D02*
X10053515Y-18623936D01*
X10053515Y-18623936D02*
X10043991Y-18604889D01*
X10043991Y-18604889D02*
X10034467Y-18566793D01*
X10034467Y-18566793D02*
X10034467Y-18519174D01*
X10034467Y-18519174D02*
X10043991Y-18481079D01*
X10043991Y-18481079D02*
X10053515Y-18462031D01*
X10053515Y-18462031D02*
X10063039Y-18452508D01*
X10063039Y-18452508D02*
X10082086Y-18442984D01*
X10339229Y-18642984D02*
X10224944Y-18642984D01*
X10282086Y-18642984D02*
X10282086Y-18442984D01*
X10282086Y-18442984D02*
X10263039Y-18471555D01*
X10263039Y-18471555D02*
X10243991Y-18490603D01*
X10243991Y-18490603D02*
X10224944Y-18500127D01*
X10463039Y-18442984D02*
X10482086Y-18442984D01*
X10482086Y-18442984D02*
X10501134Y-18452508D01*
X10501134Y-18452508D02*
X10510658Y-18462031D01*
X10510658Y-18462031D02*
X10520182Y-18481079D01*
X10520182Y-18481079D02*
X10529705Y-18519174D01*
X10529705Y-18519174D02*
X10529705Y-18566793D01*
X10529705Y-18566793D02*
X10520182Y-18604889D01*
X10520182Y-18604889D02*
X10510658Y-18623936D01*
X10510658Y-18623936D02*
X10501134Y-18633460D01*
X10501134Y-18633460D02*
X10482086Y-18642984D01*
X10482086Y-18642984D02*
X10463039Y-18642984D01*
X10463039Y-18642984D02*
X10443991Y-18633460D01*
X10443991Y-18633460D02*
X10434467Y-18623936D01*
X10434467Y-18623936D02*
X10424944Y-18604889D01*
X10424944Y-18604889D02*
X10415420Y-18566793D01*
X10415420Y-18566793D02*
X10415420Y-18519174D01*
X10415420Y-18519174D02*
X10424944Y-18481079D01*
X10424944Y-18481079D02*
X10434467Y-18462031D01*
X10434467Y-18462031D02*
X10443991Y-18452508D01*
X10443991Y-18452508D02*
X10463039Y-18442984D01*
X10615420Y-18642984D02*
X10615420Y-18509650D01*
X10615420Y-18528698D02*
X10624944Y-18519174D01*
X10624944Y-18519174D02*
X10643991Y-18509650D01*
X10643991Y-18509650D02*
X10672563Y-18509650D01*
X10672563Y-18509650D02*
X10691610Y-18519174D01*
X10691610Y-18519174D02*
X10701134Y-18538222D01*
X10701134Y-18538222D02*
X10701134Y-18642984D01*
X10701134Y-18538222D02*
X10710658Y-18519174D01*
X10710658Y-18519174D02*
X10729705Y-18509650D01*
X10729705Y-18509650D02*
X10758277Y-18509650D01*
X10758277Y-18509650D02*
X10777325Y-18519174D01*
X10777325Y-18519174D02*
X10786848Y-18538222D01*
X10786848Y-18538222D02*
X10786848Y-18642984D01*
X10882086Y-18642984D02*
X10882086Y-18509650D01*
X10882086Y-18528698D02*
X10891610Y-18519174D01*
X10891610Y-18519174D02*
X10910658Y-18509650D01*
X10910658Y-18509650D02*
X10939229Y-18509650D01*
X10939229Y-18509650D02*
X10958277Y-18519174D01*
X10958277Y-18519174D02*
X10967801Y-18538222D01*
X10967801Y-18538222D02*
X10967801Y-18642984D01*
X10967801Y-18538222D02*
X10977325Y-18519174D01*
X10977325Y-18519174D02*
X10996372Y-18509650D01*
X10996372Y-18509650D02*
X11024944Y-18509650D01*
X11024944Y-18509650D02*
X11043991Y-18519174D01*
X11043991Y-18519174D02*
X11053515Y-18538222D01*
X11053515Y-18538222D02*
X11053515Y-18642984D01*
X11443991Y-18433460D02*
X11272563Y-18690603D01*
X11701134Y-18442984D02*
X11720182Y-18442984D01*
X11720182Y-18442984D02*
X11739229Y-18452508D01*
X11739229Y-18452508D02*
X11748753Y-18462031D01*
X11748753Y-18462031D02*
X11758277Y-18481079D01*
X11758277Y-18481079D02*
X11767801Y-18519174D01*
X11767801Y-18519174D02*
X11767801Y-18566793D01*
X11767801Y-18566793D02*
X11758277Y-18604889D01*
X11758277Y-18604889D02*
X11748753Y-18623936D01*
X11748753Y-18623936D02*
X11739229Y-18633460D01*
X11739229Y-18633460D02*
X11720182Y-18642984D01*
X11720182Y-18642984D02*
X11701134Y-18642984D01*
X11701134Y-18642984D02*
X11682086Y-18633460D01*
X11682086Y-18633460D02*
X11672563Y-18623936D01*
X11672563Y-18623936D02*
X11663039Y-18604889D01*
X11663039Y-18604889D02*
X11653515Y-18566793D01*
X11653515Y-18566793D02*
X11653515Y-18519174D01*
X11653515Y-18519174D02*
X11663039Y-18481079D01*
X11663039Y-18481079D02*
X11672563Y-18462031D01*
X11672563Y-18462031D02*
X11682086Y-18452508D01*
X11682086Y-18452508D02*
X11701134Y-18442984D01*
X11853515Y-18623936D02*
X11863039Y-18633460D01*
X11863039Y-18633460D02*
X11853515Y-18642984D01*
X11853515Y-18642984D02*
X11843991Y-18633460D01*
X11843991Y-18633460D02*
X11853515Y-18623936D01*
X11853515Y-18623936D02*
X11853515Y-18642984D01*
X11986848Y-18442984D02*
X12005896Y-18442984D01*
X12005896Y-18442984D02*
X12024944Y-18452508D01*
X12024944Y-18452508D02*
X12034467Y-18462031D01*
X12034467Y-18462031D02*
X12043991Y-18481079D01*
X12043991Y-18481079D02*
X12053515Y-18519174D01*
X12053515Y-18519174D02*
X12053515Y-18566793D01*
X12053515Y-18566793D02*
X12043991Y-18604889D01*
X12043991Y-18604889D02*
X12034467Y-18623936D01*
X12034467Y-18623936D02*
X12024944Y-18633460D01*
X12024944Y-18633460D02*
X12005896Y-18642984D01*
X12005896Y-18642984D02*
X11986848Y-18642984D01*
X11986848Y-18642984D02*
X11967801Y-18633460D01*
X11967801Y-18633460D02*
X11958277Y-18623936D01*
X11958277Y-18623936D02*
X11948753Y-18604889D01*
X11948753Y-18604889D02*
X11939229Y-18566793D01*
X11939229Y-18566793D02*
X11939229Y-18519174D01*
X11939229Y-18519174D02*
X11948753Y-18481079D01*
X11948753Y-18481079D02*
X11958277Y-18462031D01*
X11958277Y-18462031D02*
X11967801Y-18452508D01*
X11967801Y-18452508D02*
X11986848Y-18442984D01*
X12120182Y-18442984D02*
X12253515Y-18442984D01*
X12253515Y-18442984D02*
X12167801Y-18642984D01*
X12339229Y-18642984D02*
X12377325Y-18642984D01*
X12377325Y-18642984D02*
X12396372Y-18633460D01*
X12396372Y-18633460D02*
X12405896Y-18623936D01*
X12405896Y-18623936D02*
X12424944Y-18595365D01*
X12424944Y-18595365D02*
X12434467Y-18557270D01*
X12434467Y-18557270D02*
X12434467Y-18481079D01*
X12434467Y-18481079D02*
X12424944Y-18462031D01*
X12424944Y-18462031D02*
X12415420Y-18452508D01*
X12415420Y-18452508D02*
X12396372Y-18442984D01*
X12396372Y-18442984D02*
X12358277Y-18442984D01*
X12358277Y-18442984D02*
X12339229Y-18452508D01*
X12339229Y-18452508D02*
X12329706Y-18462031D01*
X12329706Y-18462031D02*
X12320182Y-18481079D01*
X12320182Y-18481079D02*
X12320182Y-18528698D01*
X12320182Y-18528698D02*
X12329706Y-18547746D01*
X12329706Y-18547746D02*
X12339229Y-18557270D01*
X12339229Y-18557270D02*
X12358277Y-18566793D01*
X12358277Y-18566793D02*
X12396372Y-18566793D01*
X12396372Y-18566793D02*
X12415420Y-18557270D01*
X12415420Y-18557270D02*
X12424944Y-18547746D01*
X12424944Y-18547746D02*
X12434467Y-18528698D01*
X12624944Y-18642984D02*
X12510658Y-18642984D01*
X12567801Y-18642984D02*
X12567801Y-18442984D01*
X12567801Y-18442984D02*
X12548753Y-18471555D01*
X12548753Y-18471555D02*
X12529706Y-18490603D01*
X12529706Y-18490603D02*
X12510658Y-18500127D01*
X12701134Y-18442984D02*
X12701134Y-18481079D01*
X12777325Y-18442984D02*
X12777325Y-18481079D01*
X13072563Y-18719174D02*
X13063039Y-18709650D01*
X13063039Y-18709650D02*
X13043991Y-18681079D01*
X13043991Y-18681079D02*
X13034468Y-18662031D01*
X13034468Y-18662031D02*
X13024944Y-18633460D01*
X13024944Y-18633460D02*
X13015420Y-18585841D01*
X13015420Y-18585841D02*
X13015420Y-18547746D01*
X13015420Y-18547746D02*
X13024944Y-18500127D01*
X13024944Y-18500127D02*
X13034468Y-18471555D01*
X13034468Y-18471555D02*
X13043991Y-18452508D01*
X13043991Y-18452508D02*
X13063039Y-18423936D01*
X13063039Y-18423936D02*
X13072563Y-18414412D01*
X13234468Y-18509650D02*
X13234468Y-18642984D01*
X13186848Y-18433460D02*
X13139229Y-18576317D01*
X13139229Y-18576317D02*
X13263039Y-18576317D01*
X13491610Y-18642984D02*
X13491610Y-18442984D01*
X13577325Y-18642984D02*
X13577325Y-18538222D01*
X13577325Y-18538222D02*
X13567801Y-18519174D01*
X13567801Y-18519174D02*
X13548753Y-18509650D01*
X13548753Y-18509650D02*
X13520182Y-18509650D01*
X13520182Y-18509650D02*
X13501134Y-18519174D01*
X13501134Y-18519174D02*
X13491610Y-18528698D01*
X13701134Y-18642984D02*
X13682087Y-18633460D01*
X13682087Y-18633460D02*
X13672563Y-18623936D01*
X13672563Y-18623936D02*
X13663039Y-18604889D01*
X13663039Y-18604889D02*
X13663039Y-18547746D01*
X13663039Y-18547746D02*
X13672563Y-18528698D01*
X13672563Y-18528698D02*
X13682087Y-18519174D01*
X13682087Y-18519174D02*
X13701134Y-18509650D01*
X13701134Y-18509650D02*
X13729706Y-18509650D01*
X13729706Y-18509650D02*
X13748753Y-18519174D01*
X13748753Y-18519174D02*
X13758277Y-18528698D01*
X13758277Y-18528698D02*
X13767801Y-18547746D01*
X13767801Y-18547746D02*
X13767801Y-18604889D01*
X13767801Y-18604889D02*
X13758277Y-18623936D01*
X13758277Y-18623936D02*
X13748753Y-18633460D01*
X13748753Y-18633460D02*
X13729706Y-18642984D01*
X13729706Y-18642984D02*
X13701134Y-18642984D01*
X13882087Y-18642984D02*
X13863039Y-18633460D01*
X13863039Y-18633460D02*
X13853515Y-18614412D01*
X13853515Y-18614412D02*
X13853515Y-18442984D01*
X14034468Y-18633460D02*
X14015420Y-18642984D01*
X14015420Y-18642984D02*
X13977325Y-18642984D01*
X13977325Y-18642984D02*
X13958277Y-18633460D01*
X13958277Y-18633460D02*
X13948753Y-18614412D01*
X13948753Y-18614412D02*
X13948753Y-18538222D01*
X13948753Y-18538222D02*
X13958277Y-18519174D01*
X13958277Y-18519174D02*
X13977325Y-18509650D01*
X13977325Y-18509650D02*
X14015420Y-18509650D01*
X14015420Y-18509650D02*
X14034468Y-18519174D01*
X14034468Y-18519174D02*
X14043991Y-18538222D01*
X14043991Y-18538222D02*
X14043991Y-18557270D01*
X14043991Y-18557270D02*
X13948753Y-18576317D01*
X14120182Y-18633460D02*
X14139230Y-18642984D01*
X14139230Y-18642984D02*
X14177325Y-18642984D01*
X14177325Y-18642984D02*
X14196372Y-18633460D01*
X14196372Y-18633460D02*
X14205896Y-18614412D01*
X14205896Y-18614412D02*
X14205896Y-18604889D01*
X14205896Y-18604889D02*
X14196372Y-18585841D01*
X14196372Y-18585841D02*
X14177325Y-18576317D01*
X14177325Y-18576317D02*
X14148753Y-18576317D01*
X14148753Y-18576317D02*
X14129706Y-18566793D01*
X14129706Y-18566793D02*
X14120182Y-18547746D01*
X14120182Y-18547746D02*
X14120182Y-18538222D01*
X14120182Y-18538222D02*
X14129706Y-18519174D01*
X14129706Y-18519174D02*
X14148753Y-18509650D01*
X14148753Y-18509650D02*
X14177325Y-18509650D01*
X14177325Y-18509650D02*
X14196372Y-18519174D01*
X14272563Y-18719174D02*
X14282087Y-18709650D01*
X14282087Y-18709650D02*
X14301134Y-18681079D01*
X14301134Y-18681079D02*
X14310658Y-18662031D01*
X14310658Y-18662031D02*
X14320182Y-18633460D01*
X14320182Y-18633460D02*
X14329706Y-18585841D01*
X14329706Y-18585841D02*
X14329706Y-18547746D01*
X14329706Y-18547746D02*
X14320182Y-18500127D01*
X14320182Y-18500127D02*
X14310658Y-18471555D01*
X14310658Y-18471555D02*
X14301134Y-18452508D01*
X14301134Y-18452508D02*
X14282087Y-18423936D01*
X14282087Y-18423936D02*
X14272563Y-18414412D01*
X9297500Y-18771500D02*
X9497500Y-18971500D01*
X9497500Y-18771500D02*
X9297500Y-18971500D01*
X9468211Y-18942211D02*
X9468211Y-18800789D01*
X9326789Y-18800789D01*
X9326789Y-18942211D01*
X9468211Y-18942211D01*
X9748753Y-18782031D02*
X9758277Y-18772508D01*
X9758277Y-18772508D02*
X9777324Y-18762984D01*
X9777324Y-18762984D02*
X9824944Y-18762984D01*
X9824944Y-18762984D02*
X9843991Y-18772508D01*
X9843991Y-18772508D02*
X9853515Y-18782031D01*
X9853515Y-18782031D02*
X9863039Y-18801079D01*
X9863039Y-18801079D02*
X9863039Y-18820127D01*
X9863039Y-18820127D02*
X9853515Y-18848698D01*
X9853515Y-18848698D02*
X9739229Y-18962984D01*
X9739229Y-18962984D02*
X9863039Y-18962984D01*
X9948753Y-18943936D02*
X9958277Y-18953460D01*
X9958277Y-18953460D02*
X9948753Y-18962984D01*
X9948753Y-18962984D02*
X9939229Y-18953460D01*
X9939229Y-18953460D02*
X9948753Y-18943936D01*
X9948753Y-18943936D02*
X9948753Y-18962984D01*
X10024944Y-18762984D02*
X10148753Y-18762984D01*
X10148753Y-18762984D02*
X10082086Y-18839174D01*
X10082086Y-18839174D02*
X10110658Y-18839174D01*
X10110658Y-18839174D02*
X10129705Y-18848698D01*
X10129705Y-18848698D02*
X10139229Y-18858222D01*
X10139229Y-18858222D02*
X10148753Y-18877270D01*
X10148753Y-18877270D02*
X10148753Y-18924889D01*
X10148753Y-18924889D02*
X10139229Y-18943936D01*
X10139229Y-18943936D02*
X10129705Y-18953460D01*
X10129705Y-18953460D02*
X10110658Y-18962984D01*
X10110658Y-18962984D02*
X10053515Y-18962984D01*
X10053515Y-18962984D02*
X10034467Y-18953460D01*
X10034467Y-18953460D02*
X10024944Y-18943936D01*
X10215420Y-18762984D02*
X10339229Y-18762984D01*
X10339229Y-18762984D02*
X10272563Y-18839174D01*
X10272563Y-18839174D02*
X10301134Y-18839174D01*
X10301134Y-18839174D02*
X10320182Y-18848698D01*
X10320182Y-18848698D02*
X10329705Y-18858222D01*
X10329705Y-18858222D02*
X10339229Y-18877270D01*
X10339229Y-18877270D02*
X10339229Y-18924889D01*
X10339229Y-18924889D02*
X10329705Y-18943936D01*
X10329705Y-18943936D02*
X10320182Y-18953460D01*
X10320182Y-18953460D02*
X10301134Y-18962984D01*
X10301134Y-18962984D02*
X10243991Y-18962984D01*
X10243991Y-18962984D02*
X10224944Y-18953460D01*
X10224944Y-18953460D02*
X10215420Y-18943936D01*
X10463039Y-18762984D02*
X10482086Y-18762984D01*
X10482086Y-18762984D02*
X10501134Y-18772508D01*
X10501134Y-18772508D02*
X10510658Y-18782031D01*
X10510658Y-18782031D02*
X10520182Y-18801079D01*
X10520182Y-18801079D02*
X10529705Y-18839174D01*
X10529705Y-18839174D02*
X10529705Y-18886793D01*
X10529705Y-18886793D02*
X10520182Y-18924889D01*
X10520182Y-18924889D02*
X10510658Y-18943936D01*
X10510658Y-18943936D02*
X10501134Y-18953460D01*
X10501134Y-18953460D02*
X10482086Y-18962984D01*
X10482086Y-18962984D02*
X10463039Y-18962984D01*
X10463039Y-18962984D02*
X10443991Y-18953460D01*
X10443991Y-18953460D02*
X10434467Y-18943936D01*
X10434467Y-18943936D02*
X10424944Y-18924889D01*
X10424944Y-18924889D02*
X10415420Y-18886793D01*
X10415420Y-18886793D02*
X10415420Y-18839174D01*
X10415420Y-18839174D02*
X10424944Y-18801079D01*
X10424944Y-18801079D02*
X10434467Y-18782031D01*
X10434467Y-18782031D02*
X10443991Y-18772508D01*
X10443991Y-18772508D02*
X10463039Y-18762984D01*
X10615420Y-18962984D02*
X10615420Y-18829650D01*
X10615420Y-18848698D02*
X10624944Y-18839174D01*
X10624944Y-18839174D02*
X10643991Y-18829650D01*
X10643991Y-18829650D02*
X10672563Y-18829650D01*
X10672563Y-18829650D02*
X10691610Y-18839174D01*
X10691610Y-18839174D02*
X10701134Y-18858222D01*
X10701134Y-18858222D02*
X10701134Y-18962984D01*
X10701134Y-18858222D02*
X10710658Y-18839174D01*
X10710658Y-18839174D02*
X10729705Y-18829650D01*
X10729705Y-18829650D02*
X10758277Y-18829650D01*
X10758277Y-18829650D02*
X10777325Y-18839174D01*
X10777325Y-18839174D02*
X10786848Y-18858222D01*
X10786848Y-18858222D02*
X10786848Y-18962984D01*
X10882086Y-18962984D02*
X10882086Y-18829650D01*
X10882086Y-18848698D02*
X10891610Y-18839174D01*
X10891610Y-18839174D02*
X10910658Y-18829650D01*
X10910658Y-18829650D02*
X10939229Y-18829650D01*
X10939229Y-18829650D02*
X10958277Y-18839174D01*
X10958277Y-18839174D02*
X10967801Y-18858222D01*
X10967801Y-18858222D02*
X10967801Y-18962984D01*
X10967801Y-18858222D02*
X10977325Y-18839174D01*
X10977325Y-18839174D02*
X10996372Y-18829650D01*
X10996372Y-18829650D02*
X11024944Y-18829650D01*
X11024944Y-18829650D02*
X11043991Y-18839174D01*
X11043991Y-18839174D02*
X11053515Y-18858222D01*
X11053515Y-18858222D02*
X11053515Y-18962984D01*
X11443991Y-18753460D02*
X11272563Y-19010603D01*
X11701134Y-18762984D02*
X11720182Y-18762984D01*
X11720182Y-18762984D02*
X11739229Y-18772508D01*
X11739229Y-18772508D02*
X11748753Y-18782031D01*
X11748753Y-18782031D02*
X11758277Y-18801079D01*
X11758277Y-18801079D02*
X11767801Y-18839174D01*
X11767801Y-18839174D02*
X11767801Y-18886793D01*
X11767801Y-18886793D02*
X11758277Y-18924889D01*
X11758277Y-18924889D02*
X11748753Y-18943936D01*
X11748753Y-18943936D02*
X11739229Y-18953460D01*
X11739229Y-18953460D02*
X11720182Y-18962984D01*
X11720182Y-18962984D02*
X11701134Y-18962984D01*
X11701134Y-18962984D02*
X11682086Y-18953460D01*
X11682086Y-18953460D02*
X11672563Y-18943936D01*
X11672563Y-18943936D02*
X11663039Y-18924889D01*
X11663039Y-18924889D02*
X11653515Y-18886793D01*
X11653515Y-18886793D02*
X11653515Y-18839174D01*
X11653515Y-18839174D02*
X11663039Y-18801079D01*
X11663039Y-18801079D02*
X11672563Y-18782031D01*
X11672563Y-18782031D02*
X11682086Y-18772508D01*
X11682086Y-18772508D02*
X11701134Y-18762984D01*
X11853515Y-18943936D02*
X11863039Y-18953460D01*
X11863039Y-18953460D02*
X11853515Y-18962984D01*
X11853515Y-18962984D02*
X11843991Y-18953460D01*
X11843991Y-18953460D02*
X11853515Y-18943936D01*
X11853515Y-18943936D02*
X11853515Y-18962984D01*
X11986848Y-18762984D02*
X12005896Y-18762984D01*
X12005896Y-18762984D02*
X12024944Y-18772508D01*
X12024944Y-18772508D02*
X12034467Y-18782031D01*
X12034467Y-18782031D02*
X12043991Y-18801079D01*
X12043991Y-18801079D02*
X12053515Y-18839174D01*
X12053515Y-18839174D02*
X12053515Y-18886793D01*
X12053515Y-18886793D02*
X12043991Y-18924889D01*
X12043991Y-18924889D02*
X12034467Y-18943936D01*
X12034467Y-18943936D02*
X12024944Y-18953460D01*
X12024944Y-18953460D02*
X12005896Y-18962984D01*
X12005896Y-18962984D02*
X11986848Y-18962984D01*
X11986848Y-18962984D02*
X11967801Y-18953460D01*
X11967801Y-18953460D02*
X11958277Y-18943936D01*
X11958277Y-18943936D02*
X11948753Y-18924889D01*
X11948753Y-18924889D02*
X11939229Y-18886793D01*
X11939229Y-18886793D02*
X11939229Y-18839174D01*
X11939229Y-18839174D02*
X11948753Y-18801079D01*
X11948753Y-18801079D02*
X11958277Y-18782031D01*
X11958277Y-18782031D02*
X11967801Y-18772508D01*
X11967801Y-18772508D02*
X11986848Y-18762984D01*
X12148753Y-18962984D02*
X12186848Y-18962984D01*
X12186848Y-18962984D02*
X12205896Y-18953460D01*
X12205896Y-18953460D02*
X12215420Y-18943936D01*
X12215420Y-18943936D02*
X12234467Y-18915365D01*
X12234467Y-18915365D02*
X12243991Y-18877270D01*
X12243991Y-18877270D02*
X12243991Y-18801079D01*
X12243991Y-18801079D02*
X12234467Y-18782031D01*
X12234467Y-18782031D02*
X12224944Y-18772508D01*
X12224944Y-18772508D02*
X12205896Y-18762984D01*
X12205896Y-18762984D02*
X12167801Y-18762984D01*
X12167801Y-18762984D02*
X12148753Y-18772508D01*
X12148753Y-18772508D02*
X12139229Y-18782031D01*
X12139229Y-18782031D02*
X12129706Y-18801079D01*
X12129706Y-18801079D02*
X12129706Y-18848698D01*
X12129706Y-18848698D02*
X12139229Y-18867746D01*
X12139229Y-18867746D02*
X12148753Y-18877270D01*
X12148753Y-18877270D02*
X12167801Y-18886793D01*
X12167801Y-18886793D02*
X12205896Y-18886793D01*
X12205896Y-18886793D02*
X12224944Y-18877270D01*
X12224944Y-18877270D02*
X12234467Y-18867746D01*
X12234467Y-18867746D02*
X12243991Y-18848698D01*
X12434467Y-18962984D02*
X12320182Y-18962984D01*
X12377325Y-18962984D02*
X12377325Y-18762984D01*
X12377325Y-18762984D02*
X12358277Y-18791555D01*
X12358277Y-18791555D02*
X12339229Y-18810603D01*
X12339229Y-18810603D02*
X12320182Y-18820127D01*
X12501134Y-18762984D02*
X12634467Y-18762984D01*
X12634467Y-18762984D02*
X12548753Y-18962984D01*
X12701134Y-18762984D02*
X12701134Y-18801079D01*
X12777325Y-18762984D02*
X12777325Y-18801079D01*
X13072563Y-19039174D02*
X13063039Y-19029650D01*
X13063039Y-19029650D02*
X13043991Y-19001079D01*
X13043991Y-19001079D02*
X13034468Y-18982031D01*
X13034468Y-18982031D02*
X13024944Y-18953460D01*
X13024944Y-18953460D02*
X13015420Y-18905841D01*
X13015420Y-18905841D02*
X13015420Y-18867746D01*
X13015420Y-18867746D02*
X13024944Y-18820127D01*
X13024944Y-18820127D02*
X13034468Y-18791555D01*
X13034468Y-18791555D02*
X13043991Y-18772508D01*
X13043991Y-18772508D02*
X13063039Y-18743936D01*
X13063039Y-18743936D02*
X13072563Y-18734412D01*
X13139229Y-18782031D02*
X13148753Y-18772508D01*
X13148753Y-18772508D02*
X13167801Y-18762984D01*
X13167801Y-18762984D02*
X13215420Y-18762984D01*
X13215420Y-18762984D02*
X13234468Y-18772508D01*
X13234468Y-18772508D02*
X13243991Y-18782031D01*
X13243991Y-18782031D02*
X13253515Y-18801079D01*
X13253515Y-18801079D02*
X13253515Y-18820127D01*
X13253515Y-18820127D02*
X13243991Y-18848698D01*
X13243991Y-18848698D02*
X13129706Y-18962984D01*
X13129706Y-18962984D02*
X13253515Y-18962984D01*
X13491610Y-18962984D02*
X13491610Y-18762984D01*
X13577325Y-18962984D02*
X13577325Y-18858222D01*
X13577325Y-18858222D02*
X13567801Y-18839174D01*
X13567801Y-18839174D02*
X13548753Y-18829650D01*
X13548753Y-18829650D02*
X13520182Y-18829650D01*
X13520182Y-18829650D02*
X13501134Y-18839174D01*
X13501134Y-18839174D02*
X13491610Y-18848698D01*
X13701134Y-18962984D02*
X13682087Y-18953460D01*
X13682087Y-18953460D02*
X13672563Y-18943936D01*
X13672563Y-18943936D02*
X13663039Y-18924889D01*
X13663039Y-18924889D02*
X13663039Y-18867746D01*
X13663039Y-18867746D02*
X13672563Y-18848698D01*
X13672563Y-18848698D02*
X13682087Y-18839174D01*
X13682087Y-18839174D02*
X13701134Y-18829650D01*
X13701134Y-18829650D02*
X13729706Y-18829650D01*
X13729706Y-18829650D02*
X13748753Y-18839174D01*
X13748753Y-18839174D02*
X13758277Y-18848698D01*
X13758277Y-18848698D02*
X13767801Y-18867746D01*
X13767801Y-18867746D02*
X13767801Y-18924889D01*
X13767801Y-18924889D02*
X13758277Y-18943936D01*
X13758277Y-18943936D02*
X13748753Y-18953460D01*
X13748753Y-18953460D02*
X13729706Y-18962984D01*
X13729706Y-18962984D02*
X13701134Y-18962984D01*
X13882087Y-18962984D02*
X13863039Y-18953460D01*
X13863039Y-18953460D02*
X13853515Y-18934412D01*
X13853515Y-18934412D02*
X13853515Y-18762984D01*
X14034468Y-18953460D02*
X14015420Y-18962984D01*
X14015420Y-18962984D02*
X13977325Y-18962984D01*
X13977325Y-18962984D02*
X13958277Y-18953460D01*
X13958277Y-18953460D02*
X13948753Y-18934412D01*
X13948753Y-18934412D02*
X13948753Y-18858222D01*
X13948753Y-18858222D02*
X13958277Y-18839174D01*
X13958277Y-18839174D02*
X13977325Y-18829650D01*
X13977325Y-18829650D02*
X14015420Y-18829650D01*
X14015420Y-18829650D02*
X14034468Y-18839174D01*
X14034468Y-18839174D02*
X14043991Y-18858222D01*
X14043991Y-18858222D02*
X14043991Y-18877270D01*
X14043991Y-18877270D02*
X13948753Y-18896317D01*
X14120182Y-18953460D02*
X14139230Y-18962984D01*
X14139230Y-18962984D02*
X14177325Y-18962984D01*
X14177325Y-18962984D02*
X14196372Y-18953460D01*
X14196372Y-18953460D02*
X14205896Y-18934412D01*
X14205896Y-18934412D02*
X14205896Y-18924889D01*
X14205896Y-18924889D02*
X14196372Y-18905841D01*
X14196372Y-18905841D02*
X14177325Y-18896317D01*
X14177325Y-18896317D02*
X14148753Y-18896317D01*
X14148753Y-18896317D02*
X14129706Y-18886793D01*
X14129706Y-18886793D02*
X14120182Y-18867746D01*
X14120182Y-18867746D02*
X14120182Y-18858222D01*
X14120182Y-18858222D02*
X14129706Y-18839174D01*
X14129706Y-18839174D02*
X14148753Y-18829650D01*
X14148753Y-18829650D02*
X14177325Y-18829650D01*
X14177325Y-18829650D02*
X14196372Y-18839174D01*
X14272563Y-19039174D02*
X14282087Y-19029650D01*
X14282087Y-19029650D02*
X14301134Y-19001079D01*
X14301134Y-19001079D02*
X14310658Y-18982031D01*
X14310658Y-18982031D02*
X14320182Y-18953460D01*
X14320182Y-18953460D02*
X14329706Y-18905841D01*
X14329706Y-18905841D02*
X14329706Y-18867746D01*
X14329706Y-18867746D02*
X14320182Y-18820127D01*
X14320182Y-18820127D02*
X14310658Y-18791555D01*
X14310658Y-18791555D02*
X14301134Y-18772508D01*
X14301134Y-18772508D02*
X14282087Y-18743936D01*
X14282087Y-18743936D02*
X14272563Y-18734412D01*
X9297500Y-19091500D02*
X9497500Y-19291500D01*
X9497500Y-19091500D02*
X9297500Y-19291500D01*
X9397500Y-19291500D02*
X9497500Y-19191500D01*
X9397500Y-19091500D01*
X9297500Y-19191500D01*
X9397500Y-19291500D01*
X9748753Y-19102031D02*
X9758277Y-19092508D01*
X9758277Y-19092508D02*
X9777324Y-19082984D01*
X9777324Y-19082984D02*
X9824944Y-19082984D01*
X9824944Y-19082984D02*
X9843991Y-19092508D01*
X9843991Y-19092508D02*
X9853515Y-19102031D01*
X9853515Y-19102031D02*
X9863039Y-19121079D01*
X9863039Y-19121079D02*
X9863039Y-19140127D01*
X9863039Y-19140127D02*
X9853515Y-19168698D01*
X9853515Y-19168698D02*
X9739229Y-19282984D01*
X9739229Y-19282984D02*
X9863039Y-19282984D01*
X9948753Y-19263936D02*
X9958277Y-19273460D01*
X9958277Y-19273460D02*
X9948753Y-19282984D01*
X9948753Y-19282984D02*
X9939229Y-19273460D01*
X9939229Y-19273460D02*
X9948753Y-19263936D01*
X9948753Y-19263936D02*
X9948753Y-19282984D01*
X10139229Y-19082984D02*
X10043991Y-19082984D01*
X10043991Y-19082984D02*
X10034467Y-19178222D01*
X10034467Y-19178222D02*
X10043991Y-19168698D01*
X10043991Y-19168698D02*
X10063039Y-19159174D01*
X10063039Y-19159174D02*
X10110658Y-19159174D01*
X10110658Y-19159174D02*
X10129705Y-19168698D01*
X10129705Y-19168698D02*
X10139229Y-19178222D01*
X10139229Y-19178222D02*
X10148753Y-19197270D01*
X10148753Y-19197270D02*
X10148753Y-19244889D01*
X10148753Y-19244889D02*
X10139229Y-19263936D01*
X10139229Y-19263936D02*
X10129705Y-19273460D01*
X10129705Y-19273460D02*
X10110658Y-19282984D01*
X10110658Y-19282984D02*
X10063039Y-19282984D01*
X10063039Y-19282984D02*
X10043991Y-19273460D01*
X10043991Y-19273460D02*
X10034467Y-19263936D01*
X10272563Y-19082984D02*
X10291610Y-19082984D01*
X10291610Y-19082984D02*
X10310658Y-19092508D01*
X10310658Y-19092508D02*
X10320182Y-19102031D01*
X10320182Y-19102031D02*
X10329705Y-19121079D01*
X10329705Y-19121079D02*
X10339229Y-19159174D01*
X10339229Y-19159174D02*
X10339229Y-19206793D01*
X10339229Y-19206793D02*
X10329705Y-19244889D01*
X10329705Y-19244889D02*
X10320182Y-19263936D01*
X10320182Y-19263936D02*
X10310658Y-19273460D01*
X10310658Y-19273460D02*
X10291610Y-19282984D01*
X10291610Y-19282984D02*
X10272563Y-19282984D01*
X10272563Y-19282984D02*
X10253515Y-19273460D01*
X10253515Y-19273460D02*
X10243991Y-19263936D01*
X10243991Y-19263936D02*
X10234467Y-19244889D01*
X10234467Y-19244889D02*
X10224944Y-19206793D01*
X10224944Y-19206793D02*
X10224944Y-19159174D01*
X10224944Y-19159174D02*
X10234467Y-19121079D01*
X10234467Y-19121079D02*
X10243991Y-19102031D01*
X10243991Y-19102031D02*
X10253515Y-19092508D01*
X10253515Y-19092508D02*
X10272563Y-19082984D01*
X10463039Y-19082984D02*
X10482086Y-19082984D01*
X10482086Y-19082984D02*
X10501134Y-19092508D01*
X10501134Y-19092508D02*
X10510658Y-19102031D01*
X10510658Y-19102031D02*
X10520182Y-19121079D01*
X10520182Y-19121079D02*
X10529705Y-19159174D01*
X10529705Y-19159174D02*
X10529705Y-19206793D01*
X10529705Y-19206793D02*
X10520182Y-19244889D01*
X10520182Y-19244889D02*
X10510658Y-19263936D01*
X10510658Y-19263936D02*
X10501134Y-19273460D01*
X10501134Y-19273460D02*
X10482086Y-19282984D01*
X10482086Y-19282984D02*
X10463039Y-19282984D01*
X10463039Y-19282984D02*
X10443991Y-19273460D01*
X10443991Y-19273460D02*
X10434467Y-19263936D01*
X10434467Y-19263936D02*
X10424944Y-19244889D01*
X10424944Y-19244889D02*
X10415420Y-19206793D01*
X10415420Y-19206793D02*
X10415420Y-19159174D01*
X10415420Y-19159174D02*
X10424944Y-19121079D01*
X10424944Y-19121079D02*
X10434467Y-19102031D01*
X10434467Y-19102031D02*
X10443991Y-19092508D01*
X10443991Y-19092508D02*
X10463039Y-19082984D01*
X10615420Y-19282984D02*
X10615420Y-19149650D01*
X10615420Y-19168698D02*
X10624944Y-19159174D01*
X10624944Y-19159174D02*
X10643991Y-19149650D01*
X10643991Y-19149650D02*
X10672563Y-19149650D01*
X10672563Y-19149650D02*
X10691610Y-19159174D01*
X10691610Y-19159174D02*
X10701134Y-19178222D01*
X10701134Y-19178222D02*
X10701134Y-19282984D01*
X10701134Y-19178222D02*
X10710658Y-19159174D01*
X10710658Y-19159174D02*
X10729705Y-19149650D01*
X10729705Y-19149650D02*
X10758277Y-19149650D01*
X10758277Y-19149650D02*
X10777325Y-19159174D01*
X10777325Y-19159174D02*
X10786848Y-19178222D01*
X10786848Y-19178222D02*
X10786848Y-19282984D01*
X10882086Y-19282984D02*
X10882086Y-19149650D01*
X10882086Y-19168698D02*
X10891610Y-19159174D01*
X10891610Y-19159174D02*
X10910658Y-19149650D01*
X10910658Y-19149650D02*
X10939229Y-19149650D01*
X10939229Y-19149650D02*
X10958277Y-19159174D01*
X10958277Y-19159174D02*
X10967801Y-19178222D01*
X10967801Y-19178222D02*
X10967801Y-19282984D01*
X10967801Y-19178222D02*
X10977325Y-19159174D01*
X10977325Y-19159174D02*
X10996372Y-19149650D01*
X10996372Y-19149650D02*
X11024944Y-19149650D01*
X11024944Y-19149650D02*
X11043991Y-19159174D01*
X11043991Y-19159174D02*
X11053515Y-19178222D01*
X11053515Y-19178222D02*
X11053515Y-19282984D01*
X11443991Y-19073460D02*
X11272563Y-19330603D01*
X11701134Y-19082984D02*
X11720182Y-19082984D01*
X11720182Y-19082984D02*
X11739229Y-19092508D01*
X11739229Y-19092508D02*
X11748753Y-19102031D01*
X11748753Y-19102031D02*
X11758277Y-19121079D01*
X11758277Y-19121079D02*
X11767801Y-19159174D01*
X11767801Y-19159174D02*
X11767801Y-19206793D01*
X11767801Y-19206793D02*
X11758277Y-19244889D01*
X11758277Y-19244889D02*
X11748753Y-19263936D01*
X11748753Y-19263936D02*
X11739229Y-19273460D01*
X11739229Y-19273460D02*
X11720182Y-19282984D01*
X11720182Y-19282984D02*
X11701134Y-19282984D01*
X11701134Y-19282984D02*
X11682086Y-19273460D01*
X11682086Y-19273460D02*
X11672563Y-19263936D01*
X11672563Y-19263936D02*
X11663039Y-19244889D01*
X11663039Y-19244889D02*
X11653515Y-19206793D01*
X11653515Y-19206793D02*
X11653515Y-19159174D01*
X11653515Y-19159174D02*
X11663039Y-19121079D01*
X11663039Y-19121079D02*
X11672563Y-19102031D01*
X11672563Y-19102031D02*
X11682086Y-19092508D01*
X11682086Y-19092508D02*
X11701134Y-19082984D01*
X11853515Y-19263936D02*
X11863039Y-19273460D01*
X11863039Y-19273460D02*
X11853515Y-19282984D01*
X11853515Y-19282984D02*
X11843991Y-19273460D01*
X11843991Y-19273460D02*
X11853515Y-19263936D01*
X11853515Y-19263936D02*
X11853515Y-19282984D01*
X11986848Y-19082984D02*
X12005896Y-19082984D01*
X12005896Y-19082984D02*
X12024944Y-19092508D01*
X12024944Y-19092508D02*
X12034467Y-19102031D01*
X12034467Y-19102031D02*
X12043991Y-19121079D01*
X12043991Y-19121079D02*
X12053515Y-19159174D01*
X12053515Y-19159174D02*
X12053515Y-19206793D01*
X12053515Y-19206793D02*
X12043991Y-19244889D01*
X12043991Y-19244889D02*
X12034467Y-19263936D01*
X12034467Y-19263936D02*
X12024944Y-19273460D01*
X12024944Y-19273460D02*
X12005896Y-19282984D01*
X12005896Y-19282984D02*
X11986848Y-19282984D01*
X11986848Y-19282984D02*
X11967801Y-19273460D01*
X11967801Y-19273460D02*
X11958277Y-19263936D01*
X11958277Y-19263936D02*
X11948753Y-19244889D01*
X11948753Y-19244889D02*
X11939229Y-19206793D01*
X11939229Y-19206793D02*
X11939229Y-19159174D01*
X11939229Y-19159174D02*
X11948753Y-19121079D01*
X11948753Y-19121079D02*
X11958277Y-19102031D01*
X11958277Y-19102031D02*
X11967801Y-19092508D01*
X11967801Y-19092508D02*
X11986848Y-19082984D01*
X12148753Y-19282984D02*
X12186848Y-19282984D01*
X12186848Y-19282984D02*
X12205896Y-19273460D01*
X12205896Y-19273460D02*
X12215420Y-19263936D01*
X12215420Y-19263936D02*
X12234467Y-19235365D01*
X12234467Y-19235365D02*
X12243991Y-19197270D01*
X12243991Y-19197270D02*
X12243991Y-19121079D01*
X12243991Y-19121079D02*
X12234467Y-19102031D01*
X12234467Y-19102031D02*
X12224944Y-19092508D01*
X12224944Y-19092508D02*
X12205896Y-19082984D01*
X12205896Y-19082984D02*
X12167801Y-19082984D01*
X12167801Y-19082984D02*
X12148753Y-19092508D01*
X12148753Y-19092508D02*
X12139229Y-19102031D01*
X12139229Y-19102031D02*
X12129706Y-19121079D01*
X12129706Y-19121079D02*
X12129706Y-19168698D01*
X12129706Y-19168698D02*
X12139229Y-19187746D01*
X12139229Y-19187746D02*
X12148753Y-19197270D01*
X12148753Y-19197270D02*
X12167801Y-19206793D01*
X12167801Y-19206793D02*
X12205896Y-19206793D01*
X12205896Y-19206793D02*
X12224944Y-19197270D01*
X12224944Y-19197270D02*
X12234467Y-19187746D01*
X12234467Y-19187746D02*
X12243991Y-19168698D01*
X12358277Y-19168698D02*
X12339229Y-19159174D01*
X12339229Y-19159174D02*
X12329706Y-19149650D01*
X12329706Y-19149650D02*
X12320182Y-19130603D01*
X12320182Y-19130603D02*
X12320182Y-19121079D01*
X12320182Y-19121079D02*
X12329706Y-19102031D01*
X12329706Y-19102031D02*
X12339229Y-19092508D01*
X12339229Y-19092508D02*
X12358277Y-19082984D01*
X12358277Y-19082984D02*
X12396372Y-19082984D01*
X12396372Y-19082984D02*
X12415420Y-19092508D01*
X12415420Y-19092508D02*
X12424944Y-19102031D01*
X12424944Y-19102031D02*
X12434467Y-19121079D01*
X12434467Y-19121079D02*
X12434467Y-19130603D01*
X12434467Y-19130603D02*
X12424944Y-19149650D01*
X12424944Y-19149650D02*
X12415420Y-19159174D01*
X12415420Y-19159174D02*
X12396372Y-19168698D01*
X12396372Y-19168698D02*
X12358277Y-19168698D01*
X12358277Y-19168698D02*
X12339229Y-19178222D01*
X12339229Y-19178222D02*
X12329706Y-19187746D01*
X12329706Y-19187746D02*
X12320182Y-19206793D01*
X12320182Y-19206793D02*
X12320182Y-19244889D01*
X12320182Y-19244889D02*
X12329706Y-19263936D01*
X12329706Y-19263936D02*
X12339229Y-19273460D01*
X12339229Y-19273460D02*
X12358277Y-19282984D01*
X12358277Y-19282984D02*
X12396372Y-19282984D01*
X12396372Y-19282984D02*
X12415420Y-19273460D01*
X12415420Y-19273460D02*
X12424944Y-19263936D01*
X12424944Y-19263936D02*
X12434467Y-19244889D01*
X12434467Y-19244889D02*
X12434467Y-19206793D01*
X12434467Y-19206793D02*
X12424944Y-19187746D01*
X12424944Y-19187746D02*
X12415420Y-19178222D01*
X12415420Y-19178222D02*
X12396372Y-19168698D01*
X12605896Y-19149650D02*
X12605896Y-19282984D01*
X12558277Y-19073460D02*
X12510658Y-19216317D01*
X12510658Y-19216317D02*
X12634467Y-19216317D01*
X12701134Y-19082984D02*
X12701134Y-19121079D01*
X12777325Y-19082984D02*
X12777325Y-19121079D01*
X13072563Y-19359174D02*
X13063039Y-19349650D01*
X13063039Y-19349650D02*
X13043991Y-19321079D01*
X13043991Y-19321079D02*
X13034468Y-19302031D01*
X13034468Y-19302031D02*
X13024944Y-19273460D01*
X13024944Y-19273460D02*
X13015420Y-19225841D01*
X13015420Y-19225841D02*
X13015420Y-19187746D01*
X13015420Y-19187746D02*
X13024944Y-19140127D01*
X13024944Y-19140127D02*
X13034468Y-19111555D01*
X13034468Y-19111555D02*
X13043991Y-19092508D01*
X13043991Y-19092508D02*
X13063039Y-19063936D01*
X13063039Y-19063936D02*
X13072563Y-19054412D01*
X13139229Y-19102031D02*
X13148753Y-19092508D01*
X13148753Y-19092508D02*
X13167801Y-19082984D01*
X13167801Y-19082984D02*
X13215420Y-19082984D01*
X13215420Y-19082984D02*
X13234468Y-19092508D01*
X13234468Y-19092508D02*
X13243991Y-19102031D01*
X13243991Y-19102031D02*
X13253515Y-19121079D01*
X13253515Y-19121079D02*
X13253515Y-19140127D01*
X13253515Y-19140127D02*
X13243991Y-19168698D01*
X13243991Y-19168698D02*
X13129706Y-19282984D01*
X13129706Y-19282984D02*
X13253515Y-19282984D01*
X13491610Y-19282984D02*
X13491610Y-19082984D01*
X13577325Y-19282984D02*
X13577325Y-19178222D01*
X13577325Y-19178222D02*
X13567801Y-19159174D01*
X13567801Y-19159174D02*
X13548753Y-19149650D01*
X13548753Y-19149650D02*
X13520182Y-19149650D01*
X13520182Y-19149650D02*
X13501134Y-19159174D01*
X13501134Y-19159174D02*
X13491610Y-19168698D01*
X13701134Y-19282984D02*
X13682087Y-19273460D01*
X13682087Y-19273460D02*
X13672563Y-19263936D01*
X13672563Y-19263936D02*
X13663039Y-19244889D01*
X13663039Y-19244889D02*
X13663039Y-19187746D01*
X13663039Y-19187746D02*
X13672563Y-19168698D01*
X13672563Y-19168698D02*
X13682087Y-19159174D01*
X13682087Y-19159174D02*
X13701134Y-19149650D01*
X13701134Y-19149650D02*
X13729706Y-19149650D01*
X13729706Y-19149650D02*
X13748753Y-19159174D01*
X13748753Y-19159174D02*
X13758277Y-19168698D01*
X13758277Y-19168698D02*
X13767801Y-19187746D01*
X13767801Y-19187746D02*
X13767801Y-19244889D01*
X13767801Y-19244889D02*
X13758277Y-19263936D01*
X13758277Y-19263936D02*
X13748753Y-19273460D01*
X13748753Y-19273460D02*
X13729706Y-19282984D01*
X13729706Y-19282984D02*
X13701134Y-19282984D01*
X13882087Y-19282984D02*
X13863039Y-19273460D01*
X13863039Y-19273460D02*
X13853515Y-19254412D01*
X13853515Y-19254412D02*
X13853515Y-19082984D01*
X14034468Y-19273460D02*
X14015420Y-19282984D01*
X14015420Y-19282984D02*
X13977325Y-19282984D01*
X13977325Y-19282984D02*
X13958277Y-19273460D01*
X13958277Y-19273460D02*
X13948753Y-19254412D01*
X13948753Y-19254412D02*
X13948753Y-19178222D01*
X13948753Y-19178222D02*
X13958277Y-19159174D01*
X13958277Y-19159174D02*
X13977325Y-19149650D01*
X13977325Y-19149650D02*
X14015420Y-19149650D01*
X14015420Y-19149650D02*
X14034468Y-19159174D01*
X14034468Y-19159174D02*
X14043991Y-19178222D01*
X14043991Y-19178222D02*
X14043991Y-19197270D01*
X14043991Y-19197270D02*
X13948753Y-19216317D01*
X14120182Y-19273460D02*
X14139230Y-19282984D01*
X14139230Y-19282984D02*
X14177325Y-19282984D01*
X14177325Y-19282984D02*
X14196372Y-19273460D01*
X14196372Y-19273460D02*
X14205896Y-19254412D01*
X14205896Y-19254412D02*
X14205896Y-19244889D01*
X14205896Y-19244889D02*
X14196372Y-19225841D01*
X14196372Y-19225841D02*
X14177325Y-19216317D01*
X14177325Y-19216317D02*
X14148753Y-19216317D01*
X14148753Y-19216317D02*
X14129706Y-19206793D01*
X14129706Y-19206793D02*
X14120182Y-19187746D01*
X14120182Y-19187746D02*
X14120182Y-19178222D01*
X14120182Y-19178222D02*
X14129706Y-19159174D01*
X14129706Y-19159174D02*
X14148753Y-19149650D01*
X14148753Y-19149650D02*
X14177325Y-19149650D01*
X14177325Y-19149650D02*
X14196372Y-19159174D01*
X14272563Y-19359174D02*
X14282087Y-19349650D01*
X14282087Y-19349650D02*
X14301134Y-19321079D01*
X14301134Y-19321079D02*
X14310658Y-19302031D01*
X14310658Y-19302031D02*
X14320182Y-19273460D01*
X14320182Y-19273460D02*
X14329706Y-19225841D01*
X14329706Y-19225841D02*
X14329706Y-19187746D01*
X14329706Y-19187746D02*
X14320182Y-19140127D01*
X14320182Y-19140127D02*
X14310658Y-19111555D01*
X14310658Y-19111555D02*
X14301134Y-19092508D01*
X14301134Y-19092508D02*
X14282087Y-19063936D01*
X14282087Y-19063936D02*
X14272563Y-19054412D01*
M02*
