%TF.GenerationSoftware,KiCad,Pcbnew,8.0.0*%
%TF.CreationDate,2024-10-10T18:55:30+02:00*%
%TF.ProjectId,Profiler energetyczny urz_dze_ IoT,50726f66-696c-4657-9220-656e65726765,rev?*%
%TF.SameCoordinates,Original*%
%TF.FileFunction,Copper,L4,Bot*%
%TF.FilePolarity,Positive*%
%FSLAX46Y46*%
G04 Gerber Fmt 4.6, Leading zero omitted, Abs format (unit mm)*
G04 Created by KiCad (PCBNEW 8.0.0) date 2024-10-10 18:55:30*
%MOMM*%
%LPD*%
G01*
G04 APERTURE LIST*
G04 Aperture macros list*
%AMRoundRect*
0 Rectangle with rounded corners*
0 $1 Rounding radius*
0 $2 $3 $4 $5 $6 $7 $8 $9 X,Y pos of 4 corners*
0 Add a 4 corners polygon primitive as box body*
4,1,4,$2,$3,$4,$5,$6,$7,$8,$9,$2,$3,0*
0 Add four circle primitives for the rounded corners*
1,1,$1+$1,$2,$3*
1,1,$1+$1,$4,$5*
1,1,$1+$1,$6,$7*
1,1,$1+$1,$8,$9*
0 Add four rect primitives between the rounded corners*
20,1,$1+$1,$2,$3,$4,$5,0*
20,1,$1+$1,$4,$5,$6,$7,0*
20,1,$1+$1,$6,$7,$8,$9,0*
20,1,$1+$1,$8,$9,$2,$3,0*%
%AMFreePoly0*
4,1,6,1.000000,0.000000,0.500000,-0.750000,-0.500000,-0.750000,-0.500000,0.750000,0.500000,0.750000,1.000000,0.000000,1.000000,0.000000,$1*%
%AMFreePoly1*
4,1,6,0.500000,-0.750000,-0.650000,-0.750000,-0.150000,0.000000,-0.650000,0.750000,0.500000,0.750000,0.500000,-0.750000,0.500000,-0.750000,$1*%
G04 Aperture macros list end*
%TA.AperFunction,HeatsinkPad*%
%ADD10C,0.500000*%
%TD*%
%TA.AperFunction,HeatsinkPad*%
%ADD11R,1.900000X2.500000*%
%TD*%
%TA.AperFunction,ComponentPad*%
%ADD12RoundRect,0.250000X-0.600000X-0.600000X0.600000X-0.600000X0.600000X0.600000X-0.600000X0.600000X0*%
%TD*%
%TA.AperFunction,ComponentPad*%
%ADD13C,1.700000*%
%TD*%
%TA.AperFunction,ComponentPad*%
%ADD14R,1.700000X1.700000*%
%TD*%
%TA.AperFunction,ComponentPad*%
%ADD15O,1.700000X1.700000*%
%TD*%
%TA.AperFunction,ComponentPad*%
%ADD16C,3.500000*%
%TD*%
%TA.AperFunction,ComponentPad*%
%ADD17C,1.440000*%
%TD*%
%TA.AperFunction,ComponentPad*%
%ADD18RoundRect,0.250002X-1.699998X1.699998X-1.699998X-1.699998X1.699998X-1.699998X1.699998X1.699998X0*%
%TD*%
%TA.AperFunction,ComponentPad*%
%ADD19C,3.900000*%
%TD*%
%TA.AperFunction,ComponentPad*%
%ADD20O,2.500000X1.600000*%
%TD*%
%TA.AperFunction,ComponentPad*%
%ADD21O,7.000000X3.500000*%
%TD*%
%TA.AperFunction,SMDPad,CuDef*%
%ADD22FreePoly0,0.000000*%
%TD*%
%TA.AperFunction,SMDPad,CuDef*%
%ADD23FreePoly1,0.000000*%
%TD*%
%TA.AperFunction,ViaPad*%
%ADD24C,0.600000*%
%TD*%
%TA.AperFunction,Conductor*%
%ADD25C,0.304800*%
%TD*%
%TA.AperFunction,Conductor*%
%ADD26C,2.032000*%
%TD*%
%TA.AperFunction,Conductor*%
%ADD27C,1.000000*%
%TD*%
%TA.AperFunction,Conductor*%
%ADD28C,4.064000*%
%TD*%
%TA.AperFunction,Conductor*%
%ADD29C,0.200000*%
%TD*%
G04 APERTURE END LIST*
D10*
%TO.P,U4,9*%
%TO.N,N/C*%
X145437500Y-99250000D03*
X145437500Y-100250000D03*
X145437500Y-101250000D03*
D11*
X146137500Y-100250000D03*
D10*
X146837500Y-99250000D03*
X146837500Y-100250000D03*
X146837500Y-101250000D03*
%TD*%
D12*
%TO.P,U1,1,~{RESET}*%
%TO.N,Net-(U1-~{RESET})*%
X126647500Y-73520000D03*
D13*
%TO.P,U1,2,SWCLK*%
%TO.N,Net-(U1-SWCLK)*%
X129187500Y-73520000D03*
%TO.P,U1,3,SWIM*%
%TO.N,unconnected-(U1-SWIM-Pad3)*%
X126647500Y-76060000D03*
%TO.P,U1,4,SWDIO*%
%TO.N,Net-(U1-SWDIO)*%
X129187500Y-76060000D03*
%TO.P,U1,5,GND*%
%TO.N,GND*%
X126647500Y-78600000D03*
%TO.P,U1,6,GND*%
X129187500Y-78600000D03*
%TO.P,U1,7,3.3V*%
%TO.N,3.3V*%
X126647500Y-81140000D03*
%TO.P,U1,8,3.3V*%
X129187500Y-81140000D03*
%TO.P,U1,9,5V*%
%TO.N,5V*%
X126647500Y-83680000D03*
%TO.P,U1,10,5V*%
X129187500Y-83680000D03*
%TD*%
D14*
%TO.P,J3,1,Pin_1*%
%TO.N,3.3V*%
X135000000Y-73610000D03*
D15*
%TO.P,J3,2,Pin_2*%
%TO.N,+3.3V*%
X135000000Y-71070000D03*
%TD*%
D14*
%TO.P,J1,1,VBUS*%
%TO.N,+5V*%
X142222500Y-113000000D03*
D13*
%TO.P,J1,2,D-*%
%TO.N,unconnected-(J1-D--Pad2)*%
X142222500Y-115500000D03*
%TO.P,J1,3,D+*%
%TO.N,unconnected-(J1-D+-Pad3)*%
X144222500Y-115500000D03*
%TO.P,J1,4,GND*%
%TO.N,GND*%
X144222500Y-113000000D03*
D16*
%TO.P,J1,5,Shield*%
X146932500Y-108230000D03*
X146932500Y-120270000D03*
%TD*%
D17*
%TO.P,RV1,1,1*%
%TO.N,+2V5*%
X151050000Y-70000000D03*
%TO.P,RV1,2,2*%
%TO.N,Net-(U21-S1)*%
X148510000Y-72540000D03*
%TO.P,RV1,3,3*%
%TO.N,GNDA*%
X145970000Y-70000000D03*
%TD*%
D14*
%TO.P,J2,1,Pin_1*%
%TO.N,5V*%
X135000000Y-77925000D03*
D15*
%TO.P,J2,2,Pin_2*%
%TO.N,+5V*%
X135000000Y-80465000D03*
%TD*%
D18*
%TO.P,J5,1,Pin_1*%
%TO.N,/Pomiar pr\u0105du/IN+*%
X119400000Y-110350000D03*
D19*
%TO.P,J5,2,Pin_2*%
%TO.N,GNDS*%
X119400000Y-118150000D03*
%TD*%
D20*
%TO.P,J7,1,In*%
%TO.N,/Sterowanie/Uz*%
X142170000Y-89250000D03*
D21*
%TO.P,J7,2,Ext*%
%TO.N,GNDA*%
X147250000Y-84170000D03*
D20*
X142170000Y-86710000D03*
D21*
X147250000Y-94330000D03*
%TD*%
D17*
%TO.P,RV2,1,1*%
%TO.N,+2V5*%
X151025000Y-77025000D03*
%TO.P,RV2,2,2*%
%TO.N,Net-(U21-S2)*%
X148485000Y-79565000D03*
%TO.P,RV2,3,3*%
%TO.N,GNDA*%
X145945000Y-77025000D03*
%TD*%
D20*
%TO.P,J6,1,In*%
%TO.N,/Sterowanie/UI*%
X142170000Y-139250000D03*
D21*
%TO.P,J6,2,Ext*%
%TO.N,GNDA*%
X147250000Y-134170000D03*
D20*
X142170000Y-136710000D03*
D21*
X147250000Y-144330000D03*
%TD*%
D14*
%TO.P,J4,1,Pin_1*%
%TO.N,+3.3V*%
X98702500Y-76950000D03*
D15*
%TO.P,J4,2,Pin_2*%
%TO.N,Net-(J4-Pin_2)*%
X98702500Y-79490000D03*
%TO.P,J4,3,Pin_3*%
%TO.N,Net-(J4-Pin_3)*%
X98702500Y-82030000D03*
%TO.P,J4,4,Pin_4*%
%TO.N,GND*%
X98702500Y-84570000D03*
%TD*%
D22*
%TO.P,JP2,1,A*%
%TO.N,GNDS*%
X126273214Y-116200000D03*
X126273214Y-117700000D03*
X126273214Y-119200000D03*
X126273214Y-120700000D03*
D23*
%TO.P,JP2,2,B*%
%TO.N,GNDA*%
X127723214Y-116200000D03*
X127723214Y-117700000D03*
X127723214Y-119200000D03*
X127723214Y-120700000D03*
%TD*%
D24*
%TO.N,+5V*%
X108750000Y-141200000D03*
X143050000Y-126750000D03*
X143050000Y-127500000D03*
X151350000Y-97550000D03*
X108250000Y-140700000D03*
X130050000Y-102950000D03*
X115900000Y-141200000D03*
X151350000Y-98300000D03*
X131100000Y-102950000D03*
X142200000Y-126750000D03*
X114850000Y-141200000D03*
X142200000Y-127500000D03*
%TO.N,GND*%
X123050000Y-66750000D03*
X136350000Y-66750000D03*
X142850000Y-161950000D03*
X98350000Y-66750000D03*
X103100000Y-66750000D03*
X135250000Y-161950000D03*
X148700000Y-66750000D03*
X115250000Y-124200000D03*
X119100000Y-161950000D03*
X137300000Y-66750000D03*
X119250000Y-66750000D03*
X130850000Y-110200000D03*
X102000000Y-161950000D03*
X109750000Y-66750000D03*
X140550000Y-154300000D03*
X97400000Y-66750000D03*
X133500000Y-66750000D03*
X130500000Y-161950000D03*
X121950000Y-161950000D03*
X149500000Y-161950000D03*
X100100000Y-161950000D03*
X105950000Y-66750000D03*
X141550000Y-145050000D03*
X99150000Y-161950000D03*
X147600000Y-161950000D03*
X124000000Y-66750000D03*
X121000000Y-161950000D03*
X111100000Y-93000000D03*
X139050000Y-161950000D03*
X103900000Y-161950000D03*
X107850000Y-66750000D03*
X108650000Y-161950000D03*
X136200000Y-161950000D03*
X137150000Y-161950000D03*
X145700000Y-161950000D03*
X114750000Y-123700000D03*
X131850000Y-110200000D03*
X111100000Y-94000000D03*
X138200000Y-137500000D03*
X122100000Y-66750000D03*
X133350000Y-161950000D03*
X125750000Y-161950000D03*
X98200000Y-161950000D03*
X140550000Y-146050000D03*
X106750000Y-161950000D03*
X128600000Y-161950000D03*
X141550000Y-155300000D03*
X141550000Y-154300000D03*
X141050000Y-154800000D03*
X130850000Y-109200000D03*
X138200000Y-138500000D03*
X106400000Y-124200000D03*
X135400000Y-66750000D03*
X138250000Y-66750000D03*
X112450000Y-161950000D03*
X96300000Y-161950000D03*
X127000000Y-86150000D03*
X97250000Y-161950000D03*
X123550000Y-141650000D03*
X102950000Y-161950000D03*
X126850000Y-66750000D03*
X144750000Y-161950000D03*
X130650000Y-66750000D03*
X140950000Y-161950000D03*
X132400000Y-161950000D03*
X106900000Y-66750000D03*
X141550000Y-146050000D03*
X146650000Y-161950000D03*
X143950000Y-66750000D03*
X111500000Y-161950000D03*
X151550000Y-66750000D03*
X132550000Y-66750000D03*
X141100000Y-66750000D03*
X145850000Y-66750000D03*
X111600000Y-93500000D03*
X150450000Y-161950000D03*
X131450000Y-161950000D03*
X120900000Y-130150000D03*
X124950000Y-66750000D03*
X146800000Y-66750000D03*
X147750000Y-66750000D03*
X118150000Y-161950000D03*
X115250000Y-123200000D03*
X152500000Y-66750000D03*
X144900000Y-66750000D03*
X121150000Y-66750000D03*
X131600000Y-66750000D03*
X149650000Y-66750000D03*
X128000000Y-87150000D03*
X112600000Y-66750000D03*
X141900000Y-161950000D03*
X143000000Y-66750000D03*
X127800000Y-66750000D03*
X107700000Y-161950000D03*
X115450000Y-66750000D03*
X100250000Y-66750000D03*
X119900000Y-131150000D03*
X107400000Y-123200000D03*
X106400000Y-123200000D03*
X116250000Y-161950000D03*
X122550000Y-141650000D03*
X112100000Y-93000000D03*
X120050000Y-161950000D03*
X140150000Y-66750000D03*
X129700000Y-66750000D03*
X128000000Y-86150000D03*
X122550000Y-140650000D03*
X140550000Y-145050000D03*
X113400000Y-161950000D03*
X114250000Y-123200000D03*
X129550000Y-161950000D03*
X148550000Y-161950000D03*
X110700000Y-66750000D03*
X112100000Y-94000000D03*
X138100000Y-161950000D03*
X114500000Y-66750000D03*
X102150000Y-66750000D03*
X119900000Y-130150000D03*
X123850000Y-161950000D03*
X106900000Y-123700000D03*
X134450000Y-66750000D03*
X108800000Y-66750000D03*
X104050000Y-66750000D03*
X118300000Y-66750000D03*
X99300000Y-66750000D03*
X124800000Y-161950000D03*
X125900000Y-66750000D03*
X104850000Y-161950000D03*
X105800000Y-161950000D03*
X152350000Y-161950000D03*
X126700000Y-161950000D03*
X120400000Y-130650000D03*
X142050000Y-66750000D03*
X141050000Y-145550000D03*
X139200000Y-138500000D03*
X109600000Y-161950000D03*
X134300000Y-161950000D03*
X117200000Y-161950000D03*
X111650000Y-66750000D03*
X101050000Y-161950000D03*
X120900000Y-131150000D03*
X128750000Y-66750000D03*
X140550000Y-155300000D03*
X96450000Y-66750000D03*
X110550000Y-161950000D03*
X113550000Y-66750000D03*
X101200000Y-66750000D03*
X123050000Y-141150000D03*
X143800000Y-161950000D03*
X127000000Y-87150000D03*
X116400000Y-66750000D03*
X127500000Y-86650000D03*
X120200000Y-66750000D03*
X122900000Y-161950000D03*
X115300000Y-161950000D03*
X139200000Y-66750000D03*
X123550000Y-140650000D03*
X140000000Y-161950000D03*
X114250000Y-124200000D03*
X131350000Y-109700000D03*
X105000000Y-66750000D03*
X151400000Y-161950000D03*
X150600000Y-66750000D03*
X117350000Y-66750000D03*
X127650000Y-161950000D03*
X114350000Y-161950000D03*
X139200000Y-137500000D03*
X138700000Y-138000000D03*
X131850000Y-109200000D03*
X107400000Y-124200000D03*
%TO.N,Net-(U1-~{RESET})*%
X108200000Y-74400000D03*
X116800000Y-74200000D03*
%TO.N,+3.3V*%
X117500000Y-69947500D03*
X106950000Y-85750000D03*
X114250000Y-78150000D03*
X140600000Y-94750000D03*
X101300000Y-85750000D03*
X102350000Y-85750000D03*
X113300000Y-78162400D03*
X116550000Y-69947500D03*
X131500000Y-135300000D03*
X140600000Y-96750000D03*
X107900000Y-85750000D03*
X140600000Y-95800000D03*
X112300000Y-85750000D03*
X113000000Y-85750000D03*
X131500000Y-136050000D03*
X117550000Y-85750000D03*
X142600000Y-103350000D03*
X118200000Y-85750000D03*
%TO.N,+5VA*%
X131450000Y-156700000D03*
X101450000Y-155750000D03*
X131450000Y-159400000D03*
X102050000Y-156350000D03*
X131450000Y-155750000D03*
%TO.N,GNDA*%
X109450000Y-101650000D03*
X131850000Y-123650000D03*
X127700000Y-150800000D03*
X124950000Y-140600000D03*
X115000000Y-106100000D03*
X136300000Y-157500000D03*
X126400000Y-125600000D03*
X134500000Y-148250000D03*
X116650000Y-153200000D03*
X147250000Y-149550000D03*
X126400000Y-126450000D03*
X98000000Y-93000000D03*
X115900000Y-153200000D03*
X131850000Y-122800000D03*
X126850000Y-151550000D03*
X115000000Y-105350000D03*
X126750000Y-157850000D03*
X136200000Y-93750000D03*
X139700000Y-80200000D03*
X124950000Y-139750000D03*
X127600000Y-157850000D03*
X147250000Y-148800000D03*
X109450000Y-100900000D03*
X134500000Y-149100000D03*
X127600000Y-157100000D03*
X126750000Y-157100000D03*
X126850000Y-150800000D03*
X127700000Y-151550000D03*
X115850000Y-105350000D03*
X115850000Y-106100000D03*
X121650000Y-95250000D03*
X138200000Y-133700000D03*
X148100000Y-149550000D03*
X98000000Y-92150000D03*
X122400000Y-95250000D03*
X136300000Y-156650000D03*
X148100000Y-148800000D03*
X96900000Y-157700000D03*
X96900000Y-158550000D03*
X136950000Y-93750000D03*
%TO.N,+2V5*%
X137300000Y-90950000D03*
X122000000Y-155250000D03*
X116750000Y-95600000D03*
X122850000Y-156000000D03*
X105100000Y-101300000D03*
X112065625Y-153234375D03*
X105950000Y-101300000D03*
X96300000Y-88550000D03*
X133450000Y-133100000D03*
X116750000Y-94900000D03*
X112590625Y-153759375D03*
X129050000Y-138000000D03*
X136250000Y-90950000D03*
X96300000Y-89550000D03*
X122850000Y-155250000D03*
X132700000Y-133850000D03*
X129050000Y-137200000D03*
X122000000Y-156000000D03*
%TO.N,-2V5*%
X118800000Y-148850000D03*
X108525000Y-154275000D03*
X118800000Y-148150000D03*
X128950000Y-128400000D03*
X120500000Y-107450000D03*
X109137501Y-107450000D03*
X108525000Y-153550000D03*
X121250430Y-107450000D03*
X109950000Y-107450000D03*
X128950000Y-127550000D03*
%TO.N,GNDS*%
X124000000Y-130400000D03*
X121200000Y-97800000D03*
X119400000Y-104400000D03*
X105600000Y-144600000D03*
X123200000Y-129600000D03*
X124000000Y-129600000D03*
X121200000Y-98600000D03*
X104400000Y-144600000D03*
X105600000Y-145400000D03*
X104400000Y-145400000D03*
X123200000Y-130400000D03*
%TO.N,/Pomiar pr\u0105du/V3*%
X134600000Y-139400000D03*
X106800000Y-89400000D03*
%TO.N,/Pomiar pr\u0105du/V1*%
X127800000Y-93400000D03*
X135600000Y-139400000D03*
%TO.N,/Sterowanie/A0*%
X141000000Y-76600000D03*
X114993800Y-80206200D03*
X136600000Y-135000000D03*
%TO.N,/Sterowanie/UP1*%
X122200000Y-86800000D03*
X113200000Y-81400000D03*
%TO.N,/Pomiar pr\u0105du/M1*%
X134800000Y-104400000D03*
X115200000Y-78812400D03*
%TO.N,/Pomiar pr\u0105du/M3*%
X113000000Y-144200000D03*
X115600000Y-76600000D03*
%TO.N,/Pomiar pr\u0105du/M2*%
X112200000Y-137000000D03*
X115050000Y-77300000D03*
%TO.N,/Sterowanie/A1*%
X136600000Y-139400000D03*
X143000000Y-75200000D03*
X114000000Y-80200000D03*
%TO.N,/Pomiar pr\u0105du/V2*%
X133400000Y-128400000D03*
X112200000Y-89450000D03*
%TD*%
D25*
%TO.N,Net-(U1-~{RESET})*%
X116800000Y-74200000D02*
X110800000Y-74200000D01*
X110800000Y-74200000D02*
X110600000Y-74400000D01*
X110600000Y-74400000D02*
X108200000Y-74400000D01*
D26*
%TO.N,GNDS*%
X121200000Y-103400000D02*
X121200000Y-97800000D01*
D27*
X125385714Y-121300000D02*
X125529464Y-121443750D01*
D26*
X123000000Y-137000000D02*
X123000000Y-130600000D01*
X124000000Y-128223529D02*
X123976471Y-128200000D01*
D27*
X125529464Y-121443750D02*
X124660714Y-122312500D01*
X126273214Y-116200000D02*
X126200000Y-116200000D01*
D26*
X123000000Y-130600000D02*
X124000000Y-129600000D01*
X123976471Y-128200000D02*
X123600000Y-105800000D01*
X105000000Y-146000000D02*
X114000000Y-146000000D01*
D27*
X104400000Y-145400000D02*
X104400000Y-144600000D01*
X105600000Y-144600000D02*
X104400000Y-144600000D01*
D28*
X119400000Y-118150000D02*
X121550000Y-116000000D01*
D26*
X122200000Y-104400000D02*
X123600000Y-105800000D01*
D27*
X124798214Y-115312500D02*
X123739391Y-115312500D01*
X124798214Y-121371324D02*
X123857038Y-122312500D01*
D26*
X119400000Y-104400000D02*
X122200000Y-104400000D01*
D27*
X124660714Y-122312500D02*
X123857038Y-122312500D01*
D28*
X122400000Y-116200000D02*
X122200000Y-116000000D01*
D27*
X125312500Y-115312500D02*
X123712500Y-113712500D01*
D28*
X122400000Y-120800000D02*
X122400000Y-116200000D01*
X119400000Y-118150000D02*
X122050000Y-120800000D01*
D27*
X125385714Y-115312500D02*
X125385714Y-121300000D01*
X124798214Y-115312500D02*
X124798214Y-121371324D01*
D28*
X122050000Y-120800000D02*
X122400000Y-120800000D01*
D26*
X124000000Y-129600000D02*
X124000000Y-128223529D01*
X114000000Y-146000000D02*
X123000000Y-137000000D01*
D27*
X126273214Y-120700000D02*
X125529464Y-121443750D01*
X126200000Y-116200000D02*
X123712500Y-113712500D01*
D26*
X124000000Y-129600000D02*
X123976471Y-128200000D01*
D28*
X121550000Y-116000000D02*
X122200000Y-116000000D01*
D26*
X123600000Y-105800000D02*
X121200000Y-103400000D01*
D29*
%TO.N,/Pomiar pr\u0105du/V3*%
X108200000Y-88000000D02*
X120800000Y-88000000D01*
X133400000Y-105200000D02*
X134600000Y-106400000D01*
X134600000Y-106400000D02*
X134600000Y-139400000D01*
X106800000Y-89400000D02*
X108200000Y-88000000D01*
X133400000Y-100600000D02*
X133400000Y-105200000D01*
X120800000Y-88000000D02*
X133400000Y-100600000D01*
%TO.N,/Pomiar pr\u0105du/V1*%
X127800000Y-93400000D02*
X134200000Y-99800000D01*
X134200000Y-99800000D02*
X134200000Y-103751471D01*
X135400000Y-139200000D02*
X135600000Y-139400000D01*
X134200000Y-103751471D02*
X134000000Y-103951471D01*
X134000000Y-104800000D02*
X135400000Y-106200000D01*
X135400000Y-106200000D02*
X135400000Y-139200000D01*
X134000000Y-103951471D02*
X134000000Y-104800000D01*
%TO.N,/Sterowanie/A0*%
X117606200Y-80206200D02*
X127400000Y-90000000D01*
X136600000Y-99200000D02*
X136600000Y-135000000D01*
X117606200Y-80206200D02*
X136600000Y-99200000D01*
X138600000Y-82400000D02*
X138600000Y-79000000D01*
X114993800Y-80206200D02*
X117606200Y-80206200D01*
X138600000Y-79000000D02*
X141000000Y-76600000D01*
X131000000Y-90000000D02*
X138600000Y-82400000D01*
X127400000Y-90000000D02*
X131000000Y-90000000D01*
%TO.N,/Sterowanie/UP1*%
X113600000Y-81800000D02*
X117200000Y-81800000D01*
X113200000Y-81400000D02*
X113600000Y-81800000D01*
X117200000Y-81800000D02*
X122200000Y-86800000D01*
%TO.N,/Pomiar pr\u0105du/M1*%
X134800000Y-99200000D02*
X134800000Y-104400000D01*
X121951471Y-87400000D02*
X123000000Y-87400000D01*
X123000000Y-87400000D02*
X134800000Y-99200000D01*
X112400000Y-81624265D02*
X113175735Y-82400000D01*
X115200000Y-78812400D02*
X114539071Y-78812400D01*
X113175735Y-82400000D02*
X116951471Y-82400000D01*
X112400000Y-80951471D02*
X112400000Y-81624265D01*
X116951471Y-82400000D02*
X121951471Y-87400000D01*
X114539071Y-78812400D02*
X112400000Y-80951471D01*
D25*
%TO.N,/Pomiar pr\u0105du/M3*%
X105042800Y-89879329D02*
X111400000Y-96236529D01*
X111400000Y-96236529D02*
X111400000Y-142600000D01*
X115600000Y-76600000D02*
X112400000Y-76600000D01*
X112400000Y-76600000D02*
X105042800Y-83957200D01*
X111400000Y-142600000D02*
X113000000Y-144200000D01*
X105042800Y-83957200D02*
X105042800Y-89879329D01*
%TO.N,/Pomiar pr\u0105du/M2*%
X112200000Y-96322633D02*
X112200000Y-137000000D01*
X112500000Y-77300000D02*
X105547600Y-84252400D01*
X105547600Y-84252400D02*
X105547600Y-89670233D01*
X115050000Y-77300000D02*
X112500000Y-77300000D01*
X105547600Y-89670233D02*
X112200000Y-96322633D01*
D29*
%TO.N,/Sterowanie/A1*%
X141000000Y-75200000D02*
X143000000Y-75200000D01*
X114745271Y-80806200D02*
X117406200Y-80806200D01*
X136000000Y-138800000D02*
X136600000Y-139400000D01*
X130400000Y-89400000D02*
X137800000Y-82000000D01*
X114593800Y-79606200D02*
X118006200Y-79606200D01*
X114000000Y-80200000D02*
X114139071Y-80200000D01*
X137800000Y-78400000D02*
X141000000Y-75200000D01*
X136000000Y-99400000D02*
X136000000Y-138800000D01*
X117406200Y-80806200D02*
X136000000Y-99400000D01*
X118006200Y-79606200D02*
X127800000Y-89400000D01*
X137800000Y-82000000D02*
X137800000Y-78400000D01*
X114139071Y-80200000D02*
X114745271Y-80806200D01*
X114000000Y-80200000D02*
X114593800Y-79606200D01*
X127800000Y-89400000D02*
X130400000Y-89400000D01*
%TO.N,/Pomiar pr\u0105du/V2*%
X120850000Y-89450000D02*
X112200000Y-89450000D01*
X132600000Y-101200000D02*
X120850000Y-89450000D01*
X132600000Y-105400000D02*
X132600000Y-101200000D01*
X133400000Y-128400000D02*
X133400000Y-106200000D01*
X133400000Y-106200000D02*
X132600000Y-105400000D01*
%TD*%
%TA.AperFunction,Conductor*%
%TO.N,GND*%
G36*
X153192539Y-65770185D02*
G01*
X153238294Y-65822989D01*
X153249500Y-65874500D01*
X153249500Y-67626000D01*
X153229815Y-67693039D01*
X153177011Y-67738794D01*
X153125500Y-67750000D01*
X95624500Y-67750000D01*
X95557461Y-67730315D01*
X95511706Y-67677511D01*
X95500500Y-67626000D01*
X95500500Y-65874500D01*
X95520185Y-65807461D01*
X95572989Y-65761706D01*
X95624500Y-65750500D01*
X153125500Y-65750500D01*
X153192539Y-65770185D01*
G37*
%TD.AperFunction*%
%TD*%
%TA.AperFunction,Conductor*%
%TO.N,GNDA*%
G36*
X153192539Y-68275185D02*
G01*
X153238294Y-68327989D01*
X153249500Y-68379500D01*
X153249500Y-75315891D01*
X153283608Y-75443187D01*
X153316554Y-75500250D01*
X153349500Y-75557314D01*
X153442686Y-75650500D01*
X153556814Y-75716392D01*
X153684108Y-75750500D01*
X154375500Y-75750500D01*
X154442539Y-75770185D01*
X154488294Y-75822989D01*
X154499500Y-75874500D01*
X154499500Y-152625500D01*
X154479815Y-152692539D01*
X154427011Y-152738294D01*
X154375500Y-152749500D01*
X153684108Y-152749500D01*
X153556812Y-152783608D01*
X153442686Y-152849500D01*
X153442683Y-152849502D01*
X153349502Y-152942683D01*
X153349500Y-152942686D01*
X153283608Y-153056812D01*
X153249500Y-153184108D01*
X153249500Y-160170500D01*
X153229815Y-160237539D01*
X153177011Y-160283294D01*
X153125500Y-160294500D01*
X131961434Y-160294500D01*
X131894395Y-160274815D01*
X131848640Y-160222011D01*
X131838696Y-160152853D01*
X131867721Y-160089297D01*
X131895461Y-160065507D01*
X131952260Y-160029817D01*
X131952259Y-160029817D01*
X131952262Y-160029816D01*
X132079816Y-159902262D01*
X132175789Y-159749522D01*
X132235368Y-159579255D01*
X132255565Y-159400000D01*
X132235368Y-159220745D01*
X132175789Y-159050478D01*
X132079816Y-158897738D01*
X131952262Y-158770184D01*
X131799523Y-158674211D01*
X131629254Y-158614631D01*
X131629249Y-158614630D01*
X131450004Y-158594435D01*
X131449996Y-158594435D01*
X131270750Y-158614630D01*
X131270745Y-158614631D01*
X131100476Y-158674211D01*
X130947737Y-158770184D01*
X130820184Y-158897737D01*
X130724211Y-159050476D01*
X130664631Y-159220745D01*
X130664630Y-159220750D01*
X130644435Y-159399996D01*
X130644435Y-159400003D01*
X130664630Y-159579249D01*
X130664631Y-159579254D01*
X130724211Y-159749523D01*
X130820184Y-159902262D01*
X130947739Y-160029817D01*
X131004539Y-160065507D01*
X131050829Y-160117841D01*
X131061477Y-160186895D01*
X131033102Y-160250743D01*
X130974712Y-160289115D01*
X130938566Y-160294500D01*
X95624500Y-160294500D01*
X95557461Y-160274815D01*
X95511706Y-160222011D01*
X95500500Y-160170500D01*
X95500500Y-155750003D01*
X100644435Y-155750003D01*
X100664630Y-155929249D01*
X100664631Y-155929254D01*
X100724211Y-156099523D01*
X100803054Y-156225000D01*
X100820184Y-156252262D01*
X100947738Y-156379816D01*
X101100478Y-156475789D01*
X101176134Y-156502262D01*
X101209851Y-156514060D01*
X101266627Y-156554782D01*
X101285938Y-156590146D01*
X101324211Y-156699523D01*
X101324212Y-156699524D01*
X101378150Y-156785366D01*
X101420184Y-156852262D01*
X101547738Y-156979816D01*
X101700478Y-157075789D01*
X101870745Y-157135368D01*
X101870750Y-157135369D01*
X102049996Y-157155565D01*
X102050000Y-157155565D01*
X102050004Y-157155565D01*
X102229249Y-157135369D01*
X102229252Y-157135368D01*
X102229255Y-157135368D01*
X102399522Y-157075789D01*
X102552262Y-156979816D01*
X102679816Y-156852262D01*
X102775789Y-156699522D01*
X102835368Y-156529255D01*
X102835369Y-156529249D01*
X102855565Y-156350003D01*
X102855565Y-156349996D01*
X102835369Y-156170750D01*
X102835368Y-156170745D01*
X102831268Y-156159027D01*
X102775789Y-156000478D01*
X102775491Y-156000003D01*
X121194435Y-156000003D01*
X121214630Y-156179249D01*
X121214631Y-156179254D01*
X121274211Y-156349523D01*
X121353549Y-156475788D01*
X121370184Y-156502262D01*
X121497738Y-156629816D01*
X121588080Y-156686582D01*
X121608677Y-156699524D01*
X121650478Y-156725789D01*
X121820739Y-156785366D01*
X121820745Y-156785368D01*
X121820750Y-156785369D01*
X121999996Y-156805565D01*
X122000000Y-156805565D01*
X122000004Y-156805565D01*
X122179249Y-156785369D01*
X122179251Y-156785368D01*
X122179255Y-156785368D01*
X122179258Y-156785366D01*
X122179262Y-156785366D01*
X122245840Y-156762068D01*
X122349522Y-156725789D01*
X122359028Y-156719815D01*
X122426263Y-156700815D01*
X122490971Y-156719815D01*
X122500478Y-156725789D01*
X122552318Y-156743928D01*
X122670737Y-156785366D01*
X122670743Y-156785367D01*
X122670745Y-156785368D01*
X122670746Y-156785368D01*
X122670750Y-156785369D01*
X122849996Y-156805565D01*
X122850000Y-156805565D01*
X122850004Y-156805565D01*
X123029249Y-156785369D01*
X123029252Y-156785368D01*
X123029255Y-156785368D01*
X123199522Y-156725789D01*
X123240560Y-156700003D01*
X130644435Y-156700003D01*
X130664630Y-156879249D01*
X130664631Y-156879254D01*
X130724211Y-157049523D01*
X130778152Y-157135369D01*
X130820184Y-157202262D01*
X130947738Y-157329816D01*
X131100478Y-157425789D01*
X131270745Y-157485368D01*
X131270750Y-157485369D01*
X131449996Y-157505565D01*
X131450000Y-157505565D01*
X131450004Y-157505565D01*
X131629249Y-157485369D01*
X131629252Y-157485368D01*
X131629255Y-157485368D01*
X131799522Y-157425789D01*
X131952262Y-157329816D01*
X132079816Y-157202262D01*
X132175789Y-157049522D01*
X132235368Y-156879255D01*
X132235369Y-156879249D01*
X132255565Y-156700003D01*
X132255565Y-156699996D01*
X132235369Y-156520750D01*
X132235368Y-156520745D01*
X132233029Y-156514060D01*
X132175789Y-156350478D01*
X132138397Y-156290969D01*
X132119397Y-156223737D01*
X132138397Y-156159030D01*
X132175789Y-156099522D01*
X132235368Y-155929255D01*
X132244553Y-155847737D01*
X132255565Y-155750003D01*
X132255565Y-155749996D01*
X132235369Y-155570750D01*
X132235368Y-155570745D01*
X132185859Y-155429257D01*
X132175789Y-155400478D01*
X132112656Y-155300003D01*
X139744435Y-155300003D01*
X139764630Y-155479249D01*
X139764631Y-155479254D01*
X139824211Y-155649523D01*
X139887347Y-155750003D01*
X139920184Y-155802262D01*
X140047738Y-155929816D01*
X140115973Y-155972691D01*
X140160192Y-156000476D01*
X140200478Y-156025789D01*
X140370745Y-156085368D01*
X140370750Y-156085369D01*
X140549996Y-156105565D01*
X140550000Y-156105565D01*
X140550004Y-156105565D01*
X140729249Y-156085369D01*
X140729252Y-156085368D01*
X140729255Y-156085368D01*
X140899522Y-156025789D01*
X140939808Y-156000476D01*
X140984027Y-155972691D01*
X141051264Y-155953690D01*
X141115973Y-155972691D01*
X141200475Y-156025788D01*
X141370745Y-156085368D01*
X141370750Y-156085369D01*
X141549996Y-156105565D01*
X141550000Y-156105565D01*
X141550004Y-156105565D01*
X141729249Y-156085369D01*
X141729252Y-156085368D01*
X141729255Y-156085368D01*
X141899522Y-156025789D01*
X142052262Y-155929816D01*
X142179816Y-155802262D01*
X142275789Y-155649522D01*
X142335368Y-155479255D01*
X142341001Y-155429262D01*
X142355565Y-155300003D01*
X142355565Y-155299996D01*
X142335369Y-155120750D01*
X142335368Y-155120745D01*
X142275788Y-154950475D01*
X142222691Y-154865973D01*
X142203690Y-154798736D01*
X142222691Y-154734027D01*
X142275788Y-154649524D01*
X142275789Y-154649522D01*
X142335368Y-154479255D01*
X142338185Y-154454254D01*
X142355565Y-154300003D01*
X142355565Y-154299996D01*
X142335369Y-154120750D01*
X142335368Y-154120745D01*
X142300016Y-154019716D01*
X142275789Y-153950478D01*
X142268344Y-153938630D01*
X142179815Y-153797737D01*
X142052262Y-153670184D01*
X141899523Y-153574211D01*
X141729254Y-153514631D01*
X141729249Y-153514630D01*
X141550004Y-153494435D01*
X141549996Y-153494435D01*
X141370750Y-153514630D01*
X141370737Y-153514633D01*
X141200479Y-153574209D01*
X141115971Y-153627309D01*
X141048734Y-153646309D01*
X140984029Y-153627309D01*
X140899520Y-153574209D01*
X140729262Y-153514633D01*
X140729249Y-153514630D01*
X140550004Y-153494435D01*
X140549996Y-153494435D01*
X140370750Y-153514630D01*
X140370745Y-153514631D01*
X140200476Y-153574211D01*
X140047737Y-153670184D01*
X139920184Y-153797737D01*
X139824211Y-153950476D01*
X139764631Y-154120745D01*
X139764630Y-154120750D01*
X139744435Y-154299996D01*
X139744435Y-154300003D01*
X139764630Y-154479249D01*
X139764633Y-154479262D01*
X139824209Y-154649520D01*
X139877309Y-154734029D01*
X139896309Y-154801266D01*
X139877309Y-154865971D01*
X139824209Y-154950479D01*
X139764633Y-155120737D01*
X139764630Y-155120750D01*
X139744435Y-155299996D01*
X139744435Y-155300003D01*
X132112656Y-155300003D01*
X132079816Y-155247738D01*
X131952262Y-155120184D01*
X131889209Y-155080565D01*
X131799523Y-155024211D01*
X131629254Y-154964631D01*
X131629249Y-154964630D01*
X131450004Y-154944435D01*
X131449996Y-154944435D01*
X131270750Y-154964630D01*
X131270745Y-154964631D01*
X131100476Y-155024211D01*
X130947737Y-155120184D01*
X130820184Y-155247737D01*
X130724211Y-155400476D01*
X130664631Y-155570745D01*
X130664630Y-155570750D01*
X130644435Y-155749996D01*
X130644435Y-155750003D01*
X130664630Y-155929249D01*
X130664631Y-155929254D01*
X130724212Y-156099525D01*
X130761600Y-156159029D01*
X130780600Y-156226266D01*
X130761600Y-156290971D01*
X130724212Y-156350474D01*
X130664631Y-156520745D01*
X130664630Y-156520750D01*
X130644435Y-156699996D01*
X130644435Y-156700003D01*
X123240560Y-156700003D01*
X123352262Y-156629816D01*
X123479816Y-156502262D01*
X123575789Y-156349522D01*
X123635368Y-156179255D01*
X123635369Y-156179249D01*
X123655565Y-156000003D01*
X123655565Y-155999996D01*
X123635369Y-155820750D01*
X123635366Y-155820737D01*
X123581205Y-155665955D01*
X123577643Y-155596176D01*
X123581205Y-155584045D01*
X123635366Y-155429262D01*
X123635369Y-155429249D01*
X123655565Y-155250003D01*
X123655565Y-155249996D01*
X123635369Y-155070750D01*
X123635368Y-155070745D01*
X123593285Y-154950478D01*
X123575789Y-154900478D01*
X123479816Y-154747738D01*
X123352262Y-154620184D01*
X123239265Y-154549183D01*
X123199523Y-154524211D01*
X123029254Y-154464631D01*
X123029249Y-154464630D01*
X122850004Y-154444435D01*
X122849996Y-154444435D01*
X122670750Y-154464630D01*
X122670745Y-154464631D01*
X122500474Y-154524212D01*
X122490968Y-154530185D01*
X122423731Y-154549183D01*
X122359032Y-154530185D01*
X122349525Y-154524212D01*
X122179254Y-154464631D01*
X122179249Y-154464630D01*
X122000004Y-154444435D01*
X121999996Y-154444435D01*
X121820750Y-154464630D01*
X121820745Y-154464631D01*
X121650476Y-154524211D01*
X121497737Y-154620184D01*
X121370184Y-154747737D01*
X121274211Y-154900476D01*
X121214631Y-155070745D01*
X121214630Y-155070750D01*
X121194435Y-155249996D01*
X121194435Y-155250003D01*
X121214630Y-155429249D01*
X121214632Y-155429257D01*
X121268795Y-155584046D01*
X121272356Y-155653824D01*
X121268795Y-155665954D01*
X121214632Y-155820742D01*
X121214630Y-155820750D01*
X121194435Y-155999996D01*
X121194435Y-156000003D01*
X102775491Y-156000003D01*
X102679816Y-155847738D01*
X102552262Y-155720184D01*
X102399524Y-155624212D01*
X102399523Y-155624211D01*
X102290146Y-155585938D01*
X102233371Y-155545216D01*
X102214060Y-155509851D01*
X102175788Y-155400476D01*
X102081237Y-155250000D01*
X102079816Y-155247738D01*
X101952262Y-155120184D01*
X101889209Y-155080565D01*
X101799523Y-155024211D01*
X101629254Y-154964631D01*
X101629249Y-154964630D01*
X101450004Y-154944435D01*
X101449996Y-154944435D01*
X101270750Y-154964630D01*
X101270745Y-154964631D01*
X101100476Y-155024211D01*
X100947737Y-155120184D01*
X100820184Y-155247737D01*
X100724211Y-155400476D01*
X100664631Y-155570745D01*
X100664630Y-155570750D01*
X100644435Y-155749996D01*
X100644435Y-155750003D01*
X95500500Y-155750003D01*
X95500500Y-154275003D01*
X107719435Y-154275003D01*
X107739630Y-154454249D01*
X107739631Y-154454254D01*
X107799211Y-154624523D01*
X107868019Y-154734029D01*
X107895184Y-154777262D01*
X108022738Y-154904816D01*
X108085791Y-154944435D01*
X108117934Y-154964632D01*
X108175478Y-155000789D01*
X108345745Y-155060368D01*
X108345750Y-155060369D01*
X108524996Y-155080565D01*
X108525000Y-155080565D01*
X108525004Y-155080565D01*
X108704249Y-155060369D01*
X108704252Y-155060368D01*
X108704255Y-155060368D01*
X108874522Y-155000789D01*
X109027262Y-154904816D01*
X109154816Y-154777262D01*
X109250789Y-154624522D01*
X109310368Y-154454255D01*
X109310369Y-154454249D01*
X109330565Y-154275003D01*
X109330565Y-154274996D01*
X109310369Y-154095750D01*
X109310367Y-154095740D01*
X109276416Y-153998717D01*
X109260577Y-153953452D01*
X109257015Y-153883677D01*
X109260573Y-153871560D01*
X109310368Y-153729255D01*
X109310369Y-153729249D01*
X109330565Y-153550003D01*
X109330565Y-153549996D01*
X109310369Y-153370750D01*
X109310368Y-153370745D01*
X109262651Y-153234378D01*
X111260060Y-153234378D01*
X111280255Y-153413624D01*
X111280256Y-153413629D01*
X111339836Y-153583898D01*
X111423088Y-153716392D01*
X111435809Y-153736637D01*
X111563363Y-153864191D01*
X111594375Y-153883677D01*
X111700684Y-153950476D01*
X111716103Y-153960164D01*
X111769917Y-153978994D01*
X111826693Y-154019716D01*
X111846004Y-154055080D01*
X111864836Y-154108898D01*
X111864837Y-154108899D01*
X111872284Y-154120750D01*
X111960809Y-154261637D01*
X112088363Y-154389191D01*
X112176283Y-154444435D01*
X112208426Y-154464632D01*
X112241103Y-154485164D01*
X112352693Y-154524211D01*
X112411370Y-154544743D01*
X112411375Y-154544744D01*
X112590621Y-154564940D01*
X112590625Y-154564940D01*
X112590629Y-154564940D01*
X112769874Y-154544744D01*
X112769877Y-154544743D01*
X112769880Y-154544743D01*
X112940147Y-154485164D01*
X113092887Y-154389191D01*
X113220441Y-154261637D01*
X113316414Y-154108897D01*
X113375993Y-153938630D01*
X113378937Y-153912500D01*
X113396190Y-153759378D01*
X113396190Y-153759371D01*
X113375994Y-153580125D01*
X113375993Y-153580120D01*
X113353077Y-153514630D01*
X113316414Y-153409853D01*
X113220441Y-153257113D01*
X113092887Y-153129559D01*
X112962670Y-153047738D01*
X112940149Y-153033587D01*
X112940148Y-153033586D01*
X112886330Y-153014754D01*
X112829554Y-152974031D01*
X112810244Y-152938667D01*
X112791413Y-152884851D01*
X112703183Y-152744435D01*
X112695441Y-152732113D01*
X112567887Y-152604559D01*
X112415148Y-152508586D01*
X112244879Y-152449006D01*
X112244874Y-152449005D01*
X112065629Y-152428810D01*
X112065621Y-152428810D01*
X111886375Y-152449005D01*
X111886370Y-152449006D01*
X111716101Y-152508586D01*
X111563362Y-152604559D01*
X111435809Y-152732112D01*
X111339836Y-152884851D01*
X111280256Y-153055120D01*
X111280255Y-153055125D01*
X111260060Y-153234371D01*
X111260060Y-153234378D01*
X109262651Y-153234378D01*
X109262650Y-153234375D01*
X109250789Y-153200478D01*
X109154816Y-153047738D01*
X109027262Y-152920184D01*
X108971030Y-152884851D01*
X108874523Y-152824211D01*
X108704254Y-152764631D01*
X108704249Y-152764630D01*
X108525004Y-152744435D01*
X108524996Y-152744435D01*
X108345750Y-152764630D01*
X108345745Y-152764631D01*
X108175476Y-152824211D01*
X108022737Y-152920184D01*
X107895184Y-153047737D01*
X107799211Y-153200476D01*
X107739631Y-153370745D01*
X107739630Y-153370750D01*
X107719435Y-153549996D01*
X107719435Y-153550003D01*
X107739630Y-153729249D01*
X107739632Y-153729257D01*
X107789421Y-153871546D01*
X107792982Y-153941325D01*
X107789421Y-153953454D01*
X107739632Y-154095742D01*
X107739630Y-154095750D01*
X107719435Y-154274996D01*
X107719435Y-154275003D01*
X95500500Y-154275003D01*
X95500500Y-148850003D01*
X117994435Y-148850003D01*
X118014630Y-149029249D01*
X118014631Y-149029254D01*
X118074211Y-149199523D01*
X118170184Y-149352262D01*
X118297738Y-149479816D01*
X118450478Y-149575789D01*
X118620745Y-149635368D01*
X118620750Y-149635369D01*
X118799996Y-149655565D01*
X118800000Y-149655565D01*
X118800004Y-149655565D01*
X118979249Y-149635369D01*
X118979252Y-149635368D01*
X118979255Y-149635368D01*
X119149522Y-149575789D01*
X119302262Y-149479816D01*
X119429816Y-149352262D01*
X119525789Y-149199522D01*
X119585368Y-149029255D01*
X119605565Y-148850000D01*
X119585368Y-148670745D01*
X119585367Y-148670742D01*
X119585366Y-148670737D01*
X119539953Y-148540955D01*
X119536391Y-148471176D01*
X119539953Y-148459045D01*
X119585366Y-148329262D01*
X119585369Y-148329249D01*
X119605565Y-148150003D01*
X119605565Y-148149996D01*
X119585369Y-147970750D01*
X119585368Y-147970745D01*
X119525788Y-147800476D01*
X119429815Y-147647737D01*
X119302262Y-147520184D01*
X119149523Y-147424211D01*
X118979254Y-147364631D01*
X118979249Y-147364630D01*
X118800004Y-147344435D01*
X118799996Y-147344435D01*
X118620750Y-147364630D01*
X118620745Y-147364631D01*
X118450476Y-147424211D01*
X118297737Y-147520184D01*
X118170184Y-147647737D01*
X118074211Y-147800476D01*
X118014631Y-147970745D01*
X118014630Y-147970750D01*
X117994435Y-148149996D01*
X117994435Y-148150003D01*
X118014630Y-148329249D01*
X118014632Y-148329257D01*
X118060047Y-148459046D01*
X118063608Y-148528825D01*
X118060047Y-148540954D01*
X118014632Y-148670742D01*
X118014630Y-148670750D01*
X117994435Y-148849996D01*
X117994435Y-148850003D01*
X95500500Y-148850003D01*
X95500500Y-145498543D01*
X103399499Y-145498543D01*
X103437947Y-145691828D01*
X103437948Y-145691830D01*
X103437949Y-145691835D01*
X103479150Y-145791303D01*
X103487062Y-145858147D01*
X103483500Y-145880643D01*
X103483500Y-146119350D01*
X103520841Y-146355111D01*
X103520841Y-146355112D01*
X103520842Y-146355115D01*
X103594605Y-146582134D01*
X103702973Y-146794819D01*
X103843279Y-146987933D01*
X104012067Y-147156721D01*
X104205181Y-147297027D01*
X104417866Y-147405395D01*
X104644885Y-147479158D01*
X104880649Y-147516500D01*
X104880650Y-147516500D01*
X114119350Y-147516500D01*
X114119351Y-147516500D01*
X114355115Y-147479158D01*
X114582134Y-147405395D01*
X114794819Y-147297027D01*
X114891376Y-147226874D01*
X114987934Y-147156721D01*
X116094652Y-146050003D01*
X139744435Y-146050003D01*
X139764630Y-146229249D01*
X139764631Y-146229254D01*
X139824211Y-146399523D01*
X139913422Y-146541500D01*
X139920184Y-146552262D01*
X140047738Y-146679816D01*
X140200478Y-146775789D01*
X140254863Y-146794819D01*
X140370745Y-146835368D01*
X140370750Y-146835369D01*
X140549996Y-146855565D01*
X140550000Y-146855565D01*
X140550004Y-146855565D01*
X140729249Y-146835369D01*
X140729252Y-146835368D01*
X140729255Y-146835368D01*
X140899522Y-146775789D01*
X140984027Y-146722691D01*
X141051264Y-146703690D01*
X141115973Y-146722691D01*
X141200475Y-146775788D01*
X141370745Y-146835368D01*
X141370750Y-146835369D01*
X141549996Y-146855565D01*
X141550000Y-146855565D01*
X141550004Y-146855565D01*
X141729249Y-146835369D01*
X141729252Y-146835368D01*
X141729255Y-146835368D01*
X141899522Y-146775789D01*
X142052262Y-146679816D01*
X142179816Y-146552262D01*
X142275789Y-146399522D01*
X142335368Y-146229255D01*
X142347751Y-146119351D01*
X142355565Y-146050003D01*
X142355565Y-146049996D01*
X142335369Y-145870750D01*
X142335368Y-145870745D01*
X142275788Y-145700475D01*
X142222691Y-145615973D01*
X142203690Y-145548736D01*
X142222691Y-145484027D01*
X142275788Y-145399524D01*
X142275789Y-145399522D01*
X142335368Y-145229255D01*
X142348733Y-145110635D01*
X142355565Y-145050003D01*
X142355565Y-145049996D01*
X142335369Y-144870750D01*
X142335368Y-144870745D01*
X142275788Y-144700476D01*
X142227199Y-144623148D01*
X142179816Y-144547738D01*
X142052262Y-144420184D01*
X142014265Y-144396309D01*
X141899523Y-144324211D01*
X141729254Y-144264631D01*
X141729249Y-144264630D01*
X141550004Y-144244435D01*
X141549996Y-144244435D01*
X141370750Y-144264630D01*
X141370737Y-144264633D01*
X141200479Y-144324209D01*
X141115971Y-144377309D01*
X141048734Y-144396309D01*
X140984029Y-144377309D01*
X140899520Y-144324209D01*
X140729262Y-144264633D01*
X140729249Y-144264630D01*
X140550004Y-144244435D01*
X140549996Y-144244435D01*
X140370750Y-144264630D01*
X140370745Y-144264631D01*
X140200476Y-144324211D01*
X140047737Y-144420184D01*
X139920184Y-144547737D01*
X139824211Y-144700476D01*
X139764631Y-144870745D01*
X139764630Y-144870750D01*
X139744435Y-145049996D01*
X139744435Y-145050003D01*
X139764630Y-145229249D01*
X139764633Y-145229262D01*
X139824209Y-145399520D01*
X139877309Y-145484029D01*
X139896309Y-145551266D01*
X139877309Y-145615971D01*
X139824209Y-145700479D01*
X139764633Y-145870737D01*
X139764630Y-145870750D01*
X139744435Y-146049996D01*
X139744435Y-146050003D01*
X116094652Y-146050003D01*
X118064654Y-144080000D01*
X143263497Y-144080000D01*
X146275038Y-144080000D01*
X146245000Y-144231016D01*
X146245000Y-144428984D01*
X146275038Y-144580000D01*
X143263498Y-144580000D01*
X143288496Y-144769884D01*
X143288499Y-144769897D01*
X143364835Y-145054790D01*
X143364838Y-145054800D01*
X143477704Y-145327281D01*
X143477709Y-145327292D01*
X143625174Y-145582707D01*
X143625185Y-145582723D01*
X143804729Y-145816709D01*
X143804735Y-145816716D01*
X144013283Y-146025264D01*
X144013290Y-146025270D01*
X144247276Y-146204814D01*
X144247292Y-146204825D01*
X144502707Y-146352290D01*
X144502718Y-146352295D01*
X144775199Y-146465161D01*
X144775209Y-146465164D01*
X145060102Y-146541500D01*
X145060115Y-146541503D01*
X145352516Y-146579998D01*
X145352534Y-146580000D01*
X147000000Y-146580000D01*
X147000000Y-145304961D01*
X147151016Y-145335000D01*
X147348984Y-145335000D01*
X147500000Y-145304961D01*
X147500000Y-146580000D01*
X149147466Y-146580000D01*
X149147483Y-146579998D01*
X149439884Y-146541503D01*
X149439897Y-146541500D01*
X149724790Y-146465164D01*
X149724800Y-146465161D01*
X149997281Y-146352295D01*
X149997292Y-146352290D01*
X150252707Y-146204825D01*
X150252723Y-146204814D01*
X150486709Y-146025270D01*
X150486716Y-146025264D01*
X150695264Y-145816716D01*
X150695270Y-145816709D01*
X150874814Y-145582723D01*
X150874825Y-145582707D01*
X151022290Y-145327292D01*
X151022295Y-145327281D01*
X151135161Y-145054800D01*
X151135164Y-145054790D01*
X151211500Y-144769897D01*
X151211503Y-144769884D01*
X151236502Y-144580000D01*
X148224962Y-144580000D01*
X148255000Y-144428984D01*
X148255000Y-144231016D01*
X148224962Y-144080000D01*
X151236502Y-144080000D01*
X151211503Y-143890115D01*
X151211500Y-143890102D01*
X151135164Y-143605209D01*
X151135161Y-143605199D01*
X151022295Y-143332718D01*
X151022290Y-143332707D01*
X150874825Y-143077292D01*
X150874814Y-143077276D01*
X150695270Y-142843290D01*
X150695264Y-142843283D01*
X150486716Y-142634735D01*
X150486709Y-142634729D01*
X150252723Y-142455185D01*
X150252707Y-142455174D01*
X149997292Y-142307709D01*
X149997281Y-142307704D01*
X149724800Y-142194838D01*
X149724790Y-142194835D01*
X149439897Y-142118499D01*
X149439884Y-142118496D01*
X149147483Y-142080001D01*
X149147466Y-142080000D01*
X147500000Y-142080000D01*
X147500000Y-143355038D01*
X147348984Y-143325000D01*
X147151016Y-143325000D01*
X147000000Y-143355038D01*
X147000000Y-142080000D01*
X145352534Y-142080000D01*
X145352516Y-142080001D01*
X145060115Y-142118496D01*
X145060102Y-142118499D01*
X144775209Y-142194835D01*
X144775199Y-142194838D01*
X144502718Y-142307704D01*
X144502707Y-142307709D01*
X144247292Y-142455174D01*
X144247276Y-142455185D01*
X144013290Y-142634729D01*
X144013283Y-142634735D01*
X143804735Y-142843283D01*
X143804729Y-142843290D01*
X143625185Y-143077276D01*
X143625174Y-143077292D01*
X143477709Y-143332707D01*
X143477704Y-143332718D01*
X143364838Y-143605199D01*
X143364835Y-143605209D01*
X143288499Y-143890102D01*
X143288496Y-143890115D01*
X143263497Y-144080000D01*
X118064654Y-144080000D01*
X121537071Y-140607582D01*
X121598392Y-140574099D01*
X121668084Y-140579083D01*
X121724017Y-140620955D01*
X121747970Y-140681381D01*
X121764630Y-140829250D01*
X121764633Y-140829262D01*
X121824209Y-140999520D01*
X121877309Y-141084029D01*
X121896309Y-141151266D01*
X121877309Y-141215971D01*
X121824209Y-141300479D01*
X121764633Y-141470737D01*
X121764630Y-141470750D01*
X121744435Y-141649996D01*
X121744435Y-141650003D01*
X121764630Y-141829249D01*
X121764631Y-141829254D01*
X121824211Y-141999523D01*
X121874779Y-142080001D01*
X121920184Y-142152262D01*
X122047738Y-142279816D01*
X122138080Y-142336582D01*
X122184704Y-142365878D01*
X122200478Y-142375789D01*
X122370745Y-142435368D01*
X122370750Y-142435369D01*
X122549996Y-142455565D01*
X122550000Y-142455565D01*
X122550004Y-142455565D01*
X122729249Y-142435369D01*
X122729252Y-142435368D01*
X122729255Y-142435368D01*
X122899522Y-142375789D01*
X122915296Y-142365878D01*
X122984027Y-142322691D01*
X123051264Y-142303690D01*
X123115973Y-142322691D01*
X123200475Y-142375788D01*
X123370745Y-142435368D01*
X123370750Y-142435369D01*
X123549996Y-142455565D01*
X123550000Y-142455565D01*
X123550004Y-142455565D01*
X123729249Y-142435369D01*
X123729252Y-142435368D01*
X123729255Y-142435368D01*
X123899522Y-142375789D01*
X124052262Y-142279816D01*
X124179816Y-142152262D01*
X124275789Y-141999522D01*
X124335368Y-141829255D01*
X124355565Y-141650000D01*
X124344244Y-141549524D01*
X124335369Y-141470750D01*
X124335368Y-141470745D01*
X124275788Y-141300475D01*
X124222691Y-141215973D01*
X124203690Y-141148736D01*
X124222691Y-141084027D01*
X124275788Y-140999524D01*
X124275789Y-140999522D01*
X124335368Y-140829255D01*
X124349931Y-140700003D01*
X124355565Y-140650003D01*
X124355565Y-140649996D01*
X124335369Y-140470750D01*
X124335368Y-140470745D01*
X124315733Y-140414631D01*
X124275789Y-140300478D01*
X124179816Y-140147738D01*
X124052262Y-140020184D01*
X123984027Y-139977309D01*
X123899523Y-139924211D01*
X123729254Y-139864631D01*
X123729249Y-139864630D01*
X123550004Y-139844435D01*
X123549996Y-139844435D01*
X123370750Y-139864630D01*
X123370737Y-139864633D01*
X123200479Y-139924209D01*
X123115971Y-139977309D01*
X123048734Y-139996309D01*
X122984029Y-139977309D01*
X122899520Y-139924209D01*
X122729262Y-139864633D01*
X122729250Y-139864630D01*
X122581381Y-139847970D01*
X122516967Y-139820903D01*
X122477412Y-139763309D01*
X122475275Y-139693472D01*
X122507582Y-139637071D01*
X124144652Y-138000003D01*
X128244435Y-138000003D01*
X128264630Y-138179249D01*
X128264631Y-138179254D01*
X128324211Y-138349523D01*
X128357679Y-138402786D01*
X128420184Y-138502262D01*
X128547738Y-138629816D01*
X128700478Y-138725789D01*
X128827352Y-138770184D01*
X128870745Y-138785368D01*
X128870750Y-138785369D01*
X129049996Y-138805565D01*
X129050000Y-138805565D01*
X129050004Y-138805565D01*
X129229249Y-138785369D01*
X129229252Y-138785368D01*
X129229255Y-138785368D01*
X129399522Y-138725789D01*
X129552262Y-138629816D01*
X129679816Y-138502262D01*
X129775789Y-138349522D01*
X129835368Y-138179255D01*
X129835369Y-138179249D01*
X129855565Y-138000003D01*
X129855565Y-137999996D01*
X129835369Y-137820750D01*
X129835366Y-137820737D01*
X129773489Y-137643905D01*
X129775637Y-137643153D01*
X129766035Y-137584872D01*
X129774392Y-137556411D01*
X129773489Y-137556095D01*
X129835366Y-137379262D01*
X129835369Y-137379249D01*
X129855565Y-137200003D01*
X129855565Y-137199996D01*
X129835369Y-137020750D01*
X129835368Y-137020745D01*
X129828108Y-136999996D01*
X129775789Y-136850478D01*
X129773169Y-136846309D01*
X129690431Y-136714632D01*
X129679816Y-136697738D01*
X129552262Y-136570184D01*
X129543569Y-136564722D01*
X129399523Y-136474211D01*
X129229254Y-136414631D01*
X129229249Y-136414630D01*
X129050004Y-136394435D01*
X129049996Y-136394435D01*
X128870750Y-136414630D01*
X128870745Y-136414631D01*
X128700476Y-136474211D01*
X128547737Y-136570184D01*
X128420184Y-136697737D01*
X128324211Y-136850476D01*
X128264631Y-137020745D01*
X128264630Y-137020750D01*
X128244435Y-137199996D01*
X128244435Y-137200003D01*
X128264630Y-137379249D01*
X128264633Y-137379262D01*
X128326510Y-137556094D01*
X128324364Y-137556844D01*
X128333962Y-137615144D01*
X128325609Y-137643590D01*
X128326510Y-137643906D01*
X128264633Y-137820737D01*
X128264630Y-137820750D01*
X128244435Y-137999996D01*
X128244435Y-138000003D01*
X124144652Y-138000003D01*
X124156721Y-137987934D01*
X124256572Y-137850500D01*
X124297027Y-137794819D01*
X124405395Y-137582134D01*
X124479158Y-137355115D01*
X124516500Y-137119351D01*
X124516500Y-136050003D01*
X130694435Y-136050003D01*
X130714630Y-136229249D01*
X130714631Y-136229254D01*
X130774211Y-136399523D01*
X130812212Y-136460000D01*
X130870184Y-136552262D01*
X130997738Y-136679816D01*
X131053149Y-136714633D01*
X131147966Y-136774211D01*
X131150478Y-136775789D01*
X131278932Y-136820737D01*
X131320745Y-136835368D01*
X131320750Y-136835369D01*
X131499996Y-136855565D01*
X131500000Y-136855565D01*
X131500004Y-136855565D01*
X131679249Y-136835369D01*
X131679252Y-136835368D01*
X131679255Y-136835368D01*
X131849522Y-136775789D01*
X132002262Y-136679816D01*
X132129816Y-136552262D01*
X132225789Y-136399522D01*
X132285368Y-136229255D01*
X132285369Y-136229249D01*
X132305565Y-136050003D01*
X132305565Y-136049996D01*
X132285369Y-135870750D01*
X132285366Y-135870737D01*
X132231205Y-135715955D01*
X132227643Y-135646176D01*
X132231205Y-135634045D01*
X132285366Y-135479262D01*
X132285369Y-135479249D01*
X132305565Y-135300003D01*
X132305565Y-135299996D01*
X132285369Y-135120750D01*
X132285368Y-135120745D01*
X132264329Y-135060620D01*
X132225789Y-134950478D01*
X132129816Y-134797738D01*
X132002262Y-134670184D01*
X131970934Y-134650499D01*
X131849523Y-134574211D01*
X131679254Y-134514631D01*
X131679249Y-134514630D01*
X131500004Y-134494435D01*
X131499996Y-134494435D01*
X131320750Y-134514630D01*
X131320745Y-134514631D01*
X131150476Y-134574211D01*
X130997737Y-134670184D01*
X130870184Y-134797737D01*
X130774211Y-134950476D01*
X130714631Y-135120745D01*
X130714630Y-135120750D01*
X130694435Y-135299996D01*
X130694435Y-135300003D01*
X130714630Y-135479249D01*
X130714632Y-135479257D01*
X130768795Y-135634046D01*
X130772356Y-135703824D01*
X130768795Y-135715954D01*
X130714632Y-135870742D01*
X130714630Y-135870750D01*
X130694435Y-136049996D01*
X130694435Y-136050003D01*
X124516500Y-136050003D01*
X124516500Y-131279516D01*
X124536185Y-131212477D01*
X124552815Y-131191839D01*
X124990838Y-130753815D01*
X125003955Y-130742421D01*
X125007231Y-130739957D01*
X125080645Y-130664031D01*
X125082049Y-130662605D01*
X125156715Y-130587940D01*
X125156716Y-130587939D01*
X125156716Y-130587938D01*
X125156722Y-130587933D01*
X125159133Y-130584613D01*
X125170314Y-130571297D01*
X125173159Y-130568356D01*
X125233786Y-130481889D01*
X125234972Y-130480230D01*
X125281267Y-130416510D01*
X125281273Y-130416502D01*
X125297027Y-130394819D01*
X125298883Y-130391174D01*
X125307852Y-130376259D01*
X125310200Y-130372912D01*
X125310200Y-130372911D01*
X125310202Y-130372909D01*
X125331528Y-130329255D01*
X125356585Y-130277963D01*
X125357413Y-130276302D01*
X125403195Y-130186450D01*
X125405092Y-130183063D01*
X125405392Y-130182139D01*
X125405395Y-130182134D01*
X125405396Y-130182133D01*
X125406664Y-130178228D01*
X125413178Y-130162121D01*
X125414979Y-130158436D01*
X125445936Y-130057411D01*
X125446518Y-130055569D01*
X125479156Y-129955123D01*
X125479159Y-129955113D01*
X125479798Y-129951076D01*
X125483721Y-129934110D01*
X125484916Y-129930212D01*
X125484918Y-129930201D01*
X125499674Y-129825692D01*
X125499970Y-129823711D01*
X125516500Y-129719351D01*
X125516500Y-129715245D01*
X125517718Y-129697908D01*
X125518291Y-129693851D01*
X125517562Y-129650500D01*
X125516518Y-129588354D01*
X125516500Y-129586270D01*
X125516500Y-128400003D01*
X128144435Y-128400003D01*
X128164630Y-128579249D01*
X128164631Y-128579254D01*
X128224211Y-128749523D01*
X128320184Y-128902262D01*
X128447738Y-129029816D01*
X128600478Y-129125789D01*
X128767144Y-129184108D01*
X128770745Y-129185368D01*
X128770750Y-129185369D01*
X128949996Y-129205565D01*
X128950000Y-129205565D01*
X128950004Y-129205565D01*
X129129249Y-129185369D01*
X129129252Y-129185368D01*
X129129255Y-129185368D01*
X129299522Y-129125789D01*
X129452262Y-129029816D01*
X129579816Y-128902262D01*
X129675789Y-128749522D01*
X129735368Y-128579255D01*
X129755565Y-128400000D01*
X129749348Y-128344823D01*
X129735369Y-128220750D01*
X129735366Y-128220737D01*
X129675789Y-128050479D01*
X129675789Y-128050478D01*
X129669815Y-128040971D01*
X129650815Y-127973737D01*
X129669816Y-127909027D01*
X129675789Y-127899522D01*
X129735368Y-127729255D01*
X129741002Y-127679254D01*
X129755565Y-127550003D01*
X129755565Y-127549996D01*
X129735369Y-127370750D01*
X129735368Y-127370745D01*
X129675788Y-127200476D01*
X129612354Y-127099522D01*
X129579816Y-127047738D01*
X129452262Y-126920184D01*
X129299523Y-126824211D01*
X129129254Y-126764631D01*
X129129249Y-126764630D01*
X128950004Y-126744435D01*
X128949996Y-126744435D01*
X128770750Y-126764630D01*
X128770745Y-126764631D01*
X128600476Y-126824211D01*
X128447737Y-126920184D01*
X128320184Y-127047737D01*
X128224211Y-127200476D01*
X128164631Y-127370745D01*
X128164630Y-127370750D01*
X128144435Y-127549996D01*
X128144435Y-127550003D01*
X128164630Y-127729249D01*
X128164631Y-127729254D01*
X128224212Y-127899525D01*
X128230185Y-127909032D01*
X128249183Y-127976269D01*
X128230185Y-128040968D01*
X128224212Y-128050474D01*
X128164631Y-128220745D01*
X128164630Y-128220750D01*
X128144435Y-128399996D01*
X128144435Y-128400003D01*
X125516500Y-128400003D01*
X125516500Y-128104180D01*
X125516500Y-128104178D01*
X125489976Y-127936718D01*
X125488468Y-127919420D01*
X125406380Y-123035215D01*
X125424935Y-122967857D01*
X125442700Y-122945433D01*
X125444917Y-122943216D01*
X125444916Y-122943216D01*
X126306603Y-122081531D01*
X126365188Y-122022946D01*
X126365192Y-122022941D01*
X126396319Y-121991816D01*
X126457643Y-121958333D01*
X126483997Y-121955500D01*
X126773198Y-121955500D01*
X126773214Y-121955500D01*
X126836736Y-121951493D01*
X126975450Y-121913283D01*
X127097780Y-121837540D01*
X127193815Y-121730401D01*
X127693815Y-120980401D01*
X127703000Y-120966110D01*
X127760562Y-120834246D01*
X127778643Y-120691506D01*
X127755776Y-120549454D01*
X127693815Y-120419599D01*
X127426603Y-120018782D01*
X127405796Y-119952084D01*
X127424351Y-119884723D01*
X127426604Y-119881217D01*
X127453962Y-119840181D01*
X127693815Y-119480401D01*
X127703000Y-119466110D01*
X127760562Y-119334246D01*
X127778602Y-119191830D01*
X127778643Y-119191509D01*
X127778643Y-119191506D01*
X127755776Y-119049454D01*
X127693815Y-118919599D01*
X127426603Y-118518782D01*
X127405796Y-118452084D01*
X127424351Y-118384723D01*
X127426604Y-118381217D01*
X127469530Y-118316829D01*
X127693815Y-117980401D01*
X127703000Y-117966110D01*
X127760562Y-117834246D01*
X127778643Y-117691506D01*
X127755776Y-117549454D01*
X127693815Y-117419599D01*
X127426603Y-117018782D01*
X127405796Y-116952084D01*
X127424351Y-116884723D01*
X127426604Y-116881217D01*
X127453196Y-116841330D01*
X127693815Y-116480401D01*
X127703000Y-116466110D01*
X127760562Y-116334246D01*
X127778643Y-116191506D01*
X127755776Y-116049454D01*
X127693815Y-115919599D01*
X127414082Y-115499999D01*
X127193816Y-115169600D01*
X127155245Y-115118968D01*
X127059893Y-115036344D01*
X127046508Y-115024746D01*
X127046504Y-115024744D01*
X126915633Y-114964976D01*
X126915628Y-114964975D01*
X126773214Y-114944500D01*
X126410782Y-114944500D01*
X126343743Y-114924815D01*
X126323101Y-114908181D01*
X126303108Y-114888188D01*
X126276228Y-114847960D01*
X126272346Y-114838586D01*
X126261377Y-114822169D01*
X126162853Y-114674717D01*
X126023499Y-114535363D01*
X126023491Y-114535357D01*
X125859630Y-114425869D01*
X125859631Y-114425869D01*
X125854709Y-114423830D01*
X125850250Y-114421983D01*
X125810026Y-114395105D01*
X125287245Y-113872324D01*
X125253760Y-113811001D01*
X125250944Y-113786727D01*
X125245514Y-113463664D01*
X125116518Y-105788342D01*
X125116500Y-105786258D01*
X125116500Y-105680654D01*
X125116500Y-105680649D01*
X125115857Y-105676593D01*
X125114348Y-105659284D01*
X125114280Y-105655182D01*
X125095990Y-105551067D01*
X125095703Y-105549348D01*
X125079159Y-105444886D01*
X125077890Y-105440982D01*
X125073691Y-105424120D01*
X125072982Y-105420079D01*
X125038669Y-105320220D01*
X125038029Y-105318302D01*
X125005397Y-105217869D01*
X125005395Y-105217865D01*
X125003536Y-105214217D01*
X124996744Y-105198202D01*
X124995415Y-105194334D01*
X124995414Y-105194331D01*
X124945887Y-105101040D01*
X124944975Y-105099287D01*
X124897027Y-105005182D01*
X124894613Y-105001859D01*
X124885412Y-104987124D01*
X124883487Y-104983498D01*
X124820018Y-104899158D01*
X124818783Y-104897488D01*
X124756725Y-104812070D01*
X124753819Y-104809164D01*
X124742418Y-104796040D01*
X124739960Y-104792773D01*
X124664079Y-104719400D01*
X124662594Y-104717939D01*
X122752819Y-102808164D01*
X122719334Y-102746841D01*
X122716500Y-102720483D01*
X122716500Y-97680649D01*
X122695806Y-97549996D01*
X122679158Y-97444885D01*
X122605395Y-97217866D01*
X122497027Y-97005181D01*
X122356721Y-96812067D01*
X122187933Y-96643279D01*
X121994819Y-96502973D01*
X121782134Y-96394605D01*
X121555115Y-96320842D01*
X121555113Y-96320841D01*
X121555111Y-96320841D01*
X121390498Y-96294768D01*
X121319351Y-96283500D01*
X121080649Y-96283500D01*
X121025995Y-96292156D01*
X120844888Y-96320841D01*
X120844887Y-96320841D01*
X120617863Y-96394606D01*
X120405180Y-96502973D01*
X120299163Y-96580000D01*
X120212067Y-96643279D01*
X120212065Y-96643281D01*
X120212064Y-96643281D01*
X120043281Y-96812064D01*
X120043281Y-96812065D01*
X120043279Y-96812067D01*
X120034456Y-96824211D01*
X119902973Y-97005180D01*
X119794606Y-97217863D01*
X119720841Y-97444887D01*
X119720841Y-97444888D01*
X119683500Y-97680649D01*
X119683500Y-102759500D01*
X119663815Y-102826539D01*
X119611011Y-102872294D01*
X119559500Y-102883500D01*
X119280649Y-102883500D01*
X119225995Y-102892156D01*
X119044888Y-102920841D01*
X119044887Y-102920841D01*
X118817863Y-102994606D01*
X118605180Y-103102973D01*
X118511901Y-103170745D01*
X118412067Y-103243279D01*
X118412065Y-103243281D01*
X118412064Y-103243281D01*
X118243281Y-103412064D01*
X118243281Y-103412065D01*
X118243279Y-103412067D01*
X118214076Y-103452262D01*
X118102973Y-103605180D01*
X117994606Y-103817863D01*
X117920841Y-104044887D01*
X117920841Y-104044888D01*
X117883500Y-104280649D01*
X117883500Y-104519350D01*
X117920841Y-104755111D01*
X117920841Y-104755112D01*
X117920842Y-104755115D01*
X117978503Y-104932578D01*
X117994606Y-104982136D01*
X118018900Y-105029816D01*
X118102973Y-105194819D01*
X118243279Y-105387933D01*
X118412067Y-105556721D01*
X118605181Y-105697027D01*
X118817866Y-105805395D01*
X119044885Y-105879158D01*
X119280649Y-105916500D01*
X121520483Y-105916500D01*
X121587522Y-105936185D01*
X121608164Y-105952819D01*
X122058561Y-106403216D01*
X122092046Y-106464539D01*
X122094862Y-106488813D01*
X122101242Y-106868426D01*
X122082687Y-106935787D01*
X122030660Y-106982423D01*
X121961678Y-106993527D01*
X121897644Y-106965574D01*
X121880311Y-106947820D01*
X121880244Y-106947736D01*
X121752692Y-106820184D01*
X121599953Y-106724211D01*
X121429684Y-106664631D01*
X121429679Y-106664630D01*
X121250434Y-106644435D01*
X121250426Y-106644435D01*
X121071180Y-106664630D01*
X121071172Y-106664632D01*
X120916169Y-106718870D01*
X120846390Y-106722431D01*
X120834261Y-106718870D01*
X120679257Y-106664632D01*
X120679249Y-106664630D01*
X120500004Y-106644435D01*
X120499996Y-106644435D01*
X120320750Y-106664630D01*
X120320745Y-106664631D01*
X120150476Y-106724211D01*
X119997737Y-106820184D01*
X119870184Y-106947737D01*
X119774211Y-107100476D01*
X119714631Y-107270745D01*
X119714630Y-107270750D01*
X119694435Y-107449996D01*
X119694435Y-107450003D01*
X119714630Y-107629249D01*
X119714632Y-107629257D01*
X119751474Y-107734546D01*
X119755035Y-107804325D01*
X119720306Y-107864952D01*
X119658312Y-107897179D01*
X119634432Y-107899500D01*
X117650000Y-107899500D01*
X117649983Y-107899501D01*
X117547204Y-107910000D01*
X117547201Y-107910001D01*
X117380669Y-107965185D01*
X117380664Y-107965187D01*
X117231343Y-108057290D01*
X117107290Y-108181343D01*
X117015187Y-108330664D01*
X117015186Y-108330667D01*
X116960001Y-108497204D01*
X116960001Y-108497205D01*
X116960000Y-108497205D01*
X116949500Y-108599985D01*
X116949500Y-112099999D01*
X116949501Y-112100016D01*
X116960000Y-112202795D01*
X116960001Y-112202798D01*
X116995047Y-112308558D01*
X117015186Y-112369333D01*
X117107289Y-112518655D01*
X117231345Y-112642711D01*
X117380667Y-112734814D01*
X117547204Y-112789999D01*
X117649993Y-112800500D01*
X121150006Y-112800499D01*
X121252796Y-112789999D01*
X121419333Y-112734814D01*
X121568655Y-112642711D01*
X121692711Y-112518655D01*
X121784814Y-112369333D01*
X121839999Y-112202796D01*
X121850500Y-112100007D01*
X121850499Y-108599994D01*
X121839999Y-108497204D01*
X121784814Y-108330667D01*
X121784810Y-108330661D01*
X121784809Y-108330658D01*
X121728200Y-108238881D01*
X121709759Y-108171489D01*
X121730681Y-108104825D01*
X121748495Y-108085467D01*
X121747768Y-108084740D01*
X121792791Y-108039717D01*
X121880246Y-107952262D01*
X121891260Y-107934732D01*
X121943593Y-107888440D01*
X122012646Y-107877790D01*
X122076495Y-107906164D01*
X122114869Y-107964553D01*
X122120237Y-107998618D01*
X122210033Y-113341416D01*
X122191478Y-113408777D01*
X122139451Y-113455413D01*
X122086051Y-113467500D01*
X121407773Y-113467500D01*
X121125134Y-113499346D01*
X121125118Y-113499348D01*
X120847813Y-113562641D01*
X120847797Y-113562646D01*
X120579333Y-113656586D01*
X120579319Y-113656592D01*
X120535220Y-113677830D01*
X120535219Y-113677830D01*
X120323057Y-113780000D01*
X120082207Y-113931337D01*
X119859818Y-114108685D01*
X117508685Y-116459818D01*
X117331337Y-116682207D01*
X117180000Y-116923057D01*
X117056593Y-117179316D01*
X117056590Y-117179324D01*
X116962646Y-117447798D01*
X116962642Y-117447810D01*
X116899348Y-117725122D01*
X116899345Y-117725136D01*
X116867501Y-118007770D01*
X116867501Y-118292229D01*
X116899345Y-118574863D01*
X116899348Y-118574877D01*
X116962642Y-118852189D01*
X116962646Y-118852201D01*
X117056590Y-119120675D01*
X117056593Y-119120683D01*
X117180000Y-119376942D01*
X117231353Y-119458670D01*
X117331338Y-119617794D01*
X117508686Y-119840182D01*
X120359818Y-122691314D01*
X120582206Y-122868662D01*
X120700858Y-122943216D01*
X120823053Y-123019997D01*
X120854661Y-123035218D01*
X120996027Y-123103295D01*
X121079327Y-123143411D01*
X121079333Y-123143413D01*
X121347797Y-123237353D01*
X121347802Y-123237354D01*
X121347809Y-123237357D01*
X121625122Y-123300652D01*
X121907774Y-123332499D01*
X121907775Y-123332500D01*
X121907778Y-123332500D01*
X122256017Y-123332500D01*
X122323056Y-123352185D01*
X122368811Y-123404989D01*
X122379999Y-123454416D01*
X122459954Y-128211716D01*
X122459972Y-128213800D01*
X122459972Y-128319359D01*
X122460614Y-128323412D01*
X122462121Y-128340685D01*
X122462191Y-128344795D01*
X122462191Y-128344823D01*
X122472023Y-128929856D01*
X122453468Y-128997217D01*
X122435722Y-129019621D01*
X121843280Y-129612064D01*
X121843275Y-129612069D01*
X121790351Y-129684915D01*
X121790350Y-129684917D01*
X121770934Y-129711640D01*
X121715603Y-129754305D01*
X121645990Y-129760283D01*
X121584195Y-129727676D01*
X121565623Y-129704725D01*
X121561340Y-129697908D01*
X121529816Y-129647738D01*
X121402262Y-129520184D01*
X121364265Y-129496309D01*
X121249523Y-129424211D01*
X121079254Y-129364631D01*
X121079249Y-129364630D01*
X120900004Y-129344435D01*
X120899996Y-129344435D01*
X120720750Y-129364630D01*
X120720737Y-129364633D01*
X120550479Y-129424209D01*
X120465971Y-129477309D01*
X120398734Y-129496309D01*
X120334029Y-129477309D01*
X120249520Y-129424209D01*
X120079262Y-129364633D01*
X120079249Y-129364630D01*
X119900004Y-129344435D01*
X119899996Y-129344435D01*
X119720750Y-129364630D01*
X119720745Y-129364631D01*
X119550476Y-129424211D01*
X119397737Y-129520184D01*
X119270184Y-129647737D01*
X119174211Y-129800476D01*
X119114631Y-129970745D01*
X119114630Y-129970750D01*
X119094435Y-130149996D01*
X119094435Y-130150003D01*
X119114630Y-130329249D01*
X119114633Y-130329262D01*
X119174209Y-130499520D01*
X119227309Y-130584029D01*
X119246309Y-130651266D01*
X119227309Y-130715971D01*
X119174209Y-130800479D01*
X119114633Y-130970737D01*
X119114630Y-130970750D01*
X119094435Y-131149996D01*
X119094435Y-131150003D01*
X119114630Y-131329249D01*
X119114631Y-131329254D01*
X119174211Y-131499523D01*
X119270184Y-131652262D01*
X119397738Y-131779816D01*
X119550478Y-131875789D01*
X119627594Y-131902773D01*
X119720745Y-131935368D01*
X119720750Y-131935369D01*
X119899996Y-131955565D01*
X119900000Y-131955565D01*
X119900004Y-131955565D01*
X120079249Y-131935369D01*
X120079252Y-131935368D01*
X120079255Y-131935368D01*
X120249522Y-131875789D01*
X120323767Y-131829138D01*
X120334027Y-131822691D01*
X120401264Y-131803690D01*
X120465973Y-131822691D01*
X120550475Y-131875788D01*
X120720745Y-131935368D01*
X120720750Y-131935369D01*
X120899996Y-131955565D01*
X120900000Y-131955565D01*
X120900004Y-131955565D01*
X121079249Y-131935369D01*
X121079252Y-131935368D01*
X121079255Y-131935368D01*
X121249522Y-131875789D01*
X121293527Y-131848139D01*
X121360764Y-131829138D01*
X121427599Y-131849505D01*
X121472814Y-131902773D01*
X121483500Y-131953132D01*
X121483500Y-136320482D01*
X121463815Y-136387521D01*
X121447181Y-136408163D01*
X116863594Y-140991749D01*
X116802271Y-141025234D01*
X116732579Y-141020250D01*
X116676646Y-140978378D01*
X116658871Y-140945022D01*
X116635858Y-140879255D01*
X116625789Y-140850478D01*
X116529816Y-140697738D01*
X116402262Y-140570184D01*
X116359028Y-140543018D01*
X116249523Y-140474211D01*
X116079254Y-140414631D01*
X116079249Y-140414630D01*
X115900004Y-140394435D01*
X115899996Y-140394435D01*
X115720750Y-140414630D01*
X115720745Y-140414631D01*
X115550476Y-140474211D01*
X115440972Y-140543018D01*
X115373735Y-140562018D01*
X115309028Y-140543018D01*
X115199523Y-140474211D01*
X115029254Y-140414631D01*
X115029249Y-140414630D01*
X114850004Y-140394435D01*
X114849996Y-140394435D01*
X114670750Y-140414630D01*
X114670745Y-140414631D01*
X114500476Y-140474211D01*
X114347737Y-140570184D01*
X114220184Y-140697737D01*
X114124211Y-140850476D01*
X114064631Y-141020745D01*
X114064630Y-141020750D01*
X114044435Y-141199996D01*
X114044435Y-141200003D01*
X114064630Y-141379249D01*
X114064631Y-141379254D01*
X114124211Y-141549523D01*
X114187347Y-141650003D01*
X114220184Y-141702262D01*
X114347738Y-141829816D01*
X114500478Y-141925789D01*
X114595021Y-141958871D01*
X114670745Y-141985368D01*
X114670750Y-141985369D01*
X114849996Y-142005565D01*
X114850000Y-142005565D01*
X114850004Y-142005565D01*
X115029249Y-141985369D01*
X115029252Y-141985368D01*
X115029255Y-141985368D01*
X115199522Y-141925789D01*
X115309028Y-141856981D01*
X115376264Y-141837981D01*
X115440971Y-141856981D01*
X115550478Y-141925789D01*
X115645023Y-141958871D01*
X115701798Y-141999593D01*
X115727546Y-142064545D01*
X115714090Y-142133107D01*
X115691749Y-142163594D01*
X113937673Y-143917670D01*
X113876350Y-143951155D01*
X113806658Y-143946171D01*
X113750725Y-143904299D01*
X113732950Y-143870942D01*
X113725790Y-143850479D01*
X113629815Y-143697737D01*
X113502262Y-143570184D01*
X113349521Y-143474210D01*
X113179255Y-143414632D01*
X113179248Y-143414631D01*
X113175834Y-143414246D01*
X113173781Y-143413383D01*
X113172466Y-143413083D01*
X113172518Y-143412852D01*
X113111422Y-143387172D01*
X113102049Y-143378708D01*
X112089219Y-142365878D01*
X112055734Y-142304555D01*
X112052900Y-142278197D01*
X112052900Y-137927746D01*
X112072585Y-137860707D01*
X112125389Y-137814952D01*
X112190785Y-137804526D01*
X112200000Y-137805565D01*
X112312752Y-137792860D01*
X112379249Y-137785369D01*
X112379252Y-137785368D01*
X112379255Y-137785368D01*
X112549522Y-137725789D01*
X112702262Y-137629816D01*
X112829816Y-137502262D01*
X112925789Y-137349522D01*
X112985368Y-137179255D01*
X112988101Y-137155000D01*
X113005565Y-137000003D01*
X113005565Y-136999996D01*
X112985369Y-136820750D01*
X112985366Y-136820737D01*
X112925790Y-136650479D01*
X112871906Y-136564722D01*
X112852900Y-136498751D01*
X112852900Y-124200003D01*
X113444435Y-124200003D01*
X113464630Y-124379249D01*
X113464631Y-124379254D01*
X113524211Y-124549523D01*
X113620184Y-124702262D01*
X113747738Y-124829816D01*
X113900478Y-124925789D01*
X114070745Y-124985368D01*
X114070750Y-124985369D01*
X114249996Y-125005565D01*
X114250000Y-125005565D01*
X114250004Y-125005565D01*
X114429249Y-124985369D01*
X114429252Y-124985368D01*
X114429255Y-124985368D01*
X114599522Y-124925789D01*
X114684027Y-124872691D01*
X114751264Y-124853690D01*
X114815973Y-124872691D01*
X114900475Y-124925788D01*
X115070745Y-124985368D01*
X115070750Y-124985369D01*
X115249996Y-125005565D01*
X115250000Y-125005565D01*
X115250004Y-125005565D01*
X115429249Y-124985369D01*
X115429252Y-124985368D01*
X115429255Y-124985368D01*
X115599522Y-124925789D01*
X115752262Y-124829816D01*
X115879816Y-124702262D01*
X115975789Y-124549522D01*
X116035368Y-124379255D01*
X116055565Y-124200000D01*
X116035368Y-124020745D01*
X115975789Y-123850478D01*
X115975788Y-123850475D01*
X115922691Y-123765973D01*
X115903690Y-123698736D01*
X115922691Y-123634027D01*
X115975788Y-123549524D01*
X115975789Y-123549522D01*
X116035368Y-123379255D01*
X116040636Y-123332499D01*
X116055565Y-123200003D01*
X116055565Y-123199996D01*
X116035369Y-123020750D01*
X116035368Y-123020745D01*
X116010712Y-122950282D01*
X115975789Y-122850478D01*
X115879816Y-122697738D01*
X115752262Y-122570184D01*
X115650170Y-122506035D01*
X115599523Y-122474211D01*
X115429254Y-122414631D01*
X115429249Y-122414630D01*
X115250004Y-122394435D01*
X115249996Y-122394435D01*
X115070750Y-122414630D01*
X115070737Y-122414633D01*
X114900479Y-122474209D01*
X114815971Y-122527309D01*
X114748734Y-122546309D01*
X114684029Y-122527309D01*
X114599520Y-122474209D01*
X114429262Y-122414633D01*
X114429249Y-122414630D01*
X114250004Y-122394435D01*
X114249996Y-122394435D01*
X114070750Y-122414630D01*
X114070745Y-122414631D01*
X113900476Y-122474211D01*
X113747737Y-122570184D01*
X113620184Y-122697737D01*
X113524211Y-122850476D01*
X113464631Y-123020745D01*
X113464630Y-123020750D01*
X113444435Y-123199996D01*
X113444435Y-123200003D01*
X113464630Y-123379249D01*
X113464633Y-123379262D01*
X113524209Y-123549520D01*
X113577309Y-123634029D01*
X113596309Y-123701266D01*
X113577309Y-123765971D01*
X113524209Y-123850479D01*
X113464633Y-124020737D01*
X113464630Y-124020750D01*
X113444435Y-124199996D01*
X113444435Y-124200003D01*
X112852900Y-124200003D01*
X112852900Y-96258325D01*
X112827810Y-96132194D01*
X112827809Y-96132193D01*
X112827809Y-96132189D01*
X112778592Y-96013369D01*
X112721059Y-95927265D01*
X112721057Y-95927262D01*
X112707142Y-95906435D01*
X112400710Y-95600003D01*
X115944435Y-95600003D01*
X115964630Y-95779249D01*
X115964631Y-95779254D01*
X116024211Y-95949523D01*
X116120184Y-96102262D01*
X116247738Y-96229816D01*
X116400478Y-96325789D01*
X116476214Y-96352290D01*
X116570745Y-96385368D01*
X116570750Y-96385369D01*
X116749996Y-96405565D01*
X116750000Y-96405565D01*
X116750004Y-96405565D01*
X116929249Y-96385369D01*
X116929252Y-96385368D01*
X116929255Y-96385368D01*
X117099522Y-96325789D01*
X117252262Y-96229816D01*
X117379816Y-96102262D01*
X117475789Y-95949522D01*
X117535368Y-95779255D01*
X117555565Y-95600000D01*
X117553618Y-95582723D01*
X117535369Y-95420750D01*
X117535366Y-95420737D01*
X117489953Y-95290955D01*
X117486391Y-95221176D01*
X117489953Y-95209045D01*
X117535366Y-95079262D01*
X117535369Y-95079249D01*
X117555565Y-94900003D01*
X117555565Y-94899996D01*
X117535369Y-94720750D01*
X117535368Y-94720745D01*
X117504048Y-94631237D01*
X117475789Y-94550478D01*
X117379816Y-94397738D01*
X117252262Y-94270184D01*
X117099523Y-94174211D01*
X116929254Y-94114631D01*
X116929249Y-94114630D01*
X116750004Y-94094435D01*
X116749996Y-94094435D01*
X116570750Y-94114630D01*
X116570745Y-94114631D01*
X116400476Y-94174211D01*
X116247737Y-94270184D01*
X116120184Y-94397737D01*
X116024211Y-94550476D01*
X115964631Y-94720745D01*
X115964630Y-94720750D01*
X115944435Y-94899996D01*
X115944435Y-94900003D01*
X115964630Y-95079249D01*
X115964632Y-95079257D01*
X116010047Y-95209046D01*
X116013608Y-95278825D01*
X116010047Y-95290954D01*
X115964632Y-95420742D01*
X115964630Y-95420750D01*
X115944435Y-95599996D01*
X115944435Y-95600003D01*
X112400710Y-95600003D01*
X111790092Y-94989385D01*
X111756607Y-94928062D01*
X111761591Y-94858370D01*
X111803463Y-94802437D01*
X111868927Y-94778020D01*
X111913906Y-94784019D01*
X111913953Y-94783818D01*
X111916144Y-94784318D01*
X111918730Y-94784663D01*
X111920745Y-94785368D01*
X111920748Y-94785368D01*
X111920750Y-94785369D01*
X112099996Y-94805565D01*
X112100000Y-94805565D01*
X112100004Y-94805565D01*
X112279249Y-94785369D01*
X112279252Y-94785368D01*
X112279255Y-94785368D01*
X112449522Y-94725789D01*
X112602262Y-94629816D01*
X112729816Y-94502262D01*
X112825789Y-94349522D01*
X112885368Y-94179255D01*
X112885369Y-94179249D01*
X112905565Y-94000003D01*
X112905565Y-93999996D01*
X112885369Y-93820750D01*
X112885368Y-93820745D01*
X112825788Y-93650475D01*
X112772691Y-93565973D01*
X112753690Y-93498736D01*
X112772691Y-93434027D01*
X112825788Y-93349524D01*
X112831673Y-93332707D01*
X112885368Y-93179255D01*
X112889607Y-93141631D01*
X112905565Y-93000003D01*
X112905565Y-92999996D01*
X112885369Y-92820750D01*
X112885368Y-92820745D01*
X112844908Y-92705117D01*
X112825789Y-92650478D01*
X112729816Y-92497738D01*
X112602262Y-92370184D01*
X112502826Y-92307704D01*
X112449523Y-92274211D01*
X112279254Y-92214631D01*
X112279249Y-92214630D01*
X112100004Y-92194435D01*
X112099996Y-92194435D01*
X111920750Y-92214630D01*
X111920737Y-92214633D01*
X111750479Y-92274209D01*
X111665971Y-92327309D01*
X111598734Y-92346309D01*
X111534029Y-92327309D01*
X111449520Y-92274209D01*
X111279262Y-92214633D01*
X111279249Y-92214630D01*
X111100004Y-92194435D01*
X111099996Y-92194435D01*
X110920750Y-92214630D01*
X110920745Y-92214631D01*
X110750476Y-92274211D01*
X110597737Y-92370184D01*
X110470184Y-92497737D01*
X110374211Y-92650476D01*
X110314631Y-92820745D01*
X110314630Y-92820750D01*
X110294435Y-92999996D01*
X110294435Y-93000003D01*
X110314630Y-93179249D01*
X110314634Y-93179266D01*
X110315338Y-93181277D01*
X110315408Y-93182657D01*
X110316182Y-93186047D01*
X110315588Y-93186182D01*
X110318897Y-93251055D01*
X110284166Y-93311681D01*
X110222171Y-93343906D01*
X110152595Y-93337498D01*
X110110614Y-93309907D01*
X107122506Y-90321798D01*
X107089021Y-90260475D01*
X107094005Y-90190783D01*
X107135877Y-90134850D01*
X107144215Y-90129123D01*
X107149519Y-90125789D01*
X107149522Y-90125789D01*
X107302262Y-90029816D01*
X107429816Y-89902262D01*
X107525789Y-89749522D01*
X107585368Y-89579255D01*
X107595161Y-89492329D01*
X107622226Y-89427918D01*
X107630690Y-89418543D01*
X108412416Y-88636819D01*
X108473739Y-88603334D01*
X108500097Y-88600500D01*
X111618842Y-88600500D01*
X111685881Y-88620185D01*
X111731636Y-88672989D01*
X111741580Y-88742147D01*
X111712555Y-88805703D01*
X111702631Y-88815229D01*
X111702662Y-88815260D01*
X111570184Y-88947737D01*
X111474211Y-89100476D01*
X111414631Y-89270745D01*
X111414630Y-89270750D01*
X111394435Y-89449996D01*
X111394435Y-89450003D01*
X111414630Y-89629249D01*
X111414631Y-89629254D01*
X111474211Y-89799523D01*
X111537045Y-89899522D01*
X111570184Y-89952262D01*
X111697738Y-90079816D01*
X111770904Y-90125789D01*
X111832721Y-90164632D01*
X111850478Y-90175789D01*
X111988860Y-90224211D01*
X112020745Y-90235368D01*
X112020750Y-90235369D01*
X112199996Y-90255565D01*
X112200000Y-90255565D01*
X112200004Y-90255565D01*
X112379249Y-90235369D01*
X112379252Y-90235368D01*
X112379255Y-90235368D01*
X112549522Y-90175789D01*
X112702262Y-90079816D01*
X112702267Y-90079810D01*
X112705097Y-90077555D01*
X112707275Y-90076665D01*
X112708158Y-90076111D01*
X112708255Y-90076265D01*
X112769783Y-90051145D01*
X112782412Y-90050500D01*
X120549903Y-90050500D01*
X120616942Y-90070185D01*
X120637584Y-90086819D01*
X131963181Y-101412416D01*
X131996666Y-101473739D01*
X131999500Y-101500097D01*
X131999500Y-102446523D01*
X131979815Y-102513562D01*
X131927011Y-102559317D01*
X131857853Y-102569261D01*
X131794297Y-102540236D01*
X131770507Y-102512496D01*
X131729817Y-102447739D01*
X131602262Y-102320184D01*
X131449523Y-102224211D01*
X131279254Y-102164631D01*
X131279249Y-102164630D01*
X131100004Y-102144435D01*
X131099996Y-102144435D01*
X130920750Y-102164630D01*
X130920745Y-102164631D01*
X130750476Y-102224211D01*
X130640972Y-102293018D01*
X130573735Y-102312018D01*
X130509028Y-102293018D01*
X130399523Y-102224211D01*
X130229254Y-102164631D01*
X130229249Y-102164630D01*
X130050004Y-102144435D01*
X130049996Y-102144435D01*
X129870750Y-102164630D01*
X129870745Y-102164631D01*
X129700476Y-102224211D01*
X129547737Y-102320184D01*
X129420184Y-102447737D01*
X129324211Y-102600476D01*
X129264631Y-102770745D01*
X129264630Y-102770750D01*
X129244435Y-102949996D01*
X129244435Y-102950003D01*
X129264630Y-103129249D01*
X129264631Y-103129254D01*
X129324211Y-103299523D01*
X129394928Y-103412067D01*
X129420184Y-103452262D01*
X129547738Y-103579816D01*
X129700478Y-103675789D01*
X129768306Y-103699523D01*
X129870745Y-103735368D01*
X129870750Y-103735369D01*
X130049996Y-103755565D01*
X130050000Y-103755565D01*
X130050004Y-103755565D01*
X130229249Y-103735369D01*
X130229252Y-103735368D01*
X130229255Y-103735368D01*
X130399522Y-103675789D01*
X130509028Y-103606981D01*
X130576264Y-103587981D01*
X130640971Y-103606981D01*
X130673776Y-103627594D01*
X130750475Y-103675788D01*
X130920745Y-103735368D01*
X130920750Y-103735369D01*
X131099996Y-103755565D01*
X131100000Y-103755565D01*
X131100004Y-103755565D01*
X131279249Y-103735369D01*
X131279252Y-103735368D01*
X131279255Y-103735368D01*
X131449522Y-103675789D01*
X131602262Y-103579816D01*
X131729816Y-103452262D01*
X131770506Y-103387503D01*
X131822841Y-103341213D01*
X131891894Y-103330565D01*
X131955743Y-103358940D01*
X131994115Y-103417330D01*
X131999500Y-103453476D01*
X131999500Y-105313330D01*
X131999499Y-105313348D01*
X131999499Y-105479054D01*
X131999498Y-105479054D01*
X132040423Y-105631786D01*
X132040424Y-105631787D01*
X132068560Y-105680520D01*
X132119480Y-105768716D01*
X132119482Y-105768718D01*
X132238349Y-105887585D01*
X132238355Y-105887590D01*
X132763181Y-106412416D01*
X132796666Y-106473739D01*
X132799500Y-106500097D01*
X132799500Y-108776097D01*
X132779815Y-108843136D01*
X132727011Y-108888891D01*
X132657853Y-108898835D01*
X132594297Y-108869810D01*
X132570507Y-108842070D01*
X132479817Y-108697739D01*
X132352262Y-108570184D01*
X132199523Y-108474211D01*
X132029254Y-108414631D01*
X132029249Y-108414630D01*
X131850004Y-108394435D01*
X131849996Y-108394435D01*
X131670750Y-108414630D01*
X131670737Y-108414633D01*
X131500479Y-108474209D01*
X131415971Y-108527309D01*
X131348734Y-108546309D01*
X131284029Y-108527309D01*
X131199520Y-108474209D01*
X131029262Y-108414633D01*
X131029249Y-108414630D01*
X130850004Y-108394435D01*
X130849996Y-108394435D01*
X130670750Y-108414630D01*
X130670745Y-108414631D01*
X130500476Y-108474211D01*
X130347737Y-108570184D01*
X130220184Y-108697737D01*
X130124211Y-108850476D01*
X130064631Y-109020745D01*
X130064630Y-109020750D01*
X130044435Y-109199996D01*
X130044435Y-109200003D01*
X130064630Y-109379249D01*
X130064633Y-109379262D01*
X130124209Y-109549520D01*
X130177309Y-109634029D01*
X130196309Y-109701266D01*
X130177309Y-109765971D01*
X130124209Y-109850479D01*
X130064633Y-110020737D01*
X130064630Y-110020750D01*
X130044435Y-110199996D01*
X130044435Y-110200003D01*
X130064630Y-110379249D01*
X130064631Y-110379254D01*
X130124211Y-110549523D01*
X130129494Y-110557930D01*
X130220184Y-110702262D01*
X130347738Y-110829816D01*
X130500478Y-110925789D01*
X130670745Y-110985368D01*
X130670750Y-110985369D01*
X130849996Y-111005565D01*
X130850000Y-111005565D01*
X130850004Y-111005565D01*
X131029249Y-110985369D01*
X131029252Y-110985368D01*
X131029255Y-110985368D01*
X131199522Y-110925789D01*
X131284027Y-110872691D01*
X131351264Y-110853690D01*
X131415973Y-110872691D01*
X131500475Y-110925788D01*
X131670745Y-110985368D01*
X131670750Y-110985369D01*
X131849996Y-111005565D01*
X131850000Y-111005565D01*
X131850004Y-111005565D01*
X132029249Y-110985369D01*
X132029252Y-110985368D01*
X132029255Y-110985368D01*
X132199522Y-110925789D01*
X132352262Y-110829816D01*
X132479816Y-110702262D01*
X132570506Y-110557930D01*
X132622841Y-110511639D01*
X132691895Y-110500991D01*
X132755743Y-110529366D01*
X132794115Y-110587756D01*
X132799500Y-110623902D01*
X132799500Y-127817587D01*
X132779815Y-127884626D01*
X132772450Y-127894896D01*
X132770186Y-127897734D01*
X132674211Y-128050476D01*
X132614631Y-128220745D01*
X132614630Y-128220750D01*
X132594435Y-128399996D01*
X132594435Y-128400003D01*
X132614630Y-128579249D01*
X132614631Y-128579254D01*
X132674211Y-128749523D01*
X132770184Y-128902262D01*
X132897738Y-129029816D01*
X133050478Y-129125789D01*
X133217144Y-129184108D01*
X133220745Y-129185368D01*
X133220750Y-129185369D01*
X133399996Y-129205565D01*
X133400000Y-129205565D01*
X133400004Y-129205565D01*
X133579249Y-129185369D01*
X133579252Y-129185368D01*
X133579255Y-129185368D01*
X133749522Y-129125789D01*
X133809527Y-129088084D01*
X133876763Y-129069084D01*
X133943599Y-129089451D01*
X133988813Y-129142718D01*
X133999500Y-129193078D01*
X133999500Y-132275503D01*
X133979815Y-132342542D01*
X133927011Y-132388297D01*
X133857853Y-132398241D01*
X133809532Y-132380499D01*
X133799526Y-132374212D01*
X133629254Y-132314631D01*
X133629249Y-132314630D01*
X133450004Y-132294435D01*
X133449996Y-132294435D01*
X133270750Y-132314630D01*
X133270745Y-132314631D01*
X133100476Y-132374211D01*
X132947737Y-132470184D01*
X132820184Y-132597737D01*
X132724210Y-132750478D01*
X132664630Y-132920750D01*
X132661132Y-132951798D01*
X132634064Y-133016211D01*
X132576468Y-133055765D01*
X132551798Y-133061132D01*
X132520750Y-133064630D01*
X132350478Y-133124210D01*
X132197737Y-133220184D01*
X132070184Y-133347737D01*
X131974211Y-133500476D01*
X131914631Y-133670745D01*
X131914630Y-133670750D01*
X131894435Y-133849996D01*
X131894435Y-133850003D01*
X131914630Y-134029249D01*
X131914631Y-134029254D01*
X131974211Y-134199523D01*
X132047331Y-134315892D01*
X132070184Y-134352262D01*
X132197738Y-134479816D01*
X132288080Y-134536582D01*
X132347966Y-134574211D01*
X132350478Y-134575789D01*
X132447916Y-134609884D01*
X132520745Y-134635368D01*
X132520750Y-134635369D01*
X132699996Y-134655565D01*
X132700000Y-134655565D01*
X132700004Y-134655565D01*
X132879249Y-134635369D01*
X132879252Y-134635368D01*
X132879255Y-134635368D01*
X133049522Y-134575789D01*
X133202262Y-134479816D01*
X133329816Y-134352262D01*
X133425789Y-134199522D01*
X133485368Y-134029255D01*
X133488866Y-133998203D01*
X133515930Y-133933792D01*
X133573523Y-133894235D01*
X133598196Y-133888867D01*
X133629255Y-133885368D01*
X133799522Y-133825789D01*
X133799524Y-133825788D01*
X133809527Y-133819503D01*
X133876764Y-133800502D01*
X133943599Y-133820869D01*
X133988814Y-133874137D01*
X133999500Y-133924496D01*
X133999500Y-138817587D01*
X133979815Y-138884626D01*
X133972450Y-138894896D01*
X133970186Y-138897734D01*
X133874211Y-139050476D01*
X133814631Y-139220745D01*
X133814630Y-139220750D01*
X133794435Y-139399996D01*
X133794435Y-139400003D01*
X133814630Y-139579249D01*
X133814631Y-139579254D01*
X133874211Y-139749523D01*
X133933849Y-139844435D01*
X133970184Y-139902262D01*
X134097738Y-140029816D01*
X134161983Y-140070184D01*
X134204999Y-140097213D01*
X134250478Y-140125789D01*
X134313202Y-140147737D01*
X134420745Y-140185368D01*
X134420750Y-140185369D01*
X134599996Y-140205565D01*
X134600000Y-140205565D01*
X134600004Y-140205565D01*
X134779249Y-140185369D01*
X134779252Y-140185368D01*
X134779255Y-140185368D01*
X134949522Y-140125789D01*
X134995001Y-140097213D01*
X135034027Y-140072691D01*
X135101264Y-140053690D01*
X135165973Y-140072691D01*
X135250475Y-140125788D01*
X135420745Y-140185368D01*
X135420750Y-140185369D01*
X135599996Y-140205565D01*
X135600000Y-140205565D01*
X135600004Y-140205565D01*
X135779249Y-140185369D01*
X135779252Y-140185368D01*
X135779255Y-140185368D01*
X135949522Y-140125789D01*
X135995001Y-140097213D01*
X136034027Y-140072691D01*
X136101264Y-140053690D01*
X136165973Y-140072691D01*
X136250475Y-140125788D01*
X136420745Y-140185368D01*
X136420750Y-140185369D01*
X136599996Y-140205565D01*
X136600000Y-140205565D01*
X136600004Y-140205565D01*
X136779249Y-140185369D01*
X136779252Y-140185368D01*
X136779255Y-140185368D01*
X136949522Y-140125789D01*
X137102262Y-140029816D01*
X137229816Y-139902262D01*
X137325789Y-139749522D01*
X137385368Y-139579255D01*
X137385369Y-139579249D01*
X137405565Y-139400003D01*
X137405565Y-139399996D01*
X137400197Y-139352351D01*
X140419500Y-139352351D01*
X140451522Y-139554534D01*
X140514781Y-139749223D01*
X140563295Y-139844435D01*
X140599062Y-139914632D01*
X140607715Y-139931613D01*
X140728028Y-140097213D01*
X140872786Y-140241971D01*
X141027749Y-140354556D01*
X141038390Y-140362287D01*
X141141119Y-140414630D01*
X141220776Y-140455218D01*
X141220778Y-140455218D01*
X141220781Y-140455220D01*
X141325137Y-140489127D01*
X141415465Y-140518477D01*
X141516557Y-140534488D01*
X141617648Y-140550500D01*
X141617649Y-140550500D01*
X142722351Y-140550500D01*
X142722352Y-140550500D01*
X142924534Y-140518477D01*
X143119219Y-140455220D01*
X143301610Y-140362287D01*
X143394590Y-140294732D01*
X143467213Y-140241971D01*
X143467215Y-140241968D01*
X143467219Y-140241966D01*
X143611966Y-140097219D01*
X143611968Y-140097215D01*
X143611971Y-140097213D01*
X143699085Y-139977309D01*
X143732287Y-139931610D01*
X143825220Y-139749219D01*
X143888477Y-139554534D01*
X143920500Y-139352352D01*
X143920500Y-139147648D01*
X143896440Y-138995742D01*
X143888477Y-138945465D01*
X143857303Y-138849522D01*
X143825220Y-138750781D01*
X143825218Y-138750778D01*
X143825218Y-138750776D01*
X143788773Y-138679249D01*
X143732287Y-138568390D01*
X143684243Y-138502262D01*
X143611971Y-138402786D01*
X143467213Y-138258028D01*
X143301611Y-138137713D01*
X143208369Y-138090203D01*
X143157574Y-138042229D01*
X143140779Y-137974407D01*
X143163317Y-137908273D01*
X143208371Y-137869234D01*
X143301347Y-137821861D01*
X143466894Y-137701582D01*
X143466895Y-137701582D01*
X143611582Y-137556895D01*
X143611582Y-137556894D01*
X143731859Y-137391349D01*
X143824755Y-137209029D01*
X143887990Y-137014413D01*
X143896609Y-136960000D01*
X142539504Y-136960000D01*
X142584674Y-136881764D01*
X142615000Y-136768585D01*
X142615000Y-136651415D01*
X142584674Y-136538236D01*
X142539504Y-136460000D01*
X143896609Y-136460000D01*
X143887990Y-136405586D01*
X143824755Y-136210970D01*
X143731859Y-136028650D01*
X143611582Y-135863105D01*
X143611582Y-135863104D01*
X143466895Y-135718417D01*
X143301349Y-135598140D01*
X143119031Y-135505244D01*
X142924417Y-135442009D01*
X142722317Y-135410000D01*
X142420000Y-135410000D01*
X142420000Y-136340495D01*
X142341764Y-136295326D01*
X142228585Y-136265000D01*
X142111415Y-136265000D01*
X141998236Y-136295326D01*
X141920000Y-136340495D01*
X141920000Y-135410000D01*
X141617683Y-135410000D01*
X141415582Y-135442009D01*
X141220968Y-135505244D01*
X141038650Y-135598140D01*
X140873105Y-135718417D01*
X140873104Y-135718417D01*
X140728417Y-135863104D01*
X140728417Y-135863105D01*
X140608140Y-136028650D01*
X140515244Y-136210970D01*
X140452009Y-136405586D01*
X140443391Y-136460000D01*
X141800496Y-136460000D01*
X141755326Y-136538236D01*
X141725000Y-136651415D01*
X141725000Y-136768585D01*
X141755326Y-136881764D01*
X141800496Y-136960000D01*
X140443391Y-136960000D01*
X140452009Y-137014413D01*
X140515244Y-137209029D01*
X140608140Y-137391349D01*
X140728417Y-137556894D01*
X140728417Y-137556895D01*
X140873104Y-137701582D01*
X141038652Y-137821861D01*
X141131628Y-137869234D01*
X141182425Y-137917208D01*
X141199220Y-137985029D01*
X141176683Y-138051164D01*
X141131630Y-138090203D01*
X141038388Y-138137713D01*
X140872786Y-138258028D01*
X140728028Y-138402786D01*
X140607715Y-138568386D01*
X140514781Y-138750776D01*
X140451522Y-138945465D01*
X140419500Y-139147648D01*
X140419500Y-139352351D01*
X137400197Y-139352351D01*
X137385369Y-139220750D01*
X137385368Y-139220745D01*
X137344051Y-139102668D01*
X137340490Y-139032889D01*
X137375219Y-138972261D01*
X137437212Y-138940034D01*
X137506787Y-138946439D01*
X137561855Y-138989443D01*
X137566087Y-138995742D01*
X137570181Y-139002259D01*
X137570184Y-139002262D01*
X137697738Y-139129816D01*
X137765973Y-139172691D01*
X137842450Y-139220745D01*
X137850478Y-139225789D01*
X138020745Y-139285368D01*
X138020750Y-139285369D01*
X138199996Y-139305565D01*
X138200000Y-139305565D01*
X138200004Y-139305565D01*
X138379249Y-139285369D01*
X138379252Y-139285368D01*
X138379255Y-139285368D01*
X138549522Y-139225789D01*
X138557542Y-139220750D01*
X138634027Y-139172691D01*
X138701264Y-139153690D01*
X138765973Y-139172691D01*
X138850475Y-139225788D01*
X139020745Y-139285368D01*
X139020750Y-139285369D01*
X139199996Y-139305565D01*
X139200000Y-139305565D01*
X139200004Y-139305565D01*
X139379249Y-139285369D01*
X139379252Y-139285368D01*
X139379255Y-139285368D01*
X139549522Y-139225789D01*
X139702262Y-139129816D01*
X139829816Y-139002262D01*
X139925789Y-138849522D01*
X139985368Y-138679255D01*
X139985369Y-138679249D01*
X140005565Y-138500003D01*
X140005565Y-138499996D01*
X139985369Y-138320750D01*
X139985368Y-138320745D01*
X139925788Y-138150475D01*
X139872691Y-138065973D01*
X139853690Y-137998736D01*
X139872691Y-137934027D01*
X139925788Y-137849524D01*
X139925789Y-137849522D01*
X139985368Y-137679255D01*
X139985369Y-137679249D01*
X140005565Y-137500003D01*
X140005565Y-137499996D01*
X139985369Y-137320750D01*
X139985368Y-137320745D01*
X139946277Y-137209029D01*
X139925789Y-137150478D01*
X139829816Y-136997738D01*
X139702262Y-136870184D01*
X139664265Y-136846309D01*
X139549523Y-136774211D01*
X139379254Y-136714631D01*
X139379249Y-136714630D01*
X139200004Y-136694435D01*
X139199996Y-136694435D01*
X139020750Y-136714630D01*
X139020737Y-136714633D01*
X138850479Y-136774209D01*
X138765971Y-136827309D01*
X138698734Y-136846309D01*
X138634029Y-136827309D01*
X138549520Y-136774209D01*
X138379262Y-136714633D01*
X138379249Y-136714630D01*
X138200004Y-136694435D01*
X138199996Y-136694435D01*
X138020750Y-136714630D01*
X138020745Y-136714631D01*
X137850476Y-136774211D01*
X137697737Y-136870184D01*
X137570184Y-136997737D01*
X137474211Y-137150476D01*
X137414631Y-137320745D01*
X137414630Y-137320750D01*
X137394435Y-137499996D01*
X137394435Y-137500003D01*
X137414630Y-137679249D01*
X137414633Y-137679262D01*
X137474209Y-137849520D01*
X137527309Y-137934029D01*
X137546309Y-138001266D01*
X137527309Y-138065971D01*
X137474209Y-138150479D01*
X137414633Y-138320737D01*
X137414630Y-138320750D01*
X137394435Y-138499996D01*
X137394435Y-138500003D01*
X137414630Y-138679249D01*
X137414632Y-138679257D01*
X137455948Y-138797332D01*
X137459509Y-138867111D01*
X137424780Y-138927738D01*
X137362787Y-138959965D01*
X137293211Y-138953559D01*
X137238143Y-138910556D01*
X137233924Y-138904275D01*
X137229816Y-138897738D01*
X137102262Y-138770184D01*
X137031608Y-138725789D01*
X136949521Y-138674210D01*
X136779249Y-138614630D01*
X136710616Y-138606897D01*
X136646202Y-138579830D01*
X136606647Y-138522235D01*
X136600500Y-138483677D01*
X136600500Y-135916321D01*
X136620185Y-135849282D01*
X136672989Y-135803527D01*
X136710612Y-135793101D01*
X136779255Y-135785368D01*
X136949522Y-135725789D01*
X137102262Y-135629816D01*
X137229816Y-135502262D01*
X137325789Y-135349522D01*
X137385368Y-135179255D01*
X137385369Y-135179249D01*
X137405565Y-135000003D01*
X137405565Y-134999996D01*
X137385369Y-134820750D01*
X137385368Y-134820745D01*
X137380720Y-134807461D01*
X137325789Y-134650478D01*
X137316295Y-134635369D01*
X137240431Y-134514632D01*
X137229816Y-134497738D01*
X137229814Y-134497736D01*
X137229813Y-134497734D01*
X137227550Y-134494896D01*
X137226659Y-134492715D01*
X137226111Y-134491842D01*
X137226264Y-134491745D01*
X137201144Y-134430209D01*
X137200500Y-134417587D01*
X137200500Y-133920000D01*
X143263497Y-133920000D01*
X146275038Y-133920000D01*
X146245000Y-134071016D01*
X146245000Y-134268984D01*
X146275038Y-134420000D01*
X143263498Y-134420000D01*
X143288496Y-134609884D01*
X143288499Y-134609897D01*
X143364835Y-134894790D01*
X143364838Y-134894800D01*
X143477704Y-135167281D01*
X143477709Y-135167292D01*
X143625174Y-135422707D01*
X143625185Y-135422723D01*
X143804729Y-135656709D01*
X143804735Y-135656716D01*
X144013283Y-135865264D01*
X144013290Y-135865270D01*
X144247276Y-136044814D01*
X144247292Y-136044825D01*
X144502707Y-136192290D01*
X144502718Y-136192295D01*
X144775199Y-136305161D01*
X144775209Y-136305164D01*
X145060102Y-136381500D01*
X145060115Y-136381503D01*
X145352516Y-136419998D01*
X145352534Y-136420000D01*
X147000000Y-136420000D01*
X147000000Y-135144961D01*
X147151016Y-135175000D01*
X147348984Y-135175000D01*
X147500000Y-135144961D01*
X147500000Y-136420000D01*
X149147466Y-136420000D01*
X149147483Y-136419998D01*
X149439884Y-136381503D01*
X149439897Y-136381500D01*
X149724790Y-136305164D01*
X149724800Y-136305161D01*
X149997281Y-136192295D01*
X149997292Y-136192290D01*
X150252707Y-136044825D01*
X150252723Y-136044814D01*
X150486709Y-135865270D01*
X150486716Y-135865264D01*
X150695264Y-135656716D01*
X150695270Y-135656709D01*
X150874814Y-135422723D01*
X150874825Y-135422707D01*
X151022290Y-135167292D01*
X151022295Y-135167281D01*
X151135161Y-134894800D01*
X151135164Y-134894790D01*
X151211500Y-134609897D01*
X151211503Y-134609884D01*
X151236502Y-134420000D01*
X148224962Y-134420000D01*
X148255000Y-134268984D01*
X148255000Y-134071016D01*
X148224962Y-133920000D01*
X151236502Y-133920000D01*
X151211503Y-133730115D01*
X151211500Y-133730102D01*
X151135164Y-133445209D01*
X151135161Y-133445199D01*
X151022295Y-133172718D01*
X151022290Y-133172707D01*
X150874825Y-132917292D01*
X150874814Y-132917276D01*
X150695270Y-132683290D01*
X150695264Y-132683283D01*
X150486716Y-132474735D01*
X150486709Y-132474729D01*
X150252723Y-132295185D01*
X150252707Y-132295174D01*
X149997292Y-132147709D01*
X149997281Y-132147704D01*
X149724800Y-132034838D01*
X149724790Y-132034835D01*
X149439897Y-131958499D01*
X149439884Y-131958496D01*
X149147483Y-131920001D01*
X149147466Y-131920000D01*
X147500000Y-131920000D01*
X147500000Y-133195038D01*
X147348984Y-133165000D01*
X147151016Y-133165000D01*
X147000000Y-133195038D01*
X147000000Y-131920000D01*
X145352534Y-131920000D01*
X145352516Y-131920001D01*
X145060115Y-131958496D01*
X145060102Y-131958499D01*
X144775209Y-132034835D01*
X144775199Y-132034838D01*
X144502718Y-132147704D01*
X144502707Y-132147709D01*
X144247292Y-132295174D01*
X144247276Y-132295185D01*
X144013290Y-132474729D01*
X144013283Y-132474735D01*
X143804735Y-132683283D01*
X143804729Y-132683290D01*
X143625185Y-132917276D01*
X143625174Y-132917292D01*
X143477709Y-133172707D01*
X143477704Y-133172718D01*
X143364838Y-133445199D01*
X143364835Y-133445209D01*
X143288499Y-133730102D01*
X143288496Y-133730115D01*
X143263497Y-133920000D01*
X137200500Y-133920000D01*
X137200500Y-127500003D01*
X141394435Y-127500003D01*
X141414630Y-127679249D01*
X141414631Y-127679254D01*
X141474211Y-127849523D01*
X141553054Y-127975000D01*
X141570184Y-128002262D01*
X141697738Y-128129816D01*
X141788080Y-128186582D01*
X141842450Y-128220745D01*
X141850478Y-128225789D01*
X142020739Y-128285366D01*
X142020745Y-128285368D01*
X142020750Y-128285369D01*
X142199996Y-128305565D01*
X142200000Y-128305565D01*
X142200004Y-128305565D01*
X142379249Y-128285369D01*
X142379251Y-128285368D01*
X142379255Y-128285368D01*
X142379258Y-128285366D01*
X142379262Y-128285366D01*
X142445840Y-128262068D01*
X142549522Y-128225789D01*
X142559028Y-128219815D01*
X142626263Y-128200815D01*
X142690971Y-128219815D01*
X142700478Y-128225789D01*
X142752318Y-128243928D01*
X142870737Y-128285366D01*
X142870743Y-128285367D01*
X142870745Y-128285368D01*
X142870746Y-128285368D01*
X142870750Y-128285369D01*
X143049996Y-128305565D01*
X143050000Y-128305565D01*
X143050004Y-128305565D01*
X143229249Y-128285369D01*
X143229252Y-128285368D01*
X143229255Y-128285368D01*
X143399522Y-128225789D01*
X143552262Y-128129816D01*
X143679816Y-128002262D01*
X143775789Y-127849522D01*
X143835368Y-127679255D01*
X143849931Y-127550003D01*
X143855565Y-127500003D01*
X143855565Y-127499996D01*
X143835369Y-127320750D01*
X143835366Y-127320737D01*
X143781205Y-127165955D01*
X143777643Y-127096176D01*
X143781205Y-127084045D01*
X143835366Y-126929262D01*
X143835369Y-126929249D01*
X143855565Y-126750003D01*
X143855565Y-126749996D01*
X143835369Y-126570750D01*
X143835368Y-126570745D01*
X143775788Y-126400476D01*
X143679815Y-126247737D01*
X143552262Y-126120184D01*
X143399523Y-126024211D01*
X143229254Y-125964631D01*
X143229249Y-125964630D01*
X143050004Y-125944435D01*
X143049996Y-125944435D01*
X142870750Y-125964630D01*
X142870745Y-125964631D01*
X142700474Y-126024212D01*
X142690968Y-126030185D01*
X142623731Y-126049183D01*
X142559032Y-126030185D01*
X142549525Y-126024212D01*
X142379254Y-125964631D01*
X142379249Y-125964630D01*
X142200004Y-125944435D01*
X142199996Y-125944435D01*
X142020750Y-125964630D01*
X142020745Y-125964631D01*
X141850476Y-126024211D01*
X141697737Y-126120184D01*
X141570184Y-126247737D01*
X141474211Y-126400476D01*
X141414631Y-126570745D01*
X141414630Y-126570750D01*
X141394435Y-126749996D01*
X141394435Y-126750003D01*
X141414630Y-126929249D01*
X141414632Y-126929257D01*
X141468795Y-127084046D01*
X141472356Y-127153824D01*
X141468795Y-127165954D01*
X141414632Y-127320742D01*
X141414630Y-127320750D01*
X141394435Y-127499996D01*
X141394435Y-127500003D01*
X137200500Y-127500003D01*
X137200500Y-120270007D01*
X144677171Y-120270007D01*
X144696464Y-120564363D01*
X144696465Y-120564373D01*
X144696466Y-120564380D01*
X144696468Y-120564390D01*
X144754018Y-120853716D01*
X144754021Y-120853730D01*
X144848849Y-121133080D01*
X144979325Y-121397660D01*
X144979329Y-121397667D01*
X145143225Y-121642955D01*
X145337741Y-121864758D01*
X145444443Y-121958333D01*
X145559543Y-122059273D01*
X145804835Y-122223172D01*
X146069423Y-122353652D01*
X146348778Y-122448481D01*
X146638120Y-122506034D01*
X146666388Y-122507886D01*
X146932493Y-122525329D01*
X146932500Y-122525329D01*
X146932507Y-122525329D01*
X147168175Y-122509881D01*
X147226880Y-122506034D01*
X147516222Y-122448481D01*
X147795577Y-122353652D01*
X148060165Y-122223172D01*
X148305457Y-122059273D01*
X148527258Y-121864758D01*
X148721773Y-121642957D01*
X148885672Y-121397665D01*
X149016152Y-121133077D01*
X149110981Y-120853722D01*
X149168534Y-120564380D01*
X149187829Y-120270000D01*
X149187829Y-120269992D01*
X149168535Y-119975636D01*
X149168534Y-119975620D01*
X149110981Y-119686278D01*
X149016152Y-119406923D01*
X148885672Y-119142336D01*
X148721773Y-118897043D01*
X148679155Y-118848447D01*
X148527258Y-118675241D01*
X148305455Y-118480725D01*
X148060167Y-118316829D01*
X148060160Y-118316825D01*
X147795580Y-118186349D01*
X147516230Y-118091521D01*
X147516224Y-118091519D01*
X147516222Y-118091519D01*
X147226880Y-118033966D01*
X147226873Y-118033965D01*
X147226863Y-118033964D01*
X146932507Y-118014671D01*
X146932493Y-118014671D01*
X146638136Y-118033964D01*
X146638124Y-118033965D01*
X146638120Y-118033966D01*
X146638112Y-118033967D01*
X146638109Y-118033968D01*
X146348783Y-118091518D01*
X146348769Y-118091521D01*
X146069419Y-118186349D01*
X145804834Y-118316828D01*
X145559541Y-118480728D01*
X145337741Y-118675241D01*
X145143228Y-118897041D01*
X144979328Y-119142334D01*
X144848849Y-119406919D01*
X144754021Y-119686269D01*
X144754018Y-119686283D01*
X144696468Y-119975609D01*
X144696464Y-119975636D01*
X144677171Y-120269992D01*
X144677171Y-120270007D01*
X137200500Y-120270007D01*
X137200500Y-115500000D01*
X140866841Y-115500000D01*
X140887436Y-115735403D01*
X140887438Y-115735413D01*
X140948594Y-115963655D01*
X140948596Y-115963659D01*
X140948597Y-115963663D01*
X140988601Y-116049451D01*
X141048465Y-116177830D01*
X141048467Y-116177834D01*
X141105081Y-116258686D01*
X141184005Y-116371401D01*
X141351099Y-116538495D01*
X141434477Y-116596877D01*
X141544665Y-116674032D01*
X141544667Y-116674033D01*
X141544670Y-116674035D01*
X141758837Y-116773903D01*
X141987092Y-116835063D01*
X142175418Y-116851539D01*
X142222499Y-116855659D01*
X142222500Y-116855659D01*
X142222501Y-116855659D01*
X142261734Y-116852226D01*
X142457908Y-116835063D01*
X142686163Y-116773903D01*
X142900330Y-116674035D01*
X143093901Y-116538495D01*
X143134819Y-116497577D01*
X143196142Y-116464092D01*
X143265834Y-116469076D01*
X143310181Y-116497577D01*
X143351099Y-116538495D01*
X143434477Y-116596877D01*
X143544665Y-116674032D01*
X143544667Y-116674033D01*
X143544670Y-116674035D01*
X143758837Y-116773903D01*
X143987092Y-116835063D01*
X144175418Y-116851539D01*
X144222499Y-116855659D01*
X144222500Y-116855659D01*
X144222501Y-116855659D01*
X144261734Y-116852226D01*
X144457908Y-116835063D01*
X144686163Y-116773903D01*
X144900330Y-116674035D01*
X145093901Y-116538495D01*
X145260995Y-116371401D01*
X145396535Y-116177830D01*
X145496403Y-115963663D01*
X145557563Y-115735408D01*
X145578159Y-115500000D01*
X145557563Y-115264592D01*
X145496403Y-115036337D01*
X145396535Y-114822171D01*
X145260995Y-114628599D01*
X145260994Y-114628597D01*
X145093902Y-114461506D01*
X145093896Y-114461501D01*
X144936905Y-114351575D01*
X144893280Y-114296998D01*
X144886086Y-114227500D01*
X144917609Y-114165145D01*
X144936905Y-114148425D01*
X144993659Y-114108685D01*
X145093901Y-114038495D01*
X145260995Y-113871401D01*
X145396535Y-113677830D01*
X145496403Y-113463663D01*
X145557563Y-113235408D01*
X145578159Y-113000000D01*
X145557563Y-112764592D01*
X145496403Y-112536337D01*
X145396535Y-112322171D01*
X145387004Y-112308558D01*
X145260994Y-112128597D01*
X145093902Y-111961506D01*
X145093895Y-111961501D01*
X144900334Y-111825967D01*
X144900330Y-111825965D01*
X144838296Y-111797038D01*
X144686163Y-111726097D01*
X144686159Y-111726096D01*
X144686155Y-111726094D01*
X144457913Y-111664938D01*
X144457903Y-111664936D01*
X144222501Y-111644341D01*
X144222499Y-111644341D01*
X143987096Y-111664936D01*
X143987086Y-111664938D01*
X143758844Y-111726094D01*
X143758835Y-111726098D01*
X143568043Y-111815066D01*
X143498965Y-111825558D01*
X143435181Y-111797038D01*
X143430953Y-111793133D01*
X143314835Y-111706206D01*
X143314828Y-111706202D01*
X143179982Y-111655908D01*
X143179983Y-111655908D01*
X143120383Y-111649501D01*
X143120381Y-111649500D01*
X143120373Y-111649500D01*
X143120364Y-111649500D01*
X141324629Y-111649500D01*
X141324623Y-111649501D01*
X141265016Y-111655908D01*
X141130171Y-111706202D01*
X141130164Y-111706206D01*
X141014955Y-111792452D01*
X141014952Y-111792455D01*
X140928706Y-111907664D01*
X140928702Y-111907671D01*
X140878408Y-112042517D01*
X140872001Y-112102116D01*
X140872000Y-112102135D01*
X140872000Y-113897870D01*
X140872001Y-113897876D01*
X140878408Y-113957483D01*
X140928702Y-114092328D01*
X140928706Y-114092335D01*
X141014952Y-114207544D01*
X141014955Y-114207547D01*
X141130164Y-114293793D01*
X141130171Y-114293797D01*
X141232448Y-114331944D01*
X141288382Y-114373815D01*
X141312799Y-114439279D01*
X141297947Y-114507552D01*
X141276796Y-114535807D01*
X141184005Y-114628597D01*
X141048465Y-114822169D01*
X141048464Y-114822171D01*
X140948598Y-115036335D01*
X140948594Y-115036344D01*
X140887438Y-115264586D01*
X140887436Y-115264596D01*
X140866841Y-115499999D01*
X140866841Y-115500000D01*
X137200500Y-115500000D01*
X137200500Y-108230007D01*
X144677171Y-108230007D01*
X144696464Y-108524363D01*
X144696465Y-108524373D01*
X144696466Y-108524380D01*
X144750668Y-108796877D01*
X144754018Y-108813716D01*
X144754021Y-108813730D01*
X144848849Y-109093080D01*
X144979325Y-109357660D01*
X144979329Y-109357667D01*
X145143225Y-109602955D01*
X145337741Y-109824758D01*
X145559543Y-110019273D01*
X145804835Y-110183172D01*
X146069423Y-110313652D01*
X146348778Y-110408481D01*
X146638120Y-110466034D01*
X146666388Y-110467886D01*
X146932493Y-110485329D01*
X146932500Y-110485329D01*
X146932507Y-110485329D01*
X147168175Y-110469881D01*
X147226880Y-110466034D01*
X147516222Y-110408481D01*
X147795577Y-110313652D01*
X148060165Y-110183172D01*
X148305457Y-110019273D01*
X148527258Y-109824758D01*
X148721773Y-109602957D01*
X148885672Y-109357665D01*
X149016152Y-109093077D01*
X149110981Y-108813722D01*
X149168534Y-108524380D01*
X149175727Y-108414632D01*
X149187829Y-108230007D01*
X149187829Y-108229992D01*
X149168535Y-107935636D01*
X149168534Y-107935620D01*
X149110981Y-107646278D01*
X149016152Y-107366923D01*
X148885672Y-107102336D01*
X148884429Y-107100476D01*
X148782373Y-106947738D01*
X148721773Y-106857043D01*
X148619439Y-106740354D01*
X148527258Y-106635241D01*
X148305455Y-106440725D01*
X148060167Y-106276829D01*
X148060160Y-106276825D01*
X147795580Y-106146349D01*
X147516230Y-106051521D01*
X147516224Y-106051519D01*
X147516222Y-106051519D01*
X147226880Y-105993966D01*
X147226873Y-105993965D01*
X147226863Y-105993964D01*
X146932507Y-105974671D01*
X146932493Y-105974671D01*
X146638136Y-105993964D01*
X146638124Y-105993965D01*
X146638120Y-105993966D01*
X146638112Y-105993967D01*
X146638109Y-105993968D01*
X146348783Y-106051518D01*
X146348769Y-106051521D01*
X146069419Y-106146349D01*
X145804834Y-106276828D01*
X145559541Y-106440728D01*
X145337741Y-106635241D01*
X145143228Y-106857041D01*
X144979328Y-107102334D01*
X144848849Y-107366919D01*
X144754021Y-107646269D01*
X144754018Y-107646283D01*
X144696468Y-107935609D01*
X144696464Y-107935636D01*
X144677171Y-108229992D01*
X144677171Y-108230007D01*
X137200500Y-108230007D01*
X137200500Y-103350003D01*
X141794435Y-103350003D01*
X141814630Y-103529249D01*
X141814631Y-103529254D01*
X141874211Y-103699523D01*
X141970184Y-103852262D01*
X142097738Y-103979816D01*
X142250478Y-104075789D01*
X142420745Y-104135368D01*
X142420750Y-104135369D01*
X142599996Y-104155565D01*
X142600000Y-104155565D01*
X142600004Y-104155565D01*
X142779249Y-104135369D01*
X142779252Y-104135368D01*
X142779255Y-104135368D01*
X142949522Y-104075789D01*
X143102262Y-103979816D01*
X143229816Y-103852262D01*
X143325789Y-103699522D01*
X143385368Y-103529255D01*
X143398572Y-103412064D01*
X143405565Y-103350003D01*
X143405565Y-103349996D01*
X143385369Y-103170750D01*
X143385368Y-103170745D01*
X143370848Y-103129249D01*
X143325789Y-103000478D01*
X143322099Y-102994606D01*
X143252287Y-102883500D01*
X143229816Y-102847738D01*
X143102262Y-102720184D01*
X142949523Y-102624211D01*
X142779254Y-102564631D01*
X142779249Y-102564630D01*
X142600004Y-102544435D01*
X142599996Y-102544435D01*
X142420750Y-102564630D01*
X142420745Y-102564631D01*
X142250476Y-102624211D01*
X142097737Y-102720184D01*
X141970184Y-102847737D01*
X141874211Y-103000476D01*
X141814631Y-103170745D01*
X141814630Y-103170750D01*
X141794435Y-103349996D01*
X141794435Y-103350003D01*
X137200500Y-103350003D01*
X137200500Y-101250000D01*
X144682251Y-101250000D01*
X144686219Y-101285226D01*
X144686221Y-101285239D01*
X144687000Y-101299120D01*
X144687000Y-101547869D01*
X144687001Y-101547876D01*
X144693408Y-101607483D01*
X144743702Y-101742328D01*
X144743706Y-101742335D01*
X144829952Y-101857544D01*
X144829955Y-101857547D01*
X144945164Y-101943793D01*
X144945171Y-101943797D01*
X144990118Y-101960561D01*
X145080017Y-101994091D01*
X145139627Y-102000500D01*
X145388385Y-102000499D01*
X145402271Y-102001279D01*
X145437499Y-102005249D01*
X145437499Y-102005248D01*
X145437500Y-102005249D01*
X145472728Y-102001279D01*
X145486614Y-102000499D01*
X146788382Y-102000499D01*
X146802265Y-102001278D01*
X146814636Y-102002672D01*
X146837499Y-102005249D01*
X146837500Y-102005249D01*
X146837501Y-102005249D01*
X146858161Y-102002920D01*
X146872733Y-102001278D01*
X146886617Y-102000499D01*
X147135371Y-102000499D01*
X147135372Y-102000499D01*
X147194983Y-101994091D01*
X147329831Y-101943796D01*
X147445046Y-101857546D01*
X147531296Y-101742331D01*
X147581591Y-101607483D01*
X147588000Y-101547873D01*
X147587999Y-101299112D01*
X147588779Y-101285226D01*
X147592749Y-101249999D01*
X147588779Y-101214771D01*
X147587999Y-101200885D01*
X147587999Y-100299115D01*
X147588779Y-100285229D01*
X147592749Y-100250000D01*
X147592749Y-100249999D01*
X147588779Y-100214768D01*
X147587999Y-100200883D01*
X147587999Y-99299117D01*
X147588779Y-99285232D01*
X147592749Y-99250000D01*
X147592749Y-99249998D01*
X147588779Y-99214767D01*
X147587999Y-99200882D01*
X147587999Y-98952129D01*
X147587998Y-98952123D01*
X147587997Y-98952116D01*
X147581591Y-98892517D01*
X147531296Y-98757669D01*
X147531295Y-98757668D01*
X147531293Y-98757664D01*
X147445047Y-98642455D01*
X147445044Y-98642452D01*
X147329835Y-98556206D01*
X147329828Y-98556202D01*
X147194982Y-98505908D01*
X147194983Y-98505908D01*
X147135383Y-98499501D01*
X147135381Y-98499500D01*
X147135373Y-98499500D01*
X147135365Y-98499500D01*
X146886610Y-98499500D01*
X146872726Y-98498720D01*
X146837502Y-98494751D01*
X146837499Y-98494751D01*
X146820472Y-98496669D01*
X146802271Y-98498720D01*
X146788390Y-98499500D01*
X145486621Y-98499500D01*
X145472740Y-98498721D01*
X145472731Y-98498720D01*
X145437500Y-98494751D01*
X145437499Y-98494751D01*
X145402258Y-98498721D01*
X145388378Y-98499500D01*
X145139630Y-98499500D01*
X145139623Y-98499501D01*
X145080016Y-98505908D01*
X144945171Y-98556202D01*
X144945164Y-98556206D01*
X144829955Y-98642452D01*
X144829952Y-98642455D01*
X144743706Y-98757664D01*
X144743702Y-98757671D01*
X144693408Y-98892517D01*
X144688015Y-98942686D01*
X144687001Y-98952123D01*
X144687000Y-98952135D01*
X144687000Y-99200890D01*
X144686220Y-99214773D01*
X144682251Y-99250000D01*
X144685525Y-99279061D01*
X144686220Y-99285224D01*
X144687000Y-99299109D01*
X144687000Y-100200887D01*
X144686220Y-100214770D01*
X144682251Y-100249997D01*
X144682251Y-100250001D01*
X144686220Y-100285227D01*
X144687000Y-100299111D01*
X144687000Y-101200878D01*
X144686221Y-101214758D01*
X144682251Y-101250000D01*
X137200500Y-101250000D01*
X137200500Y-99289060D01*
X137200501Y-99289047D01*
X137200501Y-99120944D01*
X137196380Y-99105565D01*
X137159577Y-98968216D01*
X137150282Y-98952116D01*
X137080524Y-98831290D01*
X137080518Y-98831282D01*
X136549239Y-98300003D01*
X150544435Y-98300003D01*
X150564630Y-98479249D01*
X150564631Y-98479254D01*
X150624211Y-98649523D01*
X150708463Y-98783608D01*
X150720184Y-98802262D01*
X150847738Y-98929816D01*
X151000478Y-99025789D01*
X151170745Y-99085368D01*
X151170750Y-99085369D01*
X151349996Y-99105565D01*
X151350000Y-99105565D01*
X151350004Y-99105565D01*
X151529249Y-99085369D01*
X151529252Y-99085368D01*
X151529255Y-99085368D01*
X151699522Y-99025789D01*
X151852262Y-98929816D01*
X151979816Y-98802262D01*
X152075789Y-98649522D01*
X152135368Y-98479255D01*
X152155565Y-98300000D01*
X152135368Y-98120745D01*
X152135367Y-98120742D01*
X152135366Y-98120737D01*
X152081205Y-97965955D01*
X152077643Y-97896176D01*
X152081205Y-97884045D01*
X152135366Y-97729262D01*
X152135369Y-97729249D01*
X152155565Y-97550003D01*
X152155565Y-97549996D01*
X152135369Y-97370750D01*
X152135368Y-97370745D01*
X152075788Y-97200476D01*
X151979815Y-97047737D01*
X151852262Y-96920184D01*
X151699523Y-96824211D01*
X151529254Y-96764631D01*
X151529249Y-96764630D01*
X151350004Y-96744435D01*
X151349996Y-96744435D01*
X151170750Y-96764630D01*
X151170745Y-96764631D01*
X151000476Y-96824211D01*
X150847737Y-96920184D01*
X150720184Y-97047737D01*
X150624211Y-97200476D01*
X150564631Y-97370745D01*
X150564630Y-97370750D01*
X150544435Y-97549996D01*
X150544435Y-97550003D01*
X150564630Y-97729249D01*
X150564632Y-97729257D01*
X150618795Y-97884046D01*
X150622356Y-97953824D01*
X150618795Y-97965954D01*
X150564632Y-98120742D01*
X150564630Y-98120750D01*
X150544435Y-98299996D01*
X150544435Y-98300003D01*
X136549239Y-98300003D01*
X134999239Y-96750003D01*
X139794435Y-96750003D01*
X139814630Y-96929249D01*
X139814631Y-96929254D01*
X139874211Y-97099523D01*
X139970184Y-97252262D01*
X140097738Y-97379816D01*
X140250478Y-97475789D01*
X140420745Y-97535368D01*
X140420750Y-97535369D01*
X140599996Y-97555565D01*
X140600000Y-97555565D01*
X140600004Y-97555565D01*
X140779249Y-97535369D01*
X140779252Y-97535368D01*
X140779255Y-97535368D01*
X140949522Y-97475789D01*
X141102262Y-97379816D01*
X141229816Y-97252262D01*
X141325789Y-97099522D01*
X141385368Y-96929255D01*
X141398572Y-96812064D01*
X141405565Y-96750003D01*
X141405565Y-96749996D01*
X141385369Y-96570750D01*
X141385368Y-96570745D01*
X141363052Y-96506969D01*
X141325789Y-96400478D01*
X141288397Y-96340969D01*
X141269397Y-96273737D01*
X141288397Y-96209030D01*
X141325789Y-96149522D01*
X141385368Y-95979255D01*
X141403682Y-95816716D01*
X141405565Y-95800003D01*
X141405565Y-95799996D01*
X141385369Y-95620750D01*
X141385368Y-95620745D01*
X141325788Y-95450475D01*
X141256982Y-95340973D01*
X141237981Y-95273736D01*
X141256982Y-95209027D01*
X141325788Y-95099524D01*
X141332880Y-95079257D01*
X141385368Y-94929255D01*
X141385369Y-94929249D01*
X141405565Y-94750003D01*
X141405565Y-94749996D01*
X141385369Y-94570750D01*
X141385368Y-94570745D01*
X141340733Y-94443186D01*
X141325789Y-94400478D01*
X141324067Y-94397738D01*
X141272640Y-94315892D01*
X141229816Y-94247738D01*
X141102262Y-94120184D01*
X141093426Y-94114632D01*
X141038310Y-94080000D01*
X143263497Y-94080000D01*
X146275038Y-94080000D01*
X146245000Y-94231016D01*
X146245000Y-94428984D01*
X146275038Y-94580000D01*
X143263498Y-94580000D01*
X143288496Y-94769884D01*
X143288499Y-94769897D01*
X143364835Y-95054790D01*
X143364838Y-95054800D01*
X143477704Y-95327281D01*
X143477709Y-95327292D01*
X143625174Y-95582707D01*
X143625185Y-95582723D01*
X143804729Y-95816709D01*
X143804735Y-95816716D01*
X144013283Y-96025264D01*
X144013290Y-96025270D01*
X144247276Y-96204814D01*
X144247292Y-96204825D01*
X144502707Y-96352290D01*
X144502718Y-96352295D01*
X144775199Y-96465161D01*
X144775209Y-96465164D01*
X145060102Y-96541500D01*
X145060115Y-96541503D01*
X145352516Y-96579998D01*
X145352534Y-96580000D01*
X147000000Y-96580000D01*
X147000000Y-95304961D01*
X147151016Y-95335000D01*
X147348984Y-95335000D01*
X147500000Y-95304961D01*
X147500000Y-96580000D01*
X149147466Y-96580000D01*
X149147483Y-96579998D01*
X149439884Y-96541503D01*
X149439897Y-96541500D01*
X149724790Y-96465164D01*
X149724800Y-96465161D01*
X149997281Y-96352295D01*
X149997292Y-96352290D01*
X150252707Y-96204825D01*
X150252723Y-96204814D01*
X150486709Y-96025270D01*
X150486716Y-96025264D01*
X150695264Y-95816716D01*
X150695270Y-95816709D01*
X150874814Y-95582723D01*
X150874825Y-95582707D01*
X151022290Y-95327292D01*
X151022295Y-95327281D01*
X151135161Y-95054800D01*
X151135164Y-95054790D01*
X151211500Y-94769897D01*
X151211503Y-94769884D01*
X151236502Y-94580000D01*
X148224962Y-94580000D01*
X148255000Y-94428984D01*
X148255000Y-94231016D01*
X148224962Y-94080000D01*
X151236502Y-94080000D01*
X151211503Y-93890115D01*
X151211500Y-93890102D01*
X151135164Y-93605209D01*
X151135161Y-93605199D01*
X151022295Y-93332718D01*
X151022290Y-93332707D01*
X150874825Y-93077292D01*
X150874814Y-93077276D01*
X150695270Y-92843290D01*
X150695264Y-92843283D01*
X150486716Y-92634735D01*
X150486709Y-92634729D01*
X150252723Y-92455185D01*
X150252707Y-92455174D01*
X149997292Y-92307709D01*
X149997281Y-92307704D01*
X149724800Y-92194838D01*
X149724790Y-92194835D01*
X149439897Y-92118499D01*
X149439884Y-92118496D01*
X149147483Y-92080001D01*
X149147466Y-92080000D01*
X147500000Y-92080000D01*
X147500000Y-93355038D01*
X147348984Y-93325000D01*
X147151016Y-93325000D01*
X147000000Y-93355038D01*
X147000000Y-92080000D01*
X145352534Y-92080000D01*
X145352516Y-92080001D01*
X145060115Y-92118496D01*
X145060102Y-92118499D01*
X144775209Y-92194835D01*
X144775199Y-92194838D01*
X144502718Y-92307704D01*
X144502707Y-92307709D01*
X144247292Y-92455174D01*
X144247276Y-92455185D01*
X144013290Y-92634729D01*
X144013283Y-92634735D01*
X143804735Y-92843283D01*
X143804729Y-92843290D01*
X143625185Y-93077276D01*
X143625174Y-93077292D01*
X143477709Y-93332707D01*
X143477704Y-93332718D01*
X143364838Y-93605199D01*
X143364835Y-93605209D01*
X143288499Y-93890102D01*
X143288496Y-93890115D01*
X143263497Y-94080000D01*
X141038310Y-94080000D01*
X140949523Y-94024211D01*
X140779254Y-93964631D01*
X140779249Y-93964630D01*
X140600004Y-93944435D01*
X140599996Y-93944435D01*
X140420750Y-93964630D01*
X140420745Y-93964631D01*
X140250476Y-94024211D01*
X140097737Y-94120184D01*
X139970184Y-94247737D01*
X139874211Y-94400476D01*
X139814631Y-94570745D01*
X139814630Y-94570750D01*
X139794435Y-94749996D01*
X139794435Y-94750003D01*
X139814630Y-94929249D01*
X139814631Y-94929254D01*
X139874211Y-95099523D01*
X139943018Y-95209028D01*
X139962018Y-95276265D01*
X139943018Y-95340972D01*
X139874211Y-95450476D01*
X139814631Y-95620745D01*
X139814630Y-95620750D01*
X139794435Y-95799996D01*
X139794435Y-95800003D01*
X139814630Y-95979249D01*
X139814631Y-95979254D01*
X139874212Y-96149525D01*
X139911600Y-96209029D01*
X139930600Y-96276266D01*
X139911600Y-96340971D01*
X139874212Y-96400474D01*
X139814631Y-96570745D01*
X139814630Y-96570750D01*
X139794435Y-96749996D01*
X139794435Y-96750003D01*
X134999239Y-96750003D01*
X129199239Y-90950003D01*
X135444435Y-90950003D01*
X135464630Y-91129249D01*
X135464631Y-91129254D01*
X135524211Y-91299523D01*
X135620184Y-91452262D01*
X135747738Y-91579816D01*
X135900478Y-91675789D01*
X136070745Y-91735368D01*
X136070750Y-91735369D01*
X136249996Y-91755565D01*
X136250000Y-91755565D01*
X136250004Y-91755565D01*
X136429249Y-91735369D01*
X136429252Y-91735368D01*
X136429255Y-91735368D01*
X136599522Y-91675789D01*
X136709028Y-91606981D01*
X136776264Y-91587981D01*
X136840971Y-91606981D01*
X136873776Y-91627594D01*
X136950475Y-91675788D01*
X137120745Y-91735368D01*
X137120750Y-91735369D01*
X137299996Y-91755565D01*
X137300000Y-91755565D01*
X137300004Y-91755565D01*
X137479249Y-91735369D01*
X137479252Y-91735368D01*
X137479255Y-91735368D01*
X137649522Y-91675789D01*
X137802262Y-91579816D01*
X137929816Y-91452262D01*
X138025789Y-91299522D01*
X138085368Y-91129255D01*
X138105565Y-90950000D01*
X138085368Y-90770745D01*
X138025789Y-90600478D01*
X137929816Y-90447738D01*
X137802262Y-90320184D01*
X137731608Y-90275789D01*
X137649523Y-90224211D01*
X137479254Y-90164631D01*
X137479249Y-90164630D01*
X137300004Y-90144435D01*
X137299996Y-90144435D01*
X137120750Y-90164630D01*
X137120745Y-90164631D01*
X136950476Y-90224211D01*
X136840972Y-90293018D01*
X136773735Y-90312018D01*
X136709028Y-90293018D01*
X136599523Y-90224211D01*
X136429254Y-90164631D01*
X136429249Y-90164630D01*
X136250004Y-90144435D01*
X136249996Y-90144435D01*
X136070750Y-90164630D01*
X136070745Y-90164631D01*
X135900476Y-90224211D01*
X135747737Y-90320184D01*
X135620184Y-90447737D01*
X135524211Y-90600476D01*
X135464631Y-90770745D01*
X135464630Y-90770750D01*
X135444435Y-90949996D01*
X135444435Y-90950003D01*
X129199239Y-90950003D01*
X129061417Y-90812181D01*
X129027932Y-90750858D01*
X129032916Y-90681166D01*
X129074788Y-90625233D01*
X129140252Y-90600816D01*
X129149098Y-90600500D01*
X130913331Y-90600500D01*
X130913347Y-90600501D01*
X130920943Y-90600501D01*
X131079054Y-90600501D01*
X131079057Y-90600501D01*
X131231785Y-90559577D01*
X131308180Y-90515470D01*
X131368716Y-90480520D01*
X131480520Y-90368716D01*
X131480520Y-90368714D01*
X131490724Y-90358511D01*
X131490728Y-90358506D01*
X132496883Y-89352351D01*
X140419500Y-89352351D01*
X140451522Y-89554534D01*
X140514781Y-89749223D01*
X140540411Y-89799523D01*
X140592759Y-89902262D01*
X140607715Y-89931613D01*
X140728028Y-90097213D01*
X140872786Y-90241971D01*
X140982661Y-90321798D01*
X141038390Y-90362287D01*
X141154607Y-90421503D01*
X141220776Y-90455218D01*
X141220778Y-90455218D01*
X141220781Y-90455220D01*
X141298659Y-90480524D01*
X141415465Y-90518477D01*
X141516557Y-90534488D01*
X141617648Y-90550500D01*
X141617649Y-90550500D01*
X142722351Y-90550500D01*
X142722352Y-90550500D01*
X142924534Y-90518477D01*
X143119219Y-90455220D01*
X143301610Y-90362287D01*
X143396951Y-90293018D01*
X143467213Y-90241971D01*
X143467215Y-90241968D01*
X143467219Y-90241966D01*
X143611966Y-90097219D01*
X143611968Y-90097215D01*
X143611971Y-90097213D01*
X143673376Y-90012695D01*
X143732287Y-89931610D01*
X143825220Y-89749219D01*
X143888477Y-89554534D01*
X143920500Y-89352352D01*
X143920500Y-89147648D01*
X143888477Y-88945466D01*
X143825220Y-88750781D01*
X143825218Y-88750778D01*
X143825218Y-88750776D01*
X143791503Y-88684607D01*
X143732287Y-88568390D01*
X143718923Y-88549996D01*
X143611971Y-88402786D01*
X143467213Y-88258028D01*
X143301611Y-88137713D01*
X143208369Y-88090203D01*
X143157574Y-88042229D01*
X143140779Y-87974407D01*
X143163317Y-87908273D01*
X143208371Y-87869234D01*
X143301347Y-87821861D01*
X143466894Y-87701582D01*
X143466895Y-87701582D01*
X143611582Y-87556895D01*
X143611582Y-87556894D01*
X143731859Y-87391349D01*
X143824755Y-87209029D01*
X143887990Y-87014413D01*
X143896609Y-86960000D01*
X142539504Y-86960000D01*
X142584674Y-86881764D01*
X142615000Y-86768585D01*
X142615000Y-86651415D01*
X142584674Y-86538236D01*
X142539504Y-86460000D01*
X143896609Y-86460000D01*
X143887990Y-86405586D01*
X143824755Y-86210970D01*
X143731859Y-86028650D01*
X143611582Y-85863105D01*
X143611582Y-85863104D01*
X143466895Y-85718417D01*
X143301349Y-85598140D01*
X143119031Y-85505244D01*
X142924417Y-85442009D01*
X142722317Y-85410000D01*
X142420000Y-85410000D01*
X142420000Y-86340495D01*
X142341764Y-86295326D01*
X142228585Y-86265000D01*
X142111415Y-86265000D01*
X141998236Y-86295326D01*
X141920000Y-86340495D01*
X141920000Y-85410000D01*
X141617683Y-85410000D01*
X141415582Y-85442009D01*
X141220968Y-85505244D01*
X141038650Y-85598140D01*
X140873105Y-85718417D01*
X140873104Y-85718417D01*
X140728417Y-85863104D01*
X140728417Y-85863105D01*
X140608140Y-86028650D01*
X140515244Y-86210970D01*
X140452009Y-86405586D01*
X140443391Y-86460000D01*
X141800496Y-86460000D01*
X141755326Y-86538236D01*
X141725000Y-86651415D01*
X141725000Y-86768585D01*
X141755326Y-86881764D01*
X141800496Y-86960000D01*
X140443391Y-86960000D01*
X140452009Y-87014413D01*
X140515244Y-87209029D01*
X140608140Y-87391349D01*
X140728417Y-87556894D01*
X140728417Y-87556895D01*
X140873104Y-87701582D01*
X141038652Y-87821861D01*
X141131628Y-87869234D01*
X141182425Y-87917208D01*
X141199220Y-87985029D01*
X141176683Y-88051164D01*
X141131630Y-88090203D01*
X141038388Y-88137713D01*
X140872786Y-88258028D01*
X140728028Y-88402786D01*
X140607715Y-88568386D01*
X140514781Y-88750776D01*
X140451522Y-88945465D01*
X140419500Y-89147648D01*
X140419500Y-89352351D01*
X132496883Y-89352351D01*
X137929234Y-83920000D01*
X143263497Y-83920000D01*
X146275038Y-83920000D01*
X146245000Y-84071016D01*
X146245000Y-84268984D01*
X146275038Y-84420000D01*
X143263498Y-84420000D01*
X143288496Y-84609884D01*
X143288499Y-84609897D01*
X143364835Y-84894790D01*
X143364838Y-84894800D01*
X143477704Y-85167281D01*
X143477709Y-85167292D01*
X143625174Y-85422707D01*
X143625185Y-85422723D01*
X143804729Y-85656709D01*
X143804735Y-85656716D01*
X144013283Y-85865264D01*
X144013290Y-85865270D01*
X144247276Y-86044814D01*
X144247292Y-86044825D01*
X144502707Y-86192290D01*
X144502718Y-86192295D01*
X144775199Y-86305161D01*
X144775209Y-86305164D01*
X145060102Y-86381500D01*
X145060115Y-86381503D01*
X145352516Y-86419998D01*
X145352534Y-86420000D01*
X147000000Y-86420000D01*
X147000000Y-85144961D01*
X147151016Y-85175000D01*
X147348984Y-85175000D01*
X147500000Y-85144961D01*
X147500000Y-86420000D01*
X149147466Y-86420000D01*
X149147483Y-86419998D01*
X149439884Y-86381503D01*
X149439897Y-86381500D01*
X149724790Y-86305164D01*
X149724800Y-86305161D01*
X149997281Y-86192295D01*
X149997292Y-86192290D01*
X150252707Y-86044825D01*
X150252723Y-86044814D01*
X150486709Y-85865270D01*
X150486716Y-85865264D01*
X150695264Y-85656716D01*
X150695270Y-85656709D01*
X150874814Y-85422723D01*
X150874825Y-85422707D01*
X151022290Y-85167292D01*
X151022295Y-85167281D01*
X151135161Y-84894800D01*
X151135164Y-84894790D01*
X151211500Y-84609897D01*
X151211503Y-84609884D01*
X151236502Y-84420000D01*
X148224962Y-84420000D01*
X148255000Y-84268984D01*
X148255000Y-84071016D01*
X148224962Y-83920000D01*
X151236502Y-83920000D01*
X151211503Y-83730115D01*
X151211500Y-83730102D01*
X151135164Y-83445209D01*
X151135161Y-83445199D01*
X151022295Y-83172718D01*
X151022290Y-83172707D01*
X150874825Y-82917292D01*
X150874814Y-82917276D01*
X150695270Y-82683290D01*
X150695264Y-82683283D01*
X150486716Y-82474735D01*
X150486709Y-82474729D01*
X150252723Y-82295185D01*
X150252707Y-82295174D01*
X149997292Y-82147709D01*
X149997281Y-82147704D01*
X149724800Y-82034838D01*
X149724790Y-82034835D01*
X149439897Y-81958499D01*
X149439884Y-81958496D01*
X149147483Y-81920001D01*
X149147466Y-81920000D01*
X147500000Y-81920000D01*
X147500000Y-83195038D01*
X147348984Y-83165000D01*
X147151016Y-83165000D01*
X147000000Y-83195038D01*
X147000000Y-81920000D01*
X145352534Y-81920000D01*
X145352516Y-81920001D01*
X145060115Y-81958496D01*
X145060102Y-81958499D01*
X144775209Y-82034835D01*
X144775199Y-82034838D01*
X144502718Y-82147704D01*
X144502707Y-82147709D01*
X144247292Y-82295174D01*
X144247276Y-82295185D01*
X144013290Y-82474729D01*
X144013283Y-82474735D01*
X143804735Y-82683283D01*
X143804729Y-82683290D01*
X143625185Y-82917276D01*
X143625174Y-82917292D01*
X143477709Y-83172707D01*
X143477704Y-83172718D01*
X143364838Y-83445199D01*
X143364835Y-83445209D01*
X143288499Y-83730102D01*
X143288496Y-83730115D01*
X143263497Y-83920000D01*
X137929234Y-83920000D01*
X138958506Y-82890728D01*
X138958511Y-82890724D01*
X138968714Y-82880520D01*
X138968716Y-82880520D01*
X139080520Y-82768716D01*
X139153965Y-82641505D01*
X139159577Y-82631785D01*
X139200500Y-82479057D01*
X139200500Y-82320943D01*
X139200500Y-79565001D01*
X147259838Y-79565001D01*
X147278450Y-79777741D01*
X147278452Y-79777752D01*
X147333721Y-79984022D01*
X147333723Y-79984026D01*
X147333724Y-79984030D01*
X147341798Y-80001344D01*
X147423977Y-80177578D01*
X147546472Y-80352521D01*
X147697478Y-80503527D01*
X147697481Y-80503529D01*
X147872419Y-80626021D01*
X147872421Y-80626022D01*
X147872420Y-80626022D01*
X147936936Y-80656106D01*
X148065970Y-80716276D01*
X148272253Y-80771549D01*
X148424215Y-80784844D01*
X148484998Y-80790162D01*
X148485000Y-80790162D01*
X148485002Y-80790162D01*
X148538186Y-80785508D01*
X148697747Y-80771549D01*
X148904030Y-80716276D01*
X149097581Y-80626021D01*
X149272519Y-80503529D01*
X149423529Y-80352519D01*
X149546021Y-80177581D01*
X149636276Y-79984030D01*
X149691549Y-79777747D01*
X149710162Y-79565000D01*
X149691549Y-79352253D01*
X149636276Y-79145970D01*
X149546021Y-78952419D01*
X149447818Y-78812169D01*
X149423527Y-78777478D01*
X149272521Y-78626472D01*
X149097578Y-78503977D01*
X149097579Y-78503977D01*
X148950409Y-78435351D01*
X148904030Y-78413724D01*
X148904026Y-78413723D01*
X148904022Y-78413721D01*
X148697752Y-78358452D01*
X148697748Y-78358451D01*
X148697747Y-78358451D01*
X148697746Y-78358450D01*
X148697741Y-78358450D01*
X148485002Y-78339838D01*
X148484998Y-78339838D01*
X148272258Y-78358450D01*
X148272247Y-78358452D01*
X148065977Y-78413721D01*
X148065968Y-78413725D01*
X147872421Y-78503977D01*
X147697478Y-78626472D01*
X147546472Y-78777478D01*
X147423977Y-78952421D01*
X147333725Y-79145968D01*
X147333721Y-79145977D01*
X147278452Y-79352247D01*
X147278450Y-79352258D01*
X147259838Y-79564998D01*
X147259838Y-79565001D01*
X139200500Y-79565001D01*
X139200500Y-79300097D01*
X139220185Y-79233058D01*
X139236819Y-79212416D01*
X140114554Y-78334681D01*
X141018536Y-77430698D01*
X141079857Y-77397215D01*
X141092310Y-77395163D01*
X141179255Y-77385368D01*
X141349522Y-77325789D01*
X141502262Y-77229816D01*
X141629816Y-77102262D01*
X141678362Y-77025002D01*
X144720340Y-77025002D01*
X144738944Y-77237654D01*
X144738945Y-77237662D01*
X144794194Y-77443853D01*
X144794197Y-77443859D01*
X144884413Y-77637329D01*
X144923415Y-77693030D01*
X145545000Y-77071445D01*
X145545000Y-77077661D01*
X145572259Y-77179394D01*
X145624920Y-77270606D01*
X145699394Y-77345080D01*
X145790606Y-77397741D01*
X145892339Y-77425000D01*
X145898553Y-77425000D01*
X145276968Y-78046584D01*
X145332663Y-78085582D01*
X145332669Y-78085586D01*
X145526140Y-78175802D01*
X145526146Y-78175805D01*
X145732337Y-78231054D01*
X145732345Y-78231055D01*
X145944998Y-78249660D01*
X145945002Y-78249660D01*
X146157654Y-78231055D01*
X146157662Y-78231054D01*
X146363853Y-78175805D01*
X146363864Y-78175801D01*
X146557325Y-78085589D01*
X146613030Y-78046583D01*
X145991448Y-77425000D01*
X145997661Y-77425000D01*
X146099394Y-77397741D01*
X146190606Y-77345080D01*
X146265080Y-77270606D01*
X146317741Y-77179394D01*
X146345000Y-77077661D01*
X146345000Y-77071446D01*
X146966583Y-77693029D01*
X147005589Y-77637325D01*
X147095801Y-77443864D01*
X147095805Y-77443853D01*
X147151054Y-77237662D01*
X147151055Y-77237654D01*
X147169660Y-77025002D01*
X147169660Y-77025001D01*
X149799838Y-77025001D01*
X149818450Y-77237741D01*
X149818452Y-77237752D01*
X149873721Y-77444022D01*
X149873723Y-77444026D01*
X149873724Y-77444030D01*
X149890150Y-77479255D01*
X149963977Y-77637578D01*
X150086472Y-77812521D01*
X150237478Y-77963527D01*
X150237481Y-77963529D01*
X150412419Y-78086021D01*
X150412421Y-78086022D01*
X150412420Y-78086022D01*
X150476936Y-78116106D01*
X150605970Y-78176276D01*
X150812253Y-78231549D01*
X150952248Y-78243797D01*
X151024998Y-78250162D01*
X151025000Y-78250162D01*
X151025002Y-78250162D01*
X151078186Y-78245508D01*
X151237747Y-78231549D01*
X151444030Y-78176276D01*
X151637581Y-78086021D01*
X151812519Y-77963529D01*
X151963529Y-77812519D01*
X152086021Y-77637581D01*
X152176276Y-77444030D01*
X152231549Y-77237747D01*
X152250162Y-77025000D01*
X152231549Y-76812253D01*
X152176276Y-76605970D01*
X152086021Y-76412419D01*
X151963529Y-76237481D01*
X151963527Y-76237478D01*
X151812521Y-76086472D01*
X151637578Y-75963977D01*
X151637579Y-75963977D01*
X151508547Y-75903809D01*
X151444030Y-75873724D01*
X151444026Y-75873723D01*
X151444022Y-75873721D01*
X151237752Y-75818452D01*
X151237748Y-75818451D01*
X151237747Y-75818451D01*
X151237746Y-75818450D01*
X151237741Y-75818450D01*
X151025002Y-75799838D01*
X151024998Y-75799838D01*
X150812258Y-75818450D01*
X150812247Y-75818452D01*
X150605977Y-75873721D01*
X150605968Y-75873725D01*
X150412421Y-75963977D01*
X150237478Y-76086472D01*
X150086472Y-76237478D01*
X149963977Y-76412421D01*
X149912104Y-76523664D01*
X149876507Y-76600003D01*
X149873725Y-76605968D01*
X149873721Y-76605977D01*
X149818452Y-76812247D01*
X149818450Y-76812258D01*
X149799838Y-77024998D01*
X149799838Y-77025001D01*
X147169660Y-77025001D01*
X147169660Y-77024997D01*
X147151055Y-76812345D01*
X147151054Y-76812337D01*
X147095805Y-76606146D01*
X147095802Y-76606140D01*
X147005586Y-76412669D01*
X147005582Y-76412663D01*
X146966584Y-76356968D01*
X146345000Y-76978552D01*
X146345000Y-76972339D01*
X146317741Y-76870606D01*
X146265080Y-76779394D01*
X146190606Y-76704920D01*
X146099394Y-76652259D01*
X145997661Y-76625000D01*
X145991447Y-76625000D01*
X146613030Y-76003415D01*
X146557329Y-75964413D01*
X146363859Y-75874197D01*
X146363853Y-75874194D01*
X146157662Y-75818945D01*
X146157654Y-75818944D01*
X145945002Y-75800340D01*
X145944998Y-75800340D01*
X145732345Y-75818944D01*
X145732337Y-75818945D01*
X145526146Y-75874194D01*
X145526140Y-75874197D01*
X145332671Y-75964412D01*
X145332669Y-75964413D01*
X145276969Y-76003415D01*
X145276968Y-76003415D01*
X145898554Y-76625000D01*
X145892339Y-76625000D01*
X145790606Y-76652259D01*
X145699394Y-76704920D01*
X145624920Y-76779394D01*
X145572259Y-76870606D01*
X145545000Y-76972339D01*
X145545000Y-76978553D01*
X144923415Y-76356968D01*
X144923415Y-76356969D01*
X144884413Y-76412669D01*
X144884412Y-76412671D01*
X144794197Y-76606140D01*
X144794194Y-76606146D01*
X144738945Y-76812337D01*
X144738944Y-76812345D01*
X144720340Y-77024997D01*
X144720340Y-77025002D01*
X141678362Y-77025002D01*
X141725789Y-76949522D01*
X141785368Y-76779255D01*
X141790035Y-76737834D01*
X141805565Y-76600003D01*
X141805565Y-76599996D01*
X141785369Y-76420750D01*
X141785368Y-76420745D01*
X141741512Y-76295413D01*
X141725789Y-76250478D01*
X141717622Y-76237481D01*
X141629815Y-76097737D01*
X141544259Y-76012181D01*
X141510774Y-75950858D01*
X141515758Y-75881166D01*
X141557630Y-75825233D01*
X141623094Y-75800816D01*
X141631940Y-75800500D01*
X142417588Y-75800500D01*
X142484627Y-75820185D01*
X142494903Y-75827555D01*
X142497736Y-75829814D01*
X142497738Y-75829816D01*
X142650478Y-75925789D01*
X142783087Y-75972191D01*
X142820745Y-75985368D01*
X142820750Y-75985369D01*
X142999996Y-76005565D01*
X143000000Y-76005565D01*
X143000004Y-76005565D01*
X143179249Y-75985369D01*
X143179252Y-75985368D01*
X143179255Y-75985368D01*
X143349522Y-75925789D01*
X143502262Y-75829816D01*
X143629816Y-75702262D01*
X143725789Y-75549522D01*
X143785368Y-75379255D01*
X143785369Y-75379249D01*
X143805565Y-75200003D01*
X143805565Y-75199996D01*
X143785369Y-75020750D01*
X143785368Y-75020745D01*
X143747298Y-74911948D01*
X143725789Y-74850478D01*
X143725174Y-74849500D01*
X143643474Y-74719475D01*
X143629816Y-74697738D01*
X143502262Y-74570184D01*
X143403111Y-74507883D01*
X143349523Y-74474211D01*
X143179254Y-74414631D01*
X143179249Y-74414630D01*
X143000004Y-74394435D01*
X142999996Y-74394435D01*
X142820750Y-74414630D01*
X142820745Y-74414631D01*
X142650476Y-74474211D01*
X142497736Y-74570185D01*
X142494903Y-74572445D01*
X142492724Y-74573334D01*
X142491842Y-74573889D01*
X142491744Y-74573734D01*
X142430217Y-74598855D01*
X142417588Y-74599500D01*
X140920940Y-74599500D01*
X140880019Y-74610464D01*
X140880019Y-74610465D01*
X140842751Y-74620451D01*
X140768214Y-74640423D01*
X140768209Y-74640426D01*
X140631290Y-74719475D01*
X140631282Y-74719481D01*
X137319481Y-78031282D01*
X137319475Y-78031290D01*
X137276594Y-78105564D01*
X137276594Y-78105565D01*
X137240423Y-78168215D01*
X137199499Y-78320943D01*
X137199499Y-78320945D01*
X137199499Y-78489046D01*
X137199500Y-78489059D01*
X137199500Y-81699903D01*
X137179815Y-81766942D01*
X137163181Y-81787584D01*
X130187584Y-88763181D01*
X130126261Y-88796666D01*
X130099903Y-88799500D01*
X128100098Y-88799500D01*
X128033059Y-88779815D01*
X128012417Y-88763181D01*
X127321571Y-88072335D01*
X127288086Y-88011012D01*
X127293070Y-87941320D01*
X127334942Y-87885387D01*
X127343910Y-87879949D01*
X127343625Y-87879495D01*
X127434027Y-87822691D01*
X127501264Y-87803690D01*
X127565973Y-87822691D01*
X127650475Y-87875788D01*
X127820745Y-87935368D01*
X127820750Y-87935369D01*
X127999996Y-87955565D01*
X128000000Y-87955565D01*
X128000004Y-87955565D01*
X128179249Y-87935369D01*
X128179252Y-87935368D01*
X128179255Y-87935368D01*
X128349522Y-87875789D01*
X128502262Y-87779816D01*
X128629816Y-87652262D01*
X128725789Y-87499522D01*
X128785368Y-87329255D01*
X128785369Y-87329249D01*
X128805565Y-87150003D01*
X128805565Y-87149996D01*
X128785369Y-86970750D01*
X128785368Y-86970745D01*
X128725788Y-86800475D01*
X128672691Y-86715973D01*
X128653690Y-86648736D01*
X128672691Y-86584027D01*
X128725788Y-86499524D01*
X128726077Y-86498699D01*
X128785368Y-86329255D01*
X128786507Y-86319146D01*
X128805565Y-86150003D01*
X128805565Y-86149996D01*
X128785369Y-85970750D01*
X128785368Y-85970745D01*
X128748461Y-85865270D01*
X128725789Y-85800478D01*
X128690323Y-85744035D01*
X128629815Y-85647737D01*
X128502262Y-85520184D01*
X128349523Y-85424211D01*
X128179254Y-85364631D01*
X128179249Y-85364630D01*
X128000004Y-85344435D01*
X127999996Y-85344435D01*
X127820750Y-85364630D01*
X127820737Y-85364633D01*
X127650479Y-85424209D01*
X127565971Y-85477309D01*
X127498734Y-85496309D01*
X127434029Y-85477309D01*
X127349520Y-85424209D01*
X127179262Y-85364633D01*
X127179249Y-85364630D01*
X127000004Y-85344435D01*
X126999996Y-85344435D01*
X126820750Y-85364630D01*
X126820745Y-85364631D01*
X126650476Y-85424211D01*
X126497737Y-85520184D01*
X126370184Y-85647737D01*
X126274211Y-85800476D01*
X126214631Y-85970745D01*
X126214630Y-85970750D01*
X126194435Y-86149996D01*
X126194435Y-86150003D01*
X126214630Y-86329249D01*
X126214633Y-86329262D01*
X126274209Y-86499518D01*
X126274210Y-86499520D01*
X126274211Y-86499522D01*
X126309425Y-86555565D01*
X126327309Y-86584027D01*
X126346309Y-86651264D01*
X126327309Y-86715970D01*
X126270506Y-86806373D01*
X126267916Y-86804745D01*
X126230030Y-86846539D01*
X126162566Y-86864716D01*
X126095984Y-86843534D01*
X126077664Y-86828428D01*
X122929236Y-83680000D01*
X125291841Y-83680000D01*
X125312436Y-83915403D01*
X125312438Y-83915413D01*
X125373594Y-84143655D01*
X125373596Y-84143659D01*
X125373597Y-84143663D01*
X125453504Y-84315023D01*
X125473465Y-84357830D01*
X125473467Y-84357834D01*
X125563575Y-84486520D01*
X125609005Y-84551401D01*
X125776099Y-84718495D01*
X125821913Y-84750574D01*
X125969665Y-84854032D01*
X125969667Y-84854033D01*
X125969670Y-84854035D01*
X126183837Y-84953903D01*
X126412092Y-85015063D01*
X126600418Y-85031539D01*
X126647499Y-85035659D01*
X126647500Y-85035659D01*
X126647501Y-85035659D01*
X126686734Y-85032226D01*
X126882908Y-85015063D01*
X127111163Y-84953903D01*
X127325330Y-84854035D01*
X127518901Y-84718495D01*
X127685995Y-84551401D01*
X127815925Y-84365842D01*
X127870502Y-84322217D01*
X127940000Y-84315023D01*
X128002355Y-84346546D01*
X128019075Y-84365842D01*
X128149000Y-84551395D01*
X128149005Y-84551401D01*
X128316099Y-84718495D01*
X128361913Y-84750574D01*
X128509665Y-84854032D01*
X128509667Y-84854033D01*
X128509670Y-84854035D01*
X128723837Y-84953903D01*
X128952092Y-85015063D01*
X129140418Y-85031539D01*
X129187499Y-85035659D01*
X129187500Y-85035659D01*
X129187501Y-85035659D01*
X129226734Y-85032226D01*
X129422908Y-85015063D01*
X129651163Y-84953903D01*
X129865330Y-84854035D01*
X130058901Y-84718495D01*
X130225995Y-84551401D01*
X130361535Y-84357830D01*
X130461403Y-84143663D01*
X130522563Y-83915408D01*
X130543159Y-83680000D01*
X130522563Y-83444592D01*
X130461403Y-83216337D01*
X130361535Y-83002171D01*
X130355925Y-82994158D01*
X130225994Y-82808597D01*
X130058901Y-82641505D01*
X130058892Y-82641498D01*
X129873342Y-82511575D01*
X129829717Y-82456998D01*
X129822523Y-82387500D01*
X129854046Y-82325145D01*
X129873342Y-82308425D01*
X129934776Y-82265408D01*
X130058901Y-82178495D01*
X130225995Y-82011401D01*
X130361535Y-81817830D01*
X130461403Y-81603663D01*
X130522563Y-81375408D01*
X130543159Y-81140000D01*
X130522563Y-80904592D01*
X130472105Y-80716278D01*
X130461405Y-80676344D01*
X130461404Y-80676343D01*
X130461403Y-80676337D01*
X130362854Y-80465000D01*
X133644341Y-80465000D01*
X133664936Y-80700403D01*
X133664938Y-80700413D01*
X133726094Y-80928655D01*
X133726096Y-80928659D01*
X133726097Y-80928663D01*
X133824645Y-81139999D01*
X133825965Y-81142830D01*
X133825967Y-81142834D01*
X133934281Y-81297521D01*
X133961505Y-81336401D01*
X134128599Y-81503495D01*
X134218344Y-81566335D01*
X134322165Y-81639032D01*
X134322167Y-81639033D01*
X134322170Y-81639035D01*
X134536337Y-81738903D01*
X134764592Y-81800063D01*
X134952918Y-81816539D01*
X134999999Y-81820659D01*
X135000000Y-81820659D01*
X135000001Y-81820659D01*
X135039234Y-81817226D01*
X135235408Y-81800063D01*
X135463663Y-81738903D01*
X135677830Y-81639035D01*
X135871401Y-81503495D01*
X136038495Y-81336401D01*
X136174035Y-81142830D01*
X136273903Y-80928663D01*
X136335063Y-80700408D01*
X136355659Y-80465000D01*
X136355411Y-80462171D01*
X136346595Y-80361401D01*
X136335063Y-80229592D01*
X136273903Y-80001337D01*
X136174035Y-79787171D01*
X136172616Y-79785145D01*
X136038496Y-79593600D01*
X136009894Y-79564998D01*
X135916567Y-79471671D01*
X135883084Y-79410351D01*
X135888068Y-79340659D01*
X135929939Y-79284725D01*
X135960915Y-79267810D01*
X136092331Y-79218796D01*
X136207546Y-79132546D01*
X136293796Y-79017331D01*
X136344091Y-78882483D01*
X136350500Y-78822873D01*
X136350499Y-77027128D01*
X136344091Y-76967517D01*
X136337379Y-76949522D01*
X136293797Y-76832671D01*
X136293793Y-76832664D01*
X136207547Y-76717455D01*
X136207544Y-76717452D01*
X136092335Y-76631206D01*
X136092328Y-76631202D01*
X135957482Y-76580908D01*
X135957483Y-76580908D01*
X135897883Y-76574501D01*
X135897881Y-76574500D01*
X135897873Y-76574500D01*
X135897864Y-76574500D01*
X134102129Y-76574500D01*
X134102123Y-76574501D01*
X134042516Y-76580908D01*
X133907671Y-76631202D01*
X133907664Y-76631206D01*
X133792455Y-76717452D01*
X133792452Y-76717455D01*
X133706206Y-76832664D01*
X133706202Y-76832671D01*
X133655908Y-76967517D01*
X133649728Y-77025002D01*
X133649501Y-77027123D01*
X133649500Y-77027135D01*
X133649500Y-78822870D01*
X133649501Y-78822876D01*
X133655908Y-78882483D01*
X133706202Y-79017328D01*
X133706206Y-79017335D01*
X133792452Y-79132544D01*
X133792455Y-79132547D01*
X133907664Y-79218793D01*
X133907671Y-79218797D01*
X134039081Y-79267810D01*
X134095015Y-79309681D01*
X134119432Y-79375145D01*
X134104580Y-79443418D01*
X134083430Y-79471673D01*
X133961503Y-79593600D01*
X133825965Y-79787169D01*
X133825964Y-79787171D01*
X133726098Y-80001335D01*
X133726094Y-80001344D01*
X133664938Y-80229586D01*
X133664936Y-80229596D01*
X133644341Y-80464999D01*
X133644341Y-80465000D01*
X130362854Y-80465000D01*
X130361535Y-80462171D01*
X130355925Y-80454158D01*
X130225994Y-80268597D01*
X130058902Y-80101506D01*
X130058896Y-80101501D01*
X129873342Y-79971575D01*
X129829717Y-79916998D01*
X129822523Y-79847500D01*
X129854046Y-79785145D01*
X129873342Y-79768425D01*
X129934776Y-79725408D01*
X130058901Y-79638495D01*
X130225995Y-79471401D01*
X130361535Y-79277830D01*
X130461403Y-79063663D01*
X130522563Y-78835408D01*
X130543159Y-78600000D01*
X130522563Y-78364592D01*
X130472105Y-78176278D01*
X130461405Y-78136344D01*
X130461404Y-78136343D01*
X130461403Y-78136337D01*
X130361535Y-77922171D01*
X130359650Y-77919478D01*
X130225994Y-77728597D01*
X130058902Y-77561506D01*
X130058896Y-77561501D01*
X129873342Y-77431575D01*
X129829717Y-77376998D01*
X129822523Y-77307500D01*
X129854046Y-77245145D01*
X129873342Y-77228425D01*
X129943365Y-77179394D01*
X130058901Y-77098495D01*
X130225995Y-76931401D01*
X130361535Y-76737830D01*
X130461403Y-76523663D01*
X130522563Y-76295408D01*
X130543159Y-76060000D01*
X130522563Y-75824592D01*
X130461403Y-75596337D01*
X130361535Y-75382171D01*
X130359494Y-75379255D01*
X130225994Y-75188597D01*
X130058902Y-75021506D01*
X130058896Y-75021501D01*
X129873342Y-74891575D01*
X129829717Y-74836998D01*
X129822523Y-74767500D01*
X129854046Y-74705145D01*
X129873342Y-74688425D01*
X129895526Y-74672891D01*
X130058901Y-74558495D01*
X130225995Y-74391401D01*
X130361535Y-74197830D01*
X130461403Y-73983663D01*
X130522563Y-73755408D01*
X130543159Y-73520000D01*
X130522563Y-73284592D01*
X130461403Y-73056337D01*
X130361535Y-72842171D01*
X130298924Y-72752752D01*
X130225994Y-72648597D01*
X130058902Y-72481506D01*
X130058895Y-72481501D01*
X129865334Y-72345967D01*
X129865330Y-72345965D01*
X129825189Y-72327247D01*
X129651163Y-72246097D01*
X129651159Y-72246096D01*
X129651155Y-72246094D01*
X129422913Y-72184938D01*
X129422903Y-72184936D01*
X129187501Y-72164341D01*
X129187499Y-72164341D01*
X128952096Y-72184936D01*
X128952086Y-72184938D01*
X128723844Y-72246094D01*
X128723837Y-72246096D01*
X128723837Y-72246097D01*
X128710316Y-72252401D01*
X128509671Y-72345964D01*
X128509669Y-72345965D01*
X128316097Y-72481505D01*
X128149003Y-72648599D01*
X128147849Y-72649975D01*
X128147188Y-72650414D01*
X128145176Y-72652427D01*
X128144771Y-72652022D01*
X128089673Y-72688671D01*
X128019812Y-72689772D01*
X127960446Y-72652928D01*
X127935163Y-72609265D01*
X127932314Y-72600666D01*
X127840212Y-72451344D01*
X127716156Y-72327288D01*
X127591296Y-72250274D01*
X127566836Y-72235187D01*
X127566831Y-72235185D01*
X127537054Y-72225318D01*
X127400297Y-72180001D01*
X127400295Y-72180000D01*
X127297510Y-72169500D01*
X125997498Y-72169500D01*
X125997481Y-72169501D01*
X125894703Y-72180000D01*
X125894700Y-72180001D01*
X125728168Y-72235185D01*
X125728163Y-72235187D01*
X125578842Y-72327289D01*
X125454789Y-72451342D01*
X125362687Y-72600663D01*
X125362685Y-72600668D01*
X125345504Y-72652517D01*
X125307501Y-72767203D01*
X125307501Y-72767204D01*
X125307500Y-72767204D01*
X125297000Y-72869983D01*
X125297000Y-74170001D01*
X125297001Y-74170018D01*
X125307500Y-74272796D01*
X125307501Y-74272799D01*
X125359839Y-74430742D01*
X125362686Y-74439334D01*
X125454788Y-74588656D01*
X125578844Y-74712712D01*
X125728166Y-74804814D01*
X125736764Y-74807663D01*
X125794207Y-74847433D01*
X125821031Y-74911948D01*
X125808717Y-74980724D01*
X125779734Y-75017483D01*
X125779927Y-75017676D01*
X125778298Y-75019304D01*
X125777475Y-75020349D01*
X125776099Y-75021503D01*
X125609005Y-75188597D01*
X125473465Y-75382169D01*
X125473464Y-75382171D01*
X125373598Y-75596335D01*
X125373594Y-75596344D01*
X125312438Y-75824586D01*
X125312436Y-75824596D01*
X125291841Y-76059999D01*
X125291841Y-76060000D01*
X125312436Y-76295403D01*
X125312438Y-76295413D01*
X125373594Y-76523655D01*
X125373596Y-76523659D01*
X125373597Y-76523663D01*
X125463964Y-76717455D01*
X125473465Y-76737830D01*
X125473467Y-76737834D01*
X125539872Y-76832669D01*
X125609001Y-76931396D01*
X125609006Y-76931402D01*
X125776097Y-77098493D01*
X125776103Y-77098498D01*
X125961658Y-77228425D01*
X126005283Y-77283002D01*
X126012477Y-77352500D01*
X125980954Y-77414855D01*
X125961658Y-77431575D01*
X125776097Y-77561505D01*
X125609005Y-77728597D01*
X125473465Y-77922169D01*
X125473464Y-77922171D01*
X125373598Y-78136335D01*
X125373594Y-78136344D01*
X125312438Y-78364586D01*
X125312436Y-78364596D01*
X125291841Y-78599999D01*
X125291841Y-78600000D01*
X125312436Y-78835403D01*
X125312438Y-78835413D01*
X125373594Y-79063655D01*
X125373596Y-79063659D01*
X125373597Y-79063663D01*
X125453504Y-79235023D01*
X125473465Y-79277830D01*
X125473467Y-79277834D01*
X125566257Y-79410351D01*
X125609001Y-79471396D01*
X125609006Y-79471402D01*
X125776097Y-79638493D01*
X125776103Y-79638498D01*
X125961658Y-79768425D01*
X126005283Y-79823002D01*
X126012477Y-79892500D01*
X125980954Y-79954855D01*
X125961658Y-79971575D01*
X125776097Y-80101505D01*
X125609005Y-80268597D01*
X125473465Y-80462169D01*
X125473464Y-80462171D01*
X125373598Y-80676335D01*
X125373594Y-80676344D01*
X125312438Y-80904586D01*
X125312436Y-80904596D01*
X125291841Y-81139999D01*
X125291841Y-81140000D01*
X125312436Y-81375403D01*
X125312438Y-81375413D01*
X125373594Y-81603655D01*
X125373596Y-81603659D01*
X125373597Y-81603663D01*
X125453504Y-81775023D01*
X125473465Y-81817830D01*
X125473467Y-81817834D01*
X125545005Y-81920000D01*
X125609001Y-82011396D01*
X125609006Y-82011402D01*
X125776097Y-82178493D01*
X125776103Y-82178498D01*
X125961658Y-82308425D01*
X126005283Y-82363002D01*
X126012477Y-82432500D01*
X125980954Y-82494855D01*
X125961658Y-82511575D01*
X125776097Y-82641505D01*
X125609005Y-82808597D01*
X125473465Y-83002169D01*
X125473464Y-83002171D01*
X125373598Y-83216335D01*
X125373594Y-83216344D01*
X125312438Y-83444586D01*
X125312436Y-83444596D01*
X125291841Y-83679999D01*
X125291841Y-83680000D01*
X122929236Y-83680000D01*
X118493790Y-79244555D01*
X118493788Y-79244552D01*
X118374917Y-79125681D01*
X118374916Y-79125680D01*
X118285254Y-79073914D01*
X118285253Y-79073913D01*
X118237990Y-79046625D01*
X118237989Y-79046624D01*
X118225463Y-79043267D01*
X118085257Y-79005699D01*
X117927143Y-79005699D01*
X117919547Y-79005699D01*
X117919531Y-79005700D01*
X116122542Y-79005700D01*
X116055503Y-78986015D01*
X116009748Y-78933211D01*
X115999322Y-78867818D01*
X116005565Y-78812405D01*
X116005565Y-78812396D01*
X115985369Y-78633150D01*
X115985368Y-78633145D01*
X115940170Y-78503977D01*
X115925789Y-78462878D01*
X115894903Y-78413724D01*
X115829815Y-78310137D01*
X115702262Y-78182584D01*
X115702256Y-78182579D01*
X115586571Y-78109889D01*
X115540280Y-78057555D01*
X115529632Y-77988501D01*
X115558007Y-77924653D01*
X115564838Y-77917239D01*
X115679816Y-77802262D01*
X115775789Y-77649522D01*
X115835368Y-77479255D01*
X115839959Y-77438497D01*
X115867025Y-77374085D01*
X115922226Y-77335339D01*
X115949522Y-77325789D01*
X116102262Y-77229816D01*
X116229816Y-77102262D01*
X116325789Y-76949522D01*
X116385368Y-76779255D01*
X116390035Y-76737834D01*
X116405565Y-76600003D01*
X116405565Y-76599996D01*
X116385369Y-76420750D01*
X116385368Y-76420745D01*
X116341512Y-76295413D01*
X116325789Y-76250478D01*
X116317622Y-76237481D01*
X116229815Y-76097737D01*
X116102262Y-75970184D01*
X115949523Y-75874211D01*
X115779254Y-75814631D01*
X115779249Y-75814630D01*
X115600004Y-75794435D01*
X115599996Y-75794435D01*
X115420750Y-75814630D01*
X115420745Y-75814631D01*
X115250477Y-75874211D01*
X115164724Y-75928094D01*
X115098752Y-75947100D01*
X112335693Y-75947100D01*
X112250850Y-75963977D01*
X112219646Y-75970184D01*
X112209556Y-75972191D01*
X112209555Y-75972191D01*
X112090737Y-76021407D01*
X111983795Y-76092862D01*
X104535662Y-83540995D01*
X104464207Y-83647937D01*
X104414991Y-83766755D01*
X104414989Y-83766761D01*
X104389900Y-83892892D01*
X104389900Y-83892895D01*
X104389900Y-89943634D01*
X104389900Y-89943636D01*
X104389899Y-89943636D01*
X104403637Y-90012694D01*
X104403637Y-90012695D01*
X104414989Y-90069766D01*
X104414990Y-90069770D01*
X104414991Y-90069773D01*
X104426357Y-90097213D01*
X104454282Y-90164631D01*
X104464208Y-90188593D01*
X104535659Y-90295529D01*
X104535662Y-90295533D01*
X104535663Y-90295534D01*
X110710781Y-96470650D01*
X110744266Y-96531973D01*
X110747100Y-96558331D01*
X110747100Y-106815660D01*
X110727415Y-106882699D01*
X110674611Y-106928454D01*
X110605453Y-106938398D01*
X110541897Y-106909373D01*
X110535419Y-106903341D01*
X110452262Y-106820184D01*
X110299523Y-106724211D01*
X110129254Y-106664631D01*
X110129249Y-106664630D01*
X109950004Y-106644435D01*
X109949996Y-106644435D01*
X109770750Y-106664630D01*
X109770737Y-106664633D01*
X109600476Y-106724210D01*
X109597548Y-106725621D01*
X109595467Y-106725963D01*
X109593906Y-106726510D01*
X109593810Y-106726236D01*
X109528606Y-106736971D01*
X109489954Y-106725621D01*
X109487033Y-106724214D01*
X109316755Y-106664631D01*
X109316750Y-106664630D01*
X109137505Y-106644435D01*
X109137497Y-106644435D01*
X108958251Y-106664630D01*
X108958246Y-106664631D01*
X108787977Y-106724211D01*
X108635238Y-106820184D01*
X108507685Y-106947737D01*
X108411712Y-107100476D01*
X108352132Y-107270745D01*
X108352131Y-107270750D01*
X108331936Y-107449996D01*
X108331936Y-107450003D01*
X108352131Y-107629249D01*
X108352132Y-107629254D01*
X108411712Y-107799523D01*
X108496671Y-107934733D01*
X108507685Y-107952262D01*
X108635239Y-108079816D01*
X108698340Y-108119465D01*
X108784757Y-108173765D01*
X108787979Y-108175789D01*
X108942882Y-108229992D01*
X108958246Y-108235368D01*
X108958251Y-108235369D01*
X109137497Y-108255565D01*
X109137501Y-108255565D01*
X109137505Y-108255565D01*
X109316750Y-108235369D01*
X109316752Y-108235368D01*
X109316756Y-108235368D01*
X109316759Y-108235366D01*
X109316763Y-108235366D01*
X109406878Y-108203832D01*
X109487023Y-108175789D01*
X109487029Y-108175785D01*
X109489939Y-108174384D01*
X109492016Y-108174041D01*
X109493596Y-108173489D01*
X109493692Y-108173765D01*
X109558879Y-108163025D01*
X109597567Y-108174386D01*
X109600471Y-108175785D01*
X109600478Y-108175789D01*
X109755381Y-108229992D01*
X109770745Y-108235368D01*
X109770750Y-108235369D01*
X109949996Y-108255565D01*
X109950000Y-108255565D01*
X109950004Y-108255565D01*
X110129249Y-108235369D01*
X110129252Y-108235368D01*
X110129255Y-108235368D01*
X110299522Y-108175789D01*
X110452262Y-108079816D01*
X110535419Y-107996659D01*
X110596742Y-107963174D01*
X110666434Y-107968158D01*
X110722367Y-108010030D01*
X110746784Y-108075494D01*
X110747100Y-108084340D01*
X110747100Y-142664305D01*
X110747100Y-142664307D01*
X110747099Y-142664307D01*
X110772189Y-142790438D01*
X110772191Y-142790444D01*
X110821407Y-142909262D01*
X110892862Y-143016204D01*
X110892863Y-143016205D01*
X112148478Y-144271819D01*
X112181963Y-144333142D01*
X112176979Y-144402834D01*
X112135107Y-144458767D01*
X112069643Y-144483184D01*
X112060797Y-144483500D01*
X106698692Y-144483500D01*
X106631653Y-144463815D01*
X106585898Y-144411011D01*
X106577075Y-144383692D01*
X106562052Y-144308170D01*
X106562051Y-144308169D01*
X106562051Y-144308165D01*
X106544019Y-144264631D01*
X106486635Y-144126092D01*
X106486628Y-144126079D01*
X106377139Y-143962218D01*
X106377136Y-143962214D01*
X106237785Y-143822863D01*
X106237781Y-143822860D01*
X106073920Y-143713371D01*
X106073907Y-143713364D01*
X105891839Y-143637950D01*
X105891829Y-143637947D01*
X105698543Y-143599500D01*
X105698541Y-143599500D01*
X104498541Y-143599500D01*
X104301459Y-143599500D01*
X104301457Y-143599500D01*
X104108170Y-143637947D01*
X104108160Y-143637950D01*
X103926092Y-143713364D01*
X103926079Y-143713371D01*
X103762218Y-143822860D01*
X103762214Y-143822863D01*
X103622863Y-143962214D01*
X103622860Y-143962218D01*
X103513371Y-144126079D01*
X103513364Y-144126092D01*
X103437950Y-144308160D01*
X103437947Y-144308170D01*
X103399500Y-144501456D01*
X103399500Y-144501459D01*
X103399500Y-145498541D01*
X103399500Y-145498543D01*
X103399499Y-145498543D01*
X95500500Y-145498543D01*
X95500500Y-140700003D01*
X107444435Y-140700003D01*
X107464630Y-140879249D01*
X107464631Y-140879254D01*
X107524211Y-141049523D01*
X107588141Y-141151266D01*
X107620184Y-141202262D01*
X107747738Y-141329816D01*
X107824108Y-141377802D01*
X107900479Y-141425790D01*
X107935772Y-141438139D01*
X107992549Y-141478860D01*
X108011860Y-141514225D01*
X108024211Y-141549523D01*
X108024212Y-141549524D01*
X108087347Y-141650003D01*
X108120184Y-141702262D01*
X108247738Y-141829816D01*
X108400478Y-141925789D01*
X108495021Y-141958871D01*
X108570745Y-141985368D01*
X108570750Y-141985369D01*
X108749996Y-142005565D01*
X108750000Y-142005565D01*
X108750004Y-142005565D01*
X108929249Y-141985369D01*
X108929252Y-141985368D01*
X108929255Y-141985368D01*
X109099522Y-141925789D01*
X109252262Y-141829816D01*
X109379816Y-141702262D01*
X109475789Y-141549522D01*
X109535368Y-141379255D01*
X109535369Y-141379249D01*
X109555565Y-141200003D01*
X109555565Y-141199996D01*
X109535369Y-141020750D01*
X109535368Y-141020745D01*
X109508871Y-140945022D01*
X109475789Y-140850478D01*
X109379816Y-140697738D01*
X109252262Y-140570184D01*
X109209028Y-140543018D01*
X109099524Y-140474212D01*
X109099523Y-140474211D01*
X109079084Y-140467059D01*
X109064224Y-140461859D01*
X109007450Y-140421138D01*
X108988139Y-140385772D01*
X108975790Y-140350479D01*
X108879815Y-140197737D01*
X108752262Y-140070184D01*
X108599523Y-139974211D01*
X108429254Y-139914631D01*
X108429249Y-139914630D01*
X108250004Y-139894435D01*
X108249996Y-139894435D01*
X108070750Y-139914630D01*
X108070745Y-139914631D01*
X107900476Y-139974211D01*
X107747737Y-140070184D01*
X107620184Y-140197737D01*
X107524211Y-140350476D01*
X107464631Y-140520745D01*
X107464630Y-140520750D01*
X107444435Y-140699996D01*
X107444435Y-140700003D01*
X95500500Y-140700003D01*
X95500500Y-134874500D01*
X95520185Y-134807461D01*
X95572989Y-134761706D01*
X95624500Y-134750500D01*
X107065890Y-134750500D01*
X107065892Y-134750500D01*
X107193186Y-134716392D01*
X107307314Y-134650500D01*
X107400500Y-134557314D01*
X107466392Y-134443186D01*
X107500500Y-134315892D01*
X107500500Y-129184108D01*
X107466392Y-129056814D01*
X107400500Y-128942686D01*
X107307314Y-128849500D01*
X107250250Y-128816554D01*
X107193187Y-128783608D01*
X107129539Y-128766554D01*
X107065892Y-128749500D01*
X107065891Y-128749500D01*
X95624500Y-128749500D01*
X95557461Y-128729815D01*
X95511706Y-128677011D01*
X95500500Y-128625500D01*
X95500500Y-124200003D01*
X105594435Y-124200003D01*
X105614630Y-124379249D01*
X105614631Y-124379254D01*
X105674211Y-124549523D01*
X105770184Y-124702262D01*
X105897738Y-124829816D01*
X106050478Y-124925789D01*
X106220745Y-124985368D01*
X106220750Y-124985369D01*
X106399996Y-125005565D01*
X106400000Y-125005565D01*
X106400004Y-125005565D01*
X106579249Y-124985369D01*
X106579252Y-124985368D01*
X106579255Y-124985368D01*
X106749522Y-124925789D01*
X106834027Y-124872691D01*
X106901264Y-124853690D01*
X106965973Y-124872691D01*
X107050475Y-124925788D01*
X107220745Y-124985368D01*
X107220750Y-124985369D01*
X107399996Y-125005565D01*
X107400000Y-125005565D01*
X107400004Y-125005565D01*
X107579249Y-124985369D01*
X107579252Y-124985368D01*
X107579255Y-124985368D01*
X107749522Y-124925789D01*
X107902262Y-124829816D01*
X108029816Y-124702262D01*
X108125789Y-124549522D01*
X108185368Y-124379255D01*
X108205565Y-124200000D01*
X108185368Y-124020745D01*
X108125789Y-123850478D01*
X108125788Y-123850475D01*
X108072691Y-123765973D01*
X108053690Y-123698736D01*
X108072691Y-123634027D01*
X108125788Y-123549524D01*
X108125789Y-123549522D01*
X108185368Y-123379255D01*
X108190636Y-123332499D01*
X108205565Y-123200003D01*
X108205565Y-123199996D01*
X108185369Y-123020750D01*
X108185368Y-123020745D01*
X108160712Y-122950282D01*
X108125789Y-122850478D01*
X108029816Y-122697738D01*
X107902262Y-122570184D01*
X107800170Y-122506035D01*
X107749523Y-122474211D01*
X107579254Y-122414631D01*
X107579249Y-122414630D01*
X107400004Y-122394435D01*
X107399996Y-122394435D01*
X107220750Y-122414630D01*
X107220737Y-122414633D01*
X107050479Y-122474209D01*
X106965971Y-122527309D01*
X106898734Y-122546309D01*
X106834029Y-122527309D01*
X106749520Y-122474209D01*
X106579262Y-122414633D01*
X106579249Y-122414630D01*
X106400004Y-122394435D01*
X106399996Y-122394435D01*
X106220750Y-122414630D01*
X106220745Y-122414631D01*
X106050476Y-122474211D01*
X105897737Y-122570184D01*
X105770184Y-122697737D01*
X105674211Y-122850476D01*
X105614631Y-123020745D01*
X105614630Y-123020750D01*
X105594435Y-123199996D01*
X105594435Y-123200003D01*
X105614630Y-123379249D01*
X105614633Y-123379262D01*
X105674209Y-123549520D01*
X105727309Y-123634029D01*
X105746309Y-123701266D01*
X105727309Y-123765971D01*
X105674209Y-123850479D01*
X105614633Y-124020737D01*
X105614630Y-124020750D01*
X105594435Y-124199996D01*
X105594435Y-124200003D01*
X95500500Y-124200003D01*
X95500500Y-118304053D01*
X102774500Y-118304053D01*
X102774501Y-118304069D01*
X102814717Y-118609542D01*
X102894464Y-118907162D01*
X103012376Y-119191826D01*
X103012381Y-119191837D01*
X103094601Y-119334244D01*
X103166438Y-119458670D01*
X103166440Y-119458673D01*
X103166441Y-119458674D01*
X103354007Y-119703115D01*
X103354013Y-119703122D01*
X103571877Y-119920986D01*
X103571883Y-119920991D01*
X103816330Y-120108562D01*
X103987830Y-120207578D01*
X104083162Y-120262618D01*
X104083167Y-120262620D01*
X104083170Y-120262622D01*
X104367836Y-120380535D01*
X104665456Y-120460282D01*
X104970940Y-120500500D01*
X104970947Y-120500500D01*
X105279053Y-120500500D01*
X105279060Y-120500500D01*
X105584544Y-120460282D01*
X105882164Y-120380535D01*
X106166830Y-120262622D01*
X106433670Y-120108562D01*
X106678117Y-119920991D01*
X106895991Y-119703117D01*
X107083562Y-119458670D01*
X107237622Y-119191830D01*
X107355535Y-118907164D01*
X107435282Y-118609544D01*
X107475500Y-118304060D01*
X107475500Y-117995940D01*
X107435282Y-117690456D01*
X107355535Y-117392836D01*
X107237622Y-117108170D01*
X107237620Y-117108167D01*
X107237618Y-117108162D01*
X107182578Y-117012830D01*
X107083562Y-116841330D01*
X107006188Y-116740494D01*
X106895992Y-116596884D01*
X106895986Y-116596877D01*
X106678122Y-116379013D01*
X106678115Y-116379007D01*
X106433674Y-116191441D01*
X106433673Y-116191440D01*
X106433670Y-116191438D01*
X106327280Y-116130014D01*
X106166837Y-116037381D01*
X106166826Y-116037376D01*
X105882162Y-115919464D01*
X105584542Y-115839717D01*
X105279069Y-115799501D01*
X105279066Y-115799500D01*
X105279060Y-115799500D01*
X104970940Y-115799500D01*
X104970934Y-115799500D01*
X104970930Y-115799501D01*
X104665457Y-115839717D01*
X104367837Y-115919464D01*
X104083173Y-116037376D01*
X104083162Y-116037381D01*
X103816325Y-116191441D01*
X103571884Y-116379007D01*
X103571877Y-116379013D01*
X103354013Y-116596877D01*
X103354007Y-116596884D01*
X103166441Y-116841325D01*
X103012381Y-117108162D01*
X103012376Y-117108173D01*
X102894464Y-117392837D01*
X102814717Y-117690457D01*
X102774501Y-117995930D01*
X102774500Y-117995946D01*
X102774500Y-118304053D01*
X95500500Y-118304053D01*
X95500500Y-110504053D01*
X102774500Y-110504053D01*
X102774501Y-110504069D01*
X102814717Y-110809542D01*
X102894464Y-111107162D01*
X103012376Y-111391826D01*
X103012381Y-111391837D01*
X103105014Y-111552280D01*
X103166438Y-111658670D01*
X103166440Y-111658673D01*
X103166441Y-111658674D01*
X103354007Y-111903115D01*
X103354013Y-111903122D01*
X103571877Y-112120986D01*
X103571883Y-112120991D01*
X103816330Y-112308562D01*
X103987830Y-112407578D01*
X104083162Y-112462618D01*
X104083167Y-112462620D01*
X104083170Y-112462622D01*
X104367836Y-112580535D01*
X104665456Y-112660282D01*
X104970940Y-112700500D01*
X104970947Y-112700500D01*
X105279053Y-112700500D01*
X105279060Y-112700500D01*
X105584544Y-112660282D01*
X105882164Y-112580535D01*
X106166830Y-112462622D01*
X106433670Y-112308562D01*
X106678117Y-112120991D01*
X106895991Y-111903117D01*
X107083562Y-111658670D01*
X107237622Y-111391830D01*
X107355535Y-111107164D01*
X107435282Y-110809544D01*
X107475500Y-110504060D01*
X107475500Y-110195940D01*
X107435282Y-109890456D01*
X107355535Y-109592836D01*
X107237622Y-109308170D01*
X107237620Y-109308167D01*
X107237618Y-109308162D01*
X107175168Y-109199996D01*
X107083562Y-109041330D01*
X106937116Y-108850478D01*
X106895992Y-108796884D01*
X106895986Y-108796877D01*
X106678122Y-108579013D01*
X106678115Y-108579007D01*
X106433674Y-108391441D01*
X106433673Y-108391440D01*
X106433670Y-108391438D01*
X106327280Y-108330014D01*
X106166837Y-108237381D01*
X106166826Y-108237376D01*
X105882162Y-108119464D01*
X105584542Y-108039717D01*
X105279069Y-107999501D01*
X105279066Y-107999500D01*
X105279060Y-107999500D01*
X104970940Y-107999500D01*
X104970934Y-107999500D01*
X104970930Y-107999501D01*
X104665457Y-108039717D01*
X104367837Y-108119464D01*
X104083173Y-108237376D01*
X104083162Y-108237381D01*
X103816325Y-108391441D01*
X103571884Y-108579007D01*
X103571877Y-108579013D01*
X103354013Y-108796877D01*
X103354007Y-108796884D01*
X103166441Y-109041325D01*
X103012381Y-109308162D01*
X103012376Y-109308173D01*
X102894464Y-109592837D01*
X102814717Y-109890457D01*
X102774501Y-110195930D01*
X102774500Y-110195946D01*
X102774500Y-110504053D01*
X95500500Y-110504053D01*
X95500500Y-101300003D01*
X104294435Y-101300003D01*
X104314630Y-101479249D01*
X104314631Y-101479254D01*
X104374211Y-101649523D01*
X104432525Y-101742328D01*
X104470184Y-101802262D01*
X104597738Y-101929816D01*
X104688080Y-101986582D01*
X104711470Y-102001279D01*
X104750478Y-102025789D01*
X104920739Y-102085366D01*
X104920745Y-102085368D01*
X104920750Y-102085369D01*
X105099996Y-102105565D01*
X105100000Y-102105565D01*
X105100004Y-102105565D01*
X105279249Y-102085369D01*
X105279251Y-102085368D01*
X105279255Y-102085368D01*
X105279258Y-102085366D01*
X105279262Y-102085366D01*
X105345840Y-102062068D01*
X105449522Y-102025789D01*
X105459028Y-102019815D01*
X105526263Y-102000815D01*
X105590971Y-102019815D01*
X105600478Y-102025789D01*
X105652318Y-102043928D01*
X105770737Y-102085366D01*
X105770743Y-102085367D01*
X105770745Y-102085368D01*
X105770746Y-102085368D01*
X105770750Y-102085369D01*
X105949996Y-102105565D01*
X105950000Y-102105565D01*
X105950004Y-102105565D01*
X106129249Y-102085369D01*
X106129252Y-102085368D01*
X106129255Y-102085368D01*
X106299522Y-102025789D01*
X106452262Y-101929816D01*
X106579816Y-101802262D01*
X106675789Y-101649522D01*
X106735368Y-101479255D01*
X106735369Y-101479249D01*
X106755565Y-101300003D01*
X106755565Y-101299996D01*
X106735369Y-101120750D01*
X106735368Y-101120745D01*
X106675788Y-100950476D01*
X106579815Y-100797737D01*
X106452262Y-100670184D01*
X106299523Y-100574211D01*
X106129254Y-100514631D01*
X106129249Y-100514630D01*
X105950004Y-100494435D01*
X105949996Y-100494435D01*
X105770750Y-100514630D01*
X105770745Y-100514631D01*
X105600474Y-100574212D01*
X105590968Y-100580185D01*
X105523731Y-100599183D01*
X105459032Y-100580185D01*
X105449525Y-100574212D01*
X105279254Y-100514631D01*
X105279249Y-100514630D01*
X105100004Y-100494435D01*
X105099996Y-100494435D01*
X104920750Y-100514630D01*
X104920745Y-100514631D01*
X104750476Y-100574211D01*
X104597737Y-100670184D01*
X104470184Y-100797737D01*
X104374211Y-100950476D01*
X104314631Y-101120745D01*
X104314630Y-101120750D01*
X104294435Y-101299996D01*
X104294435Y-101300003D01*
X95500500Y-101300003D01*
X95500500Y-99874500D01*
X95520185Y-99807461D01*
X95572989Y-99761706D01*
X95624500Y-99750500D01*
X107065890Y-99750500D01*
X107065892Y-99750500D01*
X107193186Y-99716392D01*
X107307314Y-99650500D01*
X107400500Y-99557314D01*
X107466392Y-99443186D01*
X107500500Y-99315892D01*
X107500500Y-94184108D01*
X107466392Y-94056814D01*
X107400500Y-93942686D01*
X107307314Y-93849500D01*
X107250250Y-93816554D01*
X107193187Y-93783608D01*
X107129539Y-93766554D01*
X107065892Y-93749500D01*
X107065891Y-93749500D01*
X95624500Y-93749500D01*
X95557461Y-93729815D01*
X95511706Y-93677011D01*
X95500500Y-93625500D01*
X95500500Y-90181940D01*
X95520185Y-90114901D01*
X95572989Y-90069146D01*
X95642147Y-90059202D01*
X95705703Y-90088227D01*
X95712181Y-90094259D01*
X95797738Y-90179816D01*
X95950478Y-90275789D01*
X96054015Y-90312018D01*
X96120745Y-90335368D01*
X96120750Y-90335369D01*
X96299996Y-90355565D01*
X96300000Y-90355565D01*
X96300004Y-90355565D01*
X96479249Y-90335369D01*
X96479252Y-90335368D01*
X96479255Y-90335368D01*
X96649522Y-90275789D01*
X96802262Y-90179816D01*
X96929816Y-90052262D01*
X97025789Y-89899522D01*
X97085368Y-89729255D01*
X97085369Y-89729249D01*
X97105565Y-89550003D01*
X97105565Y-89549996D01*
X97085369Y-89370750D01*
X97085368Y-89370745D01*
X97025788Y-89200475D01*
X96972691Y-89115973D01*
X96953690Y-89048736D01*
X96972691Y-88984027D01*
X97025788Y-88899524D01*
X97043292Y-88849500D01*
X97085368Y-88729255D01*
X97085369Y-88729249D01*
X97105565Y-88550003D01*
X97105565Y-88549996D01*
X97085369Y-88370750D01*
X97085368Y-88370745D01*
X97045929Y-88258034D01*
X97025789Y-88200478D01*
X96929816Y-88047738D01*
X96802262Y-87920184D01*
X96746883Y-87885387D01*
X96649523Y-87824211D01*
X96479254Y-87764631D01*
X96479249Y-87764630D01*
X96300004Y-87744435D01*
X96299996Y-87744435D01*
X96120750Y-87764630D01*
X96120745Y-87764631D01*
X95950476Y-87824211D01*
X95797737Y-87920184D01*
X95712181Y-88005741D01*
X95650858Y-88039226D01*
X95581166Y-88034242D01*
X95525233Y-87992370D01*
X95500816Y-87926906D01*
X95500500Y-87918060D01*
X95500500Y-84570000D01*
X97346841Y-84570000D01*
X97367436Y-84805403D01*
X97367438Y-84805413D01*
X97428594Y-85033655D01*
X97428596Y-85033659D01*
X97428597Y-85033663D01*
X97528422Y-85247737D01*
X97528465Y-85247830D01*
X97528467Y-85247834D01*
X97610249Y-85364630D01*
X97664005Y-85441401D01*
X97831099Y-85608495D01*
X97887144Y-85647738D01*
X98024665Y-85744032D01*
X98024667Y-85744033D01*
X98024670Y-85744035D01*
X98238837Y-85843903D01*
X98467092Y-85905063D01*
X98655418Y-85921539D01*
X98702499Y-85925659D01*
X98702500Y-85925659D01*
X98702501Y-85925659D01*
X98741734Y-85922226D01*
X98937908Y-85905063D01*
X99166163Y-85843903D01*
X99367532Y-85750003D01*
X100494435Y-85750003D01*
X100514630Y-85929249D01*
X100514631Y-85929254D01*
X100574211Y-86099523D01*
X100605926Y-86149996D01*
X100670184Y-86252262D01*
X100797738Y-86379816D01*
X100950478Y-86475789D01*
X101018309Y-86499524D01*
X101120745Y-86535368D01*
X101120750Y-86535369D01*
X101299996Y-86555565D01*
X101300000Y-86555565D01*
X101300004Y-86555565D01*
X101479249Y-86535369D01*
X101479252Y-86535368D01*
X101479255Y-86535368D01*
X101649522Y-86475789D01*
X101759028Y-86406981D01*
X101826264Y-86387981D01*
X101890971Y-86406981D01*
X101923776Y-86427594D01*
X102000475Y-86475788D01*
X102170745Y-86535368D01*
X102170750Y-86535369D01*
X102349996Y-86555565D01*
X102350000Y-86555565D01*
X102350004Y-86555565D01*
X102529249Y-86535369D01*
X102529252Y-86535368D01*
X102529255Y-86535368D01*
X102699522Y-86475789D01*
X102852262Y-86379816D01*
X102979816Y-86252262D01*
X103075789Y-86099522D01*
X103135368Y-85929255D01*
X103138094Y-85905061D01*
X103155565Y-85750003D01*
X103155565Y-85749996D01*
X103135369Y-85570750D01*
X103135368Y-85570745D01*
X103109322Y-85496309D01*
X103075789Y-85400478D01*
X103053265Y-85364632D01*
X102979876Y-85247834D01*
X102979816Y-85247738D01*
X102852262Y-85120184D01*
X102809028Y-85093018D01*
X102699523Y-85024211D01*
X102529254Y-84964631D01*
X102529249Y-84964630D01*
X102350004Y-84944435D01*
X102349996Y-84944435D01*
X102170750Y-84964630D01*
X102170745Y-84964631D01*
X102000476Y-85024211D01*
X101890972Y-85093018D01*
X101823735Y-85112018D01*
X101759028Y-85093018D01*
X101649523Y-85024211D01*
X101479254Y-84964631D01*
X101479249Y-84964630D01*
X101300004Y-84944435D01*
X101299996Y-84944435D01*
X101120750Y-84964630D01*
X101120745Y-84964631D01*
X100950476Y-85024211D01*
X100797737Y-85120184D01*
X100670184Y-85247737D01*
X100574211Y-85400476D01*
X100514631Y-85570745D01*
X100514630Y-85570750D01*
X100494435Y-85749996D01*
X100494435Y-85750003D01*
X99367532Y-85750003D01*
X99380330Y-85744035D01*
X99573901Y-85608495D01*
X99740995Y-85441401D01*
X99876535Y-85247830D01*
X99976403Y-85033663D01*
X100037563Y-84805408D01*
X100058159Y-84570000D01*
X100037563Y-84334592D01*
X99976403Y-84106337D01*
X99876535Y-83892171D01*
X99788723Y-83766761D01*
X99740994Y-83698597D01*
X99573902Y-83531506D01*
X99573896Y-83531501D01*
X99388342Y-83401575D01*
X99344717Y-83346998D01*
X99337523Y-83277500D01*
X99369046Y-83215145D01*
X99388342Y-83198425D01*
X99436078Y-83165000D01*
X99573901Y-83068495D01*
X99740995Y-82901401D01*
X99876535Y-82707830D01*
X99976403Y-82493663D01*
X100037563Y-82265408D01*
X100058159Y-82030000D01*
X100037563Y-81794592D01*
X99976403Y-81566337D01*
X99876535Y-81352171D01*
X99865494Y-81336402D01*
X99740994Y-81158597D01*
X99573902Y-80991506D01*
X99573896Y-80991501D01*
X99388342Y-80861575D01*
X99344717Y-80806998D01*
X99337523Y-80737500D01*
X99369046Y-80675145D01*
X99388342Y-80658425D01*
X99434618Y-80626022D01*
X99573901Y-80528495D01*
X99740995Y-80361401D01*
X99876535Y-80167830D01*
X99976403Y-79953663D01*
X100037563Y-79725408D01*
X100058159Y-79490000D01*
X100037563Y-79254592D01*
X99976403Y-79026337D01*
X99876535Y-78812171D01*
X99862562Y-78792216D01*
X99740996Y-78618600D01*
X99722395Y-78599999D01*
X99619067Y-78496671D01*
X99585584Y-78435351D01*
X99590568Y-78365659D01*
X99632439Y-78309725D01*
X99663415Y-78292810D01*
X99794831Y-78243796D01*
X99910046Y-78157546D01*
X99996296Y-78042331D01*
X100046591Y-77907483D01*
X100053000Y-77847873D01*
X100052999Y-76052128D01*
X100046591Y-75992517D01*
X100038261Y-75970184D01*
X99996297Y-75857671D01*
X99996293Y-75857664D01*
X99910047Y-75742455D01*
X99910044Y-75742452D01*
X99794835Y-75656206D01*
X99794828Y-75656202D01*
X99659982Y-75605908D01*
X99659983Y-75605908D01*
X99600383Y-75599501D01*
X99600381Y-75599500D01*
X99600373Y-75599500D01*
X99600364Y-75599500D01*
X97804629Y-75599500D01*
X97804623Y-75599501D01*
X97745016Y-75605908D01*
X97610171Y-75656202D01*
X97610164Y-75656206D01*
X97494955Y-75742452D01*
X97494952Y-75742455D01*
X97408706Y-75857664D01*
X97408702Y-75857671D01*
X97358408Y-75992517D01*
X97352001Y-76052116D01*
X97352001Y-76052123D01*
X97352000Y-76052135D01*
X97352000Y-77847870D01*
X97352001Y-77847876D01*
X97358408Y-77907483D01*
X97408702Y-78042328D01*
X97408706Y-78042335D01*
X97494952Y-78157544D01*
X97494955Y-78157547D01*
X97610164Y-78243793D01*
X97610171Y-78243797D01*
X97741581Y-78292810D01*
X97797515Y-78334681D01*
X97821932Y-78400145D01*
X97807080Y-78468418D01*
X97785930Y-78496673D01*
X97664003Y-78618600D01*
X97528465Y-78812169D01*
X97528464Y-78812171D01*
X97428598Y-79026335D01*
X97428594Y-79026344D01*
X97367438Y-79254586D01*
X97367436Y-79254596D01*
X97346841Y-79489999D01*
X97346841Y-79490000D01*
X97367436Y-79725403D01*
X97367438Y-79725413D01*
X97428594Y-79953655D01*
X97428596Y-79953659D01*
X97428597Y-79953663D01*
X97442758Y-79984031D01*
X97528465Y-80167830D01*
X97528467Y-80167834D01*
X97664001Y-80361395D01*
X97664006Y-80361402D01*
X97831097Y-80528493D01*
X97831103Y-80528498D01*
X98016658Y-80658425D01*
X98060283Y-80713002D01*
X98067477Y-80782500D01*
X98035954Y-80844855D01*
X98016658Y-80861575D01*
X97831097Y-80991505D01*
X97664005Y-81158597D01*
X97528465Y-81352169D01*
X97528464Y-81352171D01*
X97428598Y-81566335D01*
X97428594Y-81566344D01*
X97367438Y-81794586D01*
X97367436Y-81794596D01*
X97346841Y-82029999D01*
X97346841Y-82030000D01*
X97367436Y-82265403D01*
X97367438Y-82265413D01*
X97428594Y-82493655D01*
X97428596Y-82493659D01*
X97428597Y-82493663D01*
X97429153Y-82494855D01*
X97528465Y-82707830D01*
X97528467Y-82707834D01*
X97599023Y-82808597D01*
X97656534Y-82890732D01*
X97664001Y-82901395D01*
X97664006Y-82901402D01*
X97831097Y-83068493D01*
X97831103Y-83068498D01*
X98016658Y-83198425D01*
X98060283Y-83253002D01*
X98067477Y-83322500D01*
X98035954Y-83384855D01*
X98016658Y-83401575D01*
X97831097Y-83531505D01*
X97664005Y-83698597D01*
X97528465Y-83892169D01*
X97528464Y-83892171D01*
X97428598Y-84106335D01*
X97428594Y-84106344D01*
X97367438Y-84334586D01*
X97367436Y-84334596D01*
X97346841Y-84569999D01*
X97346841Y-84570000D01*
X95500500Y-84570000D01*
X95500500Y-74400003D01*
X107394435Y-74400003D01*
X107414630Y-74579249D01*
X107414631Y-74579254D01*
X107474211Y-74749523D01*
X107563469Y-74891575D01*
X107570184Y-74902262D01*
X107697738Y-75029816D01*
X107850478Y-75125789D01*
X108017144Y-75184108D01*
X108020745Y-75185368D01*
X108020750Y-75185369D01*
X108199996Y-75205565D01*
X108200000Y-75205565D01*
X108200004Y-75205565D01*
X108379249Y-75185369D01*
X108379252Y-75185368D01*
X108379255Y-75185368D01*
X108549522Y-75125789D01*
X108635276Y-75071905D01*
X108701248Y-75052900D01*
X110664307Y-75052900D01*
X110780359Y-75029815D01*
X110790444Y-75027809D01*
X110909264Y-74978592D01*
X110914418Y-74975148D01*
X110924794Y-74968216D01*
X110988292Y-74925788D01*
X111016200Y-74907141D01*
X111021079Y-74902262D01*
X111034123Y-74889219D01*
X111095446Y-74855734D01*
X111121804Y-74852900D01*
X116298752Y-74852900D01*
X116364723Y-74871905D01*
X116450478Y-74925789D01*
X116607473Y-74980724D01*
X116620745Y-74985368D01*
X116620750Y-74985369D01*
X116799996Y-75005565D01*
X116800000Y-75005565D01*
X116800004Y-75005565D01*
X116979249Y-74985369D01*
X116979252Y-74985368D01*
X116979255Y-74985368D01*
X117149522Y-74925789D01*
X117302262Y-74829816D01*
X117429816Y-74702262D01*
X117525789Y-74549522D01*
X117585368Y-74379255D01*
X117605565Y-74200000D01*
X117588718Y-74050478D01*
X117585369Y-74020750D01*
X117585368Y-74020745D01*
X117542326Y-73897738D01*
X117525789Y-73850478D01*
X117429816Y-73697738D01*
X117302262Y-73570184D01*
X117265524Y-73547100D01*
X117149523Y-73474211D01*
X116979254Y-73414631D01*
X116979249Y-73414630D01*
X116800004Y-73394435D01*
X116799996Y-73394435D01*
X116620750Y-73414630D01*
X116620745Y-73414631D01*
X116450477Y-73474211D01*
X116364724Y-73528094D01*
X116298752Y-73547100D01*
X110735693Y-73547100D01*
X110609561Y-73572189D01*
X110609555Y-73572191D01*
X110507095Y-73614632D01*
X110490740Y-73621406D01*
X110490730Y-73621411D01*
X110383798Y-73692860D01*
X110383795Y-73692863D01*
X110365878Y-73710781D01*
X110304555Y-73744266D01*
X110278197Y-73747100D01*
X108701248Y-73747100D01*
X108635276Y-73728094D01*
X108549522Y-73674211D01*
X108379254Y-73614631D01*
X108379249Y-73614630D01*
X108200004Y-73594435D01*
X108199996Y-73594435D01*
X108020750Y-73614630D01*
X108020745Y-73614631D01*
X107850476Y-73674211D01*
X107697737Y-73770184D01*
X107570184Y-73897737D01*
X107474211Y-74050476D01*
X107414631Y-74220745D01*
X107414630Y-74220750D01*
X107394435Y-74399996D01*
X107394435Y-74400003D01*
X95500500Y-74400003D01*
X95500500Y-71070000D01*
X133644341Y-71070000D01*
X133664936Y-71305403D01*
X133664938Y-71305413D01*
X133726094Y-71533655D01*
X133726096Y-71533659D01*
X133726097Y-71533663D01*
X133757717Y-71601472D01*
X133825965Y-71747830D01*
X133825967Y-71747834D01*
X133934281Y-71902521D01*
X133961501Y-71941396D01*
X133961506Y-71941402D01*
X134083430Y-72063326D01*
X134116915Y-72124649D01*
X134111931Y-72194341D01*
X134070059Y-72250274D01*
X134039083Y-72267189D01*
X133907669Y-72316203D01*
X133907664Y-72316206D01*
X133792455Y-72402452D01*
X133792452Y-72402455D01*
X133706206Y-72517664D01*
X133706202Y-72517671D01*
X133655908Y-72652517D01*
X133649501Y-72712116D01*
X133649501Y-72712123D01*
X133649500Y-72712135D01*
X133649500Y-74507870D01*
X133649501Y-74507876D01*
X133655908Y-74567483D01*
X133706202Y-74702328D01*
X133706206Y-74702335D01*
X133792452Y-74817544D01*
X133792455Y-74817547D01*
X133907664Y-74903793D01*
X133907671Y-74903797D01*
X134042517Y-74954091D01*
X134042516Y-74954091D01*
X134049444Y-74954835D01*
X134102127Y-74960500D01*
X135897872Y-74960499D01*
X135957483Y-74954091D01*
X136092331Y-74903796D01*
X136207546Y-74817546D01*
X136293796Y-74702331D01*
X136344091Y-74567483D01*
X136350500Y-74507873D01*
X136350499Y-72712128D01*
X136344091Y-72652517D01*
X136344057Y-72652427D01*
X136302125Y-72540001D01*
X147284838Y-72540001D01*
X147303450Y-72752741D01*
X147303452Y-72752752D01*
X147358721Y-72959022D01*
X147358723Y-72959026D01*
X147358724Y-72959030D01*
X147401171Y-73050058D01*
X147448977Y-73152578D01*
X147571472Y-73327521D01*
X147722478Y-73478527D01*
X147722481Y-73478529D01*
X147897419Y-73601021D01*
X147897421Y-73601022D01*
X147897420Y-73601022D01*
X147941145Y-73621411D01*
X148090970Y-73691276D01*
X148090976Y-73691277D01*
X148090977Y-73691278D01*
X148140627Y-73704581D01*
X148297253Y-73746549D01*
X148449215Y-73759844D01*
X148509998Y-73765162D01*
X148510000Y-73765162D01*
X148510002Y-73765162D01*
X148563186Y-73760508D01*
X148722747Y-73746549D01*
X148929030Y-73691276D01*
X149122581Y-73601021D01*
X149297519Y-73478529D01*
X149448529Y-73327519D01*
X149571021Y-73152581D01*
X149661276Y-72959030D01*
X149716549Y-72752747D01*
X149735162Y-72540000D01*
X149733208Y-72517671D01*
X149716549Y-72327258D01*
X149716549Y-72327253D01*
X149661276Y-72120970D01*
X149571021Y-71927419D01*
X149448529Y-71752481D01*
X149448527Y-71752478D01*
X149297521Y-71601472D01*
X149122578Y-71478977D01*
X149122579Y-71478977D01*
X148993547Y-71418809D01*
X148929030Y-71388724D01*
X148929026Y-71388723D01*
X148929022Y-71388721D01*
X148722752Y-71333452D01*
X148722748Y-71333451D01*
X148722747Y-71333451D01*
X148722746Y-71333450D01*
X148722741Y-71333450D01*
X148510002Y-71314838D01*
X148509998Y-71314838D01*
X148297258Y-71333450D01*
X148297247Y-71333452D01*
X148090977Y-71388721D01*
X148090968Y-71388725D01*
X147897421Y-71478977D01*
X147722478Y-71601472D01*
X147571472Y-71752478D01*
X147448977Y-71927421D01*
X147358725Y-72120968D01*
X147358721Y-72120977D01*
X147303452Y-72327247D01*
X147303450Y-72327258D01*
X147284838Y-72539998D01*
X147284838Y-72540001D01*
X136302125Y-72540001D01*
X136293797Y-72517671D01*
X136293793Y-72517664D01*
X136207547Y-72402455D01*
X136207544Y-72402452D01*
X136092335Y-72316206D01*
X136092328Y-72316202D01*
X135960917Y-72267189D01*
X135904983Y-72225318D01*
X135880566Y-72159853D01*
X135895418Y-72091580D01*
X135916563Y-72063332D01*
X136038495Y-71941401D01*
X136174035Y-71747830D01*
X136273903Y-71533663D01*
X136335063Y-71305408D01*
X136355659Y-71070000D01*
X136335063Y-70834592D01*
X136275509Y-70612329D01*
X136273905Y-70606344D01*
X136273904Y-70606343D01*
X136273903Y-70606337D01*
X136174035Y-70392171D01*
X136146995Y-70353553D01*
X136038494Y-70198597D01*
X135871402Y-70031506D01*
X135871395Y-70031501D01*
X135826410Y-70000002D01*
X144745340Y-70000002D01*
X144763944Y-70212654D01*
X144763945Y-70212662D01*
X144819194Y-70418853D01*
X144819197Y-70418859D01*
X144909413Y-70612329D01*
X144948415Y-70668030D01*
X145570000Y-70046445D01*
X145570000Y-70052661D01*
X145597259Y-70154394D01*
X145649920Y-70245606D01*
X145724394Y-70320080D01*
X145815606Y-70372741D01*
X145917339Y-70400000D01*
X145923553Y-70400000D01*
X145301968Y-71021584D01*
X145357663Y-71060582D01*
X145357669Y-71060586D01*
X145551140Y-71150802D01*
X145551146Y-71150805D01*
X145757337Y-71206054D01*
X145757345Y-71206055D01*
X145969998Y-71224660D01*
X145970002Y-71224660D01*
X146182654Y-71206055D01*
X146182662Y-71206054D01*
X146388853Y-71150805D01*
X146388864Y-71150801D01*
X146582325Y-71060589D01*
X146638030Y-71021583D01*
X146016448Y-70400000D01*
X146022661Y-70400000D01*
X146124394Y-70372741D01*
X146215606Y-70320080D01*
X146290080Y-70245606D01*
X146342741Y-70154394D01*
X146370000Y-70052661D01*
X146370000Y-70046446D01*
X146991583Y-70668029D01*
X147030589Y-70612325D01*
X147120801Y-70418864D01*
X147120805Y-70418853D01*
X147176054Y-70212662D01*
X147176055Y-70212654D01*
X147194660Y-70000002D01*
X147194660Y-70000001D01*
X149824838Y-70000001D01*
X149843450Y-70212741D01*
X149843452Y-70212752D01*
X149898721Y-70419022D01*
X149898723Y-70419026D01*
X149898724Y-70419030D01*
X149913055Y-70449762D01*
X149988977Y-70612578D01*
X150111472Y-70787521D01*
X150262478Y-70938527D01*
X150262481Y-70938529D01*
X150437419Y-71061021D01*
X150437421Y-71061022D01*
X150437420Y-71061022D01*
X150456674Y-71070000D01*
X150630970Y-71151276D01*
X150837253Y-71206549D01*
X150989215Y-71219844D01*
X151049998Y-71225162D01*
X151050000Y-71225162D01*
X151050002Y-71225162D01*
X151103186Y-71220508D01*
X151262747Y-71206549D01*
X151469030Y-71151276D01*
X151662581Y-71061021D01*
X151837519Y-70938529D01*
X151988529Y-70787519D01*
X152111021Y-70612581D01*
X152201276Y-70419030D01*
X152256549Y-70212747D01*
X152275162Y-70000000D01*
X152270568Y-69947496D01*
X152261654Y-69845606D01*
X152256549Y-69787253D01*
X152201276Y-69580970D01*
X152111021Y-69387419D01*
X151988529Y-69212481D01*
X151988527Y-69212478D01*
X151837521Y-69061472D01*
X151662578Y-68938977D01*
X151662579Y-68938977D01*
X151533547Y-68878809D01*
X151469030Y-68848724D01*
X151469026Y-68848723D01*
X151469022Y-68848721D01*
X151262752Y-68793452D01*
X151262748Y-68793451D01*
X151262747Y-68793451D01*
X151262746Y-68793450D01*
X151262741Y-68793450D01*
X151050002Y-68774838D01*
X151049998Y-68774838D01*
X150837258Y-68793450D01*
X150837247Y-68793452D01*
X150630977Y-68848721D01*
X150630968Y-68848725D01*
X150437421Y-68938977D01*
X150262478Y-69061472D01*
X150111472Y-69212478D01*
X149988977Y-69387421D01*
X149898725Y-69580968D01*
X149898721Y-69580977D01*
X149843452Y-69787247D01*
X149843450Y-69787258D01*
X149824838Y-69999998D01*
X149824838Y-70000001D01*
X147194660Y-70000001D01*
X147194660Y-69999997D01*
X147176055Y-69787345D01*
X147176054Y-69787337D01*
X147120805Y-69581146D01*
X147120802Y-69581140D01*
X147030586Y-69387669D01*
X147030582Y-69387663D01*
X146991584Y-69331968D01*
X146370000Y-69953552D01*
X146370000Y-69947339D01*
X146342741Y-69845606D01*
X146290080Y-69754394D01*
X146215606Y-69679920D01*
X146124394Y-69627259D01*
X146022661Y-69600000D01*
X146016447Y-69600000D01*
X146638030Y-68978415D01*
X146582329Y-68939413D01*
X146388859Y-68849197D01*
X146388853Y-68849194D01*
X146182662Y-68793945D01*
X146182654Y-68793944D01*
X145970002Y-68775340D01*
X145969998Y-68775340D01*
X145757345Y-68793944D01*
X145757337Y-68793945D01*
X145551146Y-68849194D01*
X145551140Y-68849197D01*
X145357671Y-68939412D01*
X145357669Y-68939413D01*
X145301969Y-68978415D01*
X145301968Y-68978415D01*
X145923554Y-69600000D01*
X145917339Y-69600000D01*
X145815606Y-69627259D01*
X145724394Y-69679920D01*
X145649920Y-69754394D01*
X145597259Y-69845606D01*
X145570000Y-69947339D01*
X145570000Y-69953553D01*
X144948415Y-69331968D01*
X144948415Y-69331969D01*
X144909413Y-69387669D01*
X144909412Y-69387671D01*
X144819197Y-69581140D01*
X144819194Y-69581146D01*
X144763945Y-69787337D01*
X144763944Y-69787345D01*
X144745340Y-69999997D01*
X144745340Y-70000002D01*
X135826410Y-70000002D01*
X135677834Y-69895967D01*
X135677830Y-69895965D01*
X135569835Y-69845606D01*
X135463663Y-69796097D01*
X135463659Y-69796096D01*
X135463655Y-69796094D01*
X135235413Y-69734938D01*
X135235403Y-69734936D01*
X135000001Y-69714341D01*
X134999999Y-69714341D01*
X134764596Y-69734936D01*
X134764586Y-69734938D01*
X134536344Y-69796094D01*
X134536335Y-69796098D01*
X134322171Y-69895964D01*
X134322169Y-69895965D01*
X134128597Y-70031505D01*
X133961505Y-70198597D01*
X133825965Y-70392169D01*
X133825964Y-70392171D01*
X133726098Y-70606335D01*
X133726094Y-70606344D01*
X133664938Y-70834586D01*
X133664936Y-70834596D01*
X133644341Y-71069999D01*
X133644341Y-71070000D01*
X95500500Y-71070000D01*
X95500500Y-69947503D01*
X115744435Y-69947503D01*
X115764630Y-70126749D01*
X115764631Y-70126754D01*
X115824211Y-70297023D01*
X115900766Y-70418859D01*
X115920184Y-70449762D01*
X116047738Y-70577316D01*
X116103461Y-70612329D01*
X116192106Y-70668029D01*
X116200478Y-70673289D01*
X116370745Y-70732868D01*
X116370750Y-70732869D01*
X116549996Y-70753065D01*
X116550000Y-70753065D01*
X116550004Y-70753065D01*
X116729249Y-70732869D01*
X116729252Y-70732868D01*
X116729255Y-70732868D01*
X116899522Y-70673289D01*
X116959030Y-70635897D01*
X117026263Y-70616897D01*
X117090969Y-70635897D01*
X117150478Y-70673289D01*
X117320745Y-70732868D01*
X117320750Y-70732869D01*
X117499996Y-70753065D01*
X117500000Y-70753065D01*
X117500004Y-70753065D01*
X117679249Y-70732869D01*
X117679252Y-70732868D01*
X117679255Y-70732868D01*
X117849522Y-70673289D01*
X118002262Y-70577316D01*
X118129816Y-70449762D01*
X118225789Y-70297022D01*
X118285368Y-70126755D01*
X118285369Y-70126749D01*
X118305565Y-69947503D01*
X118305565Y-69947496D01*
X118285369Y-69768250D01*
X118285368Y-69768245D01*
X118254462Y-69679920D01*
X118225789Y-69597978D01*
X118129816Y-69445238D01*
X118002262Y-69317684D01*
X117975000Y-69300554D01*
X117849523Y-69221711D01*
X117679254Y-69162131D01*
X117679249Y-69162130D01*
X117500004Y-69141935D01*
X117499996Y-69141935D01*
X117320750Y-69162130D01*
X117320745Y-69162131D01*
X117150474Y-69221712D01*
X117090971Y-69259100D01*
X117023734Y-69278100D01*
X116959029Y-69259100D01*
X116899525Y-69221712D01*
X116729254Y-69162131D01*
X116729249Y-69162130D01*
X116550004Y-69141935D01*
X116549996Y-69141935D01*
X116370750Y-69162130D01*
X116370745Y-69162131D01*
X116200476Y-69221711D01*
X116047737Y-69317684D01*
X115920184Y-69445237D01*
X115824211Y-69597976D01*
X115764631Y-69768245D01*
X115764630Y-69768250D01*
X115744435Y-69947496D01*
X115744435Y-69947503D01*
X95500500Y-69947503D01*
X95500500Y-68379500D01*
X95520185Y-68312461D01*
X95572989Y-68266706D01*
X95624500Y-68255500D01*
X153125500Y-68255500D01*
X153192539Y-68275185D01*
G37*
%TD.AperFunction*%
%TD*%
%TA.AperFunction,Conductor*%
%TO.N,GND*%
G36*
X153192539Y-160819685D02*
G01*
X153238294Y-160872489D01*
X153249500Y-160924000D01*
X153249500Y-162625500D01*
X153229815Y-162692539D01*
X153177011Y-162738294D01*
X153125500Y-162749500D01*
X95624500Y-162749500D01*
X95557461Y-162729815D01*
X95511706Y-162677011D01*
X95500500Y-162625500D01*
X95500500Y-160924000D01*
X95520185Y-160856961D01*
X95572989Y-160811206D01*
X95624500Y-160800000D01*
X153125500Y-160800000D01*
X153192539Y-160819685D01*
G37*
%TD.AperFunction*%
%TD*%
M02*
