%TF.GenerationSoftware,KiCad,Pcbnew,8.0.0*%
%TF.CreationDate,2024-10-10T18:55:30+02:00*%
%TF.ProjectId,Profiler energetyczny urz_dze_ IoT,50726f66-696c-4657-9220-656e65726765,rev?*%
%TF.SameCoordinates,Original*%
%TF.FileFunction,Copper,L2,Inr*%
%TF.FilePolarity,Positive*%
%FSLAX46Y46*%
G04 Gerber Fmt 4.6, Leading zero omitted, Abs format (unit mm)*
G04 Created by KiCad (PCBNEW 8.0.0) date 2024-10-10 18:55:30*
%MOMM*%
%LPD*%
G01*
G04 APERTURE LIST*
G04 Aperture macros list*
%AMRoundRect*
0 Rectangle with rounded corners*
0 $1 Rounding radius*
0 $2 $3 $4 $5 $6 $7 $8 $9 X,Y pos of 4 corners*
0 Add a 4 corners polygon primitive as box body*
4,1,4,$2,$3,$4,$5,$6,$7,$8,$9,$2,$3,0*
0 Add four circle primitives for the rounded corners*
1,1,$1+$1,$2,$3*
1,1,$1+$1,$4,$5*
1,1,$1+$1,$6,$7*
1,1,$1+$1,$8,$9*
0 Add four rect primitives between the rounded corners*
20,1,$1+$1,$2,$3,$4,$5,0*
20,1,$1+$1,$4,$5,$6,$7,0*
20,1,$1+$1,$6,$7,$8,$9,0*
20,1,$1+$1,$8,$9,$2,$3,0*%
G04 Aperture macros list end*
%TA.AperFunction,HeatsinkPad*%
%ADD10C,0.500000*%
%TD*%
%TA.AperFunction,ComponentPad*%
%ADD11RoundRect,0.250000X-0.600000X-0.600000X0.600000X-0.600000X0.600000X0.600000X-0.600000X0.600000X0*%
%TD*%
%TA.AperFunction,ComponentPad*%
%ADD12C,1.700000*%
%TD*%
%TA.AperFunction,ComponentPad*%
%ADD13R,1.700000X1.700000*%
%TD*%
%TA.AperFunction,ComponentPad*%
%ADD14O,1.700000X1.700000*%
%TD*%
%TA.AperFunction,ComponentPad*%
%ADD15C,3.500000*%
%TD*%
%TA.AperFunction,ComponentPad*%
%ADD16C,1.440000*%
%TD*%
%TA.AperFunction,ComponentPad*%
%ADD17RoundRect,0.250002X-1.699998X1.699998X-1.699998X-1.699998X1.699998X-1.699998X1.699998X1.699998X0*%
%TD*%
%TA.AperFunction,ComponentPad*%
%ADD18C,3.900000*%
%TD*%
%TA.AperFunction,ComponentPad*%
%ADD19O,2.500000X1.600000*%
%TD*%
%TA.AperFunction,ComponentPad*%
%ADD20O,7.000000X3.500000*%
%TD*%
%TA.AperFunction,ViaPad*%
%ADD21C,0.600000*%
%TD*%
%TA.AperFunction,Conductor*%
%ADD22C,1.000000*%
%TD*%
%TA.AperFunction,Conductor*%
%ADD23C,0.609600*%
%TD*%
%TA.AperFunction,Conductor*%
%ADD24C,2.032000*%
%TD*%
%TA.AperFunction,Conductor*%
%ADD25C,0.457200*%
%TD*%
G04 APERTURE END LIST*
D10*
%TO.N,N/C*%
%TO.C,U4*%
X145437500Y-99250000D03*
X145437500Y-100250000D03*
X145437500Y-101250000D03*
X146837500Y-99250000D03*
X146837500Y-100250000D03*
X146837500Y-101250000D03*
%TD*%
D11*
%TO.N,Net-(U1-~{RESET})*%
%TO.C,U1*%
X126647500Y-73520000D03*
D12*
%TO.N,Net-(U1-SWCLK)*%
X129187500Y-73520000D03*
%TO.N,unconnected-(U1-SWIM-Pad3)*%
X126647500Y-76060000D03*
%TO.N,Net-(U1-SWDIO)*%
X129187500Y-76060000D03*
%TO.N,GND*%
X126647500Y-78600000D03*
X129187500Y-78600000D03*
%TO.N,3.3V*%
X126647500Y-81140000D03*
X129187500Y-81140000D03*
%TO.N,5V*%
X126647500Y-83680000D03*
X129187500Y-83680000D03*
%TD*%
D13*
%TO.N,3.3V*%
%TO.C,J3*%
X135000000Y-73610000D03*
D14*
%TO.N,+3.3V*%
X135000000Y-71070000D03*
%TD*%
D13*
%TO.N,+5V*%
%TO.C,J1*%
X142222500Y-113000000D03*
D12*
%TO.N,unconnected-(J1-D--Pad2)*%
X142222500Y-115500000D03*
%TO.N,unconnected-(J1-D+-Pad3)*%
X144222500Y-115500000D03*
%TO.N,GND*%
X144222500Y-113000000D03*
D15*
X146932500Y-108230000D03*
X146932500Y-120270000D03*
%TD*%
D16*
%TO.N,+2V5*%
%TO.C,RV1*%
X151050000Y-70000000D03*
%TO.N,Net-(U21-S1)*%
X148510000Y-72540000D03*
%TO.N,GNDA*%
X145970000Y-70000000D03*
%TD*%
D13*
%TO.N,5V*%
%TO.C,J2*%
X135000000Y-77925000D03*
D14*
%TO.N,+5V*%
X135000000Y-80465000D03*
%TD*%
D17*
%TO.N,/Pomiar pr\u0105du/IN+*%
%TO.C,J5*%
X119400000Y-110350000D03*
D18*
%TO.N,GNDS*%
X119400000Y-118150000D03*
%TD*%
D19*
%TO.N,/Sterowanie/Uz*%
%TO.C,J7*%
X142170000Y-89250000D03*
D20*
%TO.N,GNDA*%
X147250000Y-84170000D03*
D19*
X142170000Y-86710000D03*
D20*
X147250000Y-94330000D03*
%TD*%
D16*
%TO.N,+2V5*%
%TO.C,RV2*%
X151025000Y-77025000D03*
%TO.N,Net-(U21-S2)*%
X148485000Y-79565000D03*
%TO.N,GNDA*%
X145945000Y-77025000D03*
%TD*%
D19*
%TO.N,/Sterowanie/UI*%
%TO.C,J6*%
X142170000Y-139250000D03*
D20*
%TO.N,GNDA*%
X147250000Y-134170000D03*
D19*
X142170000Y-136710000D03*
D20*
X147250000Y-144330000D03*
%TD*%
D13*
%TO.N,+3.3V*%
%TO.C,J4*%
X98702500Y-76950000D03*
D14*
%TO.N,Net-(J4-Pin_2)*%
X98702500Y-79490000D03*
%TO.N,Net-(J4-Pin_3)*%
X98702500Y-82030000D03*
%TO.N,GND*%
X98702500Y-84570000D03*
%TD*%
D21*
%TO.N,+5V*%
X108750000Y-141200000D03*
X143050000Y-126750000D03*
X143050000Y-127500000D03*
X151350000Y-97550000D03*
X108250000Y-140700000D03*
X130050000Y-102950000D03*
X115900000Y-141200000D03*
X151350000Y-98300000D03*
X131100000Y-102950000D03*
X142200000Y-126750000D03*
X114850000Y-141200000D03*
X142200000Y-127500000D03*
%TO.N,GND*%
X123050000Y-66750000D03*
X136350000Y-66750000D03*
X142850000Y-161950000D03*
X98350000Y-66750000D03*
X103100000Y-66750000D03*
X135250000Y-161950000D03*
X148700000Y-66750000D03*
X115250000Y-124200000D03*
X119100000Y-161950000D03*
X137300000Y-66750000D03*
X119250000Y-66750000D03*
X130850000Y-110200000D03*
X102000000Y-161950000D03*
X109750000Y-66750000D03*
X140550000Y-154300000D03*
X97400000Y-66750000D03*
X133500000Y-66750000D03*
X130500000Y-161950000D03*
X121950000Y-161950000D03*
X149500000Y-161950000D03*
X100100000Y-161950000D03*
X105950000Y-66750000D03*
X141550000Y-145050000D03*
X99150000Y-161950000D03*
X147600000Y-161950000D03*
X124000000Y-66750000D03*
X121000000Y-161950000D03*
X111100000Y-93000000D03*
X139050000Y-161950000D03*
X103900000Y-161950000D03*
X107850000Y-66750000D03*
X108650000Y-161950000D03*
X136200000Y-161950000D03*
X137150000Y-161950000D03*
X145700000Y-161950000D03*
X114750000Y-123700000D03*
X131850000Y-110200000D03*
X111100000Y-94000000D03*
X138200000Y-137500000D03*
X122100000Y-66750000D03*
X133350000Y-161950000D03*
X125750000Y-161950000D03*
X98200000Y-161950000D03*
X140550000Y-146050000D03*
X106750000Y-161950000D03*
X128600000Y-161950000D03*
X141550000Y-155300000D03*
X141550000Y-154300000D03*
X141050000Y-154800000D03*
X130850000Y-109200000D03*
X138200000Y-138500000D03*
X106400000Y-124200000D03*
X135400000Y-66750000D03*
X138250000Y-66750000D03*
X112450000Y-161950000D03*
X96300000Y-161950000D03*
X127000000Y-86150000D03*
X97250000Y-161950000D03*
X123550000Y-141650000D03*
X102950000Y-161950000D03*
X126850000Y-66750000D03*
X144750000Y-161950000D03*
X130650000Y-66750000D03*
X140950000Y-161950000D03*
X132400000Y-161950000D03*
X106900000Y-66750000D03*
X141550000Y-146050000D03*
X146650000Y-161950000D03*
X143950000Y-66750000D03*
X111500000Y-161950000D03*
X151550000Y-66750000D03*
X132550000Y-66750000D03*
X141100000Y-66750000D03*
X145850000Y-66750000D03*
X111600000Y-93500000D03*
X150450000Y-161950000D03*
X131450000Y-161950000D03*
X120900000Y-130150000D03*
X124950000Y-66750000D03*
X146800000Y-66750000D03*
X147750000Y-66750000D03*
X118150000Y-161950000D03*
X115250000Y-123200000D03*
X152500000Y-66750000D03*
X144900000Y-66750000D03*
X121150000Y-66750000D03*
X131600000Y-66750000D03*
X149650000Y-66750000D03*
X128000000Y-87150000D03*
X112600000Y-66750000D03*
X141900000Y-161950000D03*
X143000000Y-66750000D03*
X127800000Y-66750000D03*
X107700000Y-161950000D03*
X115450000Y-66750000D03*
X100250000Y-66750000D03*
X119900000Y-131150000D03*
X107400000Y-123200000D03*
X106400000Y-123200000D03*
X116250000Y-161950000D03*
X122550000Y-141650000D03*
X112100000Y-93000000D03*
X120050000Y-161950000D03*
X140150000Y-66750000D03*
X129700000Y-66750000D03*
X128000000Y-86150000D03*
X122550000Y-140650000D03*
X140550000Y-145050000D03*
X113400000Y-161950000D03*
X114250000Y-123200000D03*
X129550000Y-161950000D03*
X148550000Y-161950000D03*
X110700000Y-66750000D03*
X112100000Y-94000000D03*
X138100000Y-161950000D03*
X114500000Y-66750000D03*
X102150000Y-66750000D03*
X119900000Y-130150000D03*
X123850000Y-161950000D03*
X106900000Y-123700000D03*
X134450000Y-66750000D03*
X108800000Y-66750000D03*
X104050000Y-66750000D03*
X118300000Y-66750000D03*
X99300000Y-66750000D03*
X124800000Y-161950000D03*
X125900000Y-66750000D03*
X104850000Y-161950000D03*
X105800000Y-161950000D03*
X152350000Y-161950000D03*
X126700000Y-161950000D03*
X120400000Y-130650000D03*
X142050000Y-66750000D03*
X141050000Y-145550000D03*
X139200000Y-138500000D03*
X109600000Y-161950000D03*
X134300000Y-161950000D03*
X117200000Y-161950000D03*
X111650000Y-66750000D03*
X101050000Y-161950000D03*
X120900000Y-131150000D03*
X128750000Y-66750000D03*
X140550000Y-155300000D03*
X96450000Y-66750000D03*
X110550000Y-161950000D03*
X113550000Y-66750000D03*
X101200000Y-66750000D03*
X123050000Y-141150000D03*
X143800000Y-161950000D03*
X127000000Y-87150000D03*
X116400000Y-66750000D03*
X127500000Y-86650000D03*
X120200000Y-66750000D03*
X122900000Y-161950000D03*
X115300000Y-161950000D03*
X139200000Y-66750000D03*
X123550000Y-140650000D03*
X140000000Y-161950000D03*
X114250000Y-124200000D03*
X131350000Y-109700000D03*
X105000000Y-66750000D03*
X151400000Y-161950000D03*
X150600000Y-66750000D03*
X117350000Y-66750000D03*
X127650000Y-161950000D03*
X114350000Y-161950000D03*
X139200000Y-137500000D03*
X138700000Y-138000000D03*
X131850000Y-109200000D03*
X107400000Y-124200000D03*
%TO.N,Net-(U1-~{RESET})*%
X108200000Y-74400000D03*
X116800000Y-74200000D03*
%TO.N,+3.3V*%
X117500000Y-69947500D03*
X106950000Y-85750000D03*
X114250000Y-78150000D03*
X140600000Y-94750000D03*
X101300000Y-85750000D03*
X102350000Y-85750000D03*
X113300000Y-78162400D03*
X116550000Y-69947500D03*
X131500000Y-135300000D03*
X140600000Y-96750000D03*
X107900000Y-85750000D03*
X140600000Y-95800000D03*
X112300000Y-85750000D03*
X113000000Y-85750000D03*
X131500000Y-136050000D03*
X117550000Y-85750000D03*
X142600000Y-103350000D03*
X118200000Y-85750000D03*
%TO.N,+5VA*%
X131450000Y-156700000D03*
X101450000Y-155750000D03*
X131450000Y-159400000D03*
X102050000Y-156350000D03*
X131450000Y-155750000D03*
%TO.N,GNDA*%
X109450000Y-101650000D03*
X131850000Y-123650000D03*
X127700000Y-150800000D03*
X124950000Y-140600000D03*
X115000000Y-106100000D03*
X136300000Y-157500000D03*
X126400000Y-125600000D03*
X134500000Y-148250000D03*
X116650000Y-153200000D03*
X147250000Y-149550000D03*
X126400000Y-126450000D03*
X98000000Y-93000000D03*
X115900000Y-153200000D03*
X131850000Y-122800000D03*
X126850000Y-151550000D03*
X115000000Y-105350000D03*
X126750000Y-157850000D03*
X136200000Y-93750000D03*
X139700000Y-80200000D03*
X124950000Y-139750000D03*
X127600000Y-157850000D03*
X147250000Y-148800000D03*
X109450000Y-100900000D03*
X134500000Y-149100000D03*
X127600000Y-157100000D03*
X126750000Y-157100000D03*
X126850000Y-150800000D03*
X127700000Y-151550000D03*
X115850000Y-105350000D03*
X115850000Y-106100000D03*
X121650000Y-95250000D03*
X138200000Y-133700000D03*
X148100000Y-149550000D03*
X98000000Y-92150000D03*
X122400000Y-95250000D03*
X136300000Y-156650000D03*
X148100000Y-148800000D03*
X96900000Y-157700000D03*
X96900000Y-158550000D03*
X136950000Y-93750000D03*
%TO.N,+2V5*%
X137300000Y-90950000D03*
X122000000Y-155250000D03*
X116750000Y-95600000D03*
X122850000Y-156000000D03*
X105100000Y-101300000D03*
X112065625Y-153234375D03*
X105950000Y-101300000D03*
X96300000Y-88550000D03*
X133450000Y-133100000D03*
X116750000Y-94900000D03*
X112590625Y-153759375D03*
X129050000Y-138000000D03*
X136250000Y-90950000D03*
X96300000Y-89550000D03*
X122850000Y-155250000D03*
X132700000Y-133850000D03*
X129050000Y-137200000D03*
X122000000Y-156000000D03*
%TO.N,-2V5*%
X118800000Y-148850000D03*
X108525000Y-154275000D03*
X118800000Y-148150000D03*
X128950000Y-128400000D03*
X120500000Y-107450000D03*
X109137501Y-107450000D03*
X108525000Y-153550000D03*
X121250430Y-107450000D03*
X109950000Y-107450000D03*
X128950000Y-127550000D03*
%TO.N,GNDS*%
X124000000Y-130400000D03*
X121200000Y-97800000D03*
X119400000Y-104400000D03*
X105600000Y-144600000D03*
X123200000Y-129600000D03*
X124000000Y-129600000D03*
X121200000Y-98600000D03*
X104400000Y-144600000D03*
X105600000Y-145400000D03*
X104400000Y-145400000D03*
X123200000Y-130400000D03*
%TO.N,/Pomiar pr\u0105du/V3*%
X134600000Y-139400000D03*
X106800000Y-89400000D03*
%TO.N,/Pomiar pr\u0105du/V1*%
X127800000Y-93400000D03*
X135600000Y-139400000D03*
%TO.N,/Sterowanie/A0*%
X141000000Y-76600000D03*
X114993800Y-80206200D03*
X136600000Y-135000000D03*
%TO.N,/Sterowanie/UP1*%
X122200000Y-86800000D03*
X113200000Y-81400000D03*
%TO.N,/Pomiar pr\u0105du/M1*%
X134800000Y-104400000D03*
X115200000Y-78812400D03*
%TO.N,/Pomiar pr\u0105du/M3*%
X113000000Y-144200000D03*
X115600000Y-76600000D03*
%TO.N,/Pomiar pr\u0105du/M2*%
X112200000Y-137000000D03*
X115050000Y-77300000D03*
%TO.N,/Sterowanie/A1*%
X136600000Y-139400000D03*
X143000000Y-75200000D03*
X114000000Y-80200000D03*
%TO.N,/Pomiar pr\u0105du/V2*%
X133400000Y-128400000D03*
X112200000Y-89450000D03*
%TD*%
D22*
%TO.N,+5V*%
X142222500Y-106932449D02*
X138240051Y-102950000D01*
X140250000Y-114350000D02*
X140250000Y-123750000D01*
X138240051Y-102950000D02*
X131100000Y-102950000D01*
X115900000Y-141200000D02*
X114850000Y-141200000D01*
X135000000Y-80465000D02*
X135000000Y-99709949D01*
X131100000Y-102950000D02*
X130050000Y-102950000D01*
X119185786Y-141200000D02*
X115900000Y-141200000D01*
X151350000Y-99400000D02*
X151350000Y-98300000D01*
X151350000Y-98300000D02*
X151350000Y-97550000D01*
X133814214Y-127400000D02*
X132985786Y-127400000D01*
X132985786Y-127400000D02*
X119185786Y-141200000D01*
X143050000Y-126750000D02*
X143050000Y-127500000D01*
X142200000Y-127500000D02*
X133914214Y-127500000D01*
X140250000Y-123750000D02*
X142200000Y-125700000D01*
X114850000Y-141200000D02*
X108750000Y-141200000D01*
X142222500Y-109677500D02*
X142222500Y-108527500D01*
D23*
X142222500Y-113000000D02*
X142222500Y-109677500D01*
D22*
X141600000Y-113000000D02*
X140250000Y-114350000D01*
X133914214Y-127500000D02*
X133814214Y-127400000D01*
X135000000Y-99709949D02*
X138240051Y-102950000D01*
X143050000Y-126750000D02*
X142200000Y-126750000D01*
X142222500Y-108527500D02*
X151350000Y-99400000D01*
X142222500Y-113000000D02*
X141600000Y-113000000D01*
X143050000Y-126550000D02*
X142200000Y-125700000D01*
X143050000Y-126750000D02*
X143050000Y-126550000D01*
X142200000Y-127500000D02*
X143050000Y-127500000D01*
X108250000Y-140700000D02*
X108750000Y-141200000D01*
X142222500Y-113000000D02*
X142222500Y-106932449D01*
X142200000Y-125700000D02*
X142200000Y-127500000D01*
%TO.N,GND*%
X126647500Y-78600000D02*
X129187500Y-78600000D01*
D24*
X141050000Y-154800000D02*
X141050000Y-145550000D01*
X138700000Y-143200000D02*
X141050000Y-145550000D01*
X127500000Y-86650000D02*
X126284000Y-87866000D01*
X111600000Y-93500000D02*
X113050000Y-92050000D01*
X106900000Y-123700000D02*
X114750000Y-123700000D01*
X126284000Y-87866000D02*
X126284000Y-104634000D01*
X122100000Y-92050000D02*
X127500000Y-86650000D01*
X113050000Y-92050000D02*
X122100000Y-92050000D01*
X126284000Y-104634000D02*
X131350000Y-109700000D01*
X138700000Y-138000000D02*
X138700000Y-143200000D01*
D22*
%TO.N,+3.3V*%
X113000000Y-85750000D02*
X107900000Y-85750000D01*
D25*
X118200000Y-73600000D02*
X118200000Y-70647500D01*
D22*
X138700000Y-73567919D02*
X138700000Y-92850000D01*
X98000000Y-76950000D02*
X98702500Y-76950000D01*
X140600000Y-95800000D02*
X140600000Y-96750000D01*
X138700000Y-92850000D02*
X140600000Y-94750000D01*
D23*
X140600000Y-96750000D02*
X140600000Y-101350000D01*
D22*
X100550000Y-86500000D02*
X97750000Y-86500000D01*
X140600000Y-95800000D02*
X140600000Y-94750000D01*
X117250000Y-75300000D02*
X118200000Y-76250000D01*
X118200000Y-76250000D02*
X118200000Y-73600000D01*
X135000000Y-71070000D02*
X120730000Y-71070000D01*
D25*
X117500000Y-69947500D02*
X116550000Y-69947500D01*
D22*
X96450000Y-85200000D02*
X96450000Y-78500000D01*
X144600000Y-90750000D02*
X140600000Y-94750000D01*
X101300000Y-85750000D02*
X100550000Y-86500000D01*
X117550000Y-85750000D02*
X118200000Y-85750000D01*
X113200000Y-76350000D02*
X114250000Y-75300000D01*
X107900000Y-85750000D02*
X106950000Y-85750000D01*
D25*
X118200000Y-70647500D02*
X117500000Y-69947500D01*
D22*
X135000000Y-71070000D02*
X136202081Y-71070000D01*
X106950000Y-85750000D02*
X102350000Y-85750000D01*
X97750000Y-86500000D02*
X96450000Y-85200000D01*
X139300000Y-130600000D02*
X143750000Y-130600000D01*
X131500000Y-135300000D02*
X134600000Y-135300000D01*
X136202081Y-71070000D02*
X138700000Y-73567919D01*
X102350000Y-85750000D02*
X101300000Y-85750000D01*
X114250000Y-78150000D02*
X113200000Y-78150000D01*
X143750000Y-130600000D02*
X152850000Y-121500000D01*
X150300000Y-90750000D02*
X144600000Y-90750000D01*
X131500000Y-136050000D02*
X131500000Y-135300000D01*
X134600000Y-135300000D02*
X139300000Y-130600000D01*
X113200000Y-78150000D02*
X113200000Y-76350000D01*
X152850000Y-121500000D02*
X152850000Y-93300000D01*
X120730000Y-71070000D02*
X118200000Y-73600000D01*
X117550000Y-85750000D02*
X113000000Y-85750000D01*
D23*
X140600000Y-101350000D02*
X142600000Y-103350000D01*
D22*
X118200000Y-85750000D02*
X118200000Y-76250000D01*
X114250000Y-75300000D02*
X117250000Y-75300000D01*
X96450000Y-78500000D02*
X98000000Y-76950000D01*
X152850000Y-93300000D02*
X150300000Y-90750000D01*
%TO.N,5V*%
X134942500Y-77925000D02*
X129187500Y-83680000D01*
X135000000Y-77925000D02*
X134942500Y-77925000D01*
X126647500Y-83680000D02*
X129187500Y-83680000D01*
%TO.N,3.3V*%
X131550000Y-78777500D02*
X131550000Y-77060000D01*
X131550000Y-77060000D02*
X135000000Y-73610000D01*
X126647500Y-81140000D02*
X129187500Y-81140000D01*
X129187500Y-81140000D02*
X131550000Y-78777500D01*
%TD*%
M02*
