%TF.GenerationSoftware,KiCad,Pcbnew,8.0.0*%
%TF.CreationDate,2024-10-10T18:55:31+02:00*%
%TF.ProjectId,Profiler energetyczny urz_dze_ IoT,50726f66-696c-4657-9220-656e65726765,rev?*%
%TF.SameCoordinates,Original*%
%TF.FileFunction,Soldermask,Top*%
%TF.FilePolarity,Negative*%
%FSLAX46Y46*%
G04 Gerber Fmt 4.6, Leading zero omitted, Abs format (unit mm)*
G04 Created by KiCad (PCBNEW 8.0.0) date 2024-10-10 18:55:31*
%MOMM*%
%LPD*%
G01*
G04 APERTURE LIST*
G04 Aperture macros list*
%AMRoundRect*
0 Rectangle with rounded corners*
0 $1 Rounding radius*
0 $2 $3 $4 $5 $6 $7 $8 $9 X,Y pos of 4 corners*
0 Add a 4 corners polygon primitive as box body*
4,1,4,$2,$3,$4,$5,$6,$7,$8,$9,$2,$3,0*
0 Add four circle primitives for the rounded corners*
1,1,$1+$1,$2,$3*
1,1,$1+$1,$4,$5*
1,1,$1+$1,$6,$7*
1,1,$1+$1,$8,$9*
0 Add four rect primitives between the rounded corners*
20,1,$1+$1,$2,$3,$4,$5,0*
20,1,$1+$1,$4,$5,$6,$7,0*
20,1,$1+$1,$6,$7,$8,$9,0*
20,1,$1+$1,$8,$9,$2,$3,0*%
%AMFreePoly0*
4,1,17,2.675000,1.605000,1.875000,1.605000,1.875000,0.935000,2.675000,0.935000,2.675000,0.335000,1.875000,0.335000,1.875000,-0.335000,2.675000,-0.335000,2.675000,-0.935000,1.875000,-0.935000,1.875000,-1.605000,2.675000,-1.605000,2.675000,-2.205000,-1.875000,-2.205000,-1.875000,2.205000,2.675000,2.205000,2.675000,1.605000,2.675000,1.605000,$1*%
G04 Aperture macros list end*
%ADD10RoundRect,0.250000X-0.337500X-0.475000X0.337500X-0.475000X0.337500X0.475000X-0.337500X0.475000X0*%
%ADD11RoundRect,0.250000X-0.350000X-0.450000X0.350000X-0.450000X0.350000X0.450000X-0.350000X0.450000X0*%
%ADD12RoundRect,0.070000X0.070000X0.355000X-0.070000X0.355000X-0.070000X-0.355000X0.070000X-0.355000X0*%
%ADD13RoundRect,0.070000X0.070000X0.305000X-0.070000X0.305000X-0.070000X-0.305000X0.070000X-0.305000X0*%
%ADD14RoundRect,0.150000X-0.662500X-0.150000X0.662500X-0.150000X0.662500X0.150000X-0.662500X0.150000X0*%
%ADD15R,2.514000X3.200000*%
%ADD16RoundRect,0.250000X0.337500X0.475000X-0.337500X0.475000X-0.337500X-0.475000X0.337500X-0.475000X0*%
%ADD17RoundRect,0.250000X0.475000X-0.337500X0.475000X0.337500X-0.475000X0.337500X-0.475000X-0.337500X0*%
%ADD18RoundRect,0.250000X-0.600000X-0.600000X0.600000X-0.600000X0.600000X0.600000X-0.600000X0.600000X0*%
%ADD19C,1.700000*%
%ADD20R,1.000000X1.200000*%
%ADD21RoundRect,0.100000X-0.100000X0.155000X-0.100000X-0.155000X0.100000X-0.155000X0.100000X0.155000X0*%
%ADD22RoundRect,0.250000X-0.475000X0.337500X-0.475000X-0.337500X0.475000X-0.337500X0.475000X0.337500X0*%
%ADD23RoundRect,0.162500X0.162500X-0.617500X0.162500X0.617500X-0.162500X0.617500X-0.162500X-0.617500X0*%
%ADD24RoundRect,0.250000X0.450000X-0.350000X0.450000X0.350000X-0.450000X0.350000X-0.450000X-0.350000X0*%
%ADD25R,1.700000X1.700000*%
%ADD26O,1.700000X1.700000*%
%ADD27RoundRect,0.300000X0.850000X0.300000X-0.850000X0.300000X-0.850000X-0.300000X0.850000X-0.300000X0*%
%ADD28RoundRect,0.250000X-0.450000X0.350000X-0.450000X-0.350000X0.450000X-0.350000X0.450000X0.350000X0*%
%ADD29C,3.500000*%
%ADD30RoundRect,0.250000X0.350000X0.450000X-0.350000X0.450000X-0.350000X-0.450000X0.350000X-0.450000X0*%
%ADD31R,1.600000X1.400000*%
%ADD32RoundRect,0.150000X0.150000X-0.512500X0.150000X0.512500X-0.150000X0.512500X-0.150000X-0.512500X0*%
%ADD33C,1.440000*%
%ADD34R,1.750000X1.100000*%
%ADD35R,0.215000X0.270000*%
%ADD36R,0.500000X0.320000*%
%ADD37R,1.200000X1.000000*%
%ADD38RoundRect,0.162500X-0.617500X-0.162500X0.617500X-0.162500X0.617500X0.162500X-0.617500X0.162500X0*%
%ADD39RoundRect,0.070000X-0.070000X-0.355000X0.070000X-0.355000X0.070000X0.355000X-0.070000X0.355000X0*%
%ADD40RoundRect,0.070000X-0.070000X-0.305000X0.070000X-0.305000X0.070000X0.305000X-0.070000X0.305000X0*%
%ADD41RoundRect,0.162500X-0.162500X0.617500X-0.162500X-0.617500X0.162500X-0.617500X0.162500X0.617500X0*%
%ADD42C,4.400000*%
%ADD43RoundRect,0.250002X-1.699998X1.699998X-1.699998X-1.699998X1.699998X-1.699998X1.699998X1.699998X0*%
%ADD44C,3.900000*%
%ADD45RoundRect,0.150000X-0.150000X0.512500X-0.150000X-0.512500X0.150000X-0.512500X0.150000X0.512500X0*%
%ADD46R,0.300000X1.400000*%
%ADD47RoundRect,0.100000X-0.637500X-0.100000X0.637500X-0.100000X0.637500X0.100000X-0.637500X0.100000X0*%
%ADD48O,2.500000X1.600000*%
%ADD49O,7.000000X3.500000*%
%ADD50R,0.450000X1.450000*%
%ADD51RoundRect,0.150000X-0.825000X-0.150000X0.825000X-0.150000X0.825000X0.150000X-0.825000X0.150000X0*%
%ADD52R,2.290000X3.000000*%
%ADD53FreePoly0,90.000000*%
%ADD54RoundRect,0.125000X0.125000X-0.300000X0.125000X0.300000X-0.125000X0.300000X-0.125000X-0.300000X0*%
%ADD55RoundRect,0.150000X0.512500X0.150000X-0.512500X0.150000X-0.512500X-0.150000X0.512500X-0.150000X0*%
%ADD56RoundRect,0.250000X0.412500X0.650000X-0.412500X0.650000X-0.412500X-0.650000X0.412500X-0.650000X0*%
%ADD57R,2.150000X5.500000*%
%ADD58R,0.270000X0.215000*%
%ADD59R,0.320000X0.500000*%
G04 APERTURE END LIST*
D10*
%TO.C,C41*%
X113890000Y-84250000D03*
X115965000Y-84250000D03*
%TD*%
D11*
%TO.C,R3*%
X106397500Y-79985000D03*
X108397500Y-79985000D03*
%TD*%
D10*
%TO.C,C18*%
X110725000Y-142000000D03*
X112800000Y-142000000D03*
%TD*%
D12*
%TO.C,U7*%
X111750000Y-144225000D03*
D13*
X111250000Y-144175000D03*
X110750000Y-144175000D03*
X110750000Y-145325000D03*
X111250000Y-145325000D03*
X111750000Y-145325000D03*
%TD*%
D10*
%TO.C,C12*%
X132712500Y-155750000D03*
X134787500Y-155750000D03*
%TD*%
D14*
%TO.C,U4*%
X143500000Y-98345000D03*
X143500000Y-99615000D03*
X143500000Y-100885000D03*
X143500000Y-102155000D03*
X148775000Y-102155000D03*
X148775000Y-100885000D03*
X148775000Y-99615000D03*
X148775000Y-98345000D03*
D15*
X146137500Y-100250000D03*
%TD*%
D11*
%TO.C,R31*%
X131650000Y-93750000D03*
X133650000Y-93750000D03*
%TD*%
D16*
%TO.C,C36*%
X120287500Y-105750000D03*
X118212500Y-105750000D03*
%TD*%
D17*
%TO.C,C3*%
X120387500Y-78237500D03*
X120387500Y-76162500D03*
%TD*%
D18*
%TO.C,U1*%
X126647500Y-73520000D03*
D19*
X129187500Y-73520000D03*
X126647500Y-76060000D03*
X129187500Y-76060000D03*
X126647500Y-78600000D03*
X129187500Y-78600000D03*
X126647500Y-81140000D03*
X129187500Y-81140000D03*
X126647500Y-83680000D03*
X129187500Y-83680000D03*
%TD*%
D17*
%TO.C,C26*%
X111875000Y-106062500D03*
X111875000Y-103987500D03*
%TD*%
D20*
%TO.C,D3*%
X138200000Y-119200000D03*
X138200000Y-117200000D03*
%TD*%
D21*
%TO.C,D7*%
X127750000Y-97645000D03*
X128750000Y-97645000D03*
X128250000Y-96355000D03*
%TD*%
D10*
%TO.C,C35*%
X118212500Y-95250000D03*
X120287500Y-95250000D03*
%TD*%
D11*
%TO.C,R6*%
X138600000Y-100750000D03*
X140600000Y-100750000D03*
%TD*%
D22*
%TO.C,C28*%
X120000000Y-133462500D03*
X120000000Y-135537500D03*
%TD*%
D23*
%TO.C,U18*%
X103227500Y-89450000D03*
X104177500Y-89450000D03*
X105127500Y-89450000D03*
X105127500Y-86750000D03*
X103227500Y-86750000D03*
%TD*%
D16*
%TO.C,C46*%
X151637500Y-148800000D03*
X149562500Y-148800000D03*
%TD*%
D24*
%TO.C,R21*%
X115825000Y-99000000D03*
X115825000Y-97000000D03*
%TD*%
D25*
%TO.C,J3*%
X135000000Y-73610000D03*
D26*
X135000000Y-71070000D03*
%TD*%
D17*
%TO.C,C44*%
X151187500Y-128287500D03*
X151187500Y-126212500D03*
%TD*%
D24*
%TO.C,R19*%
X124075000Y-99000000D03*
X124075000Y-97000000D03*
%TD*%
D27*
%TO.C,U22*%
X149010000Y-159030000D03*
X149010000Y-156490000D03*
X149010000Y-151410000D03*
X138910000Y-151410000D03*
X138910000Y-159030000D03*
%TD*%
D11*
%TO.C,R28*%
X98000000Y-88000000D03*
X100000000Y-88000000D03*
%TD*%
D28*
%TO.C,R12*%
X107400000Y-143750000D03*
X107400000Y-145750000D03*
%TD*%
D10*
%TO.C,C27*%
X116962500Y-138800000D03*
X119037500Y-138800000D03*
%TD*%
%TO.C,C40*%
X119140000Y-84250000D03*
X121215000Y-84250000D03*
%TD*%
D17*
%TO.C,C31*%
X134600000Y-131787500D03*
X134600000Y-129712500D03*
%TD*%
D25*
%TO.C,J1*%
X142222500Y-113000000D03*
D19*
X142222500Y-115500000D03*
X144222500Y-115500000D03*
X144222500Y-113000000D03*
D29*
X146932500Y-108230000D03*
X146932500Y-120270000D03*
%TD*%
D30*
%TO.C,R9*%
X122600000Y-153500000D03*
X120600000Y-153500000D03*
%TD*%
D22*
%TO.C,C2*%
X98427500Y-70462500D03*
X98427500Y-72537500D03*
%TD*%
D31*
%TO.C,SW1*%
X100900000Y-69985000D03*
X108100000Y-69985000D03*
X100900000Y-72985000D03*
X108100000Y-72985000D03*
%TD*%
D32*
%TO.C,U13*%
X107425000Y-106025000D03*
X108375000Y-106025000D03*
X109325000Y-106025000D03*
X109325000Y-103750000D03*
X107425000Y-103750000D03*
%TD*%
D23*
%TO.C,U20*%
X113927500Y-89450000D03*
X114877500Y-89450000D03*
X115827500Y-89450000D03*
X115827500Y-86750000D03*
X113927500Y-86750000D03*
%TD*%
D30*
%TO.C,R8*%
X144600000Y-104800000D03*
X142600000Y-104800000D03*
%TD*%
D33*
%TO.C,RV1*%
X151050000Y-70000000D03*
X148510000Y-72540000D03*
X145970000Y-70000000D03*
%TD*%
D10*
%TO.C,C38*%
X103140000Y-84250000D03*
X105215000Y-84250000D03*
%TD*%
D28*
%TO.C,R16*%
X98750000Y-148095000D03*
X98750000Y-150095000D03*
%TD*%
D25*
%TO.C,J2*%
X135000000Y-77925000D03*
D26*
X135000000Y-80465000D03*
%TD*%
D23*
%TO.C,U19*%
X119227500Y-89450000D03*
X120177500Y-89450000D03*
X121127500Y-89450000D03*
X121127500Y-86750000D03*
X119227500Y-86750000D03*
%TD*%
D17*
%TO.C,C13*%
X124250000Y-146537500D03*
X124250000Y-144462500D03*
%TD*%
D28*
%TO.C,R27*%
X122500000Y-133500000D03*
X122500000Y-135500000D03*
%TD*%
D22*
%TO.C,C6*%
X134500000Y-144462500D03*
X134500000Y-146537500D03*
%TD*%
%TO.C,C16*%
X120600000Y-157362500D03*
X120600000Y-159437500D03*
%TD*%
D24*
%TO.C,R4*%
X138200000Y-115050000D03*
X138200000Y-113050000D03*
%TD*%
D28*
%TO.C,R14*%
X128250000Y-99500000D03*
X128250000Y-101500000D03*
%TD*%
D34*
%TO.C,R32*%
X101575000Y-144550000D03*
X101575000Y-145950000D03*
X98825000Y-145950000D03*
X98825000Y-144550000D03*
%TD*%
D17*
%TO.C,C20*%
X131000000Y-101500000D03*
X131000000Y-99425000D03*
%TD*%
D35*
%TO.C,Q2*%
X128582500Y-104490000D03*
X128217500Y-104490000D03*
D36*
X128400000Y-105000000D03*
%TD*%
D24*
%TO.C,R15*%
X102200000Y-150200000D03*
X102200000Y-148200000D03*
%TD*%
D16*
%TO.C,C7*%
X131687500Y-148607500D03*
X129612500Y-148607500D03*
%TD*%
D22*
%TO.C,C4*%
X120400000Y-80162500D03*
X120400000Y-82237500D03*
%TD*%
D37*
%TO.C,D2*%
X102137500Y-79985000D03*
X104137500Y-79985000D03*
%TD*%
D38*
%TO.C,U3*%
X129300000Y-144600000D03*
X129300000Y-145550000D03*
X129300000Y-146500000D03*
X132000000Y-146500000D03*
X132000000Y-145550000D03*
X132000000Y-144600000D03*
%TD*%
D37*
%TO.C,D5*%
X127250000Y-153500000D03*
X125250000Y-153500000D03*
%TD*%
D10*
%TO.C,C34*%
X109250000Y-155000000D03*
X111325000Y-155000000D03*
%TD*%
D11*
%TO.C,R10*%
X120600000Y-148750000D03*
X122600000Y-148750000D03*
%TD*%
D39*
%TO.C,U12*%
X113300000Y-137025000D03*
D40*
X113800000Y-137075000D03*
X114300000Y-137075000D03*
X114300000Y-135925000D03*
X113800000Y-135925000D03*
X113300000Y-135925000D03*
%TD*%
D16*
%TO.C,C14*%
X140637500Y-98500000D03*
X138562500Y-98500000D03*
%TD*%
D41*
%TO.C,U14*%
X126950000Y-132900000D03*
X126000000Y-132900000D03*
X125050000Y-132900000D03*
X125050000Y-135600000D03*
X126950000Y-135600000D03*
%TD*%
D10*
%TO.C,C19*%
X110725000Y-139500000D03*
X112800000Y-139500000D03*
%TD*%
D42*
%TO.C,J5*%
X105125000Y-110350000D03*
X105125000Y-118150000D03*
D43*
X119400000Y-110350000D03*
D44*
X119400000Y-118150000D03*
%TD*%
D10*
%TO.C,C24*%
X116962500Y-141100000D03*
X119037500Y-141100000D03*
%TD*%
D24*
%TO.C,R17*%
X124075000Y-103500000D03*
X124075000Y-101500000D03*
%TD*%
D37*
%TO.C,D4*%
X152400000Y-104800000D03*
X150400000Y-104800000D03*
%TD*%
D45*
%TO.C,U15*%
X132450000Y-129575000D03*
X131500000Y-129575000D03*
X130550000Y-129575000D03*
X130550000Y-131850000D03*
X132450000Y-131850000D03*
%TD*%
D23*
%TO.C,U17*%
X108715000Y-89450000D03*
X109665000Y-89450000D03*
X110615000Y-89450000D03*
X110615000Y-86750000D03*
X108715000Y-86750000D03*
%TD*%
D46*
%TO.C,U21*%
X141500000Y-74050000D03*
X141000000Y-74050000D03*
X140500000Y-74050000D03*
X140000000Y-74050000D03*
X139500000Y-74050000D03*
X139500000Y-78450000D03*
X140000000Y-78450000D03*
X140500000Y-78450000D03*
X141000000Y-78450000D03*
X141500000Y-78450000D03*
%TD*%
D11*
%TO.C,R22*%
X114287500Y-158000000D03*
X116287500Y-158000000D03*
%TD*%
D37*
%TO.C,D1*%
X102137500Y-76235000D03*
X104137500Y-76235000D03*
%TD*%
D47*
%TO.C,U2*%
X111525000Y-75560000D03*
X111525000Y-76210000D03*
X111525000Y-76860000D03*
X111525000Y-77510000D03*
X111525000Y-78160000D03*
X111525000Y-78810000D03*
X111525000Y-79460000D03*
X111525000Y-80110000D03*
X111525000Y-80760000D03*
X111525000Y-81410000D03*
X117250000Y-81410000D03*
X117250000Y-80760000D03*
X117250000Y-80110000D03*
X117250000Y-79460000D03*
X117250000Y-78810000D03*
X117250000Y-78160000D03*
X117250000Y-77510000D03*
X117250000Y-76860000D03*
X117250000Y-76210000D03*
X117250000Y-75560000D03*
%TD*%
D48*
%TO.C,J7*%
X142170000Y-89250000D03*
D49*
X147250000Y-84170000D03*
D48*
X142170000Y-86710000D03*
D49*
X147250000Y-94330000D03*
%TD*%
D50*
%TO.C,U10*%
X118275000Y-102700000D03*
X118925000Y-102700000D03*
X119575000Y-102700000D03*
X120225000Y-102700000D03*
X120225000Y-98300000D03*
X119575000Y-98300000D03*
X118925000Y-98300000D03*
X118275000Y-98300000D03*
%TD*%
D28*
%TO.C,R1*%
X110637500Y-70500000D03*
X110637500Y-72500000D03*
%TD*%
%TO.C,R26*%
X117500000Y-133500000D03*
X117500000Y-135500000D03*
%TD*%
D51*
%TO.C,U5*%
X124705000Y-155595000D03*
X124705000Y-156865000D03*
X124705000Y-158135000D03*
X124705000Y-159405000D03*
X129655000Y-159405000D03*
X129655000Y-158135000D03*
X129655000Y-156865000D03*
X129655000Y-155595000D03*
D52*
X127180000Y-157500000D03*
%TD*%
D22*
%TO.C,C11*%
X126750000Y-144462500D03*
X126750000Y-146537500D03*
%TD*%
D51*
%TO.C,U11*%
X108525000Y-148595000D03*
X108525000Y-149865000D03*
X108525000Y-151135000D03*
X108525000Y-152405000D03*
X113475000Y-152405000D03*
X113475000Y-151135000D03*
X113475000Y-149865000D03*
X113475000Y-148595000D03*
%TD*%
D17*
%TO.C,C23*%
X115825000Y-103537500D03*
X115825000Y-101462500D03*
%TD*%
D22*
%TO.C,C17*%
X117250000Y-144462500D03*
X117250000Y-146537500D03*
%TD*%
D10*
%TO.C,C15*%
X132712500Y-158250000D03*
X134787500Y-158250000D03*
%TD*%
D11*
%TO.C,R18*%
X103750000Y-158000000D03*
X105750000Y-158000000D03*
%TD*%
D53*
%TO.C,Q1*%
X101050000Y-138750000D03*
D54*
X99145000Y-142300000D03*
X100415000Y-142300000D03*
X101685000Y-142300000D03*
X102955000Y-142300000D03*
%TD*%
D55*
%TO.C,U6*%
X121887500Y-146450000D03*
X121887500Y-145500000D03*
X121887500Y-144550000D03*
X119612500Y-144550000D03*
X119612500Y-146450000D03*
%TD*%
D33*
%TO.C,RV2*%
X151025000Y-77025000D03*
X148485000Y-79565000D03*
X145945000Y-77025000D03*
%TD*%
D48*
%TO.C,J6*%
X142170000Y-139250000D03*
D49*
X147250000Y-134170000D03*
D48*
X142170000Y-136710000D03*
D49*
X147250000Y-144330000D03*
%TD*%
D56*
%TO.C,C1*%
X141500000Y-125500000D03*
X138375000Y-125500000D03*
%TD*%
D17*
%TO.C,C30*%
X126400000Y-130037500D03*
X126400000Y-127962500D03*
%TD*%
D30*
%TO.C,R29*%
X100000000Y-90800000D03*
X98000000Y-90800000D03*
%TD*%
D37*
%TO.C,D6*%
X125250000Y-148750000D03*
X127250000Y-148750000D03*
%TD*%
D10*
%TO.C,C32*%
X131562500Y-126750000D03*
X133637500Y-126750000D03*
%TD*%
D22*
%TO.C,C9*%
X151400000Y-99617500D03*
X151400000Y-101692500D03*
%TD*%
%TO.C,C39*%
X131500000Y-137512500D03*
X131500000Y-139587500D03*
%TD*%
D11*
%TO.C,R2*%
X106397500Y-76235000D03*
X108397500Y-76235000D03*
%TD*%
D21*
%TO.C,D8*%
X114750000Y-131645000D03*
X115750000Y-131645000D03*
X115250000Y-130355000D03*
%TD*%
D10*
%TO.C,C37*%
X108677500Y-84250000D03*
X110752500Y-84250000D03*
%TD*%
D57*
%TO.C,L1*%
X144507500Y-127250000D03*
X148367500Y-127250000D03*
%TD*%
D58*
%TO.C,Q3*%
X114260000Y-133890000D03*
X114260000Y-133525000D03*
D59*
X113750000Y-133707500D03*
%TD*%
D10*
%TO.C,C33*%
X114250000Y-155000000D03*
X116325000Y-155000000D03*
%TD*%
D16*
%TO.C,C29*%
X127037500Y-138000000D03*
X124962500Y-138000000D03*
%TD*%
D10*
%TO.C,C42*%
X139500000Y-70250000D03*
X141575000Y-70250000D03*
%TD*%
D16*
%TO.C,C22*%
X100562500Y-158095000D03*
X98487500Y-158095000D03*
%TD*%
D30*
%TO.C,R20*%
X111287500Y-158000000D03*
X109287500Y-158000000D03*
%TD*%
D10*
%TO.C,C25*%
X107337500Y-101275000D03*
X109412500Y-101275000D03*
%TD*%
D30*
%TO.C,R30*%
X133650000Y-90900000D03*
X131650000Y-90900000D03*
%TD*%
D11*
%TO.C,R7*%
X138600000Y-103000000D03*
X140600000Y-103000000D03*
%TD*%
D24*
%TO.C,R24*%
X116750000Y-151500000D03*
X116750000Y-149500000D03*
%TD*%
D12*
%TO.C,U8*%
X133500000Y-104400000D03*
D13*
X133000000Y-104350000D03*
X132500000Y-104350000D03*
X132500000Y-105500000D03*
X133000000Y-105500000D03*
X133500000Y-105500000D03*
%TD*%
D28*
%TO.C,R23*%
X111875000Y-99775000D03*
X111875000Y-101775000D03*
%TD*%
D17*
%TO.C,C21*%
X133750000Y-101500000D03*
X133750000Y-99425000D03*
%TD*%
D31*
%TO.C,SW2*%
X113150000Y-69947500D03*
X120350000Y-69947500D03*
X113150000Y-72947500D03*
X120350000Y-72947500D03*
%TD*%
D51*
%TO.C,U9*%
X99025000Y-152095000D03*
X99025000Y-153365000D03*
X99025000Y-154635000D03*
X99025000Y-155905000D03*
X103975000Y-155905000D03*
X103975000Y-154635000D03*
X103975000Y-153365000D03*
X103975000Y-152095000D03*
%TD*%
D16*
%TO.C,C45*%
X140975000Y-128500000D03*
X138900000Y-128500000D03*
%TD*%
D46*
%TO.C,U16*%
X136500000Y-136550000D03*
X136000000Y-136550000D03*
X135500000Y-136550000D03*
X135000000Y-136550000D03*
X134500000Y-136550000D03*
X134500000Y-140950000D03*
X135000000Y-140950000D03*
X135500000Y-140950000D03*
X136000000Y-140950000D03*
X136500000Y-140950000D03*
%TD*%
D25*
%TO.C,J4*%
X98702500Y-76950000D03*
D26*
X98702500Y-79490000D03*
X98702500Y-82030000D03*
X98702500Y-84570000D03*
%TD*%
D10*
%TO.C,C43*%
X137762500Y-149000000D03*
X139837500Y-149000000D03*
%TD*%
D28*
%TO.C,R25*%
X104875000Y-104025000D03*
X104875000Y-106025000D03*
%TD*%
G36*
X153693039Y-160819685D02*
G01*
X153738794Y-160872489D01*
X153750000Y-160924000D01*
X153750000Y-163126000D01*
X153730315Y-163193039D01*
X153677511Y-163238794D01*
X153626000Y-163250000D01*
X95124000Y-163250000D01*
X95056961Y-163230315D01*
X95011206Y-163177511D01*
X95000000Y-163126000D01*
X95000000Y-160924000D01*
X95019685Y-160856961D01*
X95072489Y-160811206D01*
X95124000Y-160800000D01*
X153626000Y-160800000D01*
X153693039Y-160819685D01*
G37*
G36*
X153693039Y-65269685D02*
G01*
X153738794Y-65322489D01*
X153750000Y-65374000D01*
X153750000Y-67626000D01*
X153730315Y-67693039D01*
X153677511Y-67738794D01*
X153626000Y-67750000D01*
X95124000Y-67750000D01*
X95056961Y-67730315D01*
X95011206Y-67677511D01*
X95000000Y-67626000D01*
X95000000Y-65374000D01*
X95019685Y-65306961D01*
X95072489Y-65261206D01*
X95124000Y-65250000D01*
X153626000Y-65250000D01*
X153693039Y-65269685D01*
G37*
M02*
