M48
; DRILL file {KiCad 8.0.0} date 2024-10-10T18:56:18+0200
; FORMAT={-:-/ absolute / inch / decimal}
; #@! TF.CreationDate,2024-10-10T18:56:18+02:00
; #@! TF.GenerationSoftware,Kicad,Pcbnew,8.0.0
; #@! TF.FileFunction,Plated,1,4,PTH
FMAT,2
INCH
; #@! TA.AperFunction,Plated,PTH,ComponentDrill
T1C0.0079
; #@! TA.AperFunction,Plated,PTH,ViaDrill
T2C0.0118
; #@! TA.AperFunction,Plated,PTH,ComponentDrill
T3C0.0315
; #@! TA.AperFunction,Plated,PTH,ComponentDrill
T4C0.0350
; #@! TA.AperFunction,Plated,PTH,ComponentDrill
T5C0.0362
; #@! TA.AperFunction,Plated,PTH,ComponentDrill
T6C0.0394
; #@! TA.AperFunction,Plated,PTH,ComponentDrill
T7C0.0791
; #@! TA.AperFunction,Plated,PTH,ComponentDrill
T8C0.0917
; #@! TA.AperFunction,Plated,PTH,ComponentDrill
T9C0.0984
%
G90
G05
T1
X5.7259Y-3.9075
X5.7259Y-3.9469
X5.7259Y-3.9862
X5.781Y-3.9075
X5.781Y-3.9469
X5.781Y-3.9862
T2
X3.7913Y-3.4862
X3.7913Y-3.5256
X3.7913Y-6.376
X3.7972Y-2.628
X3.815Y-6.2087
X3.815Y-6.2421
X3.8287Y-6.376
X3.8346Y-2.628
X3.8583Y-3.628
X3.8583Y-3.6614
X3.8661Y-6.376
X3.872Y-2.628
X3.9035Y-6.376
X3.9094Y-2.628
X3.9409Y-6.376
X3.9469Y-2.628
X3.9783Y-6.376
X3.9843Y-2.628
X3.9882Y-3.376
X3.9941Y-6.1319
X4.0157Y-6.376
X4.0177Y-6.1555
X4.0217Y-2.628
X4.0295Y-3.376
X4.0531Y-6.376
X4.0591Y-2.628
X4.0906Y-6.376
X4.0965Y-2.628
X4.1102Y-5.6929
X4.1102Y-5.7244
X4.128Y-6.376
X4.1339Y-2.628
X4.1378Y-3.9882
X4.1575Y-5.6929
X4.1575Y-5.7244
X4.1654Y-6.376
X4.1713Y-2.628
X4.1713Y-3.9882
X4.189Y-4.8504
X4.189Y-4.8898
X4.2028Y-6.376
X4.2047Y-3.5197
X4.2087Y-2.628
X4.2087Y-4.8701
X4.2106Y-3.376
X4.2283Y-4.8504
X4.2283Y-4.8898
X4.2402Y-6.376
X4.2461Y-2.628
X4.248Y-3.376
X4.2598Y-2.9291
X4.2618Y-5.5394
X4.2726Y-6.0453
X4.2726Y-6.0738
X4.2776Y-6.376
X4.2815Y-5.5591
X4.2835Y-2.628
X4.2968Y-4.2303
X4.3091Y-3.9724
X4.3091Y-4.002
X4.315Y-6.376
X4.3209Y-2.628
X4.3287Y-4.2303
X4.3524Y-6.376
X4.3583Y-2.628
X4.374Y-3.6614
X4.374Y-3.7008
X4.3898Y-6.376
X4.3937Y-3.6811
X4.3957Y-2.628
X4.412Y-6.0328
X4.4134Y-3.6614
X4.4134Y-3.7008
X4.4173Y-3.5217
X4.4173Y-5.3937
X4.4213Y-3.376
X4.4272Y-6.376
X4.4327Y-6.0535
X4.4331Y-2.628
X4.4488Y-3.376
X4.4488Y-5.6772
X4.4567Y-3.2047
X4.4606Y-3.0773
X4.4646Y-6.376
X4.4705Y-2.628
X4.4882Y-3.1575
X4.498Y-3.0768
X4.498Y-4.8504
X4.498Y-4.8898
X4.502Y-6.376
X4.5079Y-2.628
X4.5177Y-4.8701
X4.5217Y-5.5591
X4.5273Y-3.1577
X4.5276Y-4.1476
X4.5276Y-4.1772
X4.5295Y-3.0433
X4.5354Y-3.1029
X4.5374Y-4.8504
X4.5374Y-4.8898
X4.5394Y-6.376
X4.5453Y-2.628
X4.5512Y-3.0157
X4.561Y-4.1476
X4.561Y-4.1772
X4.563Y-5.5591
X4.563Y-6.0315
X4.5768Y-6.376
X4.5827Y-2.628
X4.5886Y-2.7538
X4.5925Y-6.0315
X4.5965Y-3.7362
X4.5965Y-3.7638
X4.5984Y-2.9213
X4.6142Y-6.376
X4.6201Y-2.628
X4.626Y-2.7538
X4.628Y-3.376
X4.6516Y-6.376
X4.6535Y-3.376
X4.6575Y-2.628
X4.6772Y-5.8327
X4.6772Y-5.8602
X4.689Y-6.376
X4.6949Y-2.628
X4.7008Y-4.1102
X4.7205Y-5.124
X4.7205Y-5.1634
X4.7264Y-6.376
X4.7323Y-2.628
X4.7402Y-5.1437
X4.7441Y-4.2303
X4.7598Y-5.124
X4.7598Y-5.1634
X4.7638Y-6.376
X4.7697Y-2.628
X4.7717Y-3.8504
X4.7717Y-3.8819
X4.7736Y-4.2303
X4.7894Y-3.75
X4.8012Y-6.376
X4.8031Y-6.1122
X4.8031Y-6.1417
X4.8071Y-2.628
X4.811Y-3.4173
X4.8189Y-3.75
X4.8248Y-5.5374
X4.8248Y-5.5768
X4.8366Y-6.1122
X4.8366Y-6.1417
X4.8386Y-6.376
X4.8445Y-2.628
X4.8445Y-5.5571
X4.8504Y-5.1024
X4.8504Y-5.1339
X4.8642Y-5.5374
X4.8642Y-5.5768
X4.876Y-6.376
X4.8819Y-2.628
X4.8819Y-5.1024
X4.8819Y-5.1339
X4.9134Y-6.376
X4.9193Y-2.628
X4.9193Y-5.502
X4.9193Y-5.5354
X4.9508Y-6.376
X4.9567Y-2.628
X4.9764Y-4.9449
X4.9764Y-4.9783
X4.9882Y-6.376
X4.9902Y-6.185
X4.9902Y-6.2146
X4.9941Y-2.628
X4.9941Y-5.937
X4.9941Y-5.9665
X5.0Y-3.3917
X5.0Y-3.4311
X5.0197Y-3.4114
X5.0236Y-6.185
X5.0236Y-6.2146
X5.0256Y-6.376
X5.0276Y-5.937
X5.0276Y-5.9665
X5.0315Y-2.628
X5.0315Y-3.6772
X5.0394Y-3.3917
X5.0394Y-3.4311
X5.063Y-6.376
X5.0689Y-2.628
X5.0768Y-5.0217
X5.0768Y-5.0551
X5.0807Y-5.4016
X5.0807Y-5.4331
X5.1004Y-6.376
X5.1063Y-2.628
X5.1201Y-4.0531
X5.1378Y-6.376
X5.1437Y-2.628
X5.1516Y-4.2992
X5.1516Y-4.3386
X5.1614Y-4.0531
X5.1713Y-4.3189
X5.1752Y-6.1319
X5.1752Y-6.1693
X5.1752Y-6.2756
X5.1752Y-6.376
X5.1772Y-5.3268
X5.1772Y-5.3563
X5.1811Y-2.628
X5.1909Y-4.2992
X5.1909Y-4.3386
X5.1909Y-4.8346
X5.1909Y-4.8681
X5.2126Y-6.376
X5.2185Y-2.628
X5.2244Y-5.2697
X5.25Y-6.376
X5.252Y-5.0551
X5.2539Y-5.2402
X5.2559Y-2.628
X5.2874Y-6.376
X5.2933Y-2.628
X5.2953Y-5.8366
X5.2953Y-5.8701
X5.2992Y-5.4882
X5.3071Y-4.1102
X5.3248Y-6.376
X5.3307Y-2.628
X5.3386Y-5.4882
X5.3622Y-3.6909
X5.3622Y-6.376
X5.3642Y-3.5807
X5.3661Y-6.1673
X5.3661Y-6.2008
X5.3681Y-2.628
X5.378Y-5.315
X5.378Y-5.4882
X5.3917Y-3.6909
X5.3996Y-6.376
X5.4055Y-2.628
X5.4055Y-3.5807
X5.437Y-6.376
X5.4409Y-5.2638
X5.4409Y-5.4134
X5.4409Y-5.4528
X5.4429Y-2.628
X5.4606Y-5.4331
X5.4744Y-6.376
X5.4803Y-2.628
X5.4803Y-5.4134
X5.4803Y-5.4528
X5.5Y-3.1575
X5.5118Y-6.376
X5.5177Y-2.628
X5.5335Y-5.7106
X5.5335Y-5.75
X5.5335Y-6.0748
X5.5335Y-6.1142
X5.5354Y-3.7303
X5.5354Y-3.7717
X5.5354Y-3.8091
X5.5492Y-6.376
X5.5512Y-3.0157
X5.5531Y-5.7303
X5.5531Y-6.0945
X5.5551Y-2.628
X5.5728Y-5.7106
X5.5728Y-5.75
X5.5728Y-6.0748
X5.5728Y-6.1142
X5.5866Y-6.376
X5.5925Y-2.628
X5.5984Y-4.9902
X5.5984Y-5.0197
X5.6142Y-4.0689
X5.624Y-6.376
X5.6299Y-2.628
X5.6299Y-2.9606
X5.6319Y-4.9902
X5.6319Y-5.0197
X5.6614Y-6.376
X5.6673Y-2.628
X5.6988Y-6.376
X5.7047Y-2.628
X5.7362Y-6.376
X5.7421Y-2.628
X5.7736Y-6.376
X5.7795Y-2.628
X5.7972Y-5.8583
X5.7972Y-5.8878
X5.811Y-6.376
X5.8169Y-2.628
X5.8307Y-5.8583
X5.8307Y-5.8878
X5.8484Y-6.376
X5.8543Y-2.628
X5.8858Y-6.376
X5.8917Y-2.628
X5.9232Y-6.376
X5.9291Y-2.628
X5.9587Y-3.8406
X5.9587Y-3.8701
X5.9606Y-6.376
X5.9665Y-2.628
X5.998Y-6.376
X6.0039Y-2.628
T3
X5.7459Y-3.0325
X5.7469Y-2.7559
X5.8459Y-3.1325
X5.8469Y-2.8559
X5.9459Y-3.0325
X5.9469Y-2.7559
T4
X5.5972Y-3.4138
X5.5972Y-3.5138
X5.5972Y-5.3823
X5.5972Y-5.4823
T5
X5.5993Y-4.4488
X5.5993Y-4.5472
X5.6781Y-4.4488
X5.6781Y-4.5472
T6
X3.8859Y-3.0295
X3.8859Y-3.1295
X3.8859Y-3.2295
X3.8859Y-3.3295
X4.9861Y-2.8945
X4.9861Y-2.9945
X4.9861Y-3.0945
X4.9861Y-3.1945
X4.9861Y-3.2945
X5.0861Y-2.8945
X5.0861Y-2.9945
X5.0861Y-3.0945
X5.0861Y-3.1945
X5.0861Y-3.2945
X5.315Y-2.798
X5.315Y-2.898
X5.315Y-3.0679
X5.315Y-3.1679
T7
X5.7972Y-3.3138
X5.7972Y-3.7138
X5.7972Y-5.2823
X5.7972Y-5.6823
T8
X5.7847Y-4.261
X5.7847Y-4.735
T9
X4.7008Y-4.3445
X4.7008Y-4.6516
M30
