%TF.GenerationSoftware,KiCad,Pcbnew,8.0.0*%
%TF.CreationDate,2024-10-10T18:55:31+02:00*%
%TF.ProjectId,Profiler energetyczny urz_dze_ IoT,50726f66-696c-4657-9220-656e65726765,rev?*%
%TF.SameCoordinates,Original*%
%TF.FileFunction,Soldermask,Bot*%
%TF.FilePolarity,Negative*%
%FSLAX46Y46*%
G04 Gerber Fmt 4.6, Leading zero omitted, Abs format (unit mm)*
G04 Created by KiCad (PCBNEW 8.0.0) date 2024-10-10 18:55:31*
%MOMM*%
%LPD*%
G01*
G04 APERTURE LIST*
G04 Aperture macros list*
%AMRoundRect*
0 Rectangle with rounded corners*
0 $1 Rounding radius*
0 $2 $3 $4 $5 $6 $7 $8 $9 X,Y pos of 4 corners*
0 Add a 4 corners polygon primitive as box body*
4,1,4,$2,$3,$4,$5,$6,$7,$8,$9,$2,$3,0*
0 Add four circle primitives for the rounded corners*
1,1,$1+$1,$2,$3*
1,1,$1+$1,$4,$5*
1,1,$1+$1,$6,$7*
1,1,$1+$1,$8,$9*
0 Add four rect primitives between the rounded corners*
20,1,$1+$1,$2,$3,$4,$5,0*
20,1,$1+$1,$4,$5,$6,$7,0*
20,1,$1+$1,$6,$7,$8,$9,0*
20,1,$1+$1,$8,$9,$2,$3,0*%
%AMFreePoly0*
4,1,6,1.000000,0.000000,0.500000,-0.750000,-0.500000,-0.750000,-0.500000,0.750000,0.500000,0.750000,1.000000,0.000000,1.000000,0.000000,$1*%
%AMFreePoly1*
4,1,6,0.500000,-0.750000,-0.650000,-0.750000,-0.150000,0.000000,-0.650000,0.750000,0.500000,0.750000,0.500000,-0.750000,0.500000,-0.750000,$1*%
G04 Aperture macros list end*
%ADD10RoundRect,0.250000X-0.600000X-0.600000X0.600000X-0.600000X0.600000X0.600000X-0.600000X0.600000X0*%
%ADD11C,1.700000*%
%ADD12R,1.700000X1.700000*%
%ADD13O,1.700000X1.700000*%
%ADD14C,3.500000*%
%ADD15C,1.440000*%
%ADD16C,4.400000*%
%ADD17RoundRect,0.250002X-1.699998X1.699998X-1.699998X-1.699998X1.699998X-1.699998X1.699998X1.699998X0*%
%ADD18C,3.900000*%
%ADD19O,2.500000X1.600000*%
%ADD20O,7.000000X3.500000*%
%ADD21FreePoly0,0.000000*%
%ADD22FreePoly1,0.000000*%
G04 APERTURE END LIST*
D10*
%TO.C,U1*%
X126647500Y-73520000D03*
D11*
X129187500Y-73520000D03*
X126647500Y-76060000D03*
X129187500Y-76060000D03*
X126647500Y-78600000D03*
X129187500Y-78600000D03*
X126647500Y-81140000D03*
X129187500Y-81140000D03*
X126647500Y-83680000D03*
X129187500Y-83680000D03*
%TD*%
D12*
%TO.C,J3*%
X135000000Y-73610000D03*
D13*
X135000000Y-71070000D03*
%TD*%
D12*
%TO.C,J1*%
X142222500Y-113000000D03*
D11*
X142222500Y-115500000D03*
X144222500Y-115500000D03*
X144222500Y-113000000D03*
D14*
X146932500Y-108230000D03*
X146932500Y-120270000D03*
%TD*%
D15*
%TO.C,RV1*%
X151050000Y-70000000D03*
X148510000Y-72540000D03*
X145970000Y-70000000D03*
%TD*%
D12*
%TO.C,J2*%
X135000000Y-77925000D03*
D13*
X135000000Y-80465000D03*
%TD*%
D16*
%TO.C,J5*%
X105125000Y-110350000D03*
X105125000Y-118150000D03*
D17*
X119400000Y-110350000D03*
D18*
X119400000Y-118150000D03*
%TD*%
D19*
%TO.C,J7*%
X142170000Y-89250000D03*
D20*
X147250000Y-84170000D03*
D19*
X142170000Y-86710000D03*
D20*
X147250000Y-94330000D03*
%TD*%
D15*
%TO.C,RV2*%
X151025000Y-77025000D03*
X148485000Y-79565000D03*
X145945000Y-77025000D03*
%TD*%
D19*
%TO.C,J6*%
X142170000Y-139250000D03*
D20*
X147250000Y-134170000D03*
D19*
X142170000Y-136710000D03*
D20*
X147250000Y-144330000D03*
%TD*%
D12*
%TO.C,J4*%
X98702500Y-76950000D03*
D13*
X98702500Y-79490000D03*
X98702500Y-82030000D03*
X98702500Y-84570000D03*
%TD*%
D21*
%TO.C,JP2*%
X126273214Y-116200000D03*
X126273214Y-117700000D03*
X126273214Y-119200000D03*
X126273214Y-120700000D03*
D22*
X127723214Y-116200000D03*
X127723214Y-117700000D03*
X127723214Y-119200000D03*
X127723214Y-120700000D03*
%TD*%
G36*
X153693039Y-160819685D02*
G01*
X153738794Y-160872489D01*
X153750000Y-160924000D01*
X153750000Y-163126000D01*
X153730315Y-163193039D01*
X153677511Y-163238794D01*
X153626000Y-163250000D01*
X95124000Y-163250000D01*
X95056961Y-163230315D01*
X95011206Y-163177511D01*
X95000000Y-163126000D01*
X95000000Y-160924000D01*
X95019685Y-160856961D01*
X95072489Y-160811206D01*
X95124000Y-160800000D01*
X153626000Y-160800000D01*
X153693039Y-160819685D01*
G37*
G36*
X153693039Y-65269685D02*
G01*
X153738794Y-65322489D01*
X153750000Y-65374000D01*
X153750000Y-67626000D01*
X153730315Y-67693039D01*
X153677511Y-67738794D01*
X153626000Y-67750000D01*
X95124000Y-67750000D01*
X95056961Y-67730315D01*
X95011206Y-67677511D01*
X95000000Y-67626000D01*
X95000000Y-65374000D01*
X95019685Y-65306961D01*
X95072489Y-65261206D01*
X95124000Y-65250000D01*
X153626000Y-65250000D01*
X153693039Y-65269685D01*
G37*
M02*
