%TF.GenerationSoftware,KiCad,Pcbnew,8.0.0*%
%TF.CreationDate,2024-10-24T21:57:35+02:00*%
%TF.ProjectId,Profiler energetyczny urz_dze_ IoT,50726f66-696c-4657-9220-656e65726765,rev?*%
%TF.SameCoordinates,Original*%
%TF.FileFunction,Copper,L2,Inr*%
%TF.FilePolarity,Positive*%
%FSLAX46Y46*%
G04 Gerber Fmt 4.6, Leading zero omitted, Abs format (unit mm)*
G04 Created by KiCad (PCBNEW 8.0.0) date 2024-10-24 21:57:35*
%MOMM*%
%LPD*%
G01*
G04 APERTURE LIST*
G04 Aperture macros list*
%AMRoundRect*
0 Rectangle with rounded corners*
0 $1 Rounding radius*
0 $2 $3 $4 $5 $6 $7 $8 $9 X,Y pos of 4 corners*
0 Add a 4 corners polygon primitive as box body*
4,1,4,$2,$3,$4,$5,$6,$7,$8,$9,$2,$3,0*
0 Add four circle primitives for the rounded corners*
1,1,$1+$1,$2,$3*
1,1,$1+$1,$4,$5*
1,1,$1+$1,$6,$7*
1,1,$1+$1,$8,$9*
0 Add four rect primitives between the rounded corners*
20,1,$1+$1,$2,$3,$4,$5,0*
20,1,$1+$1,$4,$5,$6,$7,0*
20,1,$1+$1,$6,$7,$8,$9,0*
20,1,$1+$1,$8,$9,$2,$3,0*%
G04 Aperture macros list end*
%TA.AperFunction,HeatsinkPad*%
%ADD10C,0.500000*%
%TD*%
%TA.AperFunction,ComponentPad*%
%ADD11RoundRect,0.250000X-0.600000X-0.600000X0.600000X-0.600000X0.600000X0.600000X-0.600000X0.600000X0*%
%TD*%
%TA.AperFunction,ComponentPad*%
%ADD12C,1.700000*%
%TD*%
%TA.AperFunction,ComponentPad*%
%ADD13R,1.700000X1.700000*%
%TD*%
%TA.AperFunction,ComponentPad*%
%ADD14O,1.700000X1.700000*%
%TD*%
%TA.AperFunction,ComponentPad*%
%ADD15C,3.500000*%
%TD*%
%TA.AperFunction,ComponentPad*%
%ADD16C,1.440000*%
%TD*%
%TA.AperFunction,ComponentPad*%
%ADD17RoundRect,0.250002X-1.699998X1.699998X-1.699998X-1.699998X1.699998X-1.699998X1.699998X1.699998X0*%
%TD*%
%TA.AperFunction,ComponentPad*%
%ADD18C,3.900000*%
%TD*%
%TA.AperFunction,ComponentPad*%
%ADD19O,2.500000X1.600000*%
%TD*%
%TA.AperFunction,ComponentPad*%
%ADD20O,7.000000X3.500000*%
%TD*%
%TA.AperFunction,ViaPad*%
%ADD21C,0.400000*%
%TD*%
%TA.AperFunction,ViaPad*%
%ADD22C,0.600000*%
%TD*%
%TA.AperFunction,Conductor*%
%ADD23C,1.000000*%
%TD*%
%TA.AperFunction,Conductor*%
%ADD24C,0.457200*%
%TD*%
G04 APERTURE END LIST*
D10*
%TO.N,N/C*%
%TO.C,U7*%
X112305000Y-117515000D03*
X112305000Y-118315000D03*
X112305000Y-119115000D03*
X113405000Y-117515000D03*
X113405000Y-118315000D03*
X113405000Y-119115000D03*
%TD*%
D11*
%TO.N,Net-(U1-~{RESET})*%
%TO.C,U1*%
X126647500Y-73520000D03*
D12*
%TO.N,Net-(D15-A2)*%
X129187500Y-73520000D03*
%TO.N,unconnected-(U1-SWIM-Pad3)*%
X126647500Y-76060000D03*
%TO.N,Net-(D16-A2)*%
X129187500Y-76060000D03*
%TO.N,GND*%
X126647500Y-78600000D03*
X129187500Y-78600000D03*
%TO.N,3.3V*%
X126647500Y-81140000D03*
X129187500Y-81140000D03*
%TO.N,5V*%
X126647500Y-83680000D03*
X129187500Y-83680000D03*
%TD*%
D13*
%TO.N,3.3V*%
%TO.C,J3*%
X129225000Y-91450000D03*
D14*
%TO.N,+3.3V*%
X126685000Y-91450000D03*
%TD*%
D13*
%TO.N,+5V*%
%TO.C,J1*%
X142222500Y-113000000D03*
D12*
%TO.N,unconnected-(J1-D--Pad2)*%
X142222500Y-115500000D03*
%TO.N,unconnected-(J1-D+-Pad3)*%
X144222500Y-115500000D03*
%TO.N,GND*%
X144222500Y-113000000D03*
D15*
X146932500Y-108230000D03*
X146932500Y-120270000D03*
%TD*%
D16*
%TO.N,+2V5*%
%TO.C,RV1*%
X146900000Y-69500000D03*
%TO.N,Net-(U21-S3)*%
X144360000Y-72040000D03*
%TO.N,GND*%
X141820000Y-69500000D03*
%TD*%
D13*
%TO.N,5V*%
%TO.C,J2*%
X129225000Y-95300000D03*
D14*
%TO.N,+5V*%
X126685000Y-95300000D03*
%TD*%
D17*
%TO.N,/Pomiar pr\u0105du/IN+*%
%TO.C,J5*%
X122800000Y-127100000D03*
D18*
%TO.N,GND*%
X122800000Y-134900000D03*
%TD*%
D19*
%TO.N,/Sterowanie/Uz*%
%TO.C,J7*%
X142170000Y-89250000D03*
D20*
%TO.N,GND*%
X147250000Y-84170000D03*
D19*
X142170000Y-86710000D03*
D20*
X147250000Y-94330000D03*
%TD*%
D16*
%TO.N,+2V5*%
%TO.C,RV2*%
X146875000Y-76525000D03*
%TO.N,Net-(U21-S2)*%
X144335000Y-79065000D03*
%TO.N,GND*%
X141795000Y-76525000D03*
%TD*%
D19*
%TO.N,/Sterowanie/UI*%
%TO.C,J6*%
X142170000Y-139250000D03*
D20*
%TO.N,GND*%
X147250000Y-134170000D03*
D19*
X142170000Y-136710000D03*
D20*
X147250000Y-144330000D03*
%TD*%
D13*
%TO.N,+3.3V*%
%TO.C,J4*%
X98702500Y-76950000D03*
D14*
%TO.N,Net-(D19-A2)*%
X98702500Y-79490000D03*
%TO.N,Net-(D20-A2)*%
X98702500Y-82030000D03*
%TO.N,GND*%
X98702500Y-84570000D03*
%TD*%
D21*
%TO.N,+5V*%
X143050000Y-127600000D03*
X147400000Y-99650000D03*
X142400000Y-126350000D03*
X143050000Y-126950000D03*
X147400000Y-99050000D03*
X112515000Y-121137500D03*
X142400000Y-128250000D03*
X111915000Y-121137500D03*
X146750000Y-99650000D03*
X111915000Y-121787500D03*
X143050000Y-126350000D03*
X146750000Y-99050000D03*
X142400000Y-127600000D03*
X112515000Y-121787500D03*
X142400000Y-126950000D03*
X143050000Y-128250000D03*
D22*
%TO.N,GND*%
X123050000Y-66750000D03*
X136350000Y-66750000D03*
X142850000Y-161950000D03*
X98350000Y-66750000D03*
X103100000Y-66750000D03*
X135250000Y-161950000D03*
X148700000Y-66750000D03*
X119100000Y-161950000D03*
X137300000Y-66750000D03*
X119250000Y-66750000D03*
X102000000Y-161950000D03*
X109750000Y-66750000D03*
X97400000Y-66750000D03*
X133500000Y-66750000D03*
X130500000Y-161950000D03*
X121950000Y-161950000D03*
X100100000Y-161950000D03*
X105950000Y-66750000D03*
X99150000Y-161950000D03*
X147600000Y-161950000D03*
X124000000Y-66750000D03*
X121000000Y-161950000D03*
X139050000Y-161950000D03*
X103900000Y-161950000D03*
X107850000Y-66750000D03*
D21*
X107250000Y-143662500D03*
D22*
X108650000Y-161950000D03*
X136200000Y-161950000D03*
X137150000Y-161950000D03*
X145700000Y-161950000D03*
X134800000Y-80450000D03*
X122100000Y-66750000D03*
X133350000Y-161950000D03*
X125750000Y-161950000D03*
X98200000Y-161950000D03*
X106750000Y-161950000D03*
X128600000Y-161950000D03*
X113950000Y-110650000D03*
X135400000Y-66750000D03*
X138250000Y-66750000D03*
X112450000Y-161950000D03*
X96300000Y-161950000D03*
X97250000Y-161950000D03*
X102950000Y-161950000D03*
X126850000Y-66750000D03*
X144750000Y-161950000D03*
X130650000Y-66750000D03*
X140950000Y-161950000D03*
X132400000Y-161950000D03*
X106900000Y-66750000D03*
X146650000Y-161950000D03*
X143950000Y-66750000D03*
X111500000Y-161950000D03*
X132550000Y-66750000D03*
X141100000Y-66750000D03*
X145850000Y-66750000D03*
X131450000Y-161950000D03*
X124950000Y-66750000D03*
X146800000Y-66750000D03*
X147750000Y-66750000D03*
X118150000Y-161950000D03*
X144900000Y-66750000D03*
X121150000Y-66750000D03*
X131600000Y-66750000D03*
X112600000Y-66750000D03*
X141900000Y-161950000D03*
X143000000Y-66750000D03*
X127800000Y-66750000D03*
X107700000Y-161950000D03*
X115450000Y-66750000D03*
X100250000Y-66750000D03*
X116250000Y-161950000D03*
X111700000Y-86400000D03*
X120050000Y-161950000D03*
X140150000Y-66750000D03*
X129700000Y-66750000D03*
X113400000Y-161950000D03*
X129550000Y-161950000D03*
X148550000Y-161950000D03*
X110700000Y-66750000D03*
X137850000Y-73000000D03*
X138100000Y-161950000D03*
X116350000Y-82650000D03*
X118850000Y-82300000D03*
X114500000Y-66750000D03*
X102150000Y-66750000D03*
X123850000Y-161950000D03*
X134450000Y-66750000D03*
X108800000Y-66750000D03*
X104050000Y-66750000D03*
X118300000Y-66750000D03*
X99300000Y-66750000D03*
X124800000Y-161950000D03*
X111250000Y-107000000D03*
X125900000Y-66750000D03*
X104850000Y-161950000D03*
X105800000Y-161950000D03*
X126700000Y-161950000D03*
X142050000Y-66750000D03*
X109600000Y-161950000D03*
X111700000Y-85650000D03*
X134300000Y-161950000D03*
X117200000Y-161950000D03*
X111650000Y-66750000D03*
X101050000Y-161950000D03*
D21*
X107900000Y-143662500D03*
D22*
X128750000Y-66750000D03*
X96450000Y-66750000D03*
X110550000Y-161950000D03*
X113550000Y-66750000D03*
X101200000Y-66750000D03*
X143800000Y-161950000D03*
X116400000Y-66750000D03*
X120200000Y-66750000D03*
X122900000Y-161950000D03*
X115300000Y-161950000D03*
X139200000Y-66750000D03*
X115900000Y-82100000D03*
X140000000Y-161950000D03*
X105000000Y-66750000D03*
X117350000Y-66750000D03*
X127650000Y-161950000D03*
X114350000Y-161950000D03*
%TO.N,Net-(U1-~{RESET})*%
X107445100Y-74750000D03*
X124950000Y-74250000D03*
D21*
%TO.N,+3.3V*%
X120750000Y-78500000D03*
X119450000Y-84550000D03*
X135300000Y-70200000D03*
X120700000Y-69650000D03*
X131200000Y-137800000D03*
X118800000Y-84550000D03*
X108350000Y-84550000D03*
X120100000Y-78500000D03*
X120050000Y-70250000D03*
X103450000Y-84550000D03*
X109000000Y-84550000D03*
X131150000Y-102550000D03*
X103450000Y-83950000D03*
X135950000Y-70800000D03*
X131800000Y-102550000D03*
X120100000Y-77900000D03*
X109000000Y-83950000D03*
X131200000Y-137200000D03*
X120050000Y-69650000D03*
X131800000Y-101250000D03*
X102800000Y-83950000D03*
X114200000Y-84550000D03*
X131800000Y-101900000D03*
X113550000Y-83950000D03*
X113550000Y-84550000D03*
X131150000Y-101900000D03*
X131150000Y-101250000D03*
X131850000Y-137800000D03*
X131800000Y-100650000D03*
X102800000Y-84550000D03*
X131850000Y-137200000D03*
X131150000Y-100650000D03*
X119450000Y-83950000D03*
X118800000Y-83950000D03*
X135300000Y-70800000D03*
X114200000Y-83950000D03*
X120700000Y-70250000D03*
X120750000Y-77900000D03*
X135950000Y-70200000D03*
X108350000Y-83950000D03*
%TO.N,+5VA*%
X146750000Y-155750000D03*
X149550000Y-126900000D03*
X144950000Y-148375000D03*
X149550000Y-126300000D03*
X149550000Y-128200000D03*
X120600000Y-101387500D03*
X149550000Y-127550000D03*
X150200000Y-127550000D03*
X146100000Y-155750000D03*
X146750000Y-155150000D03*
X144350000Y-149025000D03*
X150200000Y-126300000D03*
X141400000Y-152200000D03*
X142050000Y-152200000D03*
X150200000Y-128200000D03*
X120000000Y-101387500D03*
X120000000Y-100737500D03*
X120600000Y-100737500D03*
X150200000Y-126900000D03*
X144950000Y-149025000D03*
X144350000Y-148375000D03*
X146100000Y-155150000D03*
%TO.N,+2V5*%
X111500000Y-114000000D03*
X98300000Y-141362500D03*
X125950000Y-145650000D03*
X97650000Y-87700000D03*
X121100000Y-93150000D03*
X119950000Y-150662500D03*
X111900000Y-139562500D03*
X124700000Y-145650000D03*
X111500000Y-114600000D03*
X97650000Y-88300000D03*
X110850000Y-114600000D03*
X97650000Y-141962500D03*
X124050000Y-145000000D03*
X120450000Y-93150000D03*
X97650000Y-141362500D03*
X119950000Y-151262500D03*
X111900000Y-140162500D03*
X112550000Y-139562500D03*
X121100000Y-92550000D03*
X106250000Y-138062500D03*
X98300000Y-141962500D03*
X105600000Y-138062500D03*
X98300000Y-88300000D03*
X105600000Y-138662500D03*
X120600000Y-150662500D03*
X125350000Y-145650000D03*
X120600000Y-151262500D03*
X106250000Y-138662500D03*
X98300000Y-87700000D03*
X125350000Y-145000000D03*
X125950000Y-145000000D03*
X120450000Y-92550000D03*
X124700000Y-145000000D03*
X110850000Y-114000000D03*
X124050000Y-145650000D03*
X112550000Y-140162500D03*
%TO.N,-2V5*%
X107500000Y-146962500D03*
X105500000Y-158750000D03*
X105500000Y-160050000D03*
X105500000Y-158150000D03*
X104850000Y-158750000D03*
X113500000Y-147362500D03*
X104850000Y-160050000D03*
X115700000Y-106600000D03*
X115700000Y-147762500D03*
X108150000Y-146962500D03*
X98600000Y-148312500D03*
X116350000Y-105950000D03*
X116350000Y-147762500D03*
X116350000Y-106600000D03*
X99250000Y-148312500D03*
X112850000Y-146712500D03*
X107500000Y-147612500D03*
X115700000Y-105950000D03*
X115700000Y-148412500D03*
X98600000Y-147662500D03*
X99250000Y-147662500D03*
X108150000Y-147612500D03*
X116350000Y-148412500D03*
X104850000Y-159400000D03*
X113500000Y-146712500D03*
X104850000Y-158150000D03*
X105500000Y-159400000D03*
X112850000Y-147362500D03*
D22*
%TO.N,Net-(Q2-G)*%
X116900000Y-137462500D03*
%TO.N,/Pomiar pr\u0105du/V3*%
X108700000Y-110500000D03*
X132700000Y-142000000D03*
%TO.N,/Pomiar pr\u0105du/V1*%
X119200000Y-89450000D03*
X99600000Y-142362500D03*
X135450000Y-139500000D03*
%TO.N,/Sterowanie/A0*%
X136000000Y-138450000D03*
X114650000Y-78888600D03*
X137600000Y-75950000D03*
%TO.N,/Sterowanie/UP1*%
X121127500Y-86750000D03*
X113900000Y-81150000D03*
%TO.N,/Pomiar pr\u0105du/M1*%
X115550000Y-79650000D03*
%TO.N,/Pomiar pr\u0105du/M2*%
X111400000Y-117365000D03*
X113050000Y-77400000D03*
%TO.N,/Sterowanie/A1*%
X136500000Y-139500000D03*
X114650000Y-80300000D03*
X136750000Y-87350000D03*
X135050000Y-86450000D03*
X137600000Y-77300000D03*
%TO.N,/Pomiar pr\u0105du/V2*%
X129450000Y-135350000D03*
X113927500Y-89450000D03*
%TD*%
D23*
%TO.N,+5V*%
X143050000Y-126350000D02*
X142400000Y-126350000D01*
X112550000Y-121100000D02*
X112550000Y-121700000D01*
D24*
X111915000Y-121787500D02*
X111915000Y-121737500D01*
D23*
X111900000Y-121100000D02*
X112550000Y-121100000D01*
X112550000Y-121700000D02*
X111900000Y-121700000D01*
D24*
X111915000Y-121737500D02*
X112515000Y-121137500D01*
D23*
X111900000Y-121700000D02*
X111900000Y-121100000D01*
%TO.N,+3.3V*%
X131200000Y-137800000D02*
X131200000Y-137200000D01*
D24*
X118800000Y-83950000D02*
X119450000Y-83950000D01*
X118800000Y-83950000D02*
X118800000Y-84550000D01*
D23*
X131850000Y-137800000D02*
X131200000Y-137800000D01*
D24*
X118800000Y-84550000D02*
X118850000Y-84550000D01*
X108350000Y-84550000D02*
X109000000Y-84550000D01*
X120100000Y-77900000D02*
X120100000Y-78500000D01*
X113550000Y-84550000D02*
X113550000Y-83950000D01*
D23*
X135300000Y-70200000D02*
X135950000Y-70200000D01*
X135950000Y-70200000D02*
X135950000Y-70800000D01*
X131850000Y-137200000D02*
X131850000Y-137800000D01*
D24*
X114150000Y-83950000D02*
X113550000Y-84550000D01*
D23*
X135300000Y-70800000D02*
X135300000Y-70200000D01*
X120050000Y-69650000D02*
X120700000Y-69650000D01*
X120700000Y-70250000D02*
X120050000Y-70250000D01*
D24*
X109000000Y-84550000D02*
X109000000Y-83950000D01*
X108350000Y-84550000D02*
X108400000Y-84550000D01*
X114200000Y-84550000D02*
X114200000Y-83950000D01*
X135300000Y-70800000D02*
X135350000Y-70800000D01*
D23*
X102800000Y-83950000D02*
X103450000Y-83950000D01*
X135950000Y-70800000D02*
X135300000Y-70800000D01*
D24*
X119450000Y-84550000D02*
X119450000Y-83950000D01*
X135350000Y-70800000D02*
X135950000Y-70200000D01*
X120100000Y-78500000D02*
X120150000Y-78500000D01*
X120100000Y-78500000D02*
X120750000Y-78500000D01*
X120750000Y-77900000D02*
X120750000Y-78500000D01*
D23*
X103450000Y-84550000D02*
X102800000Y-84550000D01*
D24*
X120650000Y-70250000D02*
X120050000Y-69650000D01*
X120050000Y-70250000D02*
X120700000Y-70250000D01*
D23*
X102800000Y-84550000D02*
X102800000Y-83950000D01*
X131200000Y-137200000D02*
X131850000Y-137200000D01*
D24*
X102800000Y-84550000D02*
X102850000Y-84550000D01*
X108400000Y-84550000D02*
X109000000Y-83950000D01*
X120150000Y-78500000D02*
X120750000Y-77900000D01*
X118800000Y-84550000D02*
X119450000Y-84550000D01*
X120750000Y-77900000D02*
X120100000Y-77900000D01*
X113550000Y-84550000D02*
X114200000Y-84550000D01*
X103450000Y-83950000D02*
X102800000Y-83950000D01*
X114200000Y-83950000D02*
X114150000Y-83950000D01*
D23*
X120700000Y-69650000D02*
X120700000Y-70250000D01*
D24*
X102850000Y-84550000D02*
X103450000Y-83950000D01*
D23*
X103450000Y-83950000D02*
X103450000Y-84550000D01*
D24*
X103450000Y-84550000D02*
X103450000Y-83950000D01*
D23*
X120050000Y-70250000D02*
X120050000Y-69650000D01*
D24*
X113550000Y-83950000D02*
X114200000Y-83950000D01*
X108350000Y-83950000D02*
X109000000Y-83950000D01*
X120700000Y-70250000D02*
X120650000Y-70250000D01*
X108350000Y-84550000D02*
X108350000Y-83950000D01*
X118850000Y-84550000D02*
X119450000Y-83950000D01*
D23*
%TO.N,+5VA*%
X120600000Y-100750000D02*
X120600000Y-101350000D01*
X146750000Y-155750000D02*
X146100000Y-155750000D01*
D24*
X144350000Y-148425000D02*
X144950000Y-149025000D01*
D23*
X146750000Y-155150000D02*
X146750000Y-155750000D01*
X149550000Y-126300000D02*
X149550000Y-128200000D01*
D24*
X120600000Y-101387500D02*
X120600000Y-101337500D01*
D23*
X141400000Y-152200000D02*
X142050000Y-152200000D01*
D24*
X144350000Y-148375000D02*
X144350000Y-148425000D01*
X144350000Y-148375000D02*
X144350000Y-149025000D01*
D23*
X144950000Y-148350000D02*
X144950000Y-148950000D01*
X119950000Y-101350000D02*
X119950000Y-100750000D01*
X144300000Y-148350000D02*
X144950000Y-148350000D01*
X120600000Y-101350000D02*
X119950000Y-101350000D01*
X146100000Y-155750000D02*
X146100000Y-155150000D01*
D24*
X120600000Y-101337500D02*
X120000000Y-100737500D01*
D23*
X119950000Y-100750000D02*
X120600000Y-100750000D01*
D24*
X120000000Y-101387500D02*
X120600000Y-101387500D01*
D23*
X144950000Y-148950000D02*
X144300000Y-148950000D01*
X144300000Y-148950000D02*
X144300000Y-148350000D01*
X146100000Y-155150000D02*
X146750000Y-155150000D01*
D24*
%TO.N,+2V5*%
X121100000Y-93150000D02*
X120450000Y-93150000D01*
D23*
X111900000Y-140150000D02*
X111900000Y-139550000D01*
X97650000Y-88300000D02*
X97650000Y-87700000D01*
X111500000Y-114600000D02*
X110850000Y-114600000D01*
X97650000Y-87700000D02*
X98300000Y-87700000D01*
X112550000Y-140150000D02*
X111900000Y-140150000D01*
D24*
X120500000Y-92550000D02*
X121100000Y-93150000D01*
D23*
X98300000Y-87700000D02*
X98300000Y-88300000D01*
X106250000Y-138062500D02*
X106250000Y-138662500D01*
D24*
X110850000Y-114000000D02*
X111500000Y-114000000D01*
D23*
X121150000Y-92550000D02*
X121150000Y-93150000D01*
X98300000Y-88300000D02*
X97650000Y-88300000D01*
X112550000Y-139550000D02*
X112550000Y-140150000D01*
X110850000Y-114000000D02*
X111500000Y-114000000D01*
X97650000Y-141962500D02*
X98300000Y-141962500D01*
X119950000Y-150650000D02*
X120600000Y-150650000D01*
X119950000Y-151250000D02*
X119950000Y-150650000D01*
D24*
X120450000Y-93150000D02*
X120450000Y-92550000D01*
D23*
X105600000Y-138662500D02*
X105600000Y-138062500D01*
X110850000Y-114600000D02*
X110850000Y-114000000D01*
X98300000Y-141362500D02*
X98300000Y-141962500D01*
X97650000Y-141362500D02*
X97650000Y-141962500D01*
X111500000Y-114000000D02*
X111500000Y-114600000D01*
X111900000Y-139550000D02*
X112550000Y-139550000D01*
X121150000Y-93150000D02*
X120500000Y-93150000D01*
X120600000Y-151250000D02*
X119950000Y-151250000D01*
X120600000Y-150650000D02*
X120600000Y-151250000D01*
D24*
X111450000Y-114000000D02*
X110850000Y-114600000D01*
X120450000Y-92550000D02*
X121100000Y-92550000D01*
D23*
X106250000Y-138662500D02*
X105600000Y-138662500D01*
D24*
X111500000Y-114000000D02*
X111450000Y-114000000D01*
D23*
X120500000Y-92550000D02*
X121150000Y-92550000D01*
X105600000Y-138062500D02*
X106250000Y-138062500D01*
X120500000Y-93150000D02*
X120500000Y-92550000D01*
D24*
X121100000Y-92550000D02*
X121100000Y-93150000D01*
X120450000Y-92550000D02*
X120500000Y-92550000D01*
D23*
X98300000Y-141362500D02*
X97650000Y-141362500D01*
%TO.N,-2V5*%
X113450000Y-146800000D02*
X113450000Y-147400000D01*
X112800000Y-146800000D02*
X113450000Y-146800000D01*
X112800000Y-147400000D02*
X112800000Y-146800000D01*
X99250000Y-147662500D02*
X98600000Y-147662500D01*
X115700000Y-147800000D02*
X116350000Y-147800000D01*
X98600000Y-147662500D02*
X98600000Y-148312500D01*
D24*
X115850000Y-105950000D02*
X116500000Y-106600000D01*
D23*
X113450000Y-147400000D02*
X112800000Y-147400000D01*
X107500000Y-146950000D02*
X108150000Y-146950000D01*
X108150000Y-146950000D02*
X108150000Y-147550000D01*
D24*
X115850000Y-105950000D02*
X116500000Y-105950000D01*
D23*
X99250000Y-147662500D02*
X99250000Y-148312500D01*
X116350000Y-148400000D02*
X115700000Y-148400000D01*
X116350000Y-147800000D02*
X116350000Y-148400000D01*
X116350000Y-106550000D02*
X115700000Y-106550000D01*
X115700000Y-105950000D02*
X116350000Y-105950000D01*
X115700000Y-148400000D02*
X115700000Y-147800000D01*
X116350000Y-105950000D02*
X116350000Y-106550000D01*
D24*
X116500000Y-106600000D02*
X115850000Y-106600000D01*
D23*
X115700000Y-106550000D02*
X115700000Y-105950000D01*
X108150000Y-147550000D02*
X107500000Y-147550000D01*
X107500000Y-147550000D02*
X107500000Y-146950000D01*
X99250000Y-148312500D02*
X98600000Y-148312500D01*
D24*
X115850000Y-106600000D02*
X115850000Y-105950000D01*
X116500000Y-105950000D02*
X116500000Y-106600000D01*
%TD*%
%TA.AperFunction,Conductor*%
%TO.N,+3.3V*%
G36*
X114643039Y-83469685D02*
G01*
X114688794Y-83522489D01*
X114700000Y-83574000D01*
X114700000Y-84926000D01*
X114680315Y-84993039D01*
X114627511Y-85038794D01*
X114576000Y-85050000D01*
X113174000Y-85050000D01*
X113106961Y-85030315D01*
X113061206Y-84977511D01*
X113050000Y-84926000D01*
X113050000Y-83574000D01*
X113069685Y-83506961D01*
X113122489Y-83461206D01*
X113174000Y-83450000D01*
X114576000Y-83450000D01*
X114643039Y-83469685D01*
G37*
%TD.AperFunction*%
%TD*%
%TA.AperFunction,Conductor*%
%TO.N,+2V5*%
G36*
X121543039Y-92069685D02*
G01*
X121588794Y-92122489D01*
X121600000Y-92174000D01*
X121600000Y-93526000D01*
X121580315Y-93593039D01*
X121527511Y-93638794D01*
X121476000Y-93650000D01*
X120074000Y-93650000D01*
X120006961Y-93630315D01*
X119961206Y-93577511D01*
X119950000Y-93526000D01*
X119950000Y-92174000D01*
X119969685Y-92106961D01*
X120022489Y-92061206D01*
X120074000Y-92050000D01*
X121476000Y-92050000D01*
X121543039Y-92069685D01*
G37*
%TD.AperFunction*%
%TD*%
%TA.AperFunction,Conductor*%
%TO.N,+3.3V*%
G36*
X109443039Y-83469685D02*
G01*
X109488794Y-83522489D01*
X109500000Y-83574000D01*
X109500000Y-84926000D01*
X109480315Y-84993039D01*
X109427511Y-85038794D01*
X109376000Y-85050000D01*
X107974000Y-85050000D01*
X107906961Y-85030315D01*
X107861206Y-84977511D01*
X107850000Y-84926000D01*
X107850000Y-83574000D01*
X107869685Y-83506961D01*
X107922489Y-83461206D01*
X107974000Y-83450000D01*
X109376000Y-83450000D01*
X109443039Y-83469685D01*
G37*
%TD.AperFunction*%
%TD*%
%TA.AperFunction,Conductor*%
%TO.N,+2V5*%
G36*
X126343039Y-144469685D02*
G01*
X126388794Y-144522489D01*
X126400000Y-144574000D01*
X126400000Y-146676000D01*
X126380315Y-146743039D01*
X126327511Y-146788794D01*
X126276000Y-146800000D01*
X124350000Y-146800000D01*
X123724000Y-146800000D01*
X123656961Y-146780315D01*
X123611206Y-146727511D01*
X123600000Y-146676000D01*
X123600000Y-144574000D01*
X123619685Y-144506961D01*
X123672489Y-144461206D01*
X123724000Y-144450000D01*
X126276000Y-144450000D01*
X126343039Y-144469685D01*
G37*
%TD.AperFunction*%
%TD*%
%TA.AperFunction,Conductor*%
%TO.N,-2V5*%
G36*
X106593039Y-157719685D02*
G01*
X106638794Y-157772489D01*
X106650000Y-157824000D01*
X106650000Y-160376000D01*
X106630315Y-160443039D01*
X106577511Y-160488794D01*
X106526000Y-160500000D01*
X104474000Y-160500000D01*
X104406961Y-160480315D01*
X104361206Y-160427511D01*
X104350000Y-160376000D01*
X104350000Y-157824000D01*
X104369685Y-157756961D01*
X104422489Y-157711206D01*
X104474000Y-157700000D01*
X106526000Y-157700000D01*
X106593039Y-157719685D01*
G37*
%TD.AperFunction*%
%TD*%
%TA.AperFunction,Conductor*%
%TO.N,+3.3V*%
G36*
X119793039Y-83469685D02*
G01*
X119838794Y-83522489D01*
X119850000Y-83574000D01*
X119850000Y-84926000D01*
X119830315Y-84993039D01*
X119777511Y-85038794D01*
X119726000Y-85050000D01*
X118324000Y-85050000D01*
X118256961Y-85030315D01*
X118211206Y-84977511D01*
X118200000Y-84926000D01*
X118200000Y-83574000D01*
X118219685Y-83506961D01*
X118272489Y-83461206D01*
X118324000Y-83450000D01*
X119726000Y-83450000D01*
X119793039Y-83469685D01*
G37*
%TD.AperFunction*%
%TD*%
%TA.AperFunction,Conductor*%
%TO.N,+3.3V*%
G36*
X136393039Y-69719685D02*
G01*
X136438794Y-69772489D01*
X136450000Y-69824000D01*
X136450000Y-71176000D01*
X136430315Y-71243039D01*
X136377511Y-71288794D01*
X136326000Y-71300000D01*
X134924000Y-71300000D01*
X134856961Y-71280315D01*
X134811206Y-71227511D01*
X134800000Y-71176000D01*
X134800000Y-69824000D01*
X134819685Y-69756961D01*
X134872489Y-69711206D01*
X134924000Y-69700000D01*
X136326000Y-69700000D01*
X136393039Y-69719685D01*
G37*
%TD.AperFunction*%
%TD*%
%TA.AperFunction,Conductor*%
%TO.N,+3.3V*%
G36*
X121143039Y-77419685D02*
G01*
X121188794Y-77472489D01*
X121200000Y-77524000D01*
X121200000Y-78876000D01*
X121180315Y-78943039D01*
X121127511Y-78988794D01*
X121076000Y-79000000D01*
X119674000Y-79000000D01*
X119606961Y-78980315D01*
X119561206Y-78927511D01*
X119550000Y-78876000D01*
X119550000Y-77524000D01*
X119569685Y-77456961D01*
X119622489Y-77411206D01*
X119674000Y-77400000D01*
X121076000Y-77400000D01*
X121143039Y-77419685D01*
G37*
%TD.AperFunction*%
%TD*%
%TA.AperFunction,Conductor*%
%TO.N,+2V5*%
G36*
X98743039Y-87219685D02*
G01*
X98788794Y-87272489D01*
X98800000Y-87324000D01*
X98800000Y-88676000D01*
X98780315Y-88743039D01*
X98727511Y-88788794D01*
X98676000Y-88800000D01*
X97274000Y-88800000D01*
X97206961Y-88780315D01*
X97161206Y-88727511D01*
X97150000Y-88676000D01*
X97150000Y-87324000D01*
X97169685Y-87256961D01*
X97222489Y-87211206D01*
X97274000Y-87200000D01*
X98676000Y-87200000D01*
X98743039Y-87219685D01*
G37*
%TD.AperFunction*%
%TD*%
%TA.AperFunction,Conductor*%
%TO.N,+3.3V*%
G36*
X121143039Y-69169685D02*
G01*
X121188794Y-69222489D01*
X121200000Y-69274000D01*
X121200000Y-70626000D01*
X121180315Y-70693039D01*
X121127511Y-70738794D01*
X121076000Y-70750000D01*
X119674000Y-70750000D01*
X119606961Y-70730315D01*
X119561206Y-70677511D01*
X119550000Y-70626000D01*
X119550000Y-69274000D01*
X119569685Y-69206961D01*
X119622489Y-69161206D01*
X119674000Y-69150000D01*
X121076000Y-69150000D01*
X121143039Y-69169685D01*
G37*
%TD.AperFunction*%
%TD*%
%TA.AperFunction,Conductor*%
%TO.N,+3.3V*%
G36*
X132893039Y-100219685D02*
G01*
X132938794Y-100272489D01*
X132950000Y-100324000D01*
X132950000Y-102876000D01*
X132930315Y-102943039D01*
X132877511Y-102988794D01*
X132826000Y-103000000D01*
X130724000Y-103000000D01*
X130656961Y-102980315D01*
X130611206Y-102927511D01*
X130600000Y-102876000D01*
X130600000Y-100324000D01*
X130619685Y-100256961D01*
X130672489Y-100211206D01*
X130724000Y-100200000D01*
X132826000Y-100200000D01*
X132893039Y-100219685D01*
G37*
%TD.AperFunction*%
%TD*%
%TA.AperFunction,Conductor*%
%TO.N,+3.3V*%
G36*
X103793039Y-83469685D02*
G01*
X103838794Y-83522489D01*
X103850000Y-83574000D01*
X103850000Y-84926000D01*
X103830315Y-84993039D01*
X103777511Y-85038794D01*
X103726000Y-85050000D01*
X102324000Y-85050000D01*
X102256961Y-85030315D01*
X102211206Y-84977511D01*
X102200000Y-84926000D01*
X102200000Y-83574000D01*
X102219685Y-83506961D01*
X102272489Y-83461206D01*
X102324000Y-83450000D01*
X103726000Y-83450000D01*
X103793039Y-83469685D01*
G37*
%TD.AperFunction*%
%TD*%
%TA.AperFunction,Conductor*%
%TO.N,GND*%
G36*
X128002355Y-76726546D02*
G01*
X128019075Y-76745842D01*
X128149000Y-76931395D01*
X128149005Y-76931401D01*
X128316099Y-77098495D01*
X128377455Y-77141457D01*
X128509665Y-77234032D01*
X128509667Y-77234033D01*
X128509670Y-77234035D01*
X128709055Y-77327010D01*
X128761493Y-77373181D01*
X128780645Y-77440375D01*
X128760429Y-77507256D01*
X128707264Y-77552590D01*
X128701445Y-77555017D01*
X128672710Y-77566149D01*
X128672701Y-77566154D01*
X128570492Y-77629438D01*
X128570491Y-77629439D01*
X129058090Y-78117037D01*
X128994507Y-78134075D01*
X128880493Y-78199901D01*
X128787401Y-78292993D01*
X128721575Y-78407007D01*
X128704537Y-78470589D01*
X128214336Y-77980388D01*
X128205559Y-77992010D01*
X128110566Y-78182783D01*
X128110558Y-78182803D01*
X128052238Y-78387780D01*
X128052237Y-78387783D01*
X128040971Y-78509371D01*
X128015185Y-78574309D01*
X127979033Y-78600204D01*
X128007003Y-78616248D01*
X128039193Y-78678261D01*
X128040971Y-78690628D01*
X128052237Y-78812216D01*
X128052238Y-78812219D01*
X128110558Y-79017196D01*
X128110564Y-79017211D01*
X128205561Y-79207991D01*
X128205564Y-79207996D01*
X128214336Y-79219610D01*
X128704537Y-78729409D01*
X128721575Y-78792993D01*
X128787401Y-78907007D01*
X128880493Y-79000099D01*
X128994507Y-79065925D01*
X129058090Y-79082962D01*
X128570491Y-79570559D01*
X128672704Y-79633847D01*
X128672708Y-79633849D01*
X128701442Y-79644981D01*
X128756844Y-79687554D01*
X128780435Y-79753320D01*
X128764724Y-79821401D01*
X128714701Y-79870180D01*
X128709054Y-79872990D01*
X128509671Y-79965964D01*
X128509669Y-79965965D01*
X128316097Y-80101505D01*
X128149005Y-80268597D01*
X128019075Y-80454158D01*
X127964498Y-80497783D01*
X127895000Y-80504977D01*
X127832645Y-80473454D01*
X127815925Y-80454158D01*
X127685994Y-80268597D01*
X127518902Y-80101506D01*
X127518895Y-80101501D01*
X127325334Y-79965967D01*
X127325330Y-79965965D01*
X127125945Y-79872990D01*
X127073506Y-79826818D01*
X127054354Y-79759624D01*
X127074570Y-79692743D01*
X127127735Y-79647408D01*
X127133558Y-79644981D01*
X127162288Y-79633851D01*
X127162298Y-79633846D01*
X127264506Y-79570560D01*
X127264506Y-79570559D01*
X126776910Y-79082962D01*
X126840493Y-79065925D01*
X126954507Y-79000099D01*
X127047599Y-78907007D01*
X127113425Y-78792993D01*
X127130462Y-78729409D01*
X127620662Y-79219609D01*
X127620663Y-79219609D01*
X127629440Y-79207988D01*
X127629442Y-79207985D01*
X127724433Y-79017216D01*
X127724441Y-79017196D01*
X127782761Y-78812219D01*
X127782762Y-78812216D01*
X127794029Y-78690628D01*
X127819815Y-78625690D01*
X127855966Y-78599794D01*
X127827997Y-78583751D01*
X127795807Y-78521738D01*
X127794029Y-78509371D01*
X127782762Y-78387783D01*
X127782761Y-78387780D01*
X127724441Y-78182803D01*
X127724433Y-78182783D01*
X127629442Y-77992014D01*
X127629437Y-77992006D01*
X127620663Y-77980389D01*
X127620662Y-77980389D01*
X127130462Y-78470589D01*
X127113425Y-78407007D01*
X127047599Y-78292993D01*
X126954507Y-78199901D01*
X126840493Y-78134075D01*
X126776909Y-78117037D01*
X127264507Y-77629439D01*
X127162293Y-77566151D01*
X127162286Y-77566147D01*
X127133555Y-77555017D01*
X127078154Y-77512444D01*
X127054564Y-77446677D01*
X127070276Y-77378596D01*
X127120300Y-77329818D01*
X127125928Y-77327017D01*
X127325330Y-77234035D01*
X127518901Y-77098495D01*
X127685995Y-76931401D01*
X127815925Y-76745842D01*
X127870502Y-76702217D01*
X127940000Y-76695023D01*
X128002355Y-76726546D01*
G37*
%TD.AperFunction*%
%TA.AperFunction,Conductor*%
G36*
X148942539Y-65770185D02*
G01*
X148988294Y-65822989D01*
X148999500Y-65874500D01*
X148999500Y-80184108D01*
X148999500Y-80315892D01*
X149012559Y-80364630D01*
X149033608Y-80443187D01*
X149055208Y-80480599D01*
X149099500Y-80557314D01*
X149192686Y-80650500D01*
X149306814Y-80716392D01*
X149434108Y-80750500D01*
X154375500Y-80750500D01*
X154442539Y-80770185D01*
X154488294Y-80822989D01*
X154499500Y-80874500D01*
X154499500Y-147625500D01*
X154479815Y-147692539D01*
X154427011Y-147738294D01*
X154375500Y-147749500D01*
X149434108Y-147749500D01*
X149306812Y-147783608D01*
X149192686Y-147849500D01*
X149192683Y-147849502D01*
X149099502Y-147942683D01*
X149099500Y-147942686D01*
X149033608Y-148056812D01*
X148999500Y-148184108D01*
X148999500Y-162625500D01*
X148979815Y-162692539D01*
X148927011Y-162738294D01*
X148875500Y-162749500D01*
X95624500Y-162749500D01*
X95557461Y-162729815D01*
X95511706Y-162677011D01*
X95500500Y-162625500D01*
X95500500Y-160376000D01*
X103844500Y-160376000D01*
X103844501Y-160376009D01*
X103856052Y-160483450D01*
X103856054Y-160483462D01*
X103867260Y-160534972D01*
X103901383Y-160637497D01*
X103901386Y-160637503D01*
X103979171Y-160758537D01*
X103979179Y-160758548D01*
X104024923Y-160811340D01*
X104024926Y-160811343D01*
X104024930Y-160811347D01*
X104133664Y-160905567D01*
X104133667Y-160905568D01*
X104133668Y-160905569D01*
X104227925Y-160948616D01*
X104264541Y-160965338D01*
X104331580Y-160985023D01*
X104331584Y-160985024D01*
X104474000Y-161005500D01*
X104474003Y-161005500D01*
X106525990Y-161005500D01*
X106526000Y-161005500D01*
X106633456Y-160993947D01*
X106684967Y-160982741D01*
X106719197Y-160971347D01*
X106787497Y-160948616D01*
X106787501Y-160948613D01*
X106787504Y-160948613D01*
X106908543Y-160870825D01*
X106961347Y-160825070D01*
X107055567Y-160716336D01*
X107115338Y-160585459D01*
X107135023Y-160518420D01*
X107135024Y-160518416D01*
X107155500Y-160376000D01*
X107155500Y-157824000D01*
X107143947Y-157716544D01*
X107132741Y-157665033D01*
X107132637Y-157664722D01*
X107098616Y-157562502D01*
X107098613Y-157562496D01*
X107020828Y-157441462D01*
X107020825Y-157441457D01*
X107020820Y-157441451D01*
X106975076Y-157388659D01*
X106975072Y-157388656D01*
X106975070Y-157388653D01*
X106866336Y-157294433D01*
X106866333Y-157294431D01*
X106866331Y-157294430D01*
X106735465Y-157234664D01*
X106735460Y-157234662D01*
X106735459Y-157234662D01*
X106668420Y-157214977D01*
X106668422Y-157214977D01*
X106668417Y-157214976D01*
X106606347Y-157206052D01*
X106526000Y-157194500D01*
X104474000Y-157194500D01*
X104473991Y-157194500D01*
X104473990Y-157194501D01*
X104366549Y-157206052D01*
X104366537Y-157206054D01*
X104315027Y-157217260D01*
X104212502Y-157251383D01*
X104212496Y-157251386D01*
X104091462Y-157329171D01*
X104091451Y-157329179D01*
X104038659Y-157374923D01*
X103944433Y-157483664D01*
X103944430Y-157483668D01*
X103884664Y-157614534D01*
X103864976Y-157681582D01*
X103859949Y-157716549D01*
X103844500Y-157824000D01*
X103844500Y-160376000D01*
X95500500Y-160376000D01*
X95500500Y-155848543D01*
X145099499Y-155848543D01*
X145137947Y-156041829D01*
X145137950Y-156041839D01*
X145213364Y-156223907D01*
X145213371Y-156223920D01*
X145322860Y-156387781D01*
X145322863Y-156387785D01*
X145462214Y-156527136D01*
X145462218Y-156527139D01*
X145626079Y-156636628D01*
X145626092Y-156636635D01*
X145808160Y-156712049D01*
X145808165Y-156712051D01*
X145808169Y-156712051D01*
X145808170Y-156712052D01*
X146001456Y-156750500D01*
X146001459Y-156750500D01*
X146848543Y-156750500D01*
X146978582Y-156724632D01*
X147041835Y-156712051D01*
X147223914Y-156636632D01*
X147387782Y-156527139D01*
X147527139Y-156387782D01*
X147636632Y-156223914D01*
X147712051Y-156041835D01*
X147750500Y-155848541D01*
X147750500Y-155051459D01*
X147750500Y-155051456D01*
X147712052Y-154858170D01*
X147712051Y-154858169D01*
X147712051Y-154858165D01*
X147712049Y-154858160D01*
X147636635Y-154676092D01*
X147636628Y-154676079D01*
X147527139Y-154512218D01*
X147527136Y-154512214D01*
X147387785Y-154372863D01*
X147387781Y-154372860D01*
X147223920Y-154263371D01*
X147223907Y-154263364D01*
X147041839Y-154187950D01*
X147041829Y-154187947D01*
X146848543Y-154149500D01*
X146848541Y-154149500D01*
X146198541Y-154149500D01*
X146001459Y-154149500D01*
X146001457Y-154149500D01*
X145808170Y-154187947D01*
X145808160Y-154187950D01*
X145626092Y-154263364D01*
X145626079Y-154263371D01*
X145462218Y-154372860D01*
X145462214Y-154372863D01*
X145322863Y-154512214D01*
X145322860Y-154512218D01*
X145213371Y-154676079D01*
X145213364Y-154676092D01*
X145137950Y-154858160D01*
X145137947Y-154858170D01*
X145099500Y-155051456D01*
X145099500Y-155051459D01*
X145099500Y-155848541D01*
X145099500Y-155848543D01*
X145099499Y-155848543D01*
X95500500Y-155848543D01*
X95500500Y-152298543D01*
X140399499Y-152298543D01*
X140437947Y-152491829D01*
X140437950Y-152491839D01*
X140513364Y-152673907D01*
X140513371Y-152673920D01*
X140622860Y-152837781D01*
X140622863Y-152837785D01*
X140762214Y-152977136D01*
X140762218Y-152977139D01*
X140926079Y-153086628D01*
X140926092Y-153086635D01*
X141108160Y-153162049D01*
X141108165Y-153162051D01*
X141108169Y-153162051D01*
X141108170Y-153162052D01*
X141301456Y-153200500D01*
X141301459Y-153200500D01*
X142148543Y-153200500D01*
X142278582Y-153174632D01*
X142341835Y-153162051D01*
X142523914Y-153086632D01*
X142687782Y-152977139D01*
X142827139Y-152837782D01*
X142936632Y-152673914D01*
X143012051Y-152491835D01*
X143050500Y-152298541D01*
X143050500Y-152101459D01*
X143050500Y-152101456D01*
X143012052Y-151908170D01*
X143012051Y-151908169D01*
X143012051Y-151908165D01*
X143012049Y-151908160D01*
X142936635Y-151726092D01*
X142936628Y-151726079D01*
X142827139Y-151562218D01*
X142827136Y-151562214D01*
X142687785Y-151422863D01*
X142687781Y-151422860D01*
X142523920Y-151313371D01*
X142523907Y-151313364D01*
X142341839Y-151237950D01*
X142341829Y-151237947D01*
X142148543Y-151199500D01*
X142148541Y-151199500D01*
X141301459Y-151199500D01*
X141301457Y-151199500D01*
X141108170Y-151237947D01*
X141108160Y-151237950D01*
X140926092Y-151313364D01*
X140926079Y-151313371D01*
X140762218Y-151422860D01*
X140762214Y-151422863D01*
X140622863Y-151562214D01*
X140622860Y-151562218D01*
X140513371Y-151726079D01*
X140513364Y-151726092D01*
X140437950Y-151908160D01*
X140437947Y-151908170D01*
X140399500Y-152101456D01*
X140399500Y-152101459D01*
X140399500Y-152298541D01*
X140399500Y-152298543D01*
X140399499Y-152298543D01*
X95500500Y-152298543D01*
X95500500Y-151348543D01*
X118949499Y-151348543D01*
X118987947Y-151541829D01*
X118987950Y-151541839D01*
X119063364Y-151723907D01*
X119063371Y-151723920D01*
X119172860Y-151887781D01*
X119172863Y-151887785D01*
X119312214Y-152027136D01*
X119312218Y-152027139D01*
X119476079Y-152136628D01*
X119476092Y-152136635D01*
X119658160Y-152212049D01*
X119658165Y-152212051D01*
X119658169Y-152212051D01*
X119658170Y-152212052D01*
X119851456Y-152250500D01*
X119851459Y-152250500D01*
X120698543Y-152250500D01*
X120828582Y-152224632D01*
X120891835Y-152212051D01*
X121073914Y-152136632D01*
X121237782Y-152027139D01*
X121377139Y-151887782D01*
X121486632Y-151723914D01*
X121562051Y-151541835D01*
X121600500Y-151348541D01*
X121600500Y-150551459D01*
X121600500Y-150551456D01*
X121562052Y-150358170D01*
X121562051Y-150358169D01*
X121562051Y-150358165D01*
X121562049Y-150358160D01*
X121486635Y-150176092D01*
X121486628Y-150176079D01*
X121377139Y-150012218D01*
X121377136Y-150012214D01*
X121237785Y-149872863D01*
X121237781Y-149872860D01*
X121073920Y-149763371D01*
X121073907Y-149763364D01*
X120891839Y-149687950D01*
X120891829Y-149687947D01*
X120698543Y-149649500D01*
X120698541Y-149649500D01*
X120048541Y-149649500D01*
X119851459Y-149649500D01*
X119851457Y-149649500D01*
X119658170Y-149687947D01*
X119658160Y-149687950D01*
X119476092Y-149763364D01*
X119476079Y-149763371D01*
X119312218Y-149872860D01*
X119312214Y-149872863D01*
X119172863Y-150012214D01*
X119172860Y-150012218D01*
X119063371Y-150176079D01*
X119063364Y-150176092D01*
X118987950Y-150358160D01*
X118987947Y-150358170D01*
X118949500Y-150551456D01*
X118949500Y-150551459D01*
X118949500Y-151151459D01*
X118949500Y-151348541D01*
X118949500Y-151348543D01*
X118949499Y-151348543D01*
X95500500Y-151348543D01*
X95500500Y-148411043D01*
X97599499Y-148411043D01*
X97637947Y-148604329D01*
X97637950Y-148604339D01*
X97713364Y-148786407D01*
X97713371Y-148786420D01*
X97822860Y-148950281D01*
X97822863Y-148950285D01*
X97962214Y-149089636D01*
X97962218Y-149089639D01*
X98126079Y-149199128D01*
X98126092Y-149199135D01*
X98308160Y-149274549D01*
X98308165Y-149274551D01*
X98308169Y-149274551D01*
X98308170Y-149274552D01*
X98501456Y-149313000D01*
X98501459Y-149313000D01*
X99348543Y-149313000D01*
X99481100Y-149286632D01*
X99541835Y-149274551D01*
X99723914Y-149199132D01*
X99887782Y-149089639D01*
X100027139Y-148950282D01*
X100136632Y-148786414D01*
X100212051Y-148604335D01*
X100224632Y-148541082D01*
X100250500Y-148411043D01*
X100250500Y-147648543D01*
X106499499Y-147648543D01*
X106537947Y-147841829D01*
X106537950Y-147841839D01*
X106613364Y-148023907D01*
X106613371Y-148023920D01*
X106722860Y-148187781D01*
X106722863Y-148187785D01*
X106862214Y-148327136D01*
X106862218Y-148327139D01*
X107026079Y-148436628D01*
X107026092Y-148436635D01*
X107208160Y-148512049D01*
X107208165Y-148512051D01*
X107208169Y-148512051D01*
X107208170Y-148512052D01*
X107401456Y-148550500D01*
X107401459Y-148550500D01*
X108248543Y-148550500D01*
X108378582Y-148524632D01*
X108441835Y-148512051D01*
X108474446Y-148498543D01*
X114699499Y-148498543D01*
X114737947Y-148691829D01*
X114737950Y-148691839D01*
X114813364Y-148873907D01*
X114813371Y-148873920D01*
X114922860Y-149037781D01*
X114922863Y-149037785D01*
X115062214Y-149177136D01*
X115062218Y-149177139D01*
X115226079Y-149286628D01*
X115226092Y-149286635D01*
X115289744Y-149313000D01*
X115408165Y-149362051D01*
X115408169Y-149362051D01*
X115408170Y-149362052D01*
X115601456Y-149400500D01*
X115601459Y-149400500D01*
X116448543Y-149400500D01*
X116578582Y-149374632D01*
X116641835Y-149362051D01*
X116823914Y-149286632D01*
X116987782Y-149177139D01*
X117116378Y-149048543D01*
X143299499Y-149048543D01*
X143337947Y-149241829D01*
X143337950Y-149241839D01*
X143413364Y-149423907D01*
X143413371Y-149423920D01*
X143522860Y-149587781D01*
X143522863Y-149587785D01*
X143662214Y-149727136D01*
X143662218Y-149727139D01*
X143826079Y-149836628D01*
X143826092Y-149836635D01*
X144008160Y-149912049D01*
X144008165Y-149912051D01*
X144008169Y-149912051D01*
X144008170Y-149912052D01*
X144201456Y-149950500D01*
X144201459Y-149950500D01*
X145048543Y-149950500D01*
X145178582Y-149924632D01*
X145241835Y-149912051D01*
X145423914Y-149836632D01*
X145587782Y-149727139D01*
X145727139Y-149587782D01*
X145836632Y-149423914D01*
X145912051Y-149241835D01*
X145950500Y-149048541D01*
X145950500Y-148251459D01*
X145950500Y-148251456D01*
X145912052Y-148058170D01*
X145912051Y-148058169D01*
X145912051Y-148058165D01*
X145911491Y-148056812D01*
X145836635Y-147876092D01*
X145836628Y-147876079D01*
X145727139Y-147712218D01*
X145727136Y-147712214D01*
X145587785Y-147572863D01*
X145587781Y-147572860D01*
X145423920Y-147463371D01*
X145423907Y-147463364D01*
X145241839Y-147387950D01*
X145241829Y-147387947D01*
X145048543Y-147349500D01*
X145048541Y-147349500D01*
X144398541Y-147349500D01*
X144201459Y-147349500D01*
X144201457Y-147349500D01*
X144008170Y-147387947D01*
X144008160Y-147387950D01*
X143826092Y-147463364D01*
X143826079Y-147463371D01*
X143662218Y-147572860D01*
X143662214Y-147572863D01*
X143522863Y-147712214D01*
X143522860Y-147712218D01*
X143413371Y-147876079D01*
X143413364Y-147876092D01*
X143337950Y-148058160D01*
X143337947Y-148058170D01*
X143299500Y-148251456D01*
X143299500Y-148251459D01*
X143299500Y-149048541D01*
X143299500Y-149048543D01*
X143299499Y-149048543D01*
X117116378Y-149048543D01*
X117127139Y-149037782D01*
X117236632Y-148873914D01*
X117312051Y-148691835D01*
X117340165Y-148550500D01*
X117350500Y-148498543D01*
X117350500Y-147701456D01*
X117312052Y-147508170D01*
X117312051Y-147508169D01*
X117312051Y-147508165D01*
X117312049Y-147508160D01*
X117236635Y-147326092D01*
X117236628Y-147326079D01*
X117127139Y-147162218D01*
X117127136Y-147162214D01*
X116987785Y-147022863D01*
X116987781Y-147022860D01*
X116823920Y-146913371D01*
X116823907Y-146913364D01*
X116641839Y-146837950D01*
X116641829Y-146837947D01*
X116448543Y-146799500D01*
X116448541Y-146799500D01*
X115798541Y-146799500D01*
X115601459Y-146799500D01*
X115601457Y-146799500D01*
X115408170Y-146837947D01*
X115408160Y-146837950D01*
X115226092Y-146913364D01*
X115226079Y-146913371D01*
X115062218Y-147022860D01*
X115062214Y-147022863D01*
X114922863Y-147162214D01*
X114922860Y-147162218D01*
X114813371Y-147326079D01*
X114813364Y-147326092D01*
X114737950Y-147508160D01*
X114737947Y-147508170D01*
X114699500Y-147701456D01*
X114699500Y-147701459D01*
X114699500Y-148498541D01*
X114699500Y-148498543D01*
X114699499Y-148498543D01*
X108474446Y-148498543D01*
X108623914Y-148436632D01*
X108787782Y-148327139D01*
X108927139Y-148187782D01*
X109036632Y-148023914D01*
X109112051Y-147841835D01*
X109139974Y-147701459D01*
X109150500Y-147648543D01*
X109150500Y-147498543D01*
X111799499Y-147498543D01*
X111837947Y-147691829D01*
X111837950Y-147691839D01*
X111913364Y-147873907D01*
X111913371Y-147873920D01*
X112022860Y-148037781D01*
X112022863Y-148037785D01*
X112162214Y-148177136D01*
X112162218Y-148177139D01*
X112326079Y-148286628D01*
X112326092Y-148286635D01*
X112423879Y-148327139D01*
X112508165Y-148362051D01*
X112508169Y-148362051D01*
X112508170Y-148362052D01*
X112701456Y-148400500D01*
X112701459Y-148400500D01*
X113548543Y-148400500D01*
X113678582Y-148374632D01*
X113741835Y-148362051D01*
X113923914Y-148286632D01*
X114087782Y-148177139D01*
X114227139Y-148037782D01*
X114336632Y-147873914D01*
X114412051Y-147691835D01*
X114435717Y-147572860D01*
X114450500Y-147498543D01*
X114450500Y-146701456D01*
X114445436Y-146676000D01*
X123094500Y-146676000D01*
X123094501Y-146676009D01*
X123106052Y-146783450D01*
X123106054Y-146783462D01*
X123117260Y-146834972D01*
X123151383Y-146937497D01*
X123151386Y-146937503D01*
X123229171Y-147058537D01*
X123229179Y-147058548D01*
X123274923Y-147111340D01*
X123274926Y-147111343D01*
X123274930Y-147111347D01*
X123383664Y-147205567D01*
X123383667Y-147205568D01*
X123383668Y-147205569D01*
X123477925Y-147248616D01*
X123514541Y-147265338D01*
X123581580Y-147285023D01*
X123581584Y-147285024D01*
X123724000Y-147305500D01*
X123724003Y-147305500D01*
X126275990Y-147305500D01*
X126276000Y-147305500D01*
X126383456Y-147293947D01*
X126434967Y-147282741D01*
X126469197Y-147271347D01*
X126537497Y-147248616D01*
X126537501Y-147248613D01*
X126537504Y-147248613D01*
X126658543Y-147170825D01*
X126711347Y-147125070D01*
X126805567Y-147016336D01*
X126865338Y-146885459D01*
X126885023Y-146818420D01*
X126885024Y-146818416D01*
X126905500Y-146676000D01*
X126905500Y-144574000D01*
X126893947Y-144466544D01*
X126882741Y-144415033D01*
X126882637Y-144414722D01*
X126848616Y-144312502D01*
X126848613Y-144312496D01*
X126770828Y-144191462D01*
X126770825Y-144191457D01*
X126770820Y-144191451D01*
X126725076Y-144138659D01*
X126725072Y-144138656D01*
X126725070Y-144138653D01*
X126657382Y-144080000D01*
X143465223Y-144080000D01*
X146275038Y-144080000D01*
X146245000Y-144231016D01*
X146245000Y-144428984D01*
X146275038Y-144580000D01*
X143465224Y-144580000D01*
X143485074Y-144730782D01*
X143485077Y-144730795D01*
X143554627Y-144990363D01*
X143657463Y-145238630D01*
X143657467Y-145238640D01*
X143791829Y-145471362D01*
X143955419Y-145684557D01*
X143955425Y-145684564D01*
X144145435Y-145874574D01*
X144145442Y-145874580D01*
X144358637Y-146038170D01*
X144591359Y-146172532D01*
X144591369Y-146172536D01*
X144839636Y-146275372D01*
X145099208Y-146344924D01*
X145365626Y-146379998D01*
X145365643Y-146380000D01*
X147000000Y-146380000D01*
X147000000Y-145304961D01*
X147151016Y-145335000D01*
X147348984Y-145335000D01*
X147500000Y-145304961D01*
X147500000Y-146380000D01*
X149134357Y-146380000D01*
X149134373Y-146379998D01*
X149400791Y-146344924D01*
X149660363Y-146275372D01*
X149908630Y-146172536D01*
X149908640Y-146172532D01*
X150141362Y-146038170D01*
X150354557Y-145874580D01*
X150354564Y-145874574D01*
X150544574Y-145684564D01*
X150544580Y-145684557D01*
X150708170Y-145471362D01*
X150842532Y-145238640D01*
X150842536Y-145238630D01*
X150945372Y-144990363D01*
X151014922Y-144730795D01*
X151014925Y-144730782D01*
X151034776Y-144580000D01*
X148224962Y-144580000D01*
X148255000Y-144428984D01*
X148255000Y-144231016D01*
X148224962Y-144080000D01*
X151034776Y-144080000D01*
X151014925Y-143929217D01*
X151014922Y-143929204D01*
X150945372Y-143669636D01*
X150842536Y-143421369D01*
X150842532Y-143421359D01*
X150708170Y-143188637D01*
X150544580Y-142975442D01*
X150544574Y-142975435D01*
X150354564Y-142785425D01*
X150354557Y-142785419D01*
X150141362Y-142621829D01*
X149908640Y-142487467D01*
X149908630Y-142487463D01*
X149660363Y-142384627D01*
X149400791Y-142315075D01*
X149134373Y-142280001D01*
X149134357Y-142280000D01*
X147500000Y-142280000D01*
X147500000Y-143355038D01*
X147348984Y-143325000D01*
X147151016Y-143325000D01*
X147000000Y-143355038D01*
X147000000Y-142280000D01*
X145365643Y-142280000D01*
X145365626Y-142280001D01*
X145099208Y-142315075D01*
X144839636Y-142384627D01*
X144591369Y-142487463D01*
X144591359Y-142487467D01*
X144358637Y-142621829D01*
X144145442Y-142785419D01*
X144145435Y-142785425D01*
X143955425Y-142975435D01*
X143955419Y-142975442D01*
X143791829Y-143188637D01*
X143657467Y-143421359D01*
X143657463Y-143421369D01*
X143554627Y-143669636D01*
X143485077Y-143929204D01*
X143485074Y-143929217D01*
X143465223Y-144080000D01*
X126657382Y-144080000D01*
X126616336Y-144044433D01*
X126616333Y-144044431D01*
X126616331Y-144044430D01*
X126485465Y-143984664D01*
X126485460Y-143984662D01*
X126485459Y-143984662D01*
X126418420Y-143964977D01*
X126418422Y-143964977D01*
X126418417Y-143964976D01*
X126356347Y-143956052D01*
X126276000Y-143944500D01*
X123724000Y-143944500D01*
X123723991Y-143944500D01*
X123723990Y-143944501D01*
X123616549Y-143956052D01*
X123616537Y-143956054D01*
X123565027Y-143967260D01*
X123462502Y-144001383D01*
X123462496Y-144001386D01*
X123341462Y-144079171D01*
X123341451Y-144079179D01*
X123288659Y-144124923D01*
X123194433Y-144233664D01*
X123194430Y-144233668D01*
X123134664Y-144364534D01*
X123114976Y-144431582D01*
X123109949Y-144466549D01*
X123094500Y-144574000D01*
X123094500Y-146676000D01*
X114445436Y-146676000D01*
X114412052Y-146508170D01*
X114412051Y-146508169D01*
X114412051Y-146508165D01*
X114344435Y-146344924D01*
X114336635Y-146326092D01*
X114336628Y-146326079D01*
X114227139Y-146162218D01*
X114227136Y-146162214D01*
X114087785Y-146022863D01*
X114087781Y-146022860D01*
X113923920Y-145913371D01*
X113923907Y-145913364D01*
X113741839Y-145837950D01*
X113741829Y-145837947D01*
X113548543Y-145799500D01*
X113548541Y-145799500D01*
X112898541Y-145799500D01*
X112701459Y-145799500D01*
X112701457Y-145799500D01*
X112508170Y-145837947D01*
X112508160Y-145837950D01*
X112326092Y-145913364D01*
X112326079Y-145913371D01*
X112162218Y-146022860D01*
X112162214Y-146022863D01*
X112022863Y-146162214D01*
X112022860Y-146162218D01*
X111913371Y-146326079D01*
X111913364Y-146326092D01*
X111837950Y-146508160D01*
X111837947Y-146508170D01*
X111799500Y-146701456D01*
X111799500Y-146701459D01*
X111799500Y-147301459D01*
X111799500Y-147498541D01*
X111799500Y-147498543D01*
X111799499Y-147498543D01*
X109150500Y-147498543D01*
X109150500Y-146851456D01*
X109112052Y-146658170D01*
X109112051Y-146658169D01*
X109112051Y-146658165D01*
X109049922Y-146508170D01*
X109036635Y-146476092D01*
X109036628Y-146476079D01*
X108927139Y-146312218D01*
X108927136Y-146312214D01*
X108787785Y-146172863D01*
X108787781Y-146172860D01*
X108623920Y-146063371D01*
X108623907Y-146063364D01*
X108441839Y-145987950D01*
X108441829Y-145987947D01*
X108248543Y-145949500D01*
X108248541Y-145949500D01*
X107598541Y-145949500D01*
X107401459Y-145949500D01*
X107401457Y-145949500D01*
X107208170Y-145987947D01*
X107208160Y-145987950D01*
X107026092Y-146063364D01*
X107026079Y-146063371D01*
X106862218Y-146172860D01*
X106862214Y-146172863D01*
X106722863Y-146312214D01*
X106722860Y-146312218D01*
X106613371Y-146476079D01*
X106613364Y-146476092D01*
X106537950Y-146658160D01*
X106537947Y-146658170D01*
X106499500Y-146851456D01*
X106499500Y-146851459D01*
X106499500Y-147648541D01*
X106499500Y-147648543D01*
X106499499Y-147648543D01*
X100250500Y-147648543D01*
X100250500Y-147563956D01*
X100212052Y-147370670D01*
X100212051Y-147370669D01*
X100212051Y-147370665D01*
X100203284Y-147349500D01*
X100136635Y-147188592D01*
X100136628Y-147188579D01*
X100027139Y-147024718D01*
X100027136Y-147024714D01*
X99887785Y-146885363D01*
X99887781Y-146885360D01*
X99723920Y-146775871D01*
X99723907Y-146775864D01*
X99541839Y-146700450D01*
X99541829Y-146700447D01*
X99348543Y-146662000D01*
X99348541Y-146662000D01*
X98698541Y-146662000D01*
X98501459Y-146662000D01*
X98501457Y-146662000D01*
X98308170Y-146700447D01*
X98308160Y-146700450D01*
X98126092Y-146775864D01*
X98126079Y-146775871D01*
X97962218Y-146885360D01*
X97962214Y-146885363D01*
X97822863Y-147024714D01*
X97822860Y-147024718D01*
X97713371Y-147188579D01*
X97713364Y-147188592D01*
X97637950Y-147370660D01*
X97637947Y-147370670D01*
X97599500Y-147563956D01*
X97599500Y-147563959D01*
X97599500Y-148213959D01*
X97599500Y-148411041D01*
X97599500Y-148411043D01*
X97599499Y-148411043D01*
X95500500Y-148411043D01*
X95500500Y-142061043D01*
X96649499Y-142061043D01*
X96687947Y-142254329D01*
X96687950Y-142254339D01*
X96763364Y-142436407D01*
X96763371Y-142436420D01*
X96872860Y-142600281D01*
X96872863Y-142600285D01*
X97012214Y-142739636D01*
X97012218Y-142739639D01*
X97176079Y-142849128D01*
X97176092Y-142849135D01*
X97358160Y-142924549D01*
X97358165Y-142924551D01*
X97358169Y-142924551D01*
X97358170Y-142924552D01*
X97551456Y-142963000D01*
X97551459Y-142963000D01*
X98398543Y-142963000D01*
X98528582Y-142937132D01*
X98591835Y-142924551D01*
X98773914Y-142849132D01*
X98799192Y-142832242D01*
X98865869Y-142811362D01*
X98933249Y-142829845D01*
X98964233Y-142860591D01*
X98965837Y-142859312D01*
X98970182Y-142864760D01*
X98970184Y-142864762D01*
X99097738Y-142992316D01*
X99250478Y-143088289D01*
X99420745Y-143147868D01*
X99420750Y-143147869D01*
X99599996Y-143168065D01*
X99600000Y-143168065D01*
X99600004Y-143168065D01*
X99779249Y-143147869D01*
X99779252Y-143147868D01*
X99779255Y-143147868D01*
X99949522Y-143088289D01*
X100102262Y-142992316D01*
X100229816Y-142864762D01*
X100325789Y-142712022D01*
X100385368Y-142541755D01*
X100391485Y-142487467D01*
X100405565Y-142362503D01*
X100405565Y-142362496D01*
X100385369Y-142183250D01*
X100385368Y-142183245D01*
X100383970Y-142179249D01*
X100325789Y-142012978D01*
X100317636Y-142000003D01*
X131894435Y-142000003D01*
X131914630Y-142179249D01*
X131914631Y-142179254D01*
X131974211Y-142349523D01*
X132060885Y-142487463D01*
X132070184Y-142502262D01*
X132197738Y-142629816D01*
X132288080Y-142686582D01*
X132328569Y-142712023D01*
X132350478Y-142725789D01*
X132452217Y-142761389D01*
X132520745Y-142785368D01*
X132520750Y-142785369D01*
X132699996Y-142805565D01*
X132700000Y-142805565D01*
X132700004Y-142805565D01*
X132879249Y-142785369D01*
X132879252Y-142785368D01*
X132879255Y-142785368D01*
X133049522Y-142725789D01*
X133202262Y-142629816D01*
X133329816Y-142502262D01*
X133425789Y-142349522D01*
X133485368Y-142179255D01*
X133485369Y-142179249D01*
X133505565Y-142000003D01*
X133505565Y-141999996D01*
X133485369Y-141820750D01*
X133485368Y-141820745D01*
X133425788Y-141650476D01*
X133329815Y-141497737D01*
X133202262Y-141370184D01*
X133049523Y-141274211D01*
X132879254Y-141214631D01*
X132879249Y-141214630D01*
X132700004Y-141194435D01*
X132699996Y-141194435D01*
X132520750Y-141214630D01*
X132520745Y-141214631D01*
X132350476Y-141274211D01*
X132197737Y-141370184D01*
X132070184Y-141497737D01*
X131974211Y-141650476D01*
X131914631Y-141820745D01*
X131914630Y-141820750D01*
X131894435Y-141999996D01*
X131894435Y-142000003D01*
X100317636Y-142000003D01*
X100317634Y-142000000D01*
X100229815Y-141860237D01*
X100102262Y-141732684D01*
X99949523Y-141636711D01*
X99779254Y-141577131D01*
X99779249Y-141577130D01*
X99600004Y-141556935D01*
X99599996Y-141556935D01*
X99438383Y-141575144D01*
X99369561Y-141563089D01*
X99318182Y-141515740D01*
X99300500Y-141451924D01*
X99300500Y-141263956D01*
X99262052Y-141070670D01*
X99262051Y-141070669D01*
X99262051Y-141070665D01*
X99262049Y-141070660D01*
X99186635Y-140888592D01*
X99186628Y-140888579D01*
X99077139Y-140724718D01*
X99077136Y-140724714D01*
X98937785Y-140585363D01*
X98937781Y-140585360D01*
X98773920Y-140475871D01*
X98773907Y-140475864D01*
X98591839Y-140400450D01*
X98591829Y-140400447D01*
X98398543Y-140362000D01*
X98398541Y-140362000D01*
X97748541Y-140362000D01*
X97551459Y-140362000D01*
X97551457Y-140362000D01*
X97358170Y-140400447D01*
X97358160Y-140400450D01*
X97176092Y-140475864D01*
X97176079Y-140475871D01*
X97012218Y-140585360D01*
X97012214Y-140585363D01*
X96872863Y-140724714D01*
X96872860Y-140724718D01*
X96763371Y-140888579D01*
X96763364Y-140888592D01*
X96687950Y-141070660D01*
X96687947Y-141070670D01*
X96649500Y-141263956D01*
X96649500Y-141263959D01*
X96649500Y-142061041D01*
X96649500Y-142061043D01*
X96649499Y-142061043D01*
X95500500Y-142061043D01*
X95500500Y-140248543D01*
X110899499Y-140248543D01*
X110937947Y-140441829D01*
X110937950Y-140441839D01*
X111013364Y-140623907D01*
X111013371Y-140623920D01*
X111122860Y-140787781D01*
X111122863Y-140787785D01*
X111262214Y-140927136D01*
X111262218Y-140927139D01*
X111426079Y-141036628D01*
X111426092Y-141036635D01*
X111608160Y-141112049D01*
X111608165Y-141112051D01*
X111608169Y-141112051D01*
X111608170Y-141112052D01*
X111801456Y-141150500D01*
X111801459Y-141150500D01*
X112648543Y-141150500D01*
X112778582Y-141124632D01*
X112841835Y-141112051D01*
X113023914Y-141036632D01*
X113187782Y-140927139D01*
X113327139Y-140787782D01*
X113436632Y-140623914D01*
X113512051Y-140441835D01*
X113539157Y-140305565D01*
X113550500Y-140248543D01*
X113550500Y-139500003D01*
X134644435Y-139500003D01*
X134664630Y-139679249D01*
X134664631Y-139679254D01*
X134724211Y-139849523D01*
X134775790Y-139931610D01*
X134820184Y-140002262D01*
X134947738Y-140129816D01*
X135100478Y-140225789D01*
X135270745Y-140285368D01*
X135270750Y-140285369D01*
X135449996Y-140305565D01*
X135450000Y-140305565D01*
X135450004Y-140305565D01*
X135629249Y-140285369D01*
X135629252Y-140285368D01*
X135629255Y-140285368D01*
X135799522Y-140225789D01*
X135909028Y-140156981D01*
X135976264Y-140137981D01*
X136040971Y-140156981D01*
X136073776Y-140177594D01*
X136150475Y-140225788D01*
X136320745Y-140285368D01*
X136320750Y-140285369D01*
X136499996Y-140305565D01*
X136500000Y-140305565D01*
X136500004Y-140305565D01*
X136679249Y-140285369D01*
X136679252Y-140285368D01*
X136679255Y-140285368D01*
X136849522Y-140225789D01*
X137002262Y-140129816D01*
X137129816Y-140002262D01*
X137225789Y-139849522D01*
X137285368Y-139679255D01*
X137285369Y-139679249D01*
X137305565Y-139500003D01*
X137305565Y-139499996D01*
X137288930Y-139352351D01*
X140419500Y-139352351D01*
X140451522Y-139554534D01*
X140514781Y-139749223D01*
X140607715Y-139931613D01*
X140728028Y-140097213D01*
X140872786Y-140241971D01*
X141027749Y-140354556D01*
X141038390Y-140362287D01*
X141154607Y-140421503D01*
X141220776Y-140455218D01*
X141220778Y-140455218D01*
X141220781Y-140455220D01*
X141325137Y-140489127D01*
X141415465Y-140518477D01*
X141516557Y-140534488D01*
X141617648Y-140550500D01*
X141617649Y-140550500D01*
X142722351Y-140550500D01*
X142722352Y-140550500D01*
X142924534Y-140518477D01*
X143119219Y-140455220D01*
X143301610Y-140362287D01*
X143394590Y-140294732D01*
X143467213Y-140241971D01*
X143467215Y-140241968D01*
X143467219Y-140241966D01*
X143611966Y-140097219D01*
X143611968Y-140097215D01*
X143611971Y-140097213D01*
X143680956Y-140002262D01*
X143732287Y-139931610D01*
X143825220Y-139749219D01*
X143888477Y-139554534D01*
X143920500Y-139352352D01*
X143920500Y-139147648D01*
X143918720Y-139136407D01*
X143888477Y-138945465D01*
X143859127Y-138855137D01*
X143825220Y-138750781D01*
X143825218Y-138750778D01*
X143825218Y-138750776D01*
X143779311Y-138660680D01*
X143732287Y-138568390D01*
X143718563Y-138549500D01*
X143611971Y-138402786D01*
X143467213Y-138258028D01*
X143301613Y-138137715D01*
X143301612Y-138137714D01*
X143301610Y-138137713D01*
X143244653Y-138108691D01*
X143119223Y-138044781D01*
X142958385Y-137992521D01*
X142900710Y-137953083D01*
X142873512Y-137888724D01*
X142885427Y-137819878D01*
X142932672Y-137768402D01*
X142958387Y-137756659D01*
X143042253Y-137729409D01*
X143196524Y-137650804D01*
X143336602Y-137549032D01*
X143459032Y-137426602D01*
X143560804Y-137286524D01*
X143639408Y-137132255D01*
X143692914Y-136967584D01*
X143694115Y-136960000D01*
X142539504Y-136960000D01*
X142584674Y-136881764D01*
X142615000Y-136768585D01*
X142615000Y-136651415D01*
X142584674Y-136538236D01*
X142539504Y-136460000D01*
X143694115Y-136460000D01*
X143694115Y-136459999D01*
X143692914Y-136452415D01*
X143639408Y-136287744D01*
X143560804Y-136133475D01*
X143459032Y-135993397D01*
X143336602Y-135870967D01*
X143196524Y-135769195D01*
X143042257Y-135690591D01*
X142877584Y-135637085D01*
X142706571Y-135610000D01*
X142420000Y-135610000D01*
X142420000Y-136340495D01*
X142341764Y-136295326D01*
X142228585Y-136265000D01*
X142111415Y-136265000D01*
X141998236Y-136295326D01*
X141920000Y-136340495D01*
X141920000Y-135610000D01*
X141633429Y-135610000D01*
X141462415Y-135637085D01*
X141297742Y-135690591D01*
X141143475Y-135769195D01*
X141003397Y-135870967D01*
X140880967Y-135993397D01*
X140779195Y-136133475D01*
X140700591Y-136287744D01*
X140647085Y-136452415D01*
X140645884Y-136459999D01*
X140645885Y-136460000D01*
X141800496Y-136460000D01*
X141755326Y-136538236D01*
X141725000Y-136651415D01*
X141725000Y-136768585D01*
X141755326Y-136881764D01*
X141800496Y-136960000D01*
X140645885Y-136960000D01*
X140647085Y-136967584D01*
X140700591Y-137132255D01*
X140779195Y-137286524D01*
X140880967Y-137426602D01*
X141003397Y-137549032D01*
X141143475Y-137650804D01*
X141297744Y-137729408D01*
X141381613Y-137756659D01*
X141439288Y-137796096D01*
X141466487Y-137860455D01*
X141454573Y-137929301D01*
X141407329Y-137980777D01*
X141381614Y-137992521D01*
X141220777Y-138044781D01*
X141038386Y-138137715D01*
X140872786Y-138258028D01*
X140728028Y-138402786D01*
X140607715Y-138568386D01*
X140514781Y-138750776D01*
X140451522Y-138945465D01*
X140419500Y-139147648D01*
X140419500Y-139352351D01*
X137288930Y-139352351D01*
X137285369Y-139320750D01*
X137285368Y-139320745D01*
X137263470Y-139258165D01*
X137225789Y-139150478D01*
X137129816Y-138997738D01*
X137002262Y-138870184D01*
X136891361Y-138800500D01*
X136843626Y-138770506D01*
X136844526Y-138769073D01*
X136799148Y-138728107D01*
X136780833Y-138660680D01*
X136783919Y-138635599D01*
X136785364Y-138629265D01*
X136785368Y-138629255D01*
X136805565Y-138450000D01*
X136804188Y-138437782D01*
X136785369Y-138270750D01*
X136785368Y-138270745D01*
X136725788Y-138100476D01*
X136657955Y-137992521D01*
X136629816Y-137947738D01*
X136502262Y-137820184D01*
X136463926Y-137796096D01*
X136349523Y-137724211D01*
X136179254Y-137664631D01*
X136179249Y-137664630D01*
X136000004Y-137644435D01*
X135999996Y-137644435D01*
X135820750Y-137664630D01*
X135820745Y-137664631D01*
X135650476Y-137724211D01*
X135497737Y-137820184D01*
X135370184Y-137947737D01*
X135274211Y-138100476D01*
X135214631Y-138270745D01*
X135214630Y-138270750D01*
X135194435Y-138449996D01*
X135194435Y-138450004D01*
X135214942Y-138632019D01*
X135202887Y-138700841D01*
X135155538Y-138752220D01*
X135132681Y-138762942D01*
X135100478Y-138774211D01*
X135100477Y-138774211D01*
X135100473Y-138774213D01*
X134947737Y-138870184D01*
X134820184Y-138997737D01*
X134724211Y-139150476D01*
X134664631Y-139320745D01*
X134664630Y-139320750D01*
X134644435Y-139499996D01*
X134644435Y-139500003D01*
X113550500Y-139500003D01*
X113550500Y-139451456D01*
X113512052Y-139258170D01*
X113512051Y-139258169D01*
X113512051Y-139258165D01*
X113461623Y-139136420D01*
X113436635Y-139076092D01*
X113436628Y-139076079D01*
X113327139Y-138912218D01*
X113327136Y-138912214D01*
X113187785Y-138772863D01*
X113187781Y-138772860D01*
X113023920Y-138663371D01*
X113023907Y-138663364D01*
X112841839Y-138587950D01*
X112841829Y-138587947D01*
X112648543Y-138549500D01*
X112648541Y-138549500D01*
X111998541Y-138549500D01*
X111801459Y-138549500D01*
X111801457Y-138549500D01*
X111608170Y-138587947D01*
X111608160Y-138587950D01*
X111426092Y-138663364D01*
X111426079Y-138663371D01*
X111262218Y-138772860D01*
X111262214Y-138772863D01*
X111122863Y-138912214D01*
X111122860Y-138912218D01*
X111013371Y-139076079D01*
X111013364Y-139076092D01*
X110937950Y-139258160D01*
X110937947Y-139258170D01*
X110899500Y-139451456D01*
X110899500Y-139451459D01*
X110899500Y-140051459D01*
X110899500Y-140248541D01*
X110899500Y-140248543D01*
X110899499Y-140248543D01*
X95500500Y-140248543D01*
X95500500Y-138761043D01*
X104599499Y-138761043D01*
X104637947Y-138954329D01*
X104637950Y-138954339D01*
X104713364Y-139136407D01*
X104713371Y-139136420D01*
X104822860Y-139300281D01*
X104822863Y-139300285D01*
X104962214Y-139439636D01*
X104962218Y-139439639D01*
X105126079Y-139549128D01*
X105126092Y-139549135D01*
X105308160Y-139624549D01*
X105308165Y-139624551D01*
X105308169Y-139624551D01*
X105308170Y-139624552D01*
X105501456Y-139663000D01*
X105501459Y-139663000D01*
X106348543Y-139663000D01*
X106478582Y-139637132D01*
X106541835Y-139624551D01*
X106723914Y-139549132D01*
X106887782Y-139439639D01*
X107027139Y-139300282D01*
X107136632Y-139136414D01*
X107212051Y-138954335D01*
X107247880Y-138774213D01*
X107250500Y-138761043D01*
X107250500Y-137963956D01*
X107212052Y-137770670D01*
X107212051Y-137770669D01*
X107212051Y-137770665D01*
X107206250Y-137756659D01*
X107136635Y-137588592D01*
X107136628Y-137588579D01*
X107052386Y-137462503D01*
X116094435Y-137462503D01*
X116114630Y-137641749D01*
X116114631Y-137641754D01*
X116174211Y-137812023D01*
X116228576Y-137898543D01*
X116270184Y-137964762D01*
X116397738Y-138092316D01*
X116550478Y-138188289D01*
X116720745Y-138247868D01*
X116720750Y-138247869D01*
X116899996Y-138268065D01*
X116900000Y-138268065D01*
X116900004Y-138268065D01*
X117079249Y-138247869D01*
X117079252Y-138247868D01*
X117079255Y-138247868D01*
X117249522Y-138188289D01*
X117402262Y-138092316D01*
X117529816Y-137964762D01*
X117571424Y-137898543D01*
X130199499Y-137898543D01*
X130237947Y-138091829D01*
X130237950Y-138091839D01*
X130313364Y-138273907D01*
X130313371Y-138273920D01*
X130422860Y-138437781D01*
X130422863Y-138437785D01*
X130562214Y-138577136D01*
X130562218Y-138577139D01*
X130726079Y-138686628D01*
X130726092Y-138686635D01*
X130905731Y-138761043D01*
X130908165Y-138762051D01*
X130908169Y-138762051D01*
X130908170Y-138762052D01*
X131101456Y-138800500D01*
X131101459Y-138800500D01*
X131948543Y-138800500D01*
X132106533Y-138769073D01*
X132141835Y-138762051D01*
X132323914Y-138686632D01*
X132487782Y-138577139D01*
X132627139Y-138437782D01*
X132736632Y-138273914D01*
X132812051Y-138091835D01*
X132837328Y-137964762D01*
X132850500Y-137898543D01*
X132850500Y-137101456D01*
X132812052Y-136908170D01*
X132812051Y-136908169D01*
X132812051Y-136908165D01*
X132812049Y-136908160D01*
X132736635Y-136726092D01*
X132736628Y-136726079D01*
X132627139Y-136562218D01*
X132627136Y-136562214D01*
X132487785Y-136422863D01*
X132487781Y-136422860D01*
X132323920Y-136313371D01*
X132323907Y-136313364D01*
X132141839Y-136237950D01*
X132141829Y-136237947D01*
X131948543Y-136199500D01*
X131948541Y-136199500D01*
X131298541Y-136199500D01*
X131101459Y-136199500D01*
X131101457Y-136199500D01*
X130908170Y-136237947D01*
X130908160Y-136237950D01*
X130726092Y-136313364D01*
X130726079Y-136313371D01*
X130562218Y-136422860D01*
X130562214Y-136422863D01*
X130422863Y-136562214D01*
X130422860Y-136562218D01*
X130313371Y-136726079D01*
X130313364Y-136726092D01*
X130237950Y-136908160D01*
X130237947Y-136908170D01*
X130199500Y-137101456D01*
X130199500Y-137101459D01*
X130199500Y-137701459D01*
X130199500Y-137898541D01*
X130199500Y-137898543D01*
X130199499Y-137898543D01*
X117571424Y-137898543D01*
X117625789Y-137812022D01*
X117685368Y-137641755D01*
X117691359Y-137588586D01*
X117705565Y-137462503D01*
X117705565Y-137462496D01*
X117685369Y-137283250D01*
X117685368Y-137283245D01*
X117640493Y-137155000D01*
X117625789Y-137112978D01*
X117617916Y-137100449D01*
X117586582Y-137050580D01*
X117529816Y-136960238D01*
X117402262Y-136832684D01*
X117249523Y-136736711D01*
X117079254Y-136677131D01*
X117079249Y-136677130D01*
X116900004Y-136656935D01*
X116899996Y-136656935D01*
X116720750Y-136677130D01*
X116720745Y-136677131D01*
X116550476Y-136736711D01*
X116397737Y-136832684D01*
X116270184Y-136960237D01*
X116174211Y-137112976D01*
X116114631Y-137283245D01*
X116114630Y-137283250D01*
X116094435Y-137462496D01*
X116094435Y-137462503D01*
X107052386Y-137462503D01*
X107027139Y-137424718D01*
X107027136Y-137424714D01*
X106887785Y-137285363D01*
X106887781Y-137285360D01*
X106723920Y-137175871D01*
X106723907Y-137175864D01*
X106541839Y-137100450D01*
X106541829Y-137100447D01*
X106348543Y-137062000D01*
X106348541Y-137062000D01*
X105698541Y-137062000D01*
X105501459Y-137062000D01*
X105501457Y-137062000D01*
X105308170Y-137100447D01*
X105308160Y-137100450D01*
X105126092Y-137175864D01*
X105126079Y-137175871D01*
X104962218Y-137285360D01*
X104962214Y-137285363D01*
X104822863Y-137424714D01*
X104822860Y-137424718D01*
X104713371Y-137588579D01*
X104713364Y-137588592D01*
X104637950Y-137770660D01*
X104637947Y-137770670D01*
X104599500Y-137963956D01*
X104599500Y-137963959D01*
X104599500Y-138563959D01*
X104599500Y-138761041D01*
X104599500Y-138761043D01*
X104599499Y-138761043D01*
X95500500Y-138761043D01*
X95500500Y-134900000D01*
X120545172Y-134900000D01*
X120564462Y-135194312D01*
X120564464Y-135194324D01*
X120622001Y-135483584D01*
X120622005Y-135483599D01*
X120716812Y-135762888D01*
X120847258Y-136027406D01*
X120847265Y-136027419D01*
X121011123Y-136272649D01*
X121040405Y-136306040D01*
X121756320Y-135590125D01*
X121846554Y-135714320D01*
X121985680Y-135853446D01*
X122109873Y-135943678D01*
X121393958Y-136659593D01*
X121427350Y-136688876D01*
X121672580Y-136852734D01*
X121672593Y-136852741D01*
X121937111Y-136983187D01*
X122216400Y-137077994D01*
X122216415Y-137077998D01*
X122505675Y-137135535D01*
X122505687Y-137135537D01*
X122800000Y-137154827D01*
X123094312Y-137135537D01*
X123094324Y-137135535D01*
X123383584Y-137077998D01*
X123383599Y-137077994D01*
X123662888Y-136983187D01*
X123927406Y-136852741D01*
X123927419Y-136852734D01*
X124172648Y-136688877D01*
X124206039Y-136659593D01*
X123490126Y-135943679D01*
X123614320Y-135853446D01*
X123753446Y-135714320D01*
X123843679Y-135590125D01*
X124559593Y-136306039D01*
X124588877Y-136272648D01*
X124752734Y-136027419D01*
X124752741Y-136027406D01*
X124883187Y-135762888D01*
X124977994Y-135483599D01*
X124977998Y-135483584D01*
X125004569Y-135350003D01*
X128644435Y-135350003D01*
X128664630Y-135529249D01*
X128664631Y-135529254D01*
X128724211Y-135699523D01*
X128767989Y-135769195D01*
X128820184Y-135852262D01*
X128947738Y-135979816D01*
X129100478Y-136075789D01*
X129213600Y-136115372D01*
X129270745Y-136135368D01*
X129270750Y-136135369D01*
X129449996Y-136155565D01*
X129450000Y-136155565D01*
X129450004Y-136155565D01*
X129629249Y-136135369D01*
X129629252Y-136135368D01*
X129629255Y-136135368D01*
X129799522Y-136075789D01*
X129952262Y-135979816D01*
X130079816Y-135852262D01*
X130175789Y-135699522D01*
X130235368Y-135529255D01*
X130235897Y-135524564D01*
X130255565Y-135350003D01*
X130255565Y-135349996D01*
X130235369Y-135170750D01*
X130235368Y-135170745D01*
X130203139Y-135078640D01*
X130175789Y-135000478D01*
X130079816Y-134847738D01*
X129952262Y-134720184D01*
X129946227Y-134716392D01*
X129799523Y-134624211D01*
X129629254Y-134564631D01*
X129629249Y-134564630D01*
X129450004Y-134544435D01*
X129449996Y-134544435D01*
X129270750Y-134564630D01*
X129270745Y-134564631D01*
X129100476Y-134624211D01*
X128947737Y-134720184D01*
X128820184Y-134847737D01*
X128724211Y-135000476D01*
X128664631Y-135170745D01*
X128664630Y-135170750D01*
X128644435Y-135349996D01*
X128644435Y-135350003D01*
X125004569Y-135350003D01*
X125035535Y-135194324D01*
X125035537Y-135194312D01*
X125054827Y-134900000D01*
X125035537Y-134605687D01*
X125035535Y-134605675D01*
X124977998Y-134316415D01*
X124977994Y-134316400D01*
X124883187Y-134037111D01*
X124825434Y-133920000D01*
X143465223Y-133920000D01*
X146275038Y-133920000D01*
X146245000Y-134071016D01*
X146245000Y-134268984D01*
X146275038Y-134420000D01*
X143465224Y-134420000D01*
X143485074Y-134570782D01*
X143485077Y-134570795D01*
X143554627Y-134830363D01*
X143657463Y-135078630D01*
X143657467Y-135078640D01*
X143791829Y-135311362D01*
X143955419Y-135524557D01*
X143955425Y-135524564D01*
X144145435Y-135714574D01*
X144145442Y-135714580D01*
X144358637Y-135878170D01*
X144591359Y-136012532D01*
X144591369Y-136012536D01*
X144839636Y-136115372D01*
X145099208Y-136184924D01*
X145365626Y-136219998D01*
X145365643Y-136220000D01*
X147000000Y-136220000D01*
X147000000Y-135144961D01*
X147151016Y-135175000D01*
X147348984Y-135175000D01*
X147500000Y-135144961D01*
X147500000Y-136220000D01*
X149134357Y-136220000D01*
X149134373Y-136219998D01*
X149400791Y-136184924D01*
X149660363Y-136115372D01*
X149908630Y-136012536D01*
X149908640Y-136012532D01*
X150141362Y-135878170D01*
X150354557Y-135714580D01*
X150354564Y-135714574D01*
X150544574Y-135524564D01*
X150544580Y-135524557D01*
X150708170Y-135311362D01*
X150842532Y-135078640D01*
X150842536Y-135078630D01*
X150945372Y-134830363D01*
X151014922Y-134570795D01*
X151014925Y-134570782D01*
X151034776Y-134420000D01*
X148224962Y-134420000D01*
X148255000Y-134268984D01*
X148255000Y-134071016D01*
X148224962Y-133920000D01*
X151034776Y-133920000D01*
X151014925Y-133769217D01*
X151014922Y-133769204D01*
X150945372Y-133509636D01*
X150842536Y-133261369D01*
X150842532Y-133261359D01*
X150708170Y-133028637D01*
X150544580Y-132815442D01*
X150544574Y-132815435D01*
X150354564Y-132625425D01*
X150354557Y-132625419D01*
X150141362Y-132461829D01*
X149908640Y-132327467D01*
X149908630Y-132327463D01*
X149660363Y-132224627D01*
X149400791Y-132155075D01*
X149134373Y-132120001D01*
X149134357Y-132120000D01*
X147500000Y-132120000D01*
X147500000Y-133195038D01*
X147348984Y-133165000D01*
X147151016Y-133165000D01*
X147000000Y-133195038D01*
X147000000Y-132120000D01*
X145365643Y-132120000D01*
X145365626Y-132120001D01*
X145099208Y-132155075D01*
X144839636Y-132224627D01*
X144591369Y-132327463D01*
X144591359Y-132327467D01*
X144358637Y-132461829D01*
X144145442Y-132625419D01*
X144145435Y-132625425D01*
X143955425Y-132815435D01*
X143955419Y-132815442D01*
X143791829Y-133028637D01*
X143657467Y-133261359D01*
X143657463Y-133261369D01*
X143554627Y-133509636D01*
X143485077Y-133769204D01*
X143485074Y-133769217D01*
X143465223Y-133920000D01*
X124825434Y-133920000D01*
X124752741Y-133772593D01*
X124752734Y-133772580D01*
X124588876Y-133527350D01*
X124559593Y-133493958D01*
X123843678Y-134209873D01*
X123753446Y-134085680D01*
X123614320Y-133946554D01*
X123490125Y-133856320D01*
X124206040Y-133140405D01*
X124172649Y-133111123D01*
X123927419Y-132947265D01*
X123927406Y-132947258D01*
X123662888Y-132816812D01*
X123383599Y-132722005D01*
X123383584Y-132722001D01*
X123094324Y-132664464D01*
X123094312Y-132664462D01*
X122800000Y-132645172D01*
X122505687Y-132664462D01*
X122505675Y-132664464D01*
X122216415Y-132722001D01*
X122216400Y-132722005D01*
X121937111Y-132816812D01*
X121672593Y-132947258D01*
X121672580Y-132947265D01*
X121427346Y-133111126D01*
X121427339Y-133111131D01*
X121393959Y-133140403D01*
X121393959Y-133140405D01*
X122109874Y-133856320D01*
X121985680Y-133946554D01*
X121846554Y-134085680D01*
X121756320Y-134209874D01*
X121040405Y-133493959D01*
X121040403Y-133493959D01*
X121011131Y-133527339D01*
X121011126Y-133527346D01*
X120847265Y-133772580D01*
X120847258Y-133772593D01*
X120716812Y-134037111D01*
X120622005Y-134316400D01*
X120622001Y-134316415D01*
X120564464Y-134605675D01*
X120564462Y-134605687D01*
X120545172Y-134900000D01*
X95500500Y-134900000D01*
X95500500Y-134874500D01*
X95520185Y-134807461D01*
X95572989Y-134761706D01*
X95624500Y-134750500D01*
X107065890Y-134750500D01*
X107065892Y-134750500D01*
X107193186Y-134716392D01*
X107307314Y-134650500D01*
X107400500Y-134557314D01*
X107466392Y-134443186D01*
X107500500Y-134315892D01*
X107500500Y-129184108D01*
X107466392Y-129056814D01*
X107400500Y-128942686D01*
X107307813Y-128849999D01*
X120349500Y-128849999D01*
X120349501Y-128850016D01*
X120360000Y-128952795D01*
X120360001Y-128952798D01*
X120404350Y-129086632D01*
X120415186Y-129119333D01*
X120507289Y-129268655D01*
X120631345Y-129392711D01*
X120780667Y-129484814D01*
X120947204Y-129539999D01*
X121049993Y-129550500D01*
X124550006Y-129550499D01*
X124652796Y-129539999D01*
X124819333Y-129484814D01*
X124968655Y-129392711D01*
X125092711Y-129268655D01*
X125184814Y-129119333D01*
X125239999Y-128952796D01*
X125250500Y-128850007D01*
X125250499Y-126448543D01*
X141399499Y-126448543D01*
X141437947Y-126641829D01*
X141437950Y-126641839D01*
X141513364Y-126823907D01*
X141513371Y-126823920D01*
X141622860Y-126987781D01*
X141622863Y-126987785D01*
X141679199Y-127044121D01*
X141712684Y-127105444D01*
X141714612Y-127116843D01*
X141714857Y-127118864D01*
X141757395Y-127231030D01*
X141762761Y-127300694D01*
X141757395Y-127318970D01*
X141714859Y-127431129D01*
X141714859Y-127431130D01*
X141694355Y-127600000D01*
X141714859Y-127768869D01*
X141714859Y-127768870D01*
X141757395Y-127881030D01*
X141762761Y-127950694D01*
X141757395Y-127968970D01*
X141714859Y-128081129D01*
X141714859Y-128081130D01*
X141694355Y-128250000D01*
X141714859Y-128418869D01*
X141714860Y-128418874D01*
X141775182Y-128577931D01*
X141808017Y-128625500D01*
X141871817Y-128717929D01*
X141942712Y-128780736D01*
X141999150Y-128830736D01*
X142132627Y-128900790D01*
X142149775Y-128909790D01*
X142314944Y-128950500D01*
X142485056Y-128950500D01*
X142650225Y-128909790D01*
X142667373Y-128900789D01*
X142735878Y-128887063D01*
X142782625Y-128900788D01*
X142799775Y-128909790D01*
X142964944Y-128950500D01*
X143135056Y-128950500D01*
X143300225Y-128909790D01*
X143414114Y-128850016D01*
X143450849Y-128830736D01*
X143450850Y-128830734D01*
X143450852Y-128830734D01*
X143578183Y-128717929D01*
X143674818Y-128577930D01*
X143735140Y-128418872D01*
X143749751Y-128298543D01*
X148549499Y-128298543D01*
X148587947Y-128491829D01*
X148587950Y-128491839D01*
X148663364Y-128673907D01*
X148663371Y-128673920D01*
X148772860Y-128837781D01*
X148772863Y-128837785D01*
X148912214Y-128977136D01*
X148912218Y-128977139D01*
X149076079Y-129086628D01*
X149076092Y-129086635D01*
X149258160Y-129162049D01*
X149258165Y-129162051D01*
X149258169Y-129162051D01*
X149258170Y-129162052D01*
X149451456Y-129200500D01*
X149451459Y-129200500D01*
X149648543Y-129200500D01*
X149778582Y-129174632D01*
X149841835Y-129162051D01*
X150023914Y-129086632D01*
X150187782Y-128977139D01*
X150233227Y-128931694D01*
X150291233Y-128898977D01*
X150450225Y-128859790D01*
X150529692Y-128818081D01*
X150600849Y-128780736D01*
X150600850Y-128780734D01*
X150600852Y-128780734D01*
X150728183Y-128667929D01*
X150824818Y-128527930D01*
X150885140Y-128368872D01*
X150905645Y-128200000D01*
X150885140Y-128031128D01*
X150842603Y-127918967D01*
X150837237Y-127849308D01*
X150842599Y-127831042D01*
X150885140Y-127718872D01*
X150905645Y-127550000D01*
X150885140Y-127381128D01*
X150842603Y-127268967D01*
X150837237Y-127199308D01*
X150842599Y-127181042D01*
X150885140Y-127068872D01*
X150905645Y-126900000D01*
X150885140Y-126731128D01*
X150885139Y-126731126D01*
X150885139Y-126731124D01*
X150852086Y-126643971D01*
X150846719Y-126574308D01*
X150852086Y-126556029D01*
X150885139Y-126468875D01*
X150885140Y-126468870D01*
X150887608Y-126448543D01*
X150905645Y-126300000D01*
X150885140Y-126131128D01*
X150824818Y-125972070D01*
X150728183Y-125832071D01*
X150600852Y-125719266D01*
X150600849Y-125719263D01*
X150450226Y-125640210D01*
X150291234Y-125601022D01*
X150233228Y-125568306D01*
X150187785Y-125522863D01*
X150187781Y-125522860D01*
X150023920Y-125413371D01*
X150023907Y-125413364D01*
X149841839Y-125337950D01*
X149841829Y-125337947D01*
X149648543Y-125299500D01*
X149648541Y-125299500D01*
X149451459Y-125299500D01*
X149451457Y-125299500D01*
X149258170Y-125337947D01*
X149258160Y-125337950D01*
X149076092Y-125413364D01*
X149076079Y-125413371D01*
X148912218Y-125522860D01*
X148912214Y-125522863D01*
X148772863Y-125662214D01*
X148772860Y-125662218D01*
X148663371Y-125826079D01*
X148663364Y-125826092D01*
X148587950Y-126008160D01*
X148587947Y-126008170D01*
X148549500Y-126201456D01*
X148549500Y-126201459D01*
X148549500Y-128298541D01*
X148549500Y-128298543D01*
X148549499Y-128298543D01*
X143749751Y-128298543D01*
X143755645Y-128250000D01*
X143735140Y-128081128D01*
X143692603Y-127968967D01*
X143687237Y-127899308D01*
X143692599Y-127881042D01*
X143735140Y-127768872D01*
X143755645Y-127600000D01*
X143735140Y-127431128D01*
X143735139Y-127431126D01*
X143735139Y-127431124D01*
X143692604Y-127318970D01*
X143687237Y-127249307D01*
X143692598Y-127231045D01*
X143735140Y-127118872D01*
X143735383Y-127116862D01*
X143735972Y-127115496D01*
X143736935Y-127111589D01*
X143737584Y-127111749D01*
X143762999Y-127052685D01*
X143770785Y-127044135D01*
X143827139Y-126987782D01*
X143936632Y-126823914D01*
X144012051Y-126641835D01*
X144029119Y-126556029D01*
X144050500Y-126448543D01*
X144050500Y-126251456D01*
X144012052Y-126058170D01*
X144012051Y-126058169D01*
X144012051Y-126058165D01*
X143991343Y-126008170D01*
X143936635Y-125876092D01*
X143936628Y-125876079D01*
X143827139Y-125712218D01*
X143827136Y-125712214D01*
X143687785Y-125572863D01*
X143687781Y-125572860D01*
X143523920Y-125463371D01*
X143523907Y-125463364D01*
X143341839Y-125387950D01*
X143341829Y-125387947D01*
X143148543Y-125349500D01*
X143148541Y-125349500D01*
X142301459Y-125349500D01*
X142301457Y-125349500D01*
X142108170Y-125387947D01*
X142108160Y-125387950D01*
X141926092Y-125463364D01*
X141926079Y-125463371D01*
X141762218Y-125572860D01*
X141762214Y-125572863D01*
X141622863Y-125712214D01*
X141622860Y-125712218D01*
X141513371Y-125876079D01*
X141513364Y-125876092D01*
X141437950Y-126058160D01*
X141437947Y-126058170D01*
X141399500Y-126251456D01*
X141399500Y-126251459D01*
X141399500Y-126448541D01*
X141399500Y-126448543D01*
X141399499Y-126448543D01*
X125250499Y-126448543D01*
X125250499Y-125349994D01*
X125249268Y-125337947D01*
X125239999Y-125247204D01*
X125239998Y-125247201D01*
X125184814Y-125080667D01*
X125092711Y-124931345D01*
X124968655Y-124807289D01*
X124819333Y-124715186D01*
X124652796Y-124660001D01*
X124652794Y-124660000D01*
X124550008Y-124649500D01*
X121050000Y-124649500D01*
X121049983Y-124649501D01*
X120947204Y-124660000D01*
X120947201Y-124660001D01*
X120780669Y-124715185D01*
X120780664Y-124715187D01*
X120631343Y-124807290D01*
X120507290Y-124931343D01*
X120415187Y-125080664D01*
X120415186Y-125080667D01*
X120360001Y-125247204D01*
X120360001Y-125247205D01*
X120360000Y-125247205D01*
X120349500Y-125349985D01*
X120349500Y-128849999D01*
X107307813Y-128849999D01*
X107307314Y-128849500D01*
X107250250Y-128816554D01*
X107193187Y-128783608D01*
X107129539Y-128766554D01*
X107065892Y-128749500D01*
X107065891Y-128749500D01*
X95624500Y-128749500D01*
X95557461Y-128729815D01*
X95511706Y-128677011D01*
X95500500Y-128625500D01*
X95500500Y-117365003D01*
X110594435Y-117365003D01*
X110614630Y-117544249D01*
X110614631Y-117544254D01*
X110674211Y-117714523D01*
X110754742Y-117842687D01*
X110770184Y-117867262D01*
X110897738Y-117994816D01*
X111050478Y-118090789D01*
X111210951Y-118146941D01*
X111220745Y-118150368D01*
X111220750Y-118150369D01*
X111399996Y-118170565D01*
X111399997Y-118170564D01*
X111400000Y-118170565D01*
X111413645Y-118169027D01*
X111482464Y-118181079D01*
X111533845Y-118228427D01*
X111551472Y-118296036D01*
X111550750Y-118306130D01*
X111549751Y-118314996D01*
X111549751Y-118315002D01*
X111568685Y-118483056D01*
X111601853Y-118577844D01*
X111624544Y-118642690D01*
X111624545Y-118642691D01*
X111628529Y-118649033D01*
X111647525Y-118716270D01*
X111628529Y-118780967D01*
X111628523Y-118780977D01*
X111624544Y-118787310D01*
X111614067Y-118817250D01*
X111568685Y-118946943D01*
X111549751Y-119114997D01*
X111549751Y-119115002D01*
X111568685Y-119283056D01*
X111624545Y-119442694D01*
X111624547Y-119442697D01*
X111714518Y-119585884D01*
X111714523Y-119585890D01*
X111834109Y-119705476D01*
X111834115Y-119705481D01*
X111977302Y-119795452D01*
X111977305Y-119795454D01*
X111977309Y-119795455D01*
X111977310Y-119795456D01*
X112049913Y-119820860D01*
X112136943Y-119851314D01*
X112145517Y-119852280D01*
X112209931Y-119879347D01*
X112249486Y-119936942D01*
X112251623Y-120006779D01*
X112215665Y-120066685D01*
X112153027Y-120097641D01*
X112131633Y-120099500D01*
X111801457Y-120099500D01*
X111608170Y-120137947D01*
X111608160Y-120137950D01*
X111426092Y-120213364D01*
X111426079Y-120213371D01*
X111262218Y-120322860D01*
X111262214Y-120322863D01*
X111122863Y-120462214D01*
X111122860Y-120462218D01*
X111013371Y-120626079D01*
X111013364Y-120626092D01*
X110937950Y-120808160D01*
X110937947Y-120808170D01*
X110899500Y-121001456D01*
X110899500Y-121001459D01*
X110899500Y-121798541D01*
X110899500Y-121798543D01*
X110899499Y-121798543D01*
X110937947Y-121991829D01*
X110937950Y-121991839D01*
X111013364Y-122173907D01*
X111013371Y-122173920D01*
X111122860Y-122337781D01*
X111122863Y-122337785D01*
X111262214Y-122477136D01*
X111262218Y-122477139D01*
X111426079Y-122586628D01*
X111426092Y-122586635D01*
X111608160Y-122662049D01*
X111608165Y-122662051D01*
X111608169Y-122662051D01*
X111608170Y-122662052D01*
X111801456Y-122700500D01*
X111801459Y-122700500D01*
X112648543Y-122700500D01*
X112778582Y-122674632D01*
X112841835Y-122662051D01*
X113023914Y-122586632D01*
X113187782Y-122477139D01*
X113327139Y-122337782D01*
X113436632Y-122173914D01*
X113512051Y-121991835D01*
X113550500Y-121798541D01*
X113550500Y-121001459D01*
X113550500Y-121001456D01*
X113512052Y-120808170D01*
X113512051Y-120808169D01*
X113512051Y-120808165D01*
X113512049Y-120808160D01*
X113436635Y-120626092D01*
X113436628Y-120626079D01*
X113327139Y-120462218D01*
X113327136Y-120462214D01*
X113187785Y-120322863D01*
X113187781Y-120322860D01*
X113108671Y-120270000D01*
X144877710Y-120270000D01*
X144896847Y-120549794D01*
X144896848Y-120549796D01*
X144953903Y-120824364D01*
X144953908Y-120824381D01*
X145047819Y-121088622D01*
X145047820Y-121088624D01*
X145176848Y-121337637D01*
X145176852Y-121337643D01*
X145315245Y-121533701D01*
X145949674Y-120899272D01*
X146043888Y-121028946D01*
X146173554Y-121158612D01*
X146303227Y-121252825D01*
X145670241Y-121885811D01*
X145747535Y-121948696D01*
X145747549Y-121948706D01*
X145987164Y-122094419D01*
X145987168Y-122094421D01*
X146244388Y-122206146D01*
X146514435Y-122281810D01*
X146514441Y-122281811D01*
X146792275Y-122320000D01*
X147072725Y-122320000D01*
X147350558Y-122281811D01*
X147350564Y-122281810D01*
X147620611Y-122206146D01*
X147877831Y-122094421D01*
X147877835Y-122094419D01*
X148117450Y-121948706D01*
X148117464Y-121948696D01*
X148194758Y-121885811D01*
X147561772Y-121252825D01*
X147691446Y-121158612D01*
X147821112Y-121028946D01*
X147915325Y-120899272D01*
X148549753Y-121533700D01*
X148688151Y-121337636D01*
X148817179Y-121088624D01*
X148817180Y-121088622D01*
X148911091Y-120824381D01*
X148911096Y-120824364D01*
X148968151Y-120549796D01*
X148968152Y-120549794D01*
X148987289Y-120270000D01*
X148968152Y-119990205D01*
X148968151Y-119990203D01*
X148911096Y-119715635D01*
X148911091Y-119715618D01*
X148817180Y-119451377D01*
X148817179Y-119451375D01*
X148688151Y-119202362D01*
X148688147Y-119202356D01*
X148549753Y-119006297D01*
X147915324Y-119640726D01*
X147821112Y-119511054D01*
X147691446Y-119381388D01*
X147561772Y-119287174D01*
X148194758Y-118654188D01*
X148117465Y-118591303D01*
X148117450Y-118591293D01*
X147877835Y-118445580D01*
X147877831Y-118445578D01*
X147620611Y-118333853D01*
X147350564Y-118258189D01*
X147350558Y-118258188D01*
X147072725Y-118220000D01*
X146792275Y-118220000D01*
X146514441Y-118258188D01*
X146514435Y-118258189D01*
X146244388Y-118333853D01*
X145987168Y-118445578D01*
X145987164Y-118445580D01*
X145747546Y-118591295D01*
X145670240Y-118654188D01*
X146303227Y-119287174D01*
X146173554Y-119381388D01*
X146043888Y-119511054D01*
X145949674Y-119640727D01*
X145315245Y-119006298D01*
X145176845Y-119202368D01*
X145047820Y-119451375D01*
X145047819Y-119451377D01*
X144953908Y-119715618D01*
X144953903Y-119715635D01*
X144896848Y-119990203D01*
X144896847Y-119990205D01*
X144877710Y-120270000D01*
X113108671Y-120270000D01*
X113023920Y-120213371D01*
X113023907Y-120213364D01*
X112841839Y-120137950D01*
X112841829Y-120137947D01*
X112648543Y-120099500D01*
X112648541Y-120099500D01*
X112478367Y-120099500D01*
X112411328Y-120079815D01*
X112365573Y-120027011D01*
X112355629Y-119957853D01*
X112384654Y-119894297D01*
X112443432Y-119856523D01*
X112464483Y-119852280D01*
X112473056Y-119851314D01*
X112473059Y-119851313D01*
X112632690Y-119795456D01*
X112632692Y-119795454D01*
X112632694Y-119795454D01*
X112632697Y-119795452D01*
X112775881Y-119705483D01*
X112775883Y-119705481D01*
X112775890Y-119705477D01*
X112775895Y-119705471D01*
X112777682Y-119704047D01*
X112779066Y-119703481D01*
X112781786Y-119701773D01*
X112782085Y-119702249D01*
X112842367Y-119677635D01*
X112911063Y-119690387D01*
X112932318Y-119704047D01*
X112934118Y-119705483D01*
X113077302Y-119795452D01*
X113077305Y-119795454D01*
X113077309Y-119795455D01*
X113077310Y-119795456D01*
X113149913Y-119820860D01*
X113236943Y-119851314D01*
X113404997Y-119870249D01*
X113405000Y-119870249D01*
X113405003Y-119870249D01*
X113573056Y-119851314D01*
X113573059Y-119851313D01*
X113732690Y-119795456D01*
X113732692Y-119795454D01*
X113732694Y-119795454D01*
X113732697Y-119795452D01*
X113875884Y-119705481D01*
X113875885Y-119705480D01*
X113875890Y-119705477D01*
X113995477Y-119585890D01*
X114085452Y-119442697D01*
X114085454Y-119442694D01*
X114085454Y-119442692D01*
X114085456Y-119442690D01*
X114141313Y-119283059D01*
X114141313Y-119283058D01*
X114141314Y-119283056D01*
X114160249Y-119115002D01*
X114160249Y-119114997D01*
X114141313Y-118946942D01*
X114085457Y-118787312D01*
X114085456Y-118787310D01*
X114081475Y-118780975D01*
X114062472Y-118713742D01*
X114081475Y-118649024D01*
X114085456Y-118642690D01*
X114141313Y-118483059D01*
X114160249Y-118315000D01*
X114158112Y-118296036D01*
X114143975Y-118170565D01*
X114141313Y-118146941D01*
X114111248Y-118061020D01*
X114085457Y-117987312D01*
X114085456Y-117987310D01*
X114081475Y-117980975D01*
X114062472Y-117913742D01*
X114081475Y-117849024D01*
X114085456Y-117842690D01*
X114141313Y-117683059D01*
X114156953Y-117544254D01*
X114160249Y-117515002D01*
X114160249Y-117514997D01*
X114141314Y-117346943D01*
X114085454Y-117187305D01*
X114085452Y-117187302D01*
X113995481Y-117044115D01*
X113995476Y-117044109D01*
X113875890Y-116924523D01*
X113875884Y-116924518D01*
X113732697Y-116834547D01*
X113732694Y-116834545D01*
X113573056Y-116778685D01*
X113405003Y-116759751D01*
X113404997Y-116759751D01*
X113236943Y-116778685D01*
X113077305Y-116834545D01*
X113077302Y-116834547D01*
X112934112Y-116924520D01*
X112932310Y-116925958D01*
X112930925Y-116926523D01*
X112928214Y-116928227D01*
X112927915Y-116927751D01*
X112867623Y-116952365D01*
X112798928Y-116939607D01*
X112777690Y-116925958D01*
X112775887Y-116924520D01*
X112632697Y-116834547D01*
X112632694Y-116834545D01*
X112473056Y-116778685D01*
X112305003Y-116759751D01*
X112304997Y-116759751D01*
X112136940Y-116778686D01*
X112068859Y-116802508D01*
X111999080Y-116806069D01*
X111940225Y-116773147D01*
X111902262Y-116735184D01*
X111749523Y-116639211D01*
X111579254Y-116579631D01*
X111579249Y-116579630D01*
X111400004Y-116559435D01*
X111399996Y-116559435D01*
X111220750Y-116579630D01*
X111220745Y-116579631D01*
X111050476Y-116639211D01*
X110897737Y-116735184D01*
X110770184Y-116862737D01*
X110674211Y-117015476D01*
X110614631Y-117185745D01*
X110614630Y-117185750D01*
X110594435Y-117364996D01*
X110594435Y-117365003D01*
X95500500Y-117365003D01*
X95500500Y-114698543D01*
X109849499Y-114698543D01*
X109887947Y-114891829D01*
X109887950Y-114891839D01*
X109963364Y-115073907D01*
X109963371Y-115073920D01*
X110072860Y-115237781D01*
X110072863Y-115237785D01*
X110212214Y-115377136D01*
X110212218Y-115377139D01*
X110376079Y-115486628D01*
X110376092Y-115486635D01*
X110558160Y-115562049D01*
X110558165Y-115562051D01*
X110558169Y-115562051D01*
X110558170Y-115562052D01*
X110751456Y-115600500D01*
X110751459Y-115600500D01*
X111598543Y-115600500D01*
X111728582Y-115574632D01*
X111791835Y-115562051D01*
X111941641Y-115500000D01*
X140866841Y-115500000D01*
X140887436Y-115735403D01*
X140887438Y-115735413D01*
X140948594Y-115963655D01*
X140948596Y-115963659D01*
X140948597Y-115963663D01*
X141048465Y-116177830D01*
X141048467Y-116177834D01*
X141156781Y-116332521D01*
X141184005Y-116371401D01*
X141351099Y-116538495D01*
X141409849Y-116579632D01*
X141544665Y-116674032D01*
X141544667Y-116674033D01*
X141544670Y-116674035D01*
X141758837Y-116773903D01*
X141758843Y-116773904D01*
X141758844Y-116773905D01*
X141776691Y-116778687D01*
X141987092Y-116835063D01*
X142175418Y-116851539D01*
X142222499Y-116855659D01*
X142222500Y-116855659D01*
X142222501Y-116855659D01*
X142261734Y-116852226D01*
X142457908Y-116835063D01*
X142686163Y-116773903D01*
X142900330Y-116674035D01*
X143093901Y-116538495D01*
X143134819Y-116497577D01*
X143196142Y-116464092D01*
X143265834Y-116469076D01*
X143310181Y-116497577D01*
X143351099Y-116538495D01*
X143409849Y-116579632D01*
X143544665Y-116674032D01*
X143544667Y-116674033D01*
X143544670Y-116674035D01*
X143758837Y-116773903D01*
X143758843Y-116773904D01*
X143758844Y-116773905D01*
X143776691Y-116778687D01*
X143987092Y-116835063D01*
X144175418Y-116851539D01*
X144222499Y-116855659D01*
X144222500Y-116855659D01*
X144222501Y-116855659D01*
X144261734Y-116852226D01*
X144457908Y-116835063D01*
X144686163Y-116773903D01*
X144900330Y-116674035D01*
X145093901Y-116538495D01*
X145260995Y-116371401D01*
X145396535Y-116177830D01*
X145496403Y-115963663D01*
X145557563Y-115735408D01*
X145578159Y-115500000D01*
X145557563Y-115264592D01*
X145496403Y-115036337D01*
X145396535Y-114822171D01*
X145309971Y-114698543D01*
X145260994Y-114628597D01*
X145093902Y-114461506D01*
X145093895Y-114461501D01*
X144900334Y-114325967D01*
X144900330Y-114325965D01*
X144746218Y-114254101D01*
X144693780Y-114207930D01*
X144674628Y-114140736D01*
X144694844Y-114073855D01*
X144733345Y-114036294D01*
X144839506Y-113970560D01*
X144839506Y-113970559D01*
X144319249Y-113450302D01*
X144400053Y-113428651D01*
X144504946Y-113368091D01*
X144590591Y-113282446D01*
X144651151Y-113177553D01*
X144672802Y-113096749D01*
X145195662Y-113619609D01*
X145195663Y-113619609D01*
X145204440Y-113607988D01*
X145204442Y-113607985D01*
X145299433Y-113417216D01*
X145299441Y-113417196D01*
X145357761Y-113212219D01*
X145357762Y-113212216D01*
X145377427Y-113000000D01*
X145377427Y-112999999D01*
X145357762Y-112787783D01*
X145357761Y-112787780D01*
X145299441Y-112582803D01*
X145299433Y-112582783D01*
X145204442Y-112392014D01*
X145204437Y-112392006D01*
X145195663Y-112380389D01*
X144672802Y-112903249D01*
X144651151Y-112822447D01*
X144590591Y-112717554D01*
X144504946Y-112631909D01*
X144400053Y-112571349D01*
X144319249Y-112549697D01*
X144839507Y-112029439D01*
X144737293Y-111966151D01*
X144737289Y-111966149D01*
X144538563Y-111889163D01*
X144538558Y-111889162D01*
X144329061Y-111850000D01*
X144115939Y-111850000D01*
X143906441Y-111889162D01*
X143906436Y-111889163D01*
X143707710Y-111966149D01*
X143707697Y-111966155D01*
X143698519Y-111971838D01*
X143631157Y-111990388D01*
X143564459Y-111969575D01*
X143519602Y-111916006D01*
X143517066Y-111909734D01*
X143516296Y-111907669D01*
X143516294Y-111907666D01*
X143516293Y-111907664D01*
X143430047Y-111792455D01*
X143430044Y-111792452D01*
X143314835Y-111706206D01*
X143314828Y-111706202D01*
X143179982Y-111655908D01*
X143179983Y-111655908D01*
X143120383Y-111649501D01*
X143120381Y-111649500D01*
X143120373Y-111649500D01*
X143120364Y-111649500D01*
X141324629Y-111649500D01*
X141324623Y-111649501D01*
X141265016Y-111655908D01*
X141130171Y-111706202D01*
X141130164Y-111706206D01*
X141014955Y-111792452D01*
X141014952Y-111792455D01*
X140928706Y-111907664D01*
X140928702Y-111907671D01*
X140878408Y-112042517D01*
X140872001Y-112102116D01*
X140872000Y-112102135D01*
X140872000Y-113897870D01*
X140872001Y-113897876D01*
X140878408Y-113957483D01*
X140928702Y-114092328D01*
X140928706Y-114092335D01*
X141014952Y-114207544D01*
X141014955Y-114207547D01*
X141130164Y-114293793D01*
X141130171Y-114293797D01*
X141232448Y-114331944D01*
X141288382Y-114373815D01*
X141312799Y-114439279D01*
X141297947Y-114507552D01*
X141276796Y-114535807D01*
X141184005Y-114628597D01*
X141048465Y-114822169D01*
X141048464Y-114822171D01*
X140948598Y-115036335D01*
X140948594Y-115036344D01*
X140887438Y-115264586D01*
X140887436Y-115264596D01*
X140866841Y-115499999D01*
X140866841Y-115500000D01*
X111941641Y-115500000D01*
X111973914Y-115486632D01*
X112137782Y-115377139D01*
X112277139Y-115237782D01*
X112386632Y-115073914D01*
X112462051Y-114891835D01*
X112500500Y-114698541D01*
X112500500Y-113901459D01*
X112500500Y-113901456D01*
X112462052Y-113708170D01*
X112462051Y-113708169D01*
X112462051Y-113708165D01*
X112420557Y-113607988D01*
X112386635Y-113526092D01*
X112386628Y-113526079D01*
X112277139Y-113362218D01*
X112277136Y-113362214D01*
X112137785Y-113222863D01*
X112137781Y-113222860D01*
X111973920Y-113113371D01*
X111973907Y-113113364D01*
X111791839Y-113037950D01*
X111791829Y-113037947D01*
X111598543Y-112999500D01*
X111598541Y-112999500D01*
X110948541Y-112999500D01*
X110751459Y-112999500D01*
X110751457Y-112999500D01*
X110558170Y-113037947D01*
X110558160Y-113037950D01*
X110376092Y-113113364D01*
X110376079Y-113113371D01*
X110212218Y-113222860D01*
X110212214Y-113222863D01*
X110072863Y-113362214D01*
X110072860Y-113362218D01*
X109963371Y-113526079D01*
X109963364Y-113526092D01*
X109887950Y-113708160D01*
X109887947Y-113708170D01*
X109849500Y-113901456D01*
X109849500Y-113901459D01*
X109849500Y-114698541D01*
X109849500Y-114698543D01*
X109849499Y-114698543D01*
X95500500Y-114698543D01*
X95500500Y-110500003D01*
X107894435Y-110500003D01*
X107914630Y-110679249D01*
X107914631Y-110679254D01*
X107974211Y-110849523D01*
X108070184Y-111002262D01*
X108197738Y-111129816D01*
X108350478Y-111225789D01*
X108520745Y-111285368D01*
X108520750Y-111285369D01*
X108699996Y-111305565D01*
X108700000Y-111305565D01*
X108700004Y-111305565D01*
X108879249Y-111285369D01*
X108879252Y-111285368D01*
X108879255Y-111285368D01*
X109049522Y-111225789D01*
X109202262Y-111129816D01*
X109329816Y-111002262D01*
X109425789Y-110849522D01*
X109485368Y-110679255D01*
X109505565Y-110500000D01*
X109485368Y-110320745D01*
X109425789Y-110150478D01*
X109329816Y-109997738D01*
X109202262Y-109870184D01*
X109163473Y-109845811D01*
X109049523Y-109774211D01*
X108879254Y-109714631D01*
X108879249Y-109714630D01*
X108700004Y-109694435D01*
X108699996Y-109694435D01*
X108520750Y-109714630D01*
X108520745Y-109714631D01*
X108350476Y-109774211D01*
X108197737Y-109870184D01*
X108070184Y-109997737D01*
X107974211Y-110150476D01*
X107914631Y-110320745D01*
X107914630Y-110320750D01*
X107894435Y-110499996D01*
X107894435Y-110500003D01*
X95500500Y-110500003D01*
X95500500Y-108230000D01*
X144877710Y-108230000D01*
X144896847Y-108509794D01*
X144896848Y-108509796D01*
X144953903Y-108784364D01*
X144953908Y-108784381D01*
X145047819Y-109048622D01*
X145047820Y-109048624D01*
X145176848Y-109297637D01*
X145176852Y-109297643D01*
X145315245Y-109493701D01*
X145949674Y-108859272D01*
X146043888Y-108988946D01*
X146173554Y-109118612D01*
X146303227Y-109212825D01*
X145670241Y-109845811D01*
X145747535Y-109908696D01*
X145747549Y-109908706D01*
X145987164Y-110054419D01*
X145987168Y-110054421D01*
X146244388Y-110166146D01*
X146514435Y-110241810D01*
X146514441Y-110241811D01*
X146792275Y-110280000D01*
X147072725Y-110280000D01*
X147350558Y-110241811D01*
X147350564Y-110241810D01*
X147620611Y-110166146D01*
X147877831Y-110054421D01*
X147877835Y-110054419D01*
X148117450Y-109908706D01*
X148117464Y-109908696D01*
X148194758Y-109845811D01*
X147561772Y-109212825D01*
X147691446Y-109118612D01*
X147821112Y-108988946D01*
X147915325Y-108859272D01*
X148549753Y-109493700D01*
X148688151Y-109297636D01*
X148817179Y-109048624D01*
X148817180Y-109048622D01*
X148911091Y-108784381D01*
X148911096Y-108784364D01*
X148968151Y-108509796D01*
X148968152Y-108509794D01*
X148987289Y-108230000D01*
X148968152Y-107950205D01*
X148968151Y-107950203D01*
X148911096Y-107675635D01*
X148911091Y-107675618D01*
X148817180Y-107411377D01*
X148817179Y-107411375D01*
X148688151Y-107162362D01*
X148688147Y-107162356D01*
X148549753Y-106966297D01*
X147915324Y-107600726D01*
X147821112Y-107471054D01*
X147691446Y-107341388D01*
X147561772Y-107247174D01*
X148194758Y-106614188D01*
X148117465Y-106551303D01*
X148117450Y-106551293D01*
X147877835Y-106405580D01*
X147877831Y-106405578D01*
X147620611Y-106293853D01*
X147350564Y-106218189D01*
X147350558Y-106218188D01*
X147072725Y-106180000D01*
X146792275Y-106180000D01*
X146514441Y-106218188D01*
X146514435Y-106218189D01*
X146244388Y-106293853D01*
X145987168Y-106405578D01*
X145987164Y-106405580D01*
X145747546Y-106551295D01*
X145670240Y-106614188D01*
X146303227Y-107247174D01*
X146173554Y-107341388D01*
X146043888Y-107471054D01*
X145949674Y-107600727D01*
X145315245Y-106966298D01*
X145176845Y-107162368D01*
X145047820Y-107411375D01*
X145047819Y-107411377D01*
X144953908Y-107675618D01*
X144953903Y-107675635D01*
X144896848Y-107950203D01*
X144896847Y-107950205D01*
X144877710Y-108230000D01*
X95500500Y-108230000D01*
X95500500Y-106648543D01*
X114699499Y-106648543D01*
X114737947Y-106841829D01*
X114737950Y-106841839D01*
X114813364Y-107023907D01*
X114813371Y-107023920D01*
X114922860Y-107187781D01*
X114922863Y-107187785D01*
X115062214Y-107327136D01*
X115062218Y-107327139D01*
X115226079Y-107436628D01*
X115226092Y-107436635D01*
X115408160Y-107512049D01*
X115408165Y-107512051D01*
X115408169Y-107512051D01*
X115408170Y-107512052D01*
X115601456Y-107550500D01*
X115601459Y-107550500D01*
X116448543Y-107550500D01*
X116578582Y-107524632D01*
X116641835Y-107512051D01*
X116823914Y-107436632D01*
X116987782Y-107327139D01*
X117127139Y-107187782D01*
X117236632Y-107023914D01*
X117312051Y-106841835D01*
X117350500Y-106648541D01*
X117350500Y-105851459D01*
X117350500Y-105851456D01*
X117312052Y-105658170D01*
X117312051Y-105658169D01*
X117312051Y-105658165D01*
X117312049Y-105658160D01*
X117236635Y-105476092D01*
X117236628Y-105476079D01*
X117127139Y-105312218D01*
X117127136Y-105312214D01*
X116987785Y-105172863D01*
X116987781Y-105172860D01*
X116823920Y-105063371D01*
X116823907Y-105063364D01*
X116641839Y-104987950D01*
X116641829Y-104987947D01*
X116448543Y-104949500D01*
X116448541Y-104949500D01*
X115798541Y-104949500D01*
X115601459Y-104949500D01*
X115601457Y-104949500D01*
X115408170Y-104987947D01*
X115408160Y-104987950D01*
X115226092Y-105063364D01*
X115226079Y-105063371D01*
X115062218Y-105172860D01*
X115062214Y-105172863D01*
X114922863Y-105312214D01*
X114922860Y-105312218D01*
X114813371Y-105476079D01*
X114813364Y-105476092D01*
X114737950Y-105658160D01*
X114737947Y-105658170D01*
X114699500Y-105851456D01*
X114699500Y-105851459D01*
X114699500Y-106648541D01*
X114699500Y-106648543D01*
X114699499Y-106648543D01*
X95500500Y-106648543D01*
X95500500Y-102876000D01*
X130094500Y-102876000D01*
X130094501Y-102876009D01*
X130106052Y-102983450D01*
X130106054Y-102983462D01*
X130117260Y-103034972D01*
X130151383Y-103137497D01*
X130151386Y-103137503D01*
X130229171Y-103258537D01*
X130229179Y-103258548D01*
X130274923Y-103311340D01*
X130274926Y-103311343D01*
X130274930Y-103311347D01*
X130383664Y-103405567D01*
X130383667Y-103405568D01*
X130383668Y-103405569D01*
X130477925Y-103448616D01*
X130514541Y-103465338D01*
X130581580Y-103485023D01*
X130581584Y-103485024D01*
X130724000Y-103505500D01*
X130724003Y-103505500D01*
X132825990Y-103505500D01*
X132826000Y-103505500D01*
X132933456Y-103493947D01*
X132984967Y-103482741D01*
X133019197Y-103471347D01*
X133087497Y-103448616D01*
X133087501Y-103448613D01*
X133087504Y-103448613D01*
X133208543Y-103370825D01*
X133261347Y-103325070D01*
X133355567Y-103216336D01*
X133415338Y-103085459D01*
X133435023Y-103018420D01*
X133435024Y-103018416D01*
X133455500Y-102876000D01*
X133455500Y-100324000D01*
X133443947Y-100216544D01*
X133432741Y-100165033D01*
X133432637Y-100164722D01*
X133398616Y-100062502D01*
X133398613Y-100062496D01*
X133320828Y-99941462D01*
X133320825Y-99941457D01*
X133320820Y-99941451D01*
X133275076Y-99888659D01*
X133275072Y-99888656D01*
X133275070Y-99888653D01*
X133166336Y-99794433D01*
X133166333Y-99794431D01*
X133166331Y-99794430D01*
X133035465Y-99734664D01*
X133035460Y-99734662D01*
X133035459Y-99734662D01*
X132968420Y-99714977D01*
X132968422Y-99714977D01*
X132968417Y-99714976D01*
X132906347Y-99706052D01*
X132826000Y-99694500D01*
X130724000Y-99694500D01*
X130723991Y-99694500D01*
X130723990Y-99694501D01*
X130616549Y-99706052D01*
X130616537Y-99706054D01*
X130565027Y-99717260D01*
X130462502Y-99751383D01*
X130462496Y-99751386D01*
X130341462Y-99829171D01*
X130341451Y-99829179D01*
X130288659Y-99874923D01*
X130194433Y-99983664D01*
X130194430Y-99983668D01*
X130134664Y-100114534D01*
X130114976Y-100181582D01*
X130109949Y-100216549D01*
X130094500Y-100324000D01*
X130094500Y-102876000D01*
X95500500Y-102876000D01*
X95500500Y-101448543D01*
X118949499Y-101448543D01*
X118987947Y-101641829D01*
X118987950Y-101641839D01*
X119063364Y-101823907D01*
X119063371Y-101823920D01*
X119172860Y-101987781D01*
X119172863Y-101987785D01*
X119312214Y-102127136D01*
X119312218Y-102127139D01*
X119476079Y-102236628D01*
X119476092Y-102236635D01*
X119658160Y-102312049D01*
X119658165Y-102312051D01*
X119658169Y-102312051D01*
X119658170Y-102312052D01*
X119851456Y-102350500D01*
X119851459Y-102350500D01*
X120698543Y-102350500D01*
X120828582Y-102324632D01*
X120891835Y-102312051D01*
X121073914Y-102236632D01*
X121237782Y-102127139D01*
X121377139Y-101987782D01*
X121486632Y-101823914D01*
X121562051Y-101641835D01*
X121600500Y-101448541D01*
X121600500Y-100651459D01*
X121600500Y-100651456D01*
X121562052Y-100458170D01*
X121562051Y-100458169D01*
X121562051Y-100458165D01*
X121506479Y-100324001D01*
X121486635Y-100276092D01*
X121486628Y-100276079D01*
X121377139Y-100112218D01*
X121377136Y-100112214D01*
X121237785Y-99972863D01*
X121237781Y-99972860D01*
X121073920Y-99863371D01*
X121073907Y-99863364D01*
X120891839Y-99787950D01*
X120891829Y-99787947D01*
X120698543Y-99749500D01*
X120698541Y-99749500D01*
X120048541Y-99749500D01*
X119851459Y-99749500D01*
X119851457Y-99749500D01*
X119658170Y-99787947D01*
X119658160Y-99787950D01*
X119476092Y-99863364D01*
X119476079Y-99863371D01*
X119312218Y-99972860D01*
X119312214Y-99972863D01*
X119172863Y-100112214D01*
X119172860Y-100112218D01*
X119063371Y-100276079D01*
X119063364Y-100276092D01*
X118987950Y-100458160D01*
X118987947Y-100458170D01*
X118949500Y-100651456D01*
X118949500Y-100651459D01*
X118949500Y-101251459D01*
X118949500Y-101448541D01*
X118949500Y-101448543D01*
X118949499Y-101448543D01*
X95500500Y-101448543D01*
X95500500Y-99874500D01*
X95520185Y-99807461D01*
X95572989Y-99761706D01*
X95624500Y-99750500D01*
X107065890Y-99750500D01*
X107065892Y-99750500D01*
X107193186Y-99716392D01*
X107307314Y-99650500D01*
X107307814Y-99650000D01*
X146044355Y-99650000D01*
X146064859Y-99818869D01*
X146064860Y-99818874D01*
X146125182Y-99977931D01*
X146183554Y-100062496D01*
X146221817Y-100117929D01*
X146293667Y-100181582D01*
X146349150Y-100230736D01*
X146482627Y-100300790D01*
X146499775Y-100309790D01*
X146664944Y-100350500D01*
X146835056Y-100350500D01*
X147000225Y-100309790D01*
X147017373Y-100300789D01*
X147085878Y-100287063D01*
X147132625Y-100300788D01*
X147149775Y-100309790D01*
X147314944Y-100350500D01*
X147485056Y-100350500D01*
X147650225Y-100309790D01*
X147729692Y-100268081D01*
X147800849Y-100230736D01*
X147800850Y-100230734D01*
X147800852Y-100230734D01*
X147928183Y-100117929D01*
X148024818Y-99977930D01*
X148085140Y-99818872D01*
X148105645Y-99650000D01*
X148085140Y-99481128D01*
X148085139Y-99481126D01*
X148085139Y-99481124D01*
X148052086Y-99393971D01*
X148046719Y-99324308D01*
X148052086Y-99306029D01*
X148085139Y-99218875D01*
X148085140Y-99218870D01*
X148089361Y-99184108D01*
X148105645Y-99050000D01*
X148085140Y-98881128D01*
X148024818Y-98722070D01*
X147928183Y-98582071D01*
X147800852Y-98469266D01*
X147800849Y-98469263D01*
X147650226Y-98390210D01*
X147485056Y-98349500D01*
X147314944Y-98349500D01*
X147149774Y-98390209D01*
X147149774Y-98390210D01*
X147132624Y-98399211D01*
X147064115Y-98412935D01*
X147017376Y-98399211D01*
X147000225Y-98390210D01*
X147000225Y-98390209D01*
X146835056Y-98349500D01*
X146664944Y-98349500D01*
X146499773Y-98390210D01*
X146349150Y-98469263D01*
X146221816Y-98582072D01*
X146125182Y-98722068D01*
X146064860Y-98881125D01*
X146064859Y-98881130D01*
X146044355Y-99050000D01*
X146064859Y-99218869D01*
X146064859Y-99218870D01*
X146064860Y-99218872D01*
X146097913Y-99306029D01*
X146097914Y-99306030D01*
X146103280Y-99375694D01*
X146097914Y-99393967D01*
X146090211Y-99414279D01*
X146064859Y-99481129D01*
X146064859Y-99481130D01*
X146044355Y-99650000D01*
X107307814Y-99650000D01*
X107400500Y-99557314D01*
X107466392Y-99443186D01*
X107500500Y-99315892D01*
X107500500Y-95300000D01*
X125329341Y-95300000D01*
X125349936Y-95535403D01*
X125349938Y-95535413D01*
X125411094Y-95763655D01*
X125411096Y-95763659D01*
X125411097Y-95763663D01*
X125462816Y-95874574D01*
X125510965Y-95977830D01*
X125510967Y-95977834D01*
X125619281Y-96132521D01*
X125646505Y-96171401D01*
X125813599Y-96338495D01*
X125910384Y-96406265D01*
X126007165Y-96474032D01*
X126007167Y-96474033D01*
X126007170Y-96474035D01*
X126221337Y-96573903D01*
X126449592Y-96635063D01*
X126626034Y-96650500D01*
X126684999Y-96655659D01*
X126685000Y-96655659D01*
X126685001Y-96655659D01*
X126743966Y-96650500D01*
X126920408Y-96635063D01*
X127148663Y-96573903D01*
X127362830Y-96474035D01*
X127556401Y-96338495D01*
X127678329Y-96216566D01*
X127739648Y-96183084D01*
X127809340Y-96188068D01*
X127865274Y-96229939D01*
X127882189Y-96260917D01*
X127931202Y-96392328D01*
X127931206Y-96392335D01*
X128017452Y-96507544D01*
X128017455Y-96507547D01*
X128132664Y-96593793D01*
X128132671Y-96593797D01*
X128267517Y-96644091D01*
X128267516Y-96644091D01*
X128274444Y-96644835D01*
X128327127Y-96650500D01*
X130122872Y-96650499D01*
X130182483Y-96644091D01*
X130317331Y-96593796D01*
X130432546Y-96507546D01*
X130518796Y-96392331D01*
X130569091Y-96257483D01*
X130575500Y-96197873D01*
X130575499Y-94402128D01*
X130569091Y-94342517D01*
X130567810Y-94339083D01*
X130518797Y-94207671D01*
X130518793Y-94207664D01*
X130432547Y-94092455D01*
X130432544Y-94092452D01*
X130415910Y-94080000D01*
X143465223Y-94080000D01*
X146275038Y-94080000D01*
X146245000Y-94231016D01*
X146245000Y-94428984D01*
X146275038Y-94580000D01*
X143465224Y-94580000D01*
X143485074Y-94730782D01*
X143485077Y-94730795D01*
X143554627Y-94990363D01*
X143657463Y-95238630D01*
X143657467Y-95238640D01*
X143791829Y-95471362D01*
X143955419Y-95684557D01*
X143955425Y-95684564D01*
X144145435Y-95874574D01*
X144145442Y-95874580D01*
X144358637Y-96038170D01*
X144591359Y-96172532D01*
X144591369Y-96172536D01*
X144839636Y-96275372D01*
X145099208Y-96344924D01*
X145365626Y-96379998D01*
X145365643Y-96380000D01*
X147000000Y-96380000D01*
X147000000Y-95304961D01*
X147151016Y-95335000D01*
X147348984Y-95335000D01*
X147500000Y-95304961D01*
X147500000Y-96380000D01*
X149134357Y-96380000D01*
X149134373Y-96379998D01*
X149400791Y-96344924D01*
X149660363Y-96275372D01*
X149908630Y-96172536D01*
X149908640Y-96172532D01*
X150141362Y-96038170D01*
X150354557Y-95874580D01*
X150354564Y-95874574D01*
X150544574Y-95684564D01*
X150544580Y-95684557D01*
X150708170Y-95471362D01*
X150842532Y-95238640D01*
X150842536Y-95238630D01*
X150945372Y-94990363D01*
X151014922Y-94730795D01*
X151014925Y-94730782D01*
X151034776Y-94580000D01*
X148224962Y-94580000D01*
X148255000Y-94428984D01*
X148255000Y-94231016D01*
X148224962Y-94080000D01*
X151034776Y-94080000D01*
X151014925Y-93929217D01*
X151014922Y-93929204D01*
X150945372Y-93669636D01*
X150842536Y-93421369D01*
X150842532Y-93421359D01*
X150708170Y-93188637D01*
X150544580Y-92975442D01*
X150544574Y-92975435D01*
X150354564Y-92785425D01*
X150354557Y-92785419D01*
X150141362Y-92621829D01*
X149908640Y-92487467D01*
X149908630Y-92487463D01*
X149660363Y-92384627D01*
X149400791Y-92315075D01*
X149134373Y-92280001D01*
X149134357Y-92280000D01*
X147500000Y-92280000D01*
X147500000Y-93355038D01*
X147348984Y-93325000D01*
X147151016Y-93325000D01*
X147000000Y-93355038D01*
X147000000Y-92280000D01*
X145365643Y-92280000D01*
X145365626Y-92280001D01*
X145099208Y-92315075D01*
X144839636Y-92384627D01*
X144591369Y-92487463D01*
X144591359Y-92487467D01*
X144358637Y-92621829D01*
X144145442Y-92785419D01*
X144145435Y-92785425D01*
X143955425Y-92975435D01*
X143955419Y-92975442D01*
X143791829Y-93188637D01*
X143657467Y-93421359D01*
X143657463Y-93421369D01*
X143554627Y-93669636D01*
X143485077Y-93929204D01*
X143485074Y-93929217D01*
X143465223Y-94080000D01*
X130415910Y-94080000D01*
X130317335Y-94006206D01*
X130317328Y-94006202D01*
X130182482Y-93955908D01*
X130182483Y-93955908D01*
X130122883Y-93949501D01*
X130122881Y-93949500D01*
X130122873Y-93949500D01*
X130122864Y-93949500D01*
X128327129Y-93949500D01*
X128327123Y-93949501D01*
X128267516Y-93955908D01*
X128132671Y-94006202D01*
X128132664Y-94006206D01*
X128017455Y-94092452D01*
X128017452Y-94092455D01*
X127931206Y-94207664D01*
X127931203Y-94207669D01*
X127882189Y-94339083D01*
X127840317Y-94395016D01*
X127774853Y-94419433D01*
X127706580Y-94404581D01*
X127678326Y-94383430D01*
X127556402Y-94261506D01*
X127556395Y-94261501D01*
X127362834Y-94125967D01*
X127362830Y-94125965D01*
X127304180Y-94098616D01*
X127148663Y-94026097D01*
X127148659Y-94026096D01*
X127148655Y-94026094D01*
X126920413Y-93964938D01*
X126920403Y-93964936D01*
X126685001Y-93944341D01*
X126684999Y-93944341D01*
X126449596Y-93964936D01*
X126449586Y-93964938D01*
X126221344Y-94026094D01*
X126221335Y-94026098D01*
X126007171Y-94125964D01*
X126007169Y-94125965D01*
X125813597Y-94261505D01*
X125646505Y-94428597D01*
X125510965Y-94622169D01*
X125510964Y-94622171D01*
X125411098Y-94836335D01*
X125411094Y-94836344D01*
X125349938Y-95064586D01*
X125349936Y-95064596D01*
X125329341Y-95299999D01*
X125329341Y-95300000D01*
X107500500Y-95300000D01*
X107500500Y-94184108D01*
X107466392Y-94056814D01*
X107465671Y-94055566D01*
X107445615Y-94020828D01*
X107400500Y-93942686D01*
X107307314Y-93849500D01*
X107250250Y-93816554D01*
X107193187Y-93783608D01*
X107129539Y-93766554D01*
X107065892Y-93749500D01*
X107065891Y-93749500D01*
X95624500Y-93749500D01*
X95557461Y-93729815D01*
X95511706Y-93677011D01*
X95500500Y-93625500D01*
X95500500Y-93526000D01*
X119444500Y-93526000D01*
X119444501Y-93526009D01*
X119456052Y-93633450D01*
X119456054Y-93633462D01*
X119467260Y-93684972D01*
X119501383Y-93787497D01*
X119501386Y-93787503D01*
X119579171Y-93908537D01*
X119579179Y-93908548D01*
X119624923Y-93961340D01*
X119624926Y-93961343D01*
X119624930Y-93961347D01*
X119733664Y-94055567D01*
X119733667Y-94055568D01*
X119733668Y-94055569D01*
X119827925Y-94098616D01*
X119864541Y-94115338D01*
X119931580Y-94135023D01*
X119931584Y-94135024D01*
X120074000Y-94155500D01*
X120074003Y-94155500D01*
X121475990Y-94155500D01*
X121476000Y-94155500D01*
X121583456Y-94143947D01*
X121634967Y-94132741D01*
X121669197Y-94121347D01*
X121737497Y-94098616D01*
X121737501Y-94098613D01*
X121737504Y-94098613D01*
X121858543Y-94020825D01*
X121911347Y-93975070D01*
X122005567Y-93866336D01*
X122065338Y-93735459D01*
X122085023Y-93668420D01*
X122085024Y-93668416D01*
X122105500Y-93526000D01*
X122105500Y-93481824D01*
X122110840Y-93445826D01*
X122112047Y-93441842D01*
X122112051Y-93441835D01*
X122150500Y-93248541D01*
X122150500Y-92451459D01*
X122150500Y-92451456D01*
X122112051Y-92258165D01*
X122110838Y-92254165D01*
X122105500Y-92218174D01*
X122105500Y-92174010D01*
X122105500Y-92174000D01*
X122093947Y-92066544D01*
X122082741Y-92015033D01*
X122082637Y-92014722D01*
X122048616Y-91912502D01*
X122048613Y-91912496D01*
X121970828Y-91791462D01*
X121970825Y-91791457D01*
X121970820Y-91791451D01*
X121925076Y-91738659D01*
X121925072Y-91738656D01*
X121925070Y-91738653D01*
X121816336Y-91644433D01*
X121816333Y-91644431D01*
X121816331Y-91644430D01*
X121685465Y-91584664D01*
X121685460Y-91584662D01*
X121685459Y-91584662D01*
X121618420Y-91564977D01*
X121618422Y-91564977D01*
X121618417Y-91564976D01*
X121556347Y-91556052D01*
X121476000Y-91544500D01*
X120074000Y-91544500D01*
X120073991Y-91544500D01*
X120073990Y-91544501D01*
X119966549Y-91556052D01*
X119966537Y-91556054D01*
X119915027Y-91567260D01*
X119812502Y-91601383D01*
X119812496Y-91601386D01*
X119691462Y-91679171D01*
X119691451Y-91679179D01*
X119638659Y-91724923D01*
X119544433Y-91833664D01*
X119544430Y-91833668D01*
X119484664Y-91964534D01*
X119464976Y-92031582D01*
X119459949Y-92066549D01*
X119444500Y-92174000D01*
X119444500Y-93526000D01*
X95500500Y-93526000D01*
X95500500Y-91450000D01*
X125329341Y-91450000D01*
X125349936Y-91685403D01*
X125349938Y-91685413D01*
X125411094Y-91913655D01*
X125411096Y-91913659D01*
X125411097Y-91913663D01*
X125434819Y-91964534D01*
X125510965Y-92127830D01*
X125510967Y-92127834D01*
X125591152Y-92242349D01*
X125646505Y-92321401D01*
X125813599Y-92488495D01*
X125910384Y-92556265D01*
X126007165Y-92624032D01*
X126007167Y-92624033D01*
X126007170Y-92624035D01*
X126221337Y-92723903D01*
X126449592Y-92785063D01*
X126626034Y-92800500D01*
X126684999Y-92805659D01*
X126685000Y-92805659D01*
X126685001Y-92805659D01*
X126743966Y-92800500D01*
X126920408Y-92785063D01*
X127148663Y-92723903D01*
X127362830Y-92624035D01*
X127556401Y-92488495D01*
X127678329Y-92366566D01*
X127739648Y-92333084D01*
X127809340Y-92338068D01*
X127865274Y-92379939D01*
X127882189Y-92410917D01*
X127931202Y-92542328D01*
X127931206Y-92542335D01*
X128017452Y-92657544D01*
X128017455Y-92657547D01*
X128132664Y-92743793D01*
X128132671Y-92743797D01*
X128267517Y-92794091D01*
X128267516Y-92794091D01*
X128274444Y-92794835D01*
X128327127Y-92800500D01*
X130122872Y-92800499D01*
X130182483Y-92794091D01*
X130317331Y-92743796D01*
X130432546Y-92657546D01*
X130518796Y-92542331D01*
X130569091Y-92407483D01*
X130575500Y-92347873D01*
X130575499Y-90552128D01*
X130569091Y-90492517D01*
X130567810Y-90489083D01*
X130518797Y-90357671D01*
X130518793Y-90357664D01*
X130432547Y-90242455D01*
X130432544Y-90242452D01*
X130317335Y-90156206D01*
X130317328Y-90156202D01*
X130182482Y-90105908D01*
X130182483Y-90105908D01*
X130122883Y-90099501D01*
X130122881Y-90099500D01*
X130122873Y-90099500D01*
X130122864Y-90099500D01*
X128327129Y-90099500D01*
X128327123Y-90099501D01*
X128267516Y-90105908D01*
X128132671Y-90156202D01*
X128132664Y-90156206D01*
X128017455Y-90242452D01*
X128017452Y-90242455D01*
X127931206Y-90357664D01*
X127931203Y-90357669D01*
X127882189Y-90489083D01*
X127840317Y-90545016D01*
X127774853Y-90569433D01*
X127706580Y-90554581D01*
X127678326Y-90533430D01*
X127556402Y-90411506D01*
X127556395Y-90411501D01*
X127362834Y-90275967D01*
X127362830Y-90275965D01*
X127319082Y-90255565D01*
X127148663Y-90176097D01*
X127148659Y-90176096D01*
X127148655Y-90176094D01*
X126920413Y-90114938D01*
X126920403Y-90114936D01*
X126685001Y-90094341D01*
X126684999Y-90094341D01*
X126449596Y-90114936D01*
X126449586Y-90114938D01*
X126221344Y-90176094D01*
X126221335Y-90176098D01*
X126007171Y-90275964D01*
X126007169Y-90275965D01*
X125813597Y-90411505D01*
X125646505Y-90578597D01*
X125510965Y-90772169D01*
X125510964Y-90772171D01*
X125411098Y-90986335D01*
X125411094Y-90986344D01*
X125349938Y-91214586D01*
X125349936Y-91214596D01*
X125329341Y-91449999D01*
X125329341Y-91450000D01*
X95500500Y-91450000D01*
X95500500Y-89450003D01*
X113121935Y-89450003D01*
X113142130Y-89629249D01*
X113142131Y-89629254D01*
X113201711Y-89799523D01*
X113284707Y-89931610D01*
X113297684Y-89952262D01*
X113425238Y-90079816D01*
X113515580Y-90136582D01*
X113546808Y-90156204D01*
X113577978Y-90175789D01*
X113748245Y-90235368D01*
X113748250Y-90235369D01*
X113927496Y-90255565D01*
X113927500Y-90255565D01*
X113927504Y-90255565D01*
X114106749Y-90235369D01*
X114106752Y-90235368D01*
X114106755Y-90235368D01*
X114277022Y-90175789D01*
X114429762Y-90079816D01*
X114557316Y-89952262D01*
X114653289Y-89799522D01*
X114712868Y-89629255D01*
X114733065Y-89450003D01*
X118394435Y-89450003D01*
X118414630Y-89629249D01*
X118414631Y-89629254D01*
X118474211Y-89799523D01*
X118557207Y-89931610D01*
X118570184Y-89952262D01*
X118697738Y-90079816D01*
X118788080Y-90136582D01*
X118819308Y-90156204D01*
X118850478Y-90175789D01*
X119020745Y-90235368D01*
X119020750Y-90235369D01*
X119199996Y-90255565D01*
X119200000Y-90255565D01*
X119200004Y-90255565D01*
X119379249Y-90235369D01*
X119379252Y-90235368D01*
X119379255Y-90235368D01*
X119549522Y-90175789D01*
X119702262Y-90079816D01*
X119829816Y-89952262D01*
X119925789Y-89799522D01*
X119985368Y-89629255D01*
X120005565Y-89450000D01*
X119994563Y-89352351D01*
X140419500Y-89352351D01*
X140451522Y-89554534D01*
X140514781Y-89749223D01*
X140607715Y-89931613D01*
X140728028Y-90097213D01*
X140872786Y-90241971D01*
X141027749Y-90354556D01*
X141038390Y-90362287D01*
X141134978Y-90411501D01*
X141220776Y-90455218D01*
X141220778Y-90455218D01*
X141220781Y-90455220D01*
X141325001Y-90489083D01*
X141415465Y-90518477D01*
X141509874Y-90533430D01*
X141617648Y-90550500D01*
X141617649Y-90550500D01*
X142722351Y-90550500D01*
X142722352Y-90550500D01*
X142924534Y-90518477D01*
X143119219Y-90455220D01*
X143301610Y-90362287D01*
X143394590Y-90294732D01*
X143467213Y-90241971D01*
X143467215Y-90241968D01*
X143467219Y-90241966D01*
X143611966Y-90097219D01*
X143611968Y-90097215D01*
X143611971Y-90097213D01*
X143664732Y-90024590D01*
X143732287Y-89931610D01*
X143825220Y-89749219D01*
X143888477Y-89554534D01*
X143920500Y-89352352D01*
X143920500Y-89147648D01*
X143888477Y-88945466D01*
X143868981Y-88885465D01*
X143847196Y-88818416D01*
X143825220Y-88750781D01*
X143825218Y-88750778D01*
X143825218Y-88750776D01*
X143771034Y-88644435D01*
X143732287Y-88568390D01*
X143724556Y-88557749D01*
X143611971Y-88402786D01*
X143467213Y-88258028D01*
X143301613Y-88137715D01*
X143301612Y-88137714D01*
X143301610Y-88137713D01*
X143244653Y-88108691D01*
X143119223Y-88044781D01*
X142958385Y-87992521D01*
X142900710Y-87953083D01*
X142873512Y-87888724D01*
X142885427Y-87819878D01*
X142932672Y-87768402D01*
X142958387Y-87756659D01*
X143042253Y-87729409D01*
X143196524Y-87650804D01*
X143336602Y-87549032D01*
X143459032Y-87426602D01*
X143560804Y-87286524D01*
X143639408Y-87132255D01*
X143692914Y-86967584D01*
X143694115Y-86960000D01*
X142539504Y-86960000D01*
X142584674Y-86881764D01*
X142615000Y-86768585D01*
X142615000Y-86651415D01*
X142584674Y-86538236D01*
X142539504Y-86460000D01*
X143694115Y-86460000D01*
X143694115Y-86459999D01*
X143692914Y-86452415D01*
X143639408Y-86287744D01*
X143560804Y-86133475D01*
X143459032Y-85993397D01*
X143336602Y-85870967D01*
X143196524Y-85769195D01*
X143042257Y-85690591D01*
X142877584Y-85637085D01*
X142706571Y-85610000D01*
X142420000Y-85610000D01*
X142420000Y-86340495D01*
X142341764Y-86295326D01*
X142228585Y-86265000D01*
X142111415Y-86265000D01*
X141998236Y-86295326D01*
X141920000Y-86340495D01*
X141920000Y-85610000D01*
X141633429Y-85610000D01*
X141462415Y-85637085D01*
X141297742Y-85690591D01*
X141143475Y-85769195D01*
X141003397Y-85870967D01*
X140880967Y-85993397D01*
X140779195Y-86133475D01*
X140700591Y-86287744D01*
X140647085Y-86452415D01*
X140645884Y-86459999D01*
X140645885Y-86460000D01*
X141800496Y-86460000D01*
X141755326Y-86538236D01*
X141725000Y-86651415D01*
X141725000Y-86768585D01*
X141755326Y-86881764D01*
X141800496Y-86960000D01*
X140645885Y-86960000D01*
X140647085Y-86967584D01*
X140700591Y-87132255D01*
X140779195Y-87286524D01*
X140880967Y-87426602D01*
X141003397Y-87549032D01*
X141143475Y-87650804D01*
X141297744Y-87729408D01*
X141381613Y-87756659D01*
X141439288Y-87796096D01*
X141466487Y-87860455D01*
X141454573Y-87929301D01*
X141407329Y-87980777D01*
X141381614Y-87992521D01*
X141220777Y-88044781D01*
X141038386Y-88137715D01*
X140872786Y-88258028D01*
X140728028Y-88402786D01*
X140607715Y-88568386D01*
X140514781Y-88750776D01*
X140451522Y-88945465D01*
X140419500Y-89147648D01*
X140419500Y-89352351D01*
X119994563Y-89352351D01*
X119987982Y-89293947D01*
X119985369Y-89270750D01*
X119985368Y-89270745D01*
X119962561Y-89205566D01*
X119925789Y-89100478D01*
X119899439Y-89058543D01*
X119829815Y-88947737D01*
X119702262Y-88820184D01*
X119549523Y-88724211D01*
X119379254Y-88664631D01*
X119379249Y-88664630D01*
X119200004Y-88644435D01*
X119199996Y-88644435D01*
X119020750Y-88664630D01*
X119020745Y-88664631D01*
X118850476Y-88724211D01*
X118697737Y-88820184D01*
X118570184Y-88947737D01*
X118474211Y-89100476D01*
X118414631Y-89270745D01*
X118414630Y-89270750D01*
X118394435Y-89449996D01*
X118394435Y-89450003D01*
X114733065Y-89450003D01*
X114733065Y-89450000D01*
X114715482Y-89293947D01*
X114712869Y-89270750D01*
X114712868Y-89270745D01*
X114690061Y-89205566D01*
X114653289Y-89100478D01*
X114626939Y-89058543D01*
X114557315Y-88947737D01*
X114429762Y-88820184D01*
X114277023Y-88724211D01*
X114106754Y-88664631D01*
X114106749Y-88664630D01*
X113927504Y-88644435D01*
X113927496Y-88644435D01*
X113748250Y-88664630D01*
X113748245Y-88664631D01*
X113577976Y-88724211D01*
X113425237Y-88820184D01*
X113297684Y-88947737D01*
X113201711Y-89100476D01*
X113142131Y-89270745D01*
X113142130Y-89270750D01*
X113121935Y-89449996D01*
X113121935Y-89450003D01*
X95500500Y-89450003D01*
X95500500Y-88676000D01*
X96644500Y-88676000D01*
X96644501Y-88676009D01*
X96656052Y-88783450D01*
X96656054Y-88783462D01*
X96667260Y-88834972D01*
X96701383Y-88937497D01*
X96701386Y-88937503D01*
X96779171Y-89058537D01*
X96779179Y-89058548D01*
X96824923Y-89111340D01*
X96824926Y-89111343D01*
X96824930Y-89111347D01*
X96933664Y-89205567D01*
X96933667Y-89205568D01*
X96933668Y-89205569D01*
X97027925Y-89248616D01*
X97064541Y-89265338D01*
X97131580Y-89285023D01*
X97131584Y-89285024D01*
X97274000Y-89305500D01*
X97274003Y-89305500D01*
X98675990Y-89305500D01*
X98676000Y-89305500D01*
X98783456Y-89293947D01*
X98834967Y-89282741D01*
X98871009Y-89270745D01*
X98937497Y-89248616D01*
X98937501Y-89248613D01*
X98937504Y-89248613D01*
X99058543Y-89170825D01*
X99111347Y-89125070D01*
X99205567Y-89016336D01*
X99265338Y-88885459D01*
X99285023Y-88818420D01*
X99285024Y-88818416D01*
X99305500Y-88676000D01*
X99305500Y-87324000D01*
X99293947Y-87216544D01*
X99282741Y-87165033D01*
X99279402Y-87155000D01*
X99248616Y-87062502D01*
X99248613Y-87062496D01*
X99170828Y-86941462D01*
X99170825Y-86941457D01*
X99160247Y-86929249D01*
X99125076Y-86888659D01*
X99125072Y-86888656D01*
X99125070Y-86888653D01*
X99016336Y-86794433D01*
X99016333Y-86794431D01*
X99016331Y-86794430D01*
X98919052Y-86750003D01*
X120321935Y-86750003D01*
X120342130Y-86929249D01*
X120342131Y-86929254D01*
X120401711Y-87099523D01*
X120453274Y-87181584D01*
X120497684Y-87252262D01*
X120625238Y-87379816D01*
X120777978Y-87475789D01*
X120930758Y-87529249D01*
X120948245Y-87535368D01*
X120948250Y-87535369D01*
X121127496Y-87555565D01*
X121127500Y-87555565D01*
X121127504Y-87555565D01*
X121306749Y-87535369D01*
X121306752Y-87535368D01*
X121306755Y-87535368D01*
X121477022Y-87475789D01*
X121629762Y-87379816D01*
X121659575Y-87350003D01*
X135944435Y-87350003D01*
X135964630Y-87529249D01*
X135964631Y-87529254D01*
X136024211Y-87699523D01*
X136099836Y-87819878D01*
X136120184Y-87852262D01*
X136247738Y-87979816D01*
X136250455Y-87981523D01*
X136351127Y-88044780D01*
X136400478Y-88075789D01*
X136570745Y-88135368D01*
X136570750Y-88135369D01*
X136749996Y-88155565D01*
X136750000Y-88155565D01*
X136750004Y-88155565D01*
X136929249Y-88135369D01*
X136929252Y-88135368D01*
X136929255Y-88135368D01*
X137099522Y-88075789D01*
X137252262Y-87979816D01*
X137379816Y-87852262D01*
X137475789Y-87699522D01*
X137535368Y-87529255D01*
X137541392Y-87475789D01*
X137555565Y-87350003D01*
X137555565Y-87349996D01*
X137535369Y-87170750D01*
X137535368Y-87170745D01*
X137510446Y-87099522D01*
X137475789Y-87000478D01*
X137379816Y-86847738D01*
X137252262Y-86720184D01*
X137099523Y-86624211D01*
X136929254Y-86564631D01*
X136929249Y-86564630D01*
X136750004Y-86544435D01*
X136749996Y-86544435D01*
X136570750Y-86564630D01*
X136570745Y-86564631D01*
X136400476Y-86624211D01*
X136247737Y-86720184D01*
X136120184Y-86847737D01*
X136024211Y-87000476D01*
X135964631Y-87170745D01*
X135964630Y-87170750D01*
X135944435Y-87349996D01*
X135944435Y-87350003D01*
X121659575Y-87350003D01*
X121757316Y-87252262D01*
X121853289Y-87099522D01*
X121912868Y-86929255D01*
X121924144Y-86829179D01*
X121933065Y-86750003D01*
X121933065Y-86749996D01*
X121912869Y-86570750D01*
X121912868Y-86570745D01*
X121901493Y-86538236D01*
X121870619Y-86450003D01*
X134244435Y-86450003D01*
X134264630Y-86629249D01*
X134264631Y-86629254D01*
X134324211Y-86799523D01*
X134405724Y-86929249D01*
X134420184Y-86952262D01*
X134547738Y-87079816D01*
X134619129Y-87124674D01*
X134692450Y-87170745D01*
X134700478Y-87175789D01*
X134870745Y-87235368D01*
X134870750Y-87235369D01*
X135049996Y-87255565D01*
X135050000Y-87255565D01*
X135050004Y-87255565D01*
X135229249Y-87235369D01*
X135229252Y-87235368D01*
X135229255Y-87235368D01*
X135399522Y-87175789D01*
X135552262Y-87079816D01*
X135679816Y-86952262D01*
X135775789Y-86799522D01*
X135835368Y-86629255D01*
X135835369Y-86629249D01*
X135855565Y-86450003D01*
X135855565Y-86449996D01*
X135835369Y-86270750D01*
X135835368Y-86270745D01*
X135833358Y-86265000D01*
X135775789Y-86100478D01*
X135679816Y-85947738D01*
X135552262Y-85820184D01*
X135471114Y-85769195D01*
X135399523Y-85724211D01*
X135229254Y-85664631D01*
X135229249Y-85664630D01*
X135050004Y-85644435D01*
X135049996Y-85644435D01*
X134870750Y-85664630D01*
X134870745Y-85664631D01*
X134700476Y-85724211D01*
X134547737Y-85820184D01*
X134420184Y-85947737D01*
X134324211Y-86100476D01*
X134264631Y-86270745D01*
X134264630Y-86270750D01*
X134244435Y-86449996D01*
X134244435Y-86450003D01*
X121870619Y-86450003D01*
X121853289Y-86400478D01*
X121757316Y-86247738D01*
X121629762Y-86120184D01*
X121598397Y-86100476D01*
X121477023Y-86024211D01*
X121306754Y-85964631D01*
X121306749Y-85964630D01*
X121127504Y-85944435D01*
X121127496Y-85944435D01*
X120948250Y-85964630D01*
X120948245Y-85964631D01*
X120777976Y-86024211D01*
X120625237Y-86120184D01*
X120497684Y-86247737D01*
X120401711Y-86400476D01*
X120342131Y-86570745D01*
X120342130Y-86570750D01*
X120321935Y-86749996D01*
X120321935Y-86750003D01*
X98919052Y-86750003D01*
X98885465Y-86734664D01*
X98885460Y-86734662D01*
X98885459Y-86734662D01*
X98818420Y-86714977D01*
X98818422Y-86714977D01*
X98818417Y-86714976D01*
X98756347Y-86706052D01*
X98676000Y-86694500D01*
X97274000Y-86694500D01*
X97273991Y-86694500D01*
X97273990Y-86694501D01*
X97166549Y-86706052D01*
X97166537Y-86706054D01*
X97115027Y-86717260D01*
X97012502Y-86751383D01*
X97012496Y-86751386D01*
X96891462Y-86829171D01*
X96891451Y-86829179D01*
X96838659Y-86874923D01*
X96744433Y-86983664D01*
X96744430Y-86983668D01*
X96684664Y-87114534D01*
X96664976Y-87181582D01*
X96659949Y-87216549D01*
X96644500Y-87324000D01*
X96644500Y-88676000D01*
X95500500Y-88676000D01*
X95500500Y-82030000D01*
X97346841Y-82030000D01*
X97367436Y-82265403D01*
X97367438Y-82265413D01*
X97428594Y-82493655D01*
X97428596Y-82493659D01*
X97428597Y-82493663D01*
X97429153Y-82494855D01*
X97528465Y-82707830D01*
X97528467Y-82707834D01*
X97599023Y-82808597D01*
X97664005Y-82901401D01*
X97831099Y-83068495D01*
X97927884Y-83136265D01*
X98024665Y-83204032D01*
X98024667Y-83204033D01*
X98024670Y-83204035D01*
X98224055Y-83297010D01*
X98276493Y-83343181D01*
X98295645Y-83410375D01*
X98275429Y-83477256D01*
X98222264Y-83522590D01*
X98216445Y-83525017D01*
X98187710Y-83536149D01*
X98187701Y-83536153D01*
X98006502Y-83648346D01*
X98006500Y-83648348D01*
X97849000Y-83791928D01*
X97720561Y-83962008D01*
X97625567Y-84152781D01*
X97625562Y-84152794D01*
X97577987Y-84319999D01*
X97577988Y-84320000D01*
X98269488Y-84320000D01*
X98236575Y-84377007D01*
X98202500Y-84504174D01*
X98202500Y-84635826D01*
X98236575Y-84762993D01*
X98269488Y-84820000D01*
X97577988Y-84820000D01*
X97625562Y-84987205D01*
X97625567Y-84987218D01*
X97720561Y-85177991D01*
X97849000Y-85348071D01*
X98006500Y-85491651D01*
X98006502Y-85491653D01*
X98187701Y-85603846D01*
X98187707Y-85603849D01*
X98386441Y-85680838D01*
X98452500Y-85693186D01*
X98452500Y-85003012D01*
X98509507Y-85035925D01*
X98636674Y-85070000D01*
X98768326Y-85070000D01*
X98895493Y-85035925D01*
X98952500Y-85003012D01*
X98952500Y-85693185D01*
X99018558Y-85680838D01*
X99217292Y-85603849D01*
X99217298Y-85603846D01*
X99398497Y-85491653D01*
X99398499Y-85491651D01*
X99555999Y-85348071D01*
X99684438Y-85177991D01*
X99779432Y-84987218D01*
X99779437Y-84987205D01*
X99796852Y-84926000D01*
X101694500Y-84926000D01*
X101694501Y-84926009D01*
X101706052Y-85033450D01*
X101706054Y-85033462D01*
X101717260Y-85084972D01*
X101751383Y-85187497D01*
X101751386Y-85187503D01*
X101829171Y-85308537D01*
X101829179Y-85308548D01*
X101874923Y-85361340D01*
X101874926Y-85361343D01*
X101874930Y-85361347D01*
X101983664Y-85455567D01*
X101983667Y-85455568D01*
X101983668Y-85455569D01*
X102077925Y-85498616D01*
X102114541Y-85515338D01*
X102181580Y-85535023D01*
X102181584Y-85535024D01*
X102324000Y-85555500D01*
X102324003Y-85555500D01*
X103725990Y-85555500D01*
X103726000Y-85555500D01*
X103833456Y-85543947D01*
X103884967Y-85532741D01*
X103919197Y-85521347D01*
X103987497Y-85498616D01*
X103987501Y-85498613D01*
X103987504Y-85498613D01*
X104108543Y-85420825D01*
X104161347Y-85375070D01*
X104255567Y-85266336D01*
X104315338Y-85135459D01*
X104335023Y-85068420D01*
X104335024Y-85068416D01*
X104341752Y-85021615D01*
X104349927Y-84991813D01*
X104377188Y-84926000D01*
X107344500Y-84926000D01*
X107344501Y-84926009D01*
X107356052Y-85033450D01*
X107356054Y-85033462D01*
X107367260Y-85084972D01*
X107401383Y-85187497D01*
X107401386Y-85187503D01*
X107479171Y-85308537D01*
X107479179Y-85308548D01*
X107524923Y-85361340D01*
X107524926Y-85361343D01*
X107524930Y-85361347D01*
X107633664Y-85455567D01*
X107633667Y-85455568D01*
X107633668Y-85455569D01*
X107727925Y-85498616D01*
X107764541Y-85515338D01*
X107831580Y-85535023D01*
X107831584Y-85535024D01*
X107974000Y-85555500D01*
X107974003Y-85555500D01*
X109375990Y-85555500D01*
X109376000Y-85555500D01*
X109483456Y-85543947D01*
X109534967Y-85532741D01*
X109569197Y-85521347D01*
X109637497Y-85498616D01*
X109637501Y-85498613D01*
X109637504Y-85498613D01*
X109758543Y-85420825D01*
X109811347Y-85375070D01*
X109905567Y-85266336D01*
X109965338Y-85135459D01*
X109985023Y-85068420D01*
X109985024Y-85068416D01*
X110005500Y-84926000D01*
X112544500Y-84926000D01*
X112544501Y-84926009D01*
X112556052Y-85033450D01*
X112556054Y-85033462D01*
X112567260Y-85084972D01*
X112601383Y-85187497D01*
X112601386Y-85187503D01*
X112679171Y-85308537D01*
X112679179Y-85308548D01*
X112724923Y-85361340D01*
X112724926Y-85361343D01*
X112724930Y-85361347D01*
X112833664Y-85455567D01*
X112833667Y-85455568D01*
X112833668Y-85455569D01*
X112927925Y-85498616D01*
X112964541Y-85515338D01*
X113031580Y-85535023D01*
X113031584Y-85535024D01*
X113174000Y-85555500D01*
X113174003Y-85555500D01*
X114575990Y-85555500D01*
X114576000Y-85555500D01*
X114683456Y-85543947D01*
X114734967Y-85532741D01*
X114769197Y-85521347D01*
X114837497Y-85498616D01*
X114837501Y-85498613D01*
X114837504Y-85498613D01*
X114958543Y-85420825D01*
X115011347Y-85375070D01*
X115105567Y-85266336D01*
X115165338Y-85135459D01*
X115185023Y-85068420D01*
X115185024Y-85068416D01*
X115205500Y-84926000D01*
X117694500Y-84926000D01*
X117694501Y-84926009D01*
X117706052Y-85033450D01*
X117706054Y-85033462D01*
X117717260Y-85084972D01*
X117751383Y-85187497D01*
X117751386Y-85187503D01*
X117829171Y-85308537D01*
X117829179Y-85308548D01*
X117874923Y-85361340D01*
X117874926Y-85361343D01*
X117874930Y-85361347D01*
X117983664Y-85455567D01*
X117983667Y-85455568D01*
X117983668Y-85455569D01*
X118077925Y-85498616D01*
X118114541Y-85515338D01*
X118181580Y-85535023D01*
X118181584Y-85535024D01*
X118324000Y-85555500D01*
X118324003Y-85555500D01*
X119725990Y-85555500D01*
X119726000Y-85555500D01*
X119833456Y-85543947D01*
X119884967Y-85532741D01*
X119919197Y-85521347D01*
X119987497Y-85498616D01*
X119987501Y-85498613D01*
X119987504Y-85498613D01*
X120108543Y-85420825D01*
X120161347Y-85375070D01*
X120255567Y-85266336D01*
X120315338Y-85135459D01*
X120335023Y-85068420D01*
X120335024Y-85068416D01*
X120355500Y-84926000D01*
X120355500Y-83574000D01*
X120343947Y-83466544D01*
X120332741Y-83415033D01*
X120324198Y-83389365D01*
X120298616Y-83312502D01*
X120298613Y-83312496D01*
X120236819Y-83216344D01*
X120220825Y-83191457D01*
X120197900Y-83165000D01*
X120175076Y-83138659D01*
X120175072Y-83138656D01*
X120175070Y-83138653D01*
X120066336Y-83044433D01*
X120066333Y-83044431D01*
X120066331Y-83044430D01*
X119935465Y-82984664D01*
X119935460Y-82984662D01*
X119935459Y-82984662D01*
X119868420Y-82964977D01*
X119868422Y-82964977D01*
X119868417Y-82964976D01*
X119806347Y-82956052D01*
X119726000Y-82944500D01*
X118324000Y-82944500D01*
X118323991Y-82944500D01*
X118323990Y-82944501D01*
X118216549Y-82956052D01*
X118216537Y-82956054D01*
X118165027Y-82967260D01*
X118062502Y-83001383D01*
X118062496Y-83001386D01*
X117941462Y-83079171D01*
X117941451Y-83079179D01*
X117888659Y-83124923D01*
X117794433Y-83233664D01*
X117794430Y-83233668D01*
X117734664Y-83364534D01*
X117714976Y-83431582D01*
X117707217Y-83485551D01*
X117694500Y-83574000D01*
X117694500Y-84926000D01*
X115205500Y-84926000D01*
X115205500Y-83574000D01*
X115193947Y-83466544D01*
X115182741Y-83415033D01*
X115174198Y-83389365D01*
X115148616Y-83312502D01*
X115148613Y-83312496D01*
X115086819Y-83216344D01*
X115070825Y-83191457D01*
X115047900Y-83165000D01*
X115025076Y-83138659D01*
X115025072Y-83138656D01*
X115025070Y-83138653D01*
X114916336Y-83044433D01*
X114916333Y-83044431D01*
X114916331Y-83044430D01*
X114785465Y-82984664D01*
X114785460Y-82984662D01*
X114785459Y-82984662D01*
X114718420Y-82964977D01*
X114718422Y-82964977D01*
X114718417Y-82964976D01*
X114656347Y-82956052D01*
X114576000Y-82944500D01*
X113174000Y-82944500D01*
X113173991Y-82944500D01*
X113173990Y-82944501D01*
X113066549Y-82956052D01*
X113066537Y-82956054D01*
X113015027Y-82967260D01*
X112912502Y-83001383D01*
X112912496Y-83001386D01*
X112791462Y-83079171D01*
X112791451Y-83079179D01*
X112738659Y-83124923D01*
X112644433Y-83233664D01*
X112644430Y-83233668D01*
X112584664Y-83364534D01*
X112564976Y-83431582D01*
X112557217Y-83485551D01*
X112544500Y-83574000D01*
X112544500Y-84926000D01*
X110005500Y-84926000D01*
X110005500Y-83574000D01*
X109993947Y-83466544D01*
X109982741Y-83415033D01*
X109974198Y-83389365D01*
X109948616Y-83312502D01*
X109948613Y-83312496D01*
X109886819Y-83216344D01*
X109870825Y-83191457D01*
X109847900Y-83165000D01*
X109825076Y-83138659D01*
X109825072Y-83138656D01*
X109825070Y-83138653D01*
X109716336Y-83044433D01*
X109716333Y-83044431D01*
X109716331Y-83044430D01*
X109585465Y-82984664D01*
X109585460Y-82984662D01*
X109585459Y-82984662D01*
X109518420Y-82964977D01*
X109518422Y-82964977D01*
X109518417Y-82964976D01*
X109456347Y-82956052D01*
X109376000Y-82944500D01*
X107974000Y-82944500D01*
X107973991Y-82944500D01*
X107973990Y-82944501D01*
X107866549Y-82956052D01*
X107866537Y-82956054D01*
X107815027Y-82967260D01*
X107712502Y-83001383D01*
X107712496Y-83001386D01*
X107591462Y-83079171D01*
X107591451Y-83079179D01*
X107538659Y-83124923D01*
X107444433Y-83233664D01*
X107444430Y-83233668D01*
X107384664Y-83364534D01*
X107364976Y-83431582D01*
X107357217Y-83485551D01*
X107344500Y-83574000D01*
X107344500Y-84926000D01*
X104377188Y-84926000D01*
X104412051Y-84841835D01*
X104450500Y-84648541D01*
X104450500Y-83851459D01*
X104450500Y-83851456D01*
X104412052Y-83658170D01*
X104412051Y-83658169D01*
X104412051Y-83658165D01*
X104354718Y-83519751D01*
X104345990Y-83485551D01*
X104345098Y-83477256D01*
X104343947Y-83466544D01*
X104332741Y-83415033D01*
X104324198Y-83389365D01*
X104298616Y-83312502D01*
X104298613Y-83312496D01*
X104236819Y-83216344D01*
X104220825Y-83191457D01*
X104197900Y-83165000D01*
X104175076Y-83138659D01*
X104175072Y-83138656D01*
X104175070Y-83138653D01*
X104066336Y-83044433D01*
X104066333Y-83044431D01*
X104066331Y-83044430D01*
X103935465Y-82984664D01*
X103935460Y-82984662D01*
X103935459Y-82984662D01*
X103868420Y-82964977D01*
X103868422Y-82964977D01*
X103868417Y-82964976D01*
X103806347Y-82956052D01*
X103726000Y-82944500D01*
X102324000Y-82944500D01*
X102323991Y-82944500D01*
X102323990Y-82944501D01*
X102216549Y-82956052D01*
X102216537Y-82956054D01*
X102165027Y-82967260D01*
X102062502Y-83001383D01*
X102062496Y-83001386D01*
X101941462Y-83079171D01*
X101941451Y-83079179D01*
X101888659Y-83124923D01*
X101794433Y-83233664D01*
X101794430Y-83233668D01*
X101734664Y-83364534D01*
X101714976Y-83431582D01*
X101707217Y-83485551D01*
X101694500Y-83574000D01*
X101694500Y-84926000D01*
X99796852Y-84926000D01*
X99827012Y-84820000D01*
X99135512Y-84820000D01*
X99168425Y-84762993D01*
X99202500Y-84635826D01*
X99202500Y-84504174D01*
X99168425Y-84377007D01*
X99135512Y-84320000D01*
X99827012Y-84320000D01*
X99827012Y-84319999D01*
X99779437Y-84152794D01*
X99779432Y-84152781D01*
X99684438Y-83962008D01*
X99555999Y-83791928D01*
X99398499Y-83648348D01*
X99398497Y-83648346D01*
X99217298Y-83536153D01*
X99217286Y-83536147D01*
X99188555Y-83525017D01*
X99133154Y-83482444D01*
X99109564Y-83416677D01*
X99125276Y-83348596D01*
X99175300Y-83299818D01*
X99180928Y-83297017D01*
X99380330Y-83204035D01*
X99573901Y-83068495D01*
X99740995Y-82901401D01*
X99876535Y-82707830D01*
X99976403Y-82493663D01*
X100037563Y-82265408D01*
X100058159Y-82030000D01*
X100037563Y-81794592D01*
X99976403Y-81566337D01*
X99876535Y-81352171D01*
X99860490Y-81329255D01*
X99740994Y-81158597D01*
X99732400Y-81150003D01*
X113094435Y-81150003D01*
X113114630Y-81329249D01*
X113114631Y-81329254D01*
X113174211Y-81499523D01*
X113216198Y-81566344D01*
X113270184Y-81652262D01*
X113397738Y-81779816D01*
X113550478Y-81875789D01*
X113720745Y-81935368D01*
X113720750Y-81935369D01*
X113899996Y-81955565D01*
X113900000Y-81955565D01*
X113900004Y-81955565D01*
X114079249Y-81935369D01*
X114079252Y-81935368D01*
X114079255Y-81935368D01*
X114249522Y-81875789D01*
X114402262Y-81779816D01*
X114529816Y-81652262D01*
X114625789Y-81499522D01*
X114685368Y-81329255D01*
X114700279Y-81196918D01*
X114727345Y-81132504D01*
X114784940Y-81092949D01*
X114809614Y-81087580D01*
X114829255Y-81085368D01*
X114999522Y-81025789D01*
X115152262Y-80929816D01*
X115279816Y-80802262D01*
X115375789Y-80649522D01*
X115376414Y-80647738D01*
X115408054Y-80557313D01*
X115415031Y-80537374D01*
X115455751Y-80480599D01*
X115520704Y-80454851D01*
X115545961Y-80455109D01*
X115548225Y-80455365D01*
X115549999Y-80455565D01*
X115550000Y-80455565D01*
X115550004Y-80455565D01*
X115729249Y-80435369D01*
X115729252Y-80435368D01*
X115729255Y-80435368D01*
X115899522Y-80375789D01*
X116052262Y-80279816D01*
X116179816Y-80152262D01*
X116275789Y-79999522D01*
X116335368Y-79829255D01*
X116338919Y-79797738D01*
X116355565Y-79650003D01*
X116355565Y-79649996D01*
X116335369Y-79470750D01*
X116335368Y-79470745D01*
X116307416Y-79390862D01*
X116275789Y-79300478D01*
X116261502Y-79277741D01*
X116217679Y-79207996D01*
X116179816Y-79147738D01*
X116052262Y-79020184D01*
X116020297Y-79000099D01*
X115899523Y-78924211D01*
X115761745Y-78876000D01*
X119044500Y-78876000D01*
X119044501Y-78876009D01*
X119056052Y-78983450D01*
X119056054Y-78983462D01*
X119067260Y-79034972D01*
X119101383Y-79137497D01*
X119101386Y-79137503D01*
X119179171Y-79258537D01*
X119179179Y-79258548D01*
X119224923Y-79311340D01*
X119224926Y-79311343D01*
X119224930Y-79311347D01*
X119333664Y-79405567D01*
X119333667Y-79405568D01*
X119333668Y-79405569D01*
X119427925Y-79448616D01*
X119464541Y-79465338D01*
X119531580Y-79485023D01*
X119531584Y-79485024D01*
X119674000Y-79505500D01*
X119674003Y-79505500D01*
X121075990Y-79505500D01*
X121076000Y-79505500D01*
X121183456Y-79493947D01*
X121234967Y-79482741D01*
X121271009Y-79470745D01*
X121337497Y-79448616D01*
X121337501Y-79448613D01*
X121337504Y-79448613D01*
X121458543Y-79370825D01*
X121511347Y-79325070D01*
X121605567Y-79216336D01*
X121665338Y-79085459D01*
X121685023Y-79018420D01*
X121685024Y-79018416D01*
X121705500Y-78876000D01*
X121705500Y-77524000D01*
X121693947Y-77416544D01*
X121682741Y-77365033D01*
X121672380Y-77333903D01*
X121648616Y-77262502D01*
X121648613Y-77262496D01*
X121570828Y-77141462D01*
X121570825Y-77141457D01*
X121570820Y-77141451D01*
X121525076Y-77088659D01*
X121525072Y-77088656D01*
X121525070Y-77088653D01*
X121416336Y-76994433D01*
X121416333Y-76994431D01*
X121416331Y-76994430D01*
X121285465Y-76934664D01*
X121285460Y-76934662D01*
X121285459Y-76934662D01*
X121226192Y-76917259D01*
X121218417Y-76914976D01*
X121156347Y-76906052D01*
X121076000Y-76894500D01*
X119674000Y-76894500D01*
X119673991Y-76894500D01*
X119673990Y-76894501D01*
X119566549Y-76906052D01*
X119566537Y-76906054D01*
X119515027Y-76917260D01*
X119412502Y-76951383D01*
X119412496Y-76951386D01*
X119291462Y-77029171D01*
X119291451Y-77029179D01*
X119238659Y-77074923D01*
X119144433Y-77183664D01*
X119144430Y-77183668D01*
X119084664Y-77314534D01*
X119064976Y-77381582D01*
X119059949Y-77416549D01*
X119044500Y-77524000D01*
X119044500Y-78876000D01*
X115761745Y-78876000D01*
X115729254Y-78864631D01*
X115729250Y-78864630D01*
X115547575Y-78844161D01*
X115483161Y-78817094D01*
X115443606Y-78759500D01*
X115438239Y-78734829D01*
X115435368Y-78709345D01*
X115375789Y-78539078D01*
X115279816Y-78386338D01*
X115152262Y-78258784D01*
X115132628Y-78246447D01*
X114999523Y-78162811D01*
X114829254Y-78103231D01*
X114829249Y-78103230D01*
X114650004Y-78083035D01*
X114649996Y-78083035D01*
X114470750Y-78103230D01*
X114470745Y-78103231D01*
X114300476Y-78162811D01*
X114147737Y-78258784D01*
X114020184Y-78386337D01*
X113924211Y-78539076D01*
X113864631Y-78709345D01*
X113864630Y-78709350D01*
X113844435Y-78888596D01*
X113844435Y-78888603D01*
X113864630Y-79067849D01*
X113864631Y-79067854D01*
X113924211Y-79238123D01*
X114020184Y-79390862D01*
X114135941Y-79506619D01*
X114169426Y-79567942D01*
X114164442Y-79637634D01*
X114135941Y-79681981D01*
X114020184Y-79797737D01*
X113924211Y-79950476D01*
X113864631Y-80120745D01*
X113864630Y-80120749D01*
X113849720Y-80253082D01*
X113822653Y-80317496D01*
X113765058Y-80357051D01*
X113740386Y-80362418D01*
X113720750Y-80364630D01*
X113550478Y-80424210D01*
X113397737Y-80520184D01*
X113270184Y-80647737D01*
X113174211Y-80800476D01*
X113114631Y-80970745D01*
X113114630Y-80970750D01*
X113094435Y-81149996D01*
X113094435Y-81150003D01*
X99732400Y-81150003D01*
X99573902Y-80991506D01*
X99573896Y-80991501D01*
X99388342Y-80861575D01*
X99344717Y-80806998D01*
X99337523Y-80737500D01*
X99369046Y-80675145D01*
X99388342Y-80658425D01*
X99532743Y-80557314D01*
X99573901Y-80528495D01*
X99740995Y-80361401D01*
X99876535Y-80167830D01*
X99976403Y-79953663D01*
X100037563Y-79725408D01*
X100058159Y-79490000D01*
X100037563Y-79254592D01*
X99976403Y-79026337D01*
X99876535Y-78812171D01*
X99863106Y-78792993D01*
X99740996Y-78618600D01*
X99696705Y-78574309D01*
X99619067Y-78496671D01*
X99585584Y-78435351D01*
X99590568Y-78365659D01*
X99632439Y-78309725D01*
X99663415Y-78292810D01*
X99794831Y-78243796D01*
X99910046Y-78157546D01*
X99996296Y-78042331D01*
X100046591Y-77907483D01*
X100053000Y-77847873D01*
X100053000Y-77400003D01*
X112244435Y-77400003D01*
X112264630Y-77579249D01*
X112264631Y-77579254D01*
X112324211Y-77749523D01*
X112380960Y-77839838D01*
X112420184Y-77902262D01*
X112547738Y-78029816D01*
X112636148Y-78085368D01*
X112664575Y-78103230D01*
X112700478Y-78125789D01*
X112863415Y-78182803D01*
X112870745Y-78185368D01*
X112870750Y-78185369D01*
X113049996Y-78205565D01*
X113050000Y-78205565D01*
X113050004Y-78205565D01*
X113229249Y-78185369D01*
X113229252Y-78185368D01*
X113229255Y-78185368D01*
X113399522Y-78125789D01*
X113552262Y-78029816D01*
X113679816Y-77902262D01*
X113775789Y-77749522D01*
X113835368Y-77579255D01*
X113836844Y-77566154D01*
X113855565Y-77400003D01*
X113855565Y-77399996D01*
X113835369Y-77220750D01*
X113835368Y-77220745D01*
X113806268Y-77137581D01*
X113775789Y-77050478D01*
X113774420Y-77048300D01*
X113712955Y-76950478D01*
X113679816Y-76897738D01*
X113552262Y-76770184D01*
X113513522Y-76745842D01*
X113399523Y-76674211D01*
X113229254Y-76614631D01*
X113229249Y-76614630D01*
X113050004Y-76594435D01*
X113049996Y-76594435D01*
X112870750Y-76614630D01*
X112870745Y-76614631D01*
X112700476Y-76674211D01*
X112547737Y-76770184D01*
X112420184Y-76897737D01*
X112324211Y-77050476D01*
X112264631Y-77220745D01*
X112264630Y-77220750D01*
X112244435Y-77399996D01*
X112244435Y-77400003D01*
X100053000Y-77400003D01*
X100052999Y-76052128D01*
X100046591Y-75992517D01*
X100030734Y-75950003D01*
X99996297Y-75857671D01*
X99996293Y-75857664D01*
X99910047Y-75742455D01*
X99910044Y-75742452D01*
X99794835Y-75656206D01*
X99794828Y-75656202D01*
X99659982Y-75605908D01*
X99659983Y-75605908D01*
X99600383Y-75599501D01*
X99600381Y-75599500D01*
X99600373Y-75599500D01*
X99600364Y-75599500D01*
X97804629Y-75599500D01*
X97804623Y-75599501D01*
X97745016Y-75605908D01*
X97610171Y-75656202D01*
X97610164Y-75656206D01*
X97494955Y-75742452D01*
X97494952Y-75742455D01*
X97408706Y-75857664D01*
X97408702Y-75857671D01*
X97358408Y-75992517D01*
X97352001Y-76052116D01*
X97352001Y-76052123D01*
X97352000Y-76052135D01*
X97352000Y-77847870D01*
X97352001Y-77847876D01*
X97358408Y-77907483D01*
X97408702Y-78042328D01*
X97408706Y-78042335D01*
X97494952Y-78157544D01*
X97494955Y-78157547D01*
X97610164Y-78243793D01*
X97610171Y-78243797D01*
X97741581Y-78292810D01*
X97797515Y-78334681D01*
X97821932Y-78400145D01*
X97807080Y-78468418D01*
X97785930Y-78496673D01*
X97664003Y-78618600D01*
X97528465Y-78812169D01*
X97528464Y-78812171D01*
X97428598Y-79026335D01*
X97428594Y-79026344D01*
X97367438Y-79254586D01*
X97367436Y-79254596D01*
X97346841Y-79489999D01*
X97346841Y-79490000D01*
X97367436Y-79725403D01*
X97367438Y-79725413D01*
X97428594Y-79953655D01*
X97428596Y-79953659D01*
X97428597Y-79953663D01*
X97497535Y-80101501D01*
X97528465Y-80167830D01*
X97528467Y-80167834D01*
X97664001Y-80361395D01*
X97664006Y-80361402D01*
X97831097Y-80528493D01*
X97831103Y-80528498D01*
X98016658Y-80658425D01*
X98060283Y-80713002D01*
X98067477Y-80782500D01*
X98035954Y-80844855D01*
X98016658Y-80861575D01*
X97831097Y-80991505D01*
X97664005Y-81158597D01*
X97528465Y-81352169D01*
X97528464Y-81352171D01*
X97428598Y-81566335D01*
X97428594Y-81566344D01*
X97367438Y-81794586D01*
X97367436Y-81794596D01*
X97346841Y-82029999D01*
X97346841Y-82030000D01*
X95500500Y-82030000D01*
X95500500Y-74750003D01*
X106639535Y-74750003D01*
X106659730Y-74929249D01*
X106659731Y-74929254D01*
X106719311Y-75099523D01*
X106775282Y-75188599D01*
X106815284Y-75252262D01*
X106942838Y-75379816D01*
X106964543Y-75393454D01*
X107076782Y-75463979D01*
X107095578Y-75475789D01*
X107164955Y-75500065D01*
X107265845Y-75535368D01*
X107265850Y-75535369D01*
X107445096Y-75555565D01*
X107445100Y-75555565D01*
X107445104Y-75555565D01*
X107624349Y-75535369D01*
X107624352Y-75535368D01*
X107624355Y-75535368D01*
X107794622Y-75475789D01*
X107947362Y-75379816D01*
X108074916Y-75252262D01*
X108170889Y-75099522D01*
X108230468Y-74929255D01*
X108232418Y-74911948D01*
X108250665Y-74750003D01*
X108250665Y-74749996D01*
X108230469Y-74570750D01*
X108230468Y-74570745D01*
X108184485Y-74439334D01*
X108170889Y-74400478D01*
X108076339Y-74250003D01*
X124144435Y-74250003D01*
X124164630Y-74429249D01*
X124164631Y-74429254D01*
X124224211Y-74599523D01*
X124290578Y-74705145D01*
X124320184Y-74752262D01*
X124447738Y-74879816D01*
X124467640Y-74892321D01*
X124578822Y-74962182D01*
X124600478Y-74975789D01*
X124731121Y-75021503D01*
X124770745Y-75035368D01*
X124770750Y-75035369D01*
X124949996Y-75055565D01*
X124950000Y-75055565D01*
X124950004Y-75055565D01*
X125129249Y-75035369D01*
X125129252Y-75035368D01*
X125129255Y-75035368D01*
X125299522Y-74975789D01*
X125452262Y-74879816D01*
X125534578Y-74797500D01*
X125595901Y-74764015D01*
X125665593Y-74768999D01*
X125687355Y-74779642D01*
X125728159Y-74804810D01*
X125728160Y-74804810D01*
X125728166Y-74804814D01*
X125736764Y-74807663D01*
X125794207Y-74847433D01*
X125821031Y-74911948D01*
X125808717Y-74980724D01*
X125779734Y-75017483D01*
X125779927Y-75017676D01*
X125778298Y-75019304D01*
X125777475Y-75020349D01*
X125776099Y-75021503D01*
X125609005Y-75188597D01*
X125473465Y-75382169D01*
X125473464Y-75382171D01*
X125373598Y-75596335D01*
X125373594Y-75596344D01*
X125312438Y-75824586D01*
X125312436Y-75824596D01*
X125291841Y-76059999D01*
X125291841Y-76060000D01*
X125312436Y-76295403D01*
X125312438Y-76295413D01*
X125373594Y-76523655D01*
X125373596Y-76523659D01*
X125373597Y-76523663D01*
X125441921Y-76670184D01*
X125473465Y-76737830D01*
X125473467Y-76737834D01*
X125515412Y-76797737D01*
X125609005Y-76931401D01*
X125776099Y-77098495D01*
X125837455Y-77141457D01*
X125969665Y-77234032D01*
X125969667Y-77234033D01*
X125969670Y-77234035D01*
X126169055Y-77327010D01*
X126221493Y-77373181D01*
X126240645Y-77440375D01*
X126220429Y-77507256D01*
X126167264Y-77552590D01*
X126161445Y-77555017D01*
X126132710Y-77566149D01*
X126132701Y-77566154D01*
X126030492Y-77629438D01*
X126030491Y-77629439D01*
X126518090Y-78117037D01*
X126454507Y-78134075D01*
X126340493Y-78199901D01*
X126247401Y-78292993D01*
X126181575Y-78407007D01*
X126164537Y-78470589D01*
X125674336Y-77980388D01*
X125665559Y-77992010D01*
X125570566Y-78182783D01*
X125570558Y-78182803D01*
X125512238Y-78387780D01*
X125512237Y-78387783D01*
X125492573Y-78599999D01*
X125492573Y-78600000D01*
X125512237Y-78812216D01*
X125512238Y-78812219D01*
X125570558Y-79017196D01*
X125570564Y-79017211D01*
X125665561Y-79207991D01*
X125665564Y-79207996D01*
X125674336Y-79219610D01*
X126164537Y-78729409D01*
X126181575Y-78792993D01*
X126247401Y-78907007D01*
X126340493Y-79000099D01*
X126454507Y-79065925D01*
X126518090Y-79082962D01*
X126030491Y-79570559D01*
X126132704Y-79633847D01*
X126132708Y-79633849D01*
X126161442Y-79644981D01*
X126216844Y-79687554D01*
X126240435Y-79753320D01*
X126224724Y-79821401D01*
X126174701Y-79870180D01*
X126169054Y-79872990D01*
X125969671Y-79965964D01*
X125969669Y-79965965D01*
X125776097Y-80101505D01*
X125609005Y-80268597D01*
X125473465Y-80462169D01*
X125473464Y-80462171D01*
X125373598Y-80676335D01*
X125373594Y-80676344D01*
X125312438Y-80904586D01*
X125312436Y-80904596D01*
X125291841Y-81139999D01*
X125291841Y-81140000D01*
X125312436Y-81375403D01*
X125312438Y-81375413D01*
X125373594Y-81603655D01*
X125373596Y-81603659D01*
X125373597Y-81603663D01*
X125453504Y-81775023D01*
X125473465Y-81817830D01*
X125473467Y-81817834D01*
X125514048Y-81875789D01*
X125609001Y-82011396D01*
X125609006Y-82011402D01*
X125776097Y-82178493D01*
X125776103Y-82178498D01*
X125961658Y-82308425D01*
X126005283Y-82363002D01*
X126012477Y-82432500D01*
X125980954Y-82494855D01*
X125961658Y-82511575D01*
X125776097Y-82641505D01*
X125609005Y-82808597D01*
X125473465Y-83002169D01*
X125473464Y-83002171D01*
X125373598Y-83216335D01*
X125373594Y-83216344D01*
X125312438Y-83444586D01*
X125312436Y-83444596D01*
X125291841Y-83679999D01*
X125291841Y-83680000D01*
X125312436Y-83915403D01*
X125312438Y-83915413D01*
X125373594Y-84143655D01*
X125373596Y-84143659D01*
X125373597Y-84143663D01*
X125453504Y-84315023D01*
X125473465Y-84357830D01*
X125473467Y-84357834D01*
X125575936Y-84504174D01*
X125609005Y-84551401D01*
X125776099Y-84718495D01*
X125839649Y-84762993D01*
X125969665Y-84854032D01*
X125969667Y-84854033D01*
X125969670Y-84854035D01*
X126183837Y-84953903D01*
X126412092Y-85015063D01*
X126600418Y-85031539D01*
X126647499Y-85035659D01*
X126647500Y-85035659D01*
X126647501Y-85035659D01*
X126686734Y-85032226D01*
X126882908Y-85015063D01*
X127111163Y-84953903D01*
X127325330Y-84854035D01*
X127518901Y-84718495D01*
X127685995Y-84551401D01*
X127815925Y-84365842D01*
X127870502Y-84322217D01*
X127940000Y-84315023D01*
X128002355Y-84346546D01*
X128019075Y-84365842D01*
X128149000Y-84551395D01*
X128149005Y-84551401D01*
X128316099Y-84718495D01*
X128379649Y-84762993D01*
X128509665Y-84854032D01*
X128509667Y-84854033D01*
X128509670Y-84854035D01*
X128723837Y-84953903D01*
X128952092Y-85015063D01*
X129140418Y-85031539D01*
X129187499Y-85035659D01*
X129187500Y-85035659D01*
X129187501Y-85035659D01*
X129226734Y-85032226D01*
X129422908Y-85015063D01*
X129651163Y-84953903D01*
X129865330Y-84854035D01*
X130058901Y-84718495D01*
X130225995Y-84551401D01*
X130361535Y-84357830D01*
X130461403Y-84143663D01*
X130521333Y-83920000D01*
X143465223Y-83920000D01*
X146275038Y-83920000D01*
X146245000Y-84071016D01*
X146245000Y-84268984D01*
X146275038Y-84420000D01*
X143465224Y-84420000D01*
X143485074Y-84570782D01*
X143485077Y-84570795D01*
X143554627Y-84830363D01*
X143657463Y-85078630D01*
X143657467Y-85078640D01*
X143791829Y-85311362D01*
X143955419Y-85524557D01*
X143955425Y-85524564D01*
X144145435Y-85714574D01*
X144145442Y-85714580D01*
X144358637Y-85878170D01*
X144591359Y-86012532D01*
X144591369Y-86012536D01*
X144839636Y-86115372D01*
X145099208Y-86184924D01*
X145365626Y-86219998D01*
X145365643Y-86220000D01*
X147000000Y-86220000D01*
X147000000Y-85144961D01*
X147151016Y-85175000D01*
X147348984Y-85175000D01*
X147500000Y-85144961D01*
X147500000Y-86220000D01*
X149134357Y-86220000D01*
X149134373Y-86219998D01*
X149400791Y-86184924D01*
X149660363Y-86115372D01*
X149908630Y-86012536D01*
X149908640Y-86012532D01*
X150141362Y-85878170D01*
X150354557Y-85714580D01*
X150354564Y-85714574D01*
X150544574Y-85524564D01*
X150544580Y-85524557D01*
X150708170Y-85311362D01*
X150842532Y-85078640D01*
X150842536Y-85078630D01*
X150945372Y-84830363D01*
X151014922Y-84570795D01*
X151014925Y-84570782D01*
X151034776Y-84420000D01*
X148224962Y-84420000D01*
X148255000Y-84268984D01*
X148255000Y-84071016D01*
X148224962Y-83920000D01*
X151034776Y-83920000D01*
X151014925Y-83769217D01*
X151014922Y-83769204D01*
X150945372Y-83509636D01*
X150842536Y-83261369D01*
X150842532Y-83261359D01*
X150708170Y-83028637D01*
X150544580Y-82815442D01*
X150544574Y-82815435D01*
X150354564Y-82625425D01*
X150354557Y-82625419D01*
X150141362Y-82461829D01*
X149908640Y-82327467D01*
X149908630Y-82327463D01*
X149660363Y-82224627D01*
X149400791Y-82155075D01*
X149134373Y-82120001D01*
X149134357Y-82120000D01*
X147500000Y-82120000D01*
X147500000Y-83195038D01*
X147348984Y-83165000D01*
X147151016Y-83165000D01*
X147000000Y-83195038D01*
X147000000Y-82120000D01*
X145365643Y-82120000D01*
X145365626Y-82120001D01*
X145099208Y-82155075D01*
X144839636Y-82224627D01*
X144591369Y-82327463D01*
X144591359Y-82327467D01*
X144358637Y-82461829D01*
X144145442Y-82625419D01*
X144145435Y-82625425D01*
X143955425Y-82815435D01*
X143955419Y-82815442D01*
X143791829Y-83028637D01*
X143657467Y-83261359D01*
X143657463Y-83261369D01*
X143554627Y-83509636D01*
X143485077Y-83769204D01*
X143485074Y-83769217D01*
X143465223Y-83920000D01*
X130521333Y-83920000D01*
X130522563Y-83915408D01*
X130543159Y-83680000D01*
X130522563Y-83444592D01*
X130461403Y-83216337D01*
X130361535Y-83002171D01*
X130360986Y-83001386D01*
X130225994Y-82808597D01*
X130058902Y-82641506D01*
X130058896Y-82641501D01*
X129873342Y-82511575D01*
X129829717Y-82456998D01*
X129822523Y-82387500D01*
X129854046Y-82325145D01*
X129873342Y-82308425D01*
X129934776Y-82265408D01*
X130058901Y-82178495D01*
X130225995Y-82011401D01*
X130361535Y-81817830D01*
X130461403Y-81603663D01*
X130522563Y-81375408D01*
X130543159Y-81140000D01*
X130522563Y-80904592D01*
X130461403Y-80676337D01*
X130361535Y-80462171D01*
X130356910Y-80455565D01*
X130225994Y-80268597D01*
X130058902Y-80101506D01*
X130058895Y-80101501D01*
X129865334Y-79965967D01*
X129865330Y-79965965D01*
X129665945Y-79872990D01*
X129613506Y-79826818D01*
X129594354Y-79759624D01*
X129614570Y-79692743D01*
X129667735Y-79647408D01*
X129673558Y-79644981D01*
X129702288Y-79633851D01*
X129702298Y-79633846D01*
X129804506Y-79570560D01*
X129804506Y-79570559D01*
X129316910Y-79082962D01*
X129380493Y-79065925D01*
X129494507Y-79000099D01*
X129587599Y-78907007D01*
X129653425Y-78792993D01*
X129670462Y-78729409D01*
X130160662Y-79219609D01*
X130160663Y-79219609D01*
X130169440Y-79207988D01*
X130169442Y-79207985D01*
X130240639Y-79065001D01*
X143109838Y-79065001D01*
X143128450Y-79277741D01*
X143128452Y-79277752D01*
X143183721Y-79484022D01*
X143183723Y-79484026D01*
X143183724Y-79484030D01*
X143193736Y-79505500D01*
X143273977Y-79677578D01*
X143273978Y-79677580D01*
X143273979Y-79677581D01*
X143298574Y-79712707D01*
X143396472Y-79852521D01*
X143547478Y-80003527D01*
X143547481Y-80003529D01*
X143722419Y-80126021D01*
X143722421Y-80126022D01*
X143722420Y-80126022D01*
X143786936Y-80156106D01*
X143915970Y-80216276D01*
X144122253Y-80271549D01*
X144274215Y-80284844D01*
X144334998Y-80290162D01*
X144335000Y-80290162D01*
X144335002Y-80290162D01*
X144388186Y-80285508D01*
X144547747Y-80271549D01*
X144754030Y-80216276D01*
X144947581Y-80126021D01*
X145122519Y-80003529D01*
X145273529Y-79852519D01*
X145396021Y-79677581D01*
X145486276Y-79484030D01*
X145541549Y-79277747D01*
X145560162Y-79065000D01*
X145557534Y-79034967D01*
X145553027Y-78983450D01*
X145541549Y-78852253D01*
X145486276Y-78645970D01*
X145396021Y-78452419D01*
X145273529Y-78277481D01*
X145273527Y-78277478D01*
X145122521Y-78126472D01*
X144947578Y-78003977D01*
X144947579Y-78003977D01*
X144788539Y-77929816D01*
X144754030Y-77913724D01*
X144754026Y-77913723D01*
X144754022Y-77913721D01*
X144547752Y-77858452D01*
X144547748Y-77858451D01*
X144547747Y-77858451D01*
X144547746Y-77858450D01*
X144547741Y-77858450D01*
X144335002Y-77839838D01*
X144334998Y-77839838D01*
X144122258Y-77858450D01*
X144122247Y-77858452D01*
X143915977Y-77913721D01*
X143915968Y-77913725D01*
X143722421Y-78003977D01*
X143547478Y-78126472D01*
X143396472Y-78277478D01*
X143273977Y-78452421D01*
X143183725Y-78645968D01*
X143183721Y-78645977D01*
X143128452Y-78852247D01*
X143128450Y-78852258D01*
X143109838Y-79064998D01*
X143109838Y-79065001D01*
X130240639Y-79065001D01*
X130264433Y-79017216D01*
X130264441Y-79017196D01*
X130322761Y-78812219D01*
X130322762Y-78812216D01*
X130342427Y-78600000D01*
X130342427Y-78599999D01*
X130322762Y-78387783D01*
X130322761Y-78387780D01*
X130264441Y-78182803D01*
X130264433Y-78182783D01*
X130169442Y-77992014D01*
X130169437Y-77992006D01*
X130160663Y-77980389D01*
X130160662Y-77980389D01*
X129670462Y-78470589D01*
X129653425Y-78407007D01*
X129587599Y-78292993D01*
X129494507Y-78199901D01*
X129380493Y-78134075D01*
X129316909Y-78117037D01*
X129804507Y-77629439D01*
X129702293Y-77566151D01*
X129702286Y-77566147D01*
X129673555Y-77555017D01*
X129618154Y-77512444D01*
X129594564Y-77446677D01*
X129610276Y-77378596D01*
X129660300Y-77329818D01*
X129665928Y-77327017D01*
X129723860Y-77300003D01*
X136794435Y-77300003D01*
X136814630Y-77479249D01*
X136814631Y-77479254D01*
X136874211Y-77649523D01*
X136925752Y-77731549D01*
X136970184Y-77802262D01*
X137097738Y-77929816D01*
X137178223Y-77980388D01*
X137215767Y-78003979D01*
X137250478Y-78025789D01*
X137297764Y-78042335D01*
X137420745Y-78085368D01*
X137420750Y-78085369D01*
X137599996Y-78105565D01*
X137600000Y-78105565D01*
X137600004Y-78105565D01*
X137779249Y-78085369D01*
X137779252Y-78085368D01*
X137779255Y-78085368D01*
X137949522Y-78025789D01*
X138102262Y-77929816D01*
X138229816Y-77802262D01*
X138325789Y-77649522D01*
X138385368Y-77479255D01*
X138389749Y-77440375D01*
X138405565Y-77300003D01*
X138405565Y-77299996D01*
X138385369Y-77120750D01*
X138385368Y-77120745D01*
X138374141Y-77088659D01*
X138325789Y-76950478D01*
X138321737Y-76944030D01*
X138229815Y-76797737D01*
X138144759Y-76712681D01*
X138111274Y-76651358D01*
X138116258Y-76581666D01*
X138144759Y-76537319D01*
X138157078Y-76525000D01*
X140770065Y-76525000D01*
X140789758Y-76724951D01*
X140848085Y-76917229D01*
X140918145Y-77048300D01*
X141395000Y-76571446D01*
X141395000Y-76577661D01*
X141422259Y-76679394D01*
X141474920Y-76770606D01*
X141549394Y-76845080D01*
X141640606Y-76897741D01*
X141742339Y-76925000D01*
X141748553Y-76925000D01*
X141271698Y-77401853D01*
X141402770Y-77471914D01*
X141595048Y-77530241D01*
X141795000Y-77549934D01*
X141994951Y-77530241D01*
X142187229Y-77471914D01*
X142318301Y-77401854D01*
X141841448Y-76925000D01*
X141847661Y-76925000D01*
X141949394Y-76897741D01*
X142040606Y-76845080D01*
X142115080Y-76770606D01*
X142167741Y-76679394D01*
X142195000Y-76577661D01*
X142195000Y-76571447D01*
X142671854Y-77048301D01*
X142741914Y-76917229D01*
X142800241Y-76724951D01*
X142819934Y-76525001D01*
X145649838Y-76525001D01*
X145668450Y-76737741D01*
X145668452Y-76737752D01*
X145723721Y-76944022D01*
X145723723Y-76944026D01*
X145723724Y-76944030D01*
X145763426Y-77029171D01*
X145813977Y-77137578D01*
X145813978Y-77137580D01*
X145813979Y-77137581D01*
X145838574Y-77172707D01*
X145936472Y-77312521D01*
X146087478Y-77463527D01*
X146087481Y-77463529D01*
X146262419Y-77586021D01*
X146262421Y-77586022D01*
X146262420Y-77586022D01*
X146326936Y-77616106D01*
X146455970Y-77676276D01*
X146662253Y-77731549D01*
X146814215Y-77744844D01*
X146874998Y-77750162D01*
X146875000Y-77750162D01*
X146875002Y-77750162D01*
X146928186Y-77745508D01*
X147087747Y-77731549D01*
X147294030Y-77676276D01*
X147487581Y-77586021D01*
X147662519Y-77463529D01*
X147813529Y-77312519D01*
X147936021Y-77137581D01*
X148026276Y-76944030D01*
X148081549Y-76737747D01*
X148100162Y-76525000D01*
X148081549Y-76312253D01*
X148026276Y-76105970D01*
X147936021Y-75912419D01*
X147813529Y-75737481D01*
X147813527Y-75737478D01*
X147662521Y-75586472D01*
X147522707Y-75488574D01*
X147487581Y-75463979D01*
X147487580Y-75463978D01*
X147487578Y-75463977D01*
X147487579Y-75463977D01*
X147358547Y-75403809D01*
X147294030Y-75373724D01*
X147294026Y-75373723D01*
X147294022Y-75373721D01*
X147087752Y-75318452D01*
X147087748Y-75318451D01*
X147087747Y-75318451D01*
X147087746Y-75318450D01*
X147087741Y-75318450D01*
X146875002Y-75299838D01*
X146874998Y-75299838D01*
X146662258Y-75318450D01*
X146662247Y-75318452D01*
X146455977Y-75373721D01*
X146455968Y-75373725D01*
X146262421Y-75463977D01*
X146087478Y-75586472D01*
X145936472Y-75737478D01*
X145813977Y-75912421D01*
X145723725Y-76105968D01*
X145723721Y-76105977D01*
X145668452Y-76312247D01*
X145668450Y-76312258D01*
X145649838Y-76524998D01*
X145649838Y-76525001D01*
X142819934Y-76525001D01*
X142819934Y-76525000D01*
X142800241Y-76325048D01*
X142741914Y-76132770D01*
X142671853Y-76001698D01*
X142195000Y-76478551D01*
X142195000Y-76472339D01*
X142167741Y-76370606D01*
X142115080Y-76279394D01*
X142040606Y-76204920D01*
X141949394Y-76152259D01*
X141847661Y-76125000D01*
X141841448Y-76125000D01*
X142318300Y-75648145D01*
X142187229Y-75578085D01*
X141994951Y-75519758D01*
X141795000Y-75500065D01*
X141595048Y-75519758D01*
X141402767Y-75578086D01*
X141271698Y-75648144D01*
X141271698Y-75648145D01*
X141748553Y-76125000D01*
X141742339Y-76125000D01*
X141640606Y-76152259D01*
X141549394Y-76204920D01*
X141474920Y-76279394D01*
X141422259Y-76370606D01*
X141395000Y-76472339D01*
X141395000Y-76478553D01*
X140918145Y-76001698D01*
X140918144Y-76001698D01*
X140848086Y-76132767D01*
X140789758Y-76325048D01*
X140770065Y-76525000D01*
X138157078Y-76525000D01*
X138158423Y-76523655D01*
X138229816Y-76452262D01*
X138325789Y-76299522D01*
X138385368Y-76129255D01*
X138385369Y-76129249D01*
X138405565Y-75950003D01*
X138405565Y-75949996D01*
X138385369Y-75770750D01*
X138385368Y-75770745D01*
X138345288Y-75656204D01*
X138325789Y-75600478D01*
X138325174Y-75599500D01*
X138262695Y-75500065D01*
X138229816Y-75447738D01*
X138102262Y-75320184D01*
X138069882Y-75299838D01*
X137949523Y-75224211D01*
X137779254Y-75164631D01*
X137779249Y-75164630D01*
X137600004Y-75144435D01*
X137599996Y-75144435D01*
X137420750Y-75164630D01*
X137420745Y-75164631D01*
X137250476Y-75224211D01*
X137097737Y-75320184D01*
X136970184Y-75447737D01*
X136874211Y-75600476D01*
X136814631Y-75770745D01*
X136814630Y-75770750D01*
X136794435Y-75949996D01*
X136794435Y-75950003D01*
X136814630Y-76129249D01*
X136814631Y-76129254D01*
X136874211Y-76299523D01*
X136970184Y-76452262D01*
X137055241Y-76537319D01*
X137088726Y-76598642D01*
X137083742Y-76668334D01*
X137055241Y-76712681D01*
X136970184Y-76797737D01*
X136874211Y-76950476D01*
X136814631Y-77120745D01*
X136814630Y-77120750D01*
X136794435Y-77299996D01*
X136794435Y-77300003D01*
X129723860Y-77300003D01*
X129865330Y-77234035D01*
X130058901Y-77098495D01*
X130225995Y-76931401D01*
X130361535Y-76737830D01*
X130461403Y-76523663D01*
X130522563Y-76295408D01*
X130543159Y-76060000D01*
X130522563Y-75824592D01*
X130461403Y-75596337D01*
X130361535Y-75382171D01*
X130359886Y-75379815D01*
X130225994Y-75188597D01*
X130058902Y-75021506D01*
X130058896Y-75021501D01*
X129873342Y-74891575D01*
X129829717Y-74836998D01*
X129822523Y-74767500D01*
X129854046Y-74705145D01*
X129873342Y-74688425D01*
X130015825Y-74588657D01*
X130058901Y-74558495D01*
X130225995Y-74391401D01*
X130361535Y-74197830D01*
X130461403Y-73983663D01*
X130522563Y-73755408D01*
X130543159Y-73520000D01*
X130522563Y-73284592D01*
X130461403Y-73056337D01*
X130361535Y-72842171D01*
X130229027Y-72652928D01*
X130225994Y-72648597D01*
X130058902Y-72481506D01*
X130058895Y-72481501D01*
X129865334Y-72345967D01*
X129865330Y-72345965D01*
X129825277Y-72327288D01*
X129651163Y-72246097D01*
X129651159Y-72246096D01*
X129651155Y-72246094D01*
X129422913Y-72184938D01*
X129422903Y-72184936D01*
X129187501Y-72164341D01*
X129187499Y-72164341D01*
X128952096Y-72184936D01*
X128952086Y-72184938D01*
X128723844Y-72246094D01*
X128723835Y-72246098D01*
X128509671Y-72345964D01*
X128509669Y-72345965D01*
X128316097Y-72481505D01*
X128149003Y-72648599D01*
X128147849Y-72649975D01*
X128147188Y-72650414D01*
X128145176Y-72652427D01*
X128144771Y-72652022D01*
X128089673Y-72688671D01*
X128019812Y-72689772D01*
X127960446Y-72652928D01*
X127935163Y-72609265D01*
X127932314Y-72600666D01*
X127840212Y-72451344D01*
X127716156Y-72327288D01*
X127595305Y-72252747D01*
X127566836Y-72235187D01*
X127566831Y-72235185D01*
X127565362Y-72234698D01*
X127400297Y-72180001D01*
X127400295Y-72180000D01*
X127297510Y-72169500D01*
X125997498Y-72169500D01*
X125997481Y-72169501D01*
X125894703Y-72180000D01*
X125894700Y-72180001D01*
X125728168Y-72235185D01*
X125728163Y-72235187D01*
X125578842Y-72327289D01*
X125454789Y-72451342D01*
X125362687Y-72600663D01*
X125362685Y-72600668D01*
X125346201Y-72650414D01*
X125307501Y-72767203D01*
X125307501Y-72767204D01*
X125307500Y-72767204D01*
X125297000Y-72869983D01*
X125297000Y-73348566D01*
X125277315Y-73415605D01*
X125224511Y-73461360D01*
X125155353Y-73471304D01*
X125132052Y-73465610D01*
X125129254Y-73464631D01*
X124950004Y-73444435D01*
X124949996Y-73444435D01*
X124770750Y-73464630D01*
X124770745Y-73464631D01*
X124600476Y-73524211D01*
X124447737Y-73620184D01*
X124320184Y-73747737D01*
X124224211Y-73900476D01*
X124164631Y-74070745D01*
X124164630Y-74070750D01*
X124144435Y-74249996D01*
X124144435Y-74250003D01*
X108076339Y-74250003D01*
X108074916Y-74247738D01*
X107947362Y-74120184D01*
X107794623Y-74024211D01*
X107624354Y-73964631D01*
X107624349Y-73964630D01*
X107445104Y-73944435D01*
X107445096Y-73944435D01*
X107265850Y-73964630D01*
X107265845Y-73964631D01*
X107095576Y-74024211D01*
X106942837Y-74120184D01*
X106815284Y-74247737D01*
X106719311Y-74400476D01*
X106659731Y-74570745D01*
X106659730Y-74570750D01*
X106639535Y-74749996D01*
X106639535Y-74750003D01*
X95500500Y-74750003D01*
X95500500Y-72040001D01*
X143134838Y-72040001D01*
X143153450Y-72252741D01*
X143153452Y-72252752D01*
X143208721Y-72459022D01*
X143208723Y-72459026D01*
X143208724Y-72459030D01*
X143219205Y-72481506D01*
X143298977Y-72652578D01*
X143421472Y-72827521D01*
X143572478Y-72978527D01*
X143572481Y-72978529D01*
X143747419Y-73101021D01*
X143747421Y-73101022D01*
X143747420Y-73101022D01*
X143811936Y-73131106D01*
X143940970Y-73191276D01*
X144147253Y-73246549D01*
X144299215Y-73259844D01*
X144359998Y-73265162D01*
X144360000Y-73265162D01*
X144360002Y-73265162D01*
X144413186Y-73260508D01*
X144572747Y-73246549D01*
X144779030Y-73191276D01*
X144972581Y-73101021D01*
X145147519Y-72978529D01*
X145298529Y-72827519D01*
X145421021Y-72652581D01*
X145511276Y-72459030D01*
X145566549Y-72252747D01*
X145585162Y-72040000D01*
X145566549Y-71827253D01*
X145511276Y-71620970D01*
X145421021Y-71427419D01*
X145298529Y-71252481D01*
X145298527Y-71252478D01*
X145147521Y-71101472D01*
X144972578Y-70978977D01*
X144972579Y-70978977D01*
X144843547Y-70918809D01*
X144779030Y-70888724D01*
X144779026Y-70888723D01*
X144779022Y-70888721D01*
X144572752Y-70833452D01*
X144572748Y-70833451D01*
X144572747Y-70833451D01*
X144572746Y-70833450D01*
X144572741Y-70833450D01*
X144360002Y-70814838D01*
X144359998Y-70814838D01*
X144147258Y-70833450D01*
X144147247Y-70833452D01*
X143940977Y-70888721D01*
X143940968Y-70888725D01*
X143747421Y-70978977D01*
X143572478Y-71101472D01*
X143421472Y-71252478D01*
X143298977Y-71427421D01*
X143208725Y-71620968D01*
X143208721Y-71620977D01*
X143153452Y-71827247D01*
X143153450Y-71827258D01*
X143134838Y-72039998D01*
X143134838Y-72040001D01*
X95500500Y-72040001D01*
X95500500Y-70626000D01*
X119044500Y-70626000D01*
X119044501Y-70626009D01*
X119056052Y-70733450D01*
X119056054Y-70733462D01*
X119067260Y-70784972D01*
X119101383Y-70887497D01*
X119101386Y-70887503D01*
X119179171Y-71008537D01*
X119179179Y-71008548D01*
X119224923Y-71061340D01*
X119224926Y-71061343D01*
X119224930Y-71061347D01*
X119333664Y-71155567D01*
X119333667Y-71155568D01*
X119333668Y-71155569D01*
X119427925Y-71198616D01*
X119464541Y-71215338D01*
X119531580Y-71235023D01*
X119531584Y-71235024D01*
X119674000Y-71255500D01*
X119674003Y-71255500D01*
X121075990Y-71255500D01*
X121076000Y-71255500D01*
X121183456Y-71243947D01*
X121234967Y-71232741D01*
X121269197Y-71221347D01*
X121337497Y-71198616D01*
X121337501Y-71198613D01*
X121337504Y-71198613D01*
X121372690Y-71176000D01*
X134294500Y-71176000D01*
X134294501Y-71176009D01*
X134306052Y-71283450D01*
X134306054Y-71283462D01*
X134317260Y-71334972D01*
X134351383Y-71437497D01*
X134351386Y-71437503D01*
X134429171Y-71558537D01*
X134429179Y-71558548D01*
X134474923Y-71611340D01*
X134474926Y-71611343D01*
X134474930Y-71611347D01*
X134583664Y-71705567D01*
X134583667Y-71705568D01*
X134583668Y-71705569D01*
X134677925Y-71748616D01*
X134714541Y-71765338D01*
X134781580Y-71785023D01*
X134781584Y-71785024D01*
X134924000Y-71805500D01*
X134924003Y-71805500D01*
X136325990Y-71805500D01*
X136326000Y-71805500D01*
X136433456Y-71793947D01*
X136484967Y-71782741D01*
X136519197Y-71771347D01*
X136587497Y-71748616D01*
X136587501Y-71748613D01*
X136587504Y-71748613D01*
X136708543Y-71670825D01*
X136761347Y-71625070D01*
X136855567Y-71516336D01*
X136915338Y-71385459D01*
X136935023Y-71318420D01*
X136935024Y-71318416D01*
X136955500Y-71176000D01*
X136955500Y-69824000D01*
X136943947Y-69716544D01*
X136932741Y-69665033D01*
X136929200Y-69654394D01*
X136898616Y-69562502D01*
X136898613Y-69562496D01*
X136858449Y-69500000D01*
X140795065Y-69500000D01*
X140814758Y-69699951D01*
X140873085Y-69892229D01*
X140943145Y-70023300D01*
X141420000Y-69546446D01*
X141420000Y-69552661D01*
X141447259Y-69654394D01*
X141499920Y-69745606D01*
X141574394Y-69820080D01*
X141665606Y-69872741D01*
X141767339Y-69900000D01*
X141773553Y-69900000D01*
X141296698Y-70376853D01*
X141427770Y-70446914D01*
X141620048Y-70505241D01*
X141820000Y-70524934D01*
X142019951Y-70505241D01*
X142212229Y-70446914D01*
X142343301Y-70376854D01*
X141866448Y-69900000D01*
X141872661Y-69900000D01*
X141974394Y-69872741D01*
X142065606Y-69820080D01*
X142140080Y-69745606D01*
X142192741Y-69654394D01*
X142220000Y-69552661D01*
X142220000Y-69546447D01*
X142696854Y-70023301D01*
X142766914Y-69892229D01*
X142825241Y-69699951D01*
X142844934Y-69500001D01*
X145674838Y-69500001D01*
X145693450Y-69712741D01*
X145693452Y-69712752D01*
X145748721Y-69919022D01*
X145748723Y-69919026D01*
X145748724Y-69919030D01*
X145791171Y-70010058D01*
X145838977Y-70112578D01*
X145961472Y-70287521D01*
X146112478Y-70438527D01*
X146112481Y-70438529D01*
X146287419Y-70561021D01*
X146287421Y-70561022D01*
X146287420Y-70561022D01*
X146351936Y-70591106D01*
X146480970Y-70651276D01*
X146687253Y-70706549D01*
X146839215Y-70719844D01*
X146899998Y-70725162D01*
X146900000Y-70725162D01*
X146900002Y-70725162D01*
X146953186Y-70720508D01*
X147112747Y-70706549D01*
X147319030Y-70651276D01*
X147512581Y-70561021D01*
X147687519Y-70438529D01*
X147838529Y-70287519D01*
X147961021Y-70112581D01*
X148051276Y-69919030D01*
X148106549Y-69712747D01*
X148125162Y-69500000D01*
X148106549Y-69287253D01*
X148060403Y-69115033D01*
X148051278Y-69080977D01*
X148051277Y-69080976D01*
X148051276Y-69080970D01*
X147961021Y-68887419D01*
X147838529Y-68712481D01*
X147838527Y-68712478D01*
X147687521Y-68561472D01*
X147512578Y-68438977D01*
X147512579Y-68438977D01*
X147383547Y-68378809D01*
X147319030Y-68348724D01*
X147319026Y-68348723D01*
X147319022Y-68348721D01*
X147112752Y-68293452D01*
X147112748Y-68293451D01*
X147112747Y-68293451D01*
X147112746Y-68293450D01*
X147112741Y-68293450D01*
X146900002Y-68274838D01*
X146899998Y-68274838D01*
X146687258Y-68293450D01*
X146687247Y-68293452D01*
X146480977Y-68348721D01*
X146480968Y-68348725D01*
X146287421Y-68438977D01*
X146112478Y-68561472D01*
X145961472Y-68712478D01*
X145838977Y-68887421D01*
X145748725Y-69080968D01*
X145748721Y-69080977D01*
X145693452Y-69287247D01*
X145693450Y-69287258D01*
X145674838Y-69499998D01*
X145674838Y-69500001D01*
X142844934Y-69500001D01*
X142844934Y-69500000D01*
X142825241Y-69300048D01*
X142766914Y-69107770D01*
X142696853Y-68976698D01*
X142220000Y-69453551D01*
X142220000Y-69447339D01*
X142192741Y-69345606D01*
X142140080Y-69254394D01*
X142065606Y-69179920D01*
X141974394Y-69127259D01*
X141872661Y-69100000D01*
X141866448Y-69100000D01*
X142343300Y-68623145D01*
X142212229Y-68553085D01*
X142019951Y-68494758D01*
X141820000Y-68475065D01*
X141620048Y-68494758D01*
X141427767Y-68553086D01*
X141296698Y-68623144D01*
X141296698Y-68623145D01*
X141773553Y-69100000D01*
X141767339Y-69100000D01*
X141665606Y-69127259D01*
X141574394Y-69179920D01*
X141499920Y-69254394D01*
X141447259Y-69345606D01*
X141420000Y-69447339D01*
X141420000Y-69453552D01*
X140943145Y-68976698D01*
X140943144Y-68976698D01*
X140873086Y-69107767D01*
X140814758Y-69300048D01*
X140795065Y-69500000D01*
X136858449Y-69500000D01*
X136820828Y-69441462D01*
X136820825Y-69441457D01*
X136820820Y-69441451D01*
X136775076Y-69388659D01*
X136775072Y-69388656D01*
X136775070Y-69388653D01*
X136666336Y-69294433D01*
X136666333Y-69294431D01*
X136666331Y-69294430D01*
X136535465Y-69234664D01*
X136535460Y-69234662D01*
X136535459Y-69234662D01*
X136468420Y-69214977D01*
X136468422Y-69214977D01*
X136468417Y-69214976D01*
X136406347Y-69206052D01*
X136326000Y-69194500D01*
X134924000Y-69194500D01*
X134923991Y-69194500D01*
X134923990Y-69194501D01*
X134816549Y-69206052D01*
X134816537Y-69206054D01*
X134765027Y-69217260D01*
X134662502Y-69251383D01*
X134662496Y-69251386D01*
X134541462Y-69329171D01*
X134541451Y-69329179D01*
X134488659Y-69374923D01*
X134394433Y-69483664D01*
X134394430Y-69483668D01*
X134334664Y-69614534D01*
X134314976Y-69681582D01*
X134309949Y-69716549D01*
X134294500Y-69824000D01*
X134294500Y-71176000D01*
X121372690Y-71176000D01*
X121458543Y-71120825D01*
X121511347Y-71075070D01*
X121605567Y-70966336D01*
X121665338Y-70835459D01*
X121685023Y-70768420D01*
X121685024Y-70768416D01*
X121705500Y-70626000D01*
X121705500Y-69274000D01*
X121693947Y-69166544D01*
X121682741Y-69115033D01*
X121680323Y-69107767D01*
X121648616Y-69012502D01*
X121648613Y-69012496D01*
X121570828Y-68891462D01*
X121570825Y-68891457D01*
X121567326Y-68887419D01*
X121525076Y-68838659D01*
X121525072Y-68838656D01*
X121525070Y-68838653D01*
X121416336Y-68744433D01*
X121416333Y-68744431D01*
X121416331Y-68744430D01*
X121285465Y-68684664D01*
X121285460Y-68684662D01*
X121285459Y-68684662D01*
X121218420Y-68664977D01*
X121218422Y-68664977D01*
X121218417Y-68664976D01*
X121156347Y-68656052D01*
X121076000Y-68644500D01*
X119674000Y-68644500D01*
X119673991Y-68644500D01*
X119673990Y-68644501D01*
X119566549Y-68656052D01*
X119566537Y-68656054D01*
X119515027Y-68667260D01*
X119412502Y-68701383D01*
X119412496Y-68701386D01*
X119291462Y-68779171D01*
X119291451Y-68779179D01*
X119238659Y-68824923D01*
X119144433Y-68933664D01*
X119144430Y-68933668D01*
X119084664Y-69064534D01*
X119064976Y-69131582D01*
X119059949Y-69166549D01*
X119044500Y-69274000D01*
X119044500Y-70626000D01*
X95500500Y-70626000D01*
X95500500Y-65874500D01*
X95520185Y-65807461D01*
X95572989Y-65761706D01*
X95624500Y-65750500D01*
X148875500Y-65750500D01*
X148942539Y-65770185D01*
G37*
%TD.AperFunction*%
%TD*%
M02*
