M48
; DRILL file {KiCad 8.0.0} date 2024-10-24T21:58:11+0200
; FORMAT={-:-/ absolute / inch / decimal}
; #@! TF.CreationDate,2024-10-24T21:58:11+02:00
; #@! TF.GenerationSoftware,Kicad,Pcbnew,8.0.0
; #@! TF.FileFunction,Plated,1,4,PTH
FMAT,2
INCH
; #@! TA.AperFunction,Plated,PTH,ViaDrill
T1C0.0059
; #@! TA.AperFunction,Plated,PTH,ComponentDrill
T2C0.0079
; #@! TA.AperFunction,Plated,PTH,ViaDrill
T3C0.0118
; #@! TA.AperFunction,Plated,PTH,ComponentDrill
T4C0.0315
; #@! TA.AperFunction,Plated,PTH,ComponentDrill
T5C0.0350
; #@! TA.AperFunction,Plated,PTH,ComponentDrill
T6C0.0362
; #@! TA.AperFunction,Plated,PTH,ComponentDrill
T7C0.0394
; #@! TA.AperFunction,Plated,PTH,ComponentDrill
T8C0.0791
; #@! TA.AperFunction,Plated,PTH,ComponentDrill
T9C0.0917
; #@! TA.AperFunction,Plated,PTH,ComponentDrill
T10C0.0984
%
G90
G05
T1
X3.8445Y-3.4528
X3.8445Y-3.4764
X3.8445Y-5.5655
X3.8445Y-5.5891
X3.8701Y-3.4528
X3.8701Y-3.4764
X3.8701Y-5.5655
X3.8701Y-5.5891
X3.8819Y-5.8135
X3.8819Y-5.8391
X3.9075Y-5.8135
X3.9075Y-5.8391
X4.0472Y-3.3051
X4.0472Y-3.3287
X4.0728Y-3.3051
X4.0728Y-3.3287
X4.128Y-6.2264
X4.128Y-6.25
X4.128Y-6.2756
X4.128Y-6.3012
X4.1535Y-6.2264
X4.1535Y-6.25
X4.1535Y-6.2756
X4.1535Y-6.3012
X4.1575Y-5.4355
X4.1575Y-5.4592
X4.1831Y-5.4355
X4.1831Y-5.4592
X4.2224Y-5.656
X4.2323Y-5.7859
X4.2323Y-5.8115
X4.248Y-5.656
X4.2579Y-5.7859
X4.2579Y-5.8115
X4.2657Y-3.3051
X4.2657Y-3.3287
X4.2913Y-3.3051
X4.2913Y-3.3287
X4.3642Y-4.4882
X4.3642Y-4.5118
X4.3898Y-4.4882
X4.3898Y-4.5118
X4.4055Y-5.4946
X4.4055Y-5.5182
X4.4061Y-4.7692
X4.4061Y-4.7948
X4.4297Y-4.7692
X4.4297Y-4.7948
X4.4311Y-5.4946
X4.4311Y-5.5182
X4.4429Y-5.7761
X4.4429Y-5.8017
X4.4685Y-5.7761
X4.4685Y-5.8017
X4.4705Y-3.3051
X4.4705Y-3.3287
X4.4961Y-3.3051
X4.4961Y-3.3287
X4.5551Y-4.1713
X4.5551Y-4.1969
X4.5551Y-5.8174
X4.5551Y-5.843
X4.5807Y-4.1713
X4.5807Y-4.1969
X4.5807Y-5.8174
X4.5807Y-5.843
X4.6772Y-3.3051
X4.6772Y-3.3287
X4.7028Y-3.3051
X4.7028Y-3.3287
X4.7224Y-5.9316
X4.7224Y-5.9552
X4.7244Y-3.966
X4.7244Y-3.9916
X4.7264Y-2.7421
X4.7264Y-2.7657
X4.7283Y-3.0669
X4.7283Y-3.0906
X4.7421Y-3.6437
X4.7421Y-3.6673
X4.748Y-3.966
X4.748Y-3.9916
X4.748Y-5.9316
X4.748Y-5.9552
X4.752Y-2.7421
X4.752Y-2.7657
X4.7539Y-3.0669
X4.7539Y-3.0906
X4.7677Y-3.6437
X4.7677Y-3.6673
X4.8839Y-5.7087
X4.8839Y-5.7343
X4.9094Y-5.7087
X4.9094Y-5.7343
X4.935Y-5.7087
X4.935Y-5.7343
X4.9587Y-5.7087
X4.9587Y-5.7343
X5.1634Y-3.9626
X5.1634Y-3.9862
X5.1634Y-4.0118
X5.1634Y-4.0374
X5.1654Y-5.4016
X5.1654Y-5.4252
X5.189Y-3.9626
X5.189Y-3.9862
X5.189Y-4.0118
X5.189Y-4.0374
X5.1909Y-5.4016
X5.1909Y-5.4252
X5.3268Y-2.7638
X5.3268Y-2.7874
X5.3524Y-2.7638
X5.3524Y-2.7874
X5.5669Y-5.9921
X5.5925Y-5.9921
X5.6063Y-4.9744
X5.6063Y-4.998
X5.6063Y-5.0236
X5.6063Y-5.0492
X5.6319Y-4.9744
X5.6319Y-4.998
X5.6319Y-5.0236
X5.6319Y-5.0492
X5.6831Y-5.8415
X5.6831Y-5.8671
X5.7067Y-5.8415
X5.7067Y-5.8671
X5.752Y-6.1083
X5.752Y-6.1319
X5.7776Y-3.8996
X5.7776Y-3.9232
X5.7776Y-6.1083
X5.7776Y-6.1319
X5.8031Y-3.8996
X5.8031Y-3.9232
X5.8878Y-4.9724
X5.8878Y-4.9961
X5.8878Y-5.0217
X5.8878Y-5.0472
X5.9134Y-4.9724
X5.9134Y-4.9961
X5.9134Y-5.0217
X5.9134Y-5.0472
T2
X4.4215Y-4.6266
X4.4215Y-4.6581
X4.4215Y-4.6896
X4.4648Y-4.6266
X4.4648Y-4.6581
X4.4648Y-4.6896
T3
X3.7913Y-6.376
X3.7972Y-2.628
X3.8287Y-6.376
X3.8346Y-2.628
X3.8661Y-6.376
X3.872Y-2.628
X3.9035Y-6.376
X3.9094Y-2.628
X3.9213Y-5.6048
X3.9409Y-6.376
X3.9469Y-2.628
X3.9783Y-6.376
X3.9843Y-2.628
X4.0157Y-6.376
X4.0217Y-2.628
X4.0531Y-6.376
X4.0591Y-2.628
X4.0906Y-6.376
X4.0965Y-2.628
X4.128Y-6.376
X4.1339Y-2.628
X4.1654Y-6.376
X4.1713Y-2.628
X4.2028Y-6.376
X4.2087Y-2.628
X4.2301Y-2.9429
X4.2402Y-6.376
X4.2461Y-2.628
X4.2776Y-6.376
X4.2795Y-4.3504
X4.2835Y-2.628
X4.315Y-6.376
X4.3209Y-2.628
X4.3524Y-6.376
X4.3583Y-2.628
X4.3799Y-4.2126
X4.3858Y-4.6207
X4.3898Y-6.376
X4.3957Y-2.628
X4.3976Y-3.372
X4.3976Y-3.4016
X4.4272Y-6.376
X4.4331Y-2.628
X4.4508Y-3.0472
X4.4646Y-6.376
X4.4705Y-2.628
X4.4843Y-3.1949
X4.4853Y-3.5217
X4.4862Y-4.3563
X4.502Y-6.376
X4.5079Y-2.628
X4.5138Y-3.1059
X4.5138Y-3.1614
X4.5394Y-6.376
X4.5453Y-2.628
X4.5492Y-3.1358
X4.563Y-3.2323
X4.5768Y-6.376
X4.5807Y-3.2539
X4.5827Y-2.628
X4.6024Y-5.4119
X4.6142Y-6.376
X4.6201Y-2.628
X4.6516Y-6.376
X4.6575Y-2.628
X4.6791Y-3.2402
X4.689Y-6.376
X4.6929Y-3.5217
X4.6949Y-2.628
X4.7264Y-6.376
X4.7323Y-2.628
X4.7638Y-6.376
X4.7688Y-3.4154
X4.7697Y-2.628
X4.8012Y-6.376
X4.8071Y-2.628
X4.8386Y-6.376
X4.8445Y-2.628
X4.876Y-6.376
X4.8819Y-2.628
X4.9134Y-6.376
X4.9193Y-2.628
X4.9193Y-2.9232
X4.9508Y-6.376
X4.9567Y-2.628
X4.9882Y-6.376
X4.9941Y-2.628
X5.0256Y-6.376
X5.0315Y-2.628
X5.063Y-6.376
X5.0689Y-2.628
X5.0965Y-5.3287
X5.1004Y-6.376
X5.1063Y-2.628
X5.1378Y-6.376
X5.1437Y-2.628
X5.1752Y-6.376
X5.1811Y-2.628
X5.2126Y-6.376
X5.2185Y-2.628
X5.2244Y-5.5906
X5.25Y-6.376
X5.2559Y-2.628
X5.2874Y-6.376
X5.2933Y-2.628
X5.3071Y-3.1673
X5.3169Y-3.4035
X5.3248Y-6.376
X5.3307Y-2.628
X5.3327Y-5.4921
X5.3543Y-5.4508
X5.3622Y-6.376
X5.3681Y-2.628
X5.374Y-5.4921
X5.3839Y-3.439
X5.3996Y-6.376
X5.4055Y-2.628
X5.4173Y-2.9902
X5.4173Y-3.0433
X5.4272Y-2.874
X5.437Y-6.376
X5.4429Y-2.628
X5.4744Y-6.376
X5.4803Y-2.628
X5.5118Y-6.376
X5.5177Y-2.628
X5.5492Y-6.376
X5.5551Y-2.628
X5.5866Y-6.376
X5.5925Y-2.628
X5.624Y-6.376
X5.6299Y-2.628
X5.6614Y-6.376
X5.6673Y-2.628
X5.6988Y-6.376
X5.7047Y-2.628
X5.7362Y-6.376
X5.7421Y-2.628
X5.7736Y-6.376
X5.7795Y-2.628
X5.811Y-6.376
X5.8169Y-2.628
X5.8484Y-6.376
X5.8543Y-2.628
T4
X5.5825Y-3.0128
X5.5835Y-2.7362
X5.6825Y-3.1128
X5.6835Y-2.8362
X5.7825Y-3.0128
X5.7835Y-2.7362
T5
X5.5972Y-3.4138
X5.5972Y-3.5138
X5.5972Y-5.3823
X5.5972Y-5.4823
T6
X5.5993Y-4.4488
X5.5993Y-4.5472
X5.6781Y-4.4488
X5.6781Y-4.5472
T7
X3.8859Y-3.0295
X3.8859Y-3.1295
X3.8859Y-3.2295
X3.8859Y-3.3295
X4.9861Y-2.8945
X4.9861Y-2.9945
X4.9861Y-3.0945
X4.9861Y-3.1945
X4.9861Y-3.2945
X4.9876Y-3.6004
X4.9876Y-3.752
X5.0861Y-2.8945
X5.0861Y-2.9945
X5.0861Y-3.0945
X5.0861Y-3.1945
X5.0861Y-3.2945
X5.0876Y-3.6004
X5.0876Y-3.752
T8
X5.7972Y-3.3138
X5.7972Y-3.7138
X5.7972Y-5.2823
X5.7972Y-5.6823
T9
X5.7847Y-4.261
X5.7847Y-4.735
T10
X4.8346Y-5.0039
X4.8346Y-5.311
M30
