%TF.GenerationSoftware,KiCad,Pcbnew,8.0.0*%
%TF.CreationDate,2024-10-24T21:57:35+02:00*%
%TF.ProjectId,Profiler energetyczny urz_dze_ IoT,50726f66-696c-4657-9220-656e65726765,rev?*%
%TF.SameCoordinates,Original*%
%TF.FileFunction,Soldermask,Bot*%
%TF.FilePolarity,Negative*%
%FSLAX46Y46*%
G04 Gerber Fmt 4.6, Leading zero omitted, Abs format (unit mm)*
G04 Created by KiCad (PCBNEW 8.0.0) date 2024-10-24 21:57:35*
%MOMM*%
%LPD*%
G01*
G04 APERTURE LIST*
G04 Aperture macros list*
%AMRoundRect*
0 Rectangle with rounded corners*
0 $1 Rounding radius*
0 $2 $3 $4 $5 $6 $7 $8 $9 X,Y pos of 4 corners*
0 Add a 4 corners polygon primitive as box body*
4,1,4,$2,$3,$4,$5,$6,$7,$8,$9,$2,$3,0*
0 Add four circle primitives for the rounded corners*
1,1,$1+$1,$2,$3*
1,1,$1+$1,$4,$5*
1,1,$1+$1,$6,$7*
1,1,$1+$1,$8,$9*
0 Add four rect primitives between the rounded corners*
20,1,$1+$1,$2,$3,$4,$5,0*
20,1,$1+$1,$4,$5,$6,$7,0*
20,1,$1+$1,$6,$7,$8,$9,0*
20,1,$1+$1,$8,$9,$2,$3,0*%
%AMFreePoly0*
4,1,6,1.000000,0.000000,0.500000,-0.750000,-0.500000,-0.750000,-0.500000,0.750000,0.500000,0.750000,1.000000,0.000000,1.000000,0.000000,$1*%
%AMFreePoly1*
4,1,6,0.500000,-0.750000,-0.650000,-0.750000,-0.150000,0.000000,-0.650000,0.750000,0.500000,0.750000,0.500000,-0.750000,0.500000,-0.750000,$1*%
G04 Aperture macros list end*
%ADD10RoundRect,0.250000X-0.600000X-0.600000X0.600000X-0.600000X0.600000X0.600000X-0.600000X0.600000X0*%
%ADD11C,1.700000*%
%ADD12R,1.700000X1.700000*%
%ADD13O,1.700000X1.700000*%
%ADD14C,3.500000*%
%ADD15C,1.440000*%
%ADD16RoundRect,0.250002X-1.699998X1.699998X-1.699998X-1.699998X1.699998X-1.699998X1.699998X1.699998X0*%
%ADD17C,3.900000*%
%ADD18O,2.500000X1.600000*%
%ADD19O,7.000000X3.500000*%
%ADD20RoundRect,0.150000X-0.150000X-0.200000X0.150000X-0.200000X0.150000X0.200000X-0.150000X0.200000X0*%
%ADD21RoundRect,0.150000X0.150000X0.200000X-0.150000X0.200000X-0.150000X-0.200000X0.150000X-0.200000X0*%
%ADD22FreePoly0,180.000000*%
%ADD23FreePoly1,180.000000*%
%ADD24RoundRect,0.250000X0.450000X-0.350000X0.450000X0.350000X-0.450000X0.350000X-0.450000X-0.350000X0*%
G04 APERTURE END LIST*
D10*
%TO.C,U1*%
X126647500Y-73520000D03*
D11*
X129187500Y-73520000D03*
X126647500Y-76060000D03*
X129187500Y-76060000D03*
X126647500Y-78600000D03*
X129187500Y-78600000D03*
X126647500Y-81140000D03*
X129187500Y-81140000D03*
X126647500Y-83680000D03*
X129187500Y-83680000D03*
%TD*%
D12*
%TO.C,J3*%
X129225000Y-91450000D03*
D13*
X126685000Y-91450000D03*
%TD*%
D12*
%TO.C,J1*%
X142222500Y-113000000D03*
D11*
X142222500Y-115500000D03*
X144222500Y-115500000D03*
X144222500Y-113000000D03*
D14*
X146932500Y-108230000D03*
X146932500Y-120270000D03*
%TD*%
D15*
%TO.C,RV1*%
X146900000Y-69500000D03*
X144360000Y-72040000D03*
X141820000Y-69500000D03*
%TD*%
D12*
%TO.C,J2*%
X129225000Y-95300000D03*
D13*
X126685000Y-95300000D03*
%TD*%
D16*
%TO.C,J5*%
X122800000Y-127100000D03*
D17*
X122800000Y-134900000D03*
%TD*%
D18*
%TO.C,J7*%
X142170000Y-89250000D03*
D19*
X147250000Y-84170000D03*
D18*
X142170000Y-86710000D03*
D19*
X147250000Y-94330000D03*
%TD*%
D15*
%TO.C,RV2*%
X146875000Y-76525000D03*
X144335000Y-79065000D03*
X141795000Y-76525000D03*
%TD*%
D18*
%TO.C,J6*%
X142170000Y-139250000D03*
D19*
X147250000Y-134170000D03*
D18*
X142170000Y-136710000D03*
D19*
X147250000Y-144330000D03*
%TD*%
D12*
%TO.C,J4*%
X98702500Y-76950000D03*
D13*
X98702500Y-79490000D03*
X98702500Y-82030000D03*
X98702500Y-84570000D03*
%TD*%
D20*
%TO.C,D16*%
X133100000Y-76050000D03*
X131700000Y-76050000D03*
%TD*%
D21*
%TO.C,D12*%
X138500000Y-136700000D03*
X139900000Y-136700000D03*
%TD*%
D20*
%TO.C,D21*%
X102400000Y-76950000D03*
X101000000Y-76950000D03*
%TD*%
D21*
%TO.C,D22*%
X138545000Y-86700000D03*
X139945000Y-86700000D03*
%TD*%
D22*
%TO.C,JP6*%
X118700000Y-134850000D03*
D23*
X117250000Y-134850000D03*
%TD*%
D22*
%TO.C,JP5*%
X118550000Y-127100000D03*
D23*
X117100000Y-127100000D03*
%TD*%
D21*
%TO.C,D11*%
X138495000Y-139250000D03*
X139895000Y-139250000D03*
%TD*%
D20*
%TO.C,D15*%
X133100000Y-73550000D03*
X131700000Y-73550000D03*
%TD*%
%TO.C,D18*%
X133100000Y-83700000D03*
X131700000Y-83700000D03*
%TD*%
%TO.C,D14*%
X115330000Y-127100000D03*
X113930000Y-127100000D03*
%TD*%
D21*
%TO.C,D9*%
X138545000Y-89250000D03*
X139945000Y-89250000D03*
%TD*%
%TO.C,D10*%
X138650000Y-113100000D03*
X140050000Y-113100000D03*
%TD*%
D20*
%TO.C,D20*%
X102400000Y-82050000D03*
X101000000Y-82050000D03*
%TD*%
D24*
%TO.C,R11*%
X114600000Y-139250000D03*
X114600000Y-137250000D03*
%TD*%
D20*
%TO.C,D13*%
X115450000Y-134850000D03*
X114050000Y-134850000D03*
%TD*%
%TO.C,D17*%
X133050000Y-81150000D03*
X131650000Y-81150000D03*
%TD*%
%TO.C,D19*%
X102400000Y-79500000D03*
X101000000Y-79500000D03*
%TD*%
G36*
X149443039Y-160819685D02*
G01*
X149488794Y-160872489D01*
X149500000Y-160924000D01*
X149500000Y-163126000D01*
X149480315Y-163193039D01*
X149427511Y-163238794D01*
X149376000Y-163250000D01*
X95124000Y-163250000D01*
X95056961Y-163230315D01*
X95011206Y-163177511D01*
X95000000Y-163126000D01*
X95000000Y-160924000D01*
X95019685Y-160856961D01*
X95072489Y-160811206D01*
X95124000Y-160800000D01*
X149376000Y-160800000D01*
X149443039Y-160819685D01*
G37*
G36*
X149443039Y-65269685D02*
G01*
X149488794Y-65322489D01*
X149500000Y-65374000D01*
X149500000Y-67626000D01*
X149480315Y-67693039D01*
X149427511Y-67738794D01*
X149376000Y-67750000D01*
X95124000Y-67750000D01*
X95056961Y-67730315D01*
X95011206Y-67677511D01*
X95000000Y-67626000D01*
X95000000Y-65374000D01*
X95019685Y-65306961D01*
X95072489Y-65261206D01*
X95124000Y-65250000D01*
X149376000Y-65250000D01*
X149443039Y-65269685D01*
G37*
M02*
