%TF.GenerationSoftware,KiCad,Pcbnew,8.0.0*%
%TF.CreationDate,2024-10-24T21:57:35+02:00*%
%TF.ProjectId,Profiler energetyczny urz_dze_ IoT,50726f66-696c-4657-9220-656e65726765,rev?*%
%TF.SameCoordinates,Original*%
%TF.FileFunction,Soldermask,Top*%
%TF.FilePolarity,Negative*%
%FSLAX46Y46*%
G04 Gerber Fmt 4.6, Leading zero omitted, Abs format (unit mm)*
G04 Created by KiCad (PCBNEW 8.0.0) date 2024-10-24 21:57:35*
%MOMM*%
%LPD*%
G01*
G04 APERTURE LIST*
G04 Aperture macros list*
%AMRoundRect*
0 Rectangle with rounded corners*
0 $1 Rounding radius*
0 $2 $3 $4 $5 $6 $7 $8 $9 X,Y pos of 4 corners*
0 Add a 4 corners polygon primitive as box body*
4,1,4,$2,$3,$4,$5,$6,$7,$8,$9,$2,$3,0*
0 Add four circle primitives for the rounded corners*
1,1,$1+$1,$2,$3*
1,1,$1+$1,$4,$5*
1,1,$1+$1,$6,$7*
1,1,$1+$1,$8,$9*
0 Add four rect primitives between the rounded corners*
20,1,$1+$1,$2,$3,$4,$5,0*
20,1,$1+$1,$4,$5,$6,$7,0*
20,1,$1+$1,$6,$7,$8,$9,0*
20,1,$1+$1,$8,$9,$2,$3,0*%
%AMFreePoly0*
4,1,17,2.675000,1.605000,1.875000,1.605000,1.875000,0.935000,2.675000,0.935000,2.675000,0.335000,1.875000,0.335000,1.875000,-0.335000,2.675000,-0.335000,2.675000,-0.935000,1.875000,-0.935000,1.875000,-1.605000,2.675000,-1.605000,2.675000,-2.205000,-1.875000,-2.205000,-1.875000,2.205000,2.675000,2.205000,2.675000,1.605000,2.675000,1.605000,$1*%
%AMFreePoly1*
4,1,6,1.000000,0.000000,0.500000,-0.750000,-0.500000,-0.750000,-0.500000,0.750000,0.500000,0.750000,1.000000,0.000000,1.000000,0.000000,$1*%
%AMFreePoly2*
4,1,6,0.500000,-0.750000,-0.650000,-0.750000,-0.150000,0.000000,-0.650000,0.750000,0.500000,0.750000,0.500000,-0.750000,0.500000,-0.750000,$1*%
G04 Aperture macros list end*
%ADD10RoundRect,0.250000X-0.337500X-0.475000X0.337500X-0.475000X0.337500X0.475000X-0.337500X0.475000X0*%
%ADD11RoundRect,0.250000X-0.350000X-0.450000X0.350000X-0.450000X0.350000X0.450000X-0.350000X0.450000X0*%
%ADD12RoundRect,0.100000X-0.325000X-0.100000X0.325000X-0.100000X0.325000X0.100000X-0.325000X0.100000X0*%
%ADD13R,1.650000X2.150000*%
%ADD14RoundRect,0.375000X0.625000X0.375000X-0.625000X0.375000X-0.625000X-0.375000X0.625000X-0.375000X0*%
%ADD15RoundRect,0.500000X0.500000X1.400000X-0.500000X1.400000X-0.500000X-1.400000X0.500000X-1.400000X0*%
%ADD16RoundRect,0.250000X0.350000X0.450000X-0.350000X0.450000X-0.350000X-0.450000X0.350000X-0.450000X0*%
%ADD17RoundRect,0.250000X-0.475000X0.337500X-0.475000X-0.337500X0.475000X-0.337500X0.475000X0.337500X0*%
%ADD18RoundRect,0.250000X0.475000X-0.337500X0.475000X0.337500X-0.475000X0.337500X-0.475000X-0.337500X0*%
%ADD19RoundRect,0.250000X-0.600000X-0.600000X0.600000X-0.600000X0.600000X0.600000X-0.600000X0.600000X0*%
%ADD20C,1.700000*%
%ADD21R,1.000000X1.200000*%
%ADD22RoundRect,0.162500X0.162500X-0.617500X0.162500X0.617500X-0.162500X0.617500X-0.162500X-0.617500X0*%
%ADD23R,1.700000X1.700000*%
%ADD24O,1.700000X1.700000*%
%ADD25RoundRect,0.250000X0.450000X-0.350000X0.450000X0.350000X-0.450000X0.350000X-0.450000X-0.350000X0*%
%ADD26RoundRect,0.250000X-0.450000X0.350000X-0.450000X-0.350000X0.450000X-0.350000X0.450000X0.350000X0*%
%ADD27RoundRect,0.250001X0.462499X1.074999X-0.462499X1.074999X-0.462499X-1.074999X0.462499X-1.074999X0*%
%ADD28C,3.500000*%
%ADD29R,1.600000X1.400000*%
%ADD30RoundRect,0.150000X0.150000X-0.512500X0.150000X0.512500X-0.150000X0.512500X-0.150000X-0.512500X0*%
%ADD31C,1.440000*%
%ADD32R,1.750000X1.100000*%
%ADD33R,0.215000X0.270000*%
%ADD34R,0.500000X0.320000*%
%ADD35RoundRect,0.250000X0.337500X0.475000X-0.337500X0.475000X-0.337500X-0.475000X0.337500X-0.475000X0*%
%ADD36R,1.200000X1.000000*%
%ADD37RoundRect,0.162500X-0.617500X-0.162500X0.617500X-0.162500X0.617500X0.162500X-0.617500X0.162500X0*%
%ADD38RoundRect,0.250002X-1.699998X1.699998X-1.699998X-1.699998X1.699998X-1.699998X1.699998X1.699998X0*%
%ADD39C,3.900000*%
%ADD40R,0.300000X1.400000*%
%ADD41RoundRect,0.100000X-0.637500X-0.100000X0.637500X-0.100000X0.637500X0.100000X-0.637500X0.100000X0*%
%ADD42O,2.500000X1.600000*%
%ADD43O,7.000000X3.500000*%
%ADD44R,0.450000X1.450000*%
%ADD45RoundRect,0.150000X-0.825000X-0.150000X0.825000X-0.150000X0.825000X0.150000X-0.825000X0.150000X0*%
%ADD46R,2.290000X3.000000*%
%ADD47RoundRect,0.150000X0.825000X0.150000X-0.825000X0.150000X-0.825000X-0.150000X0.825000X-0.150000X0*%
%ADD48FreePoly0,270.000000*%
%ADD49RoundRect,0.125000X-0.125000X0.300000X-0.125000X-0.300000X0.125000X-0.300000X0.125000X0.300000X0*%
%ADD50RoundRect,0.150000X0.512500X0.150000X-0.512500X0.150000X-0.512500X-0.150000X0.512500X-0.150000X0*%
%ADD51RoundRect,0.250000X0.412500X0.650000X-0.412500X0.650000X-0.412500X-0.650000X0.412500X-0.650000X0*%
%ADD52FreePoly1,0.000000*%
%ADD53FreePoly2,0.000000*%
%ADD54R,2.150000X5.500000*%
%ADD55FreePoly1,90.000000*%
%ADD56FreePoly2,90.000000*%
%ADD57RoundRect,0.150000X-0.150000X0.512500X-0.150000X-0.512500X0.150000X-0.512500X0.150000X0.512500X0*%
%ADD58FreePoly1,180.000000*%
%ADD59FreePoly2,180.000000*%
%ADD60RoundRect,0.250001X-0.462499X-1.074999X0.462499X-1.074999X0.462499X1.074999X-0.462499X1.074999X0*%
G04 APERTURE END LIST*
D10*
%TO.C,C41*%
X113890000Y-84250000D03*
X115965000Y-84250000D03*
%TD*%
D11*
%TO.C,R3*%
X106397500Y-79985000D03*
X108397500Y-79985000D03*
%TD*%
D10*
%TO.C,C18*%
X112212500Y-123887500D03*
X114287500Y-123887500D03*
%TD*%
D12*
%TO.C,U7*%
X111400000Y-117365000D03*
X111400000Y-118315000D03*
X111400000Y-119265000D03*
X114300000Y-119265000D03*
X114300000Y-118315000D03*
X114300000Y-117365000D03*
D13*
X112850000Y-118315000D03*
%TD*%
D10*
%TO.C,C12*%
X144662500Y-148675000D03*
X146737500Y-148675000D03*
%TD*%
D14*
%TO.C,U4*%
X144450000Y-103925000D03*
X144450000Y-101625000D03*
D15*
X138150000Y-101625000D03*
D14*
X144450000Y-99325000D03*
%TD*%
D16*
%TO.C,R31*%
X115550000Y-92800000D03*
X113550000Y-92800000D03*
%TD*%
D17*
%TO.C,C36*%
X107862500Y-147312500D03*
X107862500Y-149387500D03*
%TD*%
D18*
%TO.C,C3*%
X120387500Y-78237500D03*
X120387500Y-76162500D03*
%TD*%
D19*
%TO.C,U1*%
X126647500Y-73520000D03*
D20*
X129187500Y-73520000D03*
X126647500Y-76060000D03*
X129187500Y-76060000D03*
X126647500Y-78600000D03*
X129187500Y-78600000D03*
X126647500Y-81140000D03*
X129187500Y-81140000D03*
X126647500Y-83680000D03*
X129187500Y-83680000D03*
%TD*%
D21*
%TO.C,D3*%
X135350000Y-130100000D03*
X135350000Y-128100000D03*
%TD*%
D18*
%TO.C,C35*%
X105912500Y-138337500D03*
X105912500Y-136262500D03*
%TD*%
%TO.C,C28*%
X118400000Y-144137500D03*
X118400000Y-142062500D03*
%TD*%
D22*
%TO.C,U18*%
X103227500Y-89450000D03*
X104177500Y-89450000D03*
X105127500Y-89450000D03*
X105127500Y-86750000D03*
X103227500Y-86750000D03*
%TD*%
D16*
%TO.C,R21*%
X103250000Y-141712500D03*
X101250000Y-141712500D03*
%TD*%
D23*
%TO.C,J3*%
X129225000Y-91450000D03*
D24*
X126685000Y-91450000D03*
%TD*%
D10*
%TO.C,C44*%
X151000000Y-126200000D03*
X153075000Y-126200000D03*
%TD*%
D25*
%TO.C,R19*%
X103250000Y-145812500D03*
X103250000Y-143812500D03*
%TD*%
D11*
%TO.C,R28*%
X98000000Y-88000000D03*
X100000000Y-88000000D03*
%TD*%
D26*
%TO.C,R12*%
X118250000Y-117250000D03*
X118250000Y-119250000D03*
%TD*%
D25*
%TO.C,R7*%
X110000000Y-144800000D03*
X110000000Y-142800000D03*
%TD*%
D27*
%TO.C,L4*%
X135087500Y-156700000D03*
X132112500Y-156700000D03*
%TD*%
D10*
%TO.C,C40*%
X119140000Y-84250000D03*
X121215000Y-84250000D03*
%TD*%
D18*
%TO.C,C31*%
X97987500Y-141650000D03*
X97987500Y-139575000D03*
%TD*%
D23*
%TO.C,J1*%
X142222500Y-113000000D03*
D20*
X142222500Y-115500000D03*
X144222500Y-115500000D03*
X144222500Y-113000000D03*
D28*
X146932500Y-108230000D03*
X146932500Y-120270000D03*
%TD*%
D16*
%TO.C,R9*%
X130250000Y-148250000D03*
X128250000Y-148250000D03*
%TD*%
D27*
%TO.C,L2*%
X128837500Y-151350000D03*
X125862500Y-151350000D03*
%TD*%
D17*
%TO.C,C2*%
X98427500Y-70462500D03*
X98427500Y-72537500D03*
%TD*%
D29*
%TO.C,SW1*%
X100900000Y-69985000D03*
X108100000Y-69985000D03*
X100900000Y-72985000D03*
X108100000Y-72985000D03*
%TD*%
D30*
%TO.C,U13*%
X97987500Y-146000000D03*
X98937500Y-146000000D03*
X99887500Y-146000000D03*
X99887500Y-143725000D03*
X97987500Y-143725000D03*
%TD*%
D18*
%TO.C,C10*%
X131550000Y-152737500D03*
X131550000Y-150662500D03*
%TD*%
D22*
%TO.C,U20*%
X113927500Y-89450000D03*
X114877500Y-89450000D03*
X115827500Y-89450000D03*
X115827500Y-86750000D03*
X113927500Y-86750000D03*
%TD*%
D25*
%TO.C,R8*%
X149250000Y-104350000D03*
X149250000Y-102350000D03*
%TD*%
D31*
%TO.C,RV1*%
X146900000Y-69500000D03*
X144360000Y-72040000D03*
X141820000Y-69500000D03*
%TD*%
D10*
%TO.C,C38*%
X103140000Y-84250000D03*
X105215000Y-84250000D03*
%TD*%
D25*
%TO.C,R16*%
X125500000Y-110850000D03*
X125500000Y-108850000D03*
%TD*%
D23*
%TO.C,J2*%
X129225000Y-95300000D03*
D24*
X126685000Y-95300000D03*
%TD*%
D22*
%TO.C,U19*%
X119227500Y-89450000D03*
X120177500Y-89450000D03*
X121127500Y-89450000D03*
X121127500Y-86750000D03*
X119227500Y-86750000D03*
%TD*%
D18*
%TO.C,C13*%
X128537500Y-159187500D03*
X128537500Y-157112500D03*
%TD*%
D25*
%TO.C,R27*%
X116200000Y-144100000D03*
X116200000Y-142100000D03*
%TD*%
D17*
%TO.C,C6*%
X146400000Y-155450000D03*
X146400000Y-157525000D03*
%TD*%
%TO.C,C16*%
X134150000Y-150662500D03*
X134150000Y-152737500D03*
%TD*%
D25*
%TO.C,R4*%
X135350000Y-125950000D03*
X135350000Y-123950000D03*
%TD*%
D32*
%TO.C,R32*%
X121575000Y-114400000D03*
X121575000Y-113000000D03*
X124325000Y-113000000D03*
X124325000Y-114400000D03*
%TD*%
D33*
%TO.C,Q2*%
X118040000Y-137565000D03*
X118405000Y-137565000D03*
D34*
X118222500Y-137055000D03*
%TD*%
D26*
%TO.C,R15*%
X120550000Y-108850000D03*
X120550000Y-110850000D03*
%TD*%
D35*
%TO.C,C7*%
X143537500Y-159650000D03*
X141462500Y-159650000D03*
%TD*%
D17*
%TO.C,C4*%
X120400000Y-80162500D03*
X120400000Y-82237500D03*
%TD*%
D36*
%TO.C,D2*%
X102137500Y-79985000D03*
X104137500Y-79985000D03*
%TD*%
D37*
%TO.C,U3*%
X140912500Y-155500000D03*
X140912500Y-156450000D03*
X140912500Y-157400000D03*
X143612500Y-157400000D03*
X143612500Y-156450000D03*
X143612500Y-155500000D03*
%TD*%
D36*
%TO.C,D5*%
X132300000Y-146150000D03*
X130300000Y-146150000D03*
%TD*%
D18*
%TO.C,C34*%
X116000000Y-106237500D03*
X116000000Y-104162500D03*
%TD*%
D16*
%TO.C,R10*%
X108412500Y-155050000D03*
X106412500Y-155050000D03*
%TD*%
D26*
%TO.C,R6*%
X136600000Y-83650000D03*
X136600000Y-85650000D03*
%TD*%
D17*
%TO.C,C14*%
X147050000Y-102325000D03*
X147050000Y-104400000D03*
%TD*%
D22*
%TO.C,U14*%
X112212500Y-144800000D03*
X113162500Y-144800000D03*
X114112500Y-144800000D03*
X114112500Y-142100000D03*
X112212500Y-142100000D03*
%TD*%
D10*
%TO.C,C19*%
X112212500Y-121437500D03*
X114287500Y-121437500D03*
%TD*%
D38*
%TO.C,J5*%
X122800000Y-127100000D03*
D39*
X122800000Y-134900000D03*
%TD*%
D17*
%TO.C,C23*%
X118550000Y-157062500D03*
X118550000Y-159137500D03*
%TD*%
D16*
%TO.C,R17*%
X105850000Y-148362500D03*
X103850000Y-148362500D03*
%TD*%
D21*
%TO.C,D4*%
X151400000Y-102362500D03*
X151400000Y-104362500D03*
%TD*%
D22*
%TO.C,U17*%
X108715000Y-89450000D03*
X109665000Y-89450000D03*
X110615000Y-89450000D03*
X110615000Y-86750000D03*
X108715000Y-86750000D03*
%TD*%
D40*
%TO.C,U21*%
X137600000Y-74350000D03*
X137100000Y-74350000D03*
X136600000Y-74350000D03*
X136100000Y-74350000D03*
X135600000Y-74350000D03*
X135600000Y-78750000D03*
X136100000Y-78750000D03*
X136600000Y-78750000D03*
X137100000Y-78750000D03*
X137600000Y-78750000D03*
%TD*%
D35*
%TO.C,C5*%
X120287500Y-150950000D03*
X118212500Y-150950000D03*
%TD*%
D26*
%TO.C,R22*%
X110972500Y-103350000D03*
X110972500Y-105350000D03*
%TD*%
D36*
%TO.C,D1*%
X102137500Y-76235000D03*
X104137500Y-76235000D03*
%TD*%
D17*
%TO.C,C21*%
X111100000Y-157212500D03*
X111100000Y-159287500D03*
%TD*%
D41*
%TO.C,U2*%
X111525000Y-75560000D03*
X111525000Y-76210000D03*
X111525000Y-76860000D03*
X111525000Y-77510000D03*
X111525000Y-78160000D03*
X111525000Y-78810000D03*
X111525000Y-79460000D03*
X111525000Y-80110000D03*
X111525000Y-80760000D03*
X111525000Y-81410000D03*
X117250000Y-81410000D03*
X117250000Y-80760000D03*
X117250000Y-80110000D03*
X117250000Y-79460000D03*
X117250000Y-78810000D03*
X117250000Y-78160000D03*
X117250000Y-77510000D03*
X117250000Y-76860000D03*
X117250000Y-76210000D03*
X117250000Y-75560000D03*
%TD*%
D42*
%TO.C,J7*%
X142170000Y-89250000D03*
D43*
X147250000Y-84170000D03*
D42*
X142170000Y-86710000D03*
D43*
X147250000Y-94330000D03*
%TD*%
D44*
%TO.C,U10*%
X105937500Y-145050000D03*
X106587500Y-145050000D03*
X107237500Y-145050000D03*
X107887500Y-145050000D03*
X107887500Y-140650000D03*
X107237500Y-140650000D03*
X106587500Y-140650000D03*
X105937500Y-140650000D03*
%TD*%
D26*
%TO.C,R1*%
X110637500Y-70500000D03*
X110637500Y-72500000D03*
%TD*%
D45*
%TO.C,U5*%
X136795000Y-148395000D03*
X136795000Y-149665000D03*
X136795000Y-150935000D03*
X136795000Y-152205000D03*
X141745000Y-152205000D03*
X141745000Y-150935000D03*
X141745000Y-149665000D03*
X141745000Y-148395000D03*
D46*
X139270000Y-150300000D03*
%TD*%
D17*
%TO.C,C11*%
X138362500Y-155450000D03*
X138362500Y-157525000D03*
%TD*%
D47*
%TO.C,U11*%
X116197500Y-112255000D03*
X116197500Y-110985000D03*
X116197500Y-109715000D03*
X116197500Y-108445000D03*
X111247500Y-108445000D03*
X111247500Y-109715000D03*
X111247500Y-110985000D03*
X111247500Y-112255000D03*
%TD*%
D18*
%TO.C,C20*%
X123500000Y-152587500D03*
X123500000Y-150512500D03*
%TD*%
D17*
%TO.C,C17*%
X121000000Y-157062500D03*
X121000000Y-159137500D03*
%TD*%
D10*
%TO.C,C15*%
X144712500Y-152150000D03*
X146787500Y-152150000D03*
%TD*%
D26*
%TO.C,R18*%
X118050000Y-103200000D03*
X118050000Y-105200000D03*
%TD*%
D17*
%TO.C,C8*%
X116050000Y-148125000D03*
X116050000Y-150200000D03*
%TD*%
D48*
%TO.C,Q1*%
X122850000Y-120050000D03*
D49*
X124755000Y-116500000D03*
X123485000Y-116500000D03*
X122215000Y-116500000D03*
X120945000Y-116500000D03*
%TD*%
D50*
%TO.C,U6*%
X125775000Y-159137500D03*
X125775000Y-158187500D03*
X125775000Y-157237500D03*
X123500000Y-157237500D03*
X123500000Y-159137500D03*
%TD*%
D31*
%TO.C,RV2*%
X146875000Y-76525000D03*
X144335000Y-79065000D03*
X141795000Y-76525000D03*
%TD*%
D42*
%TO.C,J6*%
X142170000Y-139250000D03*
D43*
X147250000Y-134170000D03*
D42*
X142170000Y-136710000D03*
D43*
X147250000Y-144330000D03*
%TD*%
D51*
%TO.C,C1*%
X141225000Y-126250000D03*
X138100000Y-126250000D03*
%TD*%
D17*
%TO.C,C30*%
X113162500Y-147062500D03*
X113162500Y-149137500D03*
%TD*%
D16*
%TO.C,R29*%
X100000000Y-90800000D03*
X98000000Y-90800000D03*
%TD*%
D36*
%TO.C,D6*%
X104250000Y-155050000D03*
X102250000Y-155050000D03*
%TD*%
D17*
%TO.C,C32*%
X98937500Y-148012500D03*
X98937500Y-150087500D03*
%TD*%
D10*
%TO.C,C9*%
X147062500Y-99350000D03*
X149137500Y-99350000D03*
%TD*%
D52*
%TO.C,JP4*%
X106725000Y-159100000D03*
D53*
X108175000Y-159100000D03*
%TD*%
D17*
%TO.C,C39*%
X131500000Y-137512500D03*
X131500000Y-139587500D03*
%TD*%
D11*
%TO.C,R2*%
X106397500Y-76235000D03*
X108397500Y-76235000D03*
%TD*%
D10*
%TO.C,C37*%
X108677500Y-84250000D03*
X110752500Y-84250000D03*
%TD*%
D54*
%TO.C,L1*%
X144270000Y-127250000D03*
X148130000Y-127250000D03*
%TD*%
D35*
%TO.C,C33*%
X111187500Y-114315000D03*
X109112500Y-114315000D03*
%TD*%
D18*
%TO.C,C29*%
X112212500Y-139837500D03*
X112212500Y-137762500D03*
%TD*%
D10*
%TO.C,C24*%
X130825000Y-159550000D03*
X132900000Y-159550000D03*
%TD*%
%TO.C,C42*%
X135612500Y-70550000D03*
X137687500Y-70550000D03*
%TD*%
D18*
%TO.C,C22*%
X120300000Y-101025000D03*
X120300000Y-98950000D03*
%TD*%
D55*
%TO.C,JP3*%
X125100000Y-148300000D03*
D56*
X125100000Y-146850000D03*
%TD*%
D26*
%TO.C,R20*%
X113950000Y-103250000D03*
X113950000Y-105250000D03*
%TD*%
D16*
%TO.C,R30*%
X120800000Y-92800000D03*
X118800000Y-92800000D03*
%TD*%
D26*
%TO.C,R24*%
X108700000Y-108500000D03*
X108700000Y-110500000D03*
%TD*%
D57*
%TO.C,U8*%
X120300000Y-146500000D03*
X119350000Y-146500000D03*
X118400000Y-146500000D03*
X118400000Y-148775000D03*
X120300000Y-148775000D03*
%TD*%
D58*
%TO.C,JP2*%
X134525000Y-101600000D03*
D59*
X133075000Y-101600000D03*
%TD*%
D29*
%TO.C,SW2*%
X113150000Y-69947500D03*
X120350000Y-69947500D03*
X113150000Y-72947500D03*
X120350000Y-72947500D03*
%TD*%
D47*
%TO.C,U9*%
X125475000Y-107005000D03*
X125475000Y-105735000D03*
X125475000Y-104465000D03*
X125475000Y-103195000D03*
X120525000Y-103195000D03*
X120525000Y-104465000D03*
X120525000Y-105735000D03*
X120525000Y-107005000D03*
%TD*%
D35*
%TO.C,C45*%
X140650000Y-128750000D03*
X138575000Y-128750000D03*
%TD*%
D40*
%TO.C,U16*%
X136500000Y-136550000D03*
X136000000Y-136550000D03*
X135500000Y-136550000D03*
X135000000Y-136550000D03*
X134500000Y-136550000D03*
X134500000Y-140950000D03*
X135000000Y-140950000D03*
X135500000Y-140950000D03*
X136000000Y-140950000D03*
X136500000Y-140950000D03*
%TD*%
D23*
%TO.C,J4*%
X98702500Y-76950000D03*
D24*
X98702500Y-79490000D03*
X98702500Y-82030000D03*
X98702500Y-84570000D03*
%TD*%
D10*
%TO.C,C43*%
X151000000Y-128400000D03*
X153075000Y-128400000D03*
%TD*%
D11*
%TO.C,R5*%
X135100000Y-144000000D03*
X137100000Y-144000000D03*
%TD*%
D60*
%TO.C,L3*%
X113312500Y-158400000D03*
X116287500Y-158400000D03*
%TD*%
D35*
%TO.C,C25*%
X137187500Y-159550000D03*
X135112500Y-159550000D03*
%TD*%
G36*
X149443039Y-160819685D02*
G01*
X149488794Y-160872489D01*
X149500000Y-160924000D01*
X149500000Y-163126000D01*
X149480315Y-163193039D01*
X149427511Y-163238794D01*
X149376000Y-163250000D01*
X95124000Y-163250000D01*
X95056961Y-163230315D01*
X95011206Y-163177511D01*
X95000000Y-163126000D01*
X95000000Y-160924000D01*
X95019685Y-160856961D01*
X95072489Y-160811206D01*
X95124000Y-160800000D01*
X149376000Y-160800000D01*
X149443039Y-160819685D01*
G37*
G36*
X149443039Y-65269685D02*
G01*
X149488794Y-65322489D01*
X149500000Y-65374000D01*
X149500000Y-67626000D01*
X149480315Y-67693039D01*
X149427511Y-67738794D01*
X149376000Y-67750000D01*
X95124000Y-67750000D01*
X95056961Y-67730315D01*
X95011206Y-67677511D01*
X95000000Y-67626000D01*
X95000000Y-65374000D01*
X95019685Y-65306961D01*
X95072489Y-65261206D01*
X95124000Y-65250000D01*
X149376000Y-65250000D01*
X149443039Y-65269685D01*
G37*
M02*
